<?xml version="1.0" encoding="UTF-8"?>
<svg width="32" height="32" version="1.1" viewBox="0 0 8.4667 8.4667" xmlns="http://www.w3.org/2000/svg"><g transform="matrix(.059653 0 0 .059653 -2.1253 -5.0511)"><g transform="translate(-2.6082,40.87)"><path d="m177.95 114.77c0 37.75-30.76 68.748-68.902 68.748-37.834 0-68.594-30.998-68.594-68.748 0-38.057 30.76-68.748 68.594-68.748 38.142 0 68.902 30.691 68.902 68.748z" fill="#009640"/><path d="m157.12 114.91c0 26.381-21.398 47.779-48.072 47.779-26.381 0-47.779-21.398-47.779-47.779 0-26.674 21.398-48.072 47.779-48.072 26.674 0 48.072 21.398 48.072 48.072z" fill="#fff"/><g transform="matrix(.63868 0 0 .63868 44.86 17.537)"><path d="m167.25 152.24c0 36.105-28.98 65.085-65.085 65.085-35.631 0-64.61-28.98-64.61-65.085 0-35.631 28.979-65.086 64.61-65.086 36.105 0 65.085 29.455 65.085 65.086z" fill="#d2020e"/><path d="m174.85 152.24c0 29.454-23.754 53.683-53.683 53.683-29.455 0-53.209-24.229-53.209-53.683 0-29.455 23.754-53.209 53.209-53.209 29.929 0 53.683 23.754 53.683 53.209z" fill="#fff"/></g><g fill="#fff"><g transform="translate(-.45513 -3.1824)"><path d="m78.026 161.34c0 2.7308-2.4274 5.1583-5.1582 5.1583-3.0339 0-5.1578-2.4275-5.1578-5.1583 0-3.0342 2.124-5.4616 5.1578-5.4616 2.7308 0 5.1582 2.4275 5.1582 5.4616z"/><path d="m151.6 161.34c0 2.7308-2.4274 5.1583-5.4616 5.1583-2.7308 0-5.1582-2.4275-5.1582-5.1583 0-3.0342 2.4274-5.4616 5.1582-5.4616 3.0342 0 5.4616 2.4275 5.4616 5.4616z"/></g><g transform="rotate(70.845,113.35,118.22)" stroke-width=".26458" style="font-feature-settings:normal;font-variant-caps:normal;font-variant-ligatures:normal;font-variant-numeric:normal" aria-label="BANGLADESH RED CRESCENT SOCIETY"><path d="m127.36 181.82-3.293 0.83438q-1.3487 0.34174-1.9588 0.23405-0.61014-0.10768-1.1445-0.63527t-0.73388-1.3149q-0.18388-0.72568-0.0113-1.396 0.17432-0.66345 0.61666-1.0742-0.79845-0.0745-1.3688-0.6003-0.5772-0.52402-0.80618-1.4277-0.27755-1.0954 0.0571-1.9889 0.33633-0.88664 1.0101-1.2468 0.46854-0.24986 2.2896-0.71129l2.8001-0.70948zm-2.08-1.2506-0.58806-2.3208-1.0954 0.27755q-0.98583 0.2498-1.2099 0.34301-0.40711 0.17601-0.57387 0.52426-0.16502 0.35509-0.0384 0.85486 0.11276 0.44499 0.38068 0.66853 0.26282 0.23212 0.56085 0.22946 0.29119-9.3e-4 1.6056-0.33399zm-1.0113-3.9913-0.67999-2.6837-1.5404 0.3903q-1.0132 0.25673-1.2747 0.43228-0.25978 0.1824-0.37341 0.53904-0.11874 0.36523 3e-3 0.84445 0.12489 0.49292 0.41692 0.75407 0.28691 0.26972 0.66555 0.29764 0.37353 0.0365 1.4415-0.23412z" style="font-feature-settings:normal;font-variant-caps:normal;font-variant-ligatures:normal;font-variant-numeric:normal"/><path d="m108.85 174.41 1.8576-0.16052 0.94128 2.2792 3.3774-0.29185 0.49412-2.4033 1.8154-0.15687-2.4016 10.6-1.8083 0.15626zm3.4978 3.8092 1.4918 3.7274 0.81614-3.9268z" style="font-feature-settings:normal;font-variant-caps:normal;font-variant-ligatures:normal;font-variant-numeric:normal"/><path d="m107.91 174.35-0.79502 10.323-1.6618-0.12798-2.9336-7.1605-0.53091 6.8937-1.5914-0.12256 0.79502-10.323 1.7182 0.13233 2.8897 6.9942 0.51845-6.7318z" style="font-feature-settings:normal;font-variant-caps:normal;font-variant-ligatures:normal;font-variant-numeric:normal"/><path d="m94.636 176.3-0.42424 1.692-3.5828-0.89829 1.0031-4.0006q0.70092-0.5014 1.8093-0.71133 1.1084-0.20993 2.1085 0.0408 1.2194 0.30573 2.0016 1.1353 0.78051 0.83643 1.0297 2.1658 0.24061 1.3345-0.16474 2.9512-0.41565 1.6578-1.2591 2.6987-0.8503 1.0392-1.8732 1.4016-1.0297 0.36072-2.2559 0.0533-1.4728-0.36928-2.1676-1.3444-0.70334-0.96998-0.59268-2.4858l1.7386 0.0354q-0.0091 0.82047 0.38105 1.3552 0.39018 0.53469 1.0752 0.70644 1.0618 0.26623 1.9273-0.39779 0.86375-0.65716 1.288-2.3492 0.45516-1.8154-0.02026-2.9393-0.4053-0.96806-1.4466-1.2291-0.48638-0.12195-1.0637-0.0264-0.58588 0.10066-1.0965 0.39493l-0.31947 1.2742z" style="font-feature-settings:normal;font-variant-caps:normal;font-variant-ligatures:normal;font-variant-numeric:normal"/><path d="m90.444 171.1-4.0092 9.4538-1.5735-0.66727 3.3281-7.8478-3.9272-1.6654 0.68106-1.606z" style="font-feature-settings:normal;font-variant-caps:normal;font-variant-ligatures:normal;font-variant-numeric:normal"/><path d="m77.3 164.21 1.59 0.97382-0.59597 2.3928 2.8908 1.7706 1.8246-1.6403 1.5538 0.95169-8.2262 7.1028-1.5478-0.948zm0.55264 5.142-1.0129 3.8849 2.9883-2.675z" style="font-feature-settings:normal;font-variant-caps:normal;font-variant-ligatures:normal;font-variant-numeric:normal"/><path d="m69.85 171.47-2.3721-2.04q-0.89959-0.77362-1.1798-1.3685-0.29012-0.59415-0.26582-1.4023 0.0243-0.80812 0.45866-1.7573 0.43436-0.94917 1.406-2.079 0.87494-1.0174 1.7545-1.5744 0.87494-0.55164 1.606-0.6868 0.73101-0.13517 1.4278 0.0728 0.68679 0.20872 1.4739 0.88564l2.4417 2.0998zm-0.15382-2.4424 4.4714-5.1994-0.97456-0.83809q-0.6265-0.53878-1.0063-0.66043-0.38511-0.12626-0.76443-0.0426-0.38928 0.0844-0.94916 0.49713-0.55988 0.41275-1.2828 1.2534-0.7506 0.87282-1.0603 1.4821-0.31506 0.60465-0.3067 1.1148 3e-3 0.50558 0.28884 0.90975 0.21322 0.30446 0.99501 0.97678z" style="font-feature-settings:normal;font-variant-caps:normal;font-variant-ligatures:normal;font-variant-numeric:normal"/><path d="m70.202 157.91-7.8815 6.714-4.0852-4.7956 1.3333-1.1358 2.9769 3.4945 1.7473-1.4884-2.7662-3.2472 1.3279-1.1312 2.7662 3.2472 2.1451-1.8274-3.0776-3.6128 1.3279-1.1312z" style="font-feature-settings:normal;font-variant-caps:normal;font-variant-ligatures:normal;font-variant-numeric:normal"/><path d="m62.541 153.95-1.0526-1.3163q1.5353-1.2888 0.70655-2.6197-0.41065-0.65946-0.98756-0.82437-0.58291-0.16117-1.0925 0.15615-0.29976 0.18665-0.42746 0.44921-0.1277 0.26255-0.0916 0.61446 0.0301 0.35565 0.35819 1.5907 0.29687 1.1047 0.23592 1.7417-0.06095 0.63697-0.43399 1.227-0.38277 0.58777-1.0003 0.97229-0.71942 0.44798-1.4965 0.48262-0.78086 0.0286-1.433-0.36396-0.65214-0.39261-1.1785-1.2379-0.79143-1.271-0.54623-2.4137t1.502-1.9836l0.98509 1.4083q-0.6477 0.53643-0.73161 1.0296-0.08391 0.4932 0.28193 1.0807 0.36585 0.58753 0.80951 0.75221 0.44366 0.16469 0.80936-0.063 0.35971-0.22398 0.42632-0.66481t-0.28546-1.6609q-0.36542-1.295-0.31409-2.0008 0.0416-0.70813 0.43862-1.3131 0.39103-0.60124 1.1824-1.094 1.1451-0.71303 2.365-0.49091 1.2161 0.21613 2.1494 1.7149 1.65 2.6499-1.1789 4.8274z" style="font-feature-settings:normal;font-variant-caps:normal;font-variant-ligatures:normal;font-variant-numeric:normal"/><path d="m61.079 145.02-9.52 4.0701-0.67186-1.5715 3.747-1.6019-1.3215-3.0911-3.747 1.6019-0.67464-1.578 9.52-4.07 0.67464 1.578-4.1626 1.7796 1.3215 3.0911 4.1626-1.7796z" style="font-feature-settings:normal;font-variant-caps:normal;font-variant-ligatures:normal;font-variant-numeric:normal"/><path d="m56.923 133.9-10.179 1.8906-0.65902-3.5482q-0.25277-1.361-0.08336-1.9958 0.16247-0.63357 0.77331-1.1349 0.6039-0.50005 1.5482-0.67545 1.1943-0.22182 2.0304 0.21909 0.83484 0.43397 1.2184 1.4546 0.28825-0.61383 0.68771-1.0544 0.39251-0.43925 1.4733-1.2721l1.7976-1.3826 0.37271 2.0067-1.9881 1.6335q-1.0787 0.88276-1.3335 1.1743-0.26167 0.29283-0.32377 0.57733-0.06903 0.28578 0.0393 0.86905l0.06448 0.34719 4.2495-0.78928zm-6.1865-0.58932-0.23214-1.2499q-0.2128-1.1457-0.36804-1.4401-0.16219-0.29313-0.50382-0.4308-0.34163-0.13768-0.84852-0.0435-0.48606 0.0903-0.74158 0.33887-0.26247 0.24988-0.31166 0.60381-0.03253 0.25027 0.17768 1.3821l0.24504 1.3193z" style="font-feature-settings:normal;font-variant-caps:normal;font-variant-ligatures:normal;font-variant-numeric:normal"/><path d="m55.517 125.45-10.35 0.28384-0.17271-6.2973 1.7508-0.048 0.12585 4.5889 2.2944-0.0629-0.11695-4.2641 1.7438-0.0478 0.11695 4.2641 2.8169-0.0773-0.13011-4.7442 1.7438-0.0478z" style="font-feature-settings:normal;font-variant-caps:normal;font-variant-ligatures:normal;font-variant-numeric:normal"/><path d="m45.142 116.22 0.40225-3.1027q0.15255-1.1766 0.49587-1.7375 0.33723-0.56874 1.0259-0.9922t1.7205-0.58168q1.0318-0.15822 2.5096 0.0334 1.3307 0.17253 2.2792 0.60172 0.94149 0.42829 1.4559 0.965t0.72319 1.2332q0.20271 0.68858 0.06923 1.7181l-0.41406 3.1938zm1.9567-1.4697 6.8007 0.88168 0.16526-1.2747q0.10624-0.81945-6.3e-4 -1.2036-0.10596-0.39118-0.38416-0.66226-0.2843-0.27899-0.93669-0.52024t-1.752-0.38381q-1.1416-0.14801-1.8209-0.0723-0.67834 0.0687-1.1001 0.35589-0.42088 0.28014-0.60169 0.74097-0.13736 0.34539-0.26993 1.368z" style="font-feature-settings:normal;font-variant-caps:normal;font-variant-ligatures:normal;font-variant-numeric:normal"/><path d="m55.801 99.443 1.1763-1.3357q1.4964 0.96447 1.9398 2.0909 0.43681 1.124-0.01924 2.3634-0.57311 1.5576-2.1288 2.0839-1.795 0.60381-4.1479-0.26195-2.4855-0.91453-3.4785-2.5517-0.86106-1.423-0.25625-3.0668 0.49263-1.3389 1.739-1.9037 0.8861-0.40392 2.2751-0.2315l-0.12134 1.7614q-0.84483-0.13777-1.4307 0.16593-0.59003 0.29462-0.81683 0.91103-0.32435 0.88153 0.23964 1.7212 0.564 0.83965 2.3337 1.4908 1.836 0.67554 2.8114 0.41737 0.97546-0.25816 1.2949-1.1264 0.23412-0.63629-0.08564-1.2807-0.32639-0.64687-1.3245-1.2474z" style="font-feature-settings:normal;font-variant-caps:normal;font-variant-ligatures:normal;font-variant-numeric:normal"/><path d="m60.588 97.863-9.0203-5.0823 1.7715-3.1442q0.67949-1.206 1.2168-1.5842 0.53118-0.38165 1.3214-0.37417 0.78405 4e-3 1.6209 0.47549 1.0583 0.59628 1.4166 1.471 0.36179 0.86856 9.75e-4 1.8974 0.61498-0.2858 1.204-0.36733 0.5829-0.085 1.9463-0.03018l2.2659 0.09316-1.0019 1.7782-2.573-0.02297q-1.3938-0.01521-1.7763 0.04492-0.3886 0.05666-0.61879 0.23501-0.23634 0.17488-0.52755 0.69173l-0.17334 0.30765 3.7656 2.1217zm-4.3665-4.4219 0.62402-1.1075q0.57202-1.0152 0.64188-1.3407 0.06371-0.32889-0.10995-0.65371t-0.62283-0.5779q-0.43071-0.24267-0.78621-0.21599-0.36165 0.02321-0.6265 0.26309-0.18555 0.17107-0.75064 1.174l-0.65869 1.1691z" style="font-feature-settings:normal;font-variant-caps:normal;font-variant-ligatures:normal;font-variant-numeric:normal"/><path d="m64.931 90.481-8.1293-6.4117 3.9013-4.9463 1.3752 1.0847-2.8429 3.6044 1.8022 1.4214 2.6417-3.3493 1.3697 1.0803-2.6417 3.3493 2.2125 1.7451 2.9391-3.7264 1.3697 1.0803z" style="font-feature-settings:normal;font-variant-caps:normal;font-variant-ligatures:normal;font-variant-numeric:normal"/><path d="m67.31 82.189 1.0855-1.2894q1.5638 1.2541 2.7073 0.18145 0.5666-0.5315 0.61568-1.1295 0.04426-0.60316-0.36645-1.041-0.24159-0.25754-0.52403-0.33152-0.28243-0.07398-0.62052 0.03014-0.34292 0.09896-1.4901 0.66188-1.0255 0.50685-1.6621 0.57144-0.63661 0.0646-1.2881-0.18606-0.6512-0.26064-1.1489-0.79118-0.57982-0.6181-0.76553-1.3735-0.18056-0.76024 0.07716-1.4765 0.25772-0.71625 0.98399-1.3975 1.092-1.0244 2.2606-1.007 1.1686 0.01736 2.2387 1.0858l-1.1888 1.2411q-0.65257-0.53049-1.1527-0.5165-0.50009 0.014-1.0049 0.48752-0.50478 0.47352-0.57967 0.9408-0.07489 0.46727 0.21985 0.78148 0.28991 0.30905 0.73526 0.28831t1.5732-0.60426q1.1987-0.61123 1.901-0.69871 0.70262-0.09746 1.3735 0.1738 0.66602 0.26611 1.3038 0.94602 0.92288 0.98382 0.94322 2.2236 0.02549 1.2349-1.2622 2.4429-2.2767 2.1357-4.9646-0.21361z" style="font-feature-settings:normal;font-variant-caps:normal;font-variant-ligatures:normal;font-variant-numeric:normal"/><path d="m78.136 72.808 1.7339-0.4015q0.65544 1.6552 0.36043 2.8293-0.29898 1.1682-1.3912 1.9106-1.3726 0.93301-2.944 0.45548-1.811-0.55372-3.2205-2.6272-1.4888-2.1903-1.3434-4.0995 0.12807-1.6583 1.5766-2.643 1.1798-0.80199 2.5221-0.53592 0.95564 0.18728 1.9847 1.1359l-1.1239 1.3617q-0.6068-0.60374-1.2599-0.69776-0.65127-0.10383-1.1945 0.2654-0.77683 0.52805-0.80691 1.5391-0.03008 1.011 1.03 2.5705 1.0998 1.6179 2.0432 1.9757 0.94347 0.35781 1.7086-0.16229 0.56072-0.38115 0.67578-1.0913 0.11109-0.71598-0.35103-1.7853z" style="font-feature-settings:normal;font-variant-caps:normal;font-variant-ligatures:normal;font-variant-numeric:normal"/><path d="m82.959 74.33-4.4196-9.3629 5.6969-2.6891 0.74766 1.5839-4.1513 1.9596 0.97979 2.0757 3.8575-1.8209 0.74464 1.5775-3.8575 1.8209 1.2029 2.5483 4.2918-2.0259 0.74464 1.5775z" style="font-feature-settings:normal;font-variant-caps:normal;font-variant-ligatures:normal;font-variant-numeric:normal"/><path d="m90.181 71.049-2.9424-9.9266 1.598-0.47367 5.2964 5.6416-1.9649-6.629 1.5303-0.4536 2.9424 9.9266-1.6522 0.48973-5.196-5.5019 1.9188 6.4733z" style="font-feature-settings:normal;font-variant-caps:normal;font-variant-ligatures:normal;font-variant-numeric:normal"/><path d="m100.31 68.515-1.2171-8.5155-2.4959 0.35673-0.24781-1.7339 6.6768-0.95428 0.24781 1.7339-2.4889 0.35573 1.2171 8.5155z" style="font-feature-settings:normal;font-variant-caps:normal;font-variant-ligatures:normal;font-variant-numeric:normal"/><path d="m108.71 64.378 1.6829-0.09282q0.15799 1.9983 1.7228 2.0962 0.77535 0.04852 1.2446-0.32546 0.46965-0.38103 0.50714-0.98017 0.0221-0.35243-0.11758-0.60884-0.13963-0.25641-0.44712-0.43133-0.30704-0.18197-1.5031-0.63186-1.0718-0.39966-1.555-0.81909-0.48325-0.41944-0.74708-1.0657-0.25635-0.6529-0.21091-1.3789 0.0529-0.84584 0.4759-1.4987 0.43002-0.65241 1.1283-0.95545t1.6921-0.24084q1.4943 0.09351 2.2824 0.9566 0.78807 0.86309 0.74301 2.3746l-1.7186-0.01555q-0.0607-0.8388-0.41358-1.1935-0.35285-0.35466-1.0436-0.39789-0.69076-0.04323-1.0824 0.22239-0.39166 0.26562-0.41857 0.69558-0.0265 0.42292 0.29379 0.73309 0.32025 0.31017 1.518 0.73186 1.2665 0.4543 1.8114 0.9059 0.55241 0.44499 0.81448 1.1195 0.26251 0.66744 0.20428 1.5979-0.0842 1.3463-0.97333 2.2106-0.88204 0.86472-2.6442 0.75444-3.1155-0.19497-3.2461-3.7625z" style="font-feature-settings:normal;font-variant-caps:normal;font-variant-ligatures:normal;font-variant-numeric:normal"/><path d="m117.64 63.288q0.41066-1.8042 1.2058-2.8473 0.80359-1.0484 1.7945-1.4241 0.99088-0.37564 2.2166-0.09664 1.7767 0.40439 2.5835 2.0149 0.81369 1.6121 0.24315 4.1187-0.57681 2.5342-2.0857 3.69-1.3267 1.0235-3.1102 0.61756-1.7973-0.4091-2.5535-1.8922-0.86-1.6951-0.29416-4.181zm1.7372 0.32299q-0.39655 1.7422 0.0655 2.7673 0.46359 1.0181 1.4414 1.2407 0.98474 0.22414 1.828-0.48931 0.8448-0.72034 1.2523-2.5108 0.39969-1.756-0.0426-2.7403-0.43543-0.98277-1.4546-1.2147-1.0192-0.23198-1.8524 0.46927-0.83321 0.70125-1.2376 2.4779z" style="font-feature-settings:normal;font-variant-caps:normal;font-variant-ligatures:normal;font-variant-numeric:normal"/><path d="m132.29 69.122 1.2897 1.2265q-1.021 1.4584-2.1636 1.8584-1.1398 0.39348-2.3609-0.10965-1.5345-0.63228-2.0009-2.207-0.5347-1.8168 0.42045-4.1349 1.009-2.4487 2.6829-3.3783 1.455-0.80598 3.0744-0.13873 1.319 0.54349 1.8358 1.8105 0.36973 0.90091 0.14429 2.2822l-1.7555-0.18864q0.16999-0.83894-0.11107-1.436-0.27183-0.60087-0.87911-0.85109-0.86847-0.35784-1.7291 0.17361-0.86062 0.53146-1.579 2.2749-0.74529 1.8088-0.52463 2.7934 0.22065 0.98462 1.0761 1.3371 0.62687 0.25829 1.2831-0.03658 0.65888-0.3014 1.2972-1.2758z" style="font-feature-settings:normal;font-variant-caps:normal;font-variant-ligatures:normal;font-variant-numeric:normal"/><path d="m133.58 74.027 4.9834-9.0753 1.4981 0.82264-4.9834 9.0753z" style="font-feature-settings:normal;font-variant-caps:normal;font-variant-ligatures:normal;font-variant-numeric:normal"/><path d="m136.55 75.623 5.9116-8.4999 5.1718 3.597-1.0001 1.4379-3.7687-2.6211-1.3106 1.8844 3.502 2.4356-0.99602 1.4321-3.502-2.4356-1.609 2.3134 3.8963 2.7098-0.99602 1.4321z" style="font-feature-settings:normal;font-variant-caps:normal;font-variant-ligatures:normal;font-variant-numeric:normal"/><path d="m144.35 81.563 5.8705-6.2875-1.8429-1.7207 1.1953-1.2802 4.9298 4.6029-1.1953 1.2802-1.8377-1.7158-5.8705 6.2875z" style="font-feature-settings:normal;font-variant-caps:normal;font-variant-ligatures:normal;font-variant-numeric:normal"/><path d="m149.59 87.031 3.4009-2.7244 2.7368-6.174 1.254 1.5654-1.9473 4.1209 4.4244-1.0287 1.2319 1.5378-6.6423 1.3213-3.3898 2.7155z" style="font-feature-settings:normal;font-variant-caps:normal;font-variant-ligatures:normal;font-variant-numeric:normal"/></g><g transform="rotate(4.3603,67.189,137.12)" stroke-width=".26458" style="font-feature-settings:normal;font-variant-caps:normal;font-variant-ligatures:normal;font-variant-numeric:normal" aria-label="BDRCS"><path d="m94.934 161.75 3.293 0.83438q1.3487 0.34174 1.8339 0.72697 0.48524 0.38524 0.70392 1.1036t0.0192 1.5057q-0.18388 0.72569-0.65483 1.2329-0.46921 0.50039-1.0538 0.65098 0.66662 0.44576 0.91779 1.1797 0.25802 0.73566 0.02904 1.6393-0.2776 1.0954-0.99729 1.7217-0.71796 0.6195-1.4819 0.61536-0.53099-3e-3 -2.3521-0.46483l-2.8001-0.70948zm1.2335 2.0902-0.58806 2.3208 1.0954 0.27755q0.98584 0.24979 1.2273 0.27454 0.4418 0.0391 0.75428-0.18773 0.3142-0.23367 0.44084-0.73343 0.11275-0.445-0.0164-0.76915-0.12057-0.32926-0.38391-0.46884-0.2565-0.13785-1.5709-0.47091zm-1.0113 3.9913-0.68 2.6837 1.5404 0.39031q1.0132 0.25673 1.3268 0.2269 0.31529-0.0367 0.58504-0.29619 0.27833-0.26461 0.39976-0.74384 0.1249-0.49292-0.0075-0.86161-0.12385-0.37381-0.44351-0.57866-0.31108-0.20997-1.3791-0.48058z"/><path d="m101.61 163.44 3.117 0.26935q1.1821 0.10215 1.7571 0.42121 0.58262 0.31263 1.0351 0.98263t0.65464 1.6941q0.20215 1.0241 0.0738 2.5087-0.11552 1.3369-0.50381 2.3028-0.38768 0.95892-0.90193 1.4958-0.51425 0.53684-1.2012 0.7752-0.6793 0.23194-1.7136 0.14256l-3.2085-0.27726zm1.552 1.8921-0.5904 6.8322 1.2806 0.11066q0.82324 0.0711 1.2025-0.052 0.38629-0.12257 0.64524-0.4121 0.26659-0.29596 0.47976-0.95806t0.30863-1.7668q0.0991-1.1469-6e-3 -1.8223-0.0977-0.67478-0.40255-1.0839-0.29787-0.40853-0.766-0.56949-0.35094-0.12248-1.3782-0.21125z"/><path d="m109.28 174.35-0.79502-10.323 3.5982-0.27712q1.3802-0.10629 1.9933 0.12982 0.61265 0.22907 1.046 0.88986 0.43285 0.65375 0.5066 1.6114 0.0933 1.2112-0.43423 1.9955-0.52047 0.78384-1.5762 1.0564 0.57961 0.35203 0.97507 0.79616 0.39491 0.43709 1.1078 1.6005l1.1832 1.9347-2.035 0.15672-1.4123-2.1508q-0.76277-1.1667-1.0255-1.451-0.26327-0.29139-0.53953-0.38344-0.2768-0.0991-0.8683-0.0536l-0.35208 0.0271 0.3319 4.3095zm1.2453-6.0884 1.2675-0.0976q1.1619-0.0895 1.4711-0.21247 0.30874-0.13003 0.48204-0.45504 0.17331-0.32502 0.13372-0.83905-0.038-0.49291-0.2579-0.77348-0.22049-0.2876-0.56716-0.37424-0.24538-0.059-1.3932 0.0294l-1.3379 0.10304z"/><path d="m122.19 168.56 1.7647 0.23106q0.0344 1.7799-0.65308 2.7763-0.68912 0.98955-1.9722 1.3025-1.6124 0.39331-2.9171-0.60421-1.5025-1.1528-2.0967-3.5886-0.62763-2.573 0.1771-4.3104 0.70064-1.5085 2.4022-1.9236 1.386-0.33809 2.5501 0.38115 0.82957 0.51005 1.4614 1.759l-1.5296 0.88197q-0.35698-0.77799-0.93585-1.0948-0.57368-0.32531-1.2118-0.16965-0.91254 0.2226-1.2947 1.1591-0.3822 0.93649 0.0647 2.7684 0.46361 1.9006 1.2221 2.5661 0.75844 0.66553 1.6573 0.44627 0.65868-0.16067 1.0151-0.78556 0.35477-0.63176 0.29633-1.7952z"/><path d="m124.4 168.42 1.4693-0.82581q1.0235 1.7236 2.4709 1.121 0.71721-0.29855 0.97327-0.84118 0.25335-0.54916 0.0226-1.1034-0.1357-0.326-0.37414-0.4945-0.23843-0.16849-0.59155-0.1898-0.35583-0.0278-1.6276 0.0961-1.1382 0.11424-1.7569-0.0489-0.61872-0.16319-1.1406-0.62677-0.51811-0.47282-0.79767-1.1444-0.32569-0.78241-0.23416-1.5549 0.0981-0.77521 0.59099-1.3552 0.49294-0.58004 1.4123-0.96273 1.3823-0.57539 2.4703-0.14855 1.088 0.42683 1.7145 1.8031l-1.5491 0.74429q-0.42458-0.72594-0.89771-0.88854t-1.1121 0.10338q-0.63897 0.26599-0.87326 0.67716-0.23428 0.41117-0.0687 0.8089 0.16284 0.3912 0.58709 0.52825 0.42424 0.13705 1.6852-0.013 1.337-0.15111 2.0253 0.0137 0.69206 0.15561 1.2248 0.64527 0.53006 0.48314 0.88832 1.3438 0.5184 1.2453 0.10186 2.4132-0.41002 1.1652-2.04 1.8437-2.8819 1.1996-4.5731-1.9443z"/></g></g></g></g></svg>
