<?xml version="1.0" encoding="utf-8"?>
<!-- Generator: Adobe Illustrator 19.1.0, SVG Export Plug-In . SVG Version: 6.00 Build 0)  -->
<svg version="1.1" id="Layer_1" xmlns="http://www.w3.org/2000/svg" xmlns:xlink="http://www.w3.org/1999/xlink" x="0px" y="0px"
	 viewBox="-22 20.7 95.2 100" style="enable-background:new -22 20.7 95.2 100;" xml:space="preserve">
<style type="text/css">
	.st0{fill:#EE2A24;}
</style>
<path class="st0" d="M58.8,83.1c1.9,3.7,10.3,23.3,10.3,26.1c0,15.4-20.5,15.4-20.5,0C48.6,106.4,57,85.9,58.8,83.1z"/>
<path class="st0" d="M71,72.6c0-2.1,0-5.7,0-11.9c0-7.5-6.8-14-15.9-14c0,0-0.1,0-21.1,0l-0.1-6.6c0-1.9-1.5-3.4-3.4-3.4h-8.3v-4.2
	c0.7-0.4,1.3-1,1.8-1.6c2.5,0,7.5,0,17.6,0c1.2,1.5,2.9,2.6,5,2.6c3.5,0,6.4-2.8,6.4-6.4c0-3.5-2.9-6.4-6.4-6.4
	c-2.1,0-3.9,1.1-5,2.7c-2.8,0-8,0-17.4,0c-1.2-1.6-2.9-2.7-5.1-2.7c-2.1,0-3.9,1.1-5,2.7c-5.4,0-11.8,0-19.3,0
	c-1.2-1.6-2.9-2.7-5-2.7c-3.5,0-6.4,2.8-6.4,6.4c0,3.5,2.8,6.4,6.4,6.4c2,0,3.8-1,4.9-2.6c3.2,0,9,0,19.4,0c0.5,0.7,1.1,1.2,1.8,1.6
	v4.2H7.1c-1.9,0-3.4,1.5-3.4,3.4v6.6c-2.2,0-8.3,0-25.7,0v20.5c0.6,0,4.8,0,28.6,0c2.8,5.6,6.5,8.4,12.1,8.4
	c5.6,0,10.3-2.8,13.1-8.4c0,0,0,0,10.3,0c3.1,0,4.2,2,4.5,5.8c-0.9,0.6-1.5,1.6-1.5,2.8c0,1.9,1.5,3.4,3.4,3.4h21.3
	c1.9,0,3.4-1.5,3.4-3.4C73.2,74.3,72.3,73.1,71,72.6z"/>
</svg>
