<?xml version="1.0" encoding="utf-8"?>
<!-- Generator: Adobe Illustrator 19.1.0, SVG Export Plug-In . SVG Version: 6.00 Build 0)  -->
<svg version="1.1" id="Layer_1" xmlns="http://www.w3.org/2000/svg" xmlns:xlink="http://www.w3.org/1999/xlink" x="0px" y="0px"
	 viewBox="-20 26.3 100 90.5" style="enable-background:new -20 26.3 100 90.5;" xml:space="preserve">
<style type="text/css">
	.st0{fill:#EE2A24;}
</style>
<path class="st0" d="M55.8,82.5l20-20.1l3.2,3.1l0,0c1.5,1.5,1.5,3.9,0,5.3L64.2,85.6c-1.5,1.5-3.9,1.5-5.4,0l0,0L55.8,82.5z"/>
<path class="st0" d="M-20,106c1.4,5.2,5.9,9.3,10.7,10.8l38.9-38.6L18.9,67.4L-20,106z"/>
<path class="st0" d="M53.5,75.4c0.2,0.3,0.3,0.7,0.4,1c0.1,0.3,0.2,0.5,0.3,0.8c0.1,0.5,0.3,1,0.3,1.5c5.7-5.7,11.5-11.4,17.2-17.1
	c0,0-10.9-0.6-14.3-14.3c-1-1-2.1-2-3.1-3.1c-14.1-14.1-29-19.1-43-17.9c-0.8,0.1-2.3,0.3-3.7,0.5c-2.5,0.4-2.7,4,0,4
	c1.3,0,2.6,0,3.2,0.1c2.6,0.3,5,0.6,7.5,1.5c10.4,4,17.2,15.3,8.3,24.1c-2.4,2.3-7.1,7-7.1,7l14.3,14.1c0,0,1-1.2,1.7-1.8
	c2.9-2.4,8.7-6.2,14.7-3.9c0.9,0.4,1.7,1,2.2,1.6c0.3,0.3,0.6,0.7,0.8,1.1C53.3,75.1,53.4,75.3,53.5,75.4z"/>
</svg>
