<?xml version="1.0" encoding="UTF-8" standalone="no"?>
<!-- Generator: Adobe Illustrator 19.1.0, SVG Export Plug-In . SVG Version: 6.00 Build 0)  -->

<svg xmlns:dc="http://purl.org/dc/elements/1.1/" xmlns:cc="http://creativecommons.org/ns#" xmlns:rdf="http://www.w3.org/1999/02/22-rdf-syntax-ns#" xmlns:svg="http://www.w3.org/2000/svg" xmlns="http://www.w3.org/2000/svg" xmlns:sodipodi="http://sodipodi.sourceforge.net/DTD/sodipodi-0.dtd" xmlns:inkscape="http://www.inkscape.org/namespaces/inkscape" version="1.1" id="Layer_1" x="0px" y="0px" viewBox="-21 20.7 98 100" style="enable-background:new -21 20.7 98 100;" xml:space="preserve" sodipodi:docname="01_clusters_other_agriculture_noun_4221-03-destroyed.svg" inkscape:version="0.92.1 r15371"><metadata id="metadata16834"><rdf:RDF><cc:Work rdf:about=""><dc:format>image/svg+xml</dc:format><dc:type rdf:resource="http://purl.org/dc/dcmitype/StillImage" /><dc:title></dc:title></cc:Work></rdf:RDF></metadata><defs id="defs16832" /><sodipodi:namedview pagecolor="#ffffff" bordercolor="#666666" borderopacity="1" objecttolerance="10" gridtolerance="10" guidetolerance="10" inkscape:pageopacity="0" inkscape:pageshadow="2" inkscape:window-width="1920" inkscape:window-height="1057" id="namedview16830" showgrid="false" inkscape:zoom="6.675088" inkscape:cx="29.052256" inkscape:cy="49.759406" inkscape:window-x="-8" inkscape:window-y="-8" inkscape:window-maximized="1" inkscape:current-layer="Layer_1" />
<style type="text/css" id="style16787">
	.st0{fill:#EE2A24;}
</style>
<path class="st0" d="M-5.8,117.9l-1.4-13.7c0-1.3,1.6-0.1,3.6-0.1l0,0c2,0,3.6-1.1,3.6,0.1l0,0L-1,117.5  C-1,120.4-5.8,119.3-5.8,117.9z" id="path16789" />
<path class="st0" d="M-11.6,73.4c-10-4.5-9.1-11.6-9.1-11.6c-1.3,2.5,1.4,24.3,11.8,24.3C-4.3,86.1-0.4,78.4-11.6,73.4z" id="path16791" />
<path class="st0" d="M-11.6,58c-10-4.5-9.1-11.6-9.1-11.6c-1.3,2.5,1.4,24.3,11.8,24.3C-4.3,70.7-0.4,63-11.6,58z" id="path16793" />
<path class="st0" d="M-11.6,43c-10-4.5-9.1-11.6-9.1-11.6C-22,34-19.3,55.8-8.9,55.8C-4.3,55.8-0.4,48.1-11.6,43z" id="path16795" />
<path class="st0" d="M2.2,86.1c10.4,0,13-21.8,11.8-24.3c0,0,0.8,7.1-9.2,11.6C-6.3,78.4-2.4,86.1,2.2,86.1z" id="path16797" />
<path class="st0" d="M-11.6,89.2c-10-4.5-9.1-11.6-9.1-11.6c-1.3,2.5,1.4,24.3,11.8,24.3C-4.3,101.9-0.4,94.2-11.6,89.2z" id="path16799" />
<path class="st0" d="M2.2,101.9c10.4,0,13-21.8,11.8-24.3c0,0,0.8,7.1-9.2,11.6C-6.3,94.2-2.4,101.9,2.2,101.9z" id="path16801" />
<path class="st0" d="M2.2,70.7c10.4,0,13-21.8,11.8-24.3c0,0,0.8,7.1-9.2,11.6C-6.3,63-2.4,70.7,2.2,70.7z" id="path16803" />
<path class="st0" d="M2.2,55.8c10.4,0,13-21.8,11.8-24.3c0,0,0.8,7.1-9.2,11.6C-6.3,48.1-2.4,55.8,2.2,55.8z" id="path16805" />
<path class="st0" d="M-2.6,44.2c11,0-0.6-23.5-0.6-23.5C-4.6,22.9-13.6,44.2-2.6,44.2z" id="path16807" />
<path class="st0" d="M27.1,119.7l6.6-11.6l0,0c0.5-1.1-1.4-0.8-3.2-1.6l0,0c-1.8-0.9-2.8-2.5-3.3-1.4l-4.5,13  C22.1,119.3,25.9,122.3,27.1,119.7z" id="path16809" />
<path class="st0" d="M36.1,75.2c-7.1-8.3-3.4-14.4-3.4-14.4c-2.2,1.7-8.9,22.6,0.4,27C37.4,89.8,44.2,84.5,36.1,75.2z" id="path16811" />
<path class="st0" d="M42.6,61.2c-7.1-8.3-3.4-14.3-3.4-14.3c-2.2,1.7-9,22.6,0.4,27C43.9,75.9,50.7,70.5,42.6,61.2z" id="path16813" />
<path class="st0" d="M48.9,47.7c-7.1-8.2-3.4-14.3-3.4-14.3c-2.2,1.7-9,22.6,0.5,27C50.2,62.3,57,57,48.9,47.7z" id="path16815" />
<path class="st0" d="M43.3,92.6c9.4,4.4,21-14.3,20.9-17.1c0,0-2.2,6.8-13.2,6.6C38.8,82,39.1,90.6,43.3,92.6z" id="path16817" />
<path class="st0" d="M29.5,89.5c-7.1-8.3-3.4-14.3-3.4-14.3c-2.2,1.7-8.9,22.6,0.5,27C30.8,104.1,37.5,98.8,29.5,89.5z" id="path16819" />
<path class="st0" d="M36.6,106.9c9.4,4.4,21-14.3,20.9-17.1c0,0-2.3,6.8-13.2,6.6C32.1,96.3,32.4,104.9,36.6,106.9z" id="path16821" />
<path class="st0" d="M49.8,78.6c9.4,4.4,21-14.3,20.9-17.1c0,0-2.3,6.8-13.2,6.6C45.3,68,45.6,76.7,49.8,78.6z" id="path16823" />
<path class="st0" d="M56.1,65c9.4,4.4,21-14.3,20.9-17.1c0,0-2.3,6.8-13.2,6.6C51.6,54.5,51.9,63.1,56.1,65z" id="path16825" />
<path class="st0" d="M56.6,52.5c10,4.6,9.3-21.5,9.3-21.5C63.7,32.4,46.6,47.9,56.6,52.5z" id="path16827" />
<g transform="translate(-19.877222,-10.699936)" id="g16732"><circle r="25.590433" cy="61.138466" cx="28.689625" id="path16663" style="opacity:0.98999999;fill:#ffffff;fill-opacity:1;fill-rule:evenodd;stroke:none;stroke-width:1.02719641;stroke-miterlimit:4;stroke-dasharray:none;stroke-opacity:1" /><path style="fill:#ee2a24;stroke-width:0.99999994" inkscape:connector-curvature="0" class="st0" d="M 33.877224,35.400155 H 23.477226 c -11.300001,0 -20.6000035,9.300019 -20.6000035,20.700019 V 66.40018 c 0,11.299996 9.3000025,20.599976 20.6000035,20.599976 h 10.29998 c 13.943838,0.0189 20.84801,-9.7787 20.84801,-20.599976 V 56.100174 c 0,-11.453594 -7.280904,-20.75229 -20.747992,-20.700019 z M 51.877205,66.40018 c 0,9.999986 -8.1,18.100006 -18.099999,18.100006 H 23.477207 c -10.000002,0 -18.1000045,-8.10002 -18.1000045,-18.100006 V 56.100174 c 0,-9.999988 8.1000025,-18.100007 18.1000045,-18.100007 h 10.399998 c 10.000002,0 18.100002,8.100019 18.100002,18.100007 V 66.40018 Z" id="path16641" sodipodi:nodetypes="csssscssccssssssscc" /><polygon transform="translate(23.951219,14.650059)" id="polygon15884-6" points="19.9,36 9.4,46.5 19.9,57 15.3,61.6 4.8,51.1 -5.7,61.6 -10.3,57 0.2,46.5 -10.3,36 -5.7,31.5 4.8,42 15.3,31.5 " class="st0" style="fill:#ee2a24" /></g></svg>