<?xml version="1.0" encoding="UTF-8" standalone="no"?>
<!-- Created with Inkscape (http://www.inkscape.org/) -->

<svg xmlns:dc="http://purl.org/dc/elements/1.1/" xmlns:cc="http://creativecommons.org/ns#" xmlns:rdf="http://www.w3.org/1999/02/22-rdf-syntax-ns#" xmlns:svg="http://www.w3.org/2000/svg" xmlns="http://www.w3.org/2000/svg" xmlns:sodipodi="http://sodipodi.sourceforge.net/DTD/sodipodi-0.dtd" xmlns:inkscape="http://www.inkscape.org/namespaces/inkscape" width="26.5mm" height="28.6mm" viewBox="0 0 26.5 28.600001" version="1.1" id="svg973" inkscape:version="0.92.2 (5c3e80d, 2017-08-06)" sodipodi:docname="01_rcrc_drr.svg">
  <defs id="defs967" />
  <sodipodi:namedview id="base" pagecolor="#ffffff" bordercolor="#666666" borderopacity="1.0" inkscape:pageopacity="0.0" inkscape:pageshadow="2" inkscape:zoom="3.959798" inkscape:cx="18.880464" inkscape:cy="26.854804" inkscape:document-units="mm" inkscape:current-layer="layer1" showgrid="false" fit-margin-top="0" fit-margin-left="0" fit-margin-right="0" fit-margin-bottom="0" inkscape:window-width="1920" inkscape:window-height="1017" inkscape:window-x="-8" inkscape:window-y="-8" inkscape:window-maximized="1" />
  <metadata id="metadata970">
    <rdf:RDF>
      <cc:Work rdf:about="">
        <dc:format>image/svg+xml</dc:format>
        <dc:type rdf:resource="http://purl.org/dc/dcmitype/StillImage" />
        <dc:title></dc:title>
      </cc:Work>
    </rdf:RDF>
  </metadata>
  <g inkscape:label="Layer 1" inkscape:groupmode="layer" id="layer1" transform="translate(-66.876376,-121.77467)">
    <g id="g1653" transform="translate(0.13049441,-0.02369797)">
      <g transform="matrix(0.09235161,0,0,0.09235161,78.02814,118.70058)" id="g863">
        <polygon style="fill:#ee2a24" class="st0" points="56.5,103 41.2,105.9 16.3,92.3 25.3,81 45.8,87.8 " id="polygon828" />
        <path style="fill:#ee2a24" inkscape:connector-curvature="0" class="st0" d="M 30.1,76.5 C 29.4,70.3 27,65.4 26.6,59.4 c 0,-2.1 0,-3.6 -0.2,-5.5 0,-1.1 -0.1,-2.1 -0.1,-3.3 0,-2.2 -0.2,-4.4 -0.2,-6.3 0,-2.8 0.4,-4.9 2.1,-6.4 1,-0.9 1.8,-1.1 2.5,-1.1 1.8,-0.2 4.2,2.6 5.3,5.7 -1,0.8 -1.6,1.6 -1.6,1.6 -4,5.7 11.2,21.9 17.3,13.1 2.6,-3.7 -0.8,-14.4 -6.9,-16.6 -2.4,-0.8 -4.5,-0.5 -6.2,0.3 -1.4,-3.5 -3.9,-7 -7.9,-7.1 -1.5,0 -3.1,0.6 -4.5,1.9 -2.7,2.3 -3.2,5.6 -3.2,8.6 0,1.4 0.1,2.8 0.2,4.2 -0.6,-0.5 -1.3,-1.1 -2.2,-1.6 -1.8,-1.2 -3.4,-1.8 -5,-1.8 -4,0.2 -5.1,4 -5.2,8.1 -4.2,3.4 -5,17.8 2.5,15.4 4,-1.4 5.8,-6.6 5.4,-10.1 0,0 -0.3,-5 -4.9,-5.8 0.2,-3.4 1.1,-4.5 2.2,-4.5 0.6,0 1.8,0.3 3.4,1.3 2.8,2 3.7,2.7 4,4.5 0,1.7 0.3,5.8 0.3,5.9 v 0 c 0.4,6 1.3,10.6 2,16.7 h -2.8 l 4.8,2.3 20.3,6.6 15.9,-2.3 16.1,-5 v -1.7 z m 9.1,-34.2 c 0,0 7.3,5 9.4,13.9 L 37.1,43.6 Z M 11,66 c -1,-3.7 0,-10.7 0,-10.7 l 2.1,-0.8 z" id="path830" />
        <polygon style="fill:#ee2a24" class="st0" points="-6.8,84.9 2.8,96.9 12,91.3 21.5,79.5 18.5,76.5 -2.6,76.5 " id="polygon832" />
        <polygon style="fill:#ee2a24" class="st0" points="13.5,95 -2.8,106 -0.6,108.7 36.8,108.7 36.7,108.2 " id="polygon834" />
        <polygon style="fill:#ee2a24" class="st0" points="-6.4,76.5 -20,76.5 -20,89.2 -9.6,83.7 " id="polygon836" />
        <polygon style="fill:#ee2a24" class="st0" points="51.1,88.3 61.2,102.9 80,107.3 80,90.6 66.4,86.2 " id="polygon838" />
        <polygon style="fill:#ee2a24" class="st0" points="69.4,83.9 80,86.9 80,81 " id="polygon840" />
        <polygon style="fill:#ee2a24" class="st0" points="-9.3,87.8 -20,92.8 -20,108.7 -12.2,108.7 -0.5,99.2 " id="polygon842" />
        <polygon style="fill:#ee2a24" class="st0" points="59.4,105.9 46.6,108.7 71.1,108.7 " id="polygon844" />
      </g>
      <path style="fill:#ee2a24;stroke-width:0.09378426" inkscape:connector-curvature="0" class="st0" d="m 74.53855,135.86124 c -0.131298,0 -0.253218,0.075 -0.309487,0.18757 l -0.506437,0.9566 -0.618975,-1.8288 c -0.0469,-0.14067 -0.17819,-0.23446 -0.318866,-0.23446 -0.150055,0 -0.281354,0.0845 -0.337624,0.21571 l -0.431408,1.01287 -0.675246,-4.04209 c -0.02813,-0.16881 -0.187569,-0.30012 -0.35638,-0.29075 -0.168812,0 -0.318868,0.12194 -0.337624,0.29075 l -0.600219,4.69858 -0.487678,-2.53217 c -0.02813,-0.15006 -0.150055,-0.26259 -0.30011,-0.28136 -0.150054,-0.0187 -0.30011,0.0562 -0.365758,0.19695 l -0.787789,1.6506 h -1.228573 v 0.70339 h 1.453656 c 0.131299,0 0.262596,-0.075 0.318866,-0.19694 l 0.42203,-0.88159 0.684625,3.57319 c 0.02813,0.16881 0.17819,0.28135 0.347001,0.28135 0,0 0.0094,0 0.0094,0 0.168811,0 0.318865,-0.13129 0.337622,-0.30012 l 0.590842,-4.61418 0.487678,3.03862 c 0.02813,0.15006 0.150055,0.27197 0.309487,0.29073 0.159434,0.0187 0.300109,-0.0657 0.365759,-0.21571 l 0.525191,-1.25671 0.590843,1.72564 c 0.0469,0.13129 0.16881,0.22508 0.309487,0.23446 0.140676,0.009 0.271975,-0.0657 0.337623,-0.18757 l 0.787789,-1.48179 h 1.500547 v -0.70339 h -1.716233 z" id="path867" />
      <g transform="matrix(0.11298635,0,0,0.11298635,77.404439,137.85122)" id="g894">
        <path style="fill:#ee2a24" inkscape:connector-curvature="0" class="st0" d="M 39.4,40.9 C 37.2,38.6 34.2,37.4 30.5,37.4 24.3,35.9 0,30.4 -4.3,30.5 c -7.3,0.2 -13.8,9.8 -15.1,15.8 -1.3,6 -0.7,18.9 10,21.2 l 30.7,10.6 c 1.8,0.8 3.8,1.3 6.1,1.3 0.9,0 1.8,-0.1 2.8,-0.2 8.5,-1.1 13.2,-13.6 13.5,-25.5 -0.1,-3 -0.6,-8.9 -4.3,-12.8 z m -44.2,11.9 -5.6,-1.7 c -0.9,-2.3 2.7,-12 5,-12.3 l 1.5,10.6 C -4.8,50 -5,51.3 -4.8,52.8 Z m 2,-2.1 c 1.3,0.1 1.7,1.9 1.7,3.2 0,1.3 -0.3,2.6 -1.4,2.4 -1,-0.2 -1.5,-3.2 -1.5,-3.2 -0.1,1.4 -0.1,-2.5 1.2,-2.4 z m -0.7,14.1 0.2,-7.3 c 0,0 1.4,1.2 2.4,0.3 l 4.8,9.5 C 2.1,68.6 -2.5,66.6 -3.5,64.8 Z M 5.8,55.7 C 5.6,55.8 0,54.2 0,54.2 0.2,53.3 -0.1,51.2 -1.3,50.1 L 3,41.9 c 1.2,-1.4 4.5,13.2 2.8,13.8 z m 34.6,-2 C 40.2,64 36.1,75.2 29.7,76.1 25.6,76.6 22.4,75.8 20.3,73.7 18.1,71.4 17,67.6 17,62.4 17,55.2 20.9,40.9 30,40.6 h 0.5 c 2.9,0 5.1,0.9 6.8,2.6 2.9,3.1 3.1,8.4 3.1,10.5 z" id="path880" />
        <path style="fill:#ee2a24" inkscape:connector-curvature="0" class="st0" d="m 79.9,78.4 c 0.9,3.8 -6.2,6.9 -9.5,9.6 -3.4,2.7 -11,6.8 -20.8,12 -9.8,5.2 -22.2,9.2 -30.1,7.2 -8,-2 -13.8,-2.4 -20.6,1.9 -6.8,4.2 -13,0.1 -13.8,-4.9 -0.7,-5 13.5,-13.6 20.4,-13 5.5,0.5 15.9,-5.1 21.3,-6.2 2.1,-0.5 5.7,-0.5 11.8,-2.8 6,-2.3 8.3,-11.6 11.4,-13.1 3.6,-1.7 10.7,1 12.6,1.6 2.9,0.8 16.4,3.9 17.3,7.7 z" id="path882" />
      </g>
      <g transform="matrix(0.07706335,0,0,0.07706335,87.659302,130.14065)" id="g912">
        <path style="fill:#ee2a24" inkscape:connector-curvature="0" class="st0" d="m -23,30.1 c 6,-4.6 26,-9.4 46.9,-9.4 23,0 43,4.3 46.9,9.4 -3.3,5.8 -33.9,9.4 -46.9,9.4 -13,0 -44.1,-2.6 -46.9,-9.4 z" id="path898" />
        <path style="fill:#ee2a24" inkscape:connector-curvature="0" class="st0" d="m 70.8,33.2 c -7.4,5.8 -26.3,9 -46.9,9.4 -23.1,-0.4 -41.6,-2 -46.9,-9.4 0,0.2 -1.7,18.1 28.1,28.1 20.6,6.9 9.4,18.8 9.4,18.8 0,0 -22.4,21.3 -3.1,28.1 12.1,4.3 10.9,10.1 9.4,12.5 C 32.5,106 -0.9,103.4 36.4,86.4 55.5,77.6 57.9,72.5 52,64.5 44.3,53.9 69.1,49.7 70.8,33.2 Z" id="path900" />
      </g>
      <g id="g1631">
        <path style="fill:none;fill-rule:evenodd;stroke:#ee2a24;stroke-width:0.27354524px;stroke-linecap:butt;stroke-linejoin:miter;stroke-opacity:1" d="m 68.879931,123.67027 23.837515,23.83752" id="path914" inkscape:connector-curvature="0" />
        <path inkscape:connector-curvature="0" id="path916" d="M 92.717447,123.67027 68.87993,147.50779" style="fill:#ee2a24;fill-opacity:1;fill-rule:evenodd;stroke:#ee2a24;stroke-width:0.27354524px;stroke-linecap:butt;stroke-linejoin:miter;stroke-opacity:1" />
      </g>
    </g>
  </g>
  <style id="style1562" type="text/css">
	.st0{fill:#EE2A24;}
</style>
  <style id="style1580" type="text/css">
	.st0{fill:#EE2A24;}
</style>
</svg>
