<?xml version="1.0" encoding="UTF-8" standalone="no"?>
<!-- Created with Inkscape (http://www.inkscape.org/) -->

<svg xmlns:dc="http://purl.org/dc/elements/1.1/" xmlns:cc="http://creativecommons.org/ns#" xmlns:rdf="http://www.w3.org/1999/02/22-rdf-syntax-ns#" xmlns:svg="http://www.w3.org/2000/svg" xmlns="http://www.w3.org/2000/svg" xmlns:sodipodi="http://sodipodi.sourceforge.net/DTD/sodipodi-0.dtd" xmlns:inkscape="http://www.inkscape.org/namespaces/inkscape" width="26.5mm" height="24.4mm" viewBox="0 0 26.5 24.399999" version="1.1" id="svg1661" inkscape:version="0.92.2 (5c3e80d, 2017-08-06)" sodipodi:docname="01_rcrc_pgi.svg">
  <defs id="defs1655" />
  <sodipodi:namedview id="base" pagecolor="#ffffff" bordercolor="#666666" borderopacity="1.0" inkscape:pageopacity="0.0" inkscape:pageshadow="2" inkscape:zoom="2.8" inkscape:cx="6.9118669" inkscape:cy="65.330088" inkscape:document-units="mm" inkscape:current-layer="layer1" showgrid="false" fit-margin-top="0" fit-margin-left="0" fit-margin-right="0" fit-margin-bottom="0" inkscape:window-width="1920" inkscape:window-height="1017" inkscape:window-x="-8" inkscape:window-y="-8" inkscape:window-maximized="1" />
  <metadata id="metadata1658">
    <rdf:RDF>
      <cc:Work rdf:about="">
        <dc:format>image/svg+xml</dc:format>
        <dc:type rdf:resource="http://purl.org/dc/dcmitype/StillImage" />
        <dc:title></dc:title>
      </cc:Work>
    </rdf:RDF>
  </metadata>
  <g inkscape:label="Layer 1" inkscape:groupmode="layer" id="layer1" transform="translate(-91.757601,-106.07318)">
    <g id="g2285" transform="translate(0.007601,-0.07355673)">
      <g transform="translate(23.357142,-9.921875)" id="g2273">
        <path style="fill:#ee2a24;stroke-width:0.26458332" inkscape:connector-curvature="0" class="st0" d="m 72.766087,125.63126 6.085417,6.24417 v 8.49312 h -0.05292 v 0.0265 h -4.974166 v -3.65125 l -5.08,-6.72041 c -0.211667,-0.23813 -0.343959,-0.55563 -0.343959,-0.89959 v -10.31875 c 0,-0.82021 0.661459,-1.45521 1.455209,-1.45521 0.79375,0 1.455208,0.66146 1.455208,1.45521 v 5.95313 c -0.343958,0.0794 -0.687917,0.23812 -0.9525,0.50271 -0.767292,0.76729 -0.79375,2.01083 -0.02646,2.77812 l 2.778125,2.8575 0.370416,-0.37042 -2.778125,-2.8575 c -0.555625,-0.58208 -0.555625,-1.48166 0.02646,-2.06375 0.185208,-0.15875 0.396875,-0.29104 0.608541,-0.34395 0.238125,-0.0794 0.502709,-0.0794 0.740834,-0.0265 0.264583,0.0529 0.502708,0.18521 0.687916,0.39687 z" id="path2208" />
        <path style="fill:#ee2a24;stroke-width:0.26458332" inkscape:connector-curvature="0" class="st0" d="m 90.49317,125.63126 -6.085416,6.24417 v 8.49312 h 0.05292 v 0.0265 h 5.000624 v -3.65125 l 5.08,-6.72041 c 0.211667,-0.23813 0.343959,-0.55563 0.343959,-0.89959 v -10.31875 c 0,-0.82021 -0.661459,-1.45521 -1.455209,-1.45521 -0.79375,0 -1.455208,0.66146 -1.455208,1.45521 v 5.95313 c 0.343958,0.0794 0.687917,0.23812 0.9525,0.50271 0.767292,0.76729 0.79375,2.01083 0.02646,2.77812 l -2.804583,2.83104 -0.370417,-0.37041 2.778125,-2.8575 c 0.555625,-0.58209 0.555625,-1.48167 -0.02646,-2.06375 -0.185208,-0.15875 -0.396875,-0.29105 -0.608542,-0.34396 -0.238125,-0.0794 -0.47625,-0.0794 -0.740833,-0.0265 -0.264583,0.0794 -0.502708,0.21167 -0.687917,0.42333 z" id="path2210" />
      </g>
      <g transform="matrix(0.12349847,0,0,0.12349847,101.28887,102.83644)" id="g2255">
        <path style="fill:#ee2a24" inkscape:connector-curvature="0" class="st0" d="m 7.7,34.7 c 0,4 -3.3,7.3 -7.3,7.3 -4.1,0 -7.4,-3.2 -7.4,-7.3 0,-4.1 3.3,-7.3 7.3,-7.3 4.1,0 7.4,3.3 7.4,7.3 z" id="path2229" />
        <path style="fill:#ee2a24" inkscape:connector-curvature="0" class="st0" d="M 1.1,84.9 2.7,112 c 0,0.9 0.8,1.7 1.7,1.7 1,0 1.7,-0.8 1.7,-1.7 L 7.6,84.9 h 4.8 l -4.9,-30.3 10,19.8 c 0.4,0.9 1.4,1.3 2.3,0.9 0.9,-0.4 1.3,-1.4 0.9,-2.3 0,0 -7.3,-19.7 -9.1,-23.4 C 9.7,46 7.9,43.8 1.1,43.8 h -1.4 c -6.8,0 -8.6,2.2 -10.4,5.9 -1.8,3.7 -9.1,23.4 -9.1,23.4 -0.4,0.9 0,1.9 0.9,2.3 0.9,0.4 1.9,0 2.3,-0.9 l 10,-19.8 -5,30.3 h 4.8 l 1.5,27.1 c 0,0.9 0.8,1.7 1.7,1.7 1,0 1.7,-0.8 1.7,-1.7 L -0.4,85 h 1.5 z" id="path2231" />
        <path style="fill:#ee2a24" inkscape:connector-curvature="0" class="st0" d="m 59.6,27.4 c -4.1,0 -7.4,3.3 -7.4,7.3 0,4 3.3,7.3 7.4,7.3 4,0 7.3,-3.3 7.3,-7.3 0,-4 -3.2,-7.3 -7.3,-7.3 z" id="path2233" />
        <path style="fill:#ee2a24" inkscape:connector-curvature="0" class="st0" d="m 67.2,70.5 0.5,-16 9,19.8 c 0.4,0.9 1.4,1.3 2.3,0.9 0.9,-0.4 1.3,-1.4 0.9,-2.3 0,0 -6.3,-19.7 -8.1,-23.4 C 70,45.8 67.2,43.6 60.4,43.6 H 59 c -6.8,0 -9.6,2.2 -11.4,5.9 -1.8,3.7 -8.1,23.4 -8.1,23.4 -0.4,0.9 0,1.9 0.9,2.3 0.9,0.4 1.9,0 2.2,-0.9 l 9,-19.8 0.5,16 -1.4,40.1 c -0.1,1.6 1.1,3 2.7,3.1 0.1,0 0.2,0 0.2,0 1.5,0 2.8,-1.2 2.9,-2.7 l 3.2,-33 3.3,33 c 0.1,1.5 1.4,2.7 2.9,2.7 0.1,0 0.1,0 0.2,0 1.6,-0.1 2.8,-1.5 2.7,-3.1 z" id="path2235" />
        <path style="fill:#ee2a24" inkscape:connector-curvature="0" class="st0" d="m 30,72 c -2.5,0 -4.5,2 -4.5,4.5 0,2.5 2,4.5 4.5,4.5 2.5,0 4.5,-2 4.5,-4.5 C 34.5,74 32.5,72 30,72 Z" id="path2237" />
        <path style="fill:#ee2a24" inkscape:connector-curvature="0" class="st0" d="m 30,98.5 c 0,0 2,14.1 2,14.1 0.3,0.7 0.9,1.2 1.7,1.2 0.8,0 1.5,-0.5 1.7,-1.3 0,0 0.1,-0.9 0,-1 l -0.8,-17.3 0.3,-5.9 c 0.2,-2 0.3,-1.4 2.6,-2.8 2.4,-1.4 6.3,-7.6 6.5,-7.9 0.2,-0.3 0.6,-0.9 0.6,-1.2 0.1,-0.6 -0.3,-1.2 -0.9,-1.3 -0.5,-0.1 -0.9,0.2 -1.2,0.5 -0.3,0.3 -4.9,6.4 -8.3,7 -0.8,-0.1 -1.6,-0.5 -3.8,-0.5 h -0.9 c -2.2,0 -3,0.4 -3.8,0.5 -3.4,-0.6 -8,-6.7 -8.4,-7 -0.3,-0.3 -0.7,-0.6 -1.2,-0.5 -0.6,0.1 -1,0.7 -0.9,1.3 0.1,0.3 0.4,0.9 0.6,1.2 0.2,0.3 4.2,6.5 6.5,7.9 2.3,1.4 2.4,0.8 2.6,2.8 l 0.3,5.9 -0.8,17.3 c 0,0.1 0,1 0,1 0.2,0.7 0.9,1.3 1.7,1.3 0.8,0 1.4,-0.5 1.7,-1.2 C 28,112.5 30,98.5 30,98.5" id="path2239" />
      </g>
    </g>
  </g>
  <style id="style2206" type="text/css">
	.st0{fill:#EE2A24;}
</style>
  <style id="style2227" type="text/css">
	.st0{fill:#EE2A24;}
</style>
</svg>
