<?xml version="1.0" encoding="UTF-8" standalone="no"?>
<!-- Created with Inkscape (http://www.inkscape.org/) -->

<svg xmlns:dc="http://purl.org/dc/elements/1.1/" xmlns:cc="http://creativecommons.org/ns#" xmlns:rdf="http://www.w3.org/1999/02/22-rdf-syntax-ns#" xmlns:svg="http://www.w3.org/2000/svg" xmlns="http://www.w3.org/2000/svg" xmlns:sodipodi="http://sodipodi.sourceforge.net/DTD/sodipodi-0.dtd" xmlns:inkscape="http://www.inkscape.org/namespaces/inkscape" width="26.5mm" height="28.6mm" viewBox="0 0 26.5 28.600001" version="1.1" id="svg973" inkscape:version="0.92.2 (5c3e80d, 2017-08-06)" sodipodi:docname="01_rcrc_migration.svg">
  <defs id="defs967" />
  <sodipodi:namedview id="base" pagecolor="#ffffff" bordercolor="#666666" borderopacity="1.0" inkscape:pageopacity="0.0" inkscape:pageshadow="2" inkscape:zoom="0.98994949" inkscape:cx="-133.656" inkscape:cy="126.94643" inkscape:document-units="mm" inkscape:current-layer="layer1" showgrid="false" fit-margin-top="0" fit-margin-left="0" fit-margin-right="0" fit-margin-bottom="0" inkscape:window-width="1920" inkscape:window-height="1017" inkscape:window-x="-8" inkscape:window-y="-8" inkscape:window-maximized="1" />
  <metadata id="metadata970">
    <rdf:RDF>
      <cc:Work rdf:about="">
        <dc:format>image/svg+xml</dc:format>
        <dc:type rdf:resource="http://purl.org/dc/dcmitype/StillImage" />
        <dc:title></dc:title>
      </cc:Work>
    </rdf:RDF>
  </metadata>
  <g inkscape:label="Layer 1" inkscape:groupmode="layer" id="layer1" transform="translate(-66.876376,-121.77467)">
    <g id="g2344" transform="matrix(1.700059,0,0,1.700059,-3.6217381,-354.97837)" style="fill:#ee2a24;fill-opacity:1">
      <g transform="matrix(0.16034821,0,0,0.16034821,50.590747,280.96518)" id="g2312" style="fill:#ee2a24;fill-opacity:1">
        <path inkscape:connector-curvature="0" d="M 17.321,0 C 12.62,0 8.812,3.802 8.812,8.502 c 0,4.688 3.809,8.49 8.509,8.49 4.681,0 8.483,-3.802 8.483,-8.49 C 25.805,3.802 22.002,0 17.321,0 Z" id="path2298" style="fill:#ee2a24;fill-opacity:1" />
        <path inkscape:connector-curvature="0" d="M 31.364,25.82 C 29.281,21.562 26.052,18.971 18.122,18.971 h -0.814 -0.813 c -7.93,0 -11.159,2.591 -13.242,6.849 -1.043,2.129 -3.236,28.763 -3.236,28.763 -0.169,1.576 0.97,2.982 2.539,3.139 0.104,0.013 0.202,0.013 0.306,0.013 1.445,0 2.688,-1.087 2.832,-2.552 L 7.933,32.038 8.487,50.007 6.853,96.438 c -0.117,1.83 1.263,3.432 3.092,3.549 0.097,0.013 0.169,0.013 0.234,0.013 1.745,0 3.216,-1.341 3.347,-3.099 l 3.782,-38.242 3.783,38.242 c 0.13,1.758 1.602,3.099 3.347,3.099 0.064,0 0.137,0 0.234,-0.013 1.829,-0.117 3.209,-1.719 3.092,-3.549 L 26.13,50.006 26.684,32.037 28.923,55.182 c 0.144,1.465 1.387,2.552 2.832,2.552 0.104,0 0.202,0 0.306,-0.013 1.569,-0.156 2.709,-1.562 2.539,-3.139 0,10e-4 -2.194,-26.633 -3.236,-28.762 z" id="path2300" style="fill:#ee2a24;fill-opacity:1" />
      </g>
      <path sodipodi:nodetypes="sccccsssssscsccccc" style="fill:#ee2a24;fill-opacity:1;stroke-width:0.08093438" inkscape:connector-curvature="0" d="m 48.852368,291.60499 h -1.239347 v -1.48116 h -3.101405 v 1.48116 h -1.239348 c -0.690777,0 -1.256667,0.5659 -1.256667,1.25668 v 2.88166 c 0,0.69078 0.56589,1.25667 1.256667,1.25667 h 5.580022 c 0.690775,0 1.256666,-0.56589 1.256666,-1.25667 v -2.88166 c 7.9e-5,-0.69078 -0.565812,-1.25668 -1.256588,-1.25668 z m -1.8173,0 h -1.945417 v -0.90314 h 1.945417 z" id="path2287" />
    </g>
  </g>
  <style id="style1562" type="text/css">
	.st0{fill:#EE2A24;}
</style>
  <style id="style1580" type="text/css">
	.st0{fill:#EE2A24;}
</style>
</svg>
