<?xml version="1.0" encoding="UTF-8" standalone="no"?>
<!-- Created with Inkscape (http://www.inkscape.org/) -->

<svg xmlns:dc="http://purl.org/dc/elements/1.1/" xmlns:cc="http://creativecommons.org/ns#" xmlns:rdf="http://www.w3.org/1999/02/22-rdf-syntax-ns#" xmlns:svg="http://www.w3.org/2000/svg" xmlns="http://www.w3.org/2000/svg" xmlns:sodipodi="http://sodipodi.sourceforge.net/DTD/sodipodi-0.dtd" xmlns:inkscape="http://www.inkscape.org/namespaces/inkscape" width="26.5mm" height="28.6mm" viewBox="0 0 26.5 28.600001" version="1.1" id="svg973" inkscape:version="0.92.2 (5c3e80d, 2017-08-06)" sodipodi:docname="01_rcrc_livelihoods.svg">
  <defs id="defs967">
    <style id="style2422">.cls-1{fill:#1d1d1b;}</style>
  </defs>
  <sodipodi:namedview id="base" pagecolor="#ffffff" bordercolor="#666666" borderopacity="1.0" inkscape:pageopacity="0.0" inkscape:pageshadow="2" inkscape:zoom="2.8" inkscape:cx="-34.97271" inkscape:cy="76.670611" inkscape:document-units="mm" inkscape:current-layer="layer1" showgrid="false" fit-margin-top="0" fit-margin-left="0" fit-margin-right="0" fit-margin-bottom="0" inkscape:window-width="1920" inkscape:window-height="1017" inkscape:window-x="-8" inkscape:window-y="-8" inkscape:window-maximized="1" />
  <metadata id="metadata970">
    <rdf:RDF>
      <cc:Work rdf:about="">
        <dc:format>image/svg+xml</dc:format>
        <dc:type rdf:resource="http://purl.org/dc/dcmitype/StillImage" />
        <dc:title></dc:title>
      </cc:Work>
    </rdf:RDF>
  </metadata>
  <g inkscape:label="Layer 1" inkscape:groupmode="layer" id="layer1" transform="translate(-66.876376,-121.77467)">
    <g id="g2562">
      <g style="fill:#ee2a24;fill-opacity:1" transform="matrix(0.26458333,0,0,0.26458333,69.225554,122.84553)" id="g2420">
        <path style="fill:#ee2a24;fill-opacity:1" inkscape:connector-curvature="0" d="m 32.165,44.612 c 0.462,0.475 0.684,1.035 0.684,1.689 0,0.726 -0.267,1.367 -0.814,1.911 -0.541,0.541 -1.244,0.879 -2.116,1.016 v -5.713 c 1.035,0.257 1.79,0.622 2.246,1.097 z" id="path2373" />
        <path style="fill:#ee2a24;fill-opacity:1" inkscape:connector-curvature="0" d="m 25.153,36.197 c 0,0.515 0.195,1 0.56,1.439 0.378,0.453 0.938,0.804 1.687,1.081 v -5.068 c -0.684,0.189 -1.23,0.527 -1.634,0.993 -0.405,0.475 -0.613,0.983 -0.613,1.555 z" id="path2375" />
        <path style="fill:#ee2a24;fill-opacity:1" inkscape:connector-curvature="0" d="M 40.869,0.087 C 34.346,-0.636 32.06,3.372 28.806,3.531 25.518,3.371 23.259,-0.636 16.723,0.087 10.055,0.829 5.999,6.503 5.999,6.503 l 8.138,7.568 h 29.317 l 8.138,-7.568 c 0,0 -4.049,-5.674 -10.723,-6.416 z" id="path2377" />
        <path style="fill:#ee2a24;fill-opacity:1" inkscape:connector-curvature="0" d="m 73.422,59.778 c -0.645,1.028 -1.341,1.966 -2.031,2.903 3.665,1.543 5.957,3.49 5.957,5.625 0,4.948 -11.731,8.965 -26.198,8.965 -14.466,0 -26.198,-4.017 -26.198,-8.965 0,-4.238 8.64,-7.773 20.209,-8.704 0.006,-0.996 0.02,-1.992 0.123,-3.054 -14.752,0.69 -25.99,4.467 -25.99,16.094 C 19.293,85.703 33.428,100 50.85,100 68.273,100 82.4,85.703 82.4,72.643 82.399,66.224 78.962,62.213 73.422,59.778 Z" id="path2381" />
        <path style="fill:#ee2a24;fill-opacity:1" inkscape:connector-curvature="0" d="m 49.906,75.182 4.18,-6.699 v 0 c 0.338,-0.664 -0.82,-0.514 -1.875,-1.048 v 0 c -1.055,-0.54 -1.608,-1.562 -1.94,-0.905 l -2.949,7.553 c -0.365,0.722 1.803,2.636 2.584,1.099 z" id="path2383" />
        <path style="fill:#ee2a24;fill-opacity:1" inkscape:connector-curvature="0" d="m 52.1,57.168 c -4.029,-5.033 -1.712,-8.529 -1.712,-8.529 -1.328,0.974 -5.762,13.145 -0.319,15.932 2.448,1.236 6.556,-1.759 2.031,-7.403 z" id="path2385" />
        <path style="fill:#ee2a24;fill-opacity:1" inkscape:connector-curvature="0" d="m 56.228,49.068 c -4.03,-5.026 -1.699,-8.528 -1.699,-8.528 -1.335,0.977 -5.781,13.147 -0.325,15.931 2.441,1.25 6.548,-1.742 2.024,-7.403 z" id="path2387" />
        <path style="fill:#ee2a24;fill-opacity:1" inkscape:connector-curvature="0" d="m 60.238,41.217 c -4.037,-5.016 -1.713,-8.525 -1.713,-8.525 -1.321,0.97 -5.768,13.135 -0.318,15.928 2.441,1.236 6.543,-1.749 2.031,-7.403 z" id="path2389" />
        <path style="fill:#ee2a24;fill-opacity:1" inkscape:connector-curvature="0" d="m 55.935,67.559 c 5.456,2.779 12.702,-7.963 12.715,-9.604 0,0 -1.478,3.92 -7.91,3.62 -7.234,-0.351 -7.24,4.739 -4.805,5.984 z" id="path2391" />
        <path style="fill:#ee2a24;fill-opacity:1" inkscape:connector-curvature="0" d="m 60.062,59.459 c 5.449,2.787 12.708,-7.959 12.722,-9.609 0,0 -1.484,3.939 -7.91,3.627 -7.24,-0.339 -7.253,4.739 -4.812,5.982 z" id="path2393" />
        <path style="fill:#ee2a24;fill-opacity:1" inkscape:connector-curvature="0" d="m 64.073,51.604 c 5.455,2.786 12.701,-7.959 12.708,-9.603 0,0 -1.472,3.945 -7.897,3.62 -7.246,-0.342 -7.253,4.733 -4.811,5.983 z" id="path2395" />
        <path style="fill:#ee2a24;fill-opacity:1" inkscape:connector-curvature="0" d="m 64.626,44.225 c 5.788,2.949 5.971,-12.49 5.971,-12.49 -1.328,0.787 -11.759,9.54 -5.971,12.49 z" id="path2397" />
        <path style="fill:#ee2a24;fill-opacity:1" sodipodi:nodetypes="cccsccccc" inkscape:connector-curvature="0" d="M 45.654,18.948 H 11.943 c 0,0 -16.198,12.741 -10.866,36.231 0,0 1.765,6.774 9.896,6.774 h 7.949 c 6.107,-7.624 18.783,-9.086 27.005,-9.359 0.717,-3.196 1.862,-6.53 3.49,-9.84 1.731,-3.512 3.809,-6.582 6.055,-9.196 -3.424,-9.571 -9.818,-14.61 -9.818,-14.61 z" id="path2379" />
      </g>
      <text id="text2439" y="134.82092" x="72.618996" style="font-style:normal;font-variant:normal;font-weight:bold;font-stretch:condensed;font-size:4.4485364px;line-height:2.78034258px;font-family:Arial;-inkscape-font-specification:'Arial, Bold Condensed';font-variant-ligatures:normal;font-variant-caps:normal;font-variant-numeric:normal;font-feature-settings:normal;text-align:start;letter-spacing:0px;word-spacing:0px;writing-mode:lr-tb;text-anchor:start;fill:#ffffff;fill-opacity:1;stroke:none;stroke-width:0.11121369px;stroke-linecap:butt;stroke-linejoin:miter;stroke-opacity:1" xml:space="preserve"><tspan style="font-style:normal;font-variant:normal;font-weight:bold;font-stretch:condensed;font-size:4.4485364px;font-family:Arial;-inkscape-font-specification:'Arial, Bold Condensed';font-variant-ligatures:normal;font-variant-caps:normal;font-variant-numeric:normal;font-feature-settings:normal;text-align:start;writing-mode:lr-tb;text-anchor:start;fill:#ffffff;stroke-width:0.11121369px" y="134.82092" x="72.618996" id="tspan2437" sodipodi:role="line">CHF</tspan></text>
    </g>
  </g>
  <style id="style1562" type="text/css">
	.st0{fill:#EE2A24;}
</style>
  <style id="style1580" type="text/css">
	.st0{fill:#EE2A24;}
</style>
</svg>
