<?xml version="1.0" encoding="utf-8"?>
<!-- Generator: Adobe Illustrator 19.1.0, SVG Export Plug-In . SVG Version: 6.00 Build 0)  -->
<svg version="1.1" id="Layer_1" xmlns="http://www.w3.org/2000/svg" xmlns:xlink="http://www.w3.org/1999/xlink" x="0px" y="0px"
	 viewBox="-20 44.7 100 52.1" style="enable-background:new -20 44.7 100 52.1;" xml:space="preserve">
<style type="text/css">
	.st0{fill:#EE2A24;}
</style>
<path class="st0" d="M80,74.8c0.1-0.6-0.3-1.3-1.5-2.1c-1.1-0.7-2.2-1.4-3.3-2c-2.3-1.5-4.8-2.9-7.2-4.5c-6.9-4.8-15-6.5-23.1-7.6
	c-3.3-0.4-7.1-0.2-9.9-2.3c-2.2-1.6-5.9-7.1-10.1-9.5c-0.7-0.4-4.1-2.1-4.1-2.1s1.9,5.2,2.4,6.3c1,2.4-0.6,4.5-1.2,6.8
	c-0.4,1.5,3.1,1.2,3.3,2.6c0.3,2.1-6.1,2.8-9.7,3.6c-5.4,1.1-11.6,3.1-17,1.3c-6.3-2-10.8-6.1-15.4-10.6c2.1,9.9,8,15.5,8.2,16.7
	c0.3,1.3-0.7,1.6-1.5,2.5C-11.7,75.6-20,85.1-20,88.1c2.4-0.4,5.2-2.4,7.3-3.6c2.3-1.3,11.2-7.9,13.6-8.9c0.6-0.2,7.4-2.2,7.5-1.4
	c0.1,1.4-0.5,1.7-0.3,2.2c0.3,1.1,2.1,2.2,3,2.9c2.2,1.9,4.7,3.6,6.3,6.1c2.2,3.5,2.3,7.3,2.9,11.3c1.5-0.2,2.9-3.2,3.8-4.4
	c0.8-1.1,3.5-6,4.5-6.3c1-0.3,4,1.4,5.1,1.7c4.2,1.2,8.3,2,12.6,2c5.1,0,18.7,0.4,28.7-7c1.1-0.8,3.8-4,3.8-4s-0.6-0.8-1.5-1.2
	C78.4,76.7,79.9,75.8,80,74.8z M70.9,75.2c-1.3,0-2.3-1-2.3-2.3c0-1.3,1-2.3,2.3-2.3c1.3,0,2.3,1,2.3,2.3
	C73.2,74.2,72.1,75.2,70.9,75.2z"/>
</svg>
