<?xml version="1.0" encoding="utf-8"?>
<!-- Generator: Adobe Illustrator 19.1.0, SVG Export Plug-In . SVG Version: 6.00 Build 0)  -->
<svg version="1.1" id="Layer_1" xmlns="http://www.w3.org/2000/svg" xmlns:xlink="http://www.w3.org/1999/xlink" x="0px" y="0px"
	 viewBox="-20 20.7 100 100" style="enable-background:new -20 20.7 100 100;" xml:space="preserve">
<style type="text/css">
	.st0{fill:#EE2A24;}
</style>
<path class="st0" d="M15.4,38.4c0,9.8-7.9,17.7-17.7,17.7S-20,48.2-20,38.4c0-9.8,7.9-17.7,17.7-17.7S15.4,28.7,15.4,38.4z"/>
<path class="st0" d="M-2.3,85.3c-9.8,0-17.7,7.9-17.7,17.7s7.9,17.7,17.7,17.7s17.7-7.9,17.7-17.7S7.5,85.3-2.3,85.3z"/>
<path class="st0" d="M62.3,85.3c-9.8,0-17.7,7.9-17.7,17.7s7.9,17.7,17.7,17.7c9.8,0,17.7-7.9,17.7-17.7S72.1,85.3,62.3,85.3z"/>
<path class="st0" d="M62.3,20.7c-9.8,0-17.7,7.9-17.7,17.7c0,9.8,7.9,17.7,17.7,17.7c9.8,0,17.7-7.9,17.7-17.7
	C80,28.7,72.1,20.7,62.3,20.7z"/>
<path class="st0" d="M30,53c-9.8,0-17.7,7.9-17.7,17.7c0,9.8,7.9,17.7,17.7,17.7s17.7-7.9,17.7-17.7C47.7,61,39.8,53,30,53z"/>
</svg>
