<?xml version="1.0" encoding="utf-8"?>
<!-- Generator: Adobe Illustrator 19.1.0, SVG Export Plug-In . SVG Version: 6.00 Build 0)  -->
<svg version="1.1" id="Layer_1" xmlns="http://www.w3.org/2000/svg" xmlns:xlink="http://www.w3.org/1999/xlink" x="0px" y="0px"
	 viewBox="-24 20.7 91.3 100" style="enable-background:new -24 20.7 91.3 100;" xml:space="preserve">
<style type="text/css">
	.st0{fill:#EE2A24;}
</style>
<path class="st0" d="M57.5,80.2c-14.4,17.3-29.4,7.5-34.3,3.5c3.8-4.1,5.5-6.4,12.1-11.8c6.8,2.8,18.9-2.5,18.9-2.5
	c-8.2,2.1-14.4,0.9-16.6,0.3c0.5-0.4,8.5-6.2,10.9-9.6c6.7,0.2,12.3-5.6,12.3-5.6c-0.2-0.2-3.6,2.5-10,2.8
	c6.7-9.8,6.4-18.8,6.4-18.8s-2.5,8.2-8.7,17.2c-1.3-6.4,0.4-10.8,0.2-10.9c0,0-4.4,7.2-2.4,13.8c-3.4,3.9-8.8,7.3-10.8,8.8
	c-0.2-0.4-2.2-7.2-0.2-17.3c0,0-5.5,12.7-2.1,19.3c-4.2,3.2-5.3,4-12.4,11.9c-15.9-11.9-2.2-33.2,9.7-38.2
	c12.3-5.1,17.4-4.1,28.6-22.5C71.3,38.9,69.3,66.1,57.5,80.2z"/>
<path class="st0" d="M-10.4,78.4c7.2,3.3,12.3,7.8,15.7,12.1c0-0.1,0.1-0.2,0.1-0.4C12,66.5-24,69.8-24,69.8s5,7.7,7.7,16
	c3.2,9.7,16.3,17.7,21,6.2C1.4,87.4-3.5,82.4-10.4,78.4z"/>
<path class="st0" d="M23.2,83.7c0-0.1-2.5-2.2-2.4-2.3c-6.2,6.8-8.6,12.6-9.2,20c-0.9-2.5-2.8-6.6-6.2-10.9C5.2,91,5,91.5,4.8,92
	c3.7,4.9,5.1,11.6,5.9,13.8c0,6.1,0.7,9.2,1.2,14.3c0,0,3.3,2,4.2-1.7C14.3,115.4,12.4,94.2,23.2,83.7z"/>
</svg>
