<?xml version="1.0" encoding="utf-8"?>
<!-- Generator: Adobe Illustrator 19.1.0, SVG Export Plug-In . SVG Version: 6.00 Build 0)  -->
<svg version="1.1" id="Layer_1" xmlns="http://www.w3.org/2000/svg" xmlns:xlink="http://www.w3.org/1999/xlink" x="0px" y="0px"
	 viewBox="-20 20.7 100 100" style="enable-background:new -20 20.7 100 100;" xml:space="preserve">
<style type="text/css">
	.st0{fill:#EE2A24;}
</style>
<polygon class="st0" points="-2.3,91.8 -10.7,83.4 17.4,83.4 17.4,111.4 9,103 -8.7,120.7 -20,109.5 "/>
<polygon class="st0" points="68.7,120.7 80,109.5 62.3,91.8 70.7,83.4 42.6,83.4 42.6,111.4 51,103 "/>
<polygon class="st0" points="80,32 68.7,20.7 51,38.4 42.6,30 42.6,58.1 70.7,58.1 62.3,49.7 "/>
<polygon class="st0" points="-10.7,58.1 17.4,58.1 17.4,30 9,38.4 -8.7,20.7 -20,32 -2.3,49.7 "/>
<path class="st0" d="M30,58.5c-6.7,0-12.2,5.5-12.2,12.2C17.8,77.5,23.3,83,30,83c6.7,0,12.2-5.5,12.2-12.2
	C42.2,64,36.7,58.5,30,58.5z"/>
</svg>
