<?xml version="1.0" encoding="utf-8"?>
<!-- Generator: Adobe Illustrator 19.1.0, SVG Export Plug-In . SVG Version: 6.00 Build 0)  -->
<svg version="1.1" id="Layer_1" xmlns="http://www.w3.org/2000/svg" xmlns:xlink="http://www.w3.org/1999/xlink" x="0px" y="0px"
	 viewBox="-24 20.7 91.8 100" style="enable-background:new -24 20.7 91.8 100;" xml:space="preserve">
<style type="text/css">
	.st0{fill:#EE2A24;}
</style>
<path class="st0" d="M63,82.4c-4.3-8.7-10.9-14-27.1-14h-1.7h-1.6c-5.9,0-9.2,0.4-14.2,2c-8.7,2.7-40.9,41.4-40.9,41.4
	c-2,2-2,5.1,0,7.1c1,1,2.3,1.5,3.5,1.5c1.3,0,2.6-0.5,3.6-1.5l30.6-28.2c0.1,0.7,0.6,30,0.6,30h36.8l0.8-25.6l2.5,25.6h11.9
	C66.3,104.8,64.3,85,63,82.4z M26.3,120.5H18l27.8-49.7c2.8,0.6,5.1,1.4,7,2.4L26.3,120.5z"/>
<path class="st0" d="M51.6,46.9c0,9.6-7.8,17.4-17.4,17.4h0c0,0,0,0,0,0c-9.6,0-17.4-7.8-17.4-17.4c0-1.9,0.4-3.6,0.9-5.3h16.5h16.5
	C51.3,43.3,51.6,45.1,51.6,46.9z"/>
<polygon class="st0" points="52.2,25.4 50.7,38.9 34.2,38.9 17.7,38.9 16.3,25.4 34.2,20.7 "/>
</svg>
