<?xml version="1.0" encoding="utf-8"?>
<!-- Generator: Adobe Illustrator 19.1.0, SVG Export Plug-In . SVG Version: 6.00 Build 0)  -->
<svg version="1.1" id="Layer_1" xmlns="http://www.w3.org/2000/svg" xmlns:xlink="http://www.w3.org/1999/xlink" x="0px" y="0px"
	 viewBox="-20 24.2 100 94.5" style="enable-background:new -20 24.2 100 94.5;" xml:space="preserve">
<style type="text/css">
	.st0{fill:#EE2A24;}
</style>
<polygon class="st0" points="34.6,44.5 34.6,112.8 48.3,112.8 48.3,118.7 11.7,118.7 11.7,112.8 25.4,112.8 25.4,44.5 -4.3,44.5 
	-4.3,38.5 25.4,38.5 25.4,24.2 34.6,24.2 34.6,38.5 64.3,38.5 64.3,44.5 "/>
<path class="st0" d="M-4.3,44.5L-20,81.1c0,5,7,9.1,15.7,9.1c8.7,0,15.7-4.1,15.7-9.1L-4.3,44.5z M-17.4,81.1l13.1-30.5L8.7,81.1
	H-17.4z"/>
<path class="st0" d="M64.3,44.5L48.7,81.1c0,5,7,9.1,15.7,9.1c8.6,0,15.7-4.1,15.7-9.1L64.3,44.5z M51.3,81.1l13.1-30.5l13.1,30.5
	H51.3z"/>
</svg>
