<?xml version="1.0" encoding="utf-8"?>
<!-- Generator: Adobe Illustrator 19.1.0, SVG Export Plug-In . SVG Version: 6.00 Build 0)  -->
<svg version="1.1" id="Layer_1" xmlns="http://www.w3.org/2000/svg" xmlns:xlink="http://www.w3.org/1999/xlink" x="0px" y="0px"
	 viewBox="-27 20.7 85.8 100" style="enable-background:new -27 20.7 85.8 100;" xml:space="preserve">
<style type="text/css">
	.st0{fill:#EE2A24;}
</style>
<path class="st0" d="M-20.2,89.4c-4.3,2.5-7.4,5.5-6.7,6.6c0.6,1.1,4.7,0,9-2.5c4.3-2.5,7.9-1.2,8,2.9c0.1,4.1,1.2,6.9,2.4,6.1
	c1.3-0.7,2.3-4.7,2.3-8.9c0-4.2,4.2-10,9.4-13c5.2-3,9.4-0.5,9.4,5.5c0,6-3,12.6-6.6,14.7c-3.6,2-6.6,4.9-6.5,6.5
	c0,1.5,3,1.1,6.6-0.9c3.6-2,6.5,0.4,6.5,5.3c0,5,1,9,2.3,9c1.3,0,2.3-4.1,2.3-9c0-5,3-7.3,6.5-5.3c3.6,2.1,6.6,2.5,6.6,0.9
	c0-1.6-3-4.5-6.6-6.5c-3.6-2-6.5-8.6-6.5-14.6c0-6,4.2-8.5,9.4-5.5c5.2,3,9.4,8.8,9.4,13c0,4.2,1,8.2,2.3,8.9c1.3,0.7,2.4-2,2.4-6.1
	c0.1-4.1,3.7-5.4,8-2.9c4.3,2.5,8.4,3.6,9,2.5c0.6-1.1-2.4-4.1-6.7-6.6c-4.3-2.5-4.9-6.3-1.3-8.4c3.6-2.1,5.5-4.5,4.1-5.2
	c-1.3-0.8-5.4,0.3-8.9,2.5c-3.6,2.1-10.9,1.3-16.3-1.8c-5.4-3.1-5.4-8.2,0-11.3c5.4-3.1,12.7-3.9,16.3-1.8c3.6,2.1,7.6,3.2,8.9,2.5
	c1.3-0.8-0.5-3.1-4.1-5.2c-3.6-2.1-3-5.9,1.3-8.4c4.3-2.5,7.3-5.5,6.7-6.6c-0.6-1.1-4.7,0-9,2.5c-4.3,2.5-7.9,1.1-8-3
	c-0.1-4.1-1.2-6.9-2.4-6.2C38,39.7,37,43.7,37,47.9c0,4.1-4.2,10-9.4,13c-5.2,3-9.4,0.5-9.4-5.5s3-12.6,6.5-14.6
	c3.6-2,6.6-4.9,6.6-6.5c0-1.6-3-1.1-6.6,1c-3.6,2.1-6.5-0.3-6.5-5.4c0-5-1-9.1-2.3-9.1c-1.3,0-2.3,4.1-2.3,9.1c0,5-2.9,7.4-6.5,5.4
	c-3.6-2-6.6-2.4-6.6-0.9c0,1.5,2.9,4.4,6.5,6.4c3.6,2,6.6,8.6,6.6,14.7s-4.2,8.5-9.4,5.5c-5.2-3-9.4-8.9-9.4-13c0-4.2-1-8.1-2.3-8.9
	c-1.3-0.8-2.4,2-2.4,6.2c-0.1,4.1-3.6,5.5-8,3c-4.3-2.5-8.4-3.6-9-2.5c-0.6,1.1,2.4,4.1,6.7,6.6c4.3,2.5,5,6.3,1.4,8.4
	c-3.6,2.1-5.4,4.5-4.1,5.2c1.3,0.8,5.3-0.3,8.9-2.5c3.5-2.1,10.8-1.3,16.2,1.8c5.4,3.1,5.4,8.2,0,11.3c-5.4,3.1-12.7,3.9-16.2,1.8
	c-3.5-2.1-7.5-3.2-8.9-2.5c-1.3,0.8,0.5,3.1,4.1,5.2C-15.2,83.1-15.9,86.9-20.2,89.4z"/>
</svg>
