<?xml version="1.0" encoding="utf-8"?>
<!-- Generator: Adobe Illustrator 19.1.0, SVG Export Plug-In . SVG Version: 6.00 Build 0)  -->
<svg version="1.1" id="Layer_1" xmlns="http://www.w3.org/2000/svg" xmlns:xlink="http://www.w3.org/1999/xlink" x="0px" y="0px"
	 viewBox="-20 39.3 100 62.4" style="enable-background:new -20 39.3 100 62.4;" xml:space="preserve">
<style type="text/css">
	.st0{fill:#EE2A24;}
</style>
<g>
	<path class="st0" d="M12.5,39.4c-2.1,0.1-3.3,0.3-3.3,0.3C10.3,39.5,11.4,39.4,12.5,39.4z"/>
	<path class="st0" d="M12.5,39.4c5.3-0.2,16.5,0.1,28.5,5.7C33.3,41.2,23.8,38.7,12.5,39.4z"/>
	<path class="st0" d="M79.8,93.2c-1.2-0.6-2.5-0.7-3.7-1.2c-1.3-0.5-2.6-1.3-3.8-2c-0.7-0.3-0.6-2.3-0.7-3c-0.2-1-0.4-2.3-1-3.2
		c-0.4-0.5-0.5-0.8-0.2-1.3c0.2-0.4,0.6-0.9,0.7-1.3c0.6-2.1,0.9-4.5,0.1-6.6c-0.3-0.7-1.4-2.4-1.8-3C61.1,57.7,50.8,49.7,41,45.1
		C59.2,54.3,67.8,71,67.8,71c-0.9-0.4-0.6,0.1-1.6,0.2c-0.9,0.2-2.1-0.2-2.9,0.5c-0.2,0.2-0.2,0.5-0.5,0.4c-0.2-0.1-0.5-0.2-0.7-0.3
		c-0.5-0.1-1-0.1-1.7-0.1c-3.3,0.3-6.5-0.4-9.7-0.1c-4.1,0.3-8.2,0.2-12.4,0.4c-0.5,0-1.1,0.1-1.6,0.1c-0.7,0-0.9,0.2-1.4-0.3
		c-0.7-0.8-1.3-1.7-2-2.5c-1.5-1.6-3.1-3-4.5-4.8c-0.6-0.8-1.3-1.7-1.9-2.5c-0.6-0.8-1.4-1.4-2.1-2.1c-1.6-1.6-3.3-3.7-5.6-4.3
		c-1.2-0.3-2,0.6-2.1,1.8c-0.1,0.7-2.5,6.1-2.3,6.1c-0.4,0.1-0.1,1-0.7,1c-2.2,0.2-2.7-4.3-5.2-3.4c-1.2,0.4-2.1,2.3-1.6,3.5
		c0.3,0.7,0.8,1.2,0,1.8c-0.6,0.5-3.2,3.8-2.9,3.7c-0.2,0-0.6,0.9-0.8,1.1c-0.4,0.4-0.7,0.6-1.2,0.7c-1.1,0.3-2.4,0.2-3.5,0
		c-1.1-0.1-2.1-0.4-3.1-0.2c-1.1,0.1-2.1,0.5-3,1.2C-7.6,73.2-8,73.6-8.3,74s-0.4,1.2-0.5,1.7c-1.1,4.6,3.6,3.6,5.8,4.9
		c0.7,0.4-1.3,2.7-1.4,3.2c-0.1,0.2-0.2,0.5-0.3,0.7c-0.2,0.5-0.2,0.4-0.7,0.2c-3.5-1.2-6.9-2.6-10.1-4.2c-0.3-0.1-0.4-0.3-0.6,0
		c-0.1,0.2-0.1,0.4,0,0.5c1.2,3,5.5,3.6,7.9,5.3c0.4,0.2,0.8,0.5,1.2,0.7c0.9,0.5,0.9,0.5,0.5,1.5C-7,89.7-7.6,90.8-8.1,92
		c-0.4,0.8-0.9,1.7-1.2,2.6c-0.2,0.6-0.3,1.6-0.7,2.1c-0.4,0.4-1.4,0.7-1.9,1.1c-0.9,0.5-1.9,0.9-2.7,1.4c-1.1,0.8-1.8,1-3.1,1.1
		c-0.4,0-2.6,0.9-1.7,1.7c0.2,0.2,1.9-1,2.3-1.1c-0.3,0.4,3-0.9,3.1-1c0.4-0.3,3.6-1.4,4-1.6c0.4-0.1,2.3,0.2,2.5-0.7
		c0.1-0.6,0.1-1.3,0.3-1.9c0.2-0.5,0.9-2.2,1-2.7c0.3-0.8,1.8-4.7,2.1-4.8c0.2,0,0.6,0.4,0.9,0.4c3.2,1,6.6,1.5,10,1.1
		c0.2,0,2-0.4,1.9-0.1c-0.2,0.7-0.9,3.6,0.2,4.2c-0.8,0.5-2.1,0.9-3,1.1c-1.2,0.2-2.4,0.6-3.6,0.7c-0.7,0.1-3.9,2.1-4.1,2.6
		c1.6-0.9,3.3-1.2,5.1-1.7c0.5-0.1,6.7-2,6.7-1.7c0.1-0.6,0.1-1.1,0.3-1.7c0.1-0.5,0.1-1,0.2-1.5c0.2-0.5,0.3-1,0.5-1.6
		c0.2-0.5,0.2-1.1,0.9-0.9c1.5,0.5,2.9,1.4,4.4,1.9c4.2,1.3,20.4,2.1,22,0.8c0.1,0.8-0.7,1.1-0.7,1.6c0,0.4,0.4,0.5,0.5,0.8
		c0-0.1-6.8,1.5-7.5,1.9c-0.6,0.4-1,0.6-1.6,0.9c-0.8,0.4-1.5,0.8-1.8,1.7c1.4,0,2.2-0.5,2.8-1c0.3-0.2,1-0.4,1.3-0.6
		c1.5-0.8,5.7-1.5,6.1-1.6c0.2-0.1,0.4-0.2,0.7-0.3c0.4-0.2,0.5-0.3,0.7,0c0.2,0.1,0.6-0.3,0.6-0.4c0.1-0.5,0.1-1,0.2-1.5
		c0.1-0.7-0.1-2.8,0.8-2.9c8.2-0.6,18.3-3.4,18.6-3.5c0.7-0.1,0.8,0.3,1.1,0.9c0.2,0.4,0.4,0.9,0.5,1.3c0.1,0.6,0.2,1.1,0.4,1.7
		c0.2,0.8,0.7,0.6,1.1,0.7c2.8,0.7,5.8,0.3,8.6,0.1c-0.2,0.3,1.6,0,2.5,0.1c0.9,0.2,1.3,0.8,2.1,1.2c0.6,0.3,1.4,0.2,2,0.5
		c0.7,0.3,2.8,0.2,3,0.5C80.1,93.7,80.1,93.4,79.8,93.2z M8.9,85.4c-0.3,0.3-1.2,0.3-1.6,0.4c-1.1,0.1-2.3,0.1-3.5,0
		c-2.3-0.2-4.5-0.3-6.8-0.5c0.1-0.1,0.1-0.2,0.2-0.3c0.1-0.7,0.7-0.9,0.7-1.7c0-0.6,0.7-1.4,1.2-1.7c1.3-0.7,3,0.1,4.3,0.3
		C4.1,82,4.8,82,5.6,82c0.7,0,1.4,0.3,2.1,0.4c0.4,0,1.8,0,1.9,0.5C9.6,83,9.4,85,8.9,85.4z M12.9,67.9c-0.3,0.9-0.5,1.7-1,2.4
		c-0.2,0.3-0.8,0.5-0.8,0.9c0,0.5-0.5,0.4-0.9,0.4c-1.6,0-3.2,0.1-4.9,0.2c0.2-0.5,0.4-0.9,0.7-1.4l2-2.7c0.1-0.1,1.9-2.6,2.8-2.4
		c0.9,0.2,1.9,1.2,2.6,1.7C13.1,67.1,12.7,68.2,12.9,67.9z M13.8,71.4c0.5-1,0.9-1.9,1.2-3c0.4,0.3,0.8,0.5,1.2,0.8
		c1.3,0.7,2.4,1.9,3.5,2.9C17.9,71.7,15.8,71.6,13.8,71.4z M26.6,72.4c-0.8-0.1-1.6-0.8-2.3-1.2c-1.5-1-2.6-2.2-4.3-2.9
		c-0.8-0.3-1.5-0.7-2.1-1.2c-0.3-0.2-0.6-0.5-0.9-0.7c-0.6-0.4-0.9-0.4-0.6-1.1c0.7-1.6,1.2-3.2,2-4.8c0.2-0.3,0.3-0.7,0.5-1
		c0.3-0.5,0.3-0.7,0.9-0.7c0.8,0.1,1.4,0.7,2.1,1c1.3,0.7,2.3,2.2,3.1,3.4c1.9,2.8,3.1,6,4.3,9.2C28.3,72.6,27.6,72.6,26.6,72.4z
		 M69.9,90.6l-5.8-0.1c-0.6,0-1.7-0.4-2.1-0.7c-0.3-0.2-0.4-0.8-0.5-1.1c-0.3-0.7-0.6-1.5-1-2.2c-0.2-0.4-0.5-0.9-0.4-1.3
		c0.1-0.2,0.2-0.3,0.4-0.4c0.1,0,0.3,0.1,0.4,0.1s0.2-0.2,0.3-0.2c0.4-0.2,0.8-0.6,1.3-0.8c0.4-0.2,0.8-0.3,1.2-0.5
		c0.5-0.3,0.7-0.1,1.2-0.3c0.2,0.7,0.3,1.3,0.4,2c0.1,0.4,0.4,1.6,0.9,1.6c0.6-0.1,1.3-0.1,1.9-0.4c0.4-0.3,0.8-1,1.1-1.5
		c0.4,1,0.8,1.8,1,2.9c0.1,0.5,0.2,1.1,0.3,1.6c0.1,0.4,0.1,0.7,0.2,1.1C70.5,90.6,70.1,90.6,69.9,90.6z"/>
</g>
</svg>
