<?xml version="1.0" encoding="utf-8"?>
<!-- Generator: Adobe Illustrator 19.1.0, SVG Export Plug-In . SVG Version: 6.00 Build 0)  -->
<svg version="1.1" id="Layer_1" xmlns="http://www.w3.org/2000/svg" xmlns:xlink="http://www.w3.org/1999/xlink" x="0px" y="0px"
	 viewBox="-20 25.1 100 91.7" style="enable-background:new -20 25.1 100 91.7;" xml:space="preserve">
<style type="text/css">
	.st0{fill:#EE2A24;}
</style>
<path class="st0" d="M80,75.1v18.5c-2.2-1-4.9-2.5-5.6-4.6c-0.9-2.6-2-7.9,2.8-8.3c0,0-6-7-11.1,2.8c-3.8,7.5-6.6,10.8-8.3,11.1H55
	c-1.8-0.4-4.5-2.4-5.6-5.6c-0.9-2.6-2-7.9,2.8-8.3c0,0-6-7-11.1,2.8c-3.9,7.5-6.6,10.8-8.3,11.1H30c-1.8-0.4-4.5-2.4-5.6-5.6
	c-0.9-2.6-2-7.9,2.8-8.3c0,0-6-7-11.1,2.8c-3.9,7.5-6.6,10.8-8.3,11.1H5c-1.7-0.4-4.5-2.4-5.6-5.6c-0.9-2.6-2-7.9,2.8-8.3
	c0,0-6.1-7-11.1,2.8c-2.8,5.4-7.8,8.6-11.1,10.1V64.9c6.3-21.6,22.4-39.8,38.9-39.8c8.4,0,14.5,1.9,16.7,5.6c2,3.5,2.1,9.9-2.8,11.1
	c-2.1,0.5-7.1-0.9-8.3-2.8c-0.9-1.3-2.6-2.2,0-5.6C10,29.7-0.7,64.8,32.8,69.5C37.2,52.5,50.3,39,63.3,39c6.5,0,9.5,2.7,11.1,5.6
	c1.6,2.7,1,7.4-2.8,8.3c-1.6,0.4-4.8-1.2-5.6-2.8c-0.8-1.6-0.6-4.4,2.8-5.6C57.2,41.5,49.2,73.5,80,75.1z"/>
<path class="st0" d="M-0.6,94.5c0,0-6.1-7-11.1,2.8c-2.1,4-5.4,6.8-8.3,8.6v10.9H80v-8.3c-1.8-0.4-7.3-2.4-8.3-5.6
	c-0.9-2.6-2-7.9,2.8-8.3c0,0-6-7-11.1,2.8c-3.8,7.5-6.6,10.8-8.3,11.1h-2.8c-1.8-0.4-4.5-2.4-5.6-5.6c-0.9-2.6-2-7.9,2.8-8.3
	c0,0-6-7-11.1,2.8c-3.9,7.5-6.6,10.8-8.3,11.1h-2.8c-1.8-0.4-4.5-2.4-5.6-5.6c-0.9-2.6-2-7.9,2.8-8.3c0,0-6-7-11.1,2.8
	C9.5,104.8,6.8,108,5,108.4H2.2c-1.8-0.4-4.5-2.4-5.6-5.6C-4.2,100.2-5.3,94.9-0.6,94.5z"/>
</svg>
