<?xml version="1.0" encoding="utf-8"?>
<!-- Generator: Adobe Illustrator 19.1.0, SVG Export Plug-In . SVG Version: 6.00 Build 0)  -->
<svg version="1.1" id="Layer_1" xmlns="http://www.w3.org/2000/svg" xmlns:xlink="http://www.w3.org/1999/xlink" x="0px" y="0px"
	 viewBox="-20 20.7 100 100" style="enable-background:new -20 20.7 100 100;" xml:space="preserve">
<style type="text/css">
	.st0{fill:#EE2A24;}
</style>
<path class="st0" d="M26.8,42.1l10.3-10.3l2-8.5c0.3-1.1-0.4-2.2-1.6-2.5c-1.1-0.3-2.2,0.4-2.5,1.5l-1.7,7.4L21.9,41.1l-1.4,9.6
	c-0.6,0.6-1.2,1.2-1.9,1.8l-7.9-7.2L1,52.3l-7.8,0.9c-1.1,0.1-2,1.2-1.8,2.3c0.1,0.5,0.3,0.9,0.6,1.2c0.4,0.4,1,0.7,1.7,0.6L2,56.3
	l8.2-5.5l4.5,5.8c-1.3,1.3-2.5,2.7-3.8,4.1l-11.1,1l-11.2,11.6l-6.8,0.9c-1.1,0.2-1.9,1.2-1.8,2.3c0.1,0.5,0.3,0.9,0.6,1.2
	c0.4,0.4,1.1,0.7,1.8,0.6l8.2-1.1L0,67.5l4.8,0.8c-7.6,10.3-12.5,22-6.7,32.3L39.6,59L26.1,45.5L26.8,42.1z"/>
<path class="st0" d="M47.6,107.5l0.9-7.8l6.9-9.8l-7.2-7.9c0.6-0.6,1.2-1.3,1.8-1.9l9.6-1.4L71,67.4l7.4-1.7
	c1.1-0.3,1.8-1.4,1.5-2.5c-0.3-1.1-1.4-1.8-2.5-1.6l-8.5,2L58.6,73.9l-3.4,0.8L41.7,61.1L0.9,101.9c10.1,5.8,21.5,1.2,31.5-6
	l0.8,4.9l-9.8,9.4l-1.1,8.2c-0.1,0.7,0.2,1.3,0.6,1.8c0.3,0.3,0.7,0.5,1.2,0.6c1.1,0.2,2.2-0.6,2.3-1.8l0.9-6.8L39,100.9l1-11.2
	c1.4-1.2,2.8-2.5,4.1-3.7l5.8,4.5l-5.5,8.2l-0.9,8.3c-0.1,0.7,0.2,1.3,0.6,1.7c0.3,0.3,0.8,0.5,1.2,0.6
	C46.4,109.5,47.5,108.7,47.6,107.5z"/>
<path class="st0" d="M28.4,43.4L42,57l7.2-19.6C42.4,36.1,34.7,38.1,28.4,43.4z"/>
<path class="st0" d="M58.5,42.2c-1.8-1.9-4-3.1-6.4-4L46,54.7l16.5-6.1C61.7,46.3,60.4,44.1,58.5,42.2z"/>
<path class="st0" d="M63.3,51.5l-19.6,7.2l13.6,13.6C62.6,66,64.7,58.3,63.3,51.5z"/>
</svg>
