<?xml version="1.0" encoding="utf-8"?>
<!-- Generator: Adobe Illustrator 19.1.0, SVG Export Plug-In . SVG Version: 6.00 Build 0)  -->
<svg version="1.1" id="Layer_1" xmlns="http://www.w3.org/2000/svg" xmlns:xlink="http://www.w3.org/1999/xlink" x="0px" y="0px"
	 viewBox="-20 27.2 100 87.5" style="enable-background:new -20 27.2 100 87.5;" xml:space="preserve">
<style type="text/css">
	.st0{fill:#EE2A24;}
</style>
<path class="st0" d="M80,114.7H-20v-10c1.6-0.3,6.5-3.3,10-10c4.6-8.9,10-2.5,10-2.5c-4.3,0.4-3.3,5.1-2.5,7.5c0.9,2.9,3.4,4.6,5,5
	H5c1.6-0.3,4-3.3,7.5-10c4.6-8.9,10-2.5,10-2.5c-4.3,0.4-3.3,5.1-2.5,7.5c0.9,2.9,3.4,4.6,5,5h2.5c1.6-0.3,4-3.3,7.5-10
	c4.6-8.9,10-2.5,10-2.5c-4.3,0.4-3.3,5.1-2.5,7.5c0.9,2.9,3.4,4.6,5,5H50c1.6-0.3,6.5-3.3,10-10c4.6-8.9,10-2.5,10-2.5
	c-4.3,0.4-3.3,5.1-2.5,7.5c0.9,2.9,3.4,4.6,5,5H80V114.7z"/>
<path class="st0" d="M65,74.7V60.1V47.2l2.5,2.5l2.5-2.5l-23.8-20l-23.8,20l2.5,2.5l2.5-2.5v27.5H25c-1.6-0.4-4.1-2.1-5-5
	c-0.8-2.4-1.8-7.1,2.5-7.5c0,0-5.4-6.4-10,2.5C9,71.5,6.6,74.4,5,74.7H2.5c-1.6-0.4-4.1-2.1-5-5c-0.8-2.4-1.8-7.1,2.5-7.5
	c0,0-5.4-6.4-10,2.5c-3.5,6.7-8.4,9.7-10,10v15c1.6-0.3,6.5-3.3,10-10c4.6-8.9,10-2.5,10-2.5c-4.3,0.4-3.3,5.1-2.5,7.5
	c0.9,2.9,3.4,4.6,5,5H5c1.6-0.3,4-3.3,7.5-10c4.6-8.9,10-2.5,10-2.5c-4.3,0.4-3.3,5.1-2.5,7.5c0.9,2.9,3.4,4.6,5,5h2.5
	c1.6-0.3,4-3.3,7.5-10c4.6-8.9,10-2.5,10-2.5c-4.3,0.4-3.3,5.1-2.5,7.5c0.9,2.9,3.4,4.6,5,5H50c1.6-0.3,6.5-3.3,10-10
	c4.6-8.9,10-2.5,10-2.5c-4.3,0.4-3.3,5.1-2.5,7.5c0.9,2.9,3.4,4.6,5,5H80v-15H65z"/>
</svg>
