<?xml version="1.0" encoding="utf-8"?>
<!-- Generator: Adobe Illustrator 19.1.0, SVG Export Plug-In . SVG Version: 6.00 Build 0)  -->
<svg version="1.1" id="Layer_1" xmlns="http://www.w3.org/2000/svg" xmlns:xlink="http://www.w3.org/1999/xlink" x="0px" y="0px"
	 viewBox="-23 20.7 93.8 100" style="enable-background:new -23 20.7 93.8 100;" xml:space="preserve">
<style type="text/css">
	.st0{fill:#EE2A24;}
</style>
<path class="st0" d="M-23,30.1c6-4.6,26-9.4,46.9-9.4c23,0,43,4.3,46.9,9.4c-3.3,5.8-33.9,9.4-46.9,9.4S-20.2,36.9-23,30.1z"/>
<path class="st0" d="M70.8,33.2c-7.4,5.8-26.3,9-46.9,9.4c-23.1-0.4-41.6-2-46.9-9.4c0,0.2-1.7,18.1,28.1,28.1
	c20.6,6.9,9.4,18.8,9.4,18.8s-22.4,21.3-3.1,28.1c12.1,4.3,10.9,10.1,9.4,12.5C32.5,106-0.9,103.4,36.4,86.4
	C55.5,77.6,57.9,72.5,52,64.5C44.3,53.9,69.1,49.7,70.8,33.2z"/>
</svg>
