<?xml version="1.0" encoding="utf-8"?>
<!-- Generator: Adobe Illustrator 19.1.0, SVG Export Plug-In . SVG Version: 6.00 Build 0)  -->
<svg version="1.1" id="Layer_1" xmlns="http://www.w3.org/2000/svg" xmlns:xlink="http://www.w3.org/1999/xlink" x="0px" y="0px"
	 viewBox="-20 20.7 100 100" style="enable-background:new -20 20.7 100 100;" xml:space="preserve">
<style type="text/css">
	.st0{fill:#EE2A24;}
</style>
<path class="st0" d="M31.6,43.4c-0.5,0-1.1-0.1-1.6-0.1c-4.8,0-9.3,1.2-13.3,3.4c7-23.9,24.6-26,24.6-26S2.6,24,2.6,69.1
	c0,0,0,0,0.1,0c0,0.5-0.1,1.1-0.1,1.6c0,4.8,1.2,9.3,3.4,13.3c-23.9-7-26-24.5-26-24.5s3.2,38.7,48.4,38.7c0,0,0-0.1,0-0.1
	c0.5,0,1.1,0.1,1.6,0.1c4.8,0,9.3-1.3,13.2-3.4c-7,23.9-24.5,26-24.5,26s38.7-3.2,38.7-48.4c0,0-0.1,0-0.1,0c0-0.5,0.1-1.1,0.1-1.6
	c0-4.8-1.2-9.3-3.4-13.3C77.9,64.5,80,82,80,82S76.8,43.3,31.6,43.4C31.6,43.3,31.6,43.4,31.6,43.4z"/>
</svg>
