<?xml version="1.0" encoding="utf-8"?>
<!-- Generator: Adobe Illustrator 19.1.0, SVG Export Plug-In . SVG Version: 6.00 Build 0)  -->
<svg version="1.1" id="Layer_1" xmlns="http://www.w3.org/2000/svg" xmlns:xlink="http://www.w3.org/1999/xlink" x="0px" y="0px"
	 viewBox="-20 26.8 100 87.9" style="enable-background:new -20 26.8 100 87.9;" xml:space="preserve">
<style type="text/css">
	.st0{fill:#EE2A24;}
</style>
<polygon class="st0" points="47,89.2 37.7,114.7 35.8,114 44.8,89.2 "/>
<polygon class="st0" points="34.5,89.2 25.4,114 27.4,114.7 36.6,89.2 "/>
<polygon class="st0" points="24.1,89.2 15.1,114 17,114.7 26.3,89.2 "/>
<polygon class="st0" points="13.8,89.2 4.8,114 6.7,114.7 16,89.2 "/>
<polygon class="st0" points="55.1,89.2 46.1,114 48,114.7 57.3,89.2 "/>
<polygon class="st0" points="3.5,89.2 -5.5,114 -3.6,114.7 5.7,89.2 "/>
<path class="st0" d="M61.2,45.5c-2.3,0-4.6,0.5-6.6,1.3c-1.8-11.3-11.5-20-23.3-20c-13.1,0-23.7,10.6-23.7,23.7
	c0,0.3,0.1,0.6,0.1,0.9c-0.3,0-0.6-0.1-0.9-0.1c-7,0-12.8,5.7-12.8,12.8c0,0.1,0,0.2,0,0.3c-1-0.3-2.1-0.5-3.2-0.5
	c-6,0-10.9,4.9-10.9,10.9c0,6,4.9,8.3,10.9,8.3c1.7,0,17.9,0,34.4,0c6.5,0,13,0,18.7,0c9.4,0,16.5,0,17.2,0C71.6,83,80,74.6,80,64.3
	C80,53.9,71.6,45.5,61.2,45.5z"/>
</svg>
