<?xml version="1.0" encoding="utf-8"?>
<!-- Generator: Adobe Illustrator 19.1.0, SVG Export Plug-In . SVG Version: 6.00 Build 0)  -->
<svg version="1.1" id="Layer_1" xmlns="http://www.w3.org/2000/svg" xmlns:xlink="http://www.w3.org/1999/xlink" x="0px" y="0px"
	 viewBox="-20 33.7 100 75" style="enable-background:new -20 33.7 100 75;" xml:space="preserve">
<style type="text/css">
	.st0{fill:#EE2A24;}
</style>
<polygon class="st0" points="56.5,103 41.2,105.9 16.3,92.3 25.3,81 45.8,87.8 "/>
<path class="st0" d="M30.1,76.5c-0.7-6.2-3.1-11.1-3.5-17.1c0-2.1,0-3.6-0.2-5.5c0-1.1-0.1-2.1-0.1-3.3c0-2.2-0.2-4.4-0.2-6.3
	c0-2.8,0.4-4.9,2.1-6.4c1-0.9,1.8-1.1,2.5-1.1c1.8-0.2,4.2,2.6,5.3,5.7c-1,0.8-1.6,1.6-1.6,1.6c-4,5.7,11.2,21.9,17.3,13.1
	c2.6-3.7-0.8-14.4-6.9-16.6c-2.4-0.8-4.5-0.5-6.2,0.3c-1.4-3.5-3.9-7-7.9-7.1c-1.5,0-3.1,0.6-4.5,1.9C23.5,38,23,41.3,23,44.3
	c0,1.4,0.1,2.8,0.2,4.2c-0.6-0.5-1.3-1.1-2.2-1.6c-1.8-1.2-3.4-1.8-5-1.8c-4,0.2-5.1,4-5.2,8.1c-4.2,3.4-5,17.8,2.5,15.4
	c4-1.4,5.8-6.6,5.4-10.1c0,0-0.3-5-4.9-5.8c0.2-3.4,1.1-4.5,2.2-4.5c0.6,0,1.8,0.3,3.4,1.3c2.8,2,3.7,2.7,4,4.5
	c0,1.7,0.3,5.8,0.3,5.9h0c0.4,6,1.3,10.6,2,16.7h-2.8l4.8,2.3L48,85.5l15.9-2.3L80,78.2v-1.7L30.1,76.5z M39.2,42.3
	c0,0,7.3,5,9.4,13.9L37.1,43.6L39.2,42.3z M11,66c-1-3.7,0-10.7,0-10.7l2.1-0.8L11,66z"/>
<polygon class="st0" points="2.8,96.9 12,91.3 21.5,79.5 18.5,76.5 -2.6,76.5 -6.8,84.9 "/>
<polygon class="st0" points="13.5,95 -2.8,106 -0.6,108.7 36.8,108.7 36.7,108.2 "/>
<polygon class="st0" points="-20,76.5 -20,89.2 -9.6,83.7 -6.4,76.5 "/>
<polygon class="st0" points="51.1,88.3 61.2,102.9 80,107.3 80,90.6 66.4,86.2 "/>
<polygon class="st0" points="80,86.9 80,81 69.4,83.9 "/>
<polygon class="st0" points="-9.3,87.8 -20,92.8 -20,108.7 -12.2,108.7 -0.5,99.2 "/>
<polygon class="st0" points="46.6,108.7 71.1,108.7 59.4,105.9 "/>
</svg>
