<?xml version="1.0" encoding="utf-8"?>
<!-- Generator: Adobe Illustrator 19.1.0, SVG Export Plug-In . SVG Version: 6.00 Build 0)  -->
<svg version="1.1" id="Layer_1" xmlns="http://www.w3.org/2000/svg" xmlns:xlink="http://www.w3.org/1999/xlink" x="0px" y="0px"
	 viewBox="-20 20.7 100 100" style="enable-background:new -20 20.7 100 100;" xml:space="preserve">
<style type="text/css">
	.st0{fill:#EE2A24;}
</style>
<path class="st0" d="M80,70.7c0-26.8-21-48.6-47.4-49.9c11.7,1.1,20.7,9.6,20.7,19.9c0,3.5-1.2,6.8-3,9.7
	c-5.2-5.2-12.4-8.4-20.3-8.4c-7.9,0-15.1,3.2-20.3,8.4c-1.9-2.9-3-6.1-3-9.7c0-10.3,9.1-18.8,20.7-19.9C1,22.1-20,43.9-20,70.7
	c0,8.1,2,15.7,5.4,22.4c-4.6-10.6-1.8-22.5,7-27.6c3.1-1.8,6.5-2.4,9.9-2.2c-0.6,2.4-1.1,4.8-1.1,7.4c0,13.3,9.1,24.4,21.4,27.7
	c-0.2,0.3-0.4,0.6-0.6,0.8c0,0,0,0.1,0,0.1c-0.4,0.9-0.9,1.6-1.5,2.3c-1.3,1.7-2.9,3.3-4.8,4.4c-8.9,5.1-20.6,1.6-27.4-7.9
	c8.9,13.6,24.3,22.6,41.8,22.6c17.3,0,32.5-8.8,41.5-22.2c-6.9,9.1-18.4,12.5-27.1,7.5c-3.1-1.8-5.3-4.5-6.9-7.6
	C49.7,95.1,58.8,84,58.8,70.7c0-2.6-0.4-5-1.1-7.4c3.5-0.2,6.9,0.4,10,2.2c8.6,4.9,11.5,16.3,7.4,26.6C78.2,85.7,80,78.4,80,70.7z
	 M35.3,89.9c-0.2-4.2,0.7-8.5,2.7-12.7l-3.3-1.9c-1.2,1.2-2.9,2-4.8,2c-1.9,0-3.5-0.8-4.7-2L22,77.2c2.1,4.2,3,8.6,2.7,12.7
	C16.3,87.6,10,79.9,10,70.7c0-1.8,0.3-3.4,0.7-5c3.7,1.9,7,4.8,9.6,8.6l3.4-1.9c-0.2-0.6-0.4-1.1-0.4-1.7c0-3.1,2.1-5.6,5-6.3v-3.8
	c-4.6-0.3-8.8-1.7-12.3-4c3.6-3.6,8.6-5.8,14-5.8c5.5,0,10.4,2.2,14,5.8c-3.5,2.3-7.7,3.7-12.3,4v3.8c2.9,0.8,5,3.2,5,6.3
	c0,0.6-0.2,1.2-0.3,1.7l3.4,2c2.5-3.8,5.9-6.7,9.6-8.6c0.4,1.6,0.7,3.3,0.7,5C50,79.9,43.8,87.6,35.3,89.9z"/>
</svg>
