<?xml version="1.0" encoding="utf-8"?>
<!-- Generator: Adobe Illustrator 19.1.0, SVG Export Plug-In . SVG Version: 6.00 Build 0)  -->
<svg version="1.1" id="Layer_1" xmlns="http://www.w3.org/2000/svg" xmlns:xlink="http://www.w3.org/1999/xlink" x="0px" y="0px"
	 viewBox="-32 20.7 75.1 100" style="enable-background:new -32 20.7 75.1 100;" xml:space="preserve">
<style type="text/css">
	.st0{fill:#EE2A24;}
</style>
<path class="st0" d="M24.6,76.4c0-1.5,6.5-21.7-6.2-27.8C3.7,41.5-0.3,35.9-0.2,26.9c0,0.4-8.9,14.6-3.1,21.7
	c8.9,10.9,5.2,19.3,0,18.6c-8.7-1.3-7.6-12.6-6.2-15.5c-4.5-0.5-9.8,2.3-12.4,6.2c-7.8,11.6,9.1,22.7,3.1,30.9
	c-4.6,6.3-12.4-6.1-12.4-6.2c-9.3,48.5,58.2,49.7,61.9,9.3c1.1-12.1,12-18.7,12.4-18.6C31.5,68,24.6,76.8,24.6,76.4z M2.9,110.5
	C-13.3,111.1-11.6,98.9-9.5,95c2.8-5,9.8-6,6.2-12.4c0,0.1,7.6,1.2,12.4,6.2C16.4,96.4,15.6,110,2.9,110.5z"/>
<path class="st0" d="M12.2,36.2c-1.9-2-3.1-4.5-3.1-6.2c0-3.2,2.6-6.3,6.2-9.3c0.4,2.6-1.5,6.4,0,9.3c1.2,2.1,3.1,4.5,3.1,6.2
	c0,2.3-0.9,4.4-3.1,6.2C15,41.5,14.4,38.7,12.2,36.2z"/>
</svg>
