<?xml version="1.0" encoding="utf-8"?>
<!-- Generator: Adobe Illustrator 19.1.0, SVG Export Plug-In . SVG Version: 6.00 Build 0)  -->
<svg version="1.1" id="Layer_1" xmlns="http://www.w3.org/2000/svg" xmlns:xlink="http://www.w3.org/1999/xlink" x="0px" y="0px"
	 viewBox="-20 26.2 100 89.6" style="enable-background:new -20 26.2 100 89.6;" xml:space="preserve">
<style type="text/css">
	.st0{fill:#EE2A24;}
</style>
<path class="st0" d="M46,45.7c-1.2-0.7-1.8-1.4-1.3-1.7c0.4-0.2,1.7,0.1,2.9,0.8c1.1,0.7,3.5,0.4,5.3-0.6c1.7-1,1.7-2.7,0-3.7
	c-1.7-1-4.1-1.3-5.3-0.6c-1.1,0.7-2.4,1-2.9,0.8c-0.4-0.2,0.2-1,1.3-1.7c1.2-0.7,1-1.9-0.4-2.7c-1.4-0.8-2.4-1.8-2.2-2.1
	c0.2-0.4,1.5,0,2.9,0.8c1.4,0.8,2.6,0.4,2.6-1c0-1.3,0.4-2.2,0.8-2c0.4,0.2,0.7,1.5,0.7,2.9c0,1.3,1.4,3.2,3,4.2
	c1.7,1,3.1,0.2,3.1-1.8s-1-4.1-2.1-4.8c-1.2-0.7-2.1-1.6-2.1-2.1c0-0.5,1-0.3,2.1,0.3c1.2,0.6,2.1-0.1,2.1-1.8
	c0-1.6,0.3-2.9,0.7-2.9s0.7,1.3,0.7,3c0,1.6,1,2.4,2.1,1.7c1.2-0.7,2.1-0.8,2.1-0.3c0,0.5-1,1.4-2.1,2.1C59,33.3,58,35.4,58,37.4
	s1.4,2.8,3.1,1.8s3.1-2.9,3-4.2c0-1.3,0.3-2.6,0.7-2.9c0.4-0.2,0.8,0.7,0.8,2c0,1.3,1.2,1.8,2.6,1c1.4-0.8,2.7-1.2,2.9-0.8
	c0.2,0.4-0.8,1.3-2.2,2.1c-1.4,0.8-1.6,2-0.4,2.7c1.2,0.7,1.8,1.4,1.3,1.7C69.5,41,68.2,40.7,67,40c-1.2-0.7-3.5-0.4-5.3,0.6
	c-1.7,1-1.7,2.7,0,3.7c1.7,1,4.1,1.3,5.3,0.6c1.2-0.7,2.5-1,2.9-0.8c0.4,0.2-0.2,1-1.3,1.7c-1.2,0.7-1,1.9,0.4,2.7
	c1.4,0.8,2.4,1.8,2.2,2.2c-0.2,0.4-1.5,0-2.9-0.8c-1.4-0.8-2.6-0.4-2.6,0.9c0,1.3-0.4,2.2-0.8,2c-0.4-0.2-0.7-1.5-0.7-2.9
	c0-1.4-1.4-3.2-3-4.2S58,45.5,58,47.4s1,4.1,2.1,4.7c1.2,0.7,2.1,1.6,2.1,2.1s-1,0.4-2.1-0.3C59,53.3,58,54,58,55.7
	c0,1.6-0.3,2.9-0.7,2.9s-0.7-1.3-0.7-2.9c0-1.6-1-2.4-2.1-1.7c-1.2,0.7-2.1,0.8-2.1,0.3c0-0.5,0.9-1.4,2.1-2.1
	c1.2-0.7,2.1-2.8,2.1-4.8c0-2-1.4-2.8-3.1-1.8s-3,2.9-3,4.2c0,1.4-0.3,2.6-0.7,2.9c-0.4,0.2-0.8-0.7-0.8-2c0-1.3-1.2-1.8-2.6-0.9
	c-1.4,0.8-2.7,1.2-2.9,0.8c-0.2-0.4,0.8-1.3,2.2-2.2C47,47.6,47.2,46.4,46,45.7z M32.7,50.9l31,25.8v-7.7h2.6v12.9H53.3v-2.6h7.7
	l-31-25.8L32.7,50.9z M1.7,38c2,2,3.6,5.3,5.2,7.7c2.4,3.7,3.8,7.7,7.7,10.3c5.4,3.7,10.5,3.5,15.5,7.7c3.2,2.7,11,11.3,7.7,15.5
	C24,77.5,18.8,70,14.6,66.4C10.3,62.6,2.8,60.7-0.9,56C-5.6,50-5.6,40.1-6,32.8C-6,34,0.7,37,1.7,38z"/>
<path class="st0" d="M43,81.8c0,0-14.2,9.3-33.6-15.5c0,0-25.2-0.9-20.5-37.9l-8.9-2.3c0,0-0.1,89.5,0,89.5s99.9,0,99.9,0
	S44.8,83.5,43,81.8z"/>
<path class="st0" d="M45.6,48.4c-1.4,0.8-2.4,1.8-2.2,2.2c0.2,0.4,1.5,0,2.9-0.8c1.4-0.8,2.6-0.4,2.6,0.9c0,1.3,0.4,2.2,0.8,2
	c0.4-0.2,0.7-1.5,0.7-2.9c0-1.4,1.4-3.2,3-4.2s3.1-0.2,3.1,1.8s-1,4.1-2.1,4.8c-1.2,0.7-2.1,1.6-2.1,2.1c0,0.5,1,0.4,2.1-0.3
	c1.2-0.7,2.1,0.1,2.1,1.7c0,1.6,0.3,2.9,0.7,2.9s0.7-1.3,0.7-2.9c0-1.6,1-2.4,2.1-1.7c1.2,0.7,2.1,0.8,2.1,0.3c0-0.5-1-1.5-2.1-2.1
	C59,51.5,58,49.4,58,47.4c0-2,1.4-2.8,3.1-1.8s3.1,2.9,3,4.2c0,1.4,0.3,2.6,0.7,2.9c0.4,0.2,0.8-0.7,0.8-2c0-1.3,1.2-1.8,2.6-0.9
	c1.4,0.8,2.7,1.2,2.9,0.8c0.2-0.4-0.8-1.3-2.2-2.2c-1.4-0.8-1.6-2-0.4-2.7c1.2-0.7,1.8-1.4,1.3-1.7c-0.4-0.2-1.7,0.1-2.9,0.8
	c-1.2,0.7-3.5,0.4-5.3-0.6c-1.7-1-1.7-2.7,0-3.7c1.7-1,4.1-1.3,5.3-0.6c1.2,0.7,2.5,1,2.9,0.8c0.4-0.2-0.2-1-1.3-1.7
	c-1.2-0.7-1-1.9,0.4-2.7c1.4-0.8,2.4-1.8,2.2-2.1c-0.2-0.4-1.5,0-2.9,0.8c-1.4,0.8-2.6,0.4-2.6-1c0-1.3-0.4-2.2-0.8-2
	c-0.4,0.2-0.7,1.5-0.7,2.9c0,1.3-1.4,3.2-3,4.2c-1.7,1-3.1,0.2-3.1-1.8s1-4.1,2.1-4.7c1.2-0.6,2.1-1.6,2.1-2.1c0-0.5-1-0.4-2.1,0.3
	C59,31.5,58,30.8,58,29.1c0-1.6-0.3-3-0.7-3s-0.7,1.3-0.7,2.9c0,1.6-1,2.4-2.1,1.8c-1.2-0.6-2.1-0.8-2.1-0.3c0,0.5,0.9,1.4,2.1,2.1
	c1.2,0.7,2.1,2.8,2.1,4.8s-1.4,2.8-3.1,1.8s-3-2.9-3-4.2c0-1.3-0.3-2.6-0.7-2.9c-0.4-0.2-0.8,0.7-0.8,2c0,1.3-1.2,1.8-2.6,1
	c-1.4-0.8-2.7-1.2-2.9-0.8c-0.2,0.4,0.8,1.3,2.2,2.1c1.4,0.8,1.6,2,0.4,2.7c-1.2,0.7-1.8,1.4-1.3,1.7c0.4,0.2,1.7-0.1,2.9-0.8
	c1.1-0.7,3.5-0.4,5.3,0.6c1.7,1,1.7,2.7,0,3.7c-1.7,1-4.1,1.3-5.3,0.6c-1.1-0.7-2.4-1-2.9-0.8c-0.4,0.2,0.2,1,1.3,1.7
	C47.2,46.4,47,47.6,45.6,48.4z"/>
<polygon class="st0" points="53.3,79.3 53.3,81.8 66.2,81.8 66.2,68.9 63.7,68.9 63.7,76.7 32.7,50.9 30.1,53.5 61.1,79.3 "/>
<path class="st0" d="M14.6,66.4C18.8,70,24,77.5,37.8,79.3c3.2-4.2-4.6-12.8-7.7-15.5c-5-4.2-10.1-4.1-15.5-7.7
	c-3.9-2.7-5.3-6.6-7.7-10.3C5.3,43.3,3.7,40,1.7,38c-1-1-7.7-4-7.7-5.2C-5.6,40.1-5.6,50-0.9,56C2.8,60.7,10.3,62.6,14.6,66.4z"/>
</svg>
