<?xml version="1.0" encoding="utf-8"?>
<!-- Generator: Adobe Illustrator 19.1.0, SVG Export Plug-In . SVG Version: 6.00 Build 0)  -->
<svg version="1.1" id="Layer_1" xmlns="http://www.w3.org/2000/svg" xmlns:xlink="http://www.w3.org/1999/xlink" x="0px" y="0px"
	 viewBox="-21 20.7 98.6 100" style="enable-background:new -21 20.7 98.6 100;" xml:space="preserve">
<style type="text/css">
	.st0{fill:#EE2A24;}
</style>
<g>
	<path class="st0" d="M77.6,57.7c0,10.2-8.3,18.5-18.5,18.5c-0.7,0-7.7,0-17,0c-5.6,0-12,0-18.5,0c-16.2,0-32.2,0-33.9,0
		c-6,0-10.8-2.3-10.8-8.2c0-6,4.8-10.8,10.8-10.8c1.1,0,2.1,0.2,3.1,0.5c0-0.1,0-0.2,0-0.3c0-6.9,5.6-12.6,12.6-12.6
		c0.3,0,0.6,0.1,0.9,0.1c0-0.3-0.1-0.6-0.1-0.9c0-12.9,10.5-23.4,23.4-23.4c11.7,0,21.2,8.6,23,19.7c2-0.8,4.2-1.2,6.5-1.2
		C69.3,39.2,77.6,47.5,77.6,57.7z"/>
</g>
<g>
	<path class="st0" d="M40.1,80.6H21.7C16.3,86,7.5,94.9,7.4,94.9h14.8L7.4,120.7l33.3-29.6H29.6L40.1,80.6z"/>
</g>
</svg>
