<?xml version="1.0" encoding="utf-8"?>
<!-- Generator: Adobe Illustrator 19.1.0, SVG Export Plug-In . SVG Version: 6.00 Build 0)  -->
<svg version="1.1" id="Layer_1" xmlns="http://www.w3.org/2000/svg" xmlns:xlink="http://www.w3.org/1999/xlink" x="0px" y="0px"
	 viewBox="-22 20.7 96.1 100" style="enable-background:new -22 20.7 96.1 100;" xml:space="preserve">
<style type="text/css">
	.st0{fill:#EE2A24;}
</style>
<path class="st0" d="M22.1,57.7c0.6,1.7,2,1.9,0,2.6l-5.2,2.6l-5.2-5.2c-0.7-2,0.2-3.3,2.6-5.2l5.2,2.6
	C20.2,55.9,21.9,57.1,22.1,57.7z"/>
<path class="st0" d="M16.9,36.9c-1.6-0.8-3.4-0.6-5.2,0c-0.9,0.3-1.5,1.7-2.6,2.6v7.8l7.8-2.6c2.1-2.4,3.1-3.7,2.6-5.2
	C19.1,38.3,18.5,37.7,16.9,36.9z"/>
<path class="st0" d="M38.3,47.4l-0.6-0.1c-0.3,0.1-2.5-1.8-5.2-2.6c-1.3-0.4-1.3,0.5-2.6,0c-1.8,0.6-2.2,2.2-2.6,5.2
	c-0.4,3-1,7.3,0,10.4c0.3,0.8,1.6,1.6,2.6,2.6l2.6,2.6h2.6c3.4-1.5,4.7-5,5.2-5.2c1.2-0.7,2.2-2.9,2.6-5.2c0.4-2.3,0.7-3.1,0-5.2
	C42.1,47.4,39.9,46.8,38.3,47.4z"/>
<path class="st0" d="M37.7,70.7v5.2c1.3,1.2,2.7,2.2,5.2,2.6l5.2-2.6l-2.6-7.8L37.7,70.7z"/>
<path class="st0" d="M68.9,70.7c-3.5-3.8-5.3-4.3-10.4-2.6h-2.6c-2.4,2.1-3.5,3.8-5.2,7.8c-1.6,3.8-3.3,8.2-2.6,10.4
	c0.1,0.2,2.1,2.4,5.2,5.2c3.2,2.7,4.8,4.3,5.2,5.2l10.4-2.6c1.1-0.4,5.5-9.6,5.2-10.4C72,77.4,71,73.1,68.9,70.7z"/>
<path class="st0" d="M61.2,120.6c0-0.2-0.2-0.5-0.1-0.5c-1.9-2.8-10.3-9.3-10.4-10.4c-0.1-1.1-2.4-5.2-5.2-7.8
	c-1.2-1.9-1.3-3.3-2.6-5.2c-1.3-1.9-3.7-5.8-5.2-7.8l-9.8-6.2c-1.4-0.8-9.6-0.5-21-12.5l-0.4-7.3C5,61,1.8,56.5,1.3,55.1
	c-3-9-1-16.3-2.6-28.6l-5.8-3.9l-6.9-1.3c-2.5-0.6-8-0.6-8-0.6v100h10.3h72.9h0.2L61.2,120.6z"/>
</svg>
