<?xml version="1.0" encoding="utf-8"?>
<!-- Generator: Adobe Illustrator 19.1.0, SVG Export Plug-In . SVG Version: 6.00 Build 0)  -->
<svg version="1.1" id="Layer_1" xmlns="http://www.w3.org/2000/svg" xmlns:xlink="http://www.w3.org/1999/xlink" x="0px" y="0px"
	 viewBox="-20 30.5 100 80.3" style="enable-background:new -20 30.5 100 80.3;" xml:space="preserve">
<style type="text/css">
	.st0{fill:#EE2A24;}
</style>
<path class="st0" d="M39.4,40.9c-2.2-2.3-5.2-3.5-8.9-3.5c-6.2-1.5-30.5-7-34.8-6.9c-7.3,0.2-13.8,9.8-15.1,15.8
	c-1.3,6-0.7,18.9,10,21.2l30.7,10.6c1.8,0.8,3.8,1.3,6.1,1.3c0.9,0,1.8-0.1,2.8-0.2c8.5-1.1,13.2-13.6,13.5-25.5
	C43.6,50.7,43.1,44.8,39.4,40.9z M-4.8,52.8l-5.6-1.7c-0.9-2.3,2.7-12,5-12.3l1.5,10.6C-4.8,50-5,51.3-4.8,52.8z M-2.8,50.7
	c1.3,0.1,1.7,1.9,1.7,3.2c0,1.3-0.3,2.6-1.4,2.4c-1-0.2-1.5-3.2-1.5-3.2C-4.1,54.5-4.1,50.6-2.8,50.7z M-3.5,64.8l0.2-7.3
	c0,0,1.4,1.2,2.4,0.3l4.8,9.5C2.1,68.6-2.5,66.6-3.5,64.8z M5.8,55.7C5.6,55.8,0,54.2,0,54.2c0.2-0.9-0.1-3-1.3-4.1L3,41.9
	C4.2,40.5,7.5,55.1,5.8,55.7z M40.4,53.7c-0.2,10.3-4.3,21.5-10.7,22.4c-4.1,0.5-7.3-0.3-9.4-2.4c-2.2-2.3-3.3-6.1-3.3-11.3
	c0-7.2,3.9-21.5,13-21.8l0.5,0c2.9,0,5.1,0.9,6.8,2.6C40.2,46.3,40.4,51.6,40.4,53.7z"/>
<path class="st0" d="M79.9,78.4c0.9,3.8-6.2,6.9-9.5,9.6c-3.4,2.7-11,6.8-20.8,12c-9.8,5.2-22.2,9.2-30.1,7.2
	c-8-2-13.8-2.4-20.6,1.9c-6.8,4.2-13,0.1-13.8-4.9c-0.7-5,13.5-13.6,20.4-13c5.5,0.5,15.9-5.1,21.3-6.2c2.1-0.5,5.7-0.5,11.8-2.8
	c6-2.3,8.3-11.6,11.4-13.1c3.6-1.7,10.7,1,12.6,1.6C65.5,71.5,79,74.6,79.9,78.4z"/>
</svg>
