<?xml version="1.0" encoding="utf-8"?>
<!-- Generator: Adobe Illustrator 19.1.0, SVG Export Plug-In . SVG Version: 6.00 Build 0)  -->
<svg version="1.1" id="Layer_1" xmlns="http://www.w3.org/2000/svg" xmlns:xlink="http://www.w3.org/1999/xlink" x="0px" y="0px"
	 viewBox="-22 20.7 95.1 100" style="enable-background:new -22 20.7 95.1 100;" xml:space="preserve">
<style type="text/css">
	.st0{fill:#EE2A24;}
</style>
<path class="st0" d="M72.5,39c-2.9,0.3-15.1-2-19.5-3.3c-4.4-1.3-8.4-9-16.3-6.5c-7.9,2.5-14.2-3.3-19.5-3.3c-3.7,0-5.7-0.9-7.4-2
	c-0.1-1.2-0.6-2.2-1.5-2.7c-0.6-0.4-1.3-0.5-2-0.5c-1.1,0-2.2,0.5-3.2,1.1L-18.7,26v0H-22v94.8h3.3V31.5l10.9,14
	c0.1,0.2,0.3,0.4,0.4,0.5l0.4,0.5l0,0c0.2,0.1,0.2,0.3,0.4,0.5c0.5,0.3,1.1,0.4,1.6,0.4c0,0,0,0,0,0c0.6,0,1.3-0.2,2-0.6
	c3.2,1.1,8,2.2,10.2,2c3-0.3,7.2,1.2,9.8,3.3c2.5,2.1,13.8-0.6,16.3,0c2.5,0.6,10,5.1,13,6.5c3,1.4,14.7,0.5,16.3,0
	c1.6-0.5,7.5-11.5,8.3-13C71.8,44,74.2,38.8,72.5,39z M-3.9,30.1c-1,1.9-3.1,6.2-4,10l-8.8-11.2L-1.2,26
	C-2.7,27.9-3.7,29.7-3.9,30.1z M-1,31.6c1.5-2.9,3.6-5.4,5.2-6.7l2.2-0.4c0.1,1.4-1,5.5-3.8,10.4c-3.6,6.5-6.4,9-7.4,9.1L-5,43.7
	C-5.4,42.3-4.1,37.4-1,31.6z"/>
</svg>
