<?xml version="1.0" encoding="utf-8"?>
<!-- Generator: Adobe Illustrator 19.1.0, SVG Export Plug-In . SVG Version: 6.00 Build 0)  -->
<svg version="1.1" id="Layer_1" xmlns="http://www.w3.org/2000/svg" xmlns:xlink="http://www.w3.org/1999/xlink" x="0px" y="0px"
	 viewBox="-29 20.7 81.2 100" style="enable-background:new -29 20.7 81.2 100;" xml:space="preserve">
<style type="text/css">
	.st0{fill:#EE2A24;}
</style>
<path class="st0" d="M0,101.9c0,5.6-4.5,10.1-10.2,10.1s-10.1-4.5-10.1-10.1c0-4,2.4-7.5,5.8-9.1V50.9h8.7v41.9
	C-2.4,94.4,0,97.8,0,101.9z"/>
<polygon class="st0" points="52.2,46.8 36.2,46.8 36.2,30.8 30.4,30.8 30.4,46.8 14.5,46.8 14.5,52.6 30.4,52.6 30.4,68.5 
	36.2,68.5 36.2,52.6 52.2,52.6 "/>
<path class="st0" d="M0,86V30.9c0,0,0,0,0,0c0-5.6-4.6-10.1-10.2-10.1c-5.6,0-10.1,4.5-10.1,10.1l0,55.2c-5.4,3.5-8.7,9.5-8.7,15.8
	c0,10.4,8.5,18.8,18.8,18.8c10.4,0,18.8-8.5,18.8-18.8C8.7,95.5,5.4,89.5,0,86z M-10.2,117.8c-8.8,0-16-7.2-16-15.9
	c0-5.6,3.1-10.9,8-13.8l0.7-0.4V30.9c0-4,3.2-7.2,7.3-7.2c4,0,7.2,3.2,7.2,7.2v56.8l0.7,0.4c4.9,2.9,8,8.1,8,13.8
	C5.8,110.7-1.4,117.8-10.2,117.8z"/>
</svg>
