<?xml version="1.0" encoding="utf-8"?>
<!-- Generator: Adobe Illustrator 19.1.0, SVG Export Plug-In . SVG Version: 6.00 Build 0)  -->
<svg version="1.1" id="Layer_1" xmlns="http://www.w3.org/2000/svg" xmlns:xlink="http://www.w3.org/1999/xlink" x="0px" y="0px"
	 viewBox="-20 23.1 100 95.6" style="enable-background:new -20 23.1 100 95.6;" xml:space="preserve">
<style type="text/css">
	.st0{fill:#EE2A24;}
</style>
<path class="st0" d="M38.4,50.6c6.3,2.2,14.6,4.7,16.4-5.5c1.4-7.9,12-5,16.4-5.5c8.1-0.9,2-16.2-8.2-16.4
	C52.7,22.9,48,27.5,43.9,36.9c-2,4.5-3.6,7.9-11,5.5c-7.3-2.4-12.7,3.6-8.2,11c3.9,6.6-0.1,13.7-0.1,13.7h11c0,0-0.1-4.1-2.7-8.2
	C29.8,53.9,31.9,48.3,38.4,50.6z"/>
<path class="st0" d="M-20,118.7C8.4,98.1,15.4,69.5,15.4,69.5h29.1c0,0,7.1,28.6,35.4,49.2H-20z"/>
</svg>
