<?xml version="1.0" encoding="utf-8"?>
<!-- Generator: Adobe Illustrator 19.1.0, SVG Export Plug-In . SVG Version: 6.00 Build 0)  -->
<svg version="1.1" id="Layer_1" xmlns="http://www.w3.org/2000/svg" xmlns:xlink="http://www.w3.org/1999/xlink" x="0px" y="0px"
	 viewBox="-20 24.4 100 93.3" style="enable-background:new -20 24.4 100 93.3;" xml:space="preserve">
<style type="text/css">
	.st0{fill:#EE2A24;}
</style>
<path class="st0" d="M25.9,31.8c0.8,4.8-2.5,9.3-7.2,10.1c-4.8,0.8-9.3-2.5-10.1-7.2c-0.8-4.8,2.5-9.3,7.3-10.1
	C20.6,23.8,25.1,27,25.9,31.8z"/>
<path class="st0" d="M23.1,66.7l7.8,12.4c1.1,1.7,3.4,2.3,5.2,1.3c1.8-1.1,2.4-3.3,1.4-5.1l-2-3.6c-1.7-3.1-3.4-6.1-5.1-9.2L27,56.2
	c-0.4-0.7-0.8-1.5-1.2-2.4C23.6,49.3,20.3,42.4,13,43c-6.3,0.5-12.6,3.5-18.8,8.8c-7.4,5.8-12.6,14.3-12.8,14.7
	c-0.2,0.4-0.5,0.8-0.7,1.1c0,0,0,0,0,0v0c-0.7,1.3-1,2.5-0.2,4c0.7,1.2,2,1.9,3.3,1.9c1.7,0,2.5-0.8,3.3-2l0,0c0,0,0,0,0,0
	c0.2-0.3,0.4-0.7,0.7-1.1c0-0.1,4.4-7,11.1-12.7c2.1-1.6,4-2.7,5.9-3.4L3.4,72.5c-0.1,1.8-0.7,4.9-1.2,6.6l-3.4,11.8
	c-0.4,1.5-1.7,4-2.7,5.2l-9.1,11.3c-1.1,1.4-2.5,3.1-1.4,5.3c0.6,1.3,2,2.2,3.4,2.2c1.8,0,2.7-1,3.9-2.3l9.2-9.9
	c1.6-1.8,3.8-4.8,4.8-7l4.6-9.3l16.9,28.4c0.8,1.4,1.9,3.1,4.2,3.1l0,0c1.3,0,2.5-0.7,3.2-1.8c1.2-1.9,0.4-3.6-0.3-5.1L21.9,81.2
	c-0.5-1.2-0.8-3.5-0.6-4.8L23.1,66.7z"/>
<path class="st0" d="M80,73c0-12.4-10.1-22.4-22.4-22.4H48v11.3h9.5c6.1,0,11.1,5,11.1,11.1c0,6.1-5,11.1-11.1,11.1h-2V78L35.2,89.8
	l20.3,11.7v-6.1h2.2v0C70.1,95.3,80,85.3,80,73z"/>
</svg>
