<?xml version="1.0" encoding="utf-8"?>
<!-- Generator: Adobe Illustrator 19.1.0, SVG Export Plug-In . SVG Version: 6.00 Build 0)  -->
<svg version="1.1" id="Layer_1" xmlns="http://www.w3.org/2000/svg" xmlns:xlink="http://www.w3.org/1999/xlink" x="0px" y="0px"
	 viewBox="-20 23.8 100 94.9" style="enable-background:new -20 23.8 100 94.9;" xml:space="preserve">
<style type="text/css">
	.st0{fill:#EE2A24;}
</style>
<polygon class="st0" points="59.2,118.7 59.2,113.1 -20,113.1 -20,90.1 59.2,90.1 59.2,84.3 80,101.5 "/>
<path class="st0" d="M-20,69.6l7.9,2h9.7c0-2.4,0.8-4.5,2.1-6.2H-20V69.6z"/>
<path class="st0" d="M70.3,50.1l-5.6-16.7v-4.2H47.3v36.1h-31c1.3,1.8,2.1,3.9,2.1,6.2h32.5c0-5.8,4.7-10.4,10.4-10.4
	c4,0,7.5,2.3,9.3,5.7c0.6,1.2,1,2.6,1.1,4c0,0.2,0.1,0.5,0.1,0.7H80V54.3L70.3,50.1z M52.2,50.1V37.6h9.7l4.2,12.5H52.2z"/>
<path class="st0" d="M8,64c-4.2,0-7.6,3.4-7.6,7.6c0,4.2,3.4,7.6,7.6,7.6c4.2,0,7.6-3.4,7.6-7.6C15.6,67.4,12.2,64,8,64z M8,75.8
	c-2.3,0-4.2-1.9-4.2-4.2s1.9-4.2,4.2-4.2c2.3,0,4.2,1.9,4.2,4.2S10.2,75.8,8,75.8z"/>
<path class="st0" d="M61.2,64c-4.2,0-7.6,3.4-7.6,7.6c0,4.2,3.4,7.6,7.6,7.6c4.2,0,7.6-3.4,7.6-7.6C68.9,67.4,65.5,64,61.2,64z
	 M61.2,75.8c-2.3,0-4.2-1.9-4.2-4.2s1.9-4.2,4.2-4.2s4.2,1.9,4.2,4.2S63.5,75.8,61.2,75.8z"/>
<rect x="-20" y="23.8" class="st0" width="63.7" height="39.2"/>
</svg>
