<?xml version="1.0" encoding="utf-8"?>
<!-- Generator: Adobe Illustrator 19.1.0, SVG Export Plug-In . SVG Version: 6.00 Build 0)  -->
<svg version="1.1" id="Layer_1" xmlns="http://www.w3.org/2000/svg" xmlns:xlink="http://www.w3.org/1999/xlink" x="0px" y="0px"
	 viewBox="-20 23.8 100 95" style="enable-background:new -20 23.8 100 95;" xml:space="preserve">
<style type="text/css">
	.st0{fill:#EE2A24;}
</style>
<path class="st0" d="M26.7,31.3c0.8,4.9-2.5,9.5-7.4,10.3c-4.9,0.8-9.5-2.5-10.3-7.4c-0.8-4.9,2.5-9.5,7.4-10.3
	C21.3,23.1,25.9,26.4,26.7,31.3z"/>
<path class="st0" d="M23.9,66.7l7.9,12.7c1.1,1.8,3.5,2.4,5.3,1.3c1.8-1.1,2.4-3.4,1.4-5.2l-2-3.6c-1.7-3.1-3.4-6.2-5.2-9.3
	l-3.5-6.4c-0.4-0.7-0.8-1.6-1.2-2.4c-2.2-4.6-5.6-11.6-13-11c-6.4,0.5-12.8,3.6-19.2,9c-7.5,5.9-12.8,14.6-13,14.9
	c-0.2,0.4-0.5,0.8-0.7,1.1c0,0,0,0,0,0v0c-0.7,1.3-1.1,2.5-0.2,4.1c0.7,1.2,2,2,3.4,2c1.7,0,2.6-0.8,3.4-2l0,0c0,0,0,0,0,0
	c0.2-0.3,0.5-0.7,0.7-1.1c0-0.1,4.5-7.2,11.3-13c2.1-1.7,4.1-2.8,6-3.4L3.8,72.7c-0.1,1.8-0.7,5-1.2,6.7l-3.4,12
	c-0.4,1.5-1.7,4-2.7,5.3l-9.2,11.5c-1.2,1.5-2.5,3.1-1.4,5.4c0.6,1.3,2,2.2,3.5,2.2c1.8,0,2.8-1,4-2.3l9.4-10.1
	c1.7-1.8,3.8-4.9,4.9-7.1l4.7-9.5l17.2,28.9c0.8,1.4,1.9,3.2,4.2,3.2l0,0c1.3,0,2.6-0.7,3.3-1.8c1.2-1.9,0.4-3.6-0.3-5.2L22.7,81.6
	c-0.5-1.2-0.8-3.6-0.6-4.9L23.9,66.7z"/>
<polygon class="st0" points="38.5,98.2 59.3,98.2 59.3,104.4 80,92.4 59.3,80.5 59.3,86.6 38.5,86.6 "/>
</svg>
