<?xml version="1.0" encoding="utf-8"?>
<!-- Generator: Adobe Illustrator 19.1.0, SVG Export Plug-In . SVG Version: 6.00 Build 0)  -->
<svg version="1.1" id="Layer_1" xmlns="http://www.w3.org/2000/svg" xmlns:xlink="http://www.w3.org/1999/xlink" x="0px" y="0px"
	 viewBox="-22 20.7 96 100" style="enable-background:new -22 20.7 96 100;" xml:space="preserve">
<style type="text/css">
	.st0{fill:#EE2A24;}
</style>
<path class="st0" d="M71.3,86.5l-9.4-6.6l-22.3,31.8L22,98.4L6.6,119.2c-0.7,1-1.9,1.5-3.1,1.5c-0.8,0-1.6-0.2-2.3-0.7
	c-1.7-1.3-2.1-3.6-0.8-5.3l19.9-26.9l17.5,13.2l17.8-25.3l-9.2-6.5L74,56.3L71.3,86.5z"/>
<path class="st0" d="M-8.7,20.7c-2.7,0-4.8,2.1-4.8,4.8c0,2.6,2.1,4.8,4.8,4.8s4.8-2.2,4.8-4.8C-3.8,22.9-6,20.7-8.7,20.7z"/>
<path class="st0" d="M-9.2,58.5l-1,17.7c0,0.6-0.5,1.1-1.1,1.1c-0.6,0-1.1-0.5-1.1-1.1l-1-17.7h-3.1l3.2-19.9l-6.5,13
	c-0.2,0.6-0.9,0.8-1.5,0.6c-0.6-0.2-0.8-0.9-0.6-1.5c0,0,4.8-12.9,6-15.3c1.2-2.4,2.3-3.9,6.8-3.9h0.9c4.5,0,5.7,1.5,6.8,3.9
	c1.2,2.4,6,15.3,6,15.3c0.2,0.6,0,1.2-0.6,1.5c-0.6,0.2-1.2,0-1.5-0.6l-6.5-13l3.2,19.9h-3.1l-1,17.7c0,0.6-0.5,1.1-1.1,1.1
	c-0.6,0-1.1-0.5-1.1-1.1l-1-17.7H-9.2z"/>
<path class="st0" d="M35,25.5c0,2.7-2.1,4.8-4.8,4.8c-2.7,0-4.8-2.1-4.8-4.8s2.2-4.8,4.8-4.8C32.8,20.7,35,22.9,35,25.5z"/>
<path class="st0" d="M35.1,49l0.9,26.3c0.1,1-0.7,1.9-1.8,2c0,0-0.1,0-0.1,0c-1,0-1.8-0.7-1.9-1.7l-2.1-20.3L28,75.6
	c-0.1,1-0.9,1.7-1.9,1.7c0,0-0.1,0-0.1,0c-1-0.1-1.8-1-1.7-2L25.2,49l-0.3-10.4l-5.9,13c-0.2,0.6-0.9,0.8-1.5,0.6
	c-0.6-0.2-0.8-0.9-0.6-1.5c0,0,4.1-12.9,5.3-15.3c1.2-2.4,3-3.9,7.5-3.9h0.9c4.5,0,6.3,1.5,7.5,3.9c1.2,2.4,5.3,15.3,5.3,15.3
	c0.2,0.6,0,1.2-0.6,1.5c-0.6,0.2-1.2,0-1.5-0.6l-5.9-13L35.1,49L35.1,49z"/>
<path class="st0" d="M13.7,52.9c0,1.6-1.3,2.9-3,2.9c-1.6,0-3-1.3-3-2.9c0-1.6,1.3-3,3-3C12.4,49.9,13.7,51.3,13.7,52.9z"/>
<path class="st0" d="M10.8,67.3c0,0-1.3,9.2-1.3,9.2c-0.2,0.4-0.6,0.8-1.1,0.8c-0.5,0-1-0.4-1.1-0.8c0,0,0-0.6,0-0.7l0.5-11.3
	l-0.2-3.9c-0.1-1.3-0.2-0.9-1.7-1.8c-1.5-0.9-4.1-5-4.3-5.2c-0.1-0.2-0.4-0.6-0.4-0.8c-0.1-0.4,0.2-0.8,0.6-0.9
	c0.3-0.1,0.6,0.1,0.8,0.3c0.2,0.2,3.2,4.2,5.5,4.6c0.5-0.1,1.1-0.3,2.5-0.3H11c1.4,0,2,0.3,2.5,0.3c2.3-0.4,5.3-4.4,5.5-4.6
	c0.2-0.2,0.4-0.4,0.8-0.3c0.4,0.1,0.7,0.5,0.6,0.9c0,0.2-0.3,0.6-0.4,0.8c-0.1,0.2-2.7,4.2-4.3,5.2c-1.5,0.9-1.5,0.5-1.7,1.8
	l-0.2,3.9l0.5,11.3c0,0.1,0,0.6,0,0.7c-0.2,0.5-0.6,0.8-1.1,0.8c-0.5,0-0.9-0.3-1.1-0.8C12.1,76.5,10.8,67.3,10.8,67.3"/>
</svg>
