<?xml version="1.0" encoding="utf-8"?>
<!-- Generator: Adobe Illustrator 19.1.0, SVG Export Plug-In . SVG Version: 6.00 Build 0)  -->
<svg version="1.1" id="Layer_1" xmlns="http://www.w3.org/2000/svg" xmlns:xlink="http://www.w3.org/1999/xlink" x="0px" y="0px"
	 viewBox="-20 30.9 100 80.9" style="enable-background:new -20 30.9 100 80.9;" xml:space="preserve">
<style type="text/css">
	.st0{fill:#EE2A24;}
</style>
<path class="st0" d="M-7.7,43.8c2.3,0.2,5.1,1.8,7,1.9c1.2,0,2.9-0.9,4.3-1c1.4-0.1,2.8-0.1,4.1,0.2c6.3,1.4,12.1,2.5,19,2.1
	c3.5-0.2,6.2-0.8,9.5-1.9c3.4-1.1,5.9-2.1,8.4,1.1c0.7,0.9,1.4,3.1,2.3,3.6c1.3,0.8,3.8-0.2,5.1-0.3c2.4-0.2,8.1,0.7,9.6-1.4
	c0.8-1.2-0.4-3.5-0.1-4.9c0.3-1.4,1.4-2.5,2.3-3.6c1.6-2.3,3.8-5.4,4.1-8.2c1.3,2.4-2.3,8.2-2.6,10.8c2.4-3.5,4.2-7.8,5.6-11.2
	c0,3.4-0.3,6-1.9,9c-1.2,2.4-2.5,6.3-1,8.8c1.3,2.2,3.8,2.8,4.4,5.5c0.7,3.4,2.1,5.3,4,8.3c1.2,1.8,4.6,5.2,3.1,7.4
	c-0.4,0.6-2.9,2.2-3.5,2.4c-1.6,0.3-2.3-1.2-3.8-1.9c-1.4-0.6-2.6-0.9-4.1-1.7c-1.5-0.8-2.7-1.3-4.4-1.3c-1.7,0-3.5,0.4-5,0.9
	c-2,0.7-1.8,1.3-2.8,2.9c-3,4.8-10,6.6-13.6,11.1c-2.6,3.1-1.2,11.5-0.9,15.6c0.1,2.4,0.9,5.1,2.1,7.2c0.9,1.7,3.7,3.9,3.6,5.8
	c-1.4,0.2-5-2.2-5.7-3.3c-1.2-1.9-1-5.6-1.4-7.7c-0.5-2.3-1.3-4.4-2.1-6.6c-0.9-2.3-1.3-5.5-2.7-7.5c0.2,2.2,0.3,4.5-0.2,6.7
	c-0.4,2-1.6,3.7-1.9,5.7c-0.3,2.3,0,4.9,0,7.2c0,1.4,0,2.2,0.6,3.4c0.6,1,1.7,1.4,1.7,2.7c-6.4-1.7-4.7-9.4-4.4-14.6
	c0.2-3-0.1-5.9-0.4-8.8c-0.3-2.3,0.1-6.9-1.1-8.9c-1.2-2.1-4.9-0.8-7-0.5c-3.3,0.4-6.6,1-9.9,0.6c-2.6-0.3-5.2-1.3-7.4-2.8
	c-1.9-1.3-3.9-4.4-5.9-5c-0.1,3.7-2,4.8-3.3,8c-1.1,2.7-1.8,6.3-2.3,9.1c-1.4,7.4,2.4,12.7,5.1,19.1c0.5,1.2,1.5,2.8,1,4
	c-2.2-0.9-3.2-0.8-4.2-3.3c-0.9-2.1-1.3-4.4-2-6.7c-0.7-2.1-1.4-4.3-2.1-6.5c-0.4-1.1-1.5-6.4-3.2-4.4c0.7,1.5,0.7,3.7,0.9,5.3
	c0.3,1.9,0.9,3.8,1.5,5.7c0.5,1.6,0.9,3.4,1.5,5.1c0.5,1.5,1.8,3.2,1.7,4.9c-6-1.3-6.7-12.3-7.7-16.7c-0.7-2.7-2.4-6.1-2.4-8.8
	c0-3.1,2.4-6.2,3.4-9.1c1.3-3.6,0.5-6.7-1-10c-1.3-2.8-1.9-7-3.9-9.4c-0.4,6.6,0,13.2,0,20c0,3.6,0,6.9,0.2,10.4
	c0.1,2.3,0.6,7.9-1.3,9.3c-1.8-2.1-0.3-7.7,0-10.2c0.4-3.5,0.6-6.6,0.3-10.2c-0.7-6.8-1.3-13.8-1.3-20.7c0-5.5,1.3-8.3,5.9-10.9
	C-11.9,44.2-10.2,43.6-7.7,43.8z"/>
</svg>
