<?xml version="1.0" encoding="utf-8"?>
<!-- Generator: Adobe Illustrator 19.1.0, SVG Export Plug-In . SVG Version: 6.00 Build 0)  -->
<svg version="1.1" id="Layer_1" xmlns="http://www.w3.org/2000/svg" xmlns:xlink="http://www.w3.org/1999/xlink" x="0px" y="0px"
	 viewBox="-29 20.7 82.4 100" style="enable-background:new -29 20.7 82.4 100;" xml:space="preserve">
<style type="text/css">
	.st0{fill:#EE2A24;}
</style>
<path class="st0" d="M3.2,65.3c0.5,0.5,0.7,1,0.7,1.7c0,0.7-0.3,1.4-0.8,1.9c-0.5,0.5-1.2,0.9-2.1,1v-5.7C2,64.5,2.7,64.9,3.2,65.3z
	"/>
<path class="st0" d="M-3.8,56.9c0,0.5,0.2,1,0.6,1.4c0.4,0.5,0.9,0.8,1.7,1.1v-5.1c-0.7,0.2-1.2,0.5-1.6,1
	C-3.6,55.8-3.8,56.4-3.8,56.9z"/>
<path class="st0" d="M11.9,20.8c-6.5-0.7-8.8,3.3-12.1,3.4c-3.3-0.2-5.5-4.2-12.1-3.4c-6.7,0.7-10.7,6.4-10.7,6.4l8.1,7.6h29.3
	l8.1-7.6C22.6,27.2,18.5,21.6,11.9,20.8z"/>
<path class="st0" d="M16.7,39.7h-33.7c0,0-16.2,12.7-10.9,36.2c0,0,1.8,6.8,9.9,6.8h7.9c6.1-7.6,18.8-9.1,27-9.4
	c0.7-3.2,1.9-6.5,3.5-9.8c1.7-3.5,3.8-6.6,6.1-9.2C23,44.7,16.7,39.7,16.7,39.7z M6.2,70.3c-1.3,1.2-3,2-5.3,2.2v2.7h-2.5v-2.7
	c-2-0.2-3.6-0.8-4.9-1.9c-1.3-1.1-2-2.5-2.4-4.5l4.5-0.4c0.2,0.8,0.5,1.4,1,2c0.5,0.6,1.1,1,1.7,1.2V63c-2.3-0.5-3.9-1.4-5-2.5
	c-1.1-1.1-1.6-2.5-1.6-4c0-1.6,0.6-2.9,1.8-4c1.2-1.1,2.8-1.7,4.8-1.9v-1.5h2.5v1.5c1.8,0.2,3.3,0.7,4.4,1.6c1.1,0.9,1.8,2,2.1,3.5
	L3,56.1c-0.3-1.1-1-1.9-2.1-2.3v5.7c2.8,0.6,4.7,1.5,5.7,2.5c1,1,1.5,2.3,1.5,3.9C8.1,67.6,7.5,69.1,6.2,70.3z"/>
<path class="st0" d="M44.4,80.5c-0.6,1-1.3,2-2,2.9c3.7,1.5,6,3.5,6,5.6c0,4.9-11.7,9-26.2,9C7.7,98-4,94-4,89
	c0-4.2,8.6-7.8,20.2-8.7c0-1,0-2,0.1-3.1c-14.8,0.7-26,4.5-26,16.1c0,13.1,14.1,27.4,31.6,27.4c17.4,0,31.5-14.3,31.5-27.4
	C53.4,87,50,82.9,44.4,80.5z"/>
<path class="st0" d="M20.9,95.9l4.2-6.7l0,0c0.3-0.7-0.8-0.5-1.9-1l0,0c-1.1-0.5-1.6-1.6-1.9-0.9l-2.9,7.6
	C18,95.5,20.1,97.4,20.9,95.9z"/>
<path class="st0" d="M23.1,77.9c-4-5-1.7-8.5-1.7-8.5c-1.3,1-5.8,13.1-0.3,15.9C23.5,86.5,27.6,83.5,23.1,77.9z"/>
<path class="st0" d="M27.2,69.8c-4-5-1.7-8.5-1.7-8.5c-1.3,1-5.8,13.1-0.3,15.9C27.6,78.5,31.8,75.5,27.2,69.8z"/>
<path class="st0" d="M31.2,61.9c-4-5-1.7-8.5-1.7-8.5c-1.3,1-5.8,13.1-0.3,15.9C31.6,70.6,35.8,67.6,31.2,61.9z"/>
<path class="st0" d="M26.9,88.3c5.5,2.8,12.7-8,12.7-9.6c0,0-1.5,3.9-7.9,3.6C24.5,82,24.5,87,26.9,88.3z"/>
<path class="st0" d="M31.1,80.2c5.4,2.8,12.7-8,12.7-9.6c0,0-1.5,3.9-7.9,3.6C28.6,73.9,28.6,78.9,31.1,80.2z"/>
<path class="st0" d="M35.1,72.3c5.5,2.8,12.7-8,12.7-9.6c0,0-1.5,3.9-7.9,3.6C32.6,66,32.6,71.1,35.1,72.3z"/>
<path class="st0" d="M35.6,65c5.8,2.9,6-12.5,6-12.5C40.3,53.3,29.8,62,35.6,65z"/>
</svg>
