<?xml version="1.0" encoding="utf-8"?>
<!-- Generator: Adobe Illustrator 19.1.0, SVG Export Plug-In . SVG Version: 6.00 Build 0)  -->
<svg version="1.1" id="Layer_1" xmlns="http://www.w3.org/2000/svg" xmlns:xlink="http://www.w3.org/1999/xlink" x="0px" y="0px"
	 viewBox="-34 20.7 71.6 100" style="enable-background:new -34 20.7 71.6 100;" xml:space="preserve">
<style type="text/css">
	.st0{fill:#EE2A24;}
</style>
<path class="st0" d="M28.5,63.2V40.4H18.4v22.7h-6.7V20.7H-5.2v42.5h-4.5V35.9h-14.6v27.3H-34v7.6h71.6v-7.6H28.5z M-18.9,43.4h-3.3
	V39h3.3V43.4z M-11.9,43.4h-3.3V39h3.3C-11.9,39-11.9,43.4-11.9,43.4z M1.8,34h-5.3v-3.7h5.3V34z M1.8,28.2h-5.3v-3.7h5.3V28.2z
	 M9.9,34H4.6v-3.7h5.3V34z M9.9,28.2H4.6v-3.7h5.3V28.2z"/>
<path class="st0" d="M37.6,120.7H-34l3.6-6.2l11.1-19.2c2-3.4,5.2-3.4,7.1,0c0,0,2.6,4.5,2.9,5c1.5-2.6,9.3-16.1,9.3-16.1
	c2-3.4,5.2-3.4,7.1,0l15.6,27c0.8-1.4,1.6-2.8,2.2-3.8c1.4-2.4,3.7-2.4,5.1,0c1.4,2.4,3.7,6.4,5.1,8.9L37.6,120.7z"/>
</svg>
