<?xml version="1.0" encoding="utf-8"?>
<!-- Generator: Adobe Illustrator 19.1.0, SVG Export Plug-In . SVG Version: 6.00 Build 0)  -->
<svg version="1.1" id="Layer_1" xmlns="http://www.w3.org/2000/svg" xmlns:xlink="http://www.w3.org/1999/xlink" x="0px" y="0px"
	 viewBox="-20 28 100 86.7" style="enable-background:new -20 28 100 86.7;" xml:space="preserve">
<style type="text/css">
	.st0{fill:#EE2A24;}
</style>
<path class="st0" d="M62.3,110.1l4,4.6l-73.4,0l0.9-5.7l8.1-4.5l-1.3-9.5l10.7-0.9l0.6-4.9l12.4-1.1l0.7-8.9l2.1-2.8l5,1.1l0.6,4.7
	l7.9-0.5l0.5,8.9l8.9,3.5l0.5,7c0.8,1.1,4.7-0.6,5.3,0.4c0.7,1-0.6-1,0,0c-0.9,4.1,5.2,4.8,5.2,4.8L62.3,110.1z"/>
<path class="st0" d="M52.6,80.3L48.9,79c-1.3,1-1.7,2-1.4,3.1l1.9,2.2l2.8-0.9c1-0.3,1.4-1,1.1-1.9C53.2,81.1,53,80.7,52.6,80.3z"/>
<path class="st0" d="M50.2,70.3c-0.8-0.4-1.7-0.5-2.6-0.2c-0.5,0.2-1,0.5-1.6,1l0.2,4.4l4.3-0.5c1.1-1.3,1.5-2.3,1.3-3.1
	C51.6,71.3,51.1,70.7,50.2,70.3z"/>
<path class="st0" d="M63.4,76.5L63.4,76.5c-0.1,0.1-0.9,0-2.3-0.5c-0.7-0.2-1.4-0.5-2-0.8c-1,0.3-1.6,1.3-1.8,2.9
	c-0.2,1.6-0.1,3.2,0.5,4.8c0.1,0.4,0.5,0.9,1,1.5l0.9,0.9l1.6-0.1c1.8-0.8,2.8-1.2,3.1-1.3c0.6-0.4,1.1-1.2,1.3-2.4
	c0.2-1.2,0.1-2.4-0.2-3.5C64.9,76.7,64.3,76.2,63.4,76.5z"/>
<path class="st0" d="M56.5,89.7l-0.9,3.4c0.7,0.6,1.7,1,3,1.2l3.1-1.1l-1.6-4.8L56.5,89.7z"/>
<path class="st0" d="M72.5,83.6L71.5,87c0.7,0.6,1.7,1,3,1.2l3.1-1l-1.6-4.8L72.5,83.6z"/>
<path class="st0" d="M74.8,108.9l-0.9,3.4c0.7,0.6,1.7,1,3,1.2l3.1-1l-1.6-4.8L74.8,108.9z"/>
<path class="st0" d="M73.9,94c-1.8-2-4.1-2.6-6.8-1.7l-0.4,0.1c-1.3,1.1-2.3,2.8-3.2,4.9c-0.9,2-1.1,3.6-0.7,4.8
	c0,0.1,0.9,0.9,2.5,2.3c1.7,1.4,2.7,2.3,2.9,2.8l5.1-1.7c0.6-0.2,1.2-0.5,1.7-0.8c0.6-0.4,1-0.8,1.4-1.2c0.4-0.4,0.6-0.9,0.8-1.3
	c0.2-0.4,0.2-0.9,0-1.3C76.1,97.5,75,95.2,73.9,94z"/>
<path class="st0" d="M14.6,55.1l-7.8,5l-9.4-15.6l1.6-7.4L-4.3,32l1.4-0.9l-1.9-3L-20,37.8l1.9,3l1.4-0.9l3.3,5.1l7.3,1.6l9.4,15.6
	l-7.8,5c0,0,7.6,12.6,12.6,13.9c5,1.4,10.3,0.9,10.3,0.9s2.6-4.7,3.5-9.8C22.8,67.3,14.6,55.1,14.6,55.1z M-5.2,44.2l-6.6-1.4
	l-2.7-4.2l8-5.1l2.7,4.2L-5.2,44.2z"/>
</svg>
