<?xml version="1.0" encoding="UTF-8" standalone="no"?>
<!-- Generator: Adobe Illustrator 19.1.0, SVG Export Plug-In . SVG Version: 6.00 Build 0)  -->

<svg xmlns:dc="http://purl.org/dc/elements/1.1/" xmlns:cc="http://creativecommons.org/ns#" xmlns:rdf="http://www.w3.org/1999/02/22-rdf-syntax-ns#" xmlns:svg="http://www.w3.org/2000/svg" xmlns="http://www.w3.org/2000/svg" xmlns:sodipodi="http://sodipodi.sourceforge.net/DTD/sodipodi-0.dtd" xmlns:inkscape="http://www.inkscape.org/namespaces/inkscape" version="1.1" id="Layer_1" x="0px" y="0px" viewBox="-20 30.9 100 80.9" style="enable-background:new -20 30.9 100 80.9;" xml:space="preserve" sodipodi:docname="05_socioeconomicdevelopmentlivestock_noun_4273-02_damaged.svg" inkscape:version="0.92.1 r15371"><metadata id="metadata13431"><rdf:RDF><cc:Work rdf:about=""><dc:format>image/svg+xml</dc:format><dc:type rdf:resource="http://purl.org/dc/dcmitype/StillImage" /><dc:title></dc:title></cc:Work></rdf:RDF></metadata><defs id="defs13429" /><sodipodi:namedview pagecolor="#ffffff" bordercolor="#666666" borderopacity="1" objecttolerance="10" gridtolerance="10" guidetolerance="10" inkscape:pageopacity="0" inkscape:pageshadow="2" inkscape:window-width="1920" inkscape:window-height="1057" id="namedview13427" showgrid="false" inkscape:zoom="8.1175858" inkscape:cx="56.135148" inkscape:cy="49.869185" inkscape:window-x="-8" inkscape:window-y="-8" inkscape:window-maximized="1" inkscape:current-layer="Layer_1" />
<style type="text/css" id="style13422">
	.st0{fill:#EE2A24;}
</style>
<path class="st0" d="M-7.7,43.8c2.3,0.2,5.1,1.8,7,1.9c1.2,0,2.9-0.9,4.3-1c1.4-0.1,2.8-0.1,4.1,0.2c6.3,1.4,12.1,2.5,19,2.1  c3.5-0.2,6.2-0.8,9.5-1.9c3.4-1.1,5.9-2.1,8.4,1.1c0.7,0.9,1.4,3.1,2.3,3.6c1.3,0.8,3.8-0.2,5.1-0.3c2.4-0.2,8.1,0.7,9.6-1.4  c0.8-1.2-0.4-3.5-0.1-4.9c0.3-1.4,1.4-2.5,2.3-3.6c1.6-2.3,3.8-5.4,4.1-8.2c1.3,2.4-2.3,8.2-2.6,10.8c2.4-3.5,4.2-7.8,5.6-11.2  c0,3.4-0.3,6-1.9,9c-1.2,2.4-2.5,6.3-1,8.8c1.3,2.2,3.8,2.8,4.4,5.5c0.7,3.4,2.1,5.3,4,8.3c1.2,1.8,4.6,5.2,3.1,7.4  c-0.4,0.6-2.9,2.2-3.5,2.4c-1.6,0.3-2.3-1.2-3.8-1.9c-1.4-0.6-2.6-0.9-4.1-1.7c-1.5-0.8-2.7-1.3-4.4-1.3c-1.7,0-3.5,0.4-5,0.9  c-2,0.7-1.8,1.3-2.8,2.9c-3,4.8-10,6.6-13.6,11.1c-2.6,3.1-1.2,11.5-0.9,15.6c0.1,2.4,0.9,5.1,2.1,7.2c0.9,1.7,3.7,3.9,3.6,5.8  c-1.4,0.2-5-2.2-5.7-3.3c-1.2-1.9-1-5.6-1.4-7.7c-0.5-2.3-1.3-4.4-2.1-6.6c-0.9-2.3-1.3-5.5-2.7-7.5c0.2,2.2,0.3,4.5-0.2,6.7  c-0.4,2-1.6,3.7-1.9,5.7c-0.3,2.3,0,4.9,0,7.2c0,1.4,0,2.2,0.6,3.4c0.6,1,1.7,1.4,1.7,2.7c-6.4-1.7-4.7-9.4-4.4-14.6  c0.2-3-0.1-5.9-0.4-8.8c-0.3-2.3,0.1-6.9-1.1-8.9c-1.2-2.1-4.9-0.8-7-0.5c-3.3,0.4-6.6,1-9.9,0.6c-2.6-0.3-5.2-1.3-7.4-2.8  c-1.9-1.3-3.9-4.4-5.9-5c-0.1,3.7-2,4.8-3.3,8c-1.1,2.7-1.8,6.3-2.3,9.1c-1.4,7.4,2.4,12.7,5.1,19.1c0.5,1.2,1.5,2.8,1,4  c-2.2-0.9-3.2-0.8-4.2-3.3c-0.9-2.1-1.3-4.4-2-6.7c-0.7-2.1-1.4-4.3-2.1-6.5c-0.4-1.1-1.5-6.4-3.2-4.4c0.7,1.5,0.7,3.7,0.9,5.3  c0.3,1.9,0.9,3.8,1.5,5.7c0.5,1.6,0.9,3.4,1.5,5.1c0.5,1.5,1.8,3.2,1.7,4.9c-6-1.3-6.7-12.3-7.7-16.7c-0.7-2.7-2.4-6.1-2.4-8.8  c0-3.1,2.4-6.2,3.4-9.1c1.3-3.6,0.5-6.7-1-10c-1.3-2.8-1.9-7-3.9-9.4c-0.4,6.6,0,13.2,0,20c0,3.6,0,6.9,0.2,10.4  c0.1,2.3,0.6,7.9-1.3,9.3c-1.8-2.1-0.3-7.7,0-10.2c0.4-3.5,0.6-6.6,0.3-10.2c-0.7-6.8-1.3-13.8-1.3-20.7c0-5.5,1.3-8.3,5.9-10.9  C-11.9,44.2-10.2,43.6-7.7,43.8z" id="path13424" />
<g id="g16659" transform="translate(-24.738676,-40.069686)"><rect transform="rotate(90)" style="opacity:0.98999999;fill:#ffffff;fill-opacity:1;fill-rule:evenodd;stroke:#ffffff;stroke-width:0.7045182;stroke-miterlimit:4;stroke-dasharray:none;stroke-opacity:1" id="rect16655" width="22.862747" height="47.902126" x="-11.359772" y="-52.477543" /><rect y="-23.879461" x="17.095106" height="47.902126" width="22.862747" id="rect16645" style="opacity:0.98999999;fill:#ffffff;fill-opacity:1;fill-rule:evenodd;stroke:#ffffff;stroke-width:0.7045182;stroke-miterlimit:4;stroke-dasharray:none;stroke-opacity:1" /></g><circle style="opacity:0.98999999;fill:#ffffff;fill-opacity:1;fill-rule:evenodd;stroke:none;stroke-width:1.02719641;stroke-miterlimit:4;stroke-dasharray:none;stroke-opacity:1" id="path16663" cx="16.001123" cy="58.428299" r="25.590433" /><g id="g16708"><path style="fill:#ee2a24;stroke-width:0.99999994" inkscape:connector-curvature="0" class="st0" d="M 21.188723,32.68999 H 10.788725 c -11.300001,0 -20.600004,9.300019 -20.600004,20.700019 v 10.300006 c 0,11.299996 9.300003,20.599976 20.600004,20.599976 h 10.29998 c 13.943838,0.0189 20.84801,-9.7787 20.84801,-20.599976 V 53.390009 c 0,-11.453594 -7.280904,-20.75229 -20.747992,-20.700019 z m 17.999981,31.000025 c 0,9.999986 -8.1,18.100006 -18.099999,18.100006 H 10.788706 c -10.000002,0 -18.100005,-8.10002 -18.100005,-18.100006 V 53.390009 c 0,-9.999988 8.100003,-18.100007 18.100005,-18.100007 h 10.399998 c 10.000002,0 18.100002,8.100019 18.100002,18.100007 v 10.300006 z" id="path16641" sodipodi:nodetypes="csssscssccssssssscc" /><rect style="fill:#ee2a24;stroke-width:0.99999994" x="-1.9872812" y="55.239895" class="st0" width="36.099998" height="6.5" id="rect16005" /></g></svg>