<?xml version="1.0" encoding="utf-8"?>
<!-- Generator: Adobe Illustrator 19.1.0, SVG Export Plug-In . SVG Version: 6.00 Build 0)  -->
<svg version="1.1" id="Layer_1" xmlns="http://www.w3.org/2000/svg" xmlns:xlink="http://www.w3.org/1999/xlink" x="0px" y="0px"
	 viewBox="-20 40.5 100 61.2" style="enable-background:new -20 40.5 100 61.2;" xml:space="preserve">
<style type="text/css">
	.st0{fill:#EE2A24;}
</style>
<path class="st0" d="M72.7,92.9V40.5H57.1v52.4h-4.2V54.6H39.3v38.3H-20v8.8H80v-8.8H72.7z M44.4,61.5h-3v-4h3V61.5z M50.9,61.5h-3
	v-4h3V61.5z M63.6,52.8h-4.9v-3.4h4.9V52.8z M63.6,47.5h-4.9V44h4.9V47.5z M71.1,52.8h-5v-3.4h5V52.8z M71.1,47.5h-5V44h5V47.5z"/>
<polygon class="st0" points="5.2,84.8 5.2,79.3 -20,79.3 -20,68.2 5.2,68.2 5.2,62.6 24.4,73.7 "/>
</svg>
