<?xml version="1.0" encoding="utf-8"?>
<!-- Generator: Adobe Illustrator 19.1.0, SVG Export Plug-In . SVG Version: 6.00 Build 0)  -->
<svg version="1.1" id="Layer_1" xmlns="http://www.w3.org/2000/svg" xmlns:xlink="http://www.w3.org/1999/xlink" x="0px" y="0px"
	 viewBox="-20 25.6 100 91.1" style="enable-background:new -20 25.6 100 91.1;" xml:space="preserve">
<style type="text/css">
	.st0{fill:#EE2A24;}
</style>
<path class="st0" d="M35.1,114.8c0,1-0.9,1.9-2.1,1.9H1.5c-1.2,0-2.1-0.9-2.1-1.9v-14.4c0-1.1,1-1.9,2.1-1.9H33
	c1.2,0,2.1,0.9,2.1,1.9C35.1,100.5,35.1,114.8,35.1,114.8z"/>
<path class="st0" d="M80,100.5c0-1.1-0.9-1.9-2.1-1.9H46.3c-1.2,0-2.1,0.8-2.1,1.9v14.4c0,1,0.9,1.9,2.1,1.9h31.5
	c1.2,0,2.1-0.9,2.1-1.9V100.5z"/>
<path class="st0" d="M57.6,73.2c0-1.1-0.9-1.9-2.1-1.9H23.9c-1.2,0-2.1,0.9-2.1,1.9v14.4c0,1,1,1.9,2.1,1.9h31.5
	c1.2,0,2.1-0.9,2.1-1.9C57.6,87.6,57.6,73.2,57.6,73.2z"/>
<path class="st0" d="M25,57L25,57c1,0.7,2.5,0.5,3.2-0.6l7.2-10.3c0.7-1,0.5-2.5-0.6-3.2l0,0l-2.2-1.5l-9.8,14.2L25,57z"/>
<path class="st0" d="M-20,78.3c1.4,3,4.5,5,7.6,5.3L6.7,56.3L-0.9,51L-20,78.3z"/>
<path class="st0" d="M20.7,51.5c0.1,0.2,0.3,0.4,0.4,0.6c0.1,0.2,0.2,0.3,0.2,0.4c0.1,0.3,0.3,0.6,0.3,0.9c2.8-4,5.6-8,8.5-12.1
	c0,0-6.6,0.8-10-7c-0.7-0.5-1.5-1-2.2-1.5c-9.9-6.9-19.3-8.4-27.5-6.1c-0.4,0.1-1.3,0.4-2.2,0.7c-1.4,0.5-1.2,2.7,0.4,2.4
	c0.8-0.1,1.5-0.3,1.9-0.3c1.6-0.1,3.1-0.2,4.6,0.1C1.8,30.8,7,36.9,2.7,43.1c-1.2,1.7-3.5,4.9-3.5,5c0,0,9.9,6.9,9.9,6.9
	c-0.3,0.4,0.7-0.9,1-1.3c1.5-1.7,4.6-4.7,8.4-3.9c0.6,0.1,1.1,0.4,1.5,0.7c0.2,0.2,0.4,0.4,0.6,0.6C20.5,51.3,20.6,51.4,20.7,51.5z"
	/>
</svg>
