<?xml version="1.0" encoding="utf-8"?>
<!-- Generator: Adobe Illustrator 19.1.0, SVG Export Plug-In . SVG Version: 6.00 Build 0)  -->
<svg version="1.1" id="Layer_1" xmlns="http://www.w3.org/2000/svg" xmlns:xlink="http://www.w3.org/1999/xlink" x="0px" y="0px"
	 viewBox="-41 20.7 58.8 100" style="enable-background:new -41 20.7 58.8 100;" xml:space="preserve">
<style type="text/css">
	.st0{fill:#EE2A24;}
</style>
<path class="st0" d="M16.3,45.1h-15c-0.9,0-1.5,0.7-1.5,1.5v1.3c0,0.9,0.7,1.5,1.5,1.5h0.5c0,0,0.1,0,0.1,0.1
	c0.2,0.4,0.5,0.7,0.9,0.9c0,0.8,0,1.9,0,3.1l-13.2,0l-15.4-9c-2.6-1.4-5.2-1.7-7.8-0.9c-2.9,0.9-5,2.5-6.3,4.9c-0.8,1.5-1.1,3-1,4.4
	C-41,54.5-41,80.9-41,81.2c0,4.9,3.9,8.8,8.7,9l0.1,0c0.1,0,0.2,0.1,0.2,0.1c0.1,0,0.2-0.1,0.3-0.1h20.1v25c0,1.5,0.5,2.8,1.7,3.9
	c1.1,1.1,2.5,1.6,4.2,1.6c1.5,0,2.9-0.5,4-1.6c1.2-1.1,1.8-2.4,1.8-3.9c0,0,0-31.3,0-31.5v-0.1h0c-0.2-1.2-0.6-2.3-1.5-3.2
	c-1.1-1.2-2.4-1.8-3.9-1.8h-15.4l0.1-20c0,0,9.1,4.8,9.3,4.8c0.2,0,9.1,0,14.1-0.1c0,6.9,0,14.4,0,17.4C2.8,86.7,5,93.6,5,93.6
	c0.8,3.1,0.9,4.1,0.9,4.2c0,0.1,0,0.1,0,0.2c0,0-0.1,15.6-0.1,18.9c0,2.9,1.1,3.8,1.9,3.8h2.2c0.8,0,1.8-0.9,1.8-3.8
	c0-3.3,0-19.1,0-19.1l-0.4,0l0.4,0c0-0.1,0-1.1,0.9-4.3c0,0,2.2-6.9,2.2-13.2c0-5.3,0-24.4,0-30c0.3-0.2,0.7-0.4,0.8-0.9
	c0,0,0-0.1,0.1-0.1c0,0,0.1-0.1,0.1-0.1h0.5c0.9,0,1.5-0.7,1.5-1.5v-1.3C17.8,45.8,17.2,45.1,16.3,45.1z M12.1,80.4
	c0,6.1-2.1,12.9-2.1,12.9l0.4,0.1L10,93.3C9.8,94,9.4,95,9.4,95c-0.2,0.1-0.4,0.2-0.6,0.2c-0.1,0-0.3-0.1-0.5-0.2
	c-0.1,0-0.5-1-0.6-1.7c0,0-2.1-6.8-2.1-12.9c0-1.6,0-4.3,0-7.6c0.1,0,0.3,0,0.4,0h5.8c0.1,0,0.3,0,0.4,0
	C12.1,76.1,12.1,78.9,12.1,80.4z M12.1,68.9c-0.1,0-0.3-0.1-0.4-0.1H5.9c-0.1,0-0.3,0-0.4,0.1c0-2,0-4,0-6c0.3,0,0.6,0,0.7-0.1
	c1.3-0.2,2.3-1,3-2.3c0.6-1.1,0.7-2.4,0.3-3.8C8.9,55.5,8.1,54.5,7,54c-0.4-0.2-0.9-0.4-1.5-0.4c0-1.1,0-2.1,0-2.9h6.6
	C12.1,54.1,12.1,62,12.1,68.9z"/>
<path class="st0" d="M-38.8,32.9c-0.7-2.4-0.5-4.8,0.8-7.2c1.2-2.2,3-3.8,5.5-4.6s4.8-0.6,7.1,0.6c2.4,1.3,3.9,3.1,4.6,5.6
	c0.7,2.5,0.5,4.9-0.7,7.1c-1.3,2.3-3.1,3.9-5.5,4.6c-2.4,0.7-4.8,0.5-7.2-0.8C-36.6,37.2-38.1,35.4-38.8,32.9z"/>
</svg>
