<?xml version="1.0" encoding="utf-8"?>
<!-- Generator: Adobe Illustrator 19.1.0, SVG Export Plug-In . SVG Version: 6.00 Build 0)  -->
<svg version="1.1" id="Layer_1" xmlns="http://www.w3.org/2000/svg" xmlns:xlink="http://www.w3.org/1999/xlink" x="0px" y="0px"
	 viewBox="-51 20.7 38.8 100" style="enable-background:new -51 20.7 38.8 100;" xml:space="preserve">
<style type="text/css">
	.st0{fill:#EE2A24;}
</style>
<path class="st0" d="M-45.2,36.1c2.5-1,1.9-7,1.9-7c0-4.6,3.7-8.3,8.4-8.3c4.6,0,8.3,3.7,8.3,8.3c0,4.6-3.7,8.4-8.3,8.4
	c-1.5,0-2.9-0.5-4.2-1.3C-42.5,36.4-46.7,36.7-45.2,36.1z"/>
<path class="st0" d="M-12.2,64.6c0-6.6-4.7-12.1-11-13.2c-2.1-6.8-5.6-11.8-11.3-11.8c-7.7,0-8,2.6-10,6.8c0,0,0,0,0,0v0
	c-2.1,4.3-6.5,29.3-6.5,29.3c-0.3,1.4,0.6,2.9,2,3.2c0.2,0,0.4,0.1,0.6,0.1c1.2,0,2.3-0.8,2.6-2.1l5.9-24.8l-2.8,35.2h4.4l1.7,31.4
	c0,1.1,0.9,2,2,2c1.1,0,2-0.9,2-2l1.7-31.4h10.6c0,0,0.3-4.4,0.2-10.5C-15.4,74.6-12.2,70-12.2,64.6z M-21.6,69.6
	c0,0-5.8-3.2-5.8-6.7c0-1.7,1.4-3.1,3.1-3.1c1.4,0,2.4,1,2.7,2.3c0.4-1.3,1.4-2.3,2.7-2.3c1.7,0,3.1,1.4,3.1,3.1
	C-15.8,66.4-21.6,69.6-21.6,69.6z"/>
</svg>
