<?xml version="1.0" encoding="utf-8"?>
<!-- Generator: Adobe Illustrator 19.1.0, SVG Export Plug-In . SVG Version: 6.00 Build 0)  -->
<svg version="1.1" id="Layer_1" xmlns="http://www.w3.org/2000/svg" xmlns:xlink="http://www.w3.org/1999/xlink" x="0px" y="0px"
	 viewBox="-20 23 100 96.7" style="enable-background:new -20 23 100 96.7;" xml:space="preserve">
<style type="text/css">
	.st0{fill:#EE2A24;}
</style>
<polygon class="st0" points="67.3,119.7 50.1,84 33,119.7 20.4,119.7 43.8,70.8 21.1,23.3 33.8,23.2 50.3,57.5 66.8,23 79.2,23.2 
	56.5,70.6 80,119.7 "/>
<path class="st0" d="M-3.3,39.5c4.5,0,8.2-3.7,8.2-8.2c0-4.5-3.7-8.2-8.2-8.2c-4.6,0-8.2,3.7-8.2,8.2C-11.5,35.8-7.8,39.5-3.3,39.5z
	"/>
<path class="st0" d="M13.5,75.8c0.2,1.5-0.9,2.9-2.5,3c-0.1,0-0.2,0-0.3,0c-1.4,0-2.6-1.1-2.7-2.5L5.8,54L5.3,71.4l1.6,44.9
	c0.1,1.8-1.2,3.3-3,3.4c-0.1,0-0.2,0-0.2,0c-1.7,0-3.1-1.3-3.2-3l-3.7-37l-3.7,37c-0.1,1.7-1.6,3-3.2,3c-0.1,0-0.1,0-0.2,0
	c-1.8-0.1-3.1-1.7-3-3.4l1.6-44.9L-12.3,54l-2.2,22.4c-0.1,1.4-1.3,2.5-2.7,2.5c-0.1,0-0.2,0-0.3,0c-1.5-0.2-2.6-1.5-2.5-3
	c0,0,2.1-25.8,3.1-27.8c2-4.1,5.1-6.6,12.8-6.6h0.8h0.8c7.7,0,10.8,2.5,12.8,6.6C11.3,50.1,13.5,75.8,13.5,75.8z"/>
</svg>
