<?xml version="1.0" encoding="utf-8"?>
<!-- Generator: Adobe Illustrator 19.1.0, SVG Export Plug-In . SVG Version: 6.00 Build 0)  -->
<svg version="1.1" id="Layer_1" xmlns="http://www.w3.org/2000/svg" xmlns:xlink="http://www.w3.org/1999/xlink" x="0px" y="0px"
	 viewBox="-51 20.7 38.9 100" style="enable-background:new -51 20.7 38.9 100;" xml:space="preserve">
<style type="text/css">
	.st0{fill:#EE2A24;}
</style>
<path class="st0" d="M-23.2,29.1c0,4.6-3.7,8.3-8.3,8.3s-8.3-3.7-8.3-8.3s3.7-8.4,8.3-8.4S-23.2,24.5-23.2,29.1z"/>
<path class="st0" d="M-12.2,72c0,0-4.4-21.3-6.5-25.6v0c0,0,0,0,0,0c-2.1-4.3-4.2-6.8-12.1-6.8h-0.8h-0.8c-7.9,0-10,2.6-12.1,6.8
	c0,0,0,0,0,0v0c-2.1,4.3-6.5,25.6-6.5,25.6c-0.3,1.4,0.6,2.9,2,3.2c0.2,0.1,0.4,0.1,0.6,0.1c1.2,0,2.3-0.8,2.6-2.1l5.9-21.1
	l-5.8,35.2h5.5l1.7,31.4c0,1.1,0.9,2,2,2c1.1,0,2-0.9,2-2l1.7-31.4h1h1l1.7,31.4c0,1.1,0.9,2,2,2c1.1,0,2-0.9,2-2l1.7-31.4h5.5
	l-5.7-35.2l5.9,21.1c0.3,1.2,1.4,2.1,2.6,2.1c0.2,0,0.4,0,0.6-0.1C-12.8,74.9-11.9,73.4-12.2,72z"/>
</svg>
