<?xml version="1.0" encoding="utf-8"?>
<!-- Generator: Adobe Illustrator 19.1.0, SVG Export Plug-In . SVG Version: 6.00 Build 0)  -->
<svg version="1.1" id="Layer_1" xmlns="http://www.w3.org/2000/svg" xmlns:xlink="http://www.w3.org/1999/xlink" x="0px" y="0px"
	 viewBox="-20 33.1 100 76.6" style="enable-background:new -20 33.1 100 76.6;" xml:space="preserve">
<style type="text/css">
	.st0{fill:#EE2A24;}
</style>
<path class="st0" d="M32.9,54.9c3.3-5,10-6.5,15-3.2c5,3.3,6.5,10,3.2,15c-3.3,5-10,6.5-15,3.2C31,66.6,29.6,59.9,32.9,54.9z
	 M-11.2,101c4.7-9.1,12-2.6,12-2.6c-4.4,0.4-4.6,4.5-3.8,7c1,2.9,4.2,4,5.8,4.4h1.4c1.6-0.3,5.2-1.8,8.8-8.7c4.7-9.1,12-2.6,12-2.6
	c-4.4,0.4-4.6,4.5-3.8,7c0.9,2.9,4.2,4,5.8,4.4h1.2c1.6-0.3,5.2-1.8,8.8-8.7c4.7-9.1,12-2.6,12-2.6c-4.4,0.4-4.6,4.5-3.8,7
	c0.9,2.9,4.2,4,5.8,4.4h1.4c1.6-0.3,5.2-1.8,8.8-8.7c4.7-9.1,12-2.6,12-2.6c-4.4,0.4-4.6,4.5-3.8,7c0.9,2.9,4.2,4,5.8,4.4H80V96.6
	h-3.3c-1.6-0.4-4.8-1.5-5.7-4.3c-0.8-2.4-0.6-6.4,3.8-6.8c0,0-7.2-6.3-11.8,2.6c-1.2,2.4-2.5,4.1-3.6,5.3L45.3,79L28.5,68.1l-6-3.9
	v0l-12-7.7l-5.8-20C4,34,1.4,32.6-1.1,33.3C-3.6,34-5,36.6-4.3,39.1L2,60.8c0.3,1.1,1,2,2,2.7l13.4,8.7l-15,23.1
	c-1-0.7-2-1.6-2.4-2.9c-0.8-2.4-0.6-6.4,3.8-6.8c0,0-7.2-6.3-11.7,2.6c-3.5,6.7-7.1,8.2-8.7,8.5H-20v13.1
	C-18.4,109.4-14.8,107.9-11.2,101z"/>
</svg>
