<?xml version="1.0" encoding="utf-8"?>
<!-- Generator: Adobe Illustrator 19.1.0, SVG Export Plug-In . SVG Version: 6.00 Build 0)  -->
<svg version="1.1" id="Layer_1" xmlns="http://www.w3.org/2000/svg" xmlns:xlink="http://www.w3.org/1999/xlink" x="0px" y="0px"
	 viewBox="-20 22.8 100 95.9" style="enable-background:new -20 22.8 100 95.9;" xml:space="preserve">
<style type="text/css">
	.st0{fill:#EE2A24;}
</style>
<g>
	<polygon class="st0" points="40.9,101.2 57.8,101.2 57.8,118.7 40.9,118.7 40.9,103.6 	"/>
	<path class="st0" d="M71.9,30.4c-5.4-5.1-12.6-7.6-21.2-7.5c-9.3,0-17,2.9-22.5,8.8C22.7,37.5,20,45.3,20,54.6v2.4h15.6l0.1-2.3
		c0.2-5.1,1.1-8.9,2.3-11.1c2.3-4.2,5.9-6.3,12.4-6.4c5.3,0,8.4,1.4,10.3,3.5c2.1,2.6,3.1,5.4,3.1,8.9c0,2.4-0.7,4.6-2.1,7
		c-0.9,1.4-1.9,2.6-3.3,3.9l-5,4.9c-4.9,4.8-8.2,9-9.8,13.1c-1.5,4-2.2,8.9-2.2,15v2.4h15.6v-2.4c0-5,0.6-8.6,1.6-10.7
		c1-2.2,3.4-5.3,7.3-8.9c5.5-5.3,9.3-9.3,11.3-12.3c2.1-3.2,3.1-7.2,3-11.8C80,42,77.3,35.4,71.9,30.4z"/>
</g>
<path class="st0" d="M-3.4,22.8c-4.5,0-8.2,3.6-8.2,8.1s3.6,8.1,8.2,8.1c4.5,0,8.1-3.6,8.1-8.1S1.1,22.8-3.4,22.8z"/>
<path class="st0" d="M10.1,47.6C8.1,43.5,5,41-2.6,41h-0.8h-0.8c-7.6,0-10.7,2.5-12.7,6.6c-1,2-3.1,27.6-3.1,27.6
	c-0.2,1.5,0.9,2.9,2.4,3c0.1,0,0.2,0,0.3,0c1.4,0,2.6-1,2.7-2.5l2.1-22.2l0.5,17.2l-1.6,44.5c-0.1,1.8,1.2,3.3,3,3.4
	c0.1,0,0.2,0,0.2,0c1.7,0,3.1-1.3,3.2-3l3.6-36.7l3.6,36.7c0.1,1.7,1.5,3,3.2,3c0.1,0,0.1,0,0.2,0c1.8-0.1,3.1-1.7,3-3.4L5.1,70.8
	l0.5-17.2l2.1,22.2c0.1,1.4,1.3,2.5,2.7,2.5c0.1,0,0.2,0,0.3,0c1.5-0.2,2.6-1.5,2.4-3C13.2,75.2,11.1,49.6,10.1,47.6z"/>
</svg>
