<?xml version="1.0" encoding="utf-8"?>
<!-- Generator: Adobe Illustrator 19.1.0, SVG Export Plug-In . SVG Version: 6.00 Build 0)  -->
<svg version="1.1" id="Layer_1" xmlns="http://www.w3.org/2000/svg" xmlns:xlink="http://www.w3.org/1999/xlink" x="0px" y="0px"
	 viewBox="-20 22.9 100 95.9" style="enable-background:new -20 22.9 100 95.9;" xml:space="preserve">
<style type="text/css">
	.st0{fill:#EE2A24;}
</style>
<path class="st0" d="M17.7,42.5c0.2-0.8,0.2-1.6,0.4-2.4h32.8c0.5,1.7,0.9,3.4,0.9,5.3c0,9.6-7.7,17.3-17.3,17.3
	c-7.7,0-14.2-5-16.4-12C20,48.2,19.8,44.8,17.7,42.5z"/>
<polygon class="st0" points="6.4,118.7 14.8,118.7 14.5,109.4 "/>
<path class="st0" d="M63.2,80.7C58.9,72,52.3,66.7,36.2,66.7h-1.7h-1.6c-6,0-10.8,0.7-14.5,2.1c0,0-0.1,0-0.1,0l-18.6,2.6L16.9,50v0
	c1.8-2.2,1.4-5.4-0.7-7.1c-2.2-1.8-5.4-1.4-7.1,0.8l-25.5,31.5c-0.2,0.3-0.5,0.6-0.6,1l-1.8,2.2c-1.2,1.5-1.5,3.6-0.6,5.4
	c0.8,1.8,2.6,2.9,4.5,2.9l29.6,0.4c0.6,3,0.8,6.4,0.8,6.4l0.8,25.4h36.6l0.8-25.4l2.5,25.4h11.8C66.4,102.9,64.4,83.2,63.2,80.7z
	 M26.7,118.5h-8.3L46,69.1c2.7,0.6,5,1.4,7,2.4L26.7,118.5z"/>
<polygon class="st0" points="48,22.9 21.1,22.9 18.1,37.4 50.9,37.4 "/>
<path class="st0" d="M68.1,62.6L67.5,62l8.2-8.3l0.6,0.6l3.7-3.7l-2-2l-3.7,3.7l0.3,0.3l-8.2,8.3l-1.7-1.7l-2.7-2.7l-1.3,1.3
	l2.8,2.7l-7.8,7.8l-1.3-0.5l-0.7,0.7c2.2,1.1,4.2,2.5,5.9,4.3L68.1,62.6z"/>
</svg>
