<?xml version="1.0" encoding="utf-8"?>
<!-- Generator: Adobe Illustrator 19.1.0, SVG Export Plug-In . SVG Version: 6.00 Build 0)  -->
<svg version="1.1" id="Layer_1" xmlns="http://www.w3.org/2000/svg" xmlns:xlink="http://www.w3.org/1999/xlink" x="0px" y="0px"
	 viewBox="-28 20.7 83.1 100" style="enable-background:new -28 20.7 83.1 100;" xml:space="preserve">
<style type="text/css">
	.st0{fill:#EE2A24;}
</style>
<path class="st0" d="M37.9,35.8c-4.9,0-8.9,4-8.9,8.8c0,4.9,4,8.9,8.9,8.9c4.9,0,8.8-4,8.8-8.9C46.7,39.8,42.7,35.8,37.9,35.8z"/>
<path class="st0" d="M53.9,86.3c-1,0.4-2.2-0.1-2.6-1.1L47.2,68l-0.6,18.3h0l1.6,30.3c0.1,1.8-1.3,3.4-3.1,3.5c-0.1,0-0.2,0-0.2,0
	c-1.7,0-3.2-1.3-3.3-3.1l-3.8-28.6L34.1,117c-0.1,1.7-1.6,3.1-3.3,3.1c-0.1,0-0.1,0-0.2,0c-1.8-0.1-3.2-1.7-3.1-3.5l1.6-30.3
	L28.5,68c0,0-11,11.1-11.7,11.4c-1.2,0.5-2.6-0.1-3.1-1.3L4.8,58.7l6.8,32.8H5.1l-2,26.9c0,1.3-1.1,2.4-2.3,2.4
	c-1.3,0-2.4-1.1-2.4-2.4l-2-26.9h-1.2H-6l-2,26.9c0,1.3-1,2.4-2.4,2.4c-1.3,0-2.3-1.1-2.3-2.4l-2-26.9h-6.5l6.8-32.8l-8.9,19.4
	c-0.5,1.2-1.9,1.8-3.1,1.3c-1.2-0.5-1.7-1.9-1.2-3.1c0,0,5.3-19.3,7.8-24.3c2.4-5,4.9-8.1,14.2-8.1h1h1c9.3,0,11.8,3.1,14.2,8.1
	c1.8,3.7,5.1,14.9,6.7,20.7c2.4-3.2,5.6-7.8,6.8-10.4c2.1-4.2,5.3-6.8,13.1-6.8h1.6c7.9,0,11.1,2.6,13.1,6.8
	c2.1,4.2,3.1,21.3,3.1,21.3C55.4,84.7,54.9,85.8,53.9,86.3z"/>
<path class="st0" d="M10.2,37.2c0,2.5-2.1,4.6-4.8,4.6c-1.9,0-3.4-1-4.2-2.5c-1.8,1.5-4.1,2.5-6.6,2.5c-2.6,0-4.8-1-6.6-2.5
	c-0.8,1.5-2.4,2.5-4.2,2.5c-2.7,0-4.8-2.1-4.8-4.6c0-2.5,2.1-4.6,4.8-4.6c0.2,0,0.4,0.1,0.6,0.1c-0.1-0.5-0.3-0.9-0.3-1.4
	c0-5.8,4.7-10.5,10.5-10.5c5.8,0,10.5,4.7,10.5,10.5c0,0.5-0.2,1-0.3,1.4c0.2,0,0.4-0.1,0.6-0.1C8,32.6,10.2,34.6,10.2,37.2z"/>
</svg>
