<?xml version="1.0" encoding="utf-8"?>
<!-- Generator: Adobe Illustrator 19.1.0, SVG Export Plug-In . SVG Version: 6.00 Build 0)  -->
<svg version="1.1" id="Layer_1" xmlns="http://www.w3.org/2000/svg" xmlns:xlink="http://www.w3.org/1999/xlink" x="0px" y="0px"
	 viewBox="-21 20.7 98 100" style="enable-background:new -21 20.7 98 100;" xml:space="preserve">
<style type="text/css">
	.st0{fill:#EE2A24;}
</style>
<path class="st0" d="M46,39.8c0,10.5-8.5,19.1-19.1,19.1c-10.5,0-19.1-8.5-19.1-19.1s8.6-19.1,19.1-19.1C37.4,20.7,46,29.3,46,39.8z
	"/>
<polygon class="st0" points="-5,120.7 6.7,120.7 7.3,120.7 7.7,119.8 12,115.7 8.1,114.9 1.9,113.5 "/>
<path class="st0" d="M74.9,43.3l-4.1,4.1l0.3,0.3l-3.3,3.3c0.4,0.4,0.9,0.8,1.3,1.3l3.3-3.3l0.7,0.6l4.1-4.1L74.9,43.3z"/>
<path class="st0" d="M48.5,64.5l-1.8,1.7l0.2,0.5l0.4,0.9L19.5,95.6l3,0.6c2.8,0.6,5.1,2.2,6.7,4.6c0.2,0.3,0.3,0.7,0.4,1.1l0.1-0.1
	l2.1,1.4l0.7-0.2l8.1,5.9l5.4-7.5L34,92l0.3-0.8l2,0l11.9-13.9l1.3-12.5L48.5,64.5z"/>
<path class="st0" d="M61.4,52.2c-3.6-0.4-7.1,2.3-7.5,6l-0.4,4.1l0,0l-0.3,2.9l-1.3,12.5l-0.1,1.2L51,79.8L40.4,92.2l8,6.3l2.9,2.2
	l-1.7,2.3l0.4,0.8c1.1,2.4,3.6,3.9,6.2,3.9c0.4,0,0.8,0,1.1-0.1c3-0.5,5.3-3,5.6-6l4.6-42C67.9,55.9,65.2,52.6,61.4,52.2z"/>
<path class="st0" d="M47.5,105.8l-3.9,5.3l-2.2,3.1l-3.1-2.2l-6.7-4.9l-0.6,0.2l-0.2-0.2c0,0.6,0,1.1-0.1,1.7
	c-0.1,0.6-0.3,1.1-0.5,1.6c-0.4,1-1,1.8-1.6,2.6l0.5,1.1c0.5,1.1,1.1,2.5,1.9,3.7l1.9,2.9h14.3L47.5,105.8z"/>
<path class="st0" d="M20.3,117.2c-0.2,0-0.3,0-0.5-0.1c-0.1,0.3-0.1,0.5-0.1,0.5l1.6,3.1h3.9l2.5-0.9c-0.8-1.3-1.5-2.8-2.2-4.2
	C23.9,116.6,22.2,117.2,20.3,117.2z"/>
<path class="st0" d="M25.9,102.8c-0.3-0.4-0.7-0.8-1.1-1.1c-0.2-0.2-0.4-0.5-0.7-0.7c-0.7-0.5-1.5-0.9-2.4-1l-3-0.6L12,97.8l0,0
	l-6-1.3l-2.3-0.5l-3.8-0.8l-0.3-0.1l0.6-0.6L2.7,92l2.8-2.8c0.2,1.9,0.3,3.4,0.3,3.5l0.9,0.2l8.4,1.8l1.7-1.7l26-26.1l-0.6-1.5
	l0.2-0.2c-3.7-1.1-8.2-1.8-13.8-1.8h-1.8c0,0-1.8,0-1.8,0c-3.9,0-7.9,0.3-11.8,1.1C6.6,66,2.5,72.5-2.1,77
	c-4.7,4.6-9.3,9.4-13.9,14.2c-1,1.1-2,2.1-3.1,3.2c-1.8,1.8-2.4,4.4-1.7,6.8c0.7,2.4,2.7,4.2,5.1,4.7l9,1.9l3.8,0.8l21.6,4.6
	c0.5,0.1,1,0.1,1.4,0.1c3.1,0,6-2.2,6.7-5.4c0.3-1.3,0.1-2.4-0.3-3.6l-0.4-0.9C26.1,103.4,26,103.1,25.9,102.8z"/>
<polygon class="st0" points="16.3,119.4 15.7,118.2 16,116.8 16.1,116.6 15,116.3 11.2,120.7 17,120.7 "/>
</svg>
