<?xml version="1.0" encoding="utf-8"?>
<!-- Generator: Adobe Illustrator 19.1.0, SVG Export Plug-In . SVG Version: 6.00 Build 0)  -->
<svg version="1.1" id="Layer_1" xmlns="http://www.w3.org/2000/svg" xmlns:xlink="http://www.w3.org/1999/xlink" x="0px" y="0px"
	 viewBox="-20 24.6 100 93.2" style="enable-background:new -20 24.6 100 93.2;" xml:space="preserve">
<style type="text/css">
	.st0{fill:#EE2A24;}
</style>
<path class="st0" d="M66.2,102.7c0,0-0.1,2.3-1.3,3.6c-1.2,1.3-5.6,4.1-5.6,4.1l-14.1-11l0.5-21.2c1.6-1.4,3.5-2.8,5.9-3.3
	c3.7-0.8,20.4-4,28.3-9.4c0,0-8.2-8.2-8.5-10.3C58.1,25.4,42.9,22.4,21.1,25.5c-21.7,3.1-47.7,13.3-39.6,65.1c0,0,5.1,8.3,13.8,9.8
	c2.7,0.4,6.1,0.6,9.6,0.7l36,4.2l12.3,12.4c5.2-0.1,19.7-2.5,15-10.7C67.4,105.7,66.8,104.2,66.2,102.7z M14.3,49.7l7.4,15.8
	l-1.5-16.4l4.5-0.4l2.8,29.6l-4.5,0.4L15.6,63l1.5,16.2l-4.5,0.4L9.8,50.1L14.3,49.7z M-4.5,77.7c-0.6-1.1-1-2.1-1.3-3.3
	c-0.5-1.8-0.8-3.5-0.9-5l-1.6-17.6l4.8-0.4l1.7,18c0.2,1.6,0.5,2.8,1.1,3.7c0.5,0.9,1.3,1.3,2.1,1.2c0.8-0.1,1.4-0.6,1.8-1.5
	c0.4-0.9,0.5-2.2,0.4-3.9l-1.7-18l4.8-0.5l1.7,17.6c0.2,1.8,0.2,3.4,0,5c-0.1,1.6-0.5,3-1,4.2c-0.5,1.2-1.1,2.1-1.7,2.6
	c-0.9,0.7-2,1.2-3.3,1.3c-0.8,0.1-1.6,0.1-2.5-0.1c-0.9-0.1-1.7-0.4-2.4-1C-3.2,79.6-3.9,78.8-4.5,77.7z M26.2,98.3
	c2.8-1.9,5.4-4.6,6.8-5.7c1.4-1.1,4-4.5,6.4-7.5c-0.1,6.5-0.4,15-0.4,15L26.2,98.3z"/>
</svg>
