<?xml version="1.0" encoding="utf-8"?>
<!-- Generator: Adobe Illustrator 19.1.0, SVG Export Plug-In . SVG Version: 6.00 Build 0)  -->
<svg version="1.1" id="Layer_1" xmlns="http://www.w3.org/2000/svg" xmlns:xlink="http://www.w3.org/1999/xlink" x="0px" y="0px"
	 viewBox="-20 27.4 100 86.4" style="enable-background:new -20 27.4 100 86.4;" xml:space="preserve">
<style type="text/css">
	.st0{fill:#EE2A24;}
</style>
<path class="st0" d="M7.7,34.7c0,4-3.3,7.3-7.3,7.3C-3.7,42-7,38.8-7,34.7c0-4.1,3.3-7.3,7.3-7.3C4.4,27.4,7.7,30.7,7.7,34.7z"/>
<path class="st0" d="M1.1,84.9L2.7,112c0,0.9,0.8,1.7,1.7,1.7c1,0,1.7-0.8,1.7-1.7l1.5-27.1h4.8L7.5,54.6l10,19.8
	c0.4,0.9,1.4,1.3,2.3,0.9c0.9-0.4,1.3-1.4,0.9-2.3c0,0-7.3-19.7-9.1-23.4C9.7,46,7.9,43.8,1.1,43.8h-1.4c-6.8,0-8.6,2.2-10.4,5.9
	c-1.8,3.7-9.1,23.4-9.1,23.4c-0.4,0.9,0,1.9,0.9,2.3c0.9,0.4,1.9,0,2.3-0.9l10-19.8l-5,30.3h4.8l1.5,27.1c0,0.9,0.8,1.7,1.7,1.7
	c1,0,1.7-0.8,1.7-1.7l1.5-27.1H1.1z"/>
<path class="st0" d="M59.6,27.4c-4.1,0-7.4,3.3-7.4,7.3s3.3,7.3,7.4,7.3c4,0,7.3-3.3,7.3-7.3S63.7,27.4,59.6,27.4z"/>
<path class="st0" d="M67.2,70.5l0.5-16l9,19.8c0.4,0.9,1.4,1.3,2.3,0.9c0.9-0.4,1.3-1.4,0.9-2.3c0,0-6.3-19.7-8.1-23.4
	c-1.8-3.7-4.6-5.9-11.4-5.9h-1.4c-6.8,0-9.6,2.2-11.4,5.9c-1.8,3.7-8.1,23.4-8.1,23.4c-0.4,0.9,0,1.9,0.9,2.3c0.9,0.4,1.9,0,2.2-0.9
	l9-19.8l0.5,16l-1.4,40.1c-0.1,1.6,1.1,3,2.7,3.1c0.1,0,0.2,0,0.2,0c1.5,0,2.8-1.2,2.9-2.7l3.2-33l3.3,33c0.1,1.5,1.4,2.7,2.9,2.7
	c0.1,0,0.1,0,0.2,0c1.6-0.1,2.8-1.5,2.7-3.1L67.2,70.5L67.2,70.5z"/>
<path class="st0" d="M30,72c-2.5,0-4.5,2-4.5,4.5c0,2.5,2,4.5,4.5,4.5c2.5,0,4.5-2,4.5-4.5C34.5,74,32.5,72,30,72z"/>
<path class="st0" d="M30,98.5c0,0,2,14.1,2,14.1c0.3,0.7,0.9,1.2,1.7,1.2c0.8,0,1.5-0.5,1.7-1.3c0,0,0.1-0.9,0-1l-0.8-17.3l0.3-5.9
	c0.2-2,0.3-1.4,2.6-2.8c2.4-1.4,6.3-7.6,6.5-7.9c0.2-0.3,0.6-0.9,0.6-1.2c0.1-0.6-0.3-1.2-0.9-1.3c-0.5-0.1-0.9,0.2-1.2,0.5
	c-0.3,0.3-4.9,6.4-8.3,7c-0.8-0.1-1.6-0.5-3.8-0.5h-0.9c-2.2,0-3,0.4-3.8,0.5c-3.4-0.6-8-6.7-8.4-7c-0.3-0.3-0.7-0.6-1.2-0.5
	c-0.6,0.1-1,0.7-0.9,1.3c0.1,0.3,0.4,0.9,0.6,1.2c0.2,0.3,4.2,6.5,6.5,7.9c2.3,1.4,2.4,0.8,2.6,2.8l0.3,5.9l-0.8,17.3c0,0.1,0,1,0,1
	c0.2,0.7,0.9,1.3,1.7,1.3c0.8,0,1.4-0.5,1.7-1.2C28,112.5,30,98.5,30,98.5"/>
</svg>
