<?xml version="1.0" encoding="utf-8"?>
<!-- Generator: Adobe Illustrator 19.1.0, SVG Export Plug-In . SVG Version: 6.00 Build 0)  -->
<svg version="1.1" id="Layer_1" xmlns="http://www.w3.org/2000/svg" xmlns:xlink="http://www.w3.org/1999/xlink" x="0px" y="0px"
	 viewBox="-29 20.7 81.9 100" style="enable-background:new -29 20.7 81.9 100;" xml:space="preserve">
<style type="text/css">
	.st0{fill:#EE2A24;}
</style>
<path class="st0" d="M12.2,31c0,5.7-4.6,10.3-10.3,10.3S-8.3,36.6-8.3,31S-3.7,20.7,2,20.7S12.2,25.3,12.2,31z"/>
<path class="st0" d="M2.2,114.2c-13.6,0-24.6-11.1-24.6-24.6c0-9.2,5.1-17.1,12.5-21.3v-7.4C-21.1,65.5-29,76.6-29,89.5
	c0,17.2,14,31.2,31.2,31.2c11.4,0,21.3-6.3,26.8-15.5l-3.4-8.4C22.5,106.8,13.2,114.2,2.2,114.2z"/>
<path class="st0" d="M48,99.2h-7.4c0,0-4.5-12.8-5.7-16.2c-0.8-2.2-2.9-3.9-5.4-3.9h-18V66.5h17.1c2.3,0,4.1-1.8,4.1-4.1
	c0-2.3-1.8-4.1-4.1-4.1H11.4c0,0-1-14.9-9.5-14.9c-5.8,0-7.8,4.7-7.8,10.5v26.3c0,5.8,4.7,10.5,10.5,10.5c0.2,0,0.3-0.1,0.5-0.1
	c0.2,0,0.3,0.1,0.5,0.1h21.9l7.3,18.2H48c2.7,0,4.9-2.2,4.9-4.9C52.9,101.4,50.7,99.2,48,99.2z"/>
</svg>
