<?xml version="1.0" encoding="utf-8"?>
<!-- Generator: Adobe Illustrator 19.1.0, SVG Export Plug-In . SVG Version: 6.00 Build 0)  -->
<svg version="1.1" id="Layer_1" xmlns="http://www.w3.org/2000/svg" xmlns:xlink="http://www.w3.org/1999/xlink" x="0px" y="0px"
	 viewBox="-53 20.7 34.6 100" style="enable-background:new -53 20.7 34.6 100;" xml:space="preserve">
<style type="text/css">
	.st0{fill:#EE2A24;}
</style>
<path class="st0" d="M-35.7,20.7c-4.7,0-8.5,3.8-8.5,8.5c0,4.7,3.8,8.5,8.5,8.5c4.7,0,8.5-3.8,8.5-8.5C-27.2,24.5-31,20.7-35.7,20.7
	z"/>
<path class="st0" d="M-21.6,46.6c-2.1-4.3-5.3-6.8-13.2-6.8h-0.8h-0.8c-7.9,0-11.2,2.6-13.2,6.8c-1,2.1-3.2,28.8-3.2,28.8
	c-0.2,1.6,1,3,2.5,3.1c0.1,0,0.2,0,0.3,0c1.4,0,2.7-1.1,2.8-2.6l2.2-23.1l0.6,18l-1.6,46.4c-0.1,1.8,1.3,3.4,3.1,3.5
	c0.1,0,0.2,0,0.2,0c1.7,0,3.2-1.3,3.3-3.1l3.8-38.2l3.8,38.2c0.1,1.8,1.6,3.1,3.3,3.1c0.1,0,0.1,0,0.2,0c1.8-0.1,3.2-1.7,3.1-3.5
	l-1.6-46.4l0.6-18l2.2,23.1c0.1,1.5,1.4,2.6,2.8,2.6c0.1,0,0.2,0,0.3,0c1.6-0.2,2.7-1.6,2.5-3.1C-18.4,75.3-20.6,48.7-21.6,46.6z"/>
</svg>
