<?xml version="1.0" encoding="utf-8"?>
<!-- Generator: Adobe Illustrator 19.1.0, SVG Export Plug-In . SVG Version: 6.00 Build 0)  -->
<svg version="1.1" id="Layer_1" xmlns="http://www.w3.org/2000/svg" xmlns:xlink="http://www.w3.org/1999/xlink" x="0px" y="0px"
	 viewBox="-37 20.7 66.4 100" style="enable-background:new -37 20.7 66.4 100;" xml:space="preserve">
<style type="text/css">
	.st0{fill:#EE2A24;}
</style>
<path class="st0" d="M29.4,80.8c0.2,1.3-0.7,2.6-2,2.8c-0.1,0-0.3,0-0.4,0c-1.2,0-2.2-0.8-2.4-2l-3.9-17.6l-0.6,19.1h0l1.7,31.6
	c0.1,1.9-1.3,3.5-3.2,3.7c-0.1,0-0.2,0-0.3,0c-1.8,0-3.3-1.4-3.4-3.2L11,85.5l-3.9,29.8c-0.1,1.8-1.7,3.2-3.5,3.2
	c-0.1,0-0.1,0-0.2,0c-1.9-0.1-3.3-1.8-3.2-3.7l1.7-31.6L1.3,64.1l-13.9,13.1c-0.5,0.4-1,0.6-1.6,0.6c-0.7,0-1.3-0.3-1.8-0.8
	c-0.9-1-0.8-2.5,0.2-3.4c0,0,11.1-12.8,12.3-15.4c2.2-4.4,5.5-7.1,13.7-7.1h1.7c8.2,0,11.5,2.7,13.7,7.1
	C27,61.1,29.4,80.8,29.4,80.8z"/>
<path class="st0" d="M11,30.6c-5.1,0-9.3,4.1-9.3,9.2c0,5.1,4.1,9.2,9.3,9.2c5.1,0,9.2-4.1,9.2-9.2C20.3,34.7,16.1,30.6,11,30.6z"/>
<path class="st0" d="M-14,92.6l-2.4-1.6l-3.9-41.6l1.1-0.6l-0.2-1.9l-1.1-0.4l-0.9-9.6l3.4-0.3l-0.2-1.6l-3.3,0.3l-2.1,0.2
	l-0.9-10.1l0.3,0l-0.4-4.6l-2.4,0.2l0.4,4.6l0.7,0l0.9,10.1l-0.7,0.1l0.5,33.7l1.2,1l-0.2,0.6l-12.1-0.3L-37,78l7.9,0.5l0.3,0.5
	l1.9,0.2l0.2,2.4c-0.7-0.1-1.7-0.2-2.7,0.1c-0.4,0.2-0.8,0.4-0.9,0.9c-0.2,0.4-0.2,0.8-0.2,1.2c0.1,0.6,0.2,1.1,0.3,1.3
	c-0.1,0.9,0,1.3,1,2.5c0.3,0.3,0.4,0.6,0.5,0.8c-1.8,1-3.9,2.2-6.1,2.8l2.5,4.2l3.5-1.4c0,0,0.9-2.1,2.1-2.2
	c1.2-0.1,2.2,0.9,2.3,1.6l1,0.2l0.8,7.8l-4.3,18.4c5.2-0.9,9.8,1,9.8,1l-1.5-16.9l2.6-6.4l-0.4-4.4l1.4,0.6L-14,92.6z M-29.5,82.8
	c0.1-0.2,0.3-0.3,0.5-0.4c1-0.3,1.9-0.1,2.5,0l0.2,2.2c-0.6,0.4-1.5,0.7-3,0.2C-29.5,84.4-29.8,83.4-29.5,82.8z M-27.8,87.9
	c-0.2-0.2-0.4-0.5-0.6-0.9c-0.7-0.9-0.9-1.2-0.9-1.5c0.6,0.3,1.9,0.7,3.1,0.3l0.1,1.1C-26.6,87.2-27.2,87.5-27.8,87.9z"/>
</svg>
