<?xml version="1.0" encoding="utf-8"?>
<!-- Generator: Adobe Illustrator 19.1.0, SVG Export Plug-In . SVG Version: 6.00 Build 0)  -->
<svg version="1.1" id="Layer_1" xmlns="http://www.w3.org/2000/svg" xmlns:xlink="http://www.w3.org/1999/xlink" x="0px" y="0px"
	 viewBox="-20 20.7 99.2 100" style="enable-background:new -20 20.7 99.2 100;" xml:space="preserve">
<style type="text/css">
	.st0{fill:#EE2A24;}
</style>
<polygon class="st0" points="62.7,65.3 62,62.1 78.4,58.4 79.2,61.5 "/>
<rect x="60.8" y="36.6" transform="matrix(-0.6231 -0.7821 0.7821 -0.6231 66.1991 121.8557)" class="st0" width="3.2" height="16.8"/>
<polygon class="st0" points="53,26.4 50,25 42.7,40.2 45.6,41.6 "/>
<rect x="28" y="20.7" class="st0" width="3.2" height="16.8"/>
<polygon class="st0" points="16.4,40.2 9.1,25 6.2,26.4 13.5,41.6 "/>
<rect x="-11.7" y="43.4" transform="matrix(-0.7817 -0.6237 0.6237 -0.7817 -33.9475 78.0814)" class="st0" width="16.8" height="3.2"/>
<polygon class="st0" points="-2.9,62.1 -19.3,58.4 -20,61.5 -3.6,65.3 "/>
<path class="st0" d="M19.3,112.5l21.7-3.9c0-0.3,0-0.5,0-0.8v-2.1l-22.8,4.1C18.5,110.8,18.8,111.7,19.3,112.5z"/>
<polygon class="st0" points="18.1,107.7 41.1,103.6 41.1,100.7 18.1,104.8 "/>
<path class="st0" d="M40.6,110.8l-19.9,3.6c0.7,0.7,1.4,1.3,2.3,1.8v4.5h13.3v-4.5C38.3,115,39.8,113.1,40.6,110.8z"/>
<path class="st0" d="M55.5,71.2c0-14.3-11.6-25.9-26-25.9c-14.3,0-25.9,11.6-25.9,25.9c0,10.2,5.9,19,14.5,23.3v8.2l23-4.1v-4.1
	C49.6,90.2,55.5,81.4,55.5,71.2z"/>
</svg>
