<?xml version="1.0" encoding="utf-8"?>
<!-- Generator: Adobe Illustrator 19.1.0, SVG Export Plug-In . SVG Version: 6.00 Build 0)  -->
<svg version="1.1" id="Layer_1" xmlns="http://www.w3.org/2000/svg" xmlns:xlink="http://www.w3.org/1999/xlink" x="0px" y="0px"
	 viewBox="-20 20.4 100 100.3" style="enable-background:new -20 20.4 100 100.3;" xml:space="preserve">
<style type="text/css">
	.st0{fill:#EE2A24;}
</style>
<path class="st0" d="M65.5,95.1c5.3,0,10.7,4.1,12.1,9.2l2.1,7.3c1.4,5-1.7,9.2-7,9.1l-85.3,0c-5.3,0-8.4-4.1-7.1-9.2l2-7.1
	c1.4-5.1,6.8-9.2,12-9.2H65.5z"/>
<path class="st0" d="M73.8,20.4h-87.6c-2.2,0-4,1.8-4,4v61c0,2.2,1.8,4,4,4h87.6c2.2,0,4-1.8,4-4v-61C77.8,22.2,76,20.4,73.8,20.4z
	 M69.8,81.4H-9.8v-53h79.6C69.8,28.4,69.8,81.4,69.8,81.4z"/>
</svg>
