<?xml version="1.0" encoding="utf-8"?>
<!-- Generator: Adobe Illustrator 19.1.0, SVG Export Plug-In . SVG Version: 6.00 Build 0)  -->
<svg version="1.1" id="Layer_1" xmlns="http://www.w3.org/2000/svg" xmlns:xlink="http://www.w3.org/1999/xlink" x="0px" y="0px"
	 viewBox="-20 20.7 100 100" style="enable-background:new -20 20.7 100 100;" xml:space="preserve">
<style type="text/css">
	.st0{fill:#EE2A24;}
</style>
<path class="st0" d="M4.6,53l-8.9-6.2C2.7,36.6,13.9,30.2,26,29.1v-8.3l23.5,13.6L26,47.9V40C17.4,41.1,9.6,45.8,4.6,53z"/>
<path class="st0" d="M-0.8,74.7h7.9L-6.4,51.2L-20,74.7h8.3C-10.5,86.9-4.1,98,6,105.1l6.2-8.9C5,91.1,0.4,83.3-0.8,74.7z"/>
<path class="st0" d="M34,101.5v-7.9l-23.5,13.6L34,120.7v-8.3c12.1-1.2,23.3-7.5,30.4-17.6l-8.9-6.3C50.4,95.7,42.6,100.4,34,101.5z
	"/>
<path class="st0" d="M71.7,66.8C70.5,54.6,64.1,43.5,54,36.4l-6.3,8.9c7.2,5,11.9,12.9,13,21.5h-7.9l13.6,23.5L80,66.8H71.7z"/>
</svg>
