<?xml version="1.0" encoding="utf-8"?>
<!-- Generator: Adobe Illustrator 19.1.0, SVG Export Plug-In . SVG Version: 6.00 Build 0)  -->
<svg version="1.1" id="Layer_1" xmlns="http://www.w3.org/2000/svg" xmlns:xlink="http://www.w3.org/1999/xlink" x="0px" y="0px"
	 viewBox="-20 38.9 100 64.8" style="enable-background:new -20 38.9 100 64.8;" xml:space="preserve">
<style type="text/css">
	.st0{fill:#EE2A24;}
</style>
<path class="st0" d="M4.9,50.3c0,6.3-5.1,11.4-11.4,11.4c-6.3,0-11.5-5.1-11.5-11.4c0-6.3,5.1-11.4,11.5-11.4
	C-0.2,38.9,4.9,44,4.9,50.3z"/>
<path class="st0" d="M55.1,50.3c0,6.3,5.1,11.4,11.4,11.4c6.3,0,11.5-5.1,11.5-11.4c0-6.3-5.1-11.4-11.5-11.4
	C60.2,38.9,55.1,44,55.1,50.3z"/>
<path class="st0" d="M23.7,89.7c-0.3-2.4,0.7-4.7,2.3-6.3c-9.7-1.8-13.7-6.6-17.1-10.8c-1.7-2.1-3.3-4.1-5.4-5.5
	c-0.1,0-0.1,0-0.2-0.1c-1.8-1.5-4.1-2.4-6.6-2.4h-6.2c-5.7,0-10.4,4.7-10.4,10.4v28.9H7V85.1c3.9,3.5,9.5,6.7,18.1,8.2
	C24.4,92.2,23.8,91,23.7,89.7z"/>
<path class="st0" d="M69.6,64.5h-6.2c-2.5,0-4.8,1-6.6,2.4C56.7,67,56.6,67,56.6,67c-2.1,1.4-3.7,3.4-5.4,5.5
	c-3.8,4.7-8.1,10-20.1,11.4c-2.7,0.3-4.7,2.8-4.4,5.5c0.3,2.5,2.4,4.4,4.9,4.4c0.2,0,0.4,0,0.6,0C42.4,92.6,48.7,89,53,85.1v18.6h27
	V74.9C80,69.1,75.3,64.5,69.6,64.5z"/>
</svg>
