<?xml version="1.0" encoding="utf-8"?>
<!-- Generator: Adobe Illustrator 19.1.0, SVG Export Plug-In . SVG Version: 6.00 Build 0)  -->
<svg version="1.1" id="Layer_1" xmlns="http://www.w3.org/2000/svg" xmlns:xlink="http://www.w3.org/1999/xlink" x="0px" y="0px"
	 viewBox="-20 22.1 100 98.6" style="enable-background:new -20 22.1 100 98.6;" xml:space="preserve">
<style type="text/css">
	.st0{fill:#EE2A24;}
</style>
<path class="st0" d="M49.5,33.3v22.3c0,6.2-5,11.2-11.2,11.2H12.8L-1.6,81.1V66.8h-7.3c-6.1,0-11.2-5-11.2-11.2V33.3
	c0-6.2,5-11.2,11.2-11.2h47.2C44.5,22.1,49.5,27.1,49.5,33.3z"/>
<path class="st0" d="M68.8,74.7H37c-6.1,0-11.2,5-11.2,11.2v12.5c0,6.2,5,11.2,11.2,11.2h17.3l11.2,11.2v-11.2h3.3
	c6.1,0,11.2-5,11.2-11.2V85.8C80,79.7,75,74.7,68.8,74.7z"/>
</svg>
