<?xml version="1.0" encoding="utf-8"?>
<!-- Generator: Adobe Illustrator 19.1.0, SVG Export Plug-In . SVG Version: 6.00 Build 0)  -->
<svg version="1.1" id="Layer_1" xmlns="http://www.w3.org/2000/svg" xmlns:xlink="http://www.w3.org/1999/xlink" x="0px" y="0px"
	 viewBox="-34 20.7 72.1 100" style="enable-background:new -34 20.7 72.1 100;" xml:space="preserve">
<style type="text/css">
	.st0{fill:#EE2A24;}
</style>
<path class="st0" d="M8.8,88.9c0,3.7-3,6.7-6.7,6.7c-3.7,0-6.7-3-6.7-6.7c0-3.7,3-6.7,6.7-6.7C5.7,82.2,8.8,85.2,8.8,88.9z"/>
<path class="st0" d="M11.7,106.6c0-5.3-4.3-9.6-9.6-9.6c-5.3,0-9.6,4.3-9.6,9.6l0,0v14.1h19.2V106.6L11.7,106.6z"/>
<path class="st0" d="M28.5,82.2c-3.7,0-6.7,3-6.7,6.7c0,3.7,3,6.7,6.7,6.7c3.7,0,6.7-3,6.7-6.7C35.2,85.2,32.2,82.2,28.5,82.2z"/>
<path class="st0" d="M38.1,106.6c0-5.3-4.3-9.6-9.6-9.6c-5.3,0-9.6,4.3-9.6,9.6l0,0v14.1h19.2L38.1,106.6L38.1,106.6z"/>
<path class="st0" d="M-24.4,82.2c-3.7,0-6.7,3-6.7,6.7c0,3.7,3,6.7,6.7,6.7c3.7,0,6.7-3,6.7-6.7C-17.7,85.2-20.7,82.2-24.4,82.2z"/>
<path class="st0" d="M-14.8,106.6c0-5.3-4.3-9.6-9.6-9.6c-5.3,0-9.6,4.3-9.6,9.6l0,0v14.1h19.2V106.6L-14.8,106.6z"/>
<path class="st0" d="M2,20.7c-4.3,0-7.8,3.5-7.8,7.8s3.5,7.8,7.8,7.8c4.3,0,7.8-3.5,7.8-7.8S6.3,20.7,2,20.7z"/>
<path class="st0" d="M13.1,48.6c0-6.1-5-11.1-11.1-11.1c-6.1,0-11.1,5-11.1,11.1l0,0v16.3h22.2V48.6L13.1,48.6z"/>
<polygon class="st0" points="2.6,73 2.6,68.2 1.4,68.2 1.4,73 -25,73 -25,80 -23.8,80 -23.8,74.2 1.4,74.2 1.4,80 2.6,80 2.6,74.2 
	27.8,74.2 27.8,80 29,80 29,73 "/>
</svg>
