<?xml version="1.0" encoding="utf-8"?>
<!-- Generator: Adobe Illustrator 19.1.0, SVG Export Plug-In . SVG Version: 6.00 Build 0)  -->
<svg version="1.1" id="Layer_1" xmlns="http://www.w3.org/2000/svg" xmlns:xlink="http://www.w3.org/1999/xlink" x="0px" y="0px"
	 viewBox="-38 20.7 64.8 100" style="enable-background:new -38 20.7 64.8 100;" xml:space="preserve">
<style type="text/css">
	.st0{fill:#EE2A24;}
</style>
<path class="st0" d="M21.1,69.9c-3.8-3.9-11.1-7-21.7-9.4V38.6c4.3,1.6,6.9,4.5,8,8.9l16.8-1.8c-1.2-5.6-3.8-10-8-13.4
	C12,29,6.4,27-0.6,26.3v-5.5h-9.6v5.5c-7.6,0.6-13.7,3-18.3,7.2c-4.6,4.2-6.9,9.3-6.9,15.4c0,6,2,11.2,6.1,15.4
	c4.1,4.2,10.4,7.4,19.1,9.5v23.4c-2.4-1-4.6-2.5-6.5-4.7c-1.9-2.2-3.3-4.7-4-7.7L-38,86.3c1.3,7.3,4.4,13,9.1,17
	c4.8,4,11,6.4,18.6,7.2v10.2h9.6v-10.5c8.6-1,15.4-3.9,20.2-8.5c4.8-4.6,7.3-10.3,7.3-17.1C26.8,78.7,24.9,73.7,21.1,69.9z
	 M-10.2,57.8c-2.9-1-5-2.4-6.4-4.1c-1.4-1.7-2.1-3.5-2.1-5.5c0-2.2,0.8-4.1,2.3-5.9c1.5-1.8,3.6-3.1,6.2-3.8L-10.2,57.8L-10.2,57.8z
	 M7.5,94c-2.1,2.1-4.8,3.4-8.1,3.9V76.1c4,1,6.8,2.3,8.6,4.2c1.7,1.8,2.6,4,2.6,6.5C10.6,89.5,9.5,92,7.5,94z"/>
</svg>
