<?xml version="1.0" encoding="utf-8"?>
<!-- Generator: Adobe Illustrator 19.1.0, SVG Export Plug-In . SVG Version: 6.00 Build 0)  -->
<svg version="1.1" id="Layer_1" xmlns="http://www.w3.org/2000/svg" xmlns:xlink="http://www.w3.org/1999/xlink" x="0px" y="0px"
	 viewBox="-20 23.1 100 95.6" style="enable-background:new -20 23.1 100 95.6;" xml:space="preserve">
<style type="text/css">
	.st0{fill:#EE2A24;}
</style>
<path class="st0" d="M13.7,81.7c0.3,1.2,0.6,2.4,1,3.5H-20V23.1h3.5v58.6H13.7z"/>
<path class="st0" d="M27.5,52.6l4.8-11.3l5.1,2.2l-1.9-15.4l-12.4,9.4l5.1,2.1l-5.6,13.2L14.9,44L7,59.1l-8-7.8l-9.1,20.8l4.1,1.8
	L0.5,59l7.7,7.4l7.7-14.7l4.9,5.7C22.8,55.6,25,53.9,27.5,52.6z"/>
<path class="st0" d="M79.5,109L63.6,91.5c-0.6-0.7-1.6-0.7-2.4-0.3c-2.1,3.1-4.8,5.6-8,7.5c-0.1,0.6-0.1,1.3,0.4,1.8l15.9,17.5
	c0.8,0.8,2.1,0.9,2.9,0.1l6.9-6.3C80.2,111.2,80.2,109.9,79.5,109z"/>
<path class="st0" d="M46.9,54.6c-12-4.1-25,2.2-29.2,14.2c-0.9,2.5-1.3,5-1.3,7.5c0,9.5,5.9,18.4,15.4,21.7c12,4.1,25-2.2,29.1-14.2
	c0.8-2.5,1.3-5,1.3-7.5C62.4,66.7,56.4,57.8,46.9,54.6z M55.2,81.7c-1.5,4.2-4.5,7.6-8.5,9.6c-4,2-8.6,2.2-12.8,0.8
	c-6.7-2.3-11.3-8.7-11.3-15.8c0-1.8,0.3-3.7,0.9-5.5c1.4-4.2,4.5-7.6,8.5-9.6c4-1.9,8.6-2.2,12.8-0.8c6.7,2.3,11.3,8.7,11.3,15.8
	C56.2,78.1,55.9,79.9,55.2,81.7z"/>
</svg>
