<?xml version="1.0" encoding="utf-8"?>
<!-- Generator: Adobe Illustrator 19.1.0, SVG Export Plug-In . SVG Version: 6.00 Build 0)  -->
<svg version="1.1" id="Layer_1" xmlns="http://www.w3.org/2000/svg" xmlns:xlink="http://www.w3.org/1999/xlink" x="0px" y="0px"
	 viewBox="-28 20.7 83.8 100" style="enable-background:new -28 20.7 83.8 100;" xml:space="preserve">
<style type="text/css">
	.st0{fill:#EE2A24;}
</style>
<g>
	<path class="st0" d="M-7.1,20.7v18h-18v68.5l-2.2,2c-0.9,0.8-1,2.3-0.2,3.2l2.4,2.6v4.5h4.1l0.4,0.4c0.8,0.9,2.3,1,3.2,0.2l0.6-0.6
		h54.6v-18h18V20.7H-7.1z M-13.1,116.3l14.9-13.5c0.9-0.8,1-2.3,0.2-3.2L-4.9,92c-0.8-0.9-2.3-1-3.2-0.2l-13.6,12.4V42h56.3v15.3
		c0,0,0,0,0,0c-4.4-3.7-9.9-6-16.1-6C4.6,51.3-6.6,62.6-6.6,76.4c0,13.8,11.2,25.1,25.1,25.1c6.2,0,11.7-2.3,16.1-6v20.8
		C34.6,116.3-13.1,116.3-13.1,116.3z M18.5,94.7c-10.1,0-18.3-8.2-18.3-18.3c0-10.1,8.2-18.3,18.3-18.3c10.1,0,18.3,8.2,18.3,18.3
		C36.8,86.5,28.6,94.7,18.5,94.7z M52.5,98.3H37.9v-6.2c0,0,0,0,0,0c3.5-4.3,5.7-9.8,5.7-15.8c0-6-2.2-11.4-5.7-15.7v-22H-3.8V24
		h56.3C52.5,24,52.5,98.3,52.5,98.3z"/>
</g>
</svg>
