<?xml version="1.0" encoding="utf-8"?>
<!-- Generator: Adobe Illustrator 19.1.0, SVG Export Plug-In . SVG Version: 6.00 Build 0)  -->
<svg version="1.1" id="Layer_1" xmlns="http://www.w3.org/2000/svg" xmlns:xlink="http://www.w3.org/1999/xlink" x="0px" y="0px"
	 viewBox="-20 40.8 100 59.9" style="enable-background:new -20 40.8 100 59.9;" xml:space="preserve">
<style type="text/css">
	.st0{fill:#EE2A24;}
</style>
<path class="st0" d="M69.9,54.1c0,6-4.8,10.8-10.8,10.8c-6,0-10.8-4.8-10.8-10.8s4.8-10.8,10.8-10.8C65,43.3,69.9,48.1,69.9,54.1z"
	/>
<path class="st0" d="M60.1,67.4h-1h-1c-10.1,0-14.2,3.3-16.8,8.7c-0.8,1.6-2.1,14.6-3.1,24.6h7.4l1.6-16.7l0.5,16.7h22.8L71,84.1
	l1.6,16.7H80c-0.9-10-2.3-23-3.1-24.6C74.3,70.7,70.2,67.4,60.1,67.4z"/>
<path class="st0" d="M3.6,53.1c0.1-0.5,0.1-1,0.2-1.5h20.5c0.3,1,0.6,2.1,0.6,3.3c0,6-4.8,10.8-10.8,10.8c-4.8,0-8.8-3.2-10.3-7.5
	C5,56.6,4.9,54.5,3.6,53.1z"/>
<polygon class="st0" points="-3.5,100.7 1.8,100.7 1.6,94.9 "/>
<path class="st0" d="M32,76.9c-2.7-5.4-6.8-8.7-16.8-8.7h-1.1h-1c-3.8,0-6.7,0.5-9.1,1.3c0,0-0.1,0-0.1,0l-11.6,1.6L3.1,57.8v0
	c1.1-1.4,0.9-3.4-0.5-4.5c-1.4-1.1-3.4-0.9-4.5,0.5l-16,19.7c-0.1,0.2-0.3,0.4-0.4,0.6l-1.1,1.4c-0.8,0.9-0.9,2.3-0.4,3.4
	c0.5,1.1,1.6,1.8,2.8,1.8l18.5,0.2c0.4,1.9,0.5,4,0.5,4l0.5,15.9h22.9l0.5-15.9l1.5,15.9H35C34.1,90.8,32.8,78.5,32,76.9z
	 M9.2,100.6H4l17.3-30.9c1.7,0.3,3.1,0.9,4.4,1.5L9.2,100.6z"/>
<polygon class="st0" points="22.5,40.8 5.7,40.8 3.8,49.9 24.4,49.9 "/>
<path class="st0" d="M35.1,65.6l-0.4-0.4l5.1-5.2l0.4,0.4l2.3-2.3l-1.2-1.2L39,59.2l0.2,0.2L34,64.5l-1.1-1.1l-1.7-1.7l-0.8,0.8
	l1.7,1.7l-4.9,4.9l-0.8-0.3l-0.5,0.5c1.4,0.7,2.6,1.6,3.7,2.7L35.1,65.6z"/>
</svg>
