<?xml version="1.0" encoding="utf-8"?>
<!-- Generator: Adobe Illustrator 19.1.0, SVG Export Plug-In . SVG Version: 6.00 Build 0)  -->
<svg version="1.1" id="Layer_1" xmlns="http://www.w3.org/2000/svg" xmlns:xlink="http://www.w3.org/1999/xlink" x="0px" y="0px"
	 viewBox="-21 20.7 97.2 100" style="enable-background:new -21 20.7 97.2 100;" xml:space="preserve">
<style type="text/css">
	.st0{fill:#EE2A24;}
</style>
<path class="st0" d="M75.2,36.9L62.7,24.3c-1.7-1.7-5.1-1.1-7.6,1.3L43.7,37.1L28,20.7h-49v100h77V62.2l17.8-17.7
	C76.3,42,76.9,38.6,75.2,36.9z M29.3,33.8l8.7,9l-4.7,4.7h-3.9V33.8z M31.1,82.2l-17.2,7l-3.7-3.7l7-17.2L31.1,82.2z M47.9,112.6
	h-60.8V28.8h36.1v24.7h3.9l-4.6,4.6H-4.2v4.1h22.7l-3.7,3.6L11,75H-4.2v4.1H9.4L4.1,91.8h-8.4v4.1h43.5v-4.1H15.8l17.7-7.2l5.6-5.6
	h0.2v-0.2l8.6-8.6L47.9,112.6L47.9,112.6z"/>
</svg>
