<?xml version="1.0" encoding="utf-8"?>
<!-- Generator: Adobe Illustrator 19.1.0, SVG Export Plug-In . SVG Version: 6.00 Build 0)  -->
<svg version="1.1" id="Layer_1" xmlns="http://www.w3.org/2000/svg" xmlns:xlink="http://www.w3.org/1999/xlink" x="0px" y="0px"
	 viewBox="-25 20.7 89.4 100" style="enable-background:new -25 20.7 89.4 100;" xml:space="preserve">
<style type="text/css">
	.st0{fill:#EE2A24;}
</style>
<path class="st0" d="M24.2,47.7c0.9,0.9,0.9,2.3,0,3.2l-14,14c-0.9,0.9-2.3,0.9-3.2,0c-0.9-0.9-0.9-2.3,0-3.2l14-14
	C21.9,46.8,23.3,46.8,24.2,47.7z"/>
<path class="st0" d="M30.9,88.7c0.9,0.9,2.3,0.9,3.2,0l14-14c0.9-0.9,0.9-2.3,0-3.2c-0.9-0.9-2.3-0.9-3.2,0l-14,14
	C30,86.4,30,87.8,30.9,88.7z"/>
<path class="st0" d="M37.9,20.7H-8.2v73.9L-25,110.3l10.4,10.4l6.4-6.9v1.1h72.6V48.2L37.9,20.7z M39.2,33L51.6,46H39.2V33z
	 M56.7,107.3H-0.6v-1.6l24.8-26.5l5.1,5.1L43.7,70l-18-18L11.4,66.4l5.1,5.1l-17.1,16V28.4h34v23.3h23.3V107.3z"/>
</svg>
