<?xml version="1.0" encoding="utf-8"?>
<!-- Generator: Adobe Illustrator 19.1.0, SVG Export Plug-In . SVG Version: 6.00 Build 0)  -->
<svg version="1.1" id="Layer_1" xmlns="http://www.w3.org/2000/svg" xmlns:xlink="http://www.w3.org/1999/xlink" x="0px" y="0px"
	 viewBox="-35 20.7 70.4 100" style="enable-background:new -35 20.7 70.4 100;" xml:space="preserve">
<style type="text/css">
	.st0{fill:#EE2A24;}
</style>
<polygon class="st0" points="-4.1,94.7 14.4,79.4 19.9,85 -4.2,109 -18.5,94.8 -10.9,87.2 "/>
<polygon class="st0" points="14.4,52.2 8.7,46.5 -1.7,56.8 -12,46.5 -17.8,52.2 -7.5,62.6 -17.8,73 -12,78.7 -1.7,68.4 8.7,78.7 
	14.4,73 4.1,62.6 "/>
<path class="st0" d="M21,30.3V28H9.5c-1-4.2-4.8-7.3-9.3-7.3c-4.5,0-8.2,3.1-9.3,7.3h-11.6v2.3H-35v90.4h70.4V30.3H21z M0.2,25.4
	c1.9,0,3.5,1.1,4.3,2.7h-8.7C-3.3,26.5-1.7,25.4,0.2,25.4z M27.6,113.3h-54.9V37.8h6.6v4.6H21v-4.6h6.6V113.3z"/>
</svg>
