<?xml version="1.0" encoding="utf-8"?>
<!-- Generator: Adobe Illustrator 19.1.0, SVG Export Plug-In . SVG Version: 6.00 Build 0)  -->
<svg version="1.1" id="Layer_1" xmlns="http://www.w3.org/2000/svg" xmlns:xlink="http://www.w3.org/1999/xlink" x="0px" y="0px"
	 viewBox="-44 20.7 52.7 100" style="enable-background:new -44 20.7 52.7 100;" xml:space="preserve">
<style type="text/css">
	.st0{fill:#EE2A24;}
</style>
<path class="st0" d="M1.3,84.6v5.5c0,9.4-6.8,17.1-15.8,18.7v5.5h4.8v6.5h-16.1v-6.5h4.8v-5.5c-8.9-1.5-15.8-9.3-15.8-18.7v-5.5
	c0-1.8,1.4-3.2,3.2-3.2c1.8,0,3.2,1.4,3.2,3.2v5.5c0,6.9,5.6,12.5,12.5,12.5c6.9,0,12.6-5.6,12.6-12.5v-5.5c0-1.8,1.4-3.2,3.2-3.2
	C-0.1,81.4,1.3,82.8,1.3,84.6z"/>
<path class="st0" d="M-17.7,56.6c-5.3,0-9.7,4.3-9.7,9.7v22.2c0,5.3,4.3,9.7,9.7,9.7c5.3,0,9.7-4.3,9.7-9.7V66.3
	C-8,61-12.3,56.6-17.7,56.6z"/>
<path class="st0" d="M-5.7,50.7c0-0.3-0.1-0.6-0.2-0.9c-2-4.8-6.6-7.9-11.7-7.9h-0.2c-5.1,0-9.8,3-11.8,7.7c-0.5,1.2,0,2.5,1.2,3
	c1.2,0.5,2.5,0,3-1.2c1.3-3,4.3-5,7.6-4.9h0.2c3.3,0,6.2,2,7.5,5.1c0.5,1.2,1.8,1.7,3,1.2C-6.3,52.5-5.7,51.6-5.7,50.7z"/>
<path class="st0" d="M-0.5,43.9c0.7-0.4,1.1-1.2,1.1-1.9c0-0.4-0.1-0.8-0.4-1.2c-3.8-6.2-10.4-9.9-17.7-9.9h-0.2
	c-7.3-0.1-13.9,3.6-17.9,9.7c-0.7,1.1-0.4,2.5,0.7,3.2c1.1,0.7,2.5,0.4,3.2-0.7c3.1-4.8,8.3-7.6,14-7.6h0.2c5.7,0,10.9,2.9,13.9,7.8
	C-3,44.3-1.6,44.6-0.5,43.9z"/>
<path class="st0" d="M8.3,35.5C2.9,26.3-6.8,20.8-17.4,20.7h-0.2c-10.7-0.1-20.4,5.3-26,14.4c-0.7,1.1-0.3,2.5,0.8,3.2
	c1.1,0.7,2.5,0.3,3.2-0.8c4.8-7.7,13-12.3,22.1-12.3h0.2c9.1,0.1,17.3,4.8,21.9,12.6c0.7,1.1,2.1,1.5,3.1,0.8c0.7-0.4,1.1-1.2,1.1-2
	C8.7,36.3,8.6,35.9,8.3,35.5z"/>
</svg>
