<?xml version="1.0" encoding="utf-8"?>
<!-- Generator: Adobe Illustrator 19.1.0, SVG Export Plug-In . SVG Version: 6.00 Build 0)  -->
<svg version="1.1" id="Layer_1" xmlns="http://www.w3.org/2000/svg" xmlns:xlink="http://www.w3.org/1999/xlink" x="0px" y="0px"
	 viewBox="-20 29.3 100 82.4" style="enable-background:new -20 29.3 100 82.4;" xml:space="preserve">
<style type="text/css">
	.st0{fill:#EE2A24;}
</style>
<path class="st0" d="M70.7,56.4c-3.1,0-5.7,2.5-5.7,5.7c0,3.1,2.5,5.7,5.7,5.7c3.1,0,5.7-2.5,5.7-5.7C76.4,59,73.8,56.4,70.7,56.4z"
	/>
<path class="st0" d="M-10.7,56.4c-3.1,0-5.7,2.5-5.7,5.7c0,3.1,2.5,5.7,5.7,5.7c3.1,0,5.7-2.5,5.7-5.7C-5,59-7.6,56.4-10.7,56.4z"/>
<path class="st0" d="M53.9,46.1c-4.6,0-8.4,3.8-8.4,8.4c0,4.6,3.8,8.4,8.4,8.4c4.6,0,8.4-3.8,8.4-8.4C62.3,49.9,58.5,46.1,53.9,46.1
	z"/>
<path class="st0" d="M80,97.4h-9.6V79.7c0-3-0.9-5.9-2.3-8.3c0.8-0.2,1.7-0.4,2.6-0.4c5.1,0,9.3,4.2,9.3,9.3V97.4z"/>
<path class="st0" d="M6.1,46.1c-4.6,0-8.4,3.8-8.4,8.4c0,4.6,3.8,8.4,8.4,8.4c4.6,0,8.4-3.8,8.4-8.4C14.6,49.9,10.8,46.1,6.1,46.1z"
	/>
<path class="st0" d="M-10.7,71c0.9,0,1.8,0.2,2.6,0.4c-1.4,2.5-2.3,5.3-2.3,8.3v17.7H-20V80.3C-20,75.2-15.8,71-10.7,71z"/>
<path class="st0" d="M30,29.3c-6.9,0-12.5,5.6-12.5,12.5c0,6.9,5.6,12.5,12.5,12.5s12.5-5.6,12.5-12.5C42.5,34.9,36.9,29.3,30,29.3z
	"/>
<path class="st0" d="M67.3,103.9H52.6V77.1c0-3.7-1-7.1-2.6-10.2c1.2-0.4,2.5-0.6,3.8-0.6c7.4,0,13.5,6,13.5,13.5V103.9z"/>
<path class="st0" d="M7.4,77.1V104H-7.3V79.7c0-7.4,6-13.5,13.5-13.5c1.3,0,2.6,0.3,3.8,0.6C8.4,69.9,7.4,73.4,7.4,77.1z"/>
<path class="st0" d="M10.5,111.7h39.1V77.1c0-10.8-8.8-19.5-19.5-19.5c-10.8,0-19.5,8.8-19.5,19.5V111.7z"/>
</svg>
