<?xml version="1.0" encoding="utf-8"?>
<!-- Generator: Adobe Illustrator 19.1.0, SVG Export Plug-In . SVG Version: 6.00 Build 0)  -->
<svg version="1.1" id="Layer_1" xmlns="http://www.w3.org/2000/svg" xmlns:xlink="http://www.w3.org/1999/xlink" x="0px" y="0px"
	 viewBox="-20 39 100 64.7" style="enable-background:new -20 39 100 64.7;" xml:space="preserve">
<style type="text/css">
	.st0{fill:#EE2A24;}
</style>
<g>
	<path class="st0" d="M13.9,69.3c-9.9-4.1-18.7-4.5-26.7-1.2l-0.5-1.2c8.4-3.5,17.4-3.1,27.7,1.2L13.9,69.3z"/>
</g>
<g>
	<path class="st0" d="M14.4,76C4.1,71.8-5,71.4-13.3,74.9l0.5,1.2c8-3.3,16.8-2.9,26.7,1.2L14.4,76z"/>
</g>
<g>
	<path class="st0" d="M14.4,60.1C4.1,55.9-5,55.5-13.3,58.9l0.5,1.2c8-3.3,16.8-3,26.7,1.2L14.4,60.1z"/>
</g>
<path class="st0" d="M58.6,75.8v22c-18.5-11.7-34.4-1-34.4,0.8v-39c0-6.9,9.2-10.7,20.4-10.7c3.1,0,6,0.5,8.7,1.2l3.8-3.8
	c-18.9-5.8-33.4,2.8-35.4,4.6C18.9,48.3,2.5,38.8-20,48.5c0,0.1,0,2.8,0,7V102h34.1c1.2,1,3.9,1.7,7.2,1.7c3.2,0,6-0.7,7.2-1.7h34.1
	V71.8L58.6,75.8z M18.7,98.7c0-1.8-16-12.5-34.4-0.8V52.5c3.6-2.1,8.6-3.4,14-3.4c11.3,0,20.4,3.7,20.4,10.7V98.7z"/>
<path class="st0" d="M26.8,68.1l0.5,1.2c3.9-1.6,8-2.5,11.9-3l0.6-1.4C35.5,65.4,31.1,66.3,26.8,68.1z"/>
<path class="st0" d="M26.8,76l0.5,1.2c2.8-1.2,5.7-1.9,8.5-2.5l0.6-1.4C33.2,73.9,29.9,74.7,26.8,76z"/>
<path class="st0" d="M26.8,60.1l0.5,1.2c6-2.5,12.3-3.5,18.2-3.2l1.2-1.2C40.3,56.4,33.4,57.4,26.8,60.1z"/>
<path class="st0" d="M79.4,47.1l-7.5-7.5c-1-1-3.1-0.7-4.6,0.8L43.1,64.7l-2.6,6.2c-0.6,1.4-1.4,3.4-2.1,5.2c-0.2,0.5-0.4,1-0.6,1.4
	l-1.2,2.9c-0.7,1.8,0.1,2.7,1.9,2l3-1.2c0.4-0.2,0.9-0.4,1.4-0.6c1.7-0.7,3.7-1.5,5.2-2.1l6.2-2.5l24.2-24.2
	C80.1,50.2,80.4,48.2,79.4,47.1z M47.4,76.6l-3.9,1.6l-2.6-2.6l0.8-1.9l0.8-2l1.4-3.4l7,7L47.4,76.6z"/>
</svg>
