<?xml version="1.0" encoding="utf-8"?>
<!-- Generator: Adobe Illustrator 19.1.0, SVG Export Plug-In . SVG Version: 6.00 Build 0)  -->
<svg version="1.1" id="Layer_1" xmlns="http://www.w3.org/2000/svg" xmlns:xlink="http://www.w3.org/1999/xlink" x="0px" y="0px"
	 viewBox="-20 20.7 100 100" style="enable-background:new -20 20.7 100 100;" xml:space="preserve">
<style type="text/css">
	.st0{fill:#EE2A24;}
</style>
<path class="st0" d="M80,20.7l-100,0l0,100l100,0L80,20.7z M73.5,114.3H52.2V92.9l21.3,0L73.5,114.3z M-13.4,27H7.9v21.4H-2.7h-10.7
	L-13.4,27z M8.5,70.9H18L8.5,90C8.5,90,8.5,70.9,8.5,70.9z M8.5,70.4l0-10.7V49l21.3,0v3.3c-0.3,0-0.5-0.2-0.8-0.1
	c-1,0.1-2,0.7-2.4,1.7l-8.3,16.6H8.5z M30.3,61.7l6.5,8.7h-6.5L30.3,61.7z M51.6,70.9v4.9l-1,2.8l-5.8-7.7
	C44.8,70.9,51.6,70.9,51.6,70.9z M51.6,49v21.4h-7.2l-12.8-17c-0.4-0.5-0.8-0.8-1.4-1V49H41C41,49,51.6,49,51.6,49z M29.7,61
	L29.7,61l0,9.4H25L29.7,61z M37.2,70.9l11.8,15.8c0.6,0.8,1.6,1.2,2.6,1.1v4.5l-21.3,0V70.9H37.2z M52.2,70.9h1.3l-1.3,3.5V70.9z
	 M52.2,70.4V49h9.5l-8,21.4H52.2z M52.2,48.5l0-10.7V27l17.8,0l-8,21.4H52.2z M51.6,48.5H41H30.3V27h21.3l0,10.7L51.6,48.5z
	 M29.8,48.5l-21.3,0V27l21.3,0V48.5z M7.9,49v10.7l0,10.7l-21.3,0V49h10.7H7.9z M7.9,70.9V91l-0.7,1.4h-10l-10.7,0l0-21.4L7.9,70.9z
	 M7,92.9l-2.4,4.8l-18,12V92.9L7,92.9z M7.9,102.8v0.9l0,10.7H-9.4L7.9,102.8z M24.8,70.9h5v21.4H14.1L24.8,70.9z M52.2,92.4v-4.5
	c1-0.2,1.8-0.9,2.2-1.8l5.6-15h13.5v21.4L52.2,92.4z M60.2,70.4l8-21.4h5.3v21.4H60.2z M68.4,48.5l5.1-13.5v13.5L68.4,48.5z
	 M8.5,103.6v-1.2l0.2-0.1c0.4-0.3,0.8-0.7,1-1.2l4.1-8.2h16l0,10.7l0,10.7l-21.3,0L8.5,103.6z M30.3,92.9l21.3,0v21.4H30.3l0-10.7
	L30.3,92.9z"/>
</svg>
