<?xml version="1.0" encoding="utf-8"?>
<!-- Generator: Adobe Illustrator 19.1.0, SVG Export Plug-In . SVG Version: 6.00 Build 0)  -->
<svg version="1.1" id="Layer_1" xmlns="http://www.w3.org/2000/svg" xmlns:xlink="http://www.w3.org/1999/xlink" x="0px" y="0px"
	 viewBox="-27 20.7 86.8 100" style="enable-background:new -27 20.7 86.8 100;" xml:space="preserve">
<style type="text/css">
	.st0{fill:#EE2A24;}
</style>
<path class="st0" d="M58.8,34.2L46.4,21.7c-1.7-1.7-5.1-1.1-7.6,1.3L27.5,34.3h-38.8V50H-27v70.7h55V105h15.7V55.4l13.7-13.7
	C59.9,39.3,60.5,35.9,58.8,34.2z M14.9,79.3l-17.1,6.9l-3.7-3.7l7-17.1L14.9,79.3z M-8.2,37.4h32.6L11.8,50h-20V37.4z M-23.9,117.6
	V53.1H8.7l-10,9.9l-10.6,26c-1.2,3,0.2,4.4,3.2,3.2l26-10.6l7.6-7.6v43.5H-23.9z M40.6,101.9H28V71.1l12.6-12.6V101.9z"/>
</svg>
