<?xml version="1.0" encoding="utf-8"?>
<!-- Generator: Adobe Illustrator 19.1.0, SVG Export Plug-In . SVG Version: 6.00 Build 0)  -->
<svg version="1.1" id="Layer_1" xmlns="http://www.w3.org/2000/svg" xmlns:xlink="http://www.w3.org/1999/xlink" x="0px" y="0px"
	 viewBox="-24 20.7 93 100" style="enable-background:new -24 20.7 93 100;" xml:space="preserve">
<style type="text/css">
	.st0{fill:#EE2A24;}
</style>
<path class="st0" d="M59.3,31.2L46.1,43.4H-1.2l-13.1-12.2c0,0,6.5-9.2,17.3-10.4c10.5-1.2,14.2,5.3,19.5,5.6
	c5.3-0.3,8.9-6.7,19.5-5.6C52.8,22.1,59.3,31.2,59.3,31.2z"/>
<path class="st0" d="M24.3,89.9v9.2c1.4-0.2,2.5-0.8,3.4-1.6c0.9-0.9,1.3-1.9,1.3-3.1c0-1.1-0.4-2-1.1-2.7
	C27.2,90.9,26,90.3,24.3,89.9z"/>
<path class="st0" d="M16.6,78.1c0,0.8,0.3,1.6,0.9,2.3c0.6,0.7,1.5,1.3,2.7,1.7V74c-1.1,0.3-2,0.8-2.6,1.6
	C16.9,76.3,16.6,77.2,16.6,78.1z"/>
<path class="st0" d="M49.7,51.3H-4.7c0,0-26.1,20.6-17.5,58.5c0,0,2.9,10.9,16,10.9h57.5c13.1,0,16-10.9,16-10.9
	C75.8,71.9,49.7,51.3,49.7,51.3z M32.8,100.8c-2,2-4.9,3.2-8.5,3.6v4.4h-4.1v-4.3c-3.2-0.3-5.9-1.3-7.9-3c-2-1.7-3.3-4.1-3.9-7.2
	l7.3-0.7c0.3,1.3,0.9,2.3,1.7,3.3c0.8,0.9,1.7,1.6,2.7,2v-9.9c-3.7-0.9-6.3-2.2-8.1-4c-1.7-1.8-2.6-4-2.6-6.5c0-2.6,1-4.8,2.9-6.5
	c1.9-1.8,4.5-2.8,7.7-3v-2.3h4.1v2.3c3,0.3,5.3,1.2,7.1,2.6c1.8,1.4,2.9,3.3,3.4,5.7l-7.1,0.8c-0.4-1.8-1.5-3.1-3.4-3.8v9.2
	c4.5,1,7.5,2.4,9.2,4c1.6,1.6,2.4,3.7,2.4,6.3C35.9,96.4,34.9,98.8,32.8,100.8z"/>
</svg>
