<?xml version="1.0" encoding="utf-8"?>
<!-- Generator: Adobe Illustrator 19.1.0, SVG Export Plug-In . SVG Version: 6.00 Build 0)  -->
<svg version="1.1" id="Layer_1" xmlns="http://www.w3.org/2000/svg" xmlns:xlink="http://www.w3.org/1999/xlink" x="0px" y="0px"
	 viewBox="-25 20.7 89.9 100" style="enable-background:new -25 20.7 89.9 100;" xml:space="preserve">
<style type="text/css">
	.st0{fill:#EE2A24;}
</style>
<path class="st0" d="M9.4,82.9l-4.3,7.9C4.9,91.3,4.3,92,2.9,92c-1.8,0-4.8-1.1-6.7-1.9l-0.4,0.8l-2.9-1.3l0.4-0.8
	c-2.6-1.3-5.7-3.2-6.3-4.8l-0.2-0.9l0.2-0.6l3.3-8.5c-3.4,2.1-6.3,6.8-10,14.3l-4.2,8.8c-0.3,0.8-0.7,1.6-1.1,2.4l24.9,11.5
	c0.4-0.8,0.7-1.6,1.1-2.4l4-8.8C8.3,92.1,10,86.9,9.4,82.9z M1.4,102.2l-3.1,6.7l-20.8-9.6l3.1-6.7c0.9-1.9,3.2-2.9,6.1-2.9
	c2.1,0,4.6,0.6,7.1,1.7C-0.4,94,3,98.8,1.4,102.2z"/>
<path class="st0" d="M-0.2,99.1c0.3,0.9,0.3,1.6,0,2.3l-2.4,5.1l-17.5-8.1l2.4-5.1c0.5-1.2,2.2-1.8,4.4-1.8c2,0,4.2,0.5,6.4,1.5
	C-3.6,94.5-1,96.9-0.2,99.1z"/>
<path class="st0" d="M4.5,74.6c0.6,0.3,1.3,0.4,1.9,0.5c0.1,0.6,0.1,1.3,0.1,1.9c1.8,1.1,2.9,2.1,2.7,2.5L3.5,90
	c-0.3,0.7-3.9-0.3-8.1-2.2c-4.1-1.9-7.2-4-6.9-4.7l4.3-11.2c0.2-0.4,1.6-0.2,3.6,0.5c1.3-1.3,2.9-2,4.6-2c0.1,0.6,0.3,1.2,0.7,1.8
	c-1.1-0.2-2.3,0.1-3.3,0.9c1,0.4,2.1,0.8,3.2,1.3c1.1,0.5,2.1,1,3.1,1.5C4.7,75.5,4.7,75.1,4.5,74.6C4.5,74.6,4.5,74.6,4.5,74.6z"/>
<path class="st0" d="M47.1,76.4c-0.2,1.3,0.1,3.9,0.6,5.1l14.6,31.8c0.7,1.6,1.6,3.5,0.3,5.5c-0.8,1.2-2.1,1.9-3.5,1.9l0,0
	c-2.5,0-3.6-1.9-4.5-3.4L36.7,86.9l-4.9,10c-1.1,2.3-3.4,5.6-5.2,7.5l-9.9,10.6c-1.3,1.4-2.3,2.5-4.2,2.5c-1.6,0-3-0.9-3.7-2.3
	c-1.1-2.4,0.2-4.1,1.5-5.7l9.7-12.1c1-1.3,2.4-3.9,2.9-5.5l3.6-12.6c0.5-1.9,1.1-5.2,1.3-7.1l1.6-19.4C21.6,55.4,13.9,65.7,11.2,70
	c-1.1,1.8-2,3.4-4.4,3.4h0c-1.4,0-2.8-0.8-3.5-2C2.1,69.3,3,67.7,4,65.8c0.6-1.1,15.2-26.8,34.8-25.2c8.5,0.7,11.2,7.1,13,11.3
	c0.4,1,0.8,1.9,1.3,2.8L64.3,75c1.1,1.9,0.4,4.5-1.5,5.6c-1.9,1.1-4.3,0.6-5.5-1.3L49,66L47.1,76.4z"/>
<path class="st0" d="M52,28.6c0.8,5.1-2.6,10-7.8,10.8c-5.1,0.8-10-2.6-10.8-7.8c-0.8-5.1,2.6-10,7.8-10.8
	C46.3,20,51.1,23.5,52,28.6z"/>
</svg>
