<?xml version="1.0" encoding="utf-8"?>
<!-- Generator: Adobe Illustrator 19.1.0, SVG Export Plug-In . SVG Version: 6.00 Build 0)  -->
<svg version="1.1" id="Layer_1" xmlns="http://www.w3.org/2000/svg" xmlns:xlink="http://www.w3.org/1999/xlink" x="0px" y="0px"
	 viewBox="-28 20.7 83.3 100" style="enable-background:new -28 20.7 83.3 100;" xml:space="preserve">
<style type="text/css">
	.st0{fill:#EE2A24;}
</style>
<path class="st0" d="M48,68H-9.3c-0.3-0.9-1.9-1.6-3.8-1.6s-3.5,0.7-3.8,1.6h-3.8c-4,0-7.3,3.3-7.3,7.3v38.2c0,4,3.3,7.3,7.3,7.3H48
	c4,0,7.3-3.2,7.3-7.3V75.2C55.3,71.2,52.1,68,48,68z M13.7,115.5c-12,0-21.8-9.8-21.8-21.8c0-12,9.8-21.8,21.8-21.8
	c12,0,21.8,9.8,21.8,21.8C35.5,105.8,25.7,115.5,13.7,115.5z"/>
<path class="st0" d="M31.6,93.7c0,9.9-8,17.9-17.9,17.9c-9.9,0-17.9-8-17.9-17.9c0-9.9,8-17.9,17.9-17.9
	C23.5,75.8,31.6,83.8,31.6,93.7z"/>
<path class="st0" d="M34.4,20.7H-7.1c-1,0-1.8,0.8-1.8,1.8v21.2c0,1,0.8,1.8,1.8,1.8h4.8c0,0-0.1,0.1-0.1,0.1l1.9,19.1
	c0,0.9,0.8,1.7,1.7,1.7h24.8c0.9,0,1.7-0.7,1.7-1.7l1.9-19.1c0,0-0.1-0.1-0.1-0.1h4.8c1,0,1.8-0.8,1.8-1.8V22.6
	C36.2,21.6,35.4,20.7,34.4,20.7z M33.5,42.1c0,0.9-0.7,1.6-1.5,1.6H-4.6c-0.9,0-1.5-0.7-1.5-1.6V24.2c0-0.8,0.7-1.5,1.5-1.5h36.5
	c0.9,0,1.5,0.7,1.5,1.5V42.1z"/>
</svg>
