<?xml version="1.0" encoding="utf-8"?>
<!-- Generator: Adobe Illustrator 19.1.0, SVG Export Plug-In . SVG Version: 6.00 Build 0)  -->
<svg version="1.1" id="Layer_1" xmlns="http://www.w3.org/2000/svg" xmlns:xlink="http://www.w3.org/1999/xlink" x="0px" y="0px"
	 viewBox="-20 25.8 100 91" style="enable-background:new -20 25.8 100 91;" xml:space="preserve">
<style type="text/css">
	.st0{fill:#EE2A24;}
</style>
<path class="st0" d="M-11,47.1v40.3h-6c-1.6,0-3-1.4-3-3v-52l3.9-5.1c0.7-0.9,2.1-1.6,3.2-1.6H-5c1.1,0,2.9,0,4,0h7.9
	c1.1,0,2.5,0.7,3.2,1.6l3.9,5.1h45.1c1.6,0,3,1.3,3,3v11.7H22.9L19,42c-0.7-0.9-2.1-1.6-3.2-1.6H7.9c-1.1,0-2.9,0-4,0H-4
	c-1.1,0-2.5,0.7-3.2,1.6L-11,47.1z"/>
<path class="st0" d="M77,61.8H31.9L28,56.6c-0.7-0.9-2.1-1.6-3.2-1.6h-7.9c-1.1,0-2.9,0-4,0H5c-1.1,0-2.5,0.7-3.2,1.6L-2,61.8v52
	c0,1.6,1.3,3,3,3H77c1.6,0,3-1.3,3-3v-49C80,63.1,78.7,61.8,77,61.8z"/>
</svg>
