<?xml version="1.0" encoding="utf-8"?>
<!-- Generator: Adobe Illustrator 19.1.0, SVG Export Plug-In . SVG Version: 6.00 Build 0)  -->
<svg version="1.1" id="Layer_1" xmlns="http://www.w3.org/2000/svg" xmlns:xlink="http://www.w3.org/1999/xlink" x="0px" y="0px"
	 viewBox="-20 31.7 100 79.1" style="enable-background:new -20 31.7 100 79.1;" xml:space="preserve">
<style type="text/css">
	.st0{fill:#EE2A24;}
</style>
<polygon class="st0" points="2.5,72.5 2.5,106.5 0.9,108.6 -20,110.7 -20,69.4 0.9,70.6 "/>
<path class="st0" d="M56.2,62.4l11.4,1.8h11.1c0,0,1.2-2.5,1.3-8.2c0.1-5.7-1.3-8.5-1.3-8.5H67.4l-10.5,4.3H46.2V36.6H32.5v-1
	c-0.9-3.9-6.2-4-6.9-4h0l-40,0.8c-0.2,0-5.1,0.1-5.4,6.2v1.9c0.3,6.1,5.2,6.2,5.4,6.2l40,0.8h0c0.6,0,5.9-0.1,6.9-4.2v-0.7h4.1v9.3
	h-0.9l-8.9,22.6h-2.1V104v1v3.6h35.9l3.6-4.6h9.9c0,0,3-4.2,3.2-14.5c0.2-10.2-3.2-15.1-3.2-15.1H44.4v-12H56.2z"/>
<path class="st0" d="M18.5,75.7L14,72.5H4.5v34H14l4.5-3.6h4.3V75.7H18.5z M5.8,77.8H14c0.1,0,0.3,0,0.4,0.1l4.2,2.1
	c0.4,0.2,0.6,0.7,0.4,1.2c-0.1,0.3-0.5,0.5-0.8,0.5c-0.1,0-0.3,0-0.4-0.1l-4-2h-8c-0.5,0-0.9-0.4-0.9-0.9S5.3,77.8,5.8,77.8z
	 M5.8,82.9H14c0.1,0,0.2,0,0.2,0l4.2,1.2c0.5,0.1,0.7,0.6,0.6,1.1c-0.1,0.4-0.5,0.6-0.8,0.6c-0.1,0-0.2,0-0.2,0l-4.1-1.2H5.8
	c-0.5,0-0.9-0.4-0.9-0.9S5.3,82.9,5.8,82.9z M18.6,98.5l-4.2,2.4c-0.1,0.1-0.3,0.1-0.4,0.1H5.8c-0.5,0-0.9-0.4-0.9-0.9
	s0.4-0.9,0.9-0.9h8l4-2.3c0.4-0.2,1-0.1,1.2,0.3C19.2,97.7,19,98.3,18.6,98.5z M4.9,94.2c0-0.5,0.4-0.9,0.9-0.9H14l4-0.9
	c0.5-0.2,0.9,0.2,1,0.7c0.1,0.5-0.2,0.9-0.7,1L14.2,95l-8.4,0C5.3,95,4.9,94.6,4.9,94.2z M18.2,90.1H5.8c-0.5,0-0.9-0.4-0.9-0.9
	s0.4-0.9,0.9-0.9h12.4c0.5,0,0.9,0.4,0.9,0.9S18.6,90.1,18.2,90.1z"/>
</svg>
