<?xml version="1.0" encoding="utf-8"?>
<!-- Generator: Adobe Illustrator 19.1.0, SVG Export Plug-In . SVG Version: 6.00 Build 0)  -->
<svg version="1.1" id="Layer_1" xmlns="http://www.w3.org/2000/svg" xmlns:xlink="http://www.w3.org/1999/xlink" x="0px" y="0px"
	 viewBox="-20 20.7 100 100" style="enable-background:new -20 20.7 100 100;" xml:space="preserve">
<style type="text/css">
	.st0{fill:#EE2A24;}
</style>
<path class="st0" d="M-20,20.7v100H80v-100H-20z M73.2,113.9h-86.3V46.2h86.3V113.9z"/>
<g>
	<path class="st0" d="M19,101.4h-8.4V69.5c-3.1,2.9-6.7,5-10.9,6.4v-7.7c2.2-0.7,4.6-2.1,7.2-4.1c2.6-2,4.3-4.4,5.3-7H19V101.4z"/>
</g>
<path class="st0" d="M56.1,62.3c-2.9-3.5-6.5-5.2-11-5.2c-4.1,0-7.5,1.4-10.1,4.1c-2.7,2.7-4,6.3-4,10.8c0,4.3,1.3,7.8,3.8,10.4
	c2.5,2.7,5.5,4,9,4c3.2,0,5.8-1.2,8-3.7c-0.3,5.1-1.1,8.4-2.3,10s-2.7,2.4-4.5,2.4c-1.4,0-2.5-0.4-3.3-1.2c-0.8-0.8-1.4-2-1.6-3.7
	l-8.2,0.9c0.6,3.7,2,6.4,4.1,8.2c2.1,1.8,4.9,2.7,8.4,2.7c4.8,0,8.7-1.8,11.7-5.4c3-3.6,4.5-9.4,4.5-17.4
	C60.4,71.5,58.9,65.8,56.1,62.3z M49.2,78.4c-1.1,1.3-2.5,1.9-4.1,1.9c-1.7,0-3.1-0.7-4.2-2c-1.1-1.3-1.7-3.4-1.7-6.3
	c0-2.8,0.5-4.8,1.5-6.1c1-1.2,2.3-1.8,3.9-1.8c1.6,0,3.1,0.8,4.3,2.3c1.3,1.5,1.9,3.6,1.9,6.3C50.9,75.2,50.4,77.1,49.2,78.4z"/>
</svg>
