<?xml version="1.0" encoding="utf-8"?>
<!-- Generator: Adobe Illustrator 19.1.0, SVG Export Plug-In . SVG Version: 6.00 Build 0)  -->
<svg version="1.1" id="Layer_1" xmlns="http://www.w3.org/2000/svg" xmlns:xlink="http://www.w3.org/1999/xlink" x="0px" y="0px"
	 viewBox="-41 20.7 58.3 100" style="enable-background:new -41 20.7 58.3 100;" xml:space="preserve">
<style type="text/css">
	.st0{fill:#EE2A24;}
</style>
<path class="st0" d="M11.5,47h-46.6l-5.9,73.8h58.3L11.5,47z M-0.1,101.8c-1.1,1.7-2.6,2.9-4.5,3.7c-2,0.8-4.4,1.2-7.3,1.2
	c-4.2,0-7.5-1-9.8-2.9c-2.3-2-3.6-4.8-4.1-8.6l6.6-0.6c0.4,2.2,1.2,3.8,2.4,4.9s2.9,1.6,4.9,1.6c2.2,0,3.8-0.5,4.9-1.4
	c1.1-0.9,1.7-2,1.7-3.2c0-0.8-0.2-1.5-0.7-2c-0.5-0.6-1.3-1-2.4-1.5c-0.8-0.3-2.6-0.8-5.4-1.5c-3.6-0.9-6.2-2-7.6-3.3
	c-2.1-1.8-3.1-4.1-3.1-6.7c0-1.7,0.5-3.3,1.4-4.8c1-1.5,2.4-2.6,4.2-3.4c1.8-0.8,4-1.2,6.6-1.2c4.2,0,7.4,0.9,9.5,2.8
	c2.1,1.9,3.3,4.3,3.4,7.4l-6.8,0.3c-0.3-1.7-0.9-3-1.9-3.7c-1-0.8-2.4-1.1-4.3-1.1c-2,0-3.5,0.4-4.6,1.2c-0.7,0.5-1.1,1.2-1.1,2.1
	c0,0.8,0.3,1.5,1,2c0.9,0.7,2.9,1.5,6.2,2.3c3.3,0.8,5.7,1.6,7.3,2.4c1.6,0.8,2.8,2,3.7,3.4c0.9,1.4,1.3,3.2,1.3,5.3
	C1.5,98.3,1,100.1-0.1,101.8z"/>
<path class="st0" d="M-11.8,20.7c-12.9,0-23.3,10.4-23.3,23.3h46.6C11.5,31.2,1,20.7-11.8,20.7z M-20,34.9c-1.7,0-3.1-1.4-3.1-3.1
	c0-1.7,1.4-3.1,3.1-3.1s3.1,1.4,3.1,3.1C-16.9,33.5-18.3,34.9-20,34.9z M-11.8,28.1c-1.7,0-3.1-1.4-3.1-3.1c0-1.7,1.4-3.1,3.1-3.1
	s3.1,1.4,3.1,3.1C-8.7,26.7-10.1,28.1-11.8,28.1z M-3.8,34.9c-1.7,0-3.1-1.4-3.1-3.1c0-1.7,1.4-3.1,3.1-3.1c1.7,0,3.1,1.4,3.1,3.1
	C-0.7,33.5-2.1,34.9-3.8,34.9z"/>
</svg>
