<?xml version="1.0" encoding="utf-8"?>
<!-- Generator: Adobe Illustrator 19.1.0, SVG Export Plug-In . SVG Version: 6.00 Build 0)  -->
<svg version="1.1" id="Layer_1" xmlns="http://www.w3.org/2000/svg" xmlns:xlink="http://www.w3.org/1999/xlink" x="0px" y="0px"
	 viewBox="-20 20.7 100 100" style="enable-background:new -20 20.7 100 100;" xml:space="preserve">
<style type="text/css">
	.st0{fill:#EE2A24;}
</style>
<path class="st0" d="M72.7,28c-4.9-4.9-11.2-7.3-17.6-7.3S42.4,23.2,37.6,28L12.4,53.2l0,0l-25.1,25.1c-9.7,9.7-9.7,25.5,0,35.2
	c9.7,9.7,25.5,9.7,35.2,0l19.8-19.8l30.5-30.5C82.4,53.5,82.4,37.7,72.7,28z M67.4,57.8L42.2,83L17.8,58.5l25.1-25.1
	c3.3-3.3,7.6-5.1,12.2-5.1c4.6,0,9,1.8,12.2,5.1C74.1,40.1,74.1,51.1,67.4,57.8z"/>
</svg>
