<?xml version="1.0" encoding="utf-8"?>
<!-- Generator: Adobe Illustrator 19.1.0, SVG Export Plug-In . SVG Version: 6.00 Build 0)  -->
<svg version="1.1" id="Layer_1" xmlns="http://www.w3.org/2000/svg" xmlns:xlink="http://www.w3.org/1999/xlink" x="0px" y="0px"
	 viewBox="-20 29.9 100 82.8" style="enable-background:new -20 29.9 100 82.8;" xml:space="preserve">
<style type="text/css">
	.st0{fill:#EE2A24;}
</style>
<path class="st0" d="M17.2,60.7c2,0,3.9,0.1,5.7,0.2l-7.8-10.8c-1.2-0.6-5.3-3.3-8.6-4.4l0.2-0.7c0,0,6.6,1,9.7,3.9l8.7,11.9
	l0.3,0.2c0.9,0.1,1.8,0.2,2.6,0.3l-7-9.6l2.6-7.6c-0.3-3.3-5.7-13.9-5.7-13.9l0.5-0.4c4.3,3.6,7,14.4,7,14.4l-2.4,7.2l5.4,7.4
	c-0.2-1.3-0.2-2.8-0.2-4.5c0.1-4.6,0.4-8.2,1.9-8.5c1.5,0.4,1.7,4,1.9,8.5c0,1.6-0.1,3.1-0.2,4.4l5.4-7.4l-2.4-7.4
	c0.5-1.2,3.4-11.3,7-14.2l0.5,0.4c0,0-5.4,10.5-5.8,13.7l2.6,7.7l-7,9.6c0.8-0.1,1.6-0.2,2.6-0.3l0.3-0.2l8.7-12
	c3.1-2.7,9.7-3.8,9.7-3.8l0.2,0.7c-3.3,1-7.4,3.7-8.6,4.4L37,60.9c1.8-0.1,3.8-0.2,5.7-0.2c6.9,0.1,13.8,0.6,14,3.7
	c0,0.3-0.1,0.6-0.2,0.9c-0.8,1.7-3.1,2.1-6,2.1c-4.9,0-11.8-1.6-16.2-2.7L33,66c1.6,0.5,4.1,1.5,5.8,3.3l0.2,0.3l0.8,6.6l4.6,5.6
	l-0.5,0.5l-5.7-5.3l-0.8-6.6C36,69,33.5,68,32.1,67.6c-0.2,0.4-0.4,0.8-0.8,1.1c0,0.1,0,0.2,0,0.3l0,0c0.8,0,1.9,0.4,1.9,1.5
	c0,0.1,0,0.1,0,0.2c-0.2,1.3-1.5,2.1-2.3,2.5l-0.4,7.8l-0.7,0L28.9,73c-0.8-0.5-1.9-1.2-2.1-2.4c0-0.1,0-0.1,0-0.2
	c0-1.2,1.1-1.5,1.9-1.5h0c0-0.1,0-0.2,0-0.2c-0.4-0.3-0.6-0.7-0.8-1.1c-1.4,0.4-3.9,1.4-5.3,2.7l-1,7L16,82.4l-0.5-0.5l4.5-5.5l1-7
	l0.1-0.1c1.7-1.8,4.2-2.8,5.8-3.4l-1.4-1.3c-4.4,1.2-11.2,2.7-16.2,2.7c-2.8,0-5.1-0.5-6-2.1c-0.1-0.3-0.2-0.6-0.2-0.9
	C3.4,61.3,10.3,60.8,17.2,60.7z"/>
<path class="st0" d="M78.9,87.5c0.6-0.2,1.1-0.7,1.1-1.4c0-0.9-0.7-1.6-1.6-1.6h-96.7c-0.9,0-1.6,0.7-1.6,1.6c0,0.7,0.5,1.1,1.1,1.4
	c0,0.1,0,0.2,0.1,0.2l5.3,5.3l-3.9,3.9l-0.5-0.5c-0.2-0.2-0.6-0.2-0.9,0s-0.2,0.6,0,0.9l0.5,0.5l-0.5,0.5c-0.2,0.2-0.2,0.6,0,0.9
	c0.1,0.1,0.3,0.2,0.4,0.2s0.3-0.1,0.4-0.2l0.5-0.5l3.9,3.9l-3.9,3.9l-0.5-0.5c-0.2-0.2-0.6-0.2-0.9,0c-0.2,0.2-0.2,0.6,0,0.9
	l0.5,0.5l-0.5,0.5c-0.2,0.2-0.2,0.6,0,0.9c0.1,0.1,0.3,0.2,0.4,0.2s0.3-0.1,0.4-0.2l0.5-0.5l4,4v0c0,0-0.1,0.1-0.1,0.1
	s0,0.1,0.1,0.1c0,0.1,0,0.2,0.1,0.3c0.1,0.1,0.3,0.2,0.4,0.2h0.5c0.2,0,0.3-0.1,0.4-0.2c0,0,0-0.1,0-0.1c0.1-0.1,0.1-0.2,0.1-0.3
	c0,0,0,0,0,0c0,0,0-0.1-0.1-0.1l4-4l4,4v0c0,0-0.1,0.1-0.1,0.1s0,0.1,0.1,0.1c0,0.1,0,0.2,0.1,0.3c0.1,0.1,0.3,0.2,0.4,0.2H-3
	c0.2,0,0.3-0.1,0.4-0.2c0,0,0-0.1,0-0.1c0.1-0.1,0.1-0.2,0.1-0.3c0,0,0,0,0,0c0,0,0-0.1-0.1-0.1l4-4l4,4l0,0c0,0-0.1,0.1-0.1,0.1
	s0,0.1,0.1,0.1c0,0.1,0,0.2,0.1,0.3c0.1,0.1,0.3,0.2,0.4,0.2h0.5c0.2,0,0.3-0.1,0.4-0.2c0.1-0.1,0.1-0.2,0.1-0.3
	c0,0,0.1-0.1,0.1-0.1S7,112,7,112v0l4-4l4,4v0c0,0-0.1,0.1-0.1,0.1s0,0.1,0.1,0.1c0,0.1,0,0.2,0.1,0.3c0.1,0.1,0.3,0.2,0.4,0.2H16
	c0.2,0,0.3-0.1,0.4-0.2c0,0,0-0.1,0-0.1c0.1-0.1,0.1-0.2,0.1-0.3c0,0,0,0,0,0c0,0,0-0.1-0.1-0.1l4-4l4,4l0,0c0,0-0.1,0.1-0.1,0.1
	s0,0.1,0.1,0.1c0,0.1,0,0.2,0.1,0.3c0.1,0.1,0.3,0.2,0.4,0.2h0.5c0.2,0,0.3-0.1,0.4-0.2c0.1,0,0.1-0.1,0.1-0.2
	c0-0.1,0.1-0.1,0.1-0.2v0c0-0.1,0-0.1-0.1-0.1l4-4l4,4v0c0,0-0.1,0.1-0.1,0.1s0,0.1,0.1,0.1c0,0.1,0,0.2,0.1,0.3
	c0.1,0.1,0.3,0.2,0.4,0.2h0.5c0.2,0,0.3-0.1,0.4-0.2c0,0,0-0.1,0-0.1c0.1-0.1,0.1-0.2,0.1-0.3c0,0,0,0,0,0c0,0,0-0.1-0.1-0.1l4-4
	l4,4c0,0.1-0.1,0.1-0.1,0.1c0,0,0,0,0,0c0,0.1,0.1,0.2,0.1,0.3c0,0,0,0.1,0,0.1c0.1,0.1,0.3,0.2,0.4,0.2h0.5c0.2,0,0.3-0.1,0.4-0.2
	c0.1-0.1,0.1-0.2,0.1-0.3c0,0,0.1-0.1,0.1-0.1s0-0.1-0.1-0.1v0l4-4l4,4c0,0.1-0.1,0.1-0.1,0.1c0,0.3,0.3,0.6,0.6,0.6h0.4
	c0.3,0,0.6-0.3,0.6-0.6c0-0.1,0-0.1-0.1-0.1l4-4l4,4v0c0,0-0.1,0.1-0.1,0.1s0,0.1,0.1,0.1c0,0.1,0,0.2,0.1,0.3
	c0.1,0.1,0.3,0.2,0.4,0.2h0.5c0.2,0,0.3-0.1,0.4-0.2c0,0,0-0.1,0-0.1c0.1-0.1,0.1-0.2,0.1-0.3c0,0,0,0,0,0c0,0,0-0.1-0.1-0.1l4-4
	l4,4v0c0,0-0.1,0.1-0.1,0.1s0,0.1,0.1,0.1c0,0.1,0,0.2,0.1,0.3c0.1,0.1,0.3,0.2,0.4,0.2h0.5c0.2,0,0.3-0.1,0.4-0.2c0,0,0-0.1,0-0.1
	c0.1-0.1,0.1-0.2,0.1-0.3c0,0,0,0,0,0c0,0,0-0.1-0.1-0.1l4-4l0.5,0.5c0.1,0.1,0.3,0.2,0.4,0.2s0.3-0.1,0.4-0.2
	c0.2-0.2,0.2-0.6,0-0.9l-0.5-0.5l0.5-0.5c0.2-0.2,0.2-0.6,0-0.9c-0.2-0.2-0.6-0.2-0.9,0l-0.5,0.5l-3.9-3.9l3.9-3.9l0.5,0.5
	c0.1,0.1,0.3,0.2,0.4,0.2s0.3-0.1,0.4-0.2c0.2-0.2,0.2-0.6,0-0.9l-0.5-0.5l0.5-0.5c0.2-0.2,0.2-0.6,0-0.9c-0.2-0.2-0.6-0.2-0.9,0
	l-0.5,0.5l-3.9-3.9l5.3-5.3C78.8,87.6,78.8,87.5,78.9,87.5z M64,92.9l3.9-3.9l3.9,3.9l-3.9,3.9L64,92.9z M67,97.7l-3.9,3.9l-3.9-3.9
	l3.9-3.9L67,97.7z M59.8,87.7h6.7l0.5,0.5l-3.9,3.9l-3.9-3.9L59.8,87.7z M62.3,92.9l-3.9,3.9l-3.9-3.9l3.9-3.9L62.3,92.9z
	 M57.5,97.7l-3.9,3.9l-3.9-3.9l3.9-3.9L57.5,97.7z M50.3,87.7H57l0.5,0.5l-3.9,3.9l-3.9-3.9L50.3,87.7z M52.8,92.9l-3.9,3.9L45,92.9
	l3.9-3.9L52.8,92.9z M48.1,97.7l-3.9,3.9l-3.9-3.9l3.9-3.9L48.1,97.7z M40.8,87.7h6.7l0.5,0.5l-3.9,3.9l-3.9-3.9L40.8,87.7z
	 M43.3,92.9l-3.9,3.9l-3.9-3.9l3.9-3.9L43.3,92.9z M38.6,97.7l-3.9,3.9l-3.9-3.9l3.9-3.9L38.6,97.7z M31.4,87.7H38l0.5,0.5l-3.9,3.9
	l-3.9-3.9L31.4,87.7z M33.8,92.9L30,96.8l-3.9-3.9l3.9-3.9L33.8,92.9z M29.1,97.7l-3.9,3.9l-3.9-3.9l3.9-3.9L29.1,97.7z M21.9,87.7
	h6.7l0.5,0.5l-3.9,3.9l-3.9-3.9L21.9,87.7z M24.4,92.9l-3.9,3.9l-3.9-3.9l3.9-3.9L24.4,92.9z M19.6,97.7l-3.9,3.9l-3.9-3.9l3.9-3.9
	L19.6,97.7z M12.4,87.7h6.7l0.5,0.5l-3.9,3.9l-3.9-3.9L12.4,87.7z M14.9,92.9L11,96.8l-3.9-3.9l3.9-3.9L14.9,92.9z M10.1,97.7
	l-3.9,3.9l-3.9-3.9l3.9-3.9L10.1,97.7z M2.9,87.7h6.7l0.5,0.5l-3.9,3.9l-3.9-3.9L2.9,87.7z M5.4,92.9l-3.9,3.9l-3.9-3.9l3.9-3.9
	L5.4,92.9z M0.6,97.7l-3.9,3.9l-3.9-3.9l3.9-3.9L0.6,97.7z M-6.6,87.7h6.7l0.5,0.5l-3.9,3.9l-3.9-3.9L-6.6,87.7z M-4.1,92.9L-8,96.8
	l-3.9-3.9l3.9-3.9L-4.1,92.9z M-17.1,87.7h7.8l0.5,0.5l-3.9,3.9L-17.1,87.7z M-16.6,97.7l3.9-3.9l3.9,3.9l-3.9,3.9L-16.6,97.7z
	 M-12.7,111l-3.9-3.9l3.9-3.9l3.9,3.9L-12.7,111z M-11.9,102.4l3.9-3.9l3.9,3.9l-3.9,3.9L-11.9,102.4z M-3.2,111l-3.9-3.9l3.9-3.9
	l3.9,3.9L-3.2,111z M-2.4,102.4l3.9-3.9l3.9,3.9l-3.9,3.9L-2.4,102.4z M6.2,111l-3.9-3.9l3.9-3.9l3.9,3.9L6.2,111z M11,106.3
	l-3.9-3.9l3.9-3.9l3.9,3.9L11,106.3z M15.7,111l-3.9-3.9l3.9-3.9l3.9,3.9L15.7,111z M16.6,102.4l3.9-3.9l3.9,3.9l-3.9,3.9
	L16.6,102.4z M25.2,111l-3.9-3.9l3.9-3.9l3.9,3.9L25.2,111z M26.1,102.4l3.9-3.9l3.9,3.9l-3.9,3.9L26.1,102.4z M34.7,111l-3.9-3.9
	l3.9-3.9l3.9,3.9L34.7,111z M35.6,102.4l3.9-3.9l3.9,3.9l-3.9,3.9L35.6,102.4z M44.2,111l-3.9-3.9l3.9-3.9l3.9,3.9L44.2,111z
	 M45,102.4l3.9-3.9l3.9,3.9l-3.9,3.9L45,102.4z M53.7,111l-3.9-3.9l3.9-3.9l3.9,3.9L53.7,111z M54.5,102.4l3.9-3.9l3.9,3.9l-3.9,3.9
	L54.5,102.4z M63.1,111l-3.9-3.9l3.9-3.9l3.9,3.9L63.1,111z M64,102.4l3.9-3.9l3.9,3.9l-3.9,3.9L64,102.4z M76.5,107.2l-3.9,3.9
	l-3.9-3.9l3.9-3.9L76.5,107.2z M76.5,97.7l-3.9,3.9l-3.9-3.9l3.9-3.9L76.5,97.7z M72.6,92.1l-3.9-3.9l0.5-0.5h7.8L72.6,92.1z"/>
</svg>
