<?xml version="1.0" encoding="utf-8"?>
<!-- Generator: Adobe Illustrator 19.1.0, SVG Export Plug-In . SVG Version: 6.00 Build 0)  -->
<svg version="1.1" id="Layer_1" xmlns="http://www.w3.org/2000/svg" xmlns:xlink="http://www.w3.org/1999/xlink" x="0px" y="0px"
	 viewBox="-20 24.4 100 92.4" style="enable-background:new -20 24.4 100 92.4;" xml:space="preserve">
<style type="text/css">
	.st0{fill:#EE2A24;}
</style>
<path class="st0" d="M42.5,89.4c0,3.2-5.4,5.8-12.1,5.8c-6.7,0-12.1-2.6-12.1-5.8c0-3.2,5.4-5.8,12.1-5.8
	C37.1,83.6,42.5,86.2,42.5,89.4z"/>
<path class="st0" d="M30.4,77.3c-13.8,0-25,5.4-25,12.1c0,6.7,11.2,12.1,25,12.1c13.8,0,25-5.4,25-12.1
	C55.4,82.7,44.2,77.4,30.4,77.3z M30.4,97.7c-9.5,0-17.2-3.7-17.2-8.3c0-4.6,7.7-8.3,17.2-8.3c9.5,0,17.2,3.7,17.2,8.3
	C47.7,94,40,97.7,30.4,97.7z"/>
<path class="st0" d="M30,64.8c-27.6,0-50,11.6-50,25.9c0,14.3,22.4,26,50,26c27.6,0,50-11.6,50-26C80,76.5,57.6,64.8,30,64.8z
	 M30.4,109.8c-23.3,0-42.2-9.1-42.2-20.4C-11.8,78.2,7.1,69,30.4,69c23.3,0,42.2,9.1,42.2,20.4C72.7,100.7,53.8,109.8,30.4,109.8z"
	/>
<path class="st0" d="M30.4,71.5c-20.5,0-37,8-37.1,17.9c0.1,9.9,16.6,17.9,37.1,17.9c20.5,0,37-8,37.1-17.9
	C67.5,79.5,50.9,71.5,30.4,71.5z M30.4,104c-16.7,0-30.2-6.5-30.2-14.6c0-8,13.5-14.6,30.2-14.6c16.7,0,30.2,6.5,30.2,14.6
	C60.6,97.5,47.1,104,30.4,104z"/>
<path class="st0" d="M44.1,46.9c-9,7.7,3.4,14.7,3.4,14.7s-4.3-4.8,2.3-10.4c9.9-8.3-0.1-15.1-0.1-15.1S52.3,40,44.1,46.9z"/>
<path class="st0" d="M31.7,48.9c0,0,11.8-2.6,5.7-14c-4.1-7.6,1.7-10.5,1.7-10.5s-14.1,1.9-8.6,12.4C35.5,46.2,31.7,48.9,31.7,48.9z
	"/>
<path class="st0" d="M14.2,47.7c-6.7,9.8,7.2,13.3,7.2,13.3s-5.4-3.5-0.5-10.6c7.4-10.7-4.1-14.6-4.1-14.6S20.2,38.9,14.2,47.7z"/>
</svg>
