<?xml version="1.0" encoding="utf-8"?>
<!-- Generator: Adobe Illustrator 19.1.0, SVG Export Plug-In . SVG Version: 6.00 Build 0)  -->
<svg version="1.1" id="Layer_1" xmlns="http://www.w3.org/2000/svg" xmlns:xlink="http://www.w3.org/1999/xlink" x="0px" y="0px"
	 viewBox="-20 30.8 100 80.9" style="enable-background:new -20 30.8 100 80.9;" xml:space="preserve">
<style type="text/css">
	.st0{fill:#EE2A24;}
</style>
<path class="st0" d="M29.7,71.7c-2-6.8,9-11,8.8-4.1c1,3.7,1.3,5.8-2.4,6.5C32.8,74.8,30.7,75.1,29.7,71.7z"/>
<path class="st0" d="M37.6,49.1c-1.1,3.7,4.3,4.3,2.9,8.4c2.8,0,2-2.2,3.1-4.1c1.5-2.7,5.1-3.3,4.8-7c0.3,6.7,4-0.5,6.5-0.8
	c0.1-1.3-0.4-2.8-0.6-3.7c-1.2-2.7-1.1-5.2-4.5-3.4c-2.4,1.3-5.5,3.9-2.5,6.2C44.2,45.2,38.8,45.2,37.6,49.1z"/>
<path class="st0" d="M29.7,39.4c-1.4,0.8-2.1,3.9-2.4,5.3c-0.6,2.7-0.4,11.2,4.1,9.8c2.6-0.8,2.1-4.7,3.1-6.7c0.7-1.4,1.6-1.1,2-2.6
	c0.3-1.1-0.3-2.7-0.5-3.8c1.7,4.4,8.4,2.4,6.7-2c-1.3-1.2-4-2-5.7-1.1c-2.5,1.3-0.2,2.8-2.1,2.9C33.5,41.2,32.5,37.8,29.7,39.4z"/>
<path class="st0" d="M37,58.2c-1.8-6.1-12.9,2.8-10.8,6.6c1.5,2.8,4.1-2,5.6-2.8C34,61,37.5,61.9,37,58.2z"/>
<path class="st0" d="M41.2,35.8c1.7,0.7,3.6,0.6,3.1-1.9c-2.5-2-9.5-2.6-9.3,2C36.9,35.7,39.3,35,41.2,35.8z"/>
<path class="st0" d="M45.9,59.7c1.9-1.3,5-1.1,4.5-4.2c-3.1-7.1-8.9,7-9.3,9.4C43.3,64,43.9,61.1,45.9,59.7z"/>
<path class="st0" d="M59.1,68.9c1.1,2.1,5.7,0.7,8-0.4c3-1.5,3.8-3.5,3-6.9C68,52.9,56.2,63.3,59.1,68.9z"/>
<path class="st0" d="M52,72.3c2.6-2.2,2-9.2,1.5-12c-2.7-0.4-5.9,0.7-7.8,2.7c-1.4,1.4-5.3,8.1-3.7,10C43,74.3,51,73.1,52,72.3z"/>
<path class="st0" d="M67,55.4c2.1-0.4,1.3-3.7,0.9-5.6c-0.2-5-5.5-1-4.6,2.6C63.7,53.8,65.2,55.7,67,55.4z"/>
<path class="st0" d="M52.9,55.4c0.8,1.5,2.9,1.5,3.4,4.2c0.6,3-0.7,6.2-0.3,9.3c1.9-1.6,1.6-7.3,3.3-9.9c1-1.6,2.2-1.8,2.2-3.6
	c0-1.3-1.2-2.9-1.9-4c2-0.1,4-7.1,1.2-7c-1.4-2.1-3.1-2.4-3.8-0.1c-0.7,2.4,2.2,4.7,2.9,6.7C56.6,48.9,50.3,50.5,52.9,55.4z"/>
<path class="st0" d="M11.2,54.6c1.4-0.1,1.2,1.2,2.5,0.7c1.4-0.6,2.3-3.1,3.2-4.2c1.4-6.3-11.5-5.4-10.4,2.1
	C6.9,56.2,8.2,54.8,11.2,54.6z"/>
<path class="st0" d="M5.3,47.2C5,44.6,1,43.8-0.1,46.4C-0.9,48.3,4.8,53.6,5.3,47.2z"/>
<path class="st0" d="M3.9,62.8c-0.9,1.8-1.2,4-1,6c0.3,3.5,0.7,2.7,3.2,3.5c1.4,0.4,3.6,1.7,5,1.5c2.9-0.5,1.6-1.3,1-3.4
	c-0.4-1.7-1.5-3.5-1.5-5.3c0-2.5,2.1-4.1,1.9-6.6C10.6,53,5,60.5,3.9,62.8z"/>
<path class="st0" d="M-6.6,55.8c1.3,0.6,1.8,2.8,3,3.1c1.1,0.3,2.3-1.3,4.1-1C2,58.1,2.3,61,3.9,58.6c1-1.5,0.7-3.1,0.1-4.7
	C0.7,50.6-3.4,49-7.6,51.1c-0.9,0.4-4.5,1.4-2.8,3C-8.6,55.7-8.1,55.2-6.6,55.8z"/>
<path class="st0" d="M32.3,33.6c-2.1-3.9-12.7-4.1-10.7,2C22.9,39.6,33,38.5,32.3,33.6z"/>
<path class="st0" d="M-7.2,57.6c-2.4,1.3-4.9,3.6-3.5,6.7c2.5,5.5,3.4,2.5,4.9-1c0.4,2.3-0.1,4.7,2.4,5.9c2.6,1.2,3.7-0.1,4-2.8
	c0.2-1.8,1.4-6.3-1-6.9C-2,59.2-3.9,62-5.5,62.5c0.3-0.8,0.4-1.8,0.8-2.5C-5.1,58.8-6.1,58.2-7.2,57.6z"/>
<path class="st0" d="M20.2,47.9c0.5,2.5-2.8,6-4,7.8c1-0.4,0.9-0.1,1.7-0.9c0.1,1.3,0.2,2.5,0.3,3.7c3.4-0.5,4.3,3.2,7-1.2
	c2.5-4.1-0.1-5.9-4.2-5.4c0.8-2.3,3-0.2,3.5-2.7c0.5-2.5,0.5-5,1-7.5c-1-1.2-3.6-2.9-5.1-2.4c-1.1,0.3-3.8,3.7-3.7,4.7
	C16.9,46,19.7,45.7,20.2,47.9z"/>
<path class="st0" d="M14,65c-2.5,3.4,0.9,3.5,2.2,4.9c1.3,1.5,0.9,3.6,2.6,3.9c1.3,0.2,4,1.4,5.3,0.4c2.6-1.9-0.7-7.3-2-9.6
	C20.6,62.3,15.7,62.7,14,65z"/>
<path class="st0" d="M80,64.9c0-3.6-2.1-7-5.6-10c-1.5,1-3.1,1.8-4.7,2.5c2.3,1.7,3.6,3.6,3.6,5.6c0,7.8-19.4,14.1-43.2,14.1
	S-13.2,70.8-13.2,63c0-2.2,1.6-4.3,4.4-6.2l-4.5-2.9c-4.2,3.2-6.7,6.9-6.7,10.9c0,0.2,0,0.4,0,0.7h0c0.3,8.4,2.9,17.3,7.3,25.6
	c0,0,10.5,20.6,42.7,20.6c32.3,0,42.6-20.8,42.6-20.8c4.3-8.2,7.1-17.2,7.4-25.4h0C80,65.3,80,65.1,80,64.9z"/>
<path class="st0" d="M18,37.9c1.7-5.9-12.3-0.1-9.9,6C9.9,48.4,16.7,40,18,37.9z"/>
</svg>
