<?xml version="1.0" encoding="utf-8"?>
<!-- Generator: Adobe Illustrator 19.1.0, SVG Export Plug-In . SVG Version: 6.00 Build 0)  -->
<svg version="1.1" id="Layer_1" xmlns="http://www.w3.org/2000/svg" xmlns:xlink="http://www.w3.org/1999/xlink" x="0px" y="0px"
	 viewBox="-20 29.4 100 83.4" style="enable-background:new -20 29.4 100 83.4;" xml:space="preserve">
<style type="text/css">
	.st0{fill:#EE2A24;}
</style>
<path class="st0" d="M63.7,56.8L80,47.7l-3.6-1.9L46.6,29.6l-16.4,9l-16.9-9.2L-20,47.5l3.5,2l13,7.2l-0.2,0.1h0v0l-16.1,8.8
	l16.1,8.7V96L30,112.7L63.6,96V74.3l16.2-8.7L63.7,56.8z M46.6,34.7l24,13.1L59,54.3L34.7,41.2L46.6,34.7z M-10.7,47.5l24-13.1
	L25.3,41L1,54L-10.7,47.5z M-10.3,65.6l11.9-6.5l24.3,13.1L14,78.6L-10.3,65.6z M0.9,93.2V76.7l13.2,7.1l13.7-7.6v30.4L0.9,93.2z
	 M59.1,93.2l-26.9,13.4V76.1L46,83.8l13.1-7V93.2z M70.4,65.6L46.1,78.6l-11.7-6.4l24.1-13.1L70.4,65.6z"/>
</svg>
