<?xml version="1.0" encoding="utf-8"?>
<!-- Generator: Adobe Illustrator 19.1.0, SVG Export Plug-In . SVG Version: 6.00 Build 0)  -->
<svg version="1.1" id="Layer_1" xmlns="http://www.w3.org/2000/svg" xmlns:xlink="http://www.w3.org/1999/xlink" x="0px" y="0px"
	 viewBox="-54 20.7 31.5 100" style="enable-background:new -54 20.7 31.5 100;" xml:space="preserve">
<style type="text/css">
	.st0{fill:#EE2A24;}
</style>
<path class="st0" d="M-29.3,120.7c0,0,4.4-0.7,5.5-6.4c1.3-6.1,0-10.1-0.8-13.6c-0.7-3.4-0.5-5.2,0.6-10.7
	c1.8-8.9,1.7-24.3,0.7-31.7c-1-7.4-4.5-12.1-6.2-15.6c-2.8-5.8-2.9-12.9-2.9-12.9h1.6v-2.7l-0.6-0.4v-5.5c0,0-2.6-0.6-7-0.4
	c-4.4-0.1-7,0.4-7,0.4v5.5l-0.6,0.4v2.7h1.6c0,0,0,7.1-2.8,12.9c-1.7,3.5-5.3,8.2-6.2,15.6c-1,7.4-1.1,22.8,0.7,31.7
	c1.1,5.5,1.4,7.3,0.6,10.7c-0.7,3.4-2.1,7.5-0.8,13.6c1.2,5.7,5.5,6.4,5.5,6.4H-29.3z"/>
</svg>
