<?xml version="1.0" encoding="utf-8"?>
<!-- Generator: Adobe Illustrator 19.1.0, SVG Export Plug-In . SVG Version: 6.00 Build 0)  -->
<svg version="1.1" id="Layer_1" xmlns="http://www.w3.org/2000/svg" xmlns:xlink="http://www.w3.org/1999/xlink" x="0px" y="0px"
	 viewBox="-49 20.7 42 100" style="enable-background:new -49 20.7 42 100;" xml:space="preserve">
<style type="text/css">
	.st0{fill:#EE2A24;}
</style>
<path class="st0" d="M-48.9,56.4h41.8c0,0.3,0.1,0.5,0.1,0.8v5.6h-42v-5.6C-49,56.9-48.9,56.7-48.9,56.4z"/>
<rect x="-49" y="69.5" class="st0" width="42" height="6.4"/>
<path class="st0" d="M-19.2,36.3v-7.5h1.6c1.5,0,2.7-1.4,2.7-3v-2c0-1.7-1.2-3-2.7-3h-20.9c-1.5,0-2.7,1.4-2.7,3v2
	c0,1.7,1.2,3,2.7,3h1.8v7.5c-3.7,1.9-6.7,4.7-9,8.5c-0.9,1.6-1.5,3.2-2.1,4.9H-8C-9.6,43.8-13.3,39.3-19.2,36.3z"/>
<path class="st0" d="M-49,112.7c0,0-0.7,8,6.7,8h26.9c9.3,0,8.4-9.1,8.4-9.1V82.6h-42V112.7z"/>
</svg>
