<?xml version="1.0" encoding="utf-8"?>
<!-- Generator: Adobe Illustrator 19.1.0, SVG Export Plug-In . SVG Version: 6.00 Build 0)  -->
<svg version="1.1" id="Layer_1" xmlns="http://www.w3.org/2000/svg" xmlns:xlink="http://www.w3.org/1999/xlink" x="0px" y="0px"
	 viewBox="-35 20.7 69.2 100" style="enable-background:new -35 20.7 69.2 100;" xml:space="preserve">
<style type="text/css">
	.st0{fill:#EE2A24;}
</style>
<path class="st0" d="M20.7,20.7h-42.2c-7.4,0-13.5,3.8-13.5,13.5v73c0,11.1,6.1,13.5,13.5,13.5h42.2c7.4,0,13.5-2,13.5-13.5v-73
	C34.2,24.2,28.2,20.7,20.7,20.7z M19.1,42.7c0,2.2-2.4,4-5.3,4h-28.4c-2.9,0-5.3-1.8-5.3-4V30.3c0-2.2,2.4-4,5.3-4h28.4
	c2.9,0,5.3,1.8,5.3,4L19.1,42.7L19.1,42.7z"/>
</svg>
