<?xml version="1.0" encoding="utf-8"?>
<!-- Generator: Adobe Illustrator 19.1.0, SVG Export Plug-In . SVG Version: 6.00 Build 0)  -->
<svg version="1.1" id="Layer_1" xmlns="http://www.w3.org/2000/svg" xmlns:xlink="http://www.w3.org/1999/xlink" x="0px" y="0px"
	 viewBox="-20 20.7 100 100" style="enable-background:new -20 20.7 100 100;" xml:space="preserve">
<style type="text/css">
	.st0{fill:#EE2A24;}
</style>
<path class="st0" d="M67.8,100.6v3c0,9.3-7.6,17-17,17H8.1c-9.3,0-17-7.6-17-17v-3c3.5,5.8,9.7,9.8,17,9.8h42.7
	C58.1,110.4,64.3,106.4,67.8,100.6z"/>
<path class="st0" d="M50.8,67H8.1c-9.3,0-17,7.6-17,17v6.6c0,9.3,7.6,17,17,17h42.7c9.3,0,17-7.6,17-17V84
	C67.8,74.7,60.2,67,50.8,67"/>
<path class="st0" d="M51.6,26.7c-6.5,0-11.7,5.2-11.7,11.7c0,6.5,5.3,11.7,11.7,11.7c6.5,0,11.7-5.2,11.7-11.7
	C63.4,32,58.1,26.7,51.6,26.7z"/>
<path class="st0" d="M33.7,29.2c0-4.8-3.9-8.7-8.6-8.7s-8.6,3.9-8.6,8.7c0,1.9,0.7,3.7,1.8,5.2c1.2-0.6,2.4-0.9,3.8-0.9
	c2.8,0,5.3,1.4,6.9,3.5C31.8,35.5,33.7,32.6,33.7,29.2z"/>
<path class="st0" d="M13.3,42.2c0-0.2,0-0.4,0.1-0.6c-0.7-0.1-1.4-0.2-2.1-0.2c-5.3,0-9.5,4.3-9.5,9.5c0,5.3,4.3,9.6,9.5,9.6
	c5.3,0,9.6-4.3,9.6-9.6c0,0,0-0.1,0-0.1C16.6,50.2,13.3,46.6,13.3,42.2z"/>
<path class="st0" d="M22,35.4c-3.7,0-6.8,3-6.8,6.8c0,3.8,3,6.8,6.8,6.8c3.8,0,6.8-3,6.8-6.8C28.8,38.4,25.8,35.4,22,35.4z"/>
</svg>
