<?xml version="1.0" encoding="utf-8"?>
<!-- Generator: Adobe Illustrator 19.1.0, SVG Export Plug-In . SVG Version: 6.00 Build 0)  -->
<svg version="1.1" id="Layer_1" xmlns="http://www.w3.org/2000/svg" xmlns:xlink="http://www.w3.org/1999/xlink" x="0px" y="0px"
	 viewBox="-40 20.7 60 100" style="enable-background:new -40 20.7 60 100;" xml:space="preserve">
<style type="text/css">
	.st0{fill:#EE2A24;}
</style>
<path class="st0" d="M-1.7,35.1v4.6h-27.4v-4.6h2.6V22.4l0,0c0-0.9,4.9-1.7,11-1.7s11,0.7,11,1.7l0,0v12.7H-1.7z"/>
<path class="st0" d="M12,52.2l-13.3-9.3h-28l-9.8,11.6l-0.9,66.2h59.6L20,79.8L12,52.2z M3.4,81.7l-5.2-18c-0.1-8.6,4.5-8.3,7.4-6.1
	c2,1.5,2.6,4.1,2.6,4.1l2.4,19.8C7.4,88.1,3.4,81.7,3.4,81.7z"/>
</svg>
