<?xml version="1.0" encoding="utf-8"?>
<!-- Generator: Adobe Illustrator 19.1.0, SVG Export Plug-In . SVG Version: 6.00 Build 0)  -->
<svg version="1.1" id="Layer_1" xmlns="http://www.w3.org/2000/svg" xmlns:xlink="http://www.w3.org/1999/xlink" x="0px" y="0px"
	 viewBox="-20 21.9 100 98.9" style="enable-background:new -20 21.9 100 98.9;" xml:space="preserve">
<style type="text/css">
	.st0{fill:#EE2A24;}
</style>
<polygon class="st0" points="-12.4,82.2 15.1,82.2 9.2,120.4 -7,120.4 "/>
<path class="st0" d="M54.3,67.3c5.3,0,10-2.1,13.5-5.6c3.5-3.5,5.6-8.2,5.6-13.5c0-5.3-2.1-10-5.6-13.5c-3.4-3.5-8.2-5.6-13.5-5.6
	c-5.3,0-10,2.1-13.5,5.6c-3.5,3.4-5.6,8.2-5.6,13.5c0,5.3,2.1,10,5.6,13.5C44.2,65.2,49,67.3,54.3,67.3z"/>
<path class="st0" d="M53.7,21.9c-13.5,0-24.4,10.1-26,23.2H13.9c-0.9-1-2.1-1.6-3.5-1.6h-25.7c-2.6,0-4.7,2.1-4.7,4.7
	c0,2.6,2.1,4.7,4.7,4.7h25.7c1.4,0,2.6-0.6,3.5-1.6h13.7c1.6,13,12.6,23.2,26,23.2C68.2,74.5,80,62.7,80,48.2
	C80,33.7,68.2,21.9,53.7,21.9z M69.4,63.4c-3.9,3.9-9.2,6.3-15.1,6.3c-5.9,0-11.3-2.4-15.1-6.3c-3.9-3.9-6.3-9.2-6.3-15.2
	c0-5.9,2.4-11.3,6.3-15.1c3.9-3.9,9.2-6.3,15.1-6.3c5.9,0,11.3,2.4,15.1,6.3c3.9,3.9,6.3,9.2,6.3,15.1
	C75.7,54.2,73.3,59.5,69.4,63.4z"/>
<path class="st0" d="M27.4,119.1c1.1,1.1,2.5,1.7,4.2,1.7h41.9c1.7,0,3-0.6,4.2-1.7c1.1-1.1,1.7-2.5,1.7-4.1H25.7
	C25.7,116.6,26.3,118,27.4,119.1z"/>
<path class="st0" d="M77.1,92.3c-0.5-1.2-1.2-2.3-2.1-3.2c-0.9-0.9-2-1.6-3.2-2.1c-1.2-0.5-2.5-0.8-3.9-0.8H34.4v22.2
	c0,1.5,0.5,2.6,1.4,3.6c1,0.9,2.1,1.4,3.5,1.4h22.5c1.4,0,2.6-0.5,3.5-1.4c1-0.9,1.5-2.1,1.5-3.6v-2.2h1c1.4,0,2.7-0.3,3.9-0.8
	c1.2-0.5,2.3-1.2,3.2-2.1c0.9-0.9,1.6-1.9,2.1-3.1c0.5-1.2,0.8-2.5,0.8-3.9S77.6,93.6,77.1,92.3z M72.1,100.5
	c-1.2,1.2-2.6,1.8-4.3,1.8h-1v-12h1c1.7,0,3.2,0.6,4.3,1.7c1.2,1.2,1.7,2.6,1.7,4.3C73.9,97.9,73.3,99.3,72.1,100.5z"/>
</svg>
