<?xml version="1.0" encoding="utf-8"?>
<!-- Generator: Adobe Illustrator 19.1.0, SVG Export Plug-In . SVG Version: 6.00 Build 0)  -->
<svg version="1.1" id="Layer_1" xmlns="http://www.w3.org/2000/svg" xmlns:xlink="http://www.w3.org/1999/xlink" x="0px" y="0px"
	 viewBox="-33 20.7 74.5 100" style="enable-background:new -33 20.7 74.5 100;" xml:space="preserve">
<style type="text/css">
	.st0{fill:#EE2A24;}
</style>
<path class="st0" d="M-33,62v58.8h52.1l0.5-0.6l21.8-23.7V62H-33z M18.9,115.7V97h17.3L18.9,115.7z M37.9,93.4H15.4v23.8h-44.8V65.5
	h67.4V93.4z"/>
<path class="st0" d="M-19.3,68.6c-3.8,0-6.9,3.1-6.9,6.9c0,3.8,3.1,6.9,6.9,6.9c3.8,0,6.8-3.1,6.8-6.9
	C-12.5,71.7-15.5,68.6-19.3,68.6z M-19.3,78.7c-1.8,0-3.2-1.5-3.2-3.2c0-1.8,1.4-3.2,3.2-3.2s3.2,1.5,3.2,3.2
	C-16.1,77.3-17.6,78.7-19.3,78.7z"/>
<path class="st0" d="M3.2,32.1c1.3,2.5,6.9,15.8,6.9,17.7c0,10.4-13.9,10.4-13.9,0C-3.8,47.9,1.9,34,3.2,32.1z"/>
<path class="st0" d="M21.3,20.7c1.3,2.5,6.9,15.7,6.9,17.7c0,10.4-13.9,10.4-13.9,0C14.4,36.5,20,22.6,21.3,20.7z"/>
<path class="st0" d="M-15.1,20.7c1.3,2.5,6.9,15.7,6.9,17.7c0,10.4-13.9,10.4-13.9,0C-22,36.5-16.3,22.6-15.1,20.7z"/>
</svg>
