<?xml version="1.0" encoding="utf-8"?>
<!-- Generator: Adobe Illustrator 19.1.0, SVG Export Plug-In . SVG Version: 6.00 Build 0)  -->
<svg version="1.1" id="Layer_1" xmlns="http://www.w3.org/2000/svg" xmlns:xlink="http://www.w3.org/1999/xlink" x="0px" y="0px"
	 viewBox="-30 20.7 79.4 100" style="enable-background:new -30 20.7 79.4 100;" xml:space="preserve">
<style type="text/css">
	.st0{fill:#EE2A24;}
</style>
<rect x="-25.7" y="20.7" class="st0" width="70.8" height="8.3"/>
<path class="st0" d="M42.3,32.6h-65.2c-3.9,0-7.1,3.2-7.1,7.1v74c0,3.9,3.2,7.1,7.1,7.1h65.2c3.9,0,7.1-3.2,7.1-7.1v-74
	C49.4,35.8,46.2,32.6,42.3,32.6z M31.2,48.6c0,0-6.3,18.7-12.2,12.8C13.1,55.6,29.2,49,31.2,48.6z M16.1,45c0,0-4.2,3.3-1.3,11
	c3.3,8.7-2.9,10.7-5.4,8.2C3.9,58.7,14.1,45.7,16.1,45z M8.2,53c0,0-4.2,3.3-1.3,11c3.3,8.7-2.9,10.7-5.4,8.2
	C-4.1,66.7,6.1,53.6,8.2,53z M-4.7,88l-7.7,6.5c-1.5,1.5-3.4-1.6-2.7-2.4l6.6-8c0.7-0.7,0.9,0.8,2,1.9C-5.5,87.1-4,87.4-4.7,88z
	 M-6.7,80.4c-5.5-5.5,4.7-18.6,6.7-19.2c0,0-4.2,3.3-1.3,11C1.9,80.9-4.3,82.9-6.7,80.4z M-0.8,86.4c-2.5-2.5-0.5-8.7,8.2-5.4
	c7.7,2.9,11-1.3,11-1.3C17.8,81.7,4.8,91.9-0.8,86.4z M7.4,78.2c-2.5-2.5-0.5-8.7,8.2-5.4c7.7,2.9,11.1-1.3,11.1-1.3
	C26,73.5,13,83.7,7.4,78.2z M15.4,70.2c-2.5-2.5-0.5-8.6,8.2-5.4c7.7,2.9,11-1.3,11-1.3C34,65.5,20.9,75.7,15.4,70.2z"/>
</svg>
