<?xml version="1.0" encoding="utf-8"?>
<!-- Generator: Adobe Illustrator 19.1.0, SVG Export Plug-In . SVG Version: 6.00 Build 0)  -->
<svg version="1.1" id="Layer_1" xmlns="http://www.w3.org/2000/svg" xmlns:xlink="http://www.w3.org/1999/xlink" x="0px" y="0px"
	 viewBox="-53 20.7 34.6 100" style="enable-background:new -53 20.7 34.6 100;" xml:space="preserve">
<style type="text/css">
	.st0{fill:#EE2A24;}
</style>
<polygon class="st0" points="-43.4,58.7 -43.4,70.5 -38.6,70.5 -38.6,72.5 -43.4,72.5 -43.4,84.3 -38.6,84.3 -38.6,86.3 -43.4,86.3 
	-43.4,98 -38.6,98 -38.6,100 -43.4,100 -43.4,111.8 -38.6,111.8 -38.6,113.8 -45.4,113.8 -45.4,56.7 -38.6,56.7 -38.6,58.7 "/>
<path class="st0" d="M-21.7,51.3c1-0.5,1.7-1.5,1.7-2.6v-5.1c0-1.6-1.3-2.9-2.9-2.9h-1.9l-3.8-6.6l-3.6-6.2c0.6-0.8,1-1.6,1-2.7
	c0-2.5-2-4.5-4.5-4.5c-2.5,0-4.5,2-4.5,4.5c0,1,0.4,1.9,1,2.7l-3.6,6.2l-3.8,6.6h-1.9c-1.6,0-2.9,1.3-2.9,2.9v5.1
	c0,1.2,0.7,2.1,1.7,2.6c-2,2.4-3.2,5.4-3.2,8.8v52.4c0,4.5,3.7,8.2,8.2,8.2h18.1c4.5,0,8.2-3.7,8.2-8.2V60.1
	C-18.4,56.7-19.7,53.7-21.7,51.3z M-21.5,112.5c0,2.8-2.3,5.1-5.1,5.1h-18.1c-2.8,0-5.1-2.3-5.1-5.1V60.1c0-3.5,1.7-6.5,4.3-8.5
	h19.7c2.6,1.9,4.3,5,4.3,8.5V112.5z"/>
</svg>
