<?xml version="1.0" encoding="utf-8"?>
<!-- Generator: Adobe Illustrator 19.1.0, SVG Export Plug-In . SVG Version: 6.00 Build 0)  -->
<svg version="1.1" id="Layer_1" xmlns="http://www.w3.org/2000/svg" xmlns:xlink="http://www.w3.org/1999/xlink" x="0px" y="0px"
	 viewBox="-24 20.7 93 100" style="enable-background:new -24 20.7 93 100;" xml:space="preserve">
<style type="text/css">
	.st0{fill:#EE2A24;}
</style>
<path class="st0" d="M59.3,31.2L46.1,43.4H-1.2l-13.1-12.2c0,0,6.5-9.1,17.3-10.3c10.5-1.2,14.2,5.3,19.5,5.5
	c5.3-0.2,9-6.7,19.5-5.5C52.8,22.1,59.3,31.2,59.3,31.2z"/>
<path class="st0" d="M49.7,51.3H-4.7c0,0-26.1,20.6-17.5,58.5c0,0,2.9,10.9,16,10.9h57.5c13.1,0,16-10.9,16-10.9
	C75.8,71.9,49.7,51.3,49.7,51.3z M44.5,62.9c0,0-6.4,18.8-12.3,12.9C26.3,69.9,42.6,63.3,44.5,62.9z M29.4,59.3
	c0,0-4.2,3.4-1.3,11.1c3.3,8.7-2.9,10.8-5.4,8.3C17.1,73.1,27.3,59.9,29.4,59.3z M21.3,67.3c0,0-4.2,3.4-1.3,11.1
	c3.3,8.7-2.9,10.8-5.4,8.3C9,81.1,19.3,68,21.3,67.3z M8.4,102.6l-7.8,6.6c-1.6,1.6-3.5-1.6-2.7-2.4l6.6-8.1c0.7-0.7,1,0.8,2,1.9
	C7.6,101.7,9.1,102,8.4,102.6z M6.3,95C0.7,89.4,11,76.3,13,75.6c0,0-4.3,3.4-1.3,11.1C15,95.4,8.8,97.5,6.3,95z M12.3,101
	c-2.5-2.5-0.5-8.7,8.3-5.4c7.8,2.9,11.1-1.3,11.1-1.3C31.1,96.3,17.9,106.6,12.3,101z M20.6,92.7c-2.5-2.5-0.5-8.7,8.3-5.4
	C36.6,90.2,40,86,40,86C39.3,88,26.2,98.3,20.6,92.7z M28.6,84.7c-2.5-2.5-0.5-8.7,8.3-5.4c7.7,3,11.1-1.3,11.1-1.3
	C47.4,80,34.2,90.2,28.6,84.7z"/>
</svg>
