<?xml version="1.0" encoding="utf-8"?>
<!-- Generator: Adobe Illustrator 19.1.0, SVG Export Plug-In . SVG Version: 6.00 Build 0)  -->
<svg version="1.1" id="Layer_1" xmlns="http://www.w3.org/2000/svg" xmlns:xlink="http://www.w3.org/1999/xlink" x="0px" y="0px"
	 viewBox="-39 20.7 61.3 100" style="enable-background:new -39 20.7 61.3 100;" xml:space="preserve">
<style type="text/css">
	.st0{fill:#EE2A24;}
</style>
<polygon class="st0" points="-38.5,61.2 20.7,61.2 8.1,120.7 -26.8,120.7 -38.2,62.4 "/>
<path class="st0" d="M-8.4,20.7C-25.3,20.7-39,34.4-39,51.4c0,1.8,1.4,3.2,3.2,3.2c1.8,0,3.2-1.4,3.2-3.2
	c0-13.4,10.8-24.2,24.2-24.3C5,27.1,15.9,38,15.9,51.4c0,1.8,1.4,3.2,3.2,3.2c1.8,0,3.2-1.4,3.2-3.2C22.3,34.4,8.6,20.7-8.4,20.7z"
	/>
</svg>
