<?xml version="1.0" encoding="utf-8"?>
<!-- Generator: Adobe Illustrator 19.1.0, SVG Export Plug-In . SVG Version: 6.00 Build 0)  -->
<svg version="1.1" id="Layer_1" xmlns="http://www.w3.org/2000/svg" xmlns:xlink="http://www.w3.org/1999/xlink" x="0px" y="0px"
	 viewBox="-20 20.7 100 100" style="enable-background:new -20 20.7 100 100;" xml:space="preserve">
<style type="text/css">
	.st0{fill:#EE2A24;}
</style>
<path class="st0" d="M72,34.4c-32.7-0.3-39.7-8.8-53.6-8.8c-16.5,0-26.3,4.6-30.4,7.1c-3.1,1.7-2.4-1.5-2.4-2.6
	c0-1.1,1.8-2.2,1.8-2.2c3.8-2.5,13.7-7.4,31-7.4c13.9,0,21,8.6,53.8,8.8c0,0,2.5-0.3,2.5,2S74.5,34.4,72,34.4z"/>
<path class="st0" d="M74.6,117.2c0-2.2-2.5-2-2.5-2c-32.8-0.2-39.9-8.8-53.8-8.8c-17.3,0-27.1,5-31,7.4c0,0-1.8,1.1-1.8,2.2
	c0,1.1-0.7,4.3,2.4,2.6c4.2-2.6,13.9-7.1,30.4-7.1c13.9,0,21,8.5,53.6,8.8C74.5,120.4,74.6,119.4,74.6,117.2z"/>
<path class="st0" d="M74.6,41.8c0-2.2-2.5-2-2.5-2C39.4,39.6,32.3,31,18.4,31c-17.3,0-27.1,5-31,7.4c0,0-1.8,1.1-1.8,2.2v64.6
	c0,1.1-0.7,4.3,2.4,2.6c4.2-2.6,13.9-7.1,30.4-7.1c13.9,0,21,8.5,53.6,8.8c2.5,0,2.7-1,2.7-3.2C74.6,106.4,74.6,41.8,74.6,41.8z"/>
</svg>
