<?xml version="1.0" encoding="utf-8"?>
<!-- Generator: Adobe Illustrator 19.1.0, SVG Export Plug-In . SVG Version: 6.00 Build 0)  -->
<svg version="1.1" id="Layer_1" xmlns="http://www.w3.org/2000/svg" xmlns:xlink="http://www.w3.org/1999/xlink" x="0px" y="0px"
	 viewBox="-21 20.7 97.4 100" style="enable-background:new -21 20.7 97.4 100;" xml:space="preserve">
<style type="text/css">
	.st0{fill:#EE2A24;}
</style>
<path class="st0" d="M76.3,63.8l0-0.3l-0.1-0.3c-2.1-5.1-9.5-6.4-18.5-6.7c-9.5,0.4-17.7,1.7-18.8,7.9v9.7c0.3,1.6,1,2.9,2.2,3.9
	v35.7c1.1,5.7,8.2,6.6,16.4,7c8.2-0.4,15.3-1.3,16.3-7l0-35.4c1.4-1.1,2.4-2.4,2.7-4.2L76.3,63.8z M57.3,60.7c0.1,0,0.3,0,0.4,0
	c4.1,0,7.9,0.6,10.6,1.4c1.7,0.5,2.7,1.2,3.3,1.7c-0.7,0.5-1.7,1.1-3.3,1.6c-2.7,0.9-6.5,1.4-10.6,1.4c-4.4,0-8.5-0.7-11.2-1.6
	c-1.3-0.5-2.3-1-2.9-1.5C45.4,62.2,50.9,60.7,57.3,60.7z M69.7,113.7c0,0,0,0-0.4,0.4c-1.4,1.2-6.3,2.6-11.9,2.6
	c-3.8,0-7.2-0.5-9.5-1.4c-1.1-0.4-2-0.9-2.4-1.2c-0.4-0.4-0.3-0.4-0.4-0.4v-7.1c5.4,2.1,12.2,1.8,12.2,1.8V89.6
	c-5.6,0-9.9-1.6-12.2-2.7v-6.7c3.4,1.1,7.8,1.5,12.6,1.7c4.5-0.2,8.7-0.6,12-1.6C69.7,80.4,69.7,113.7,69.7,113.7z M71.8,74.8
	c-1.7,1.5-7.5,3.2-14.1,3.1c-4.4,0-8.4-0.6-11.2-1.6c-1.4-0.5-2.4-1-3-1.5c-0.6-0.5-0.6-0.7-0.6-0.7v-6.2c3.5,1.9,8.8,2.6,14.8,2.8
	c5.9-0.2,11.1-0.9,14.6-2.7l0.1,6C72.4,74.1,72.4,74.3,71.8,74.8z"/>
<path class="st0" d="M25.5,34.3H8.2v-9.7h6c1.1,0,1.9-0.9,1.9-1.9c0-1.1-0.9-1.9-1.9-1.9h-22c-1.1,0-1.9,0.9-1.9,1.9
	c0,1.1,0.9,1.9,1.9,1.9h6v9.7h-17.3c-1,0-1.9,0.9-1.9,1.9c0,1,0.9,1.9,1.9,1.9h13.6v52.4h4.6v4.5c0,0-0.3,1.4,2.1,2.1v21.8
	c0,1.1,0.9,1.9,1.9,1.9s1.9-0.9,1.9-1.9V97c2.4-0.7,2.1-2.1,2.1-2.1v-4.5h4.6V38.1h13.6c1,0,1.9-0.8,1.9-1.9
	C27.4,35.2,26.6,34.3,25.5,34.3z M8.3,63.6H-1.9V38.1H8.3L8.3,63.6L8.3,63.6z"/>
</svg>
