<?xml version="1.0" encoding="utf-8"?>
<!-- Generator: Adobe Illustrator 19.1.0, SVG Export Plug-In . SVG Version: 6.00 Build 0)  -->
<svg version="1.1" id="Layer_1" xmlns="http://www.w3.org/2000/svg" xmlns:xlink="http://www.w3.org/1999/xlink" x="0px" y="0px"
	 viewBox="-20 27.6 100 87.2" style="enable-background:new -20 27.6 100 87.2;" xml:space="preserve">
<style type="text/css">
	.st0{fill:#EE2A24;}
</style>
<polygon class="st0" points="14.8,81.9 12.9,80.8 21,72.4 22.9,73.4 "/>
<polygon class="st0" points="33.3,71.6 14.1,91.5 16,92.6 35.1,72.6 "/>
<path class="st0" d="M80,44.5c-0.1-8.6-3.6-16.5-10.6-16.9c0,0,0,0-0.1,0l-63.5,0C-1.1,28-4.6,35.9-4.8,44.5
	c0.1,8.3,3.4,15.8,9.7,16.8l-25,53.5l69.8-0.1l27.9-59.1l-0.1,0C79.1,52.5,79.9,48.6,80,44.5z M1.8,53.8c-1.3-2.2-2.2-5.6-2.2-9.3
	c0-3.7,0.9-7.1,2.2-9.3c1.3-2.3,2.8-3.2,4-3.2h56.4c-2.2,3.2-3.3,7.7-3.4,12.5c0.1,4.8,1.2,9.3,3.4,12.5H5.8
	C4.7,57,3.2,56.1,1.8,53.8z M47.3,110.1l-59.3,0.1L9.6,61.4h59.8c0.1,0,0.2-0.1,0.4-0.1L47.3,110.1z M73.4,53.8
	c-1.3,2.3-2.8,3.2-4,3.2c-1.2,0-2.6-0.9-4-3.2c-1.3-2.2-2.2-5.6-2.2-9.3c0-3.7,0.9-7.1,2.2-9.3c1.3-2.3,2.8-3.2,4-3.2
	c1.2,0,2.7,0.9,4,3.2c1.3,2.3,2.2,5.6,2.1,9.3C75.6,48.2,74.7,51.6,73.4,53.8z"/>
<polygon class="st0" points="23.1,93.5 24.9,94.5 37.9,81.1 36,80 "/>
</svg>
