<?xml version="1.0" encoding="utf-8"?>
<!-- Generator: Adobe Illustrator 19.1.0, SVG Export Plug-In . SVG Version: 6.00 Build 0)  -->
<svg version="1.1" id="Layer_1" xmlns="http://www.w3.org/2000/svg" xmlns:xlink="http://www.w3.org/1999/xlink" x="0px" y="0px"
	 viewBox="-20 36 100 70.8" style="enable-background:new -20 36 100 70.8;" xml:space="preserve">
<style type="text/css">
	.st0{fill:#EE2A24;}
</style>
<path class="st0" d="M22.7,68c1,2,5.4,12.3,5.4,13.8c0,8.1-10.9,8.1-10.9,0C17.3,80.3,21.8,69.5,22.7,68z"/>
<path class="st0" d="M29.2,63.4c0-1.1,0-3,0-6.3c0-4-3.6-7.4-8.4-7.4c0,0,0,0-11.2,0l-0.1-3.5c0-1-0.8-1.8-1.8-1.8H3.4v-2.2
	c0.4-0.2,0.7-0.5,1-0.9c1.3,0,4,0,9.3,0c0.6,0.8,1.5,1.4,2.6,1.4c1.9,0,3.4-1.5,3.4-3.4c0-1.8-1.5-3.3-3.4-3.3
	c-1.1,0-2.1,0.6-2.7,1.4c-1.5,0-4.2,0-9.2,0C3.7,36.5,2.8,36,1.7,36s-2.1,0.6-2.7,1.4c-2.8,0-6.2,0-10.2,0c-0.6-0.8-1.6-1.4-2.7-1.4
	c-1.9,0-3.4,1.5-3.4,3.3c0,1.9,1.5,3.4,3.4,3.4c1.1,0,2-0.5,2.6-1.4c1.7,0,4.7,0,10.3,0c0.3,0.4,0.6,0.6,1,0.9v2.2h-4.6
	c-1,0-1.8,0.8-1.8,1.8v3.5c-1.1,0-4.4,0-13.6,0v10.9c0.3,0,2.5,0,15.1,0c1.5,3,3.5,4.4,6.4,4.4c3,0,5.4-1.5,6.9-4.4c0,0,0,0,5.4,0
	c1.6,0,2.2,1,2.4,3c-0.5,0.3-0.8,0.8-0.8,1.5c0,1,0.8,1.8,1.8,1.8h11.3c1,0,1.8-0.8,1.8-1.8C30.4,64.3,29.9,63.7,29.2,63.4z"/>
<path class="st0" d="M30.8,94.8c-0.2,0.8-0.1,1.6,0.1,2.4c0.2,0.7,0.6,1.4,1.1,2c1.8,1.8,4.8,1.9,6.7,0.1l9.2-9l1.2,1.2l-9.3,9
	c-2.5,2.5-6.6,2.4-9.1-0.1c-0.9-0.9-1.3-2-1.6-3.1H9.9c-2.6,0-4.8,2.1-4.8,4.7c0,2.6,2.1,4.8,4.8,4.8h33.5c1.1,0,2.1-0.4,2.9-1.1
	l21.8-16.5H80V73h-0.1v-0.2H52.4L32.2,92.5C31.5,93.1,31.1,93.9,30.8,94.8z"/>
</svg>
