<?xml version="1.0" encoding="utf-8"?>
<!-- Generator: Adobe Illustrator 19.1.0, SVG Export Plug-In . SVG Version: 6.00 Build 0)  -->
<svg version="1.1" id="Layer_1" xmlns="http://www.w3.org/2000/svg" xmlns:xlink="http://www.w3.org/1999/xlink" x="0px" y="0px"
	 viewBox="-20 20.7 100 100" style="enable-background:new -20 20.7 100 100;" xml:space="preserve">
<style type="text/css">
	.st0{fill:#EE2A24;}
</style>
<path class="st0" d="M63.4,66.5H-3.4C-3.4,55.1,5.8,46,17.1,46h5.7V20.5h14.4V46h5.7C54.2,46,63.4,55.1,63.4,66.5z"/>
<path class="st0" d="M33.4,74.6L33.4,74.6c0-1.9-1.5-3.4-3.4-3.4s-3.4,1.5-3.4,3.4c0,1.9,1.5,3.4,3.4,3.4
	C31.9,78,33.4,76.5,33.4,74.6z"/>
<path class="st0" d="M33.4,103L33.4,103c0-2-1.5-3.4-3.4-3.4s-3.4,1.6-3.4,3.4c0,1.9,1.5,3.4,3.4,3.4
	C31.9,106.4,33.4,104.9,33.4,103z"/>
<path class="st0" d="M33.4,88.8L33.4,88.8c0-2-1.5-3.4-3.4-3.4s-3.4,1.6-3.4,3.4c0,1.9,1.5,3.4,3.4,3.4
	C31.9,92.2,33.4,90.7,33.4,88.8z"/>
<path class="st0" d="M33.4,117.1L33.4,117.1c0-1.9-1.5-3.4-3.4-3.4s-3.4,1.6-3.4,3.4c0,1.9,1.5,3.4,3.4,3.4
	C31.9,120.5,33.4,119,33.4,117.1z"/>
<path class="st0" d="M70.1,116.4c1.8-0.7,2.6-2.7,1.9-4.4l0-0.1c-0.7-1.8-2.7-2.6-4.4-1.9c-1.8,0.7-2.6,2.7-1.9,4.5
	c0.5,1.3,1.8,2.1,3.2,2.1C69.2,116.7,69.7,116.6,70.1,116.4z"/>
<path class="st0" d="M65.4,103.6c1.8-0.7,2.6-2.7,1.9-4.4l0-0.1c-0.7-1.8-2.7-2.6-4.4-1.9c-1.8,0.7-2.6,2.7-1.9,4.5
	c0.5,1.3,1.8,2.1,3.2,2.1C64.5,103.8,64.9,103.7,65.4,103.6z"/>
<path class="st0" d="M60.4,90.8c1.8-0.5,2.8-2.4,2.3-4.2l0-0.1c-0.5-1.8-2.4-2.8-4.2-2.3c-1.8,0.5-2.8,2.5-2.3,4.3
	c0.4,1.5,1.8,2.4,3.3,2.4C59.7,90.9,60,90.9,60.4,90.8z"/>
<path class="st0" d="M55.9,77.8c1.8-0.7,2.6-2.7,1.9-4.4l0-0.1c-0.7-1.7-2.7-2.6-4.4-1.9c-1.8,0.7-2.6,2.7-1.9,4.5
	c0.5,1.3,1.8,2.1,3.2,2.1C55.1,78.1,55.5,78,55.9,77.8z"/>
<path class="st0" d="M50,118.6c1.9-0.4,3.1-2.2,2.7-4l0-0.1c-0.4-1.8-2.2-3-4-2.6c-1.9,0.4-3,2.2-2.7,4c0.3,1.6,1.7,2.7,3.3,2.7
	C49.5,118.7,49.8,118.7,50,118.6z"/>
<path class="st0" d="M47.5,105.1c1.9-0.2,3.2-1.9,3.1-3.7l0-0.1c-0.2-1.9-1.8-3.2-3.7-3c-1.9,0.2-3.2,1.9-3.1,3.8
	c0.2,1.8,1.7,3.1,3.4,3.1C47.3,105.2,47.4,105.2,47.5,105.1z"/>
<path class="st0" d="M45.8,91.5c1.8-0.4,3-2.2,2.7-4l0-0.1c-0.4-1.8-2.2-3-4-2.6c-1.8,0.4-3,2.2-2.7,4c0.3,1.6,1.7,2.7,3.3,2.7
	C45.3,91.6,45.5,91.6,45.8,91.5z"/>
<path class="st0" d="M43.6,78c1.9-0.4,3.1-2.2,2.7-4l0-0.1c-0.4-1.8-2.2-3-4-2.6c-1.9,0.4-3,2.2-2.7,4c0.3,1.6,1.7,2.7,3.3,2.7
	C43.2,78.1,43.4,78,43.6,78z"/>
<path class="st0" d="M-5.6,114.5L-5.6,114.5c0.7-1.8-0.1-3.8-1.9-4.5c-1.7-0.7-3.7,0.2-4.4,1.9c-0.7,1.7,0.1,3.7,1.9,4.4
	c0.4,0.2,0.8,0.2,1.3,0.2C-7.4,116.7-6.2,115.9-5.6,114.5z"/>
<path class="st0" d="M-0.9,101.7L-0.9,101.7c0.7-1.8-0.1-3.8-1.9-4.5c-1.7-0.7-3.7,0.2-4.4,1.9c-0.7,1.7,0.1,3.7,1.9,4.4
	c0.4,0.2,0.8,0.2,1.3,0.2C-2.7,103.8-1.4,103-0.9,101.7z"/>
<path class="st0" d="M3.9,88.5L3.9,88.5c0.6-1.9-0.5-3.7-2.3-4.3c-1.8-0.6-3.7,0.5-4.3,2.3c-0.5,1.8,0.5,3.7,2.3,4.2
	c0.3,0.1,0.7,0.1,1,0.1C2.1,90.9,3.5,90,3.9,88.5z"/>
<path class="st0" d="M8.5,75.9L8.5,75.9c0.7-1.8-0.1-3.8-1.9-4.5c-1.7-0.7-3.7,0.2-4.4,1.9c-0.7,1.7,0.1,3.7,1.9,4.4
	c0.4,0.2,0.8,0.2,1.3,0.2C6.7,78.1,8,77.2,8.5,75.9z"/>
<path class="st0" d="M14,116L14,116c0.4-1.9-0.8-3.7-2.7-4c-1.8-0.4-3.6,0.9-4,2.7c-0.4,1.8,0.8,3.6,2.7,4c0.2,0.1,0.4,0.1,0.7,0.1
	C12.3,118.7,13.7,117.6,14,116z"/>
<path class="st0" d="M16.2,102.1L16.2,102.1c0.2-1.9-1.2-3.6-3.1-3.8c-1.9-0.2-3.5,1.2-3.7,3.1c-0.2,1.9,1.2,3.5,3.1,3.7
	c0.1,0,0.2,0,0.3,0C14.5,105.2,16,103.8,16.2,102.1z"/>
<path class="st0" d="M18.3,88.9L18.3,88.9c0.4-1.9-0.8-3.7-2.7-4c-1.8-0.4-3.6,0.9-4,2.7s0.8,3.6,2.7,4c0.2,0,0.4,0.1,0.7,0.1
	C16.5,91.6,17.9,90.5,18.3,88.9z"/>
<path class="st0" d="M20.4,75.3L20.4,75.3c0.4-1.9-0.8-3.7-2.7-4c-1.8-0.4-3.6,0.9-4,2.7c-0.4,1.8,0.8,3.6,2.7,4
	c0.2,0,0.4,0.1,0.7,0.1C18.6,78.1,20,76.9,20.4,75.3z"/>
</svg>
