<?xml version="1.0" encoding="utf-8"?>
<!-- Generator: Adobe Illustrator 19.1.0, SVG Export Plug-In . SVG Version: 6.00 Build 0)  -->
<svg version="1.1" id="Layer_1" xmlns="http://www.w3.org/2000/svg" xmlns:xlink="http://www.w3.org/1999/xlink" x="0px" y="0px"
	 viewBox="-20 20.7 100 100" style="enable-background:new -20 20.7 100 100;" xml:space="preserve">
<style type="text/css">
	.st0{fill:#EE2A24;}
</style>
<path class="st0" d="M80,97.1h-0.1v17.4h-99.8V97.1H-20c3.4,0,5.7-1.9,7.5-6.3c0-0.1,0.1-0.2,0.1-0.3l0,0c0.2-0.3,0.4-0.4,0.7-0.4
	c0.3,0,0.6,0.2,0.7,0.4h0c0,0,0,0.1,0,0.1c0,0.1,0.1,0.1,0.1,0.2c1.8,4.4,4.1,6.4,7.5,6.4h0c3.4,0,5.7-1.9,7.5-6.3
	c0-0.1,0.1-0.2,0.1-0.3h0c0.2-0.3,0.4-0.4,0.7-0.4c0.3,0,0.6,0.2,0.7,0.4h0c0,0,0,0.1,0,0.1c0,0.1,0.1,0.1,0.1,0.2
	c1.8,4.3,4,6.3,7.3,6.3c3.3-0.1,5.5-2,7.3-6.3c0-0.1,0.1-0.2,0.1-0.3l0,0c0.2-0.3,0.4-0.4,0.7-0.4c0.3,0,0.6,0.2,0.7,0.4h0
	c0,0,0,0.1,0,0.1c0,0.1,0.1,0.1,0.1,0.2c1.8,4.4,4.1,6.4,7.5,6.4h0c3.4,0,5.7-1.9,7.5-6.3c0-0.1,0.1-0.2,0.1-0.3l0,0
	c0.2-0.3,0.4-0.4,0.7-0.4s0.6,0.2,0.7,0.4h0c0,0,0,0.1,0,0.1c0,0.1,0.1,0.1,0.1,0.2c1.8,4.3,4,6.3,7.4,6.3c3.3-0.1,5.6-2,7.4-6.3
	c0-0.1,0.1-0.2,0.1-0.3l0,0c0.2-0.3,0.4-0.4,0.7-0.4c0.3,0,0.6,0.2,0.7,0.4h0c0,0,0,0.1,0.1,0.1c0,0.1,0,0.1,0.1,0.2
	c1.8,4.4,4.1,6.4,7.5,6.4h0c3.4,0,5.7-1.9,7.5-6.3c0-0.1,0.1-0.2,0.1-0.3l0,0c0.2-0.3,0.4-0.4,0.7-0.4c0.3,0,0.6,0.2,0.7,0.4h0
	c0,0,0,0.1,0.1,0.1c0,0.1,0,0.1,0.1,0.2C74.3,95.2,76.5,97.1,80,97.1z"/>
<path class="st0" d="M60.1,65.6c-0.5-1.2-1.2-2.2-2.1-3c-0.8-0.9-1.9-1.5-3-2c-1.2-0.5-2.4-0.8-3.8-0.8h-32v21.2
	c0,1.4,0.5,2.5,1.4,3.4c0.9,0.9,2,1.3,3.4,1.3h21.5c1.3,0,2.5-0.4,3.4-1.3c0.9-0.9,1.4-2,1.4-3.4v-2.1h1c1.3,0,2.6-0.3,3.8-0.8
	c1.2-0.5,2.2-1.2,3-2.1c0.9-0.8,1.5-1.8,2.1-3c0.5-1.1,0.8-2.4,0.8-3.7C60.9,68,60.6,66.7,60.1,65.6z M55.4,73.4
	c-1.1,1.1-2.5,1.7-4.1,1.7h-1V63.5h1c1.7,0,3,0.5,4.1,1.6c1.1,1.1,1.7,2.5,1.7,4.2C57.1,70.9,56.5,72.3,55.4,73.4z"/>
<path class="st0" d="M38.4,46.9c-0.2-11.2-8.6-20.5-19.5-20.5c-11,0-19.6,9.5-19.6,20.8v38.4h6.9V47.2c0-7.8,5.9-13.9,12.6-13.9
	c6.6,0,12.5,5.9,12.6,13.6h-5.4l9,9.1l9.1-9.1L38.4,46.9L38.4,46.9z"/>
</svg>
