<?xml version="1.0" encoding="utf-8"?>
<!-- Generator: Adobe Illustrator 19.1.0, SVG Export Plug-In . SVG Version: 6.00 Build 0)  -->
<svg version="1.1" id="Layer_1" xmlns="http://www.w3.org/2000/svg" xmlns:xlink="http://www.w3.org/1999/xlink" x="0px" y="0px"
	 viewBox="-20 31.5 100 79.2" style="enable-background:new -20 31.5 100 79.2;" xml:space="preserve">
<style type="text/css">
	.st0{fill:#EE2A24;}
</style>
<path class="st0" d="M1.6,31.5c-11.9,0-21.6,4.6-21.6,10.4v64.8v2.3v1.8h3.6V109h35.9v1.8h3.7V109v-2.3V41.9
	C23.2,36.2,13.5,31.5,1.6,31.5z M17.6,74.8H15v-8.4h2.6C17.6,66.4,17.6,74.8,17.6,74.8z M-17.3,41.9c0-3.2,7.2-7.6,18.9-7.6
	c11.7,0,18.9,4.4,18.9,7.6H-17.3z"/>
<path class="st0" d="M58.4,31.5c-11.9,0-21.6,4.6-21.6,10.4v64.8v2.3v1.8h3.6V109h35.9v1.8H80V109v-2.3V41.9
	C80,36.2,70.3,31.5,58.4,31.5z M74.4,74.8h-2.6v-8.4h2.6V74.8z M39.5,41.9c0-3.2,7.2-7.6,18.9-7.6c11.7,0,18.9,4.4,18.9,7.6H39.5z"
	/>
</svg>
