<?xml version="1.0" encoding="utf-8"?>
<!-- Generator: Adobe Illustrator 19.1.0, SVG Export Plug-In . SVG Version: 6.00 Build 0)  -->
<svg version="1.1" id="Layer_1" xmlns="http://www.w3.org/2000/svg" xmlns:xlink="http://www.w3.org/1999/xlink" x="0px" y="0px"
	 viewBox="-20 27.8 100 86.9" style="enable-background:new -20 27.8 100 86.9;" xml:space="preserve">
<style type="text/css">
	.st0{fill:#EE2A24;}
</style>
<path class="st0" d="M80,42.1v7.5H55.3v65.2h-6.1h-1.4H30H12.2h-1.4H4.7V49.6H-20v-7.5h32.2v31.6c1.2-0.4,2.1-1.5,2.9-3.3
	c0-0.1,0-0.1,0.1-0.2c0.1-0.2,0.2-0.3,0.4-0.3c0.2,0,0.3,0.1,0.4,0.3h0c0,0,0,0,0,0c0,0,0,0.1,0.1,0.1c1,2.4,2.3,3.5,4.3,3.5h0
	c2,0,3.3-1.1,4.3-3.5c0-0.1,0-0.1,0.1-0.2c0.1-0.2,0.2-0.3,0.4-0.3c0.2,0,0.3,0.1,0.4,0.3c0,0,0,0,0,0c0,0,0,0.1,0,0.1
	c1,2.4,2.3,3.5,4.2,3.5c1.9,0,3.2-1.1,4.2-3.5c0-0.1,0-0.1,0.1-0.2c0.1-0.2,0.2-0.3,0.4-0.3s0.3,0.1,0.4,0.3h0c0,0,0,0,0,0
	c0,0,0,0.1,0,0.1c1,2.4,2.3,3.5,4.3,3.5h0c2,0,3.3-1.1,4.3-3.5c0-0.1,0-0.1,0.1-0.2c0.1-0.2,0.3-0.3,0.4-0.3c0.2,0,0.3,0.1,0.4,0.3
	h0c0,0,0,0,0,0c0,0,0,0.1,0,0.1c0.8,1.8,1.7,2.8,2.9,3.3V42.1H80z"/>
<polygon class="st0" points="27.6,61.7 34,61.7 34,38.4 41.3,38.4 30.8,27.8 20.2,38.4 27.6,38.4 "/>
</svg>
