<?xml version="1.0" encoding="utf-8"?>
<!-- Generator: Adobe Illustrator 19.1.0, SVG Export Plug-In . SVG Version: 6.00 Build 0)  -->
<svg version="1.1" id="Layer_1" xmlns="http://www.w3.org/2000/svg" xmlns:xlink="http://www.w3.org/1999/xlink" x="0px" y="0px"
	 viewBox="-24 20.7 93 100" style="enable-background:new -24 20.7 93 100;" xml:space="preserve">
<style type="text/css">
	.st0{fill:#EE2A24;}
</style>
<path class="st0" d="M59.4,20.7l-3.2,21.6c-4.8-0.7-8.6-4.8-8.6-9.8c0-1-0.8-1.8-1.8-1.8c-1,0-1.8,0.8-1.8,1.8
	c0,5.5-4.4,9.9-9.9,9.9s-9.9-4.4-9.9-9.9c0-1-0.8-1.8-1.8-1.8c-1,0-1.8,0.8-1.8,1.8c0,5.5-4.4,9.9-9.9,9.9c-5.5,0-9.9-4.4-9.9-9.9
	c0-1-0.8-1.8-1.8-1.8c-1,0-1.8,0.8-1.8,1.8c0,5-3.7,9.1-8.6,9.8l-3.2-21.6H-24l14.6,100h63.8L69,20.7H59.4z M46.1,111.2H-1.1
	l-9.6-65.4c4.2-0.6,7.8-3,9.8-6.5c2.3,4,6.7,6.8,11.7,6.8c5,0,9.4-2.7,11.7-6.8c2.3,4,6.7,6.8,11.7,6.8c5,0,9.4-2.7,11.7-6.8
	c2,3.5,5.7,5.9,9.8,6.5L46.1,111.2z"/>
</svg>
