<?xml version="1.0" encoding="utf-8"?>
<!-- Generator: Adobe Illustrator 19.1.0, SVG Export Plug-In . SVG Version: 6.00 Build 0)  -->
<svg version="1.1" id="Layer_1" xmlns="http://www.w3.org/2000/svg" xmlns:xlink="http://www.w3.org/1999/xlink" x="0px" y="0px"
	 viewBox="-20 21.8 100 99" style="enable-background:new -20 21.8 100 99;" xml:space="preserve">
<style type="text/css">
	.st0{fill:#EE2A24;}
</style>
<path class="st0" d="M-20,57.9h19.6c-1.3,1.7-2.1,3.9-2.1,6.2h-9.7l-7.9-2V57.9z"/>
<path class="st0" d="M70.3,42.6l-5.5-16.7v-4.2H47.3v36.1h-5.1c-0.7-3-1.6-5.7-2.1-7.3c2.2-2.5,3.6-5.7,3.6-9.3V36
	c0-7.8-6.4-14.2-14.2-14.2H-5.8C-13.6,21.8-20,28.2-20,36v5.2c0,7.8,6.4,14.2,14.2,14.2h35.2c2.8,0,5.3-0.8,7.5-2.2
	c0.4,1.3,0.9,2.9,1.3,4.6h-22c1.3,1.7,2.1,3.9,2.1,6.2h21.3c0.6,3.6,0.8,7.3,0.1,9.9c-1,3.5-4.5,6.9-8,10.2
	c-3.7,3.5-7.5,7.2-8.9,11.5l3.6,1.2c1.1-3.4,4.6-6.7,7.9-9.9c3.8-3.7,7.8-7.4,9-11.9c0.9-3.1,0.7-7,0.1-11h7.3
	c0-5.7,4.7-10.4,10.4-10.4c4,0,7.5,2.3,9.3,5.7c0.6,1.2,1,2.6,1.1,4c0,0.2,0.1,0.5,0.1,0.7H80V46.8L70.3,42.6z M52.2,42.6V30.1H62
	l4.2,12.5H52.2z"/>
<path class="st0" d="M8,56.5c-4.2,0-7.7,3.4-7.7,7.6c0,4.2,3.4,7.6,7.7,7.6c4.2,0,7.6-3.4,7.6-7.6C15.6,59.9,12.2,56.5,8,56.5z
	 M8,68.3c-2.3,0-4.2-1.9-4.2-4.2C3.8,61.8,5.6,60,8,60c2.3,0,4.2,1.9,4.2,4.2C12.1,66.4,10.3,68.3,8,68.3z"/>
<path class="st0" d="M61.3,56.5c-4.2,0-7.7,3.4-7.7,7.6c0,4.2,3.4,7.6,7.7,7.6c4.2,0,7.6-3.4,7.6-7.6C68.9,59.9,65.5,56.5,61.3,56.5
	z M61.3,68.3c-2.3,0-4.2-1.9-4.2-4.2c0-2.3,1.9-4.2,4.2-4.2c2.3,0,4.2,1.9,4.2,4.2C65.4,66.4,63.6,68.3,61.3,68.3z"/>
<g>
	<path class="st0" d="M16.5,119.8l0-0.1c0.3-0.7-0.1-1.5-0.8-1.8c-0.7-0.3-1.5,0.1-1.8,0.8l0,0.1c-0.3,0.7,0.1,1.5,0.8,1.8
		c0.2,0.1,0.3,0.1,0.5,0.1C15.7,120.7,16.3,120.4,16.5,119.8z"/>
	<path class="st0" d="M18,115.8l0.1-0.1c0.3-0.7-0.1-1.5-0.8-1.8c-0.7-0.3-1.5,0.1-1.8,0.8l-0.1,0.1c-0.3,0.7,0.1,1.5,0.8,1.8
		c0.2,0.1,0.3,0.1,0.5,0.1C17.2,116.7,17.8,116.4,18,115.8z"/>
	<path class="st0" d="M19.5,111.8l0-0.1c0.3-0.7-0.1-1.5-0.8-1.8c-0.7-0.3-1.5,0.1-1.8,0.8l0,0.1c-0.3,0.7,0.1,1.5,0.8,1.8
		c0.2,0.1,0.3,0.1,0.5,0.1C18.8,112.7,19.3,112.4,19.5,111.8z"/>
	<path class="st0" d="M21,107.8l0.1-0.1c0.3-0.7-0.1-1.5-0.8-1.8c-0.7-0.3-1.5,0.1-1.8,0.8l-0.1,0.1c-0.3,0.7,0.1,1.5,0.8,1.8
		c0.2,0.1,0.3,0.1,0.5,0.1C20.3,108.7,20.8,108.4,21,107.8z"/>
	<path class="st0" d="M22.5,103.8l0-0.1c0.3-0.7-0.1-1.5-0.8-1.8c-0.7-0.3-1.5,0.1-1.8,0.8l0,0.1c-0.3,0.7,0.1,1.5,0.8,1.8
		c0.2,0.1,0.3,0.1,0.5,0.1C21.8,104.7,22.3,104.4,22.5,103.8z"/>
</g>
<path class="st0" d="M24,99.8c0.3-0.7-0.1-1.5-0.8-1.8c-0.7-0.3-1.5,0.1-1.8,0.8l0,0.1c-0.3,0.7,0.1,1.5,0.8,1.8
	c0.2,0.1,0.3,0.1,0.5,0.1C23.3,100.7,23.8,100.3,24,99.8z"/>
<g>
	<path class="st0" d="M26.5,118.8v-0.1c0-0.8-0.6-1.4-1.4-1.4s-1.4,0.6-1.4,1.4v0.1c0,0.8,0.6,1.4,1.4,1.4S26.5,119.6,26.5,118.8z"
		/>
	<path class="st0" d="M26.5,114.3v-0.2c0-0.8-0.6-1.4-1.4-1.4s-1.4,0.6-1.4,1.4v0.2c0,0.8,0.6,1.4,1.4,1.4S26.5,115.1,26.5,114.3z"
		/>
	<path class="st0" d="M26.5,109.8v-0.1c0-0.8-0.6-1.4-1.4-1.4s-1.4,0.6-1.4,1.4v0.1c0,0.8,0.6,1.4,1.4,1.4S26.5,110.5,26.5,109.8z"
		/>
</g>
<path class="st0" d="M26.5,105.2c0-0.8-0.6-1.4-1.4-1.4s-1.4,0.6-1.4,1.4v0.1c0,0.8,0.6,1.3,1.4,1.3S26.5,105.9,26.5,105.2z"/>
<g>
	<path class="st0" d="M7.4,114.2c0.5-0.6,0.5-1.4-0.1-2c-0.6-0.5-1.4-0.5-2,0.1l-0.1,0.1c-0.5,0.6-0.5,1.4,0.1,1.9
		c0.3,0.2,0.6,0.4,0.9,0.4C6.7,114.7,7.1,114.5,7.4,114.2z"/>
	<path class="st0" d="M10.1,111.3c0.5-0.6,0.5-1.4-0.1-2c-0.6-0.5-1.4-0.5-2,0.1L8,109.5c-0.5,0.6-0.4,1.4,0.1,1.9
		c0.3,0.2,0.6,0.4,0.9,0.4C9.4,111.8,9.8,111.6,10.1,111.3z"/>
	<path class="st0" d="M12.8,108.5c0.5-0.5,0.5-1.4-0.1-2c-0.6-0.5-1.4-0.5-2,0.1l-0.1,0.1c-0.5,0.5-0.5,1.4,0.1,1.9
		c0.3,0.2,0.6,0.4,0.9,0.4C12.1,108.9,12.5,108.8,12.8,108.5z"/>
	<path class="st0" d="M15.5,105.6c0.5-0.5,0.5-1.4-0.1-2c-0.6-0.5-1.4-0.5-2,0.1l-0.1,0.1c-0.5,0.5-0.4,1.4,0.1,1.9
		c0.3,0.2,0.6,0.4,0.9,0.4C14.8,106.1,15.2,105.9,15.5,105.6z"/>
</g>
<path class="st0" d="M18.1,102.8c0.5-0.6,0.5-1.4-0.1-2c-0.6-0.5-1.4-0.5-1.9,0.1l0,0.1c-0.5,0.6-0.5,1.4,0.1,1.9
	c0.3,0.2,0.6,0.4,0.9,0.4C17.5,103.2,17.9,103.1,18.1,102.8z"/>
</svg>
