<?xml version="1.0" encoding="utf-8"?>
<!-- Generator: Adobe Illustrator 19.1.0, SVG Export Plug-In . SVG Version: 6.00 Build 0)  -->
<svg version="1.1" id="Layer_1" xmlns="http://www.w3.org/2000/svg" xmlns:xlink="http://www.w3.org/1999/xlink" x="0px" y="0px"
	 viewBox="-21 20.7 98.4 100" style="enable-background:new -21 20.7 98.4 100;" xml:space="preserve">
<style type="text/css">
	.st0{fill:#EE2A24;}
</style>
<path class="st0" d="M-21,47.9l5.1,64.7c0,3.9,11,7,24.6,7s24.6-3.1,24.6-7l5.1-64.7C38.5,47.9-21,47.9-21,47.9z M-6.4,111.8
	C-6.4,111.8-6.4,111.8-6.4,111.8c-1.1,0-1.9-0.8-2-1.8l-2.3-53.1c0-1,0.8-1.9,1.8-2c1-0.1,1.9,0.8,2,1.8l2.3,53.1
	C-4.5,110.9-5.3,111.8-6.4,111.8z M10.7,110c0,1-0.8,1.9-1.9,1.9c-1,0-1.9-0.9-1.9-1.9V56.8c0-1,0.9-1.9,1.9-1.9
	c1.1,0,1.9,0.9,1.9,1.9V110z M25.9,110c-0.1,1-0.9,1.8-1.9,1.8c0,0-0.1,0-0.1,0c-1,0-1.9-0.9-1.8-2l2.3-53.1c0.1-1,0.8-2,2-1.8
	c1,0,1.9,0.9,1.8,2L25.9,110z"/>
<path class="st0" d="M16.3,25.9l-3.1,0.5C13,24.6,12,23,10.5,22c-1.5-1.1-3.2-1.5-5.1-1.2c-3.7,0.6-6.2,4.1-5.6,7.8l-3,0.5
	c-16.2,2.7-18.4,11-17.8,14.3l58.8-9.8C37.3,30.4,32.6,23.2,16.3,25.9z M3.7,28c-0.1-0.8,0.1-1.6,0.5-2.2c0.5-0.6,1.1-1.1,1.9-1.2
	c1.6-0.3,3.1,0.8,3.4,2.4L3.7,28z"/>
<path class="st0" d="M62.3,90.5c0.3,0.4,0.5,0.8,0.7,1.1c0.3,0.9-0.1,1.6-1.1,1.9l-2.9,1l-1.9-2.2c-0.4-1.1,0.1-2.1,1.4-3.1
	L62.3,90.5z"/>
<path class="st0" d="M48.9,82.8l3.8,1.3c0.3,0.4,0.5,0.8,0.7,1.1c0.3,0.9,0,1.6-1.1,1.9l-2.9,0.9l-1.9-2.2
	C47.1,84.8,47.6,83.8,48.9,82.8z"/>
<path class="st0" d="M55.9,85.8l-0.1-4.5c0.6-0.5,1.1-0.8,1.6-1c0.9-0.3,1.8-0.2,2.6,0.2c0.8,0.4,1.4,1,1.6,1.6
	c0.3,0.8-0.2,1.9-1.3,3.2L55.9,85.8z"/>
<path class="st0" d="M74.2,94.2c-0.3,0.1-1.3,0.5-3.1,1.3l-1.6,0.1l-0.9-0.9c-0.5-0.6-0.9-1-1-1.5c-0.5-1.6-0.7-3.3-0.5-4.9
	c0.2-1.6,0.8-2.6,1.8-2.9c0.7,0.3,1.4,0.5,2.1,0.8c1.4,0.4,2.2,0.6,2.4,0.6l0-0.1c0.9-0.3,1.5,0.2,2,1.5c0.4,1.1,0.5,2.3,0.2,3.6
	S74.8,93.8,74.2,94.2z"/>
<path class="st0" d="M77.4,104.8l-3.2,1.1c-1.3-0.2-2.4-0.6-3-1.2l0.9-3.4l3.7-1.2L77.4,104.8z"/>
<path class="st0" d="M53.3,103l-3.2,1.1c-1.3-0.2-2.3-0.6-3-1.2l0.9-3.4l3.7-1.2L53.3,103z"/>
<path class="st0" d="M64.4,107.4c1.1,1.3,2.3,3.6,3.4,6.9c0.1,0.4,0.1,0.8-0.1,1.3c-0.2,0.5-0.5,0.9-0.8,1.4
	c-0.4,0.4-0.8,0.9-1.4,1.2c-0.6,0.4-1.1,0.6-1.7,0.8l-5.1,1.7c-0.2-0.5-1.2-1.4-2.9-2.9c-1.6-1.5-2.5-2.2-2.5-2.3
	c-0.4-1.2-0.2-2.8,0.7-4.8c0.9-2.1,2-3.8,3.2-4.9l0.4-0.1C60.3,104.7,62.6,105.3,64.4,107.4z"/>
<path class="st0" d="M44.1,48.8c-0.2-0.2-2.4-2-2.6-2.2c-1.5-1-3.7-0.6-5.5-1c-1.8-0.4-3.4-1.2-5.1-1.6c-1.9-0.4-4.3-0.6-6.3-0.4
	c-2.7,0.2-4.9,1.5-7.7,1.5c2.1-1.1,3.5-3.7,5.8-4.5c2.3-0.8,5.6-2.6,7.7-3.7c3.4-1.8,10,0.3,9.8-0.3c0,0,5.7,3.8,7.2,4.7l6,5.6
	c0.8,0.6-1,9.4-1,9.4l-4,2.8l-1-3.9L45,53.6C44.7,53.6,44.8,49.5,44.1,48.8z"/>
<path class="st0" d="M47.7,73.3c0,0-2.7,0.2-5.8-3v-6.7h5.8C47.7,63.7,51.3,69.7,47.7,73.3z"/>
<path class="st0" d="M60.7,69.7l-1.5-10.5l6.5,4.3l4.8,4.3c0,0,1,5.6,1,7.8h-5.4C66.1,75.7,60.7,74.6,60.7,69.7z"/>
</svg>
