<?xml version="1.0" encoding="utf-8"?>
<!-- Generator: Adobe Illustrator 19.1.0, SVG Export Plug-In . SVG Version: 6.00 Build 0)  -->
<svg version="1.1" id="Layer_1" xmlns="http://www.w3.org/2000/svg" xmlns:xlink="http://www.w3.org/1999/xlink" x="0px" y="0px"
	 viewBox="-20 32.1 100 78.6" style="enable-background:new -20 32.1 100 78.6;" xml:space="preserve">
<style type="text/css">
	.st0{fill:#EE2A24;}
</style>
<path class="st0" d="M-20,94.3V53.8h35.9v40c-0.8,0.3-1.6,0.5-2.5,0.6C10,94.2,7.8,92.3,6,88c0-0.1,0-0.1-0.1-0.2c0,0,0,0,0-0.1h0
	c-0.2-0.3-0.4-0.4-0.7-0.4c-0.3,0-0.6,0.2-0.7,0.4h0c-0.1,0.1-0.1,0.2-0.1,0.3c-1.8,4.4-4.1,6.3-7.5,6.3h0c-3.5,0-5.7-2-7.5-6.4
	c0-0.1-0.1-0.1-0.1-0.2c0,0,0,0,0-0.1h0c-0.2-0.3-0.4-0.4-0.7-0.4c-0.3,0-0.6,0.2-0.7,0.4c-0.1,0.1-0.1,0.2-0.1,0.3
	C-14.3,92.4-16.6,94.3-20,94.3z"/>
<path class="st0" d="M44.1,53.8v40c0.8,0.3,1.6,0.5,2.5,0.5c3.4-0.1,5.6-2,7.4-6.3c0-0.1,0.1-0.2,0.1-0.3c0.2-0.3,0.4-0.4,0.7-0.4
	c0.3,0,0.6,0.2,0.7,0.4h0c0,0.1,0,0.1,0.1,0.1c0,0.1,0,0.1,0.1,0.2c1.8,4.4,4.1,6.4,7.5,6.4h0c3.5,0,5.7-2,7.5-6.3
	c0-0.1,0.1-0.2,0.1-0.3c0.2-0.3,0.4-0.4,0.7-0.4c0.3,0,0.6,0.2,0.7,0.4h0c0,0.1,0,0.1,0.1,0.1c0,0.1,0,0.1,0.1,0.2
	c1.8,4.4,4.1,6.4,7.5,6.4V53.8H44.1z"/>
<polygon class="st0" points="26.2,44.5 26.2,110.7 33.8,110.7 33.8,44.5 42.4,44.5 30,32.1 17.6,44.5 "/>
</svg>
