<?xml version="1.0" encoding="utf-8"?>
<!-- Generator: Adobe Illustrator 19.1.0, SVG Export Plug-In . SVG Version: 6.00 Build 0)  -->
<svg version="1.1" id="Layer_1" xmlns="http://www.w3.org/2000/svg" xmlns:xlink="http://www.w3.org/1999/xlink" x="0px" y="0px"
	 viewBox="-23 20.7 94.6 100" style="enable-background:new -23 20.7 94.6 100;" xml:space="preserve">
<style type="text/css">
	.st0{fill:#EE2A24;}
</style>
<path class="st0" d="M-4,83.9v24.4c0,0.9-0.3,1.7-0.9,2.3c-0.6,0.6-1.4,0.9-2.3,0.9c-1,0-1.8-0.3-2.4-0.9c-0.7-0.6-1-1.4-1-2.3V83.9
	h-9.1l9.5-32.1h-1.6c-1,3.6-1.9,6.5-2.6,8.8c-0.6,2.3-1.3,4.5-1.9,6.5c-0.7,2.1-1.1,3.4-1.2,3.8c-0.4,1.4-1.3,2-2.7,2l-0.7-0.2
	c-1.3-0.5-2-1.3-2-2.6c0-0.3,0-0.6,0.2-0.9c0.1-0.2,0.4-1,0.7-2.4c0.4-1.4,0.9-3,1.5-5c0.6-2,1.2-4.2,1.9-6.5
	c0.7-2.3,1.3-4.6,2.1-6.7c0.5-1.7,1.5-3.2,3-4.5c1.5-1.4,3.1-2,4.8-2H2.3c1.7,0,3.4,0.6,4.9,2c1.5,1.3,2.5,2.8,3.1,4.5
	c0.6,2.2,1.3,4.4,1.9,6.7c0.6,2.3,1.3,4.5,1.9,6.5c0.6,2,1.1,3.6,1.4,5c0.4,1.4,0.6,2.2,0.7,2.4l0.2,0.7c0,1.5-0.7,2.3-2,2.7
	l-0.7,0.2c-1.4,0-2.4-0.7-2.7-2c-0.1-0.4-0.5-1.8-1-3.8c-0.6-2.1-1.3-4.3-2-6.5s-1.6-5.2-2.6-8.8H3.7l9.5,32.1h-9v24.4
	c0,0.9-0.3,1.7-1,2.3c-0.6,0.6-1.4,0.9-2.4,0.9c-1,0-1.7-0.3-2.4-0.9c-0.6-0.6-0.9-1.4-0.9-2.3V83.9H-4z"/>
<path class="st0" d="M-3.1,40.3c1.9,0,3.6-0.6,4.8-1.9c1.3-1.3,2-3,2-5c0-1.9-0.7-3.6-2-4.9c-1.3-1.4-2.9-2.1-4.8-2.1
	c-2,0-3.7,0.7-5.1,2.1c-1.4,1.4-2,3-2,4.9c0,2,0.7,3.7,2,5C-6.8,39.7-5.1,40.3-3.1,40.3z"/>
<path class="st0" d="M47.1,42.1c-2.5,0-4.5,0.9-6.3,2.7c-1.8,1.8-2.7,4-2.7,6.3v21.9c0,0.8,0.3,1.6,0.9,2.2c0.6,0.6,1.3,0.9,2.1,0.9
	c0.9,0,1.7-0.3,2.3-0.9c0.5-0.6,0.8-1.3,0.8-2.2V53.4h1.6v54.2c0,1,0.5,2,1.3,2.7c0.8,0.8,1.8,1.2,2.9,1.2c1.2,0,2.1-0.3,2.9-1.2
	c0.8-0.7,1.2-1.7,1.2-2.7V76.1h1.8v31.4c0,1,0.4,2,1.2,2.7c0.8,0.8,1.8,1.2,3,1.2c1,0,1.9-0.3,2.8-1.2c0.8-0.7,1.1-1.7,1.1-2.7V53.4
	h1.6v19.6c0,0.8,0.3,1.6,0.8,2.2c0.6,0.6,1.4,0.9,2.2,0.9c1,0,1.7-0.3,2.2-0.9c0.5-0.6,0.8-1.3,0.8-2.2V51.1c0-2.4-0.9-4.5-2.6-6.3
	c-1.7-1.8-3.8-2.7-6.4-2.7L47.1,42.1L47.1,42.1z"/>
<path class="st0" d="M54.9,40.3c1.9,0,3.6-0.6,4.9-1.9c1.4-1.3,2-3,2-5c0-1.9-0.7-3.6-2-4.9c-1.4-1.4-3-2.1-4.9-2.1
	c-2,0-3.7,0.7-5,2.1c-1.4,1.4-2,3-2,4.9c0,2,0.6,3.7,2,5C51.2,39.7,52.9,40.3,54.9,40.3z"/>
<rect x="23.8" y="20.7" class="st0" width="6.9" height="100"/>
</svg>
