<?xml version="1.0" encoding="utf-8"?>
<!-- Generator: Adobe Illustrator 19.1.0, SVG Export Plug-In . SVG Version: 6.00 Build 0)  -->
<svg version="1.1" id="Layer_1" xmlns="http://www.w3.org/2000/svg" xmlns:xlink="http://www.w3.org/1999/xlink" x="0px" y="0px"
	 viewBox="-20 31 100 80.7" style="enable-background:new -20 31 100 80.7;" xml:space="preserve">
<style type="text/css">
	.st0{fill:#EE2A24;}
</style>
<polygon class="st0" points="62.1,111.7 62.1,106.1 19.8,106.1 19.8,106.1 -2.2,106.1 -2.2,111.7 -20,102.4 -2.2,93 -2.2,98.6 
	20.4,98.6 20.4,98.6 62.1,98.6 62.1,93 80,102.4 "/>
<path class="st0" d="M34,36.6l2.7-3.5L34,31l-2.1,2.8l0,0v0L29.7,31L27,33.1l2.7,3.5L-5.9,87.2h25c8.9-7.8,13-17.7,13-17.7h0.1
	c0,0,3.9,9.5,12.6,17.7l22-0.1L34,36.6z"/>
</svg>
