<?xml version="1.0" encoding="utf-8"?>
<!-- Generator: Adobe Illustrator 19.1.0, SVG Export Plug-In . SVG Version: 6.00 Build 0)  -->
<svg version="1.1" id="Layer_1" xmlns="http://www.w3.org/2000/svg" xmlns:xlink="http://www.w3.org/1999/xlink" x="0px" y="0px"
	 viewBox="-33 20.7 74.9 100" style="enable-background:new -33 20.7 74.9 100;" xml:space="preserve">
<style type="text/css">
	.st0{fill:#EE2A24;}
</style>
<path class="st0" d="M-15.7,20.7c-4.7,0-8.5,3.8-8.5,8.5c0,4.7,3.8,8.5,8.5,8.5c4.7,0,8.5-3.8,8.5-8.5C-7.2,24.5-11,20.7-15.7,20.7z
	"/>
<path class="st0" d="M-1.6,46.5c-2.1-4.3-5.3-6.8-13.2-6.8h-0.8h-0.8c-7.9,0-11.2,2.6-13.2,6.8c-1,2.1-3.2,28.8-3.2,28.8
	c-0.2,1.6,1,3,2.5,3.1c0.1,0,0.2,0,0.3,0c1.4,0,2.7-1.1,2.8-2.6l2.2-23.2l0.6,18l-1.6,46.4c-0.1,1.8,1.3,3.4,3.1,3.6
	c0.1,0,0.2,0,0.2,0c1.7,0,3.2-1.3,3.3-3.1l3.8-38.2l3.8,38.2c0.1,1.8,1.6,3.1,3.3,3.1c0.1,0,0.1,0,0.2,0c1.8-0.1,3.2-1.7,3.1-3.6
	l-1.6-46.4l0.5-18l2.2,23.2c0.1,1.5,1.4,2.6,2.8,2.6c0.1,0,0.2,0,0.3,0c1.6-0.2,2.7-1.6,2.5-3.1C1.6,75.3-0.6,48.7-1.6,46.5z"/>
<path class="st0" d="M37.1,20.8l-19.3,0c-2.7,0-4.8,3.1-4.8,6.9l-0.1,62.2l11.9,28.4c1.4,3.3,3.6,3.3,5,0l12-28.4l0.1-62.2
	C41.9,23.9,39.8,20.8,37.1,20.8z M30.2,108.6l-5.7,0l-7.9-18.7l21.5,0L30.2,108.6z"/>
</svg>
