<?xml version="1.0" encoding="utf-8"?>
<!-- Generator: Adobe Illustrator 19.1.0, SVG Export Plug-In . SVG Version: 6.00 Build 0)  -->
<svg version="1.1" id="Layer_1" xmlns="http://www.w3.org/2000/svg" xmlns:xlink="http://www.w3.org/1999/xlink" x="0px" y="0px"
	 viewBox="-20 32.1 100 77.6" style="enable-background:new -20 32.1 100 77.6;" xml:space="preserve">
<style type="text/css">
	.st0{fill:#EE2A24;}
</style>
<g>
	<g>
		<path class="st0" d="M66.7,88.7l-22.1,0.1c-8.8-8.2-12.7-17.8-12.7-17.8h-0.2c0,0-4,10-13.1,17.8H-6.5l36-51.1l-2.7-3.5l2.7-2.1
			l2.2,2.8v0v0l2.2-2.8l2.7,2.1l-2.7,3.5L66.7,88.7z"/>
	</g>
</g>
<polygon class="st0" points="-6.5,109.7 -9.9,103.9 -13.3,98 -16.6,103.9 -20,109.7 -13.3,109.7 "/>
<polygon class="st0" points="15.1,109.7 11.7,103.9 8.4,98 5,103.9 1.6,109.7 8.4,109.7 "/>
<polygon class="st0" points="36.7,109.7 33.4,103.9 30,98 26.6,103.9 23.2,109.7 30,109.7 "/>
<polygon class="st0" points="58.4,109.7 55,103.9 51.6,98 48.2,103.9 44.9,109.7 51.6,109.7 "/>
<polygon class="st0" points="80,109.7 76.6,103.9 73.2,98 69.9,103.9 66.5,109.7 73.2,109.7 "/>
</svg>
