<?xml version="1.0" encoding="utf-8"?>
<!-- Generator: Adobe Illustrator 19.1.0, SVG Export Plug-In . SVG Version: 6.00 Build 0)  -->
<svg version="1.1" id="Layer_1" xmlns="http://www.w3.org/2000/svg" xmlns:xlink="http://www.w3.org/1999/xlink" x="0px" y="0px"
	 viewBox="-20 21.4 100 99.3" style="enable-background:new -20 21.4 100 99.3;" xml:space="preserve">
<style type="text/css">
	.st0{fill:#EE2A24;}
</style>
<path class="st0" d="M21.7,64.7v8.4l-2.4-2.4L15,79.2l-4.3-10.6L-5.7,82.3l5.5-19.6L-8,64.2l4.8-5L-20,49.4l18.6,1.3
	c-2-4-5.5-10.8-5.5-10.8l11.6,2.6l-4.1-21l13,16.8l4.8-12.4l3.2,13.3l11.4-11.8L28.6,46l16,1.7l-10.8,6.9
	C27,56.4,21.7,59.5,21.7,64.7z"/>
<path class="st0" d="M78.6,103.1h-0.9v-2.3c0-4.2-0.3-8.1-0.8-11.6c0-0.1,0-0.1-0.1-0.2V65.7h-1.4v-5.4h-1.9v5.4h-1.4v16
	c-0.3-0.2-0.7-0.4-1-0.6V64.7c0-1.3-6.4-5.5-21.6-5.5s-21.4,4.1-21.4,5.5v16.4c-3,1.6-4.8,4.3-5.5,8.1c-0.5,3.5-0.8,7.4-0.8,11.6
	v2.3H21c-0.9,0-1.4,1.3-1.4,3.8c0,2.5,0.5,3.8,1.4,3.8H27v1.1c0,1.7,0.1,3.2,0.2,4.3c0.1,1.1,0.3,2,0.4,2.7c0.8,1.3,2.2,1.9,4.2,1.9
	c2,0,3.4-0.7,4.1-1.9c0.5-1,0.8-3.1,0.8-6.2v-1.9h26.1v1.9c0,3.1,0.3,5.1,0.8,6.2c0.8,1.3,2.1,1.9,4.1,1.9c2.1,0,3.5-0.7,4.2-1.9
	c0.2-0.7,0.3-1.6,0.5-2.7c0.1-1.1,0.2-2.5,0.2-4.3v-1.1h5.9c0.9,0,1.4-1.3,1.4-3.8C80,104.4,79.5,103.1,78.6,103.1z M32.9,98.5
	c-2.1,0-3.8-1.7-3.8-3.9c0-2.1,1.7-3.9,3.8-3.9c2.1,0,3.9,1.7,3.9,3.9C36.7,96.8,35,98.5,32.9,98.5z M35.2,81.4
	c-1.3,0-2.4-1.1-2.4-2.4v-5.5c0-1.3,1-2.5,2.4-3.2c0,0,5.9-2,14.6-2c8.7,0,14.6,2,14.6,2c1.9,1,2.4,2.6,2.4,3.9V79
	c0,1.3-1.1,2.4-2.4,2.4L35.2,81.4L35.2,81.4z M59.9,99.1H39.7c-0.4,0-0.7-0.3-0.7-0.7c0-0.4,0.3-0.7,0.7-0.7h20.2
	c0.4,0,0.7,0.3,0.7,0.7C60.6,98.8,60.3,99.1,59.9,99.1z M59.9,95.3H39.7c-0.4,0-0.7-0.3-0.7-0.7c0-0.4,0.3-0.7,0.7-0.7h20.2
	c0.4,0,0.7,0.3,0.7,0.7C60.6,94.9,60.3,95.3,59.9,95.3z M59.9,91.4H39.7c-0.4,0-0.7-0.3-0.7-0.7c0-0.4,0.3-0.7,0.7-0.7h20.2
	c0.4,0,0.7,0.3,0.7,0.7C60.6,91.1,60.3,91.4,59.9,91.4z M66.7,98.5c-2.1,0-3.8-1.7-3.8-3.9c0-2.1,1.7-3.9,3.8-3.9
	c2.1,0,3.8,1.7,3.8,3.9C70.6,96.8,68.8,98.5,66.7,98.5z"/>
</svg>
