<?xml version="1.0" encoding="utf-8"?>
<!-- Generator: Adobe Illustrator 19.1.0, SVG Export Plug-In . SVG Version: 6.00 Build 0)  -->
<svg version="1.1" id="Layer_1" xmlns="http://www.w3.org/2000/svg" xmlns:xlink="http://www.w3.org/1999/xlink" x="0px" y="0px"
	 viewBox="-28 20.7 84.9 100" style="enable-background:new -28 20.7 84.9 100;" xml:space="preserve">
<style type="text/css">
	.st0{fill:#EE2A24;}
</style>
<path class="st0" d="M45.8,104.3c0.2,1.9-1.1,3.6-3,3.8c-1.8,0.2-3.6-1.1-3.8-3L37.2,90L24.9,85l6.8,12c0.5,0.9,0.6,2,0.2,2.9
	l-7.2,18.7c-0.5,1.4-1.8,2.2-3.2,2.2c-0.4,0-0.8-0.1-1.2-0.2c-1.8-0.7-2.7-2.7-2-4.4l6.1-16l-8.5-11.4L-1.4,74.3l-11.6,3
	c-0.3,0.1-0.7,0.2-1,0.2c-0.8,0-1.6-0.3-2.2-0.8l-10.6-9c-1.5-1.2-1.6-3.4-0.4-4.9c1.2-1.5,3.4-1.6,4.8-0.4l9.2,7.8
	c0,0,12.1-2.2,16.5-5.1C7.7,62.3,17.8,57,17.8,57c1-1,2.5-1.2,3.8-0.7l14.7,6.5c1.7,0.8,2.5,2.8,1.8,4.5c-0.8,1.7-2.8,2.5-4.5,1.8
	l-12.6-5.6l-5.6,2.7l8.3,6.7l17.3,10.7c1.5,0.3,2.7,1.5,2.8,3L45.8,104.3z"/>
<path class="st0" d="M6.1,57.9c0,4.3-3.4,7.7-7.7,7.7c-4.3,0-7.7-3.4-7.7-7.7c0-4.2,3.5-7.7,7.7-7.7C2.7,50.2,6.1,53.7,6.1,57.9z"/>
<polygon class="st0" points="11.4,53.7 9.6,35.6 17.8,42.5 18.7,27 25.6,37.3 35.5,20.7 36.3,38.2 48.4,31.3 42.1,46.5 56.7,42.7 
	48.7,55.2 56.9,55.8 43,67.5 49.3,58.7 44.6,57.8 49.9,47.6 39,49 41.7,38.5 33.1,42.9 32.5,31.6 26.2,41.6 21,34.7 19.6,46.1 
	11.5,40.4 "/>
</svg>
