<?xml version="1.0" encoding="utf-8"?>
<!-- Generator: Adobe Illustrator 19.1.0, SVG Export Plug-In . SVG Version: 6.00 Build 0)  -->
<svg version="1.1" id="Layer_1" xmlns="http://www.w3.org/2000/svg" xmlns:xlink="http://www.w3.org/1999/xlink" x="0px" y="0px"
	 viewBox="-35 20.7 70.7 100" style="enable-background:new -35 20.7 70.7 100;" xml:space="preserve">
<style type="text/css">
	.st0{fill:#EE2A24;}
</style>
<path class="st0" d="M35,108.6c-0.8,1.8-2.4,2.9-4.1,3.3c0.8,1.6,1,3.5,0.2,5.3c-1.4,3.1-5,4.4-8,3c-3.1-1.4-4.4-5-3-8.1
	c0-0.1,0.2-0.2,0.2-0.3l-19.9-9l-20.2,8.4c0.1,0.1,0.2,0.2,0.2,0.3c1.3,3.1-0.1,6.7-3.2,8c-3.1,1.3-6.7-0.2-8-3.3
	c-0.8-1.8-0.5-3.7,0.4-5.3c-1.7-0.5-3.3-1.6-4-3.4c-1.3-3.1,0.1-6.7,3.2-8c3.1-1.3,6.7,0.1,8,3.2c0,0.1,0,0.3,0.1,0.4l12.7-5.3
	l-12.6-5.7c0,0.1,0,0.3-0.1,0.4c-1.4,3.1-5,4.4-8.1,3c-3-1.4-4.4-5-3-8.1c0.8-1.8,2.4-2.9,4.1-3.3c-0.8-1.6-1-3.5-0.2-5.3
	c1.4-3.1,5-4.4,8.1-3c3.1,1.4,4.4,5,3,8.1c0,0.1-0.2,0.2-0.2,0.3l19.9,9l20.2-8.4c-0.1-0.1-0.2-0.2-0.2-0.3c-1.3-3.1,0.1-6.7,3.2-8
	c3.1-1.3,6.7,0.1,8,3.2c0.7,1.8,0.5,3.7-0.4,5.3c1.7,0.5,3.3,1.6,4,3.4c1.3,3.1-0.1,6.6-3.2,8c-3.1,1.3-6.7-0.1-8-3.2
	C24,93.3,24,93.1,24,93l-12.7,5.3l12.6,5.7c0-0.1,0-0.3,0.1-0.4c1.4-3.1,5-4.4,8-3C35,101.9,36.4,105.5,35,108.6z"/>
<path class="st0" d="M24.8,43.6c0-12.6-11-22.8-24.4-22.8C-13.1,20.7-24,31-24,43.6c0,4.6,1.5,8.8,4,12.4c-1.6,1.4-2.6,3.4-2.6,5.7
	c0,3.7,2.7,6.6,6.4,7.6v2.7c0,4.8,3.9,8.7,8.7,8.7H8.4c4.8,0,8.7-3.9,8.7-8.7v-2.8c3.6-0.9,6.3-3.9,6.3-7.5c0-2.2-1-4.2-2.6-5.7
	C23.3,52.4,24.8,48.1,24.8,43.6z M-10.4,51.7c-3.7,0-6.8-2.9-6.8-6.5c0-3.6,3-6.5,6.8-6.5c3.7,0,6.7,2.9,6.7,6.5
	C-3.7,48.8-6.7,51.7-10.4,51.7z M0.8,61.4l-6.7,3.3l6.8-11.3l6.6,11.1L0.8,61.4z M11.1,51.7c-3.7,0-6.7-2.9-6.7-6.5
	c0-3.6,3-6.5,6.7-6.5c3.7,0,6.7,2.9,6.7,6.5C17.9,48.8,14.9,51.7,11.1,51.7z"/>
</svg>
