<?xml version="1.0" encoding="utf-8"?>
<!-- Generator: Adobe Illustrator 19.1.0, SVG Export Plug-In . SVG Version: 6.00 Build 0)  -->
<svg version="1.1" id="Layer_1" xmlns="http://www.w3.org/2000/svg" xmlns:xlink="http://www.w3.org/1999/xlink" x="0px" y="0px"
	 viewBox="-26 20.7 88 100" style="enable-background:new -26 20.7 88 100;" xml:space="preserve">
<style type="text/css">
	.st0{fill:#EE2A24;}
</style>
<path class="st0" d="M56.6,20.7c-2.9,0-5.4,2.4-5.4,5.4v21.8c1.3,0.3,2.5,0.8,3.5,1.8c2.8,2.8,2.9,7.4,0.1,10.2L44.8,70.4L43.4,69
	l10.2-10.4c2-2.1,2-5.5-0.1-7.5c-0.7-0.6-1.4-1.1-2.3-1.3c-0.9-0.2-1.8-0.3-2.7-0.1c-1,0.2-1.9,0.7-2.6,1.5
	c-6,6.2-12.1,12.4-18.1,18.6c-1.5,1.6-4.3,5.1-4.2,8.6c0.1,3.3,0,6.8,0,10.1c-0.8-0.6-1.7-1.1-2.8-1.3c-3.1-0.5-5.9,1.3-7,4.1h-1.6
	c0-0.8,0-1.5,0-2.3c0.1-3.5-0.1-7.1,0-10.6c0.1-3.5-2.7-7.1-4.2-8.6C2.1,63.6-3.9,57.4-10,51.2c-0.7-0.7-1.6-1.2-2.6-1.5
	c-0.9-0.2-1.8-0.2-2.7,0.1c-0.8,0.2-1.6,0.7-2.3,1.3c-2.1,2.1-2.1,5.4-0.1,7.5L-7.4,69l-1.4,1.4l-10.2-10.5
	c-2.8-2.9-2.7-7.4,0.1-10.2c1-1,2.2-1.5,3.5-1.8V26.1c0-3-2.4-5.4-5.4-5.4c-3,0-5.4,2.4-5.4,5.4v37.8c0,1.2,0.5,2.4,1.2,3.3
	l18.3,24.1h-1.6c-3.6,0-6.5,2.9-6.5,6.5c0,2.4,1.3,4.4,3.2,5.5c-1.9,1.1-3.2,3.1-3.2,5.5c0,3.6,2.9,6.5,6.5,6.5h2v3.6h17.9
	c0.9,0.9,2,1.6,3.3,1.8c0.4,0.1,0.7,0.1,1.1,0.1c3.1,0,5.8-2.3,6.4-5.4l0-0.2h1.1c0,1.2,0,2.4,0.1,3.6h18.3v-3.6h2
	c3.6,0,6.5-2.9,6.5-6.5c0-2.4-1.3-4.3-3.2-5.5c1.9-1.1,3.2-3.1,3.2-5.5c0-3.6-2.9-6.5-6.5-6.5h-1.6l18.3-24.1c0.7-0.9,1.2-2,1.2-3.3
	V26.1C62,23.1,59.6,20.7,56.6,20.7z M-11.3,97.8c0-1.8,1.4-3.2,3.2-3.2h21.2l-1.1,6.5H-8.1C-9.9,101-11.3,99.6-11.3,97.8z
	 M-11.3,108.7c0-1.8,1.4-3.2,3.2-3.2h19.3L10,112H-8.1C-9.9,112-11.3,110.5-11.3,108.7z M19.4,114.8c-0.3,1.8-2.1,2.9-3.7,2.6
	c-0.9-0.2-1.6-0.6-2.1-1.3c-0.5-0.7-0.7-1.6-0.5-2.4L16.6,93c0.3-1.6,1.6-2.7,3.2-2.7c0.2,0,0.4,0,0.5,0c1.8,0.3,2.9,2,2.6,3.7
	L19.4,114.8z M47.3,108.7c0,1.8-1.4,3.2-3.2,3.2H23.2l1.1-6.5h19.8C45.9,105.5,47.3,107,47.3,108.7z M47.3,97.8
	c0,1.8-1.4,3.2-3.2,3.2H25l1.1-6.3c0,0,0-0.1,0-0.1h18C45.9,94.6,47.3,96,47.3,97.8z"/>
</svg>
