<?xml version="1.0" encoding="utf-8"?>
<!-- Generator: Adobe Illustrator 19.1.0, SVG Export Plug-In . SVG Version: 6.00 Build 0)  -->
<svg version="1.1" id="Layer_1" xmlns="http://www.w3.org/2000/svg" xmlns:xlink="http://www.w3.org/1999/xlink" x="0px" y="0px"
	 viewBox="-23 20.7 94.2 100" style="enable-background:new -23 20.7 94.2 100;" xml:space="preserve">
<style type="text/css">
	.st0{fill:#EE2A24;}
</style>
<path class="st0" d="M37.8,100.1l-0.1,1.7l-12.8-1.3l7.3,20.2l-14.6-15.1l-4.5,8.8l-4.4-11l-17,14.2l5.7-20.2l-8,1.5l5-5.1L-23,83.6
	L-3.8,85c-2-4.2-5.7-11.1-5.7-11.1l12,2.6l-4.2-21.7l13.4,17.3l4.9-12.8L19.9,73l11.7-12.1l-4.5,19.3l4.9,0.5
	c0.1,0.2,0.2,0.5,0.4,0.7c1.5,1.9,3.6,3,6,3.3l0,0.7l-11.8,7.5L37.8,100.1z"/>
<path class="st0" d="M62.4,29.2c0,4.7-3.8,8.5-8.5,8.5c-4.7,0-8.5-3.8-8.5-8.5s3.8-8.5,8.5-8.5C58.6,20.7,62.4,24.5,62.4,29.2z"/>
<path class="st0" d="M71.2,75.3c0.2,1.6-1,3-2.5,3.1c-0.1,0-0.2,0-0.3,0c-1.4,0-2.7-1.1-2.8-2.6l-2.2-23.1l-0.6,18l1.6,46.4
	c0.1,1.8-1.3,3.4-3.1,3.6c-0.1,0-0.2,0-0.2,0c-1.7,0-3.2-1.3-3.3-3.1l-3.8-38.3l-3.8,38.3c-0.1,1.8-1.6,3.1-3.3,3.1
	c-0.1,0-0.1,0-0.2,0c-1.8-0.1-3.2-1.7-3.1-3.6l1.6-46.4l-0.6-18l-2.2,23.1c-0.1,1.5-1.4,2.6-2.8,2.6c-0.1,0-0.2,0-0.3,0
	c-1.6-0.2-2.7-1.6-2.5-3.1c0,0,2.2-26.6,3.2-28.8c2.1-4.3,5.3-6.8,13.2-6.8h0.8h0.8c7.9,0,11.2,2.6,13.2,6.8
	C69,48.7,71.2,75.3,71.2,75.3z"/>
</svg>
