<?xml version="1.0" encoding="utf-8"?>
<!-- Generator: Adobe Illustrator 19.1.0, SVG Export Plug-In . SVG Version: 6.00 Build 0)  -->
<svg version="1.1" id="Layer_1" xmlns="http://www.w3.org/2000/svg" xmlns:xlink="http://www.w3.org/1999/xlink" x="0px" y="0px"
	 viewBox="-20 25.8 100 90.9" style="enable-background:new -20 25.8 100 90.9;" xml:space="preserve">
<style type="text/css">
	.st0{fill:#EE2A24;}
</style>
<g>
	<path class="st0" d="M56.2,108.4c0,0.1,0.1,0.2,0.1,0.3c0,4.4-11.4,8-25.5,8c-13.8,0-25-3.4-25.5-7.7H5.2v-14h0.1
		c0.4,4.3,11.6,7.7,25.5,7.7c13.7,0,24.8-3.4,25.4-7.6V108.4z"/>
	<path class="st0" d="M30.7,84.7c-14.1,0-25.5,3.5-25.5,7.9c0,0.1,0.1,0.1,0.1,0.2c0.4,4.3,11.6,7.7,25.5,7.7
		c13.7,0,24.8-3.4,25.4-7.6c0-0.1,0.1-0.2,0.1-0.4C56.3,88.3,44.9,84.7,30.7,84.7z"/>
</g>
<polygon class="st0" points="-12.9,79.4 6,83.2 -0.4,62 14.1,70.1 17.8,47.5 27.5,67.1 39.5,52.7 42.8,73.4 61.1,62.5 59.5,84.9 
	68.7,82.7 64.3,103.2 80,71.8 64.8,76.9 69.4,48.5 46.4,66.6 45.9,34.6 29.5,56.3 14.7,25.8 9.8,63.1 -10.5,49.9 0.1,78.3 -20,72.4 
	-2.7,103.2 "/>
</svg>
