<?xml version="1.0" encoding="utf-8"?>
<!-- Generator: Adobe Illustrator 19.1.0, SVG Export Plug-In . SVG Version: 6.00 Build 0)  -->
<svg version="1.1" id="Layer_1" xmlns="http://www.w3.org/2000/svg" xmlns:xlink="http://www.w3.org/1999/xlink" x="0px" y="0px"
	 viewBox="-20 31 100 79.7" style="enable-background:new -20 31 100 79.7;" xml:space="preserve">
<style type="text/css">
	.st0{fill:#EE2A24;}
</style>
<path class="st0" d="M80,87.9c0-8.9-5.1-16.5-12.5-20.4v-8.2c0-1.8-1.5-3.3-3.3-3.3H58v-5.2c0.9-0.3,1.7-0.7,2.3-1.4
	c0.7-0.9,1-2,0.8-3.1l-0.6-3.8c-0.3-2.2-2.5-3.8-4.9-3.3c-0.8,0.1-1.4,0.5-2,0.9l-4.1-2.5c0,0,0,0,0-0.1c0.3-1.1,0.2-2.3-0.3-3.2
	c-0.5-1-1.4-1.7-2.5-2l-3.7-1c-2.1-0.6-4.5,0.9-5.1,3.2c-0.1,0.2,0,0.4,0,0.6L34,35.6c-1-2.1-3.5-3.1-5.5-2.2L25,35
	c-1.9,0.9-2.7,3.3-1.9,5.4l-2.9,3l-4.8-3.3c-1.5-1-3.6-0.7-4.6,0.8L6,47.6c-8.3-1.1-16.8,2.2-21.9,9.5c-6.9,9.9-4.9,23.3,4.3,30.8
	l2.6-3.7c-7.1-6.1-8.6-16.6-3.2-24.5c5.8-8.3,17.3-10.4,25.7-4.5c8.3,5.8,10.4,17.3,4.5,25.7c-5.6,8-16.3,10.1-24.5,5.2L-9,89.8
	c10.3,6.3,23.8,3.7,30.8-6.3c5.1-7.3,5.3-16.5,1.4-23.9l4.7-6.8c1-1.5,0.7-3.6-0.8-4.6l-5-3.5l2.4-2.4c0.7,0.6,1.7,1,2.6,1
	c0.6,0,1.1-0.1,1.6-0.4l3.5-1.6c1.3-0.6,2.1-1.9,2.2-3.3l3.8-0.6c0.1,0.1,0.1,0.2,0.1,0.3c0.5,0.9,1.4,1.6,2.4,1.8l3.7,1
	c0.3,0.1,0.7,0.1,1,0.1c1,0,2-0.4,2.8-1.2l3.9,2.4c-0.2,0.6-0.3,1.2-0.2,1.8l0.6,3.8c0.3,1.6,1.5,2.8,3.2,3.2V56h-5.7
	c-1.8,0-3.3,1.5-3.3,3.3v8.2C39.2,71.3,34.1,79,34.1,87.9c0,12.1,9.3,21.8,21.2,22.8v-4.5c-9.3-0.9-16.6-8.7-16.6-18.3
	c0-10.2,8.3-18.4,18.4-18.4c10.2,0,18.4,8.3,18.4,18.4c0,9.7-7.6,17.6-17.1,18.3v4.5C70.4,110,80,100.1,80,87.9z M18.7,51.3
	c-0.6,0.9-1.9,1.1-2.8,0.5c-0.9-0.6-1.1-1.9-0.5-2.8c0.4-0.6,1.2-0.8,1.9-0.7l1.9-2.7l1.4,1l-1.9,2.7C19,49.9,19.1,50.6,18.7,51.3z
	 M31.2,39.3l-3.5,1.6c-0.6,0.3-1.2,0.1-1.8-0.2l0.8-0.8c0.4-0.5,0.4-1.2,0-1.6c-0.5-0.4-1.2-0.4-1.6,0L25,38.3
	c0.1-0.6,0.4-1.1,0.9-1.3l3.5-1.6c0.2-0.1,0.4-0.2,0.7-0.2c0.5,0,1,0.3,1.4,0.7L31,36c-0.7,0.1-1.1,0.7-1,1.4c0.1,0.6,0.6,1,1.2,1
	c0.1,0,0.1,0,0.2,0l0.6-0.1C31.9,38.8,31.6,39.1,31.2,39.3z M46.9,35.9c-0.6-0.4-1.3-0.2-1.7,0.4c-0.4,0.6-0.2,1.3,0.4,1.7l0.5,0.3
	c-0.4,0.2-0.8,0.3-1.1,0.2l-3.7-1c-0.2-0.1-0.4-0.3-0.6-0.5l0.9-0.1c0.7-0.1,1.1-0.7,1-1.4c-0.1-0.7-0.7-1.2-1.4-1l-1,0.2
	c0.3-0.8,1-1.4,1.8-1.4c0.1,0,0.3,0,0.4,0.1l3.7,1c0.5,0.1,0.9,0.5,1.1,0.9c0.1,0.3,0.1,0.6,0.1,0.9L46.9,35.9z M54.6,47.3L54,43.5
	c0-0.1,0.1-0.1,0.1-0.2l0.3,0.2c0.2,0.1,0.4,0.2,0.7,0.2c0.4,0,0.8-0.2,1-0.6c0.4-0.6,0.2-1.3-0.4-1.7c0.1,0,0.1-0.1,0.2-0.1
	c0.1,0,0.3,0,0.4,0c1,0,1.9,0.7,2,1.5l0.6,3.8c0.1,0.5-0.1,1-0.4,1.4c-0.1,0.2-0.4,0.2-0.6,0.3v-0.9c0-0.6-0.5-1.2-1.2-1.2
	s-1.2,0.5-1.2,1.2v1.1C55.1,48.2,54.7,47.8,54.6,47.3z M57,65.3c-1.1,0-2-0.9-2-2c0-0.8,0.5-1.3,1.2-1.7v-3.2h1.7v3.2
	c0.6,0.3,1.1,0.9,1.1,1.7C59,64.4,58.1,65.3,57,65.3z"/>
</svg>
