<?xml version="1.0" encoding="utf-8"?>
<!-- Generator: Adobe Illustrator 19.1.0, SVG Export Plug-In . SVG Version: 6.00 Build 0)  -->
<svg version="1.1" id="Layer_1" xmlns="http://www.w3.org/2000/svg" xmlns:xlink="http://www.w3.org/1999/xlink" x="0px" y="0px"
	 viewBox="-20 38.3 100 65.5" style="enable-background:new -20 38.3 100 65.5;" xml:space="preserve">
<style type="text/css">
	.st0{fill:#EE2A24;}
</style>
<path class="st0" d="M17.7,51.2c-0.7,0-1.3-0.4-1.7-1c-0.5-0.9-0.2-2.1,0.8-2.5l17-9.1c0.9-0.5,2.1-0.2,2.5,0.8
	c0.5,0.9,0.1,2.1-0.8,2.5l-17,9.1C18.3,51.1,18,51.2,17.7,51.2z"/>
<path class="st0" d="M36.4,67.5c0.5-0.9,0.1-2.1-0.8-2.5l-17-9.1c-0.9-0.5-2.1-0.1-2.5,0.8c-0.5,0.9-0.2,2.1,0.8,2.5l17,9.1
	c0.3,0.2,0.6,0.2,0.9,0.2C35.4,68.5,36,68.2,36.4,67.5z"/>
<path class="st0" d="M40.6,53.5c0-1-0.8-1.9-1.9-1.9H23.8c-1,0-1.9,0.8-1.9,1.9s0.8,1.9,1.9,1.9h14.9C39.7,55.4,40.6,54.6,40.6,53.5
	z"/>
<g>
	<path class="st0" d="M1.3,66.6c6,0,10.9-4.9,10.9-10.9c0-6-4.9-10.9-10.9-10.9c-6.1,0-11,4.9-11,10.9C-9.7,61.7-4.8,66.6,1.3,66.6z
		"/>
	<path class="st0" d="M2.3,69.1h-1H0.2c-10.2,0-14.3,3.3-17,8.8c-0.8,1.7-2.2,15.5-3.2,25.8h7.5l1.7-17.8l0.5,17.8h23.1L13.3,86
		l1.7,17.8h7.5c-1-10.3-2.3-24.1-3.2-25.8C16.7,72.5,12.5,69.1,2.3,69.1z"/>
	<path class="st0" d="M58.7,66.6c6,0,10.9-4.9,10.9-10.9c0-6-4.9-10.9-10.9-10.9c-6,0-11,4.9-11,10.9C47.8,61.7,52.7,66.6,58.7,66.6
		z"/>
	<path class="st0" d="M76.8,78c-2.7-5.5-6.8-8.8-17-8.8h-1.1h-1c-10.2,0-14.4,3.3-17.1,8.8c-0.8,1.7-2.2,15.5-3.2,25.8h7.5L46.7,86
		l0.5,17.8h23.1L70.8,86l1.7,17.8H80C79.1,93.5,77.7,79.7,76.8,78z"/>
</g>
</svg>
