<?xml version="1.0" encoding="utf-8"?>
<!-- Generator: Adobe Illustrator 19.1.0, SVG Export Plug-In . SVG Version: 6.00 Build 0)  -->
<svg version="1.1" id="Layer_1" xmlns="http://www.w3.org/2000/svg" xmlns:xlink="http://www.w3.org/1999/xlink" x="0px" y="0px"
	 viewBox="-21 20.7 97.3 100" style="enable-background:new -21 20.7 97.3 100;" xml:space="preserve">
<style type="text/css">
	.st0{fill:#EE2A24;}
</style>
<g>
	<path class="st0" d="M5.8,54.7c0.4,3.2-1.8,6.2-5,6.6c-3.2,0.4-6.2-1.8-6.6-5c-0.4-3.2,1.8-6.2,5-6.6C2.4,49.2,5.4,51.5,5.8,54.7z"
		/>
</g>
<g>
	<polygon class="st0" points="-12,42.1 -5.1,44 -4.4,33.8 0.6,39.7 5.8,30.6 6.8,40.6 14.3,36.3 12.3,45.8 22,44.1 17.6,53.4 
		21.9,54 16.7,62.1 28.6,51.2 21.2,50.9 27.8,39.4 15,43.4 20,29.6 9.4,36.2 8,20.7 -0.1,35.9 -6.7,27 -6.8,40.9 -17.2,38.1 
		-10.2,50.5 	"/>
</g>
<g>
	<path class="st0" d="M74.7,80.1c-3.2-1.7-8.8-6.2-13.5-13.1c-2-4.4-8.3-5-8.3-5c-1.7-0.3-5-0.7-10.1,1.1
		c-5.1,1.8-17.2,13.5-17.5,14c-0.9,1.3-0.5,3.1,0.8,4c0.5,0.3,1,0.5,1.6,0.5c0.9,0,1.9-0.5,2.4-1.3C30.2,80.2,35,73.2,44,70
		l-2.5,15.4c-0.1,0.9-10.7,29.7-10.7,29.7c-0.7,1.4-0.2,3.2,1.3,3.9c0.4,0.2,0.9,0.3,1.3,0.3c1,0,2.1-0.6,2.6-1.6l11.4-25.5l8,26.4
		c0.4,1.2,1.5,2,2.8,2c0.3,0,0.6,0,0.9-0.1c1.5-0.5,2.4-2.1,1.8-3.7c0,0-6.2-26.9-5.9-28.4l2.9-16.2C62.6,80.1,71.5,85,72,85.2
		c0.4,0.2,0.9,0.3,1.4,0.3c1,0,2-0.6,2.6-1.5C76.7,82.6,76.1,80.9,74.7,80.1z"/>
</g>
<g>
	<path class="st0" d="M29.5,109.7C27,105.3,14.4,83.6,14,83.6l-3.6-12.4c3.1,4.1,8.6,7.8,12.1,9.9c-0.8-1.8-0.8-3.9,0.3-5.6
		c0.1-0.1,0.3-0.3,0.5-0.5c-3.9-2.6-8.6-6.7-11.3-10.7c-1.9-2.9-6.8-2.3-9.1-1.9c-1.5,0.3-4.5,1.6-5.8,2.4c-2.5,1.7-5.3,0.4-7.6-1.5
		c-4.2-3.4-4.6-9.7-4.6-9.8c-0.1-1.6-1.5-2.9-3.1-2.8c-1.6,0-2.9,1.4-2.9,3.1c0,0.4,0.4,8.9,6.7,14.1c3,2.5,5,3.1,9.6,4.1
		c1.6,3,7,14.8,7,14.8l0.2,31.1c0.1,1.6,1.3,2.8,3,2.8c1.6-0.1,2.9-1.4,2.8-3c0,0,1.4-25.8,1.6-25.8l15.4,21.9
		c0.6,0.8,1.5,1.2,2.4,1.2c0,0,0,0,0,0c0.1-0.4,0.1-0.7,0.3-1.1C28.5,112.6,29,111.2,29.5,109.7z"/>
</g>
<g>
	<path class="st0" d="M53.1,47.4c-3.7,0.5-6.3,3.9-5.8,7.6c0.5,3.7,3.9,6.3,7.6,5.8c3.7-0.5,6.2-3.9,5.7-7.6
		C60.1,49.5,56.7,46.9,53.1,47.4z"/>
</g>
</svg>
