<?xml version="1.0" encoding="utf-8"?>
<!-- Generator: Adobe Illustrator 19.1.0, SVG Export Plug-In . SVG Version: 6.00 Build 0)  -->
<svg version="1.1" id="Layer_1" xmlns="http://www.w3.org/2000/svg" xmlns:xlink="http://www.w3.org/1999/xlink" x="0px" y="0px"
	 viewBox="-20 28.8 100 84.9" style="enable-background:new -20 28.8 100 84.9;" xml:space="preserve">
<style type="text/css">
	.st0{fill:#EE2A24;}
</style>
<path class="st0" d="M33,100.9l-10.6,4.8c-0.5,0.2-1,0.3-1.4,0.3s-0.9-0.2-1.4-0.4l-0.1,0.1l-0.1-0.1c-0.7-0.4-8.2-8.4-8.2-8.4
	l-0.5,16.7h-21.6l-0.5-16.7l-1.6,16.7h-7c0.9-9.6,2.2-22.6,3-24.2c2.5-5.1,6.4-8.3,16-8.3h1h1c9.6,0,11.4,2.8,16,8.3
	c3.4,4,3.5,4.8,5.8,8.3l7.4-3.3c1.8-0.8,3.9,0,4.7,1.8C35.6,98,34.8,100.1,33,100.9z"/>
<path class="st0" d="M77.1,52.3c-1.9-0.4-3.8,0.9-4.1,2.8l-4.8,24.8c0,0-0.5,3-3.3,2.2c-1.9-0.5-4.2-0.8-6.9-0.8h-1h-1
	c-2.8,0-5,0.2-6.9,0.8c-2.8,0.8-3.3-2.2-3.3-2.2l-4.8-24.8c-0.4-1.9-2.2-3.2-4.1-2.8c-1.9,0.4-3.2,2.2-2.8,4.1
	c0,0,5.5,29.1,6.3,32.5c0.8,3.5,5.3,4.4,5.3,4.4l0.5,20.4h10.8h10.8l0.5-20.4c0,0,4.6-0.9,5.3-4.4c0.8-3.5,6.3-32.5,6.3-32.5
	C80.3,54.6,79.1,52.7,77.1,52.3z"/>
<path class="st0" d="M-0.1,78.9c5.7,0,10.2-4.6,10.2-10.2c0-5.7-4.6-10.2-10.2-10.2c-5.7,0-10.3,4.6-10.3,10.2
	C-10.3,74.3-5.7,78.9-0.1,78.9z"/>
<path class="st0" d="M57.1,78.9c5.6,0,10.2-4.6,10.2-10.2c0-5.7-4.6-10.2-10.2-10.2c-5.7,0-10.3,4.6-10.3,10.2S51.4,78.9,57.1,78.9z
	"/>
<polygon class="st0" points="-13.1,48.6 -6.1,51.5 -4.2,40.9 0.2,47.7 6.9,38.8 6.6,49.3 15,45.9 11.8,55.5 22.1,54.9 16.4,64.1 
	28.7,50.7 14.8,53.4 21.8,39.5 9.9,45.2 10.4,28.8 0,43.7 -5.8,33.5 -7.6,48 -18.1,43.8 -12.3,57.6 "/>
</svg>
