<?xml version="1.0" encoding="utf-8"?>
<!-- Generator: Adobe Illustrator 19.1.0, SVG Export Plug-In . SVG Version: 6.00 Build 0)  -->
<svg version="1.1" id="Layer_1" xmlns="http://www.w3.org/2000/svg" xmlns:xlink="http://www.w3.org/1999/xlink" x="0px" y="0px"
	 viewBox="-29 20.7 81.7 100" style="enable-background:new -29 20.7 81.7 100;" xml:space="preserve">
<style type="text/css">
	.st0{fill:#EE2A24;}
</style>
<g>
	<path class="st0" d="M16.5,86l1.5,3.2h-2.4C16.2,88.3,16.6,87.2,16.5,86z"/>
</g>
<g>
	<path class="st0" d="M-29,20.7v68.5H8.8c-0.4-0.5-0.7-1-0.9-1.7c-0.2-0.7-0.4-1.6-0.7-2.4h-32.1V24.8h73.5v60.3H30.4l1.2,4.1h21.1
		V20.7H-29z"/>
</g>
<g>
	<path class="st0" d="M12.7,47.3c4.2-1.5,6.4-6.3,4.9-10.5c-1.6-4.3-6.3-6.4-10.5-4.9c-4.3,1.6-6.5,6.3-4.9,10.5
		C3.7,46.6,8.4,48.8,12.7,47.3z"/>
</g>
<g>
	<path class="st0" d="M28.2,83.3h2.2h12.1L30.9,73.2l-6.7-17.6l7.2-5.3c0.7-0.5,1.2-1.4,1.2-2.3V28.2c0-1.6-1.3-2.9-2.9-2.9
		c-1.6,0-2.9,1.3-2.9,2.9v16.6c-3.7,0.5-7.8,2.2-12.7,4l-0.7,0.3l-0.7,0.3c-7.2,2.6-9.3,6-9.7,10.6c-0.2,2.3,6.6,27.2,6.6,27.2
		c0.4,1.5,1.9,2.4,3.3,2c0.1,0,0.2-0.1,0.3-0.1c1.3-0.5,2.1-1.9,1.7-3.2L9.2,64l6.5,16.1l6.9,15.2l-10,19.4c-1,2-0.2,4.5,1.8,5.5
		c0.6,0.3,1.2,0.5,1.9,0.5c1.5,0,2.9-0.8,3.6-2.2l11.2-21.6c0.5-1.1,0.6-2.3,0.1-3.4L28.2,83.3z"/>
</g>
</svg>
