<?xml version="1.0" encoding="utf-8"?>
<!-- Generator: Adobe Illustrator 19.1.0, SVG Export Plug-In . SVG Version: 6.00 Build 0)  -->
<svg version="1.1" id="Layer_1" xmlns="http://www.w3.org/2000/svg" xmlns:xlink="http://www.w3.org/1999/xlink" x="0px" y="0px"
	 viewBox="-20 22 100 98.7" style="enable-background:new -20 22 100 98.7;" xml:space="preserve">
<style type="text/css">
	.st0{fill:#EE2A24;}
</style>
<path class="st0" d="M73.6,35.1c-0.2-0.4-0.4-0.7-0.6-1.1c0.2-0.8,0.3-1.8,0.1-2.9c-0.3-1.7-0.1-3.4,0.4-4.3
	c1.1-1.7,3.5-2.5,6.4-2.9c-0.7,1.5-3,2.9-3.1,4.9c-0.1,1.5,0.1,3.4-0.4,4.3C75.8,34.2,74.9,34.8,73.6,35.1z"/>
<path class="st0" d="M75.2,58.9c-0.2-0.2-0.4-0.3-0.7-0.5c-0.5-0.4-0.9-0.7-1.4-0.9c-0.2-0.1-0.5-0.2-0.7-0.3
	c-0.5-0.2-0.9-0.3-1.4-0.4c-0.2-0.1-0.4-0.1-0.6-0.1c-0.5-0.1-0.9-0.1-1.4-0.1c-0.1,0-0.2,0-0.3,0c-0.6,0-1.2,0.1-1.5,0.1
	c-0.3,0-0.5,0.1-0.6,0.1c-0.1,0-0.2,0-0.2,0c0,0,0,0,0,0c0.5-0.8,10.8-9.4,6-16.9c-5.4-8.6-5.7-13-2.6-17.7
	c-0.1,0.2-9.6,4.8-8.9,10.5c0.2,1.6,0.2,2.9,0,4.2c0,0.2,0,0.5-0.1,0.8c-0.2,1.1-0.5,2.1-0.9,2.8c-0.1,0.1-0.2,0.2-0.2,0.3
	c-0.4,0.7-0.8,1.2-1.3,1.6c-0.1,0.1-0.2,0.2-0.2,0.2c-0.5,0.4-1.1,0.5-1.6,0.6c-0.1,0-0.1,0.1-0.2,0.1c-0.1,0-0.1-0.1-0.2-0.1
	c-0.6,0-1.1-0.2-1.5-0.6c-4.2-3.6,0.2-9.3,1.9-10.3c-0.6-0.5-1.4-0.8-2.2-1.1c-0.3-0.1-0.5-0.1-0.8-0.2c-0.6-0.1-1.1-0.2-1.7-0.3
	c-0.3,0-0.5,0-0.8,0c-1.1,0.1-2.2,0.2-3.2,0.7c-8,3.5-2.8,15.1-8.7,17.5c-0.4,0.2-0.8,0.2-1.1,0.2c-0.1,0-0.1-0.1-0.2-0.1
	c-0.2,0-0.4-0.1-0.5-0.2c-0.2-0.1-0.4-0.2-0.6-0.3c-0.1-0.1-0.3-0.2-0.4-0.4c-0.2-0.2-0.3-0.4-0.4-0.6c-0.1-0.2-0.2-0.4-0.3-0.6
	c-0.1-0.3-0.2-0.5-0.3-0.8c-0.1-0.2-0.1-0.4-0.2-0.6c-0.1-0.3-0.1-0.6-0.2-0.9c0-0.2-0.1-0.4-0.1-0.6c0-0.3-0.1-0.5-0.1-0.8
	c0-0.2,0-0.4,0-0.5c0-0.2,0-0.4,0-0.6c0-0.1,0-0.3,0-0.4c0-0.2,0-0.4,0-0.4c-1.2,1.3-2.1,2.6-3,3.8c-0.2,0.4-0.5,0.7-0.7,1.1
	c-0.6,1-1.1,1.9-1.4,2.9c-0.1,0.1-0.1,0.3-0.2,0.5c-0.1,0.2-0.2,0.4-0.2,0.5c-0.4,1.2-0.7,2.4-0.9,3.6c0,0.2,0,0.4,0,0.6
	c-0.1,1-0.1,2,0,2.9c0,0.3,0.1,0.7,0.1,1c0.1,0.9,0.3,1.7,0.6,2.6c0.1,0.2,0.1,0.5,0.2,0.7c0.4,1,0.9,2,1.4,3
	c0.1,0.2,0.3,0.5,0.5,0.7c0.5,0.7,1,1.4,1.6,2c0.2,0.2,0.4,0.5,0.7,0.7c0.7,0.7,1.4,1.4,2.2,2c0.1,0.1,0.2,0.2,0.3,0.2
	c0.9,0.7,1.9,1.3,2.9,1.8c0.3,0.2,0.6,0.3,0.9,0.4c0.8,0.4,1.6,0.7,2.4,1c0.3,0.1,0.6,0.2,0.9,0.3c1.1,0.3,2.2,0.6,3.3,0.7
	c0.2,0,0.3,0,0.4,0c0.9,0.1,1.9,0.1,2.8,0.1c0.8,0,1.6-0.1,2.4-0.2c0.6-0.1,1.1-0.1,1.7-0.3c0.1,0,0.2-0.1,0.3-0.1
	c0.7-0.2,1.4-0.4,2.1-0.7c0.5-0.2,1-0.3,1.5-0.6c0.8-0.4,1.6-1,2.4-1.5c0.4-0.3,0.8-0.5,1.2-0.8c1.2-1,2.3-2.1,3.3-3.4
	c0.5-0.7,1.1-1.3,1.7-1.8c0.2-0.2,0.4-0.3,0.6-0.5c0.4-0.3,0.9-0.7,1.3-0.9c0.2-0.1,0.5-0.3,0.7-0.4c0.4-0.2,0.9-0.5,1.3-0.6
	c0.2-0.1,0.5-0.2,0.7-0.3c0.5-0.2,0.9-0.3,1.4-0.5c0.2-0.1,0.3-0.1,0.5-0.2c0.6-0.2,1.2-0.3,1.7-0.4c0,0,0.1,0,0.1,0
	c0.5-0.1,0.9-0.1,1.3-0.1c0.1,0,0.2,0,0.3,0c0.1,0,0.3,0,0.5,0c0.1,0,0.1,0,0.1,0c0.3,0,0.6,0,0.6,0.1
	C76.5,60.2,75.9,59.5,75.2,58.9z"/>
<path class="st0" d="M26.2,63.7c-2.4-5.4-2.1-11.3,0.4-16.9L23.8,44L-20,87.9h11v32.9h27.4V98.8h10.9v21.9h27.4V87.9h11L56.5,76.7
	c-2.4,0.9-4.9,1.4-7.5,1.4C39.3,78.1,29.9,72.2,26.2,63.7z"/>
</svg>
