<?xml version="1.0" encoding="utf-8"?>
<!-- Generator: Adobe Illustrator 19.1.0, SVG Export Plug-In . SVG Version: 6.00 Build 0)  -->
<svg version="1.1" id="Layer_1" xmlns="http://www.w3.org/2000/svg" xmlns:xlink="http://www.w3.org/1999/xlink" x="0px" y="0px"
	 viewBox="-29 20.7 82.5 100" style="enable-background:new -29 20.7 82.5 100;" xml:space="preserve">
<style type="text/css">
	.st0{fill:#EE2A24;}
</style>
<path class="st0" d="M49.7,113H38.2c-0.4-2.6-0.8-5.8-1.5-9.9c-1.4-9.2-3.6-22.4-6.4-39.8V39.9h4.2L11.7,20.7L-10,39.9h4.3v23.9h0.1
	c-4.3,24.4-7.1,40.8-8.2,49.2h-11.4c-2.1,0-3.9,1.7-3.9,3.9c0,2.1,1.7,3.9,3.9,3.9h74.8c2.1,0,3.9-1.7,3.9-3.9
	C53.5,114.7,51.8,113,49.7,113z M30.5,104.5l-14-15.9L25.8,78L30.5,104.5z M12.6,85.2L-0.1,71.1l1-6.4l22.7-0.1l1.1,6.7L12.6,85.2z
	 M-0.5,40H25v8H-0.5V40z M-1.6,76.8L9.3,88.9l-16.5,18.4L-1.6,76.8z M-6.1,113l18.5-20.2L30.8,113H-6.1z"/>
</svg>
