<?xml version="1.0" encoding="utf-8"?>
<!-- Generator: Adobe Illustrator 19.1.0, SVG Export Plug-In . SVG Version: 6.00 Build 0)  -->
<svg version="1.1" id="Layer_1" xmlns="http://www.w3.org/2000/svg" xmlns:xlink="http://www.w3.org/1999/xlink" x="0px" y="0px"
	 viewBox="-20 34.4 100 72.3" style="enable-background:new -20 34.4 100 72.3;" xml:space="preserve">
<style type="text/css">
	.st0{fill:#EE2A24;}
</style>
<polygon class="st0" points="80,34.4 80,106.7 69.7,106.7 69.7,51.6 59.1,62.2 50.2,62.2 69.7,42.7 69.7,34.4 "/>
<polygon class="st0" points="42.4,40.4 34,40.4 12.3,62.2 21.2,62.2 42.7,40.7 "/>
<polygon class="st0" points="23.4,40.4 15.1,40.4 -6.7,62.2 2.2,62.2 23.7,40.7 "/>
<polygon class="st0" points="4.7,40.7 4.4,40.4 -3.9,40.4 -9.7,46.2 -9.7,34.4 -20,34.4 -20,106.7 -9.7,106.7 -9.7,55.1 "/>
<polygon class="st0" points="61.3,40.4 53,40.4 31.2,62.2 40.1,62.2 61.6,40.7 "/>
</svg>
