<?xml version="1.0" encoding="utf-8"?>
<!-- Generator: Adobe Illustrator 19.1.0, SVG Export Plug-In . SVG Version: 6.00 Build 0)  -->
<svg version="1.1" id="Layer_1" xmlns="http://www.w3.org/2000/svg" xmlns:xlink="http://www.w3.org/1999/xlink" x="0px" y="0px"
	 viewBox="-20 20.7 100 100" style="enable-background:new -20 20.7 100 100;" xml:space="preserve">
<style type="text/css">
	.st0{fill:#EE2A24;}
</style>
<path class="st0" d="M30,20.7c-27.6,0-50,22.4-50,50c0,27.6,22.4,50,50,50c27.6,0,50-22.4,50-50C80,43.2,57.6,20.7,30,20.7z
	 M52.8,39.8L30,62.6L7.2,39.8c6.4-4.7,14.2-7.6,22.8-7.6C38.6,32.2,46.4,35.1,52.8,39.8z M-8.5,70.7c0-8.5,2.9-16.4,7.6-22.8
	l22.8,22.8L-0.9,93.5C-5.6,87.1-8.5,79.3-8.5,70.7z M7.2,101.6L30,78.9l22.8,22.8c-6.4,4.7-14.2,7.6-22.8,7.6
	C21.5,109.3,13.6,106.4,7.2,101.6z M60.9,93.5L38.1,70.7L60.9,48c4.7,6.4,7.6,14.2,7.6,22.8C68.5,79.3,65.6,87.1,60.9,93.5z"/>
</svg>
