<?xml version="1.0" encoding="utf-8"?>
<!-- Generator: Adobe Illustrator 19.1.0, SVG Export Plug-In . SVG Version: 6.00 Build 0)  -->
<svg version="1.1" id="Layer_1" xmlns="http://www.w3.org/2000/svg" xmlns:xlink="http://www.w3.org/1999/xlink" x="0px" y="0px"
	 viewBox="-20 22.8 100 97" style="enable-background:new -20 22.8 100 97;" xml:space="preserve">
<style type="text/css">
	.st0{fill:#EE2A24;}
</style>
<path class="st0" d="M29.1,92.9c0,0.6-0.4,1.5-1.3,2.8c-2.1,2.9-7.9,11-17.2,24.1L-6.9,95.5c-0.8-1.1-1.3-2-1.3-2.6
	c0-1.3,0.8-2,2.4-2l10.8,2.7V22.8l10.4,0v71l11.5-2.9C28.4,90.8,29.1,91.5,29.1,92.9z"/>
<path class="st0" d="M68.9,49.6c0-0.6-0.4-1.5-1.3-2.7L50.1,22.8C40.8,35.9,35,43.9,32.9,46.8c-0.8,1.2-1.3,2.2-1.3,2.8
	c0,1.3,0.7,2,2.2,2l11.5-2.9v71l10.4,0V49l10.8,2.6C68.1,51.6,68.9,51,68.9,49.6z"/>
<rect x="-20" y="61.7" class="st0" width="18.7" height="7.5"/>
<rect x="21.1" y="61.7" class="st0" width="18.7" height="7.5"/>
<rect x="61.3" y="61.7" class="st0" width="18.7" height="7.5"/>
</svg>
