<?xml version="1.0" encoding="utf-8"?>
<!-- Generator: Adobe Illustrator 19.1.0, SVG Export Plug-In . SVG Version: 6.00 Build 0)  -->
<svg version="1.1" id="Layer_1" xmlns="http://www.w3.org/2000/svg" xmlns:xlink="http://www.w3.org/1999/xlink" x="0px" y="0px"
	 viewBox="-20 36.6 100 68.1" style="enable-background:new -20 36.6 100 68.1;" xml:space="preserve">
<style type="text/css">
	.st0{fill:#EE2A24;}
</style>
<path class="st0" d="M72.8,61.4l-8.3,10.2l8.3,10.2c1.1,1.4,0.9,3.4-0.5,4.5c-0.6,0.5-1.3,0.7-2,0.7c-0.9,0-1.8-0.4-2.5-1.2
	l-7.4-9.2L53,85.8c-0.6,0.8-1.5,1.2-2.5,1.2c-0.7,0-1.4-0.2-2-0.7c-1.4-1.1-1.6-3.1-0.5-4.5l8.3-10.2L48,61.4
	c-1.1-1.4-0.9-3.4,0.5-4.5c1.4-1.1,3.4-0.9,4.5,0.5l7.4,9.2l7.4-9.2c1.1-1.4,3.1-1.6,4.5-0.5C73.7,58.1,73.9,60.1,72.8,61.4z"/>
<path class="st0" d="M42.2,57c-1.4-1.1-3.4-0.9-4.5,0.5l-7.4,9.2l-7.4-9.2c-1.1-1.4-3.1-1.6-4.5-0.5c-1.4,1.1-1.6,3.1-0.5,4.5
	l8.3,10.2l-8.3,10.2c-1.1,1.4-0.9,3.4,0.5,4.5c0.6,0.5,1.3,0.7,2,0.7c0.9,0,1.8-0.4,2.5-1.2l7.4-9.2l7.4,9.2
	c0.6,0.8,1.5,1.2,2.5,1.2c0.7,0,1.4-0.2,2-0.7c1.4-1.1,1.6-3.1,0.5-4.5l-8.3-10.2l8.3-10.2C43.7,60.1,43.5,58.1,42.2,57z"/>
<path class="st0" d="M11.3,56.9c-1.4-1.1-3.4-0.9-4.5,0.5l-7.4,9.2l-7.4-9.2c-1.1-1.4-3.1-1.6-4.5-0.5c-1.4,1.1-1.6,3.1-0.5,4.5
	l8.3,10.2L-13,81.8c-1.1,1.4-0.9,3.4,0.5,4.5c0.6,0.5,1.3,0.7,2,0.7c0.9,0,1.8-0.4,2.5-1.2l7.4-9.2l7.4,9.2C7.4,86.6,8.3,87,9.3,87
	c0.7,0,1.4-0.2,2-0.7c1.4-1.1,1.6-3.1,0.5-4.5L3.5,71.6l8.3-10.2C12.8,60.1,12.6,58.1,11.3,56.9z"/>
<path class="st0" d="M-14.1,48.6h88.1c3.3,0,5.9-2.7,5.9-6c0-3.3-2.7-5.9-5.9-5.9h-88.1c-3.3,0-5.9,2.7-5.9,5.9
	C-20,45.9-17.3,48.6-14.1,48.6z"/>
<path class="st0" d="M74.1,92.8h-88.1c-3.3,0-5.9,2.7-5.9,6c0,3.3,2.7,5.9,5.9,5.9h88.1c3.3,0,5.9-2.7,5.9-6
	C80,95.5,77.3,92.8,74.1,92.8z"/>
</svg>
