<?xml version="1.0" encoding="utf-8"?>
<!-- Generator: Adobe Illustrator 19.1.0, SVG Export Plug-In . SVG Version: 6.00 Build 0)  -->
<svg version="1.1" id="Layer_1" xmlns="http://www.w3.org/2000/svg" xmlns:xlink="http://www.w3.org/1999/xlink" x="0px" y="0px"
	 viewBox="-20 23.8 100 94" style="enable-background:new -20 23.8 100 94;" xml:space="preserve">
<style type="text/css">
	.st0{fill:#EE2A24;}
</style>
<path class="st0" d="M31.6,33.1l-2.2,2.2C26,28.5,19,23.8,11,23.8H0.6c-11.3,0-20.6,9.3-20.6,20.6v10.3c0,8.1,4.7,15,11.5,18.4
	l-8.3,8.3h12.1v36.3h30.2V93.5h12.1v24.2h30.2V81.4H80L31.6,33.1z M29,54.8c0,10-8.1,18.1-18.1,18.1H0.6c-10,0-18.1-8.1-18.1-18.1
	V44.4c0-10,8.1-18.1,18.1-18.1H11c10,0,18.1,8.1,18.1,18.1V54.8z"/>
<polygon class="st0" points="23.6,42.1 19,37.5 1.7,54.8 -7.4,45.7 -12,50.3 1.7,63.9 "/>
</svg>
