<?xml version="1.0" encoding="utf-8"?>
<!-- Generator: Adobe Illustrator 19.1.0, SVG Export Plug-In . SVG Version: 6.00 Build 0)  -->
<svg version="1.1" id="Layer_1" xmlns="http://www.w3.org/2000/svg" xmlns:xlink="http://www.w3.org/1999/xlink" x="0px" y="0px"
	 viewBox="-28 20.7 83.9 100" style="enable-background:new -28 20.7 83.9 100;" xml:space="preserve">
<style type="text/css">
	.st0{fill:#EE2A24;}
</style>
<rect x="-20.3" y="43.3" class="st0" width="36.1" height="6.5"/>
<path class="st0" d="M13.9,24c-3.2-2-6.9-3.2-10.9-3.2H-7.4C-18.7,20.7-28,30-28,41.4v10.3c0,10.9,8.6,19.8,19.4,20.5v48.5h25.8
	v-19.4h12.9v19.4h25.8V24H13.9z M10.7,85.2H-2.2V72.3H3c2.7,0,5.3-0.6,7.7-1.5V85.2z M3,69.8H-7.4c-10,0-18.1-8.1-18.1-18.1V41.4
	c0-10,8.1-18.1,18.1-18.1H3c10,0,18.1,8.1,18.1,18.1v10.3C21,61.7,12.9,69.8,3,69.8z M30.1,85.2H17.2V66.6c0.2-0.2,0.5-0.5,0.7-0.7
	h12.2V85.2z M30.1,53h-6.6c0-0.4,0.1-0.8,0.1-1.3V41.4c0-2.7-0.6-5.3-1.5-7.7h8V53z M49.4,85.2H36.5V65.9h12.9V85.2z M49.4,53H36.5
	V33.6h12.9V53z"/>
</svg>
