<?xml version="1.0" encoding="utf-8"?>
<!-- Generator: Adobe Illustrator 19.1.0, SVG Export Plug-In . SVG Version: 6.00 Build 0)  -->
<svg version="1.1" id="Layer_1" xmlns="http://www.w3.org/2000/svg" xmlns:xlink="http://www.w3.org/1999/xlink" x="0px" y="0px"
	 viewBox="-20 20.7 100 100" style="enable-background:new -20 20.7 100 100;" xml:space="preserve">
<style type="text/css">
	.st0{fill:#EE2A24;}
</style>
<path class="st0" d="M76,56.1l4-8.1L31.7,24l0-0.1l0,0l0,0l0,0.1l-5.9,2.9c-3.7-3.8-9-6.2-14.7-6.2H0.6C-10.7,20.7-20,30-20,41.4
	v10.3c0,7.3,3.9,13.7,9.7,17.4c0,0.9,0,1.9,0,3.1V119h34.5c1.2,1,4,1.7,7.3,1.7c3.3,0,6.1-0.7,7.3-1.7h34.7V72.2c0-4.2,0-6.9,0-7
	c-21.9-9.6-39.3,0.6-41.5,2.6c-0.8-0.7-2.5-1.9-5.1-3.2c2.9-3.5,4.7-8,4.7-12.9V41.4c0-2.3-0.5-4.6-1.2-6.7l1.2-0.6L76,56.1z
	 M34.6,76.4c0-7,9.3-10.7,20.7-10.7c5.5,0,10.5,1.3,14.2,3.4v45.7c-18.7-11.8-34.9-1-34.9,0.9V76.4z M28.9,76.4v39.2
	c0-1.8-16.2-12.6-34.9-0.9V71.1c2.1,0.7,4.3,1.2,6.6,1.2H11c4.4,0,8.6-1.5,11.9-3.9C26.6,70.3,28.9,72.9,28.9,76.4z M29,51.7
	c0,10-8.1,18.1-18.1,18.1H0.6c-10,0-18.1-8.1-18.1-18.1V41.4c0-10,8.1-18.1,18.1-18.1H11c10,0,18.1,8.1,18.1,18.1V51.7z"/>
<rect x="-12.3" y="43.3" class="st0" width="36.1" height="6.5"/>
</svg>
