<?xml version="1.0" encoding="utf-8"?>
<!-- Generator: Adobe Illustrator 19.1.0, SVG Export Plug-In . SVG Version: 6.00 Build 0)  -->
<svg version="1.1" id="Layer_1" xmlns="http://www.w3.org/2000/svg" xmlns:xlink="http://www.w3.org/1999/xlink" x="0px" y="0px"
	 viewBox="-23 20.7 93.4 100" style="enable-background:new -23 20.7 93.4 100;" xml:space="preserve">
<style type="text/css">
	.st0{fill:#EE2A24;}
</style>
<path class="st0" d="M66.5,77.9L54.7,89.2l3.6,1c-5.1,8.5-14.5,12.2-25.1,12.9V60.2h9.8c0.8,0.8,2,1.3,3.2,1.3c2.5,0,4.5-2,4.5-4.5
	c0-2.5-2-4.5-4.5-4.5c-1.3,0-2.4,0.5-3.2,1.3h-9.8v-5.2c4.8-1.9,8.2-6.5,8.2-11.9c0-7.1-5.7-12.8-12.8-12.8c-2.6,0-5,0.8-7,2.1
	C18,22.8,13.2,20.7,8,20.7H-2.4C-13.7,20.7-23,30-23,41.4v10.3c0,11.3,9.3,20.6,20.6,20.6H8c7.1,0,13.3-3.6,17-9.1v39.8
	C13.9,102.3,4.1,98-0.8,88.8L2.8,88L-8.3,75.9l-4.9,15.6l4.2-0.9c6.1,13.4,20,24.1,35.7,25.2l2.4,4.9l2.4-4.9
	c14.9-1,28.2-10.8,34.8-23.2l4.1,1.2L66.5,77.9z M26,51.7c0,10-8.1,18.1-18.1,18.1H-2.4c-10,0-18.1-8.1-18.1-18.1V41.4
	c0-10,8.1-18.1,18.1-18.1H8c10,0,18.1,8.1,18.1,18.1V51.7z M28.6,43.3v-2c0-3.8-1.1-7.3-2.9-10.4c0.9-0.5,1.9-0.8,2.9-0.8
	c3.6,0,6.6,2.9,6.6,6.6S32.2,43.3,28.6,43.3z"/>
<rect x="-15.3" y="43.3" class="st0" width="36.1" height="6.5"/>
</svg>
