<?xml version="1.0" encoding="utf-8"?>
<!-- Generator: Adobe Illustrator 19.1.0, SVG Export Plug-In . SVG Version: 6.00 Build 0)  -->
<svg version="1.1" id="Layer_1" xmlns="http://www.w3.org/2000/svg" xmlns:xlink="http://www.w3.org/1999/xlink" x="0px" y="0px"
	 viewBox="-20 20.7 99.9 100" style="enable-background:new -20 20.7 99.9 100;" xml:space="preserve">
<style type="text/css">
	.st0{fill:#EE2A24;}
</style>
<path class="st0" d="M79.9,120.7L54.1,24H22c-3.2-2.1-7-3.3-11.1-3.3H0.6C-10.7,20.7-20,30-20,41.4v10.3c0,9.8,7,18.1,16.3,20.1
	l-13,48.9H79.9z M34.8,117.2h-6.4v-12.9h6.4V117.2z M34.8,91.4h-6.4V78.5h6.4V91.4z M34.8,65.6h-6.4v-3c1.8-2.9,2.9-6.3,3.1-9.9h3.3
	C34.8,52.7,34.8,65.6,34.8,65.6z M28.4,26.9h6.4v12.9h-3.4c-0.3-3.4-1.3-6.6-3.1-9.4C28.4,30.4,28.4,26.9,28.4,26.9z M-17.4,51.7
	V41.4c0-9.9,8.1-18,18-18H11c9.9,0,18,8.1,18,18v10.3c0,9.9-8.1,18-18,18H0.6C-9.3,69.7-17.4,61.6-17.4,51.7z"/>
<rect x="-12.3" y="43.3" class="st0" width="36.1" height="6.4"/>
</svg>
