<?xml version="1.0" encoding="utf-8"?>
<!-- Generator: Adobe Illustrator 19.1.0, SVG Export Plug-In . SVG Version: 6.00 Build 0)  -->
<svg version="1.1" id="Layer_1" xmlns="http://www.w3.org/2000/svg" xmlns:xlink="http://www.w3.org/1999/xlink" x="0px" y="0px"
	 viewBox="-21 20.7 98.7 100" style="enable-background:new -21 20.7 98.7 100;" xml:space="preserve">
<style type="text/css">
	.st0{fill:#EE2A24;}
</style>
<path class="st0" d="M77.7,95.6V85.3l-42-26.4V29c0-1.4-0.5-2.5-1.5-3.5c-1-1-2.2-1.5-3.6-1.5h-0.3c-1.4,0-2.5,0.5-3.4,1.5
	c-0.7,0.8-1.1,1.7-1.2,2.7c-3.8-4.5-9.4-7.5-15.7-7.5H-0.4C-11.7,20.7-21,30-21,41.4v10.3c0,11.3,9.3,20.6,20.6,20.6h4.5l-20.6,12.9
	v10.4L25.5,82v22.6l-9.4,9.1v7.1l14.4-4.3l14.2,4.3v-7.1l-9.1-9.1V82L77.7,95.6z M28,51.7c0,10-8.1,18.1-18.1,18.1H-0.4
	c-10,0-18.1-8.1-18.1-18.1V41.4c0-10,8.1-18.1,18.1-18.1H10c10,0,18.1,8.1,18.1,18.1V51.7z"/>
<polygon class="st0" points="15.3,61.6 4.8,51.1 -5.7,61.6 -10.3,57 0.2,46.5 -10.3,36 -5.7,31.5 4.8,42 15.3,31.5 19.9,36 
	9.4,46.5 19.9,57 "/>
</svg>
