<?xml version="1.0" encoding="utf-8"?>
<!-- Generator: Adobe Illustrator 19.1.0, SVG Export Plug-In . SVG Version: 6.00 Build 0)  -->
<svg version="1.1" id="Layer_1" xmlns="http://www.w3.org/2000/svg" xmlns:xlink="http://www.w3.org/1999/xlink" x="0px" y="0px"
	 viewBox="-20 20.7 100 100" style="enable-background:new -20 20.7 100 100;" xml:space="preserve">
<style type="text/css">
	.st0{fill:#EE2A24;}
</style>
<path class="st0" d="M80,120.7L54.2,24H21.9c-3.2-2-6.9-3.2-10.9-3.2H0.6C-10.7,20.7-20,30-20,41.4v10.3c0,9.8,7,18.1,16.3,20.1
	l-13,48.9H80z M34.8,117.2h-6.5v-12.9h6.5V117.2z M34.8,91.4h-6.5V78.5h6.5V91.4z M34.8,65.5h-6.5v-2.9c1.9-2.9,3-6.3,3.1-10h3.3
	L34.8,65.5L34.8,65.5z M28.4,26.8h6.5v12.9h-3.4c-0.3-3.4-1.3-6.6-3.1-9.3L28.4,26.8L28.4,26.8z M-17.4,51.7V41.4
	c0-10,8.1-18.1,18.1-18.1H11c10,0,18.1,8.1,18.1,18.1v10.3c0,10-8.1,18.1-18.1,18.1H0.6C-9.3,69.8-17.4,61.7-17.4,51.7z"/>
<polygon class="st0" points="5.8,51.1 -4.7,61.6 -9.3,57 1.2,46.5 -9.3,36 -4.7,31.5 5.8,42 16.3,31.5 20.9,36 10.4,46.5 20.9,57 
	16.3,61.6 "/>
</svg>
