<?xml version="1.0" encoding="utf-8"?>
<!-- Generator: Adobe Illustrator 19.1.0, SVG Export Plug-In . SVG Version: 6.00 Build 0)  -->
<svg version="1.1" id="Layer_1" xmlns="http://www.w3.org/2000/svg" xmlns:xlink="http://www.w3.org/1999/xlink" x="0px" y="0px"
	 viewBox="-20 27.8 100 85.9" style="enable-background:new -20 27.8 100 85.9;" xml:space="preserve">
<style type="text/css">
	.st0{fill:#EE2A24;}
</style>
<path class="st0" d="M51.4,60.9c-3.2,0-5.9,2.6-5.9,5.9c0,3.2,2.6,5.8,5.9,5.8c3.2,0,5.9-2.6,5.9-5.8C57.2,63.5,54.6,60.9,51.4,60.9
	z M51.4,69.9c-1.7,0-3.1-1.4-3.1-3.2c0-1.8,1.4-3.2,3.1-3.2c1.8,0,3.2,1.4,3.2,3.2C54.5,68.5,53.1,69.9,51.4,69.9z"/>
<path class="st0" d="M51.4,72.6H26.2c1.6-1.7,2.9-3.7,3.8-5.8h14.2c0-4,3.2-7.2,7.2-7.2c4,0,7.2,3.2,7.2,7.2h5.3v-4.4h-1.1
	c0-5.7-3.6-6.4-3.6-6.4C54,55.3,45,54.9,45,54.9c-0.8-1.4-4.6-9.8-6.8-9.8c-0.3,0-3.5,0-6.9,0C29.7,35.3,21.2,27.8,11,27.8H0.6
	c-11.3,0-20.6,9.3-20.6,20.6v10.3c0,5.3,2.1,10.1,5.4,13.8h-2.2v41.1H2.3c-0.1-0.8-0.1-1.6-0.1-2.4c0-16.1,13-29.1,29.1-29.1
	s29.1,13,29.1,29.1c0,0.8-0.1,1.6-0.1,2.4H80V72.6H51.4z M37.6,46.2c1.5,0,4.8,6.9,5.7,8.6L31.6,55v-6.6c0-0.8-0.1-1.5-0.2-2.2
	C33.3,46.2,36.6,46.2,37.6,46.2z M11,76.8H0.6c-10,0-18.1-8.1-18.1-18.1V48.4c0-10,8.1-18.1,18.1-18.1H11c10,0,18.1,8.1,18.1,18.1
	v10.3C29,68.7,20.9,76.8,11,76.8z"/>
<polygon class="st0" points="-4.7,68.7 5.8,58.2 16.3,68.7 20.9,64.1 10.4,53.6 20.9,43.1 16.3,38.6 5.8,49.1 -4.7,38.6 -9.3,43.1 
	1.2,53.6 -9.3,64.1 "/>
</svg>
