<?xml version="1.0" encoding="utf-8"?>
<!-- Generator: Adobe Illustrator 19.1.0, SVG Export Plug-In . SVG Version: 6.00 Build 0)  -->
<svg version="1.1" id="Layer_1" xmlns="http://www.w3.org/2000/svg" xmlns:xlink="http://www.w3.org/1999/xlink" x="0px" y="0px"
	 viewBox="-28 20.7 84.6 100" style="enable-background:new -28 20.7 84.6 100;" xml:space="preserve">
<style type="text/css">
	.st0{fill:#EE2A24;}
</style>
<path class="st0" d="M15.9,54.1h-3.6V20.7h3.6v2.8c2.9-1.2,5.7-1.8,8.2-1.8c0.8,0,1.7,0.1,2.8,0.4c1.1,0.2,2.3,0.5,3.5,0.9
	c1.3,0.4,2.4,0.7,3.6,1c1.1,0.3,2,0.4,2.7,0.4c1.4,0,2.7-0.3,3.8-0.8v15.1c-1.4,0.4-2.7,0.5-3.8,0.5c-0.7,0-1.7-0.1-2.7-0.4
	c-1.1-0.3-2.3-0.6-3.6-1c-1.2-0.4-2.5-0.7-3.6-1c-1.1-0.3-2.1-0.4-2.9-0.4c-0.4,0-1,0.1-1.8,0.3c-0.8,0.2-1.7,0.4-2.6,0.8
	c-0.9,0.3-1.7,0.6-2.4,0.9c-0.5,0.2-0.9,0.2-1.2,0.3L15.9,54.1L15.9,54.1z"/>
<path class="st0" d="M40.3,65.5v-8.7h-52.1v8.7H-28v55.3H0.8v-7.5h26.5v7.5h29.2V65.5H40.3z M11,90.7c0,3.8-0.2,6.4-0.5,8
	c-0.3,1.6-1,2.9-1.9,3.9c-0.9,1.1-2.1,1.9-3.7,2.6c-1.5,0.6-3.5,1-6,1c-3,0-5.3-0.4-6.8-1c-1.5-0.7-2.8-1.6-3.7-2.7
	c-0.9-1.1-1.5-2.3-1.8-3.5c-0.4-1.8-0.6-4.4-0.6-7.9V74.2h6.3v17c0,2.7,0.1,4.4,0.2,5.2c0.3,1.3,0.9,2.3,1.9,3.1
	c1,0.8,2.4,1.2,4.2,1.2c1.8,0,3.2-0.4,4.1-1.1c0.9-0.7,1.5-1.6,1.6-2.7c0.2-1.1,0.3-2.8,0.3-5.3V74.2H11L11,90.7L11,90.7z
	 M42.6,105.6h-6.4L23.6,85.1v20.4h-5.9V74.2h6.2l12.8,20.9V74.2h5.9L42.6,105.6L42.6,105.6z"/>
</svg>
