<?xml version="1.0" encoding="utf-8"?>
<!-- Generator: Adobe Illustrator 19.1.0, SVG Export Plug-In . SVG Version: 6.00 Build 0)  -->
<svg version="1.1" id="Layer_1" xmlns="http://www.w3.org/2000/svg" xmlns:xlink="http://www.w3.org/1999/xlink" x="0px" y="0px"
	 viewBox="-20 35 100 72.8" style="enable-background:new -20 35 100 72.8;" xml:space="preserve">
<style type="text/css">
	.st0{fill:#EE2A24;}
</style>
<polygon class="st0" points="46.5,58 14.7,42.2 -17.1,58 -20,52.2 14.6,35 14.6,35 14.7,35 14.7,35 14.7,35 49.4,52.2 "/>
<g>
	<polygon class="st0" points="5.5,104.3 5.5,84.1 23.8,84.1 23.8,104.3 33.2,104.3 33.2,58 23.8,58 23.8,76.2 5.5,76.2 5.5,58 
		-3.8,58 -3.8,104.3 	"/>
</g>
<path class="st0" d="M76.8,40c-0.6,0-1.4-0.1-2.3-0.3c-0.9-0.2-1.9-0.5-3-0.8c-1-0.3-2-0.6-2.9-0.8c-0.9-0.2-1.7-0.3-2.3-0.3
	c-2.2,0-4.5,0.5-6.9,1.5v-2.3h-3v70.8h3V52.1c0.3,0,0.6-0.1,1-0.2c0.6-0.2,1.3-0.5,2-0.8c0.7-0.3,1.5-0.5,2.2-0.6
	c0.7-0.2,1.2-0.2,1.5-0.2c0.6,0,1.4,0.1,2.4,0.3c1,0.2,2,0.5,3,0.8c1.1,0.3,2.1,0.6,3,0.8c0.9,0.2,1.7,0.3,2.3,0.3
	c1,0,2-0.1,3.2-0.4V39.4C79,39.8,78,40,76.8,40z"/>
</svg>
