<?xml version="1.0" encoding="utf-8"?>
<!-- Generator: Adobe Illustrator 19.1.0, SVG Export Plug-In . SVG Version: 6.00 Build 0)  -->
<svg version="1.1" id="Layer_1" xmlns="http://www.w3.org/2000/svg" xmlns:xlink="http://www.w3.org/1999/xlink" x="0px" y="0px"
	 viewBox="-20 20.7 100 100" style="enable-background:new -20 20.7 100 100;" xml:space="preserve">
<style type="text/css">
	.st0{fill:#EE2A24;}
</style>
<path class="st0" d="M40.9,70.7c0,6-4.9,10.9-10.8,10.9c-6,0-10.9-4.9-10.9-10.9c0-6,4.9-10.8,10.9-10.8
	C36,59.9,40.9,64.7,40.9,70.7z"/>
<polygon class="st0" points="34.7,120.7 34.7,103.8 39.7,103.8 30,87 20.3,103.8 25.3,103.8 25.3,120.7 "/>
<polygon class="st0" points="-20,75.4 -3.1,75.4 -3.1,80.4 13.7,70.7 -3.1,61 -3.1,66.1 -20,66.1 "/>
<polygon class="st0" points="80,66.1 63.1,66.1 63.1,61 46.3,70.7 63.1,80.4 63.1,75.4 80,75.4 "/>
<polygon class="st0" points="25.3,20.7 25.3,37.6 20.3,37.7 30,54.5 39.7,37.7 34.7,37.7 34.7,20.7 "/>
</svg>
