<?xml version="1.0" encoding="utf-8"?>
<!-- Generator: Adobe Illustrator 19.1.0, SVG Export Plug-In . SVG Version: 6.00 Build 0)  -->
<svg version="1.1" id="Layer_1" xmlns="http://www.w3.org/2000/svg" xmlns:xlink="http://www.w3.org/1999/xlink" x="0px" y="0px"
	 viewBox="-20 20.8 100 99.9" style="enable-background:new -20 20.8 100 99.9;" xml:space="preserve">
<style type="text/css">
	.st0{fill:#EE2A24;}
</style>
<polygon class="st0" points="75.8,54.1 30,31.3 -15.8,54.1 -20,45.7 29.9,20.9 30,20.8 30,20.8 30,20.8 30.1,20.9 80,45.7 "/>
<path class="st0" d="M54.5,61l-8.8,8.2H14.2L5.5,61c0,0,4.4-6.1,11.5-6.9c7-0.8,9.5,3.5,13,3.7c3.5-0.2,6-4.5,13-3.7
	C50.2,54.9,54.5,61,54.5,61z"/>
<path class="st0" d="M48.1,74.4H11.9c0,0-17.4,13.7-11.7,39c0,0,1.9,7.3,10.7,7.3h38.4c8.8,0,10.7-7.3,10.7-7.3
	C65.6,88.2,48.1,74.4,48.1,74.4z M44.7,82.2c0,0-4.2,12.6-8.2,8.6C32.6,86.9,43.4,82.5,44.7,82.2z M34.6,79.7c0,0-2.8,2.3-0.9,7.4
	c2.2,5.8-1.9,7.2-3.6,5.5C26.4,89,33.2,80.2,34.6,79.7z M29.2,85.1c0,0-2.8,2.3-0.9,7.4c2.2,5.8-1.9,7.2-3.6,5.5
	C21,94.3,27.9,85.5,29.2,85.1z M20.6,108.7l-5.2,4.4c-1,1.1-2.3-1.1-1.8-1.6l4.4-5.4c0.4-0.5,0.6,0.5,1.4,1.3
	C20.1,108,21,108.2,20.6,108.7z M19.2,103.6c-3.7-3.7,3.1-12.5,4.5-12.9c0,0-2.8,2.2-0.9,7.4C25,103.9,20.9,105.2,19.2,103.6z
	 M23.2,107.6c-1.7-1.7-0.3-5.8,5.5-3.6c5.2,2,7.4-0.9,7.4-0.9C35.7,104.4,26.9,111.3,23.2,107.6z M28.7,102
	c-1.7-1.7-0.3-5.8,5.5-3.6c5.2,2,7.4-0.9,7.4-0.9C41.2,98.9,32.4,105.8,28.7,102z M34.1,96.7c-1.7-1.7-0.3-5.8,5.5-3.6
	c5.2,2,7.4-0.9,7.4-0.9C46.6,93.5,37.8,100.4,34.1,96.7z"/>
</svg>
