<?xml version="1.0" encoding="utf-8"?>
<!-- Generator: Adobe Illustrator 19.1.0, SVG Export Plug-In . SVG Version: 6.00 Build 0)  -->
<svg version="1.1" id="Layer_1" xmlns="http://www.w3.org/2000/svg" xmlns:xlink="http://www.w3.org/1999/xlink" x="0px" y="0px"
	 viewBox="-37 20.7 66 100" style="enable-background:new -37 20.7 66 100;" xml:space="preserve">
<style type="text/css">
	.st0{fill:#EE2A24;}
</style>
<path class="st0" d="M27.7,69.2c-1.7,3.2-3,5.1-3.7,5.9c-3,3.9-6.8,7.1-11.4,9.6c-4,2.2-8.2,3.4-12.7,3.7c-4.5,0.3-8.8-0.2-13-1.5
	c-4.2-1.3-8-3.3-11.5-6.1c-3.5-2.8-6.3-6.2-8.3-10.3c-2.2-4.2-3.5-8.6-3.9-13.1c-0.4-4.5,0.1-8.9,1.4-13c1.3-4.2,3.4-8,6.2-11.5
	c2.9-3.5,6.4-6.4,10.6-8.7c5.9-3.1,12.9-4.1,21-3.3l-10.7,3c-3.7,2-6.8,4.5-9.3,7.6c-2.5,3.1-4.3,6.4-5.4,10
	c-1.1,3.6-1.5,7.4-1.1,11.2c0.3,3.8,1.4,7.6,3.4,11.2c1.9,3.6,4.3,6.7,7.3,9.2c2.9,2.5,6.2,4.3,9.8,5.4c3.6,1.1,7.3,1.5,11.1,1.2
	c3.8-0.3,7.5-1.4,11.1-3.3L27.7,69.2z"/>
<rect x="-32.6" y="95.1" class="st0" width="52.3" height="25.6"/>
<polygon class="st0" points="20.2,47.3 23.7,56.9 15.5,51.2 7.4,56.9 10.7,47.3 2.4,41.5 12.5,41.5 15.5,32.4 18.9,41.5 29,41.5 "/>
</svg>
