<?xml version="1.0" encoding="utf-8"?>
<!-- Generator: Adobe Illustrator 19.1.0, SVG Export Plug-In . SVG Version: 6.00 Build 0)  -->
<svg version="1.1" id="Layer_1" xmlns="http://www.w3.org/2000/svg" xmlns:xlink="http://www.w3.org/1999/xlink" x="0px" y="0px"
	 viewBox="-20 20.7 100 100" style="enable-background:new -20 20.7 100 100;" xml:space="preserve">
<style type="text/css">
	.st0{fill:#EE2A24;}
</style>
<polygon class="st0" points="63.5,61 29.4,74.9 -4.6,61 29.4,47.2 "/>
<path class="st0" d="M29.4,89.7c-9,0-16.8-0.6-20.4-1.6c-1.4,3-2.3,6.2-2.3,9.7c0,12.5,10.2,22.7,22.7,22.7
	c12.5,0,22.7-10.2,22.7-22.7c0-3.5-0.9-6.8-2.3-9.7C46.2,89.1,38.5,89.7,29.4,89.7z"/>
<path class="st0" d="M29.4,77.1L6.8,67.9v14.4c0,1.5,10.1,2.8,22.7,2.8s22.7-1.2,22.7-2.8V67.9L29.4,77.1z"/>
<path class="st0" d="M59.4,76.7V65L58,65.5v11.1c-0.9,0.4-1.6,1.4-1.6,2.6c0,1,0.5,1.9,1.2,2.4L56.9,85h3.6l-0.7-3.4
	c0.7-0.5,1.2-1.3,1.2-2.4C61,78,60.3,77,59.4,76.7z"/>
<polygon class="st0" points="79.4,45.4 29.5,20.6 29.5,20.6 29.4,20.6 29.4,20.6 29.4,20.6 -20.6,45.4 -16.4,53.8 29.4,31 
	75.3,53.8 "/>
</svg>
