<?xml version="1.0" encoding="utf-8"?>
<!-- Generator: Adobe Illustrator 19.1.0, SVG Export Plug-In . SVG Version: 6.00 Build 0)  -->
<svg version="1.1" id="Layer_1" xmlns="http://www.w3.org/2000/svg" xmlns:xlink="http://www.w3.org/1999/xlink" x="0px" y="0px"
	 viewBox="-28 20.7 84.6 100" style="enable-background:new -28 20.7 84.6 100;" xml:space="preserve">
<style type="text/css">
	.st0{fill:#EE2A24;}
</style>
<path class="st0" d="M15.9,54.1h-3.6V20.7h3.6v2.8c2.9-1.2,5.7-1.8,8.2-1.8c0.8,0,1.7,0.1,2.8,0.4c1.1,0.2,2.3,0.5,3.5,0.9
	c1.3,0.4,2.4,0.7,3.6,1c1.1,0.3,2,0.4,2.7,0.4c1.4,0,2.7-0.3,3.8-0.8v15.1c-1.4,0.4-2.7,0.5-3.8,0.5c-0.7,0-1.7-0.1-2.7-0.4
	c-1.1-0.3-2.3-0.6-3.6-1c-1.2-0.4-2.5-0.7-3.6-1c-1.1-0.3-2.1-0.4-2.9-0.4c-0.4,0-1,0.1-1.8,0.3c-0.8,0.2-1.7,0.4-2.6,0.8
	c-0.9,0.3-1.7,0.6-2.4,0.9c-0.5,0.2-0.9,0.2-1.2,0.3L15.9,54.1L15.9,54.1z"/>
<path class="st0" d="M40.3,65.5v-8.7h-52.1v8.7H-28v55.3H0.8v-7.5h26.5v7.5h29.2V65.5H40.3z M-2.9,101.5h-4.9l-9.6-15.6v15.6h-4.5
	V77.5h4.7l9.8,16v-16h4.5V101.5z M23.8,98.2c-1,1-2.5,1.8-4.4,2.6c-1.9,0.7-3.9,1.1-5.8,1.1c-2.5,0-4.7-0.5-6.6-1.6
	c-1.9-1-3.3-2.6-4.2-4.5s-1.4-4.1-1.4-6.4c0-2.5,0.5-4.7,1.6-6.7c1-1.9,2.6-3.4,4.6-4.5c1.5-0.8,3.5-1.2,5.7-1.2c3,0,5.3,0.6,7,1.9
	c1.7,1.3,2.7,3,3.2,5.2l-4.8,0.9c-0.3-1.2-1-2.1-1.9-2.8c-0.9-0.7-2.1-1-3.5-1c-2.1,0-3.8,0.7-5,2c-1.3,1.3-1.9,3.3-1.9,6
	c0,2.8,0.6,5,1.9,6.4c1.3,1.4,2.9,2.1,5,2.1c1,0,2-0.2,3-0.6c1-0.4,1.9-0.9,2.6-1.4v-3h-5.5v-4h10.4C23.8,88.6,23.8,98.2,23.8,98.2z
	 M47.3,98.6c-2.1,2.2-4.9,3.3-8.4,3.3c-3.6,0-6.4-1.1-8.5-3.3c-2.1-2.2-3.2-5.2-3.2-9c0-2.4,0.4-4.5,1.1-6.1
	c0.5-1.2,1.3-2.3,2.2-3.3c0.9-1,2-1.7,3.1-2.2c1.5-0.6,3.2-1,5.2-1c3.5,0,6.4,1.1,8.5,3.3c2.1,2.2,3.2,5.2,3.2,9.1
	C50.5,93.4,49.4,96.4,47.3,98.6z"/>
<path class="st0" d="M38.9,81.3c-2,0-3.6,0.7-4.8,2c-1.2,1.4-1.8,3.4-1.8,6.2c0,2.7,0.6,4.8,1.9,6.2c1.3,1.4,2.8,2.1,4.8,2.1
	c1.9,0,3.5-0.7,4.7-2.1c1.2-1.4,1.9-3.5,1.9-6.3c0-2.7-0.6-4.8-1.8-6.1C42.5,81.9,40.9,81.3,38.9,81.3z"/>
</svg>
