<?xml version="1.0" encoding="utf-8"?>
<!-- Generator: Adobe Illustrator 19.1.0, SVG Export Plug-In . SVG Version: 6.00 Build 0)  -->
<svg version="1.1" id="Layer_1" xmlns="http://www.w3.org/2000/svg" xmlns:xlink="http://www.w3.org/1999/xlink" x="0px" y="0px"
	 viewBox="-20 20.8 100 99.9" style="enable-background:new -20 20.8 100 99.9;" xml:space="preserve">
<style type="text/css">
	.st0{fill:#EE2A24;}
</style>
<polygon class="st0" points="75.8,54.1 30,31.3 -15.8,54.1 -20,45.7 29.9,20.9 30,20.8 30,20.8 30,20.8 30.1,20.9 80,45.7 "/>
<polygon class="st0" points="6.7,105.1 6.7,91.9 17.3,97.6 28.2,91.5 28.2,115.8 "/>
<polygon class="st0" points="53.3,105.1 31.8,115.8 31.8,91.4 42.8,97.6 53.3,91.9 "/>
<path class="st0" d="M70,68.8l-2.9-1.6l-23.8-13l-13.1,7.2l-13.5-7.3L-10,68.6l2.8,1.6L3.3,76L3.1,76h0v0l-12.9,7L3.1,90v17.4
	L30,120.7l26.9-13.4V90l13-7l-12.9-7L70,68.8z M-2.5,68.6l19.2-10.5l9.5,5.2L6.8,73.8L-2.5,68.6z M17.2,93.5L-2.2,83l9.5-5.2
	l19.4,10.5L17.2,93.5z M43.3,58.3l19.2,10.5L53.2,74L33.8,63.5L43.3,58.3z M62.3,83L42.8,93.5l-9.3-5.1l19.2-10.5L62.3,83z"/>
</svg>
