<?xml version="1.0" encoding="UTF-8" standalone="no"?>
<!-- Generator: Adobe Illustrator 19.1.0, SVG Export Plug-In . SVG Version: 6.00 Build 0)  -->

<svg xmlns:dc="http://purl.org/dc/elements/1.1/" xmlns:cc="http://creativecommons.org/ns#" xmlns:rdf="http://www.w3.org/1999/02/22-rdf-syntax-ns#" xmlns:svg="http://www.w3.org/2000/svg" xmlns="http://www.w3.org/2000/svg" xmlns:sodipodi="http://sodipodi.sourceforge.net/DTD/sodipodi-0.dtd" xmlns:inkscape="http://www.inkscape.org/namespaces/inkscape" version="1.1" id="Layer_1" x="0px" y="0px" viewBox="-20 20.7 100 100" style="enable-background:new -20 20.7 100 100;" xml:space="preserve" sodipodi:docname="15_infrastructure_health_facility_noun_4394-03-destroyed.svg" inkscape:version="0.92.1 r15371"><metadata id="metadata17440"><rdf:RDF><cc:Work rdf:about=""><dc:format>image/svg+xml</dc:format><dc:type rdf:resource="http://purl.org/dc/dcmitype/StillImage" /><dc:title></dc:title></cc:Work></rdf:RDF></metadata><defs id="defs17438" /><sodipodi:namedview pagecolor="#ffffff" bordercolor="#666666" borderopacity="1" objecttolerance="10" gridtolerance="10" guidetolerance="10" inkscape:pageopacity="0" inkscape:pageshadow="2" inkscape:window-width="1920" inkscape:window-height="1057" id="namedview17436" showgrid="false" inkscape:zoom="6.675088" inkscape:cx="30.708936" inkscape:cy="53.668785" inkscape:window-x="-8" inkscape:window-y="-8" inkscape:window-maximized="1" inkscape:current-layer="Layer_1" />
<style type="text/css" id="style17427">
	.st0{fill:#EE2A24;}
</style>
<polygon class="st0" points="75.9,53.9 30.1,31.1 -15.8,53.9 -19.9,45.5 30,20.7 30,20.6 30.1,20.7 30.1,20.6 30.1,20.7 80.1,45.5   " id="polygon17429" />
<g id="g17433">
	<polygon class="st0" points="16.9,120.6 16.9,91.4 43.2,91.4 43.2,120.6 56.7,120.6 56.7,53.9 43.2,53.9 43.2,80.1 16.9,80.1    16.9,53.9 3.4,53.9 3.4,120.6  " id="polygon17431" />
</g>
<g transform="translate(-18.877223,-10.699936)" id="g16732"><circle r="25.590433" cy="61.138466" cx="28.689625" id="path16663" style="opacity:0.98999999;fill:#ffffff;fill-opacity:1;fill-rule:evenodd;stroke:none;stroke-width:1.02719641;stroke-miterlimit:4;stroke-dasharray:none;stroke-opacity:1" /><path style="fill:#ee2a24;stroke-width:0.99999994" inkscape:connector-curvature="0" class="st0" d="M 33.877224,35.400155 H 23.477226 c -11.300001,0 -20.6000035,9.300019 -20.6000035,20.700019 V 66.40018 c 0,11.299996 9.3000025,20.599976 20.6000035,20.599976 h 10.29998 c 13.943838,0.0189 20.84801,-9.7787 20.84801,-20.599976 V 56.100174 c 0,-11.453594 -7.280904,-20.75229 -20.747992,-20.700019 z M 51.877205,66.40018 c 0,9.999986 -8.1,18.100006 -18.099999,18.100006 H 23.477207 c -10.000002,0 -18.1000045,-8.10002 -18.1000045,-18.100006 V 56.100174 c 0,-9.999988 8.1000025,-18.100007 18.1000045,-18.100007 h 10.399998 c 10.000002,0 18.100002,8.100019 18.100002,18.100007 V 66.40018 Z" id="path16641" sodipodi:nodetypes="csssscssccssssssscc" /><polygon transform="translate(23.951219,14.650059)" id="polygon15884-6" points="-5.7,31.5 4.8,42 15.3,31.5 19.9,36 9.4,46.5 19.9,57 15.3,61.6 4.8,51.1 -5.7,61.6 -10.3,57 0.2,46.5 -10.3,36 " class="st0" style="fill:#ee2a24" /></g></svg>