<?xml version="1.0" encoding="utf-8"?>
<!-- Generator: Adobe Illustrator 19.1.0, SVG Export Plug-In . SVG Version: 6.00 Build 0)  -->
<svg version="1.1" id="Layer_1" xmlns="http://www.w3.org/2000/svg" xmlns:xlink="http://www.w3.org/1999/xlink" x="0px" y="0px"
	 viewBox="-28 20.7 84.6 100" style="enable-background:new -28 20.7 84.6 100;" xml:space="preserve">
<style type="text/css">
	.st0{fill:#EE2A24;}
</style>
<polygon class="st0" points="56.6,79.3 56.6,120.7 27.4,120.7 27.4,113.2 0.8,113.2 0.8,120.7 -28,120.7 -28,79.3 "/>
<path class="st0" d="M38.3,71.7c-1.2-5.2-3.8-9.6-7.9-13.1c-4-3.4-8.7-5.4-14.2-5.9h-0.4V38.8c0.3-0.1,0.7-0.1,1.2-0.3
	c0.7-0.3,1.5-0.6,2.4-0.9c0.9-0.3,1.7-0.6,2.6-0.8c0.8-0.2,1.4-0.3,1.8-0.3c0.8,0,1.7,0.1,2.9,0.4c1.1,0.3,2.4,0.6,3.6,1
	c1.3,0.4,2.4,0.7,3.6,1c1.1,0.3,2,0.4,2.7,0.4c1.2,0,2.4-0.2,3.8-0.5V23.6c-1.2,0.5-2.4,0.8-3.8,0.8C36,24.4,35,24.3,34,24
	c-1.1-0.2-2.3-0.6-3.6-1c-1.2-0.4-2.4-0.7-3.5-0.9c-1.1-0.3-2-0.4-2.8-0.4c-2.6,0-5.3,0.6-8.2,1.8v-2.8h-3.6v31.9h-0.2
	C6.7,53.2,2,55.2-2,58.6c-4,3.5-6.6,7.9-7.9,13.1c0,0-3.9-0.6-3.9,3.7h56.3C42.6,71.5,38.3,71.7,38.3,71.7z"/>
</svg>
