<?xml version="1.0" encoding="utf-8"?>
<!-- Generator: Adobe Illustrator 19.1.0, SVG Export Plug-In . SVG Version: 6.00 Build 0)  -->
<svg version="1.1" id="Layer_1" xmlns="http://www.w3.org/2000/svg" xmlns:xlink="http://www.w3.org/1999/xlink" x="0px" y="0px"
	 viewBox="-20 36.7 100 68" style="enable-background:new -20 36.7 100 68;" xml:space="preserve">
<style type="text/css">
	.st0{fill:#EE2A24;}
</style>
<path class="st0" d="M80,39v12.2c-1.1,0.3-2.1,0.4-3.1,0.4c-0.6,0-1.4-0.1-2.2-0.3c-0.9-0.2-1.8-0.5-2.9-0.8c-1-0.3-2-0.5-2.9-0.8
	c-0.9-0.2-1.7-0.3-2.3-0.3c-0.3,0-0.8,0.1-1.5,0.2c-0.7,0.2-1.4,0.4-2.1,0.6c-0.7,0.3-1.4,0.5-1.9,0.7c-0.4,0.2-0.7,0.2-1,0.2v53.4
	h-2.9v-68h2.9v2.2c2.4-0.9,4.6-1.4,6.6-1.4c0.6,0,1.4,0.1,2.2,0.3c0.9,0.2,1.8,0.4,2.8,0.8c1,0.3,2,0.6,2.9,0.8
	c0.9,0.2,1.6,0.3,2.2,0.3C78.1,39.6,79.1,39.4,80,39z"/>
<polygon class="st0" points="-20,71.3 -20,104.7 3.3,104.7 3.3,98.7 24.7,98.7 24.7,104.7 48.3,104.7 48.3,71.3 "/>
<path class="st0" d="M12.4,49.7c-4.4,0.4-8.2,2-11.4,4.8c-3.3,2.8-5.4,6.4-6.4,10.6c0,0-3.1-0.5-3.1,3H37c0-3.1-3.4-3-3.4-3
	c-0.9-4.2-3-7.7-6.4-10.6c-3.2-2.8-7-4.4-11.4-4.8C15.8,49.7,12.4,49.7,12.4,49.7z"/>
</svg>
