<?xml version="1.0" encoding="utf-8"?>
<!-- Generator: Adobe Illustrator 19.1.0, SVG Export Plug-In . SVG Version: 6.00 Build 0)  -->
<svg version="1.1" id="Layer_1" xmlns="http://www.w3.org/2000/svg" xmlns:xlink="http://www.w3.org/1999/xlink" x="0px" y="0px"
	 viewBox="-39 20.7 61.5 100" style="enable-background:new -39 20.7 61.5 100;" xml:space="preserve">
<style type="text/css">
	.st0{fill:#EE2A24;}
</style>
<rect x="-35.2" y="94.5" class="st0" width="53.5" height="26.2"/>
<path class="st0" d="M7.2,32.7C3.4,36.5-0.3,38.3-4,38.3c-5.7,0-10.6-3-14.9-9.1l2.4-1.6c2.2,3.4,5.4,5.1,9.4,5.1
	c3.5,0,6.4-1.7,8.6-5.1L7.2,32.7z"/>
<polygon class="st0" points="-6.4,29.4 -11.4,25 -6.4,20.7 -2.1,25.5 "/>
<path class="st0" d="M11.7,39.3c-5.2,0-8.6,3.5-10.1,10.4c-0.1-0.1-0.4-0.2-0.8-0.2H0.1c-3.3,0-7,1.7-11,5.1l-1-1
	c0.2-0.8,0.4-1.5,0.6-2.3c0.2-0.8,0.3-1.6,0.3-2.5c0-3.9-1.2-7.1-3.5-9.6c-2.3-2.5-5.4-3.7-9.1-3.7c-1.5,0-2.9,0.1-4.2,0.4
	c-1.3,0.3-2.7,0.8-4.2,1.7l2.9,7c1.6-0.9,3.2-1.6,4.7-2.2c1.5-0.6,3-0.9,4.4-0.9c1.9,0,3.5,0.4,4.6,1.2c1.1,0.8,1.7,2.1,1.7,3.9
	c0,4.5-3.3,7.6-9.9,9.4l2.7,6.7c1.5-0.7,2.9-1.5,4.2-2.4c1.3-1,2.3-2.2,3.2-3.7c2,2.1,3.6,4.3,4.7,6.5c1.1,2.3,1.7,4.6,1.7,7.2
	c0,2.6-0.9,4.7-2.8,6.6c-1.9,1.8-4.1,2.7-6.6,2.7c-5.1,0-9.5-2.3-13.1-6.9c-3.6-4.6-6-10.7-7.2-18.4l-2.2,0.6
	c0.3,4.4,1.2,8.4,2.6,12.2c1.4,3.7,3.2,7,5.4,9.7c2.2,2.7,4.7,4.8,7.4,6.3c2.8,1.5,5.7,2.2,8.9,2.2c3.9,0,7.1-1.1,9.6-3.4
	c2.4-2.2,3.7-5.2,3.7-9c0-4.5-1.8-9.1-5.6-13.8c2.8-1.8,5.1-2.7,6.9-2.7c2.1,0,3.2,1.9,3.2,5.8v3.1c0,4,0.5,7,1.6,8.7
	c1.1,1.8,2.9,2.6,5.6,2.6c3.7,0,6.7-1.7,8.9-5.1c2.2-3.4,3.4-8.3,3.4-14.7C22.5,45.3,18.9,39.3,11.7,39.3z M16.9,67.1
	c-1.8,2.4-4,3.6-6.7,3.6c-2.9,0-4.3-2.5-4.3-7.4v-7.8c0-2.5-0.8-4.2-2.4-5.1c1.6-3.3,4.2-4.9,7.7-4.9c2.4,0,4.5,1.2,6.1,3.5
	c1.6,2.4,2.4,5.4,2.4,9.1C19.6,61.7,18.7,64.7,16.9,67.1z"/>
</svg>
