<?xml version="1.0" encoding="utf-8"?>
<!-- Generator: Adobe Illustrator 19.1.0, SVG Export Plug-In . SVG Version: 6.00 Build 0)  -->
<svg version="1.1" id="Layer_1" xmlns="http://www.w3.org/2000/svg" xmlns:xlink="http://www.w3.org/1999/xlink" x="0px" y="0px"
	 viewBox="-20 43.3 100 55.4" style="enable-background:new -20 43.3 100 55.4;" xml:space="preserve">
<style type="text/css">
	.st0{fill:#EE2A24;}
</style>
<path class="st0" d="M-20,43.3v39.2h63.7V43.3H-20z M21.1,77c-2.2,1.7-5.1,2.6-8.6,2.6c-4.3,0-7.8-1.5-10.6-4.4
	c-2.7-2.9-4.1-6.9-4.1-12c0-5.4,1.4-9.5,4.2-12.5c2.8-3,6.4-4.5,10.9-4.5c3.9,0,7.1,1.2,9.6,3.5c1.5,1.4,2.6,3.4,3.3,5.9l-6.4,1.5
	c-0.4-1.7-1.2-3-2.4-4c-1.2-1-2.7-1.5-4.4-1.5c-2.4,0-4.3,0.9-5.8,2.6c-1.5,1.7-2.2,4.5-2.2,8.3c0,4.1,0.7,7,2.2,8.7
	c1.5,1.7,3.4,2.6,5.7,2.6c1.7,0,3.2-0.6,4.5-1.7c1.3-1.1,2.1-2.8,2.7-5.2l6.3,2C24.9,72.7,23.3,75.3,21.1,77z"/>
<path class="st0" d="M-20,84.8h19.6c-1.3,1.7-2.1,3.9-2.1,6.2h-9.7l-7.9-2V84.8z"/>
<path class="st0" d="M70.3,69.6l-5.6-16.7v-4.2H47.3v36.1h-31c1.3,1.7,2.1,3.9,2.1,6.2h32.5c0-5.7,4.7-10.4,10.4-10.4
	c4,0,7.5,2.3,9.3,5.7c0.6,1.2,1,2.6,1.1,4c0,0.2,0.1,0.5,0.1,0.7H80V73.7L70.3,69.6z M52.2,69.6V57.1h9.7l4.2,12.5H52.2z"/>
<path class="st0" d="M8,83.5c-4.2,0-7.6,3.4-7.6,7.6c0,4.2,3.4,7.6,7.6,7.6c4.2,0,7.6-3.4,7.6-7.6C15.6,86.9,12.2,83.5,8,83.5z
	 M8,95.3c-2.3,0-4.2-1.9-4.2-4.2c0-2.3,1.9-4.2,4.2-4.2c2.3,0,4.2,1.9,4.2,4.2C12.1,93.4,10.2,95.3,8,95.3z"/>
<path class="st0" d="M61.3,83.5c-4.2,0-7.6,3.4-7.6,7.6c0,4.2,3.4,7.6,7.6,7.6c4.2,0,7.6-3.4,7.6-7.6C68.9,86.9,65.5,83.5,61.3,83.5
	z M61.3,95.3c-2.3,0-4.2-1.9-4.2-4.2c0-2.3,1.9-4.2,4.2-4.2c2.3,0,4.2,1.9,4.2,4.2C65.4,93.4,63.5,95.3,61.3,95.3z"/>
</svg>
