<?xml version="1.0" encoding="utf-8"?>
<!-- Generator: Adobe Illustrator 19.1.0, SVG Export Plug-In . SVG Version: 6.00 Build 0)  -->
<svg version="1.1" id="Layer_1" xmlns="http://www.w3.org/2000/svg" xmlns:xlink="http://www.w3.org/1999/xlink" x="0px" y="0px"
	 viewBox="-25 20.7 89.1 100" style="enable-background:new -25 20.7 89.1 100;" xml:space="preserve">
<style type="text/css">
	.st0{fill:#EE2A24;}
</style>
<path class="st0" d="M27.2,61.4c0,7-5.9,7-9.1,7h-4V55.2h5C21.9,55.2,27.2,55.2,27.2,61.4z"/>
<path class="st0" d="M57.7,54.4c0.6-7.1,2.7-13.7,6.4-19.7l-14.3-14c-4.5,3.8-9.6,5.9-15.4,6.3c-5.3,0.5-10.4-0.5-15.1-3
	c-4.9,2.4-9.9,3.4-15.2,3c-5.4-0.5-10.3-2.4-14.7-5.7l-14.3,14c3.5,6.1,5.5,12.5,5.9,19.1c0.2,3.1-0.7,7.3-2.7,12.7
	c-1,3-1.8,5.7-2.4,7.8c-0.5,2.2-0.8,3.9-0.9,5.3c-0.1,5.8,1.6,11.1,5,15.7c2.7,3.4,7.1,7.2,13.1,11.3c6.7,3.3,11.8,5.5,15.4,6.4
	c1,0.5,2.1,0.9,3,1.4c0.9,0.4,2,0.9,3,1.3c2.3,1.3,3.9,2.8,4.7,4.3c1-1.6,2.7-3,4.8-4.3c1.5-0.7,2.8-1.2,3.9-1.7
	c1-0.4,1.8-0.8,2.3-1c0.8-0.4,1.8-0.8,3-1.3c1.2-0.5,2.8-1.1,4.6-1.7c3.5-1.2,6.1-2.4,7.7-3.4c5.9-4.1,10.2-7.8,13-11.1
	c3.5-4.7,5.2-10,5.2-15.9c-0.2-2.7-1.4-6.9-3.4-12.7C58.3,62,57.4,57.6,57.7,54.4z M31.5,73.6c-3.4,2.2-8,2.2-10.5,2.2h-6.7v17.9
	h-10v-46h14.2c6.6,0,12.2,0.4,16,5c2.4,2.9,2.8,6.3,2.8,8.6C37.4,66.7,35.1,71.3,31.5,73.6z"/>
</svg>
