<?xml version="1.0" encoding="utf-8"?>
<!-- Generator: Adobe Illustrator 19.1.0, SVG Export Plug-In . SVG Version: 6.00 Build 0)  -->
<svg version="1.1" id="Layer_1" xmlns="http://www.w3.org/2000/svg" xmlns:xlink="http://www.w3.org/1999/xlink" x="0px" y="0px"
	 viewBox="-35 20.7 69.8 100" style="enable-background:new -35 20.7 69.8 100;" xml:space="preserve">
<style type="text/css">
	.st0{fill:#EE2A24;}
</style>
<rect x="-24.7" y="96.6" class="st0" width="49.2" height="24.1"/>
<path class="st0" d="M31.3,52.2c-1.4,0-2.4,0.7-3.3,2.1c-0.3-6.8-2.8-12.6-7.3-17.6c0.7,0.2,1.2,0.2,1.5,0.2c2.3,0,3.4-1.2,3.4-3.5
	c0-2.3-1.2-3.5-3.5-3.5c-2.3,0-3.5,1.1-3.5,3.4c0,0.3,0.1,0.8,0.2,1.5c-5-4.6-10.9-7-17.6-7.3c1.5-0.8,2.2-1.9,2.2-3.2
	c0-2.3-1.2-3.5-3.5-3.5c-2.3,0-3.5,1.1-3.5,3.5c0,1.3,0.7,2.4,2.1,3.2c-6.4,0-12.2,2.5-17.6,7.3c0.2-0.6,0.3-1.2,0.3-1.5
	c0-2.2-1.2-3.3-3.5-3.3c-2.3,0-3.5,1.1-3.5,3.5s1.1,3.5,3.4,3.5c0.3,0,0.8-0.1,1.5-0.2c-4.6,5.1-7,11-7.3,17.6
	c-0.8-1.4-1.9-2.1-3.3-2.1c-2.3,0-3.5,1.1-3.5,3.4c0,2.3,1.2,3.5,3.5,3.5c1.4,0,2.5-0.7,3.3-2.2c0.3,6.7,2.7,12.5,7.3,17.6
	c-0.6-0.2-1.1-0.2-1.5-0.2c-2.2,0-3.4,1.2-3.4,3.5c0,2.3,1.2,3.5,3.5,3.5c2.3,0,3.5-1.1,3.5-3.3c0-0.4-0.1-0.9-0.3-1.6
	c5.3,4.9,11.2,7.3,17.6,7.3c-1.4,0.8-2.1,1.9-2.1,3.3c0,2.3,1.2,3.5,3.5,3.5c2.3,0,3.5-1.2,3.5-3.5c0-1.3-0.7-2.4-2.2-3.3
	C8,83.5,13.9,81,18.8,76.5c-0.2,0.6-0.2,1.1-0.2,1.5c0,2.2,1.2,3.3,3.5,3.3c2.3,0,3.5-1.1,3.5-3.5c0-2.3-1.1-3.5-3.4-3.5
	c-0.3,0-0.8,0.1-1.5,0.2c4.6-5,7-10.9,7.3-17.6c0.8,1.4,1.9,2.2,3.3,2.2c2.3,0,3.5-1.2,3.5-3.5C34.8,53.3,33.7,52.2,31.3,52.2z
	 M2.4,38.5c0.7-0.9,1-1.6,1-2.2c0-0.4-0.1-0.9-0.3-1.6c3.4,0.7,6.4,1.9,9.3,3.8c-1.3,0.7-2,1.8-2.2,3.2C8.2,42,7,43.1,6.8,45.2
	c-1.4,0.2-2.5,0.9-3.2,2.2l-0.4-0.1c0.2-0.6,0.3-1.2,0.3-1.5c0-0.6-0.3-1.4-1-2.3c0.7-0.8,1-1.7,1-2.5C3.4,40.2,3.1,39.4,2.4,38.5z
	 M-3.4,34.7c-0.2,0.6-0.2,1.1-0.2,1.6c0,0.6,0.3,1.4,1,2.2c-0.7,0.9-1,1.7-1,2.5c0,0.8,0.3,1.6,1,2.4c-0.7,0.9-1,1.6-1,2.3
	c0,0.4,0.1,0.9,0.2,1.5l-0.4,0.2c-0.7-1.3-1.8-2-3.2-2.2c-0.3-2.1-1.5-3.2-3.5-3.5c-0.2-1.5-0.9-2.5-2.2-3.2
	C-9.8,36.7-6.7,35.4-3.4,34.7z M-17.1,43.1c0.7,1.3,1.8,2,3.3,2.2c0.2,2.1,1.4,3.3,3.5,3.5c0.2,1.5,0.9,2.6,2.1,3.3l-0.1,0.4
	c-0.7-0.2-1.2-0.3-1.5-0.3c-0.7,0-1.4,0.3-2.3,1c-0.8-0.7-1.7-1-2.4-1c-0.8,0-1.6,0.3-2.5,1c-0.8-0.7-1.6-1-2.2-1
	c-0.4,0-1,0.1-1.6,0.3C-20.3,49-19,45.9-17.1,43.1z M-13.9,65.9c-1.5,0.2-2.6,0.9-3.3,2.2c-1.9-2.8-3.2-5.9-3.9-9.2
	c0.7,0.2,1.2,0.2,1.6,0.2c0.7,0,1.4-0.3,2.3-1c0.9,0.7,1.7,1,2.5,1c0.8,0,1.6-0.3,2.4-1c0.9,0.7,1.6,1,2.3,1c0.4,0,0.9-0.1,1.5-0.3
	l0.1,0.4c-1.3,0.7-2,1.8-2.1,3.2C-12.5,62.7-13.7,63.8-13.9,65.9z M-2.6,72.7c-0.7,0.8-1,1.6-1,2.3c0,0.4,0.1,0.9,0.2,1.5
	c-3.3-0.7-6.4-1.9-9.2-3.8c1.2-0.7,1.9-1.8,2.2-3.2c2-0.2,3.2-1.4,3.5-3.5c1.4-0.2,2.5-0.9,3.2-2.1l0.4,0.1
	c-0.2,0.7-0.2,1.2-0.2,1.6c0,0.6,0.3,1.4,1,2.3c-0.7,0.8-1,1.7-1,2.4C-3.6,71-3.3,71.9-2.6,72.7z M-0.1,60.3c-1.3,0-2.4-0.4-3.3-1.4
	c-0.9-0.9-1.4-2-1.4-3.3c0-1.3,0.5-2.4,1.4-3.3c0.9-0.9,2-1.4,3.3-1.4c1.3,0,2.4,0.5,3.3,1.4c0.9,0.9,1.4,2,1.4,3.3
	c0,1.3-0.5,2.4-1.4,3.3C2.3,59.8,1.2,60.3-0.1,60.3z M3.1,76.5c0.2-0.6,0.3-1.1,0.3-1.5c0-0.6-0.3-1.4-1-2.3c0.7-0.8,1-1.7,1-2.5
	c0-0.8-0.3-1.6-1-2.4c0.7-0.9,1-1.6,1-2.2c0-0.4-0.1-0.9-0.3-1.6l0.4-0.2c0.7,1.3,1.8,2,3.2,2.2c0.3,2.1,1.4,3.2,3.5,3.5
	c0.2,1.4,0.9,2.5,2.2,3.2C9.6,74.6,6.5,75.9,3.1,76.5z M17,68.1c-0.7-1.3-1.8-2-3.2-2.1c-0.2-2.1-1.4-3.3-3.4-3.5
	c-0.2-1.4-0.9-2.5-2.2-3.2l0.1-0.4c0.7,0.2,1.2,0.2,1.6,0.2c0.6,0,1.4-0.3,2.2-1c0.9,0.7,1.8,1,2.5,1c0.8,0,1.6-0.3,2.4-1
	c0.9,0.7,1.6,1,2.3,1c0.4,0,0.9-0.1,1.5-0.3C20.1,62.2,18.9,65.3,17,68.1z M19.3,52.1c-0.6,0-1.4,0.3-2.3,1c-0.9-0.7-1.7-1-2.5-1
	c-0.8,0-1.6,0.3-2.5,1c-0.8-0.7-1.6-1-2.2-1c-0.4,0-0.9,0.1-1.6,0.3L8.1,52c1.3-0.7,2-1.8,2.2-3.3c2.1-0.3,3.2-1.4,3.4-3.5
	c1.5-0.2,2.6-0.9,3.2-2.1c1.9,2.8,3.2,5.9,3.8,9.3C20.2,52.2,19.7,52.1,19.3,52.1z"/>
</svg>
