<?xml version="1.0" encoding="utf-8"?>
<!-- Generator: Adobe Illustrator 19.1.0, SVG Export Plug-In . SVG Version: 6.00 Build 0)  -->
<svg version="1.1" id="Layer_1" xmlns="http://www.w3.org/2000/svg" xmlns:xlink="http://www.w3.org/1999/xlink" x="0px" y="0px"
	 viewBox="-20 21.4 100 99.4" style="enable-background:new -20 21.4 100 99.4;" xml:space="preserve">
<style type="text/css">
	.st0{fill:#EE2A24;}
</style>
<path class="st0" d="M-9.1,106.2v14.5h-7.6v-53c0-2.1,1.7-3.8,3.8-3.8l0,0c2.1,0,3.8,1.7,3.8,3.8v31.4h85.6v21.7h-7.7v-14.5H-9.1z"
	/>
<path class="st0" d="M2.6,83c3.8,0,6.9-3.1,6.9-6.9c0-3.8-3.1-6.9-6.9-6.9c-3.8,0-6.9,3.1-6.9,6.9C-4.3,79.9-1.2,83,2.6,83z"/>
<path class="st0" d="M76.7,93.3l0-9.5c0-3-2.6-5.1-5.5-5.4l-54-5.4C17,73,16.9,73,16.8,73c-1.9,0-3.4,1.5-3.4,3.4v10.2H-0.7
	c-1.9,0-3.4,1.5-3.4,3.4c0,1.9,1.5,3.4,3.4,3.4C-0.7,93.3,76.7,93.3,76.7,93.3z"/>
<polygon class="st0" points="80,46.2 30.1,21.4 30,21.4 30,21.4 30,21.4 29.9,21.4 -20,46.2 -15.8,54.6 30,31.8 75.8,54.6 "/>
</svg>
