<?xml version="1.0" encoding="utf-8"?>
<!-- Generator: Adobe Illustrator 19.1.0, SVG Export Plug-In . SVG Version: 6.00 Build 0)  -->
<svg version="1.1" id="Layer_1" xmlns="http://www.w3.org/2000/svg" xmlns:xlink="http://www.w3.org/1999/xlink" x="0px" y="0px"
	 viewBox="-20 27.2 100 87.5" style="enable-background:new -20 27.2 100 87.5;" xml:space="preserve">
<style type="text/css">
	.st0{fill:#EE2A24;}
</style>
<path class="st0" d="M30,27.2l-50,50h12.5v37.5h75V77.2H80L30,27.2z M47.8,55.5c2.4,0,4.4,2,4.4,4.4c0,2.4-2,4.4-4.4,4.4
	c-2.4,0-4.4-2-4.4-4.4C43.4,57.5,45.3,55.5,47.8,55.5z M30,82.3c1.5,0,2.7,1.2,2.7,2.7c0,1.5-1.2,2.7-2.7,2.7
	c-1.5,0-2.7-1.2-2.7-2.7C27.3,83.5,28.5,82.3,30,82.3z M12.2,55.5c2.4,0,4.4,2,4.4,4.4c0,2.4-2,4.4-4.4,4.4c-2.4,0-4.4-2-4.4-4.4
	C7.8,57.5,9.8,55.5,12.2,55.5z M16.6,90.1l-0.9,16.2c0,0.6-0.5,1-1,1c-0.6,0-1-0.5-1-1l-1-16.2h-1l-0.9,16.2c0,0.6-0.5,1-1,1
	c-0.6,0-1-0.5-1-1L7.9,90.1H5l3-18.2L2,83.8c-0.2,0.5-0.8,0.8-1.4,0.6c-0.5-0.2-0.8-0.8-0.5-1.4c0,0,4.4-11.8,5.5-14
	c1.1-2.2,2.2-3.6,6.3-3.6h0.8c4.1,0,5.2,1.3,6.3,3.6c1.1,2.2,5.5,14,5.5,14c0.2,0.5,0,1.1-0.5,1.4c-0.5,0.2-1.1,0-1.3-0.6l-6-11.9
	l3,18.2C19.4,90.1,16.6,90.1,16.6,90.1z M38.4,85.6c-0.1,0.2-2.5,3.9-3.9,4.7c-1.4,0.8-1.4,0.5-1.5,1.7l-0.2,3.6l0.5,10.4
	c0,0.1,0,0.6,0,0.6c-0.1,0.4-0.6,0.8-1,0.8s-0.9-0.3-1-0.7c0,0-1.2-8.5-1.2-8.5s-1.2,8.5-1.2,8.5c-0.2,0.4-0.6,0.7-1,0.7
	s-0.9-0.3-1-0.8c0,0,0-0.5,0-0.6l0.5-10.4L27,92c-0.1-1.2-0.2-0.8-1.5-1.7c-1.4-0.9-3.8-4.6-3.9-4.7c-0.1-0.2-0.3-0.5-0.4-0.7
	c-0.1-0.4,0.2-0.7,0.6-0.8c0.3-0.1,0.5,0.1,0.7,0.3c0.2,0.2,3,3.9,5,4.2c0.5-0.1,1-0.3,2.3-0.3h0.5c1.3,0,1.8,0.2,2.3,0.3
	c2.1-0.4,4.8-4,5-4.2c0.2-0.2,0.4-0.4,0.7-0.3c0.4,0.1,0.6,0.4,0.5,0.8C38.7,85.1,38.5,85.4,38.4,85.6z M59.4,84.3
	c-0.5,0.2-1.1,0-1.4-0.6l-5.4-11.9l-0.3,9.6h0l0.8,24.1c0.1,0.9-0.6,1.8-1.6,1.8c-0.1,0-0.1,0-0.1,0c-0.9,0-1.7-0.7-1.7-1.6l-2-19.8
	l-2,19.8c-0.1,0.9-0.8,1.6-1.7,1.6c-0.1,0-0.1,0-0.1,0c-0.9-0.1-1.7-0.9-1.6-1.8l0.9-24.1l-0.3-9.6l-5.4,11.9
	c-0.2,0.5-0.8,0.8-1.3,0.6c-0.5-0.2-0.8-0.8-0.5-1.4c0,0,3.8-11.8,4.9-14c1.1-2.2,2.8-3.6,6.9-3.6h0.8c4.1,0,5.8,1.3,6.8,3.6
	c1.1,2.2,4.9,14,4.9,14C60.1,83.5,59.9,84.1,59.4,84.3z"/>
</svg>
