<?xml version="1.0" encoding="utf-8"?>
<!-- Generator: Adobe Illustrator 19.1.0, SVG Export Plug-In . SVG Version: 6.00 Build 0)  -->
<svg version="1.1" id="Layer_1" xmlns="http://www.w3.org/2000/svg" xmlns:xlink="http://www.w3.org/1999/xlink" x="0px" y="0px"
	 viewBox="-27 20.7 86.4 100" style="enable-background:new -27 20.7 86.4 100;" xml:space="preserve">
<style type="text/css">
	.st0{fill:#EE2A24;}
</style>
<path class="st0" d="M55.4,76.4L43.2,88.1l3.7,1.1C41.6,98,31.9,101.8,21,102.6V58.2h10.2c0.9,0.9,2,1.4,3.3,1.4
	c2.6,0,4.7-2.1,4.7-4.7s-2.1-4.7-4.7-4.7c-1.3,0-2.5,0.5-3.3,1.4H21v-5.3c4.9-1.9,8.5-6.7,8.5-12.3c0-7.3-5.9-13.2-13.2-13.2
	S3,26.7,3,34c0,6,4,11,9.5,12.6v5H1.3c-0.8-0.9-2-1.4-3.3-1.4c-2.6,0-4.7,2.1-4.7,4.7s2.1,4.7,4.7,4.7c1.3,0,2.5-0.5,3.3-1.4h11.2
	v44.3C1,101.7-9.1,97.2-14.2,87.7l3.7-0.8l-11.4-12.5L-27,90.6l4.3-1c6.3,13.8,20.7,24.9,36.9,26l2.5,5.1l2.5-5.1
	c15.4-1,29.2-11.2,36-24l4.2,1.2L55.4,76.4z M9.4,34c0-3.7,3-6.8,6.8-6.8c3.7,0,6.8,3,6.8,6.8s-3,6.8-6.8,6.8
	C12.5,40.8,9.4,37.7,9.4,34z"/>
</svg>
