<?xml version="1.0" encoding="utf-8"?>
<!-- Generator: Adobe Illustrator 19.1.0, SVG Export Plug-In . SVG Version: 6.00 Build 0)  -->
<svg version="1.1" id="Layer_1" xmlns="http://www.w3.org/2000/svg" xmlns:xlink="http://www.w3.org/1999/xlink" x="0px" y="0px"
	 viewBox="-20 20.7 100 100" style="enable-background:new -20 20.7 100 100;" xml:space="preserve">
<style type="text/css">
	.st0{fill:#EE2A24;}
</style>
<path class="st0" d="M39.2,100.9c-22.4,0-40.6,4.5-40.6,10c0,5.5,18.2,10,40.6,10c22.4,0,40.5-4.5,40.5-10
	C79.7,105.4,61.6,100.9,39.2,100.9z M39.8,115.5c-12,0-21.6-2.4-21.6-5.3c0-3,9.7-5.3,21.6-5.3c12,0,21.6,2.4,21.6,5.3
	C61.4,113.1,51.7,115.5,39.8,115.5z"/>
<path class="st0" d="M79.3,64.8c-0.6-0.6-1.6-0.6-2.2,0l-5.5,5.6H56.6v-6.8h12.6c1.2,0,2.4-0.1,3.5-0.3c1.2-0.2,2.1-0.8,2.9-1.8
	c0.7-0.8,1-1.9,1-3.3c0-1-0.3-2.2-0.8-3.8L71.1,43c-1.5-3.5-3.5-6-6-7.3c-2.5-1.4-5.1-2.1-7.8-2.1H38.1v-9.1h5.6
	c0.3,0.6,0.7,0.9,1.2,1.1c0.4,0.2,0.8,0.2,1.1,0.2h26.9c0.9,0,1.5-0.2,2-0.7c0.4-0.5,0.7-1.1,0.8-1.7c0-0.6-0.2-1.1-0.6-1.6
	c-0.5-0.6-1.2-0.8-2.1-0.8H47c-1.2,0-2,0.2-2.4,0.4c-0.4,0.3-0.7,0.6-0.9,1.1H28.3c-0.2-0.2-0.5-0.5-0.7-0.8
	c-0.3-0.3-0.8-0.5-1.6-0.5H-1.2c-0.4,0-0.9,0.2-1.6,0.6c-0.6,0.4-0.9,1-0.9,1.9c0,0.9,0.3,1.5,0.9,2c0.6,0.5,1.1,0.7,1.4,0.7h27.4
	c0.2,0,0.6-0.1,1.1-0.2c0.5-0.2,0.9-0.6,1.2-1.2h5.8v8.9H-0.3c-0.8-1.9-2-3.5-3.7-4.7C-5.7,27.7-7.7,27-9.9,27c-2.9,0-5.3,1-7.3,3
	c-2,2-3,4.5-3,7.4c0,2.9,1,5.3,3,7.2c2.1,2,4.5,3,7.3,3c3.3,0,5.9-1.2,7.7-3.6l22.4,8.4l3,7.4c0.4,0.9,1,1.7,1.7,2.6
	c0.7,0.8,2.2,1.2,4.6,1.2h10v6.8H23.2c-0.9,0-1.6,0.7-1.6,1.6c0,0.9,0.7,1.6,1.6,1.6h49c0.5,0,0.9-0.3,1.2-0.6l5.9-5.9
	C79.9,66.4,79.9,65.4,79.3,64.8z M61,38.3c1.4,0.4,2.7,1.1,3.7,2c1,0.9,2,2.4,2.9,4.4c0.2,0.7,0.5,1.4,0.8,2.2
	c0.3,0.7,0.7,1.6,1,2.5H61L61,38.3L61,38.3z M-11.8,40.1c0.8,0.5,1.7,1,2.6,1.3l3.3,1.3c-1.2,0.9-2.6,1.3-4,1.3
	c-1.9,0-3.5-0.6-4.8-1.9c-1.3-1.3-2-2.8-2-4.7c0-1.9,0.6-3.4,2-4.7c1.3-1.3,2.9-1.9,4.8-1.9c2.3,0,4.1,0.9,5.4,2.8h-4.6
	c-1.1,0-2,0.3-2.8,1c-0.8,0.6-1.1,1.6-1.1,2.8C-13,38.6-12.6,39.5-11.8,40.1z M49.5,37.8h7.4v11.4h-7.4V37.8z M38.1,49.3V37.9h7.3
	v11.4H38.1z M54,70.4H42.1v-6.8H54L54,70.4L54,70.4z"/>
</svg>
