<?xml version="1.0" encoding="utf-8"?>
<!-- Generator: Adobe Illustrator 19.1.0, SVG Export Plug-In . SVG Version: 6.00 Build 0)  -->
<svg version="1.1" id="Layer_1" xmlns="http://www.w3.org/2000/svg" xmlns:xlink="http://www.w3.org/1999/xlink" x="0px" y="0px"
	 viewBox="-20 45.1 100 52.6" style="enable-background:new -20 45.1 100 52.6;" xml:space="preserve">
<style type="text/css">
	.st0{fill:#EE2A24;}
</style>
<path class="st0" d="M79.5,88.9c-0.6-0.6-1.6-0.6-2.2,0l-5.5,5.6H56.9v-6.8h12.6c1.2,0,2.4-0.1,3.5-0.3c1.2-0.2,2.1-0.8,2.9-1.8
	c0.7-0.8,1-1.9,1-3.3c0-1-0.3-2.2-0.8-3.8l-4.8-11.4c-1.5-3.5-3.5-6-6-7.3c-2.5-1.4-5.1-2.1-7.8-2.1H38.4v-9.1H44
	c0.3,0.6,0.7,0.9,1.2,1.1c0.4,0.2,0.8,0.2,1.1,0.2h26.9c0.9,0,1.5-0.2,2-0.7c0.4-0.5,0.7-1.1,0.8-1.7c0-0.6-0.2-1.1-0.6-1.6
	c-0.5-0.6-1.2-0.8-2.1-0.8H47.3c-1.2,0-2,0.2-2.4,0.4c-0.4,0.3-0.7,0.6-0.9,1.1H28.6c-0.2-0.2-0.5-0.5-0.7-0.8
	c-0.3-0.3-0.8-0.5-1.6-0.5H-0.9c-0.4,0-0.9,0.2-1.6,0.6c-0.6,0.4-0.9,1-0.9,1.9c0,0.9,0.3,1.5,0.9,2c0.6,0.5,1.1,0.7,1.4,0.7h27.4
	c0.2,0,0.6-0.1,1.1-0.2c0.5-0.2,0.9-0.6,1.2-1.2h5.8v8.9H0c-0.8-1.9-2-3.5-3.7-4.7c-1.7-1.3-3.7-1.9-5.9-1.9c-2.9,0-5.3,1-7.3,3
	c-2,2-3,4.5-3,7.4c0,2.9,1,5.3,3,7.2c2.1,2,4.5,3,7.3,3c3.3,0,5.9-1.2,7.7-3.6l22.4,8.4l3,7.4c0.4,0.9,1,1.7,1.7,2.6
	c0.7,0.8,2.2,1.2,4.6,1.2h10v6.8H23.5c-0.9,0-1.6,0.7-1.6,1.6s0.7,1.6,1.6,1.6h49c0.5,0,0.9-0.3,1.2-0.6l5.9-5.9
	C80.2,90.6,80.2,89.6,79.5,88.9z M61.3,62.4c1.4,0.4,2.7,1.1,3.7,2c1,0.9,2,2.4,2.9,4.4c0.2,0.7,0.5,1.4,0.8,2.2
	c0.3,0.7,0.7,1.6,1,2.5h-8.4L61.3,62.4L61.3,62.4z M-11.5,64.2c0.8,0.5,1.7,1,2.6,1.3l3.3,1.3c-1.2,0.9-2.6,1.3-4,1.3
	c-1.9,0-3.5-0.6-4.8-1.9c-1.3-1.3-2-2.8-2-4.7c0-1.9,0.6-3.4,2-4.7c1.3-1.3,2.9-1.9,4.8-1.9c2.3,0,4.1,0.9,5.4,2.8h-4.6
	c-1.1,0-2,0.3-2.8,1c-0.8,0.6-1.1,1.6-1.1,2.8C-12.7,62.8-12.3,63.7-11.5,64.2z M49.7,61.9h7.4v11.4h-7.4V61.9z M38.4,62.1h7.3v11.4
	h-7.3C38.4,73.5,38.4,62.1,38.4,62.1z M42.4,87.8h11.9v6.8H42.4V87.8z"/>
</svg>
