<?xml version="1.0" encoding="utf-8"?>
<!-- Generator: Adobe Illustrator 19.1.0, SVG Export Plug-In . SVG Version: 6.00 Build 0)  -->
<svg version="1.1" id="Layer_1" xmlns="http://www.w3.org/2000/svg" xmlns:xlink="http://www.w3.org/1999/xlink" x="0px" y="0px"
	 viewBox="-33 20.7 74.8 100" style="enable-background:new -33 20.7 74.8 100;" xml:space="preserve">
<style type="text/css">
	.st0{fill:#EE2A24;}
</style>
<path class="st0" d="M32.4,120.7h9.5L25,95.8c3.2-0.5,5.9-2,8-4.4c2.1-2.4,3.2-5.4,3.2-8.7V33.9c0-3.6-1.3-6.7-3.9-9.3
	c-2.6-2.6-5.8-3.9-9.5-3.9h-37c-3.8,0-6.9,1.3-9.5,3.9c-2.6,2.6-3.9,5.7-3.9,9.3v48.8c0,3.4,1.1,6.3,3.3,8.8c2.2,2.5,4.8,4,7.9,4.3
	l-16.8,25h9.5l1.6-2.4h52.7L32.4,120.7z M26.8,87.7c-1.1,1.2-2.6,1.7-4.4,1.7c-1.7,0-3.1-0.6-4.3-1.7c-1.2-1.2-1.7-2.6-1.7-4.4
	c0-1.7,0.6-3.1,1.7-4.3c1.2-1.2,2.6-1.8,4.3-1.8c1.8,0,3.3,0.6,4.4,1.8c1.2,1.2,1.7,2.7,1.7,4.3C28.5,85,27.9,86.5,26.8,87.7z
	 M-19.3,35.1c0-1.8,0.6-3.3,1.7-4.5c1.1-1.2,2.6-1.7,4.4-1.7h35c1.8,0,3.3,0.6,4.5,1.7c1.2,1.2,1.8,2.7,1.8,4.5v15.6
	c0,1.8-0.6,3.3-1.8,4.5c-1.2,1.2-2.7,1.7-4.5,1.7h-35c-1.8,0-3.3-0.6-4.4-1.7c-1.2-1.2-1.7-2.6-1.7-4.5V35.1z M-17.9,87.7
	c-1.2-1.2-1.7-2.6-1.7-4.4c0-1.7,0.6-3.1,1.7-4.3c1.2-1.2,2.6-1.8,4.5-1.8c1.7,0,3.1,0.6,4.3,1.8c1.2,1.2,1.7,2.7,1.7,4.3
	c0,1.8-0.6,3.3-1.7,4.4c-1.2,1.2-2.6,1.7-4.3,1.7C-15.3,89.4-16.8,88.8-17.9,87.7z M-16.5,110.3l4.4-6.6H21l4.4,6.6H-16.5z"/>
</svg>
