<?xml version="1.0" encoding="utf-8"?>
<!-- Generator: Adobe Illustrator 19.1.0, SVG Export Plug-In . SVG Version: 6.00 Build 0)  -->
<svg version="1.1" id="Layer_1" xmlns="http://www.w3.org/2000/svg" xmlns:xlink="http://www.w3.org/1999/xlink" x="0px" y="0px"
	 viewBox="-20 20.7 100 100" style="enable-background:new -20 20.7 100 100;" xml:space="preserve">
<style type="text/css">
	.st0{fill:#EE2A24;}
</style>
<path class="st0" d="M55.6,52.9l-3-2.2l-4.8-12.7H36.6v-7.3H22.1v7.3H11L6.1,50.8l-3,2.2c-2.6,1.9-4,6-3,9.1l10,25.4
	c0.8,0.3,1.6,0.5,2.5,0.6c3.3-0.1,5.5-2,7.3-6.3c0-0.1,0.1-0.2,0.1-0.3c0.2-0.3,0.4-0.4,0.7-0.4c0.3,0,0.6,0.2,0.7,0.4h0
	c0,0,0,0.1,0,0.1c0,0.1,0.1,0.1,0.1,0.2c1.8,4.4,4.1,6.4,7.5,6.4h0c3.4,0,5.7-1.9,7.5-6.3c0-0.1,0.1-0.2,0.1-0.3
	c0.2-0.3,0.4-0.4,0.7-0.4s0.6,0.2,0.7,0.4h0c0,0,0,0.1,0,0.1c0,0.1,0.1,0.1,0.1,0.2c1.8,4.3,4,6.3,7.4,6.3c1,0,1.8-0.2,2.6-0.6
	l10-25.4C59.5,58.9,58.2,54.9,55.6,52.9z M38.2,42.8h7.7v3.3h-7.7C38.2,46.1,38.2,42.8,38.2,42.8z M25.5,42.8h7.7v3.3h-7.7V42.8z
	 M12.8,42.8h7.7v3.3h-7.7V42.8z M49.5,61.7l-3.4,9.8c-0.4,1.3-1.9,2.4-3.3,2.4h-27c-1.4,0-2.9-1.1-3.3-2.4l-3.4-9.8
	c-0.4-1.3,0.3-2.4,1.7-2.4h37C49.2,59.3,50,60.4,49.5,61.7z"/>
<g>
	<path class="st0" d="M79.3,92.9h-0.1v17.4h-99.8V92.9h-0.1c3.4,0,5.7-1.9,7.5-6.3c0-0.1,0.1-0.2,0.1-0.3l0,0
		c0.2-0.3,0.4-0.4,0.7-0.4c0.3,0,0.6,0.2,0.7,0.4h0c0,0,0,0.1,0,0.1c0,0.1,0.1,0.1,0.1,0.2c1.8,4.4,4.1,6.4,7.5,6.4h0
		c3.4,0,5.7-1.9,7.5-6.3c0-0.1,0.1-0.2,0.1-0.3h0C4,86,4.2,85.9,4.5,85.9c0.3,0,0.6,0.2,0.7,0.4h0c0,0,0,0.1,0,0.1
		c0,0.1,0.1,0.1,0.1,0.2c1.8,4.3,4,6.3,7.3,6.3c3.3-0.1,5.5-2,7.3-6.3c0-0.1,0.1-0.2,0.1-0.3l0,0c0.2-0.3,0.4-0.4,0.7-0.4
		c0.3,0,0.6,0.2,0.7,0.4h0c0,0,0,0.1,0,0.1c0,0.1,0.1,0.1,0.1,0.2c1.8,4.4,4.1,6.4,7.5,6.4h0c3.4,0,5.7-1.9,7.5-6.3
		c0-0.1,0.1-0.2,0.1-0.3l0,0c0.2-0.3,0.4-0.4,0.7-0.4s0.6,0.2,0.7,0.4h0c0,0,0,0.1,0,0.1c0,0.1,0.1,0.1,0.1,0.2
		c1.8,4.3,4,6.3,7.4,6.3c3.3-0.1,5.6-2,7.4-6.3c0-0.1,0.1-0.2,0.1-0.3l0,0c0.2-0.3,0.4-0.4,0.7-0.4c0.3,0,0.6,0.2,0.7,0.4h0
		c0,0,0,0.1,0.1,0.1c0,0.1,0,0.1,0.1,0.2c1.8,4.4,4.1,6.4,7.5,6.4h0c3.4,0,5.7-1.9,7.5-6.3c0-0.1,0.1-0.2,0.1-0.3l0,0
		c0.2-0.3,0.4-0.4,0.7-0.4c0.3,0,0.6,0.2,0.7,0.4h0c0,0,0,0.1,0.1,0.1c0,0.1,0,0.1,0.1,0.2C73.6,91,75.9,92.9,79.3,92.9z"/>
</g>
</svg>
