<?xml version="1.0" encoding="utf-8"?>
<!-- Generator: Adobe Illustrator 19.1.0, SVG Export Plug-In . SVG Version: 6.00 Build 0)  -->
<svg version="1.1" id="Layer_1" xmlns="http://www.w3.org/2000/svg" xmlns:xlink="http://www.w3.org/1999/xlink" x="0px" y="0px"
	 viewBox="-20 25.2 100 92.5" style="enable-background:new -20 25.2 100 92.5;" xml:space="preserve">
<style type="text/css">
	.st0{fill:#EE2A24;}
</style>
<path class="st0" d="M25.2,40.8L7.8,53.4V39.4H12v-6.2h7.1v-5.4c0-1.4,4.9-2.5,10.9-2.5s10.9,1.1,10.9,2.5v5.4H48v6.2h4.2v14.1
	L34.8,40.8C32.1,38.9,27.9,38.9,25.2,40.8z"/>
<path class="st0" d="M56.2,60.3l-4.1-3L34.8,44.7c-1-0.7-2.2-1.1-3.5-1.3v42.2c0,0.7-0.6,1.3-1.3,1.3s-1.3-0.6-1.3-1.3V43.5
	c-1.3,0.2-2.5,0.5-3.5,1.3L7.8,57.4l-4.1,3c-2.6,1.9-4,6-3,9.1l10,25.4c0.8,0.3,1.6,0.5,2.5,0.6c3.3-0.1,5.5-2,7.3-6.3
	c0-0.1,0.1-0.2,0.1-0.3c0.2-0.3,0.4-0.4,0.7-0.4c0.3,0,0.6,0.2,0.7,0.4h0c0,0,0,0.1,0,0.1c0,0.1,0.1,0.1,0.1,0.2
	c1.8,4.4,4.1,6.4,7.5,6.4h0c3.4,0,5.7-1.9,7.5-6.3c0-0.1,0.1-0.2,0.1-0.3c0.2-0.3,0.4-0.4,0.7-0.4s0.6,0.2,0.7,0.4h0
	c0,0,0,0.1,0,0.1c0,0.1,0.1,0.1,0.1,0.2c1.8,4.3,4,6.3,7.4,6.3c1,0,1.8-0.2,2.6-0.6l10-25.4C60.2,66.3,58.8,62.2,56.2,60.3z
	 M23.1,61.4c-1.1,0-2-0.9-2-2c0-1.1,0.9-2,2-2c1.1,0,2,0.9,2,2C25,60.5,24.2,61.4,23.1,61.4z M37.1,61.4c-1.1,0-2-0.9-2-2
	c0-1.1,0.9-2,2-2c1.1,0,2,0.9,2,2C39,60.5,38.2,61.4,37.1,61.4z"/>
<g>
	<path class="st0" d="M80,100.3h-0.1v17.4h-99.8v-17.4H-20c3.4,0,5.7-1.9,7.5-6.3c0-0.1,0.1-0.2,0.1-0.3l0,0
		c0.2-0.3,0.4-0.4,0.7-0.4c0.3,0,0.6,0.2,0.7,0.4h0c0,0,0,0.1,0,0.1c0,0.1,0.1,0.1,0.1,0.2c1.8,4.4,4.1,6.4,7.5,6.4h0
		c3.4,0,5.7-1.9,7.5-6.3c0-0.1,0.1-0.2,0.1-0.3h0c0.2-0.3,0.4-0.4,0.7-0.4c0.3,0,0.6,0.2,0.7,0.4h0c0,0,0,0.1,0,0.1
		C6,93.9,6,93.9,6,94c1.8,4.3,4,6.3,7.3,6.3c3.3-0.1,5.5-2,7.3-6.3c0-0.1,0.1-0.2,0.1-0.3l0,0c0.2-0.3,0.4-0.4,0.7-0.4
		c0.3,0,0.6,0.2,0.7,0.4h0c0,0,0,0.1,0,0.1c0,0.1,0.1,0.1,0.1,0.2c1.8,4.4,4.1,6.4,7.5,6.4h0c3.4,0,5.7-1.9,7.5-6.3
		c0-0.1,0.1-0.2,0.1-0.3l0,0c0.2-0.3,0.4-0.4,0.7-0.4s0.6,0.2,0.7,0.4h0c0,0,0,0.1,0,0.1c0,0.1,0.1,0.1,0.1,0.2
		c1.8,4.3,4,6.3,7.4,6.3c3.3-0.1,5.6-2,7.4-6.3c0-0.1,0.1-0.2,0.1-0.3l0,0c0.2-0.3,0.4-0.4,0.7-0.4c0.3,0,0.6,0.2,0.7,0.4h0
		c0,0,0,0.1,0.1,0.1c0,0.1,0,0.1,0.1,0.2c1.8,4.4,4.1,6.4,7.5,6.4h0c3.4,0,5.7-1.9,7.5-6.3c0-0.1,0.1-0.2,0.1-0.3l0,0
		c0.2-0.3,0.4-0.4,0.7-0.4c0.3,0,0.6,0.2,0.7,0.4h0c0,0,0,0.1,0.1,0.1c0,0.1,0,0.1,0.1,0.2C74.3,98.4,76.5,100.3,80,100.3z"/>
</g>
</svg>
