<?xml version="1.0" encoding="utf-8"?>
<!-- Generator: Adobe Illustrator 19.1.0, SVG Export Plug-In . SVG Version: 6.00 Build 0)  -->
<svg version="1.1" id="Layer_1" xmlns="http://www.w3.org/2000/svg" xmlns:xlink="http://www.w3.org/1999/xlink" x="0px" y="0px"
	 viewBox="-20 50.1 100 42.6" style="enable-background:new -20 50.1 100 42.6;" xml:space="preserve">
<style type="text/css">
	.st0{fill:#EE2A24;}
</style>
<path class="st0" d="M-0.5,74.6c-5,0-9.1,4.1-9.1,9.1c0,5,4.1,9.1,9.1,9.1c5,0,9.1-4.1,9.1-9.1C8.6,78.7,4.5,74.6-0.5,74.6z
	 M-0.5,88.6c-2.7,0-4.9-2.2-4.9-4.9c0-2.7,2.2-4.9,4.9-4.9c2.7,0,4.9,2.2,4.9,4.9C4.4,86.3,2.2,88.6-0.5,88.6z"/>
<path class="st0" d="M60.6,74.6c-5,0-9.1,4.1-9.1,9.1c0,5,4.1,9.1,9.1,9.1c5,0,9.1-4.1,9.1-9.1C69.7,78.7,65.6,74.6,60.6,74.6z
	 M60.6,88.6c-2.7,0-4.9-2.2-4.9-4.9c0-2.7,2.2-4.9,4.9-4.9s4.9,2.2,4.9,4.9C65.5,86.3,63.3,88.6,60.6,88.6z"/>
<path class="st0" d="M78.2,76.9c0-8.8-5.5-9.9-5.5-9.9c-8.1-1.1-22-1.7-22-1.7c-1.3-2.2-7.2-15.1-10.6-15.1c-1.2,0-25.8,0-30.1,0
	c-4.4,0-11.5,12.6-13.1,15.5c0,0-5.5,0.9-8.1,1.5c-1.4,0.3-5.4,0.4-5.4,11.5H-20v5h8.4c0-6.2,5-11.2,11.2-11.2
	c6.2,0,11.2,5,11.2,11.2h38.8c0-6.2,5-11.2,11.2-11.2c6.2,0,11.2,5,11.2,11.2H80v-6.8C80,76.9,78.2,76.9,78.2,76.9z M24.7,64.4H7.3
	c2.4-7.3,6.7-12.6,8.6-12.6c2.3,0,8.8,0,8.8,0L24.7,64.4L24.7,64.4z M28,64.4V51.9c0,0,9,0,11.3,0c2.3,0,7.4,10.6,8.9,13.4L28,64.4z
	"/>
</svg>
