<?xml version="1.0" encoding="utf-8"?>
<!-- Generator: Adobe Illustrator 19.1.0, SVG Export Plug-In . SVG Version: 6.00 Build 0)  -->
<svg version="1.1" id="Layer_1" xmlns="http://www.w3.org/2000/svg" xmlns:xlink="http://www.w3.org/1999/xlink" x="0px" y="0px"
	 viewBox="-20 20.7 100 100" style="enable-background:new -20 20.7 100 100;" xml:space="preserve">
<style type="text/css">
	.st0{fill:#EE2A24;}
</style>
<path class="st0" d="M30,20.7c-27.6,0-50,22.4-50,50v50H80v-50C80,43.1,57.6,20.7,30,20.7z M76.7,117.4h-93.3V70.7
	C-16.7,45,4.3,24.1,30,24.1S76.7,45,76.7,70.7V117.4z"/>
<path class="st0" d="M30,30.7c-22.1,0-40,17.9-40,40v40l30-30v-10c0-5.5,4.5-10,10-10s10,4.5,10,10v10l30,30v-40
	C70,48.6,52.1,30.7,30,30.7z"/>
</svg>
