<?xml version="1.0" encoding="utf-8"?>
<!-- Generator: Adobe Illustrator 19.1.0, SVG Export Plug-In . SVG Version: 6.00 Build 0)  -->
<svg version="1.1" id="Layer_1" xmlns="http://www.w3.org/2000/svg" xmlns:xlink="http://www.w3.org/1999/xlink" x="0px" y="0px"
	 viewBox="-20 35.8 100 70.9" style="enable-background:new -20 35.8 100 70.9;" xml:space="preserve">
<style type="text/css">
	.st0{fill:#EE2A24;}
</style>
<path class="st0" d="M80,64.2v42.5H59.6c0.1-0.8,0.1-1.7,0.1-2.5c0-16.6-13.5-30.1-30.1-30.1S-0.4,87.6-0.4,104.2
	c0,0.8,0.1,1.7,0.1,2.5H-20V64.2H80z"/>
<path class="st0" d="M9.7,52.1c-3.4,0-6.1,2.7-6.1,6.1c0,3.3,2.7,6,6.1,6c3.3,0,6-2.7,6-6C15.7,54.8,13,52.1,9.7,52.1z M9.7,61.4
	c-1.8,0-3.3-1.5-3.3-3.3c0-1.8,1.5-3.3,3.3-3.3c1.8,0,3.3,1.4,3.3,3.3C12.9,60,11.5,61.4,9.7,61.4z"/>
<path class="st0" d="M50.4,52.1c-3.3,0-6,2.7-6,6.1c0,3.3,2.7,6,6,6c3.3,0,6.1-2.7,6.1-6C56.5,54.8,53.8,52.1,50.4,52.1z M50.4,61.4
	c-1.8,0-3.3-1.5-3.3-3.3c0-1.8,1.5-3.3,3.3-3.3c1.8,0,3.3,1.4,3.3,3.3C53.7,60,52.2,61.4,50.4,61.4z"/>
<path class="st0" d="M62.2,53.6c0-5.9-3.7-6.6-3.7-6.6c-5.4-0.7-14.7-1.1-14.7-1.1c-0.8-1.5-4.8-10.1-7.1-10.1c-0.8,0-17.2,0-20.1,0
	c-2.9,0-7.7,8.4-8.7,10.3c0,0-3.7,0.6-5.4,1C1.6,47.4-1,47.4-1,54.8h-2.3v3.4h5.6c0-4.1,3.3-7.5,7.5-7.5c4.1,0,7.4,3.3,7.4,7.5H43
	c0-4.1,3.3-7.5,7.4-7.5c4.1,0,7.5,3.3,7.5,7.5h5.5v-4.5C63.3,53.6,62.2,53.6,62.2,53.6z M26.5,45.3H14.9c1.6-4.9,4.5-8.4,5.7-8.4
	c1.6,0,5.9,0,5.9,0S26.5,45.3,26.5,45.3z M28.7,45.3V37c0,0,6,0,7.5,0c1.5,0,4.9,7.1,5.9,8.9L28.7,45.3z"/>
</svg>
