<?xml version="1.0" encoding="utf-8"?>
<!-- Generator: Adobe Illustrator 19.1.0, SVG Export Plug-In . SVG Version: 6.00 Build 0)  -->
<svg version="1.1" id="Layer_1" xmlns="http://www.w3.org/2000/svg" xmlns:xlink="http://www.w3.org/1999/xlink" x="0px" y="0px"
	 viewBox="-21 20.7 97.3 100" style="enable-background:new -21 20.7 97.3 100;" xml:space="preserve">
<style type="text/css">
	.st0{fill:#EE2A24;}
</style>
<path class="st0" d="M70.6,37.9c1.2-1.2,2.6-2.4,4.2-3.9l1.4-1.3L72,27.9l-1.4,1.3c-5.8,5.3-9.3,8.5-11.1,15
	c-1.7,6.5-1.8,13.1-1.6,19.2c0.2,6.3,0.4,10.5,2.2,15.2l0.7,1.7c1.7,4.3,4.3,10.7,4.3,19c0,10-4.1,15.1-12.1,15.1
	c-7.3,0-11.3-4.9-11.7-14.5c-0.2-4.3,1-9.5,2.3-15.1c1.1-4.7,2.2-9.5,2.7-14.7c0.6-5.7-0.2-9.5-2.3-11.9c-2.8-3.1-7.1-3.1-11-3.1h-1
	V25.3c0-2.5-2-4.6-4.6-4.6h-43.8c-2.5,0-4.6,2.1-4.6,4.6v93.6h53V61.5h1c2.6,0,5.3,0,6.2,1c0.5,0.5,1.3,2.2,0.7,7
	c-0.5,4.8-1.6,9.4-2.6,13.9c-1.4,6-2.6,11.7-2.4,16.8c0.6,13,7.2,20.5,18.1,20.5c11.6,0,18.5-8,18.5-21.5c0-9.5-3-16.9-4.7-21.4
	l-0.6-1.6c-1.3-3.4-1.6-6.5-1.7-11.9c2,0,4.5-0.1,5.6-0.1c2.5,0,4.3-1.5,4.9-4.1c0.3-1.5,0.3-3.5,0.3-7v-0.9
	C75.2,42.8,73.2,40.1,70.6,37.9z M25.4,55.7h-39.8v-26h39.8V55.7z M68.8,53.2c0,1.8,0,3.6-0.1,4.7c-1.3,0-3,0.1-4.5,0.1
	c0.1-4.1,0.4-8.2,1.4-12.2c0.3-1.1,0.6-2,1.1-2.9c1.1,1.1,2,2.7,2,9.3V53.2z"/>
</svg>
