<?xml version="1.0" encoding="utf-8"?>
<!-- Generator: Adobe Illustrator 19.1.0, SVG Export Plug-In . SVG Version: 6.00 Build 0)  -->
<svg version="1.1" id="Layer_1" xmlns="http://www.w3.org/2000/svg" xmlns:xlink="http://www.w3.org/1999/xlink" x="0px" y="0px"
	 viewBox="-23 20.7 93.7 100" style="enable-background:new -23 20.7 93.7 100;" xml:space="preserve">
<style type="text/css">
	.st0{fill:#EE2A24;}
</style>
<path class="st0" d="M-2.8,52l47.1-22.3c1.2,0.5,2.6,0.5,3.8-0.1c2.3-1.1,3.3-3.9,2.2-6.3c-1.1-2.3-3.9-3.3-6.3-2.2
	c-1.3,0.6-2.1,1.7-2.4,2.9l-59,28H-23v68.7h93.7V52H-2.8z M-8.9,106.5H-12V83.9h3.1V106.5z M2.4,106.5h-3.1V83.9h3.1V106.5z
	 M13.8,106.5h-3.1V83.9h3.1V106.5z M25.1,106.5H22V83.9h3.1V106.5z M48.5,106.5c-6.2,0-11.3-5.1-11.3-11.3c0-6.2,5.1-11.3,11.3-11.3
	c6.2,0,11.3,5.1,11.3,11.3C59.8,101.4,54.7,106.5,48.5,106.5z M59.8,73H-12V61.3h71.8V73z"/>
</svg>
