<?xml version="1.0" encoding="utf-8"?>
<!-- Generator: Adobe Illustrator 19.1.0, SVG Export Plug-In . SVG Version: 6.00 Build 0)  -->
<svg version="1.1" id="Layer_1" xmlns="http://www.w3.org/2000/svg" xmlns:xlink="http://www.w3.org/1999/xlink" x="0px" y="0px"
	 viewBox="-65 63.7 9.7 15" style="enable-background:new -65 63.7 9.7 15;" xml:space="preserve">
<style type="text/css">
	.st0{fill:#EE2A24;}
</style>
<path class="st0" d="M-58.4,70.5h-1.5v-1.6c0.1-0.1,0.2-0.2,0.2-0.4c0-0.3-0.2-0.5-0.5-0.5c-0.3,0-0.5,0.2-0.5,0.5
	c0,0.2,0.1,0.3,0.2,0.4v1.6h-1.5c-0.2,0-0.4,0.2-0.4,0.4l0,0v7.4c0,0.2,0.2,0.4,0.4,0.4h3.5c0.2,0,0.4-0.2,0.4-0.4v-7.3
	C-58,70.7-58.2,70.5-58.4,70.5z M-58.6,74.5c0,0.2-0.2,0.4-0.4,0.4h-2.2c-0.2,0-0.4-0.2-0.4-0.4v-2.6c0-0.2,0.2-0.4,0.4-0.4l0,0h2.2
	c0.2,0,0.4,0.2,0.4,0.4l0,0L-58.6,74.5L-58.6,74.5z M-55.3,68.6c0,0.1-0.1,0.3-0.2,0.3c-0.1,0-0.3-0.1-0.3-0.2c0,0,0-0.1,0-0.1
	c0-2.4-1.9-4.3-4.3-4.3c-2.4,0-4.3,1.9-4.3,4.3c0,0.1-0.1,0.3-0.3,0.3s-0.3-0.1-0.3-0.3c-0.1-2.7,1.9-4.9,4.6-5.1
	c2.7-0.1,4.9,1.9,5.1,4.6C-55.3,68.3-55.3,68.4-55.3,68.6z M-56.7,68.6c0,0.1-0.1,0.3-0.2,0.3c-0.1,0-0.3-0.1-0.3-0.2
	c0,0,0-0.1,0-0.1c0-1.6-1.3-2.9-2.9-2.9s-2.9,1.3-2.9,2.9c0,0.1-0.1,0.3-0.2,0.3c-0.1,0-0.3-0.1-0.3-0.2c0,0,0-0.1,0-0.1
	c-0.1-1.9,1.4-3.5,3.3-3.6c1.9-0.1,3.5,1.4,3.6,3.3C-56.7,68.3-56.7,68.4-56.7,68.6z M-57.9,68.6c0,0.1-0.1,0.3-0.2,0.3
	s-0.3-0.1-0.3-0.2c0,0,0-0.1,0-0.1c0-0.9-0.8-1.7-1.7-1.7c-0.9,0-1.7,0.8-1.7,1.7c0,0.1-0.1,0.3-0.2,0.3s-0.3-0.1-0.3-0.2
	c0,0,0-0.1,0-0.1c0.1-1.2,1.2-2.2,2.4-2.1C-58.9,66.6-58,67.5-57.9,68.6z"/>
</svg>
