<?xml version="1.0" encoding="utf-8"?>
<!-- Generator: Adobe Illustrator 19.1.0, SVG Export Plug-In . SVG Version: 6.00 Build 0)  -->
<svg version="1.1" id="Layer_1" xmlns="http://www.w3.org/2000/svg" xmlns:xlink="http://www.w3.org/1999/xlink" x="0px" y="0px"
	 viewBox="-20 23 100 96.7" style="enable-background:new -20 23 100 96.7;" xml:space="preserve">
<style type="text/css">
	.st0{fill:#EE2A24;}
</style>
<path class="st0" d="M30,23l-50,37.3v59.4H80V60.4L30,23z M16.2,49.7c1.5-2.7,3.5-4.7,6.1-6c2.6-1.4,5.5-2,8.8-2
	c2.8,0,5.3,0.5,7.4,1.6c2.2,1.1,3.8,2.6,5,4.6c1.1,2,1.7,4.2,1.7,6.6c0,2.8-0.9,5.4-2.6,7.7c-2.2,2.9-5,4.3-8.4,4.3
	c-0.9,0-1.6-0.2-2.1-0.5c-0.5-0.3-0.8-0.8-0.9-1.4c-1.3,1.3-2.8,1.9-4.5,1.9c-1.8,0-3.4-0.6-4.6-1.9c-1.2-1.3-1.8-3-1.8-5.1
	c0-2.6,0.7-5,2.2-7.1c1.8-2.6,4-3.9,6.8-3.9c2,0,3.4,0.8,4.4,2.3l0.4-1.8h4.4l-2.5,11.9c-0.2,0.8-0.2,1.2-0.2,1.5
	c0,0.3,0.1,0.5,0.2,0.6c0.1,0.1,0.3,0.2,0.5,0.2c0.5,0,1.2-0.3,2.1-1c1.1-0.8,2-2,2.7-3.4c0.7-1.4,1.1-2.9,1.1-4.4c0-2.7-1-5-3-6.8
	c-2-1.8-4.7-2.7-8.3-2.7c-3,0-5.6,0.6-7.6,1.8c-2.1,1.2-3.7,2.9-4.7,5.2c-1.1,2.2-1.6,4.5-1.6,6.9c0,2.3,0.6,4.5,1.8,6.4
	c1.2,1.9,2.8,3.3,5,4.2c2.1,0.9,4.6,1.3,7.3,1.3c2.6,0,4.9-0.4,6.8-1.1c1.9-0.7,3.4-1.8,4.6-3.3H46c-1.1,2.3-2.8,4-5.1,5.3
	c-2.6,1.5-5.8,2.2-9.6,2.2c-3.7,0-6.8-0.6-9.5-1.8c-2.7-1.2-4.6-3.1-5.9-5.5c-1.3-2.4-1.9-5-1.9-7.9C14,55.3,14.7,52.4,16.2,49.7z
	 M-16.5,61.5l36.9,24.7l-36.9,28.6V61.5z M-13.7,116.7L30,82.9l43.7,33.8H-13.7z M76.5,114.8L39.6,86.3l36.9-24.7V114.8z M31.8,52.4
	c0.6,0.7,0.9,1.6,0.9,2.9c0,1.1-0.2,2.3-0.6,3.6c-0.4,1.3-0.9,2.3-1.5,3c-0.4,0.5-0.8,0.8-1.3,1c-0.6,0.3-1.1,0.5-1.8,0.5
	c-0.8,0-1.5-0.3-2.1-1c-0.6-0.7-0.8-1.7-0.8-3.1c0-1.1,0.2-2.3,0.6-3.6s1-2.4,1.8-3.2c0.8-0.7,1.7-1.1,2.6-1.1
	C30.5,51.4,31.2,51.7,31.8,52.4z"/>
</svg>
