<?xml version="1.0" encoding="utf-8"?>
<!-- Generator: Adobe Illustrator 19.1.0, SVG Export Plug-In . SVG Version: 6.00 Build 0)  -->
<svg version="1.1" id="Layer_1" xmlns="http://www.w3.org/2000/svg" xmlns:xlink="http://www.w3.org/1999/xlink" x="0px" y="0px"
	 viewBox="-20 20.7 99.5 100" style="enable-background:new -20 20.7 99.5 100;" xml:space="preserve">
<style type="text/css">
	.st0{fill:#EE2A24;}
</style>
<path class="st0" d="M72.2,120.7l-84.9-0.1c-5.2,0-8.4-4.1-7-9.2l1.9-7.1c1.4-5.1,6.7-9.2,11.9-9.2h70.9c5.2,0,10.6,4.1,12.1,9.1
	l2.1,7.3C80.6,116.6,77.5,120.7,72.2,120.7z"/>
<path class="st0" d="M73.3,20.7h-87.2c-2.3,0-4.1,1.8-4.1,4.1v60.7c0,2.3,1.8,4.1,4.1,4.1h87.2c2.3,0,4.1-1.8,4.1-4.1V24.9
	C77.5,22.6,75.6,20.7,73.3,20.7z M69.2,81.4H-9.7V29h78.9C69.2,29,69.2,81.4,69.2,81.4z"/>
</svg>
