<?xml version="1.0" encoding="utf-8"?>
<!-- Generator: Adobe Illustrator 19.1.0, SVG Export Plug-In . SVG Version: 6.00 Build 0)  -->
<svg version="1.1" id="Layer_1" xmlns="http://www.w3.org/2000/svg" xmlns:xlink="http://www.w3.org/1999/xlink" x="0px" y="0px"
	 viewBox="-20 20.7 99.7 100" style="enable-background:new -20 20.7 99.7 100;" xml:space="preserve">
<style type="text/css">
	.st0{fill:#EE2A24;}
</style>
<path class="st0" d="M65.2,95.2c5.2,0,10.7,4.1,12.1,9.1l2.1,7.3c1.4,5-1.7,9.1-6.9,9.1l-85.1-0.1c-5.2,0-8.4-4.1-7-9.2l1.9-7.1
	c1.4-5.1,6.8-9.2,12-9.2H65.2z"/>
<path class="st0" d="M73.5,20.7h-87.3c-2.2,0-4,1.8-4,4v60.8c0,2.2,1.8,4,4,4h87.3c2.2,0,4-1.8,4-4V24.7
	C77.5,22.5,75.7,20.7,73.5,20.7z M69.5,81.5H-9.8V28.7h79.3V81.5z"/>
<g>
	<g>
		<path class="st0" d="M34.1,65.1c4-1.7,6.6-5.6,6.6-10c0-4.3-2.6-8.2-6.6-9.9c-1-0.4-2.3,0.1-2.7,1.1c-0.4,1.1,0.1,2.3,1.1,2.7
			c2.4,1,4,3.4,4,6.2c0,2.7-1.6,5-4,6.1c-1.1,0.5-1.5,1.7-1.1,2.7c0.3,0.8,1.1,1.3,1.9,1.3C33.5,65.2,33.8,65.2,34.1,65.1z"/>
	</g>
	<g>
		<path class="st0" d="M41.6,70.1c5.1-3.2,8.2-8.8,8.2-15c0-6.1-3.1-11.6-8.2-14.9c-1-0.6-2.2-0.3-2.9,0.6c-0.6,1-0.3,2.2,0.6,2.9
			c3.9,2.5,6.3,6.7,6.3,11.5c0,4.6-2.3,8.9-6.3,11.4c-1,0.6-1.3,1.9-0.6,2.9c0.4,0.6,1.1,1,1.8,1C40.9,70.4,41.3,70.3,41.6,70.1z"/>
	</g>
	<g>
		<path class="st0" d="M46,76.8c7.6-4.6,12.2-12.7,12.2-21.8c0-8.9-4.6-17-12.2-21.6c-1-0.6-2.2-0.3-2.8,0.7c-0.6,1-0.3,2.2,0.7,2.8
			c6.4,3.9,10.2,10.6,10.2,18.2c0,7.4-3.8,14.2-10.2,18.1c-1,0.6-1.3,1.9-0.7,2.8c0.4,0.6,1.1,1,1.8,1C45.3,77.1,45.7,77,46,76.8z"
			/>
	</g>
</g>
<g>
	<g>
		<path class="st0" d="M28.3,64c0.4-1-0.1-2.3-1.1-2.7c-2.4-1-4-3.4-4-6.2c0-2.7,1.6-5,4-6.1c1.1-0.4,1.5-1.7,1.1-2.7
			c-0.5-1.1-1.7-1.5-2.7-1.1c-4,1.7-6.6,5.6-6.6,10c0,4.3,2.6,8.2,6.6,9.9c0.3,0.1,0.5,0.2,0.8,0.2C27.2,65.2,28,64.8,28.3,64z"/>
	</g>
	<g>
		<path class="st0" d="M20.9,69.4c0.6-1,0.3-2.2-0.6-2.9C16.3,64.1,14,59.8,14,55c0-4.6,2.3-8.9,6.3-11.4c1-0.6,1.3-1.9,0.6-2.9
			c-0.6-1-1.9-1.2-2.9-0.6c-5.1,3.2-8.2,8.8-8.2,15c0,6.1,3.1,11.6,8.2,14.9c0.3,0.2,0.7,0.3,1.1,0.3C19.8,70.4,20.5,70,20.9,69.4z"
			/>
	</g>
	<g>
		<path class="st0" d="M16.5,76.1c0.6-1,0.3-2.2-0.7-2.8C9.4,69.4,5.6,62.6,5.6,55c0-7.4,3.8-14.2,10.2-18.1c1-0.6,1.3-1.9,0.7-2.8
			c-0.6-1-1.9-1.3-2.8-0.7C6,38.1,1.5,46.1,1.5,55.2c0,8.9,4.6,17,12.2,21.6c0.3,0.2,0.7,0.3,1.1,0.3C15.4,77.1,16.1,76.7,16.5,76.1
			z"/>
	</g>
</g>
</svg>
