<?xml version="1.0" encoding="utf-8"?>
<!-- Generator: Adobe Illustrator 19.1.0, SVG Export Plug-In . SVG Version: 6.00 Build 0)  -->
<svg version="1.1" id="Layer_1" xmlns="http://www.w3.org/2000/svg" xmlns:xlink="http://www.w3.org/1999/xlink" x="0px" y="0px"
	 viewBox="-51 20.7 38.2 100" style="enable-background:new -51 20.7 38.2 100;" xml:space="preserve">
<style type="text/css">
	.st0{fill:#EE2A24;}
</style>
<path class="st0" d="M-16.3,51.9V27.6c0.8-0.7,1.3-1.7,1.3-2.9c0-2.2-1.8-3.9-4-3.9s-4,1.8-4,3.9c0,1.2,0.5,2.2,1.3,2.9v23.9h-7.7
	v-8.7c0-1.4-1.2-2.6-2.6-2.6c-1.5,0-2.6,1.2-2.6,2.6v8.7h-5.9v-4.8c0-2.2-1.8-3.9-3.9-3.9c-2.2,0-3.9,1.8-3.9,3.9v5.6
	c-1.6,0.9-2.7,2.6-2.7,4.5V78c0,2.9,0.8,6.5,1.8,8.1c1,1.6,1.8,5.2,1.8,8.1v21.2c0,2.9,2.4,5.3,5.3,5.3h20.5c2.9,0,5.3-2.4,5.3-5.3
	V94.3c0-2.9,0.8-6.5,1.8-8.1s1.8-5.2,1.8-8.1V56.8C-12.8,54.5-14.3,52.6-16.3,51.9z M-16.4,77.3h-31v-2.6h31L-16.4,77.3L-16.4,77.3z
	 M-16.4,71.8h-31v-2.6h31L-16.4,71.8L-16.4,71.8z M-16.4,66.3h-31v-2.6h31L-16.4,66.3L-16.4,66.3z M-16.4,60.8h-31v-2.6h31
	L-16.4,60.8L-16.4,60.8z"/>
</svg>
