<?xml version="1.0" encoding="UTF-8" standalone="no"?>
<!-- (c) ammap.com | SVG map of Bangladesh - Low -->

<svg
   xmlns:amcharts="http://amcharts.com/ammap"
   xmlns:dc="http://purl.org/dc/elements/1.1/"
   xmlns:cc="http://creativecommons.org/ns#"
   xmlns:rdf="http://www.w3.org/1999/02/22-rdf-syntax-ns#"
   xmlns:svg="http://www.w3.org/2000/svg"
   xmlns="http://www.w3.org/2000/svg"
   xmlns:sodipodi="http://sodipodi.sourceforge.net/DTD/sodipodi-0.dtd"
   xmlns:inkscape="http://www.inkscape.org/namespaces/inkscape"
   version="1.1"
   id="svg15"
   sodipodi:docname="bangladeshlow.svg"
   width="437.58859"
   height="601.05304"
   inkscape:version="0.92.2 (5c3e80d, 2017-08-06)">
  <metadata
     id="metadata19">
    <rdf:RDF>
      <cc:Work
         rdf:about="">
        <dc:format>image/svg+xml</dc:format>
        <dc:type
           rdf:resource="http://purl.org/dc/dcmitype/StillImage" />
        <dc:title></dc:title>
      </cc:Work>
    </rdf:RDF>
  </metadata>
  <sodipodi:namedview
     pagecolor="#ffffff"
     bordercolor="#666666"
     borderopacity="1"
     objecttolerance="10"
     gridtolerance="10"
     guidetolerance="10"
     inkscape:pageopacity="0"
     inkscape:pageshadow="2"
     inkscape:window-width="1920"
     inkscape:window-height="1017"
     id="namedview17"
     showgrid="false"
     fit-margin-top="0"
     fit-margin-left="0"
     fit-margin-right="0"
     fit-margin-bottom="0"
     inkscape:zoom="2.36"
     inkscape:cx="50.326074"
     inkscape:cy="550.48405"
     inkscape:window-x="-8"
     inkscape:window-y="-8"
     inkscape:window-maximized="1"
     inkscape:current-layer="svg15" />
  <defs
     id="defs4">
    <style
       type="text/css"
       id="style2">
			.land
			{
				fill: #CCCCCC;
				fill-opacity: 1;
				stroke:white;
				stroke-opacity: 1;
				stroke-width:0.5;
			}
		</style>
    <amcharts:ammap
       projection="mercator"
       leftLongitude="88.010067"
       topLatitude="26.635149"
       rightLongitude="92.674283"
       bottomLatitude="20.740327" />
    <!-- All areas are listed in the line below. You can use this list in your script. -->
    <!--{id:"BD-A"},{id:"BD-B"},{id:"BD-C"},{id:"BD-D"},{id:"BD-E"},{id:"BD-F"},{id:"BD-G"}-->
  </defs>
  <g
     id="g13"
     transform="translate(0.3260736,0.56898957)">
    <path
       id="BD-A"
       title="Barisal"
       class="land"
       d="m 240.76,468.87 -7.28,9.47 -1.97,-9.45 0.94,-3.84 5.6,-7.18 4.79,-2.74 0.31,6.18 z m 6.35,-30.16 -2.84,7.89 3.18,-2.15 z m -10.28,-25.82 1.87,4.26 3.52,2.19 0.26,-1.79 -2.4,-0.92 1.67,-0.23 z m 8.72,36.45 -3.1,0.39 -1.69,5.2 3.44,-0.56 1.69,-1.7 z m -49.85,36.49 -2.42,2.23 -1.92,-0.16 -2.74,-2.19 0.02,-4.27 0.68,-2.13 3.59,-2.07 2.1,-7.63 6.24,-7.06 2.83,0.84 2.57,-1.4 2.22,-7.01 -1.87,-3.68 -0.88,-10.46 4.16,-0.76 1.82,-7.11 2.68,-2.35 0.65,-3.39 3.83,-0.17 1.74,-2.19 4.38,1.04 1.07,2.63 1.87,-1.6 -1.38,-3.7 3.34,-2.6 -1.4,-4.26 5.88,-0.94 5.45,3.78 2.95,6.81 -1.12,2.03 -0.52,-1.17 -0.03,4.17 3.95,4.98 -2.63,9.87 -15.83,20.39 -5.15,-0.64 -4.07,3.3 -2.52,6.87 -1.94,-1.19 -2.76,3.92 -4.85,-3.4 -5.05,0.82 -1.82,2.82 1.04,2.31 -2.5,0.17 z m 43.08,-116.23 -0.4,-0.63 -1.87,-1.12 -3.32,3.09 -7.18,2.68 7.52,2.71 3.47,7.03 4.67,-2.15 -0.19,-6.1 z m -47.06,106.68 -3.93,-0.58 -2.61,-5.17 3.81,-1.63 0.65,-7.79 3.67,-3.21 -4.55,-3.47 5.13,-2.68 0.7,-3.83 2.53,-2.52 -1.51,-6.1 7.31,-8.43 0.03,-2.74 3.87,-5.5 -1.11,-0.97 -1.26,-0.16 1.29,-5.56 -1.85,-1.65 -0.75,-3.2 3.05,-1.21 6.59,0.09 1.2,-2.66 3.12,0.17 1.36,2.15 4.74,-6.5 0.13,-2.31 1.6,0.75 2.13,-0.48 0.7,-3.28 2.07,0.52 3.89,5.14 -1.02,0.94 1.01,-0.21 0.4,10.42 -5.86,1.6 1.13,4.4 -2.88,2.38 0.94,3.25 -0.72,1.22 -1.19,-1.97 -4.94,-1.63 -1.25,2.41 -4.61,0.59 -0.34,2.71 -3.35,4.1 -0.83,5.5 -4.48,0.72 0.21,11.15 2.03,3.72 -2.34,6.56 -4.66,0.18 -6.4,6.43 z m 52.37,-50.33 -2.29,4.48 4.87,5.57 -0.31,-11.2 z m -0.26,59.2 3.39,-0.46 4.97,-8.09 -4.52,0.08 z m -2.04,-14.06 -2.26,3.73 3.64,1.45 1.37,-1.2 -0.82,-1.62 z m -5.63,7.19 -2.05,2.94 0.7,3.81 5.35,0.69 2.88,-8.78 -2.1,-0.95 -1.61,1.74 z m 17.47,6.71 0.35,3.27 1.31,-0.17 2.45,-4.99 -1.61,-1.76 z m 7.15,-1.86 -1.53,3.01 3.8,-1.84 -0.82,-1.31 z m -15.02,-64.61 -3.15,1.71 2.6,4.15 2,0.39 -0.65,-4.12 1.2,-1.29 z m 12.91,0.62 8.99,11.16 -2.46,6.76 -1.59,21.76 -3.49,6.79 -8.43,7.81 -3.79,1.12 -2.27,0.2 -3.23,-5.25 2.16,-6.7 0.42,-7.52 4.9,-9.06 -0.86,-26.15 -1.46,-2.2 -4.91,-1.21 -2.57,-3.17 -3.63,-1.82 3.91,-3.45 -0.78,-4.84 -2.38,-0.55 0.13,-3.69 -1.27,-1.29 -0.03,4.21 -1.04,0.55 -5.85,-10.02 -2.74,1.86 0.99,2.5 -1.78,1.95 1.07,1.39 -1.65,1.01 -2.08,-1.88 -0.34,3.54 -4.19,5.95 -1.12,-1.63 -3.41,-0.39 -1.27,2.83 -6.43,-0.22 -3.36,1.32 0.73,3.79 1.85,1.43 -2.16,5.88 2.81,0.87 -3.46,5.04 -0.08,2.77 -7.76,8.76 1.35,3.83 -3.25,8.84 -4.74,1.87 0.34,2.54 3.65,1.37 -4.24,3.49 0.7,4.58 -4.78,5.27 1.6,6.6 -2.81,2.04 -2.04,-1.14 -3.44,-11.67 1.01,-6.68 -4,-14.42 5.01,-11.57 5.15,-4.38 1.16,-5.4 -1.9,0.14 0.39,3.81 -7.34,6.38 -2.23,-2.31 0.89,-2.79 v 0 l 0.09,1.23 6.04,-3.47 -1.07,-1.17 -4.21,-0.21 0.06,-2.88 6.86,1.12 -0.04,-1.33 -4.05,-0.26 2.89,-3.67 1.05,-4.22 -4.28,-1.54 0.83,-3.94 -3.23,-1.76 0.83,-1.72 1.36,1.52 2.17,-1.57 -6.87,-2.01 4.07,-2.93 2.19,0.49 0.28,-2.98 -1.89,0.13 -0.77,-2.3 3.39,-0.6 -0.48,-1.57 -1.83,-0.22 1.91,-2.22 v 0 l 1.06,-0.68 -0.91,-3.77 2.34,1.1 5.04,-1.55 1.63,-6.28 2.26,-0.52 0.14,-3.46 3.49,-3.57 2.67,-0.15 0.78,-4.49 2.61,-1.91 2.81,1.12 2.17,-1.46 1.83,2.34 -0.8,5.91 0.88,2.21 0.68,-1.02 1.6,0.01 -0.18,1.49 1.63,-1.56 4.69,0.35 -1.32,-5.65 0.87,-2.38 4.82,-0.2 4.84,1.59 -0.96,1.77 -2.49,0.55 3.72,0.75 v 0 l -2.4,0.92 10.06,5.77 2.08,4.38 -3.38,2.78 -1.59,3.57 1.59,3.43 1.33,-1.74 -1.98,-2.3 4.27,-4.58 9.11,1.71 3.1,2.67 1.61,2.61 -1.07,0.96 h -7.78 l -4.24,1.8 -3.75,-0.62 3.47,2.36 2.51,-2.16 3.18,-0.48 5.28,1.41 4.74,14.58 4.53,3.62 z m -44.87,56.51 0.82,3.12 -4,11.27 -3.45,2.94 -5.38,1.07 -7.25,-3.67 -0.02,-2.2 2.94,-3.93 0.48,-2.25 2.44,-0.31 -0.56,-3.06 1.88,-2.19 3.94,-0.19 5.25,3.06 1.63,-2.06 z m 9.95,-2.7 -3.88,2.91 -4.77,9.99 1.4,3.58 3.35,-0.5 1.66,-1.81 -1.81,-4.67 4.19,-7.68 z m 2.44,-6.22 -4,-0.35 -1.66,1.57 -2.25,4.08 0.02,2.94 4.94,-5.74 z m 2.17,18.51 1.28,-2.35 -3.51,1.47 -0.48,1.55 z m -1.63,5.5 2.69,-0.56 -0.23,-2.2 -2.24,1.48 z m 3.23,-22.15 -5.8,4 0.38,2.37 -3.94,7.28 0.49,3.14 1.66,1.22 9.65,-7.54 -1.16,-8.02 z m 3.94,19.83 -2.43,1.38 -0.08,3.06 4.31,-1.76 -1.14,-1.06 z m 1.76,-2.94 -1.88,2.1 3.94,1 -0.4,-1.98 z"
       inkscape:connector-curvature="0"
       style="fill:#cccccc;fill-opacity:1;stroke:#ffffff;stroke-width:0.5;stroke-opacity:1" />
    <path
       id="BD-B"
       title="Chittagong"
       class="land"
       d="m 274.21,440.64 -0.62,-2.27 -2.08,5.15 0.66,0.9 z m 4.6,-7.11 -1.17,-1.82 -1.9,1.09 -0.05,2.57 2.21,1.2 z m -0.31,5.18 -1.38,0.42 -0.03,6.27 -7.52,19.23 2.4,2.32 7.42,-14.14 0.83,-7.6 z m 5.6,-2.18 -2.29,2.02 1.33,1.76 2.16,-1.85 z m -1.28,5.76 -1.17,1.09 0.78,2.85 0.96,-2.43 z m -2.47,-5.73 1.25,1.01 1.64,-1.68 1.3,-6.33 -2.6,-1.73 -2.6,0.48 z m 1.15,6.52 1.28,-1.29 -1.43,-1.54 -0.52,1.12 z m -30.87,-66.75 -1.85,0.48 5.57,8.88 0.76,-1.54 -1.61,-4.06 z m -7.37,-24.09 v 0 l -0.14,0.17 v 0 l 0.14,-0.15 z m 36.07,113.14 -1.64,3.55 1.35,2.99 3.62,-3.15 -0.49,-3.04 z m -6.84,-41.2 2.71,0.42 3.64,-1.37 -2.73,-3.98 -3.33,-2.83 -6.3,-1.71 -1.38,2.05 6.56,6.78 z m 41.23,-21.36 -3.38,-1.77 -2.52,1.54 1.15,4.8 2.47,3.08 5.15,2.52 1.27,-5.44 -2.5,-2.05 z m -8.55,9.01 -0.94,1.26 0.72,2.99 1.82,-4.99 z m -0.2,11.15 1.02,1.12 3.72,-6.14 -2.76,0.51 z m 17.24,-10.99 -3.28,1.88 -0.75,2.19 3.33,12.21 3.41,5.88 2.79,1.23 5.52,-1.76 0.76,-1.82 -4.14,-10.73 z m 39.79,69.74 -2.68,2.19 -0.51,16.17 5.23,-12.36 -0.43,-3.75 z m 69.86,42.88 -1.7,-20.35 2.38,-18.6 -2.03,-17.39 -3.24,-7.19 1.61,-1.06 2.09,1.85 0.37,-5.19 -4.52,-22.04 -1.2,-12.97 -2,-4.22 0.78,-4.21 -1.2,-7.27 -4.28,-8.72 -3.16,-13.26 -1.37,0.67 -3.41,-4.52 -1.98,-0.33 1.71,-12.48 -2.61,-4.84 -0.44,-13.34 4.45,-0.87 -3.35,-7.79 0.71,-4.01 -1.93,-1.91 0.18,-2.82 -1.08,-2.56 -0.88,0.31 -1.62,-5.99 -0.51,-6.55 -2.28,-4.2 0.62,-2.98 -1.75,-0.49 1.26,-6.53 -2.41,-3.45 -1.63,0.16 -1.28,5.72 -1.68,1.19 -0.24,-3.73 -2.92,-1.56 -1.38,-3.25 -6.18,6.72 -1.43,-0.07 -0.34,2.37 -1.53,0.94 -4.45,-1.35 -3.7,-7.3 -2.02,0.21 -1.86,4.67 0.81,9.71 1.21,0.77 -0.4,5.96 1.45,3.84 -3.12,1.35 v 3.2 l -3.59,-0.39 -5.26,4.19 -7.16,13.85 1.99,3.49 3.05,15.3 -4.16,0.99 -2.74,5.92 -2.39,2.1 -2.55,-1.35 -0.92,1.49 -2.95,0.13 -4.89,3.1 0.67,-1.75 -2.68,1.02 -3.23,-3.19 0.5,-3.95 -1.47,-0.09 -0.3,-5.3 -1.85,-1.87 0.75,-0.88 -1.37,-1.31 0.64,-0.95 -2.78,-7.67 -2.56,-0.32 1.52,-1.03 -2.17,-1.81 0.75,-1.14 -3.9,0.04 -2.09,3.13 -0.41,7.18 2.86,9.45 -1.85,0.75 -2.31,-1.24 -4.44,-9.48 -0.73,-12.61 -1.51,-0.86 1.42,-1.18 -2.28,-1.91 2.66,-4.19 h -2.41 l -1.25,-1.59 -3.07,-11.35 -4.39,-2.85 1.04,-3.11 -1.74,0.04 -1.63,-4.65 -1.45,-0.51 -0.5,-7.31 3.52,2.4 1.05,-4.13 -4.85,-0.37 0.2,-4.91 3.29,-1.41 2.73,1.34 0.7,-5.79 2.39,-4.34 -2.35,-4.44 1.59,-3.07 -1.33,-1.56 3.85,0.24 -0.41,-3.81 1.11,-1.99 0.54,1.54 0.95,-0.48 0.63,-2.64 v 0 l -0.78,-2.03 1.01,0.12 0.49,-2.41 -0.94,-1.99 -1.48,-0.18 0.33,-3.59 -2.13,-0.42 2.13,-2 -2.76,-2.51 1.67,-3.79 3.33,-0.76 -0.16,-1.59 -3.52,0.28 0.76,-1.76 1.12,0.58 0.19,-1.2 2.54,-0.7 -0.02,-3.04 -2.32,-0.18 -1.13,3.88 -1.09,0.21 -7.35,-1.4 -1.98,-2.57 v 0 l -3.39,2.45 -5.44,0.12 -0.4,2.07 1.24,1.43 -5.06,-0.31 -5.08,4.83 6.69,7.05 -6.66,5.75 -1.53,2.86 0.4,4.1 -2.38,1.95 0.22,2.56 -2.42,1.98 -0.75,3.27 -2.01,1.68 -3.12,-2 -9.35,1.82 0.5,6 -4.06,5.78 1.96,4.56 -0.83,2.85 -2.02,0.53 -2.98,-1.74 -3.32,0.62 -1.53,5.51 2.59,0.46 1.07,2.46 -2.1,1.67 3.66,1.65 2.45,5.46 -2.48,1.57 -3.79,-1.47 -4.83,1.64 -5.05,10.41 1.16,3.36 2.65,1.86 -0.52,3.17 3.68,8.43 v 0 l 2.26,-0.23 1.46,9.85 -1.33,3.27 0.29,9.7 1.9,2.87 2.45,-1.12 6.87,11.18 1.93,4.04 -0.47,5.03 3.88,7.58 2.55,3.42 4.17,1.09 1.02,1.88 9.18,6.06 7.01,8.12 3.67,-4.06 3.72,-0.14 1.27,2.16 9.06,-4.79 -1.85,-4.51 3.54,-2.69 -0.75,-1.91 -1.82,-2.33 -0.94,-0.28 -0.91,-2.08 -2.11,-0.11 -2.06,-2.64 6.4,3.56 3.83,-4.6 8.19,-1.18 0.23,-1.15 -2.57,-0.82 1.87,-1.29 3.52,3.73 1.2,-2.55 -2.08,-3.28 1.74,-3.43 -0.94,2.98 2.84,2.81 1.61,6.31 7.83,4.91 14.94,18.56 2.97,7.65 2.32,14.05 3.12,4.64 1.53,-0.36 1.59,9.5 1.09,2.01 1.8,0.11 1.46,9.38 -0.81,1.9 4.04,11.34 -0.24,7.24 -5.15,14.16 2.09,2.97 0.94,-0.86 0.67,0.89 -2.04,6.33 0.75,1.1 1.75,-0.56 -2.52,1.67 1.26,1.51 -2.33,0.14 -0.89,1.54 5.15,5.44 -0.13,-2.91 6.6,-0.59 1.88,-13.69 1.22,4.51 -1.4,2.34 0.6,5.93 -1.13,3.15 -3.52,2.21 0.04,1.23 6.22,8.45 2.86,6.92 0.16,11.99 12.65,15.89 4.06,10.99 8.01,14.91 2.16,1.91 0.62,-1.58 -2.16,-8.44 -5.44,-10.82 -0.99,-8.43 1.2,-2.83 -3.46,-4.13 -0.02,-3.13 -1.92,-0.74 -1.62,-3.32 3.68,-5.4 -2.8,-9.25 5.37,-3.5 1.32,-6.51 4.7,0.56 4.36,-5.48 2.07,0.19 3.13,4.28 1.13,6.48 6.16,1.85 1.1,-1.77 4.52,-0.08 3.38,11.89 1.7,0.19 5.57,-4.91 -2.39,-6.68 z m -146.82,-52.97 3.07,-2.65 -0.44,-1.45 -2.13,0.73 z m 9.16,-50.85 -3.19,-0.6 -2.19,2.14 -1.08,5.41 5.93,-4.96 z m -1.85,12.91 -5.65,-2.6 -0.18,18.1 -5.08,13.47 4.11,3.63 7.31,-5.33 2.92,-3.91 2.53,-7.41 -0.23,-4.28 -2.32,-3.83 z m -0.89,-6.69 2.32,0.06 4.63,-3.5 -1.74,-1.06 -2.47,1.09 z"
       inkscape:connector-curvature="0"
       style="fill:#cccccc;fill-opacity:1;stroke:#ffffff;stroke-width:0.5;stroke-opacity:1" />
    <path
       id="BD-C"
       title="Dhaka"
       class="land"
       d="m 266.39,153.19 -6.38,-2.9 -4.32,3.04 -1.81,-1.25 -1.45,1.16 -2.94,-1.17 -0.75,-1.95 -1.52,1.26 -12.38,-0.18 -6.03,3.15 -6.82,-2.03 -3.56,-3.01 -21.21,-3.44 -5.19,-3.71 -6.92,-2 -1.38,-2.13 -1.67,0.76 -3.95,-1.34 -2.79,2.23 -4.42,-0.89 1.23,-1.5 -2.34,-4.69 0.7,-5.96 v 0 l -5.36,-1.65 1.04,4.18 -5.44,3.42 2.97,7.28 -0.04,4.3 -1.17,1.3 -3.83,0.37 -4.61,8.98 0.1,3.37 v 0 l -0.48,3.11 v 0 l 0.98,2.76 v 0 l -0.71,0.98 1.08,5.15 v 0 l 2.18,8.48 -2.26,1.84 2.09,5.53 5.85,3.81 v 0 l -2.33,1.31 v 0 l 1.13,1.77 0.88,-0.99 1.48,1.21 v 0 l 1.48,-0.91 1.39,3.28 v 0 l -1.12,1.94 2.13,4.77 -1.18,0.79 0.04,4.1 -1.94,0.89 1.37,5.08 -1.26,2.32 v 0 l -2.3,1.18 0.05,1.52 v 0 l -1.18,0.3 1.56,0.98 -0.46,3.13 0.91,0.2 -3.14,3.28 1.96,4.35 v 0 l 1.31,-0.01 0.62,3.19 v 0 l -1.62,2.72 3.43,6.59 -0.51,4.78 1.43,6.54 -1.66,0.88 3.84,2.69 -0.31,2.89 v 0 l -0.26,5.16 v 0 l -10.22,6.49 -0.8,6.52 1.3,0.9 -0.4,5.28 0.83,-1.18 2.74,4.94 -3.19,2.33 -12.35,1.2 -4.91,-1.14 -14.28,-9.72 v 0 l -3.41,12.67 -1.64,0.98 0.28,2.64 -1.83,1.42 5.19,6.68 2.31,0.56 3.09,-1.56 3.01,4.04 4.34,1.21 -1.61,2.98 2.81,2.01 0.71,3.02 2.58,1.2 -3.11,1.21 -1.29,2.44 3.85,-0.89 7,4.27 1.18,8.15 -2.35,-0.08 0.64,4.71 3.88,6.86 -1.96,3.83 5.7,-0.46 -0.35,6.08 1.44,1.9 3.76,-2.42 2.86,0.6 -3.71,1.38 1.43,3.95 -3.87,1.55 -1.52,-2.67 -0.69,2.27 4.66,3.39 0.99,1.8 -0.82,1.87 2.01,0.87 0.85,3.59 3.26,1.4 -0.33,1.56 2.49,0.59 -1.07,2.7 2.8,0.67 3.2,3.34 -1.51,0.31 0.01,1.46 -3.15,0.69 1.07,1.78 1.75,1.37 7.25,-0.28 1.07,2.73 v 0 l 1.06,-0.68 -0.91,-3.77 2.34,1.1 5.04,-1.55 1.63,-6.28 2.26,-0.52 0.14,-3.46 3.49,-3.57 2.67,-0.15 0.78,-4.49 2.61,-1.91 2.81,1.12 2.17,-1.46 1.83,2.34 -0.8,5.91 0.88,2.21 0.68,-1.02 1.6,0.01 -0.18,1.49 1.63,-1.56 4.69,0.35 -1.32,-5.65 0.87,-2.38 4.82,-0.2 4.84,1.59 -0.96,1.77 -2.49,0.55 3.72,0.75 v 0 l 5.39,-1.66 4.13,-6.98 2.52,-1.15 1.14,1.47 3.52,-11.41 v 0 l 0.14,-0.17 v 0 l 0.66,-1.16 v 0 l -3.68,-8.43 0.52,-3.17 -2.65,-1.86 -1.16,-3.36 5.05,-10.41 4.83,-1.64 3.79,1.47 2.48,-1.57 -2.45,-5.46 -3.66,-1.65 2.1,-1.67 -1.07,-2.46 -2.59,-0.46 1.53,-5.51 3.32,-0.62 2.98,1.74 2.02,-0.53 0.83,-2.85 -1.96,-4.56 4.06,-5.78 -0.5,-6 9.35,-1.82 3.13,2 2.01,-1.68 0.75,-3.27 2.42,-1.97 -0.22,-2.56 2.38,-1.95 -0.4,-4.1 1.53,-2.86 6.66,-5.75 -6.69,-7.05 5.08,-4.83 5.06,0.31 -1.24,-1.43 0.4,-2.07 5.44,-0.11 3.39,-2.45 v 0 l 1.89,-2.66 -3.52,0.68 1.22,-3.73 5.9,0.28 -1.97,-4.59 3.8,-2.07 -1.62,-2.77 -1.8,-0.43 -0.17,-1.35 2.36,-0.77 -1.34,-4.78 -1.42,-0.08 0.81,1.34 -1.63,-0.62 -1.64,2.25 0.86,-2.04 -4.15,-0.22 2,-2.43 0.77,1.43 0.68,-0.63 4.38,-7.56 -3.36,-1.78 0.34,-2.15 -2.15,-0.86 -0.24,-1.48 1.78,0.9 0.89,-0.84 0.19,-1.69 2.23,-0.91 -1.02,-1.5 1.79,-0.31 0.06,-1.57 -1.85,-0.81 0.38,-2.6 -1.54,1.55 -2.46,-1.57 -3.67,0.1 1.69,-2.5 -2.04,-1.42 2.3,-0.33 1.18,-1.86 -1.39,-0.84 1.24,-4.14 -1.54,-0.91 -2.05,3.25 1.25,1.51 -1.49,0.22 -1.51,-2.36 1.42,-2.64 -4.66,-6.31 -3.46,-0.54 -1.25,2.26 -2.65,-0.89 -1.08,-2.19 -3.36,-0.08 -0.74,-2.5 2.32,-2.12 -2.62,-1.82 0.34,-3 -1.25,-1.68 2.88,-1.85 -2.93,-0.86 -0.2,-3.38 4.07,0.26 -2.22,-3.67 0.34,-4.01 1.64,-0.72 -0.52,-1.45 z"
       inkscape:connector-curvature="0"
       style="fill:#cccccc;fill-opacity:1;stroke:#ffffff;stroke-width:0.5;stroke-opacity:1" />
    <path
       id="BD-D"
       title="Khulna"
       class="land"
       d="m 133.17,422.27 -0.86,0.57 1.19,8.99 1.2,0.92 -1.38,5.43 5.65,9.32 -1.72,3.41 3.85,12.85 1.64,1.91 -2.32,6.77 2.14,2.32 4.79,-13.24 -4.09,-7.7 3.12,-5.18 1.13,1.07 -0.36,-3.55 4.11,-6.99 -0.94,-4.51 -2.71,-5.07 -2.03,-11.43 -6.42,-8.8 -3.48,-0.19 0.15,2.09 -5.29,4.69 2.21,2.69 -1.43,2.69 z m 10.41,64.07 0.21,-8.33 2.17,2.61 z m -31.38,10.72 -1.55,-0.91 -0.88,-3.26 1.4,-1.41 4.92,1.04 1.4,-1.67 2.18,7.94 -2.66,-0.73 -3.83,1.08 z m 14.33,-12.98 -7.89,-15.89 1.66,-2.7 -6.5,-0.79 2.58,3.67 -3.21,4.9 3.02,2.57 -3.83,3.06 4.76,3.59 3.09,0.45 -1.55,3.71 1.5,3.35 -1.12,0.67 1.53,1.69 2.99,-6.66 z m -20.17,14.9 -0.93,3.13 -2.59,-0.03 -6,-6.64 1.52,-6.7 -2.54,-4.23 0.16,-2.35 2.23,-0.03 0.16,3.27 2.24,3.02 0.13,6.14 z m 11.65,5.53 2.34,1.1 -1.53,1.84 -6.23,1.67 1.08,-4.82 2.11,0.99 z m -11.57,-26.2 2.26,-3.8 -0.57,-2.48 1.38,0.85 1.56,1.02 4.31,1.67 -3.61,2.35 0.57,2.52 2.53,1.27 1.87,1.58 2.7,0.26 -1.63,2.36 0.58,2.68 -2.4,3.38 -5.11,-1.09 1.55,-8.52 -4.73,-0.66 -1.72,-1.33 z m 17.22,-17.34 1.92,-0.56 -0.07,1.79 2.32,1.96 0.68,-2.18 2.19,-0.92 0.1,-2.81 2.96,-1.28 2.13,2.33 1.03,-1.57 -1.35,-8.4 -3.76,1.82 -0.59,-2.57 -2.36,-1.14 -1.04,1 -0.99,-0.67 -1.37,0.72 0.92,0.58 -3.31,5.91 1.17,0.95 z m 16.54,4.29 -3.03,-2.21 -0.22,-3.07 1.84,0.7 z m -23.49,33.29 2.64,0.57 0.47,2.02 -0.78,2.53 -3.14,1.29 -2.19,-1.22 -0.4,-4.21 z m 18.85,-30.75 3.37,-2.67 1.77,1.27 -3.84,2.92 z m 24.63,17.95 2.02,4.6 -6.6,0.02 -1.25,-4.84 3.3,-5.77 -0.62,-4.89 0.58,-0.83 1.83,2.71 -0.09,1.48 0.78,3.21 -0.75,2.4 z m 13.41,-7.75 1.29,5.08 -1.01,2.7 -2.78,0.58 0.07,2.55 -6.55,1.6 0.42,-1.59 -2.19,-0.32 -3.04,-5.01 1.47,-1.49 -1.56,-4 1.28,-0.88 -2.91,-4.06 0.61,-2.53 -2.47,-1.74 3,-2.14 0.24,-5.59 3.97,-0.45 1.77,4.59 6.16,3.76 1.76,2.47 z m 5.88,-89.09 -7.25,0.28 -1.75,-1.37 -1.06,-1.78 3.15,-0.69 -0.01,-1.45 1.51,-0.31 -3.2,-3.34 -2.8,-0.67 1.07,-2.7 -2.49,-0.58 0.33,-1.56 -3.26,-1.4 -0.85,-3.59 -2.01,-0.87 0.82,-1.87 -0.99,-1.8 -4.66,-3.38 0.69,-2.27 1.52,2.67 3.87,-1.55 -1.42,-3.95 3.71,-1.37 -2.86,-0.6 -3.76,2.42 -1.44,-1.89 0.35,-6.08 -5.7,0.46 1.96,-3.83 -3.88,-6.86 -0.64,-4.71 2.35,0.08 -1.18,-8.15 -7,-4.27 -3.84,0.9 1.3,-2.44 3.11,-1.21 -2.58,-1.2 -0.71,-3.02 -2.81,-2.01 1.61,-2.98 -4.34,-1.21 -3.01,-4.04 -3.09,1.56 -2.31,-0.56 -5.19,-6.68 1.83,-1.42 -0.28,-2.64 1.64,-0.97 3.41,-12.67 v 0 l -3.76,-2.7 -0.45,-0.46 -1.07,-1.8 -5.18,-2.11 -1.45,1.01 -0.79,2.58 -1.96,1.28 -0.93,-0.39 -1.35,-3.99 -0.28,-0.01 -1.94,2.09 -6.24,-1.35 -0.26,-1.19 -3.01,-1.05 -4.27,-12.89 -0.63,-0.96 -5.17,-0.55 -0.81,-0.2 -2.43,0.41 0.08,-1.13 -0.81,0.25 -0.32,0.22 0.19,1.13 -0.12,0.14 -3.04,1.22 -0.22,-0.01 0.66,-1.33 -0.16,-0.17 -1.28,0.51 -0.41,-0.07 -7.11,-2.46 -2.94,-3.01 v 0 l -2.15,-4.1 -0.08,1.26 -1.38,-0.29 -1.66,3.49 1,4.81 -1.45,0.56 0.49,1.89 2.4,-0.1 -0.3,3.07 1.43,0.65 -1.34,0.71 1.49,1.83 -1.12,4.09 2.96,-1.39 1.15,2.39 -3.37,0.67 0.69,4.31 -1.01,2.33 -2.76,0.01 0.16,1.43 -4.23,3.14 -2.74,0.64 -1.07,-1.4 -3.94,1.61 2.41,4.37 -1.41,0.47 -0.6,2.47 -1.97,0.39 1.83,1.91 -1.6,12.54 2.88,0.56 -1.08,3.64 6,-0.74 -0.58,1.5 1.92,4.13 3.39,3.58 3,0.93 1.46,2.8 5.21,-1.43 -0.71,5.44 -2.4,-0.15 -0.74,2.42 0.46,5.81 -2.69,1.57 1.17,3.7 -1.79,-0.71 -0.39,1.8 -1.23,-0.97 -1.15,1.23 2.47,2.72 -0.31,1.72 4.48,1.34 2.67,2.42 1.63,-0.1 0.36,-3.49 3.27,2.68 5.69,-0.55 0.53,2.2 3.06,0.59 2.61,-1.98 1.41,0.98 -1.19,3.15 -1.91,-0.87 -2.22,2.1 -1.6,4.37 -4.81,3.11 0.36,9.22 -2.5,0.19 1.99,1.3 -0.61,3.49 3.18,0.47 0.14,2.4 1.58,0.82 -0.43,4.17 2.18,0.96 1.26,-0.96 2.02,3.53 -0.85,4.88 -3.54,2.92 -0.11,2.81 3.73,4.72 -2.56,4.56 0.43,2.67 2.38,0.25 -1.98,2.56 0.06,2.94 1.99,1.25 1.66,6 1.85,1.96 -0.78,2.38 0.99,1.81 -2.57,2.13 2.12,2.14 -1.2,1.25 0.12,4.85 3.8,3.08 -2.47,0.03 -0.27,1.06 2.19,1.42 -0.32,1.54 1.75,-0.33 0.82,3.13 2.96,3.35 -0.49,4.08 2.84,-0.22 -5.05,5.95 0.68,3.15 2.82,0.98 -1.63,0.06 2.11,3.66 0.66,7.93 -0.57,-0.76 -1.06,4.2 1.91,3.36 -0.06,5.92 5.12,1.94 1.39,-0.94 3.09,-10.85 -5.3,-0.48 -1.34,-3.25 2.99,-4.53 -1.56,-4.53 0.67,-1.52 1.82,-0.82 -1.84,2.41 4.89,3.6 3.77,-5.53 -2.78,-3.04 -1.14,-4.08 0.34,-1.93 3.22,-1.44 -1.8,-3.89 1.82,-1.69 0.47,-5.46 1.33,-1.2 -1.35,5.96 5.39,0.39 -0.83,-3.35 2.81,5.5 2.7,-4.8 -1.53,-0.61 1.22,-1.08 3.13,-0.65 2.63,1.12 1.38,-2.12 -1.98,-2.57 0.99,-1.57 -1.98,-1.45 0.44,-1.15 -1.67,-0.28 -0.03,-2.32 -1.72,0.2 -0.68,-4.67 1.17,-3.89 -1.41,0.45 -0.91,-1.26 -8.17,1.09 0.16,-1.48 2.47,-0.84 -1.6,-1.24 5.5,-2.77 0.05,1.38 2.22,1.02 -0.66,2.34 6.84,-0.72 -1.09,-4.46 1.43,-2.83 -3.64,-6.14 2.82,-3.61 1.03,2.4 -1.02,2.93 4.18,-3.45 -0.01,-2.22 2.84,-0.41 3.2,2.23 5.07,7.92 2.09,8.07 1.69,-3.72 2.07,-0.94 0.12,-3.77 4.37,-1.62 2.74,1.42 6.78,4.04 1.5,2.76 3.64,0.11 3.71,4.87 v 0 l 0.09,1.23 6.04,-3.47 -1.07,-1.17 -4.21,-0.21 0.06,-2.88 6.86,1.12 -0.04,-1.33 -4.05,-0.26 2.89,-3.67 1.05,-4.22 -4.28,-1.54 0.83,-3.94 -3.23,-1.76 0.83,-1.72 1.36,1.52 2.17,-1.57 -6.87,-2.01 4.07,-2.93 2.19,0.49 0.28,-2.98 -1.89,0.13 -0.77,-2.3 3.39,-0.6 -0.48,-1.57 -1.83,-0.22 1.91,-2.22 z m -24.85,103.05 3.7,2.95 -0.16,2.09 -2.78,1.74 -5.58,-1.03 0.46,-3.72 -5.58,-5.3 -0.71,-2.17 3.79,-7.05 3.24,0.15 2.27,3.39 -1.86,4.83 z m 16.42,-66.64 -3.53,-0.3 -7.93,-6.72 -6.61,0.78 -0.07,3.24 -2.17,1.18 -2.33,4.24 2.64,5.2 0.55,8.64 -3.34,4.79 -0.34,4.98 -3.38,2.29 4.95,7.55 -5.45,16.74 1.86,1.96 1.41,-1.03 4.04,0.36 2.95,4.61 1.84,-1.93 0.88,-3.38 -0.93,-3.18 2.13,-4.56 -2.52,-1.92 3.07,-2.37 0.34,-5.4 -2,-6.99 2.55,0.51 -1.48,1.06 1.4,4.96 4.19,-0.39 1.55,4.43 2.7,1.72 3.89,1.3 2.94,-3.31 v -9.31 l -3.85,-4.86 5.02,-12.61 -2.05,-4.9 0.88,-2.74 z m -39.68,17.68 0.92,-3.8 5.24,7.54 -5.42,3.63 1.18,-4.14 z m -10.39,9.53 1.04,2.6 -3.88,3.91 -0.63,3.58 -4.47,1.53 -0.93,-2.76 1.83,-0.67 -1.26,-1.22 3.01,-1.51 -1.77,-3.89 1.88,-1.77 z m -3.33,11.99 3.07,-0.28 0.82,1 -1.77,2.69 5.49,8.99 -0.6,-5.75 4.1,-6.05 -3.43,-2.36 -0.45,-1.51 -1.81,0.5 0.72,-5.79 -4,2.9 -1.11,3.52 z m 21.23,6.57 -1.42,-1.91 3.51,-2.68 z m 8.9,27.19 1.89,3.85 -3.64,0.61 -3.33,-5.51 1.42,0.22 -1.72,-5.61 0.98,-2.82 5.94,4.98 z m -7.06,-19.2 -0.71,4.16 -4.67,-0.72 0.86,-2.03 -3.95,-3.44 1.61,-2.08 -0.6,-5.39 1.19,-0.9 2.42,0.94 z m -15.14,11.79 -1.4,4.58 -1.3,-6.33 4.1,-3.37 z m 9.69,-1.18 -3.01,-0.67 3.12,-0.53 1.53,-4.6 -2.28,-0.49 0.93,-2.69 -3.74,-3.49 1.47,-2.17 -0.7,-5.78 5.55,-4.16 -2.5,-3.1 0.39,-2.32 -2.42,-1.98 -2.37,0.9 -0.34,2.76 -2.29,0.98 0.7,3.69 -3.62,5.51 2.83,14.56 -3.23,7.43 2.54,7.43 2.19,1.16 1.94,-0.72 3.29,-3.72 1.93,-2.77 -1.66,-3.72 z"
       inkscape:connector-curvature="0"
       style="fill:#cccccc;fill-opacity:1;stroke:#ffffff;stroke-width:0.5;stroke-opacity:1" />
    <path
       id="BD-E"
       title="Rajshahi"
       class="land"
       d="m 153.91,165.03 1.08,5.15 v 0 l 2.18,8.48 v 0 0 0 l -2.26,1.84 v 0 0 0 l 2.09,5.53 5.85,3.81 v 0 l -2.33,1.31 v 0 l 1.13,1.77 v 0 0 0 l 0.88,-0.99 1.48,1.21 v 0 l 1.48,-0.91 1.39,3.28 v 0 l -1.12,1.94 v 0 0 0 l 2.13,4.77 -1.18,0.79 0.04,4.1 -1.94,0.89 v 0 0 0 l 1.37,5.08 v 0 0 0 l -0.24,0.43 v 0 0 0 l -1.02,1.88 v 0 l -2.3,1.3 0.05,1.41 v 0 l -1.18,0.3 1.56,0.98 v 0 0 0 l -0.46,3.13 v 0 0 0 l 0.91,0.2 v 0 0 0 l -3.14,3.28 v 0 0 0 l 1.96,4.35 v 0 l 1.31,-0.01 0.62,3.19 v 0 l -1.62,2.72 3.43,6.59 v 0 0 0 l -0.51,4.78 v 0 0 0 l 1.43,6.54 v 0 0 0 l -1.66,0.88 v 0 0 0 l 3.84,2.69 -0.31,2.89 v 0 l -0.26,5.16 v 0 l -10.22,6.49 -0.8,6.52 v 0 0 0 l 1.3,0.9 v 0 0 0 l -0.4,5.28 v 0 0 0 l 0.83,-1.18 2.74,4.94 v 0 0 0 l -3.19,2.33 v 0 0 0 l -11.84,1.15 v 0 0 0 l -0.51,0.05 v 0 0 0 l -4.91,-1.14 v 0 0 0 l -1.34,-0.77 v 0 0 0 l -12.94,-8.95 v 0 0 0 l -3.76,-2.7 v 0 0 0 l -0.45,-0.46 v 0 0 0 l -1.07,-1.8 -5.18,-2.11 v 0 0 0 l -1.45,1.01 v 0 0 0 l -0.79,2.58 -1.96,1.28 v 0 0 0 l -0.93,-0.39 v 0 0 0 l -1.35,-3.99 v 0 0 0 l -0.28,-0.01 v 0 0 0 l -1.94,2.09 -6.24,-1.35 v 0 0 0 l -0.26,-1.19 v 0 0 0 l -3.01,-1.05 -1.85,-5.96 v 0 0 0 l -0.3,-0.44 v 0 0 0 l -2.12,-6.49 v 0 0 0 l -0.63,-0.96 v 0 0 0 l -5.17,-0.55 v 0 0 0 l -0.81,-0.2 v 0 0 0 l -2.43,0.41 0.08,-1.13 v 0 0 0 l -0.92,0.28 v 0 0 0 l -0.22,0.18 v 0 0 0 l 0.19,1.13 v 0 0 0 l -0.12,0.14 v 0 0 0 l -3.04,1.22 v 0 0 0 l -0.22,-0.01 v 0 0 0 l 0.66,-1.33 v 0 0 0 l -0.16,-0.17 v 0 0 0 l -1.28,0.51 v 0 0 0 l -0.41,-0.07 v 0 0 0 l -7.11,-2.46 -2.94,-3.01 v 0 l -2.15,-4.07 0.44,-5.94 -2.98,-4.23 -7.12,0.29 -5.62,-2.19 -1.38,3.17 -2.46,-4.88 -7.53,-3.36 -7.65,0.42 -3.16,-1.05 -5.42,-5.68 -7.05,-2.24 -4.89,-4.61 L 0,203.44 l 5.08,-5.61 0.55,-4.93 3.31,-1.03 0.14,-2.57 5.33,-5.3 -0.87,-3.13 1.46,-0.37 -2.81,-2.79 -0.08,-1.93 8.27,-2.39 7.15,9.15 4.09,-2.24 -2.02,-1.9 1.44,-2.91 2.03,-1.28 1.97,1.4 1.6,-0.81 -0.38,-2.41 1.86,-0.5 -0.36,-2.01 3.77,-4.32 -1.62,-1.5 1.53,-2.99 -0.94,-4.83 1.86,-1.62 -1.57,-5.59 5.05,-1.58 3.47,1.12 -0.1,1.06 2.21,-0.36 0.61,1.69 4.8,-2.93 8.64,-0.36 4.01,3.27 1.96,-1.36 2.89,1.93 3.85,-4.01 3,3.11 1.94,-0.36 2.38,1.79 0.63,-1.84 1.65,0.1 -1.17,-3.51 2.25,-0.15 -0.37,-3.78 2.25,-1.6 v 0 l 3.31,3.06 h 7.19 l 0.9,1.48 5.84,0.99 4.5,-0.49 -0.9,5.43 1.35,2.96 3.15,1.98 1.35,3.46 2.7,0.99 5.39,-1.48 5.39,5.43 1.8,-1.48 h 2.7 l 8.09,4.44 z"
       inkscape:connector-curvature="0"
       style="fill:#cccccc;fill-opacity:1;stroke:#ffffff;stroke-width:0.5;stroke-opacity:1" />
    <path
       id="BD-F"
       title="Rangpur"
       class="land"
       d="m 153.91,165.03 -10.42,2.95 -8.09,-4.44 h -2.7 l -1.8,1.48 -5.39,-5.43 -5.39,1.48 -2.7,-0.98 -1.35,-3.46 -3.14,-1.97 -1.35,-2.97 0.9,-5.43 -4.5,0.49 -5.84,-0.99 -0.9,-1.48 h -7.19 l -3.31,-3.05 v 0 l 2.63,-0.36 0.37,-2.09 -6.93,-1.6 -1.07,0.78 -1.79,-3.3 -1.67,1.35 -4.22,-4.12 0.13,-3.05 -2.64,-1.67 1.89,-1.74 0.19,-4.59 -0.67,-1.64 -1.63,-0.17 -0.39,-3.37 -4.45,-0.17 0.59,3 -2.45,0.65 -0.39,-1.67 -2.6,0.53 -1.14,2.8 -4.6,-0.73 -0.17,-1.85 -2.2,-0.04 -1.41,-1.84 -2.94,0.79 -2.32,-1.26 -0.98,1.14 -0.86,-3.45 -0.98,0.72 -2.49,-2.55 0.32,-2.43 -5.03,-1.62 0.97,-6.57 -4.65,-0.91 -0.06,-1.36 -2.95,-1.28 0.33,-1.83 -4.92,-2.33 -5.09,-4.64 -0.17,-2.92 -2.9,0.14 -2.85,2.21 -2.09,-1.38 -3.23,2.59 -0.96,-2.08 -2.28,-0.29 -1.18,-3.02 1.01,-2.76 -2.53,-6.92 2.35,-1.71 2.86,-7.88 4.04,-1.27 -1.31,-0.91 1.22,-3.72 -2.3,-2.69 1.77,-5.3 6.5,-4.53 2.47,0.28 7.15,-3.47 -0.07,-6.4 3.53,-3.34 2.5,-0.24 -0.86,-1.5 2.92,-0.69 1.86,-3.81 2.73,2.55 0.3,-1.11 1.74,-0.05 -0.28,1.29 1.78,-1.24 -3.9,-10.54 -5.72,-0.42 -1.66,-2.11 -3.45,-0.17 -1.1,4.3 -2.02,-3.42 4.05,-11.97 3.3,-4.26 2.12,9.13 1.39,1.14 1.12,-1.18 2.24,0.61 0.73,2.84 2.89,0.83 0.18,2.54 3.22,-0.75 -0.37,3.34 3.74,0.77 -0.17,-2.33 2.39,0.08 0.36,3.71 4.31,2.95 1.58,-0.38 -0.52,3.16 2.11,4.78 4.2,-1.96 1.16,5.47 3.5,-1.3 2.12,1.29 -0.22,4.26 2.59,2.65 3.59,-0.48 -1.59,-4.01 1.89,-1.47 4.36,0.34 3.33,4.86 7.99,-0.22 1.31,-1.21 -0.42,-4.02 -2.98,0.88 -1.64,-1.94 -1.1,1.14 -1.15,-1.2 1.48,-2.48 -1.52,-2.45 -2.16,-0.22 -0.43,2.25 -1.12,-2.78 -2.99,-1.1 0.56,-3.28 -1.37,-1.1 2.25,-0.17 -0.14,-2.36 1.65,0.75 1.21,-3.54 2.41,1.34 0.57,2.82 3.07,0.72 1.14,1.91 5.75,0.46 -1.46,2.85 1.5,0.44 0.17,3.35 3.73,0.92 -1.31,3.36 -1.68,-2.96 -0.39,3.6 3.61,4.88 0.79,2.78 -1.38,2.96 2.02,2.01 -0.2,1.92 3.53,2.11 3.04,-0.07 3.94,3.22 -1,2.87 6.26,2.79 2.26,2.75 4.3,0.38 -0.12,-1.38 3.04,-2.64 0.84,3.84 3.73,1.23 6,-0.9 1.06,0.57 -0.94,3.05 4.41,-0.53 -0.06,-6.31 5.87,-2.81 -1.88,-4.5 -1.98,1.95 -1.39,-1.32 0.44,-1.25 1.64,0.67 1.32,-1.29 -1.68,-0.83 -0.64,1.07 -1.27,-4.19 1.77,0.37 0.56,-2.56 3.03,1.39 0.68,-1.49 -2.74,-0.75 2.17,-0.39 -1.44,-3.92 3.34,0.94 0.83,-1.77 1.1,2.64 -1.64,0.93 2.7,3.08 -1.93,1.17 2.49,0.78 0.67,-1.52 0.41,1.3 2.64,-0.06 1.85,2.92 -1.08,1.91 2.62,0.39 -0.11,2.29 1.18,-0.07 0.47,2.72 -1.42,0.34 0.17,1.53 2.15,-0.24 1.22,3.41 -0.79,1.74 2.07,1.17 -0.02,-3.05 3.36,3.56 -3.18,1.26 0.94,1.81 3.64,0.65 -7.1,12.76 2.72,5.05 -1.11,4.47 2.24,1.85 -0.26,2.04 3.17,6.86 -1.19,8.16 -1.52,0.75 -0.11,7.47 -2.51,5.06 v 0 l -5.36,-1.65 v 0 0 0 l 1.04,4.18 v 0 0 0 l -5.44,3.42 2.96,7.28 -0.04,4.3 -1.17,1.3 v 0 0 0 l -3.83,0.37 -4.6,8.98 0.15,3.1 v 0 0 0 l -0.06,0.27 v 0 l -0.48,3.11 v 0 l 0.98,2.75 v 0 z"
       inkscape:connector-curvature="0"
       style="fill:#cccccc;fill-opacity:1;stroke:#ffffff;stroke-width:0.5;stroke-opacity:1" />
    <path
       id="BD-G"
       title="Sylhet"
       class="land"
       d="m 307.06,149.11 5.13,2.38 7.26,0.22 2.45,2.16 2.37,-0.11 0.27,1.68 7.94,-1.59 2.01,-2.42 3.48,-0.32 -1.11,3.1 1.9,0.08 0.23,1.72 1.52,0.58 4.81,-1.69 1.07,-2.03 3.44,0.78 0.83,-2.94 2.72,1.19 4.95,-1.46 8.2,-0.48 6.24,1.18 2.36,-1.5 5.69,0.11 6.09,2.75 -0.02,1.74 4.5,2.43 4.2,0.24 -1.88,0.32 1.99,2 7.63,2.54 3.08,-0.61 0.82,1.08 -0.88,1.61 8.03,2.17 -0.41,6.01 3,-0.37 1.24,1.96 -2.03,0.38 1.55,1.13 1.93,-1.23 1.45,5.14 -1.21,3.12 -3.99,-0.33 -1.58,2.58 -2.16,0.08 -8.4,-4.45 -1.99,-2.61 -1.43,1.57 -3.55,-0.56 -0.11,6.25 3.33,2.19 1.29,3.97 -0.78,4.69 1.24,0.73 -4.44,8.15 -1.88,16.14 -5.39,-3.52 -1.64,1 -0.32,2.45 1.91,7.1 -3.15,0.66 -1.45,3.8 -3.25,1.42 -10.77,-1.55 -0.89,0.69 3.16,4.35 -0.27,1.85 -3.59,-3.58 -3.44,2.1 2.01,6.97 -3,12.8 -2.02,0.53 -0.91,-1.1 -0.62,-2.68 -2.83,-2.42 0.08,-2.45 -2.53,1.31 -6.76,-3.9 1.76,10.59 -2.86,0.1 -4.38,-2.75 -1.63,-6.23 -1.83,1.63 1.14,2.74 -1.32,1.28 -1.13,7.4 -3.17,0.42 -1.2,2.2 -3.96,0.08 -5.12,-2.21 -10.54,-1.2 -0.09,2.89 1.82,3.05 -2.08,4.43 0.36,3.16 -6.72,-2.21 v 0 l -0.78,-2.03 1.01,0.12 0.49,-2.41 -0.94,-1.98 -1.47,-0.19 0.32,-3.58 -2.12,-0.42 2.12,-2 -2.75,-2.51 1.67,-3.79 3.33,-0.76 -0.17,-1.59 -3.52,0.28 0.76,-1.76 1.12,0.58 0.2,-1.21 2.54,-0.69 -0.03,-3.04 -2.31,-0.18 -1.13,3.88 -1.09,0.21 -7.35,-1.4 -1.99,-2.57 v 0 0 0 l 1.89,-2.66 -3.52,0.68 1.22,-3.74 5.91,0.28 -1.97,-4.59 3.8,-2.07 -1.62,-2.78 -1.8,-0.42 -0.18,-1.35 2.36,-0.78 -1.34,-4.78 -1.43,-0.08 0.81,1.34 -1.63,-0.63 -1.64,2.25 0.85,-2.04 -4.15,-0.22 2,-2.43 0.76,1.43 0.68,-0.62 4.38,-7.56 -3.36,-1.78 0.34,-2.15 -2.16,-0.86 -0.23,-1.48 1.78,0.9 0.88,-0.84 0.19,-1.69 2.23,-0.91 -1.01,-1.5 1.78,-0.31 0.06,-1.57 -1.85,-0.81 0.38,-2.6 -1.53,1.55 -2.47,-1.57 -3.67,0.1 1.69,-2.51 -2.04,-1.42 2.29,-0.32 1.18,-1.86 -1.39,-0.84 1.23,-4.15 -1.54,-0.91 -2.04,3.26 1.25,1.5 -1.49,0.22 -1.51,-2.35 1.42,-2.64 -4.66,-6.31 -3.47,-0.54 -1.25,2.26 -2.64,-0.9 -1.08,-2.19 -3.37,-0.08 -0.74,-2.5 2.33,-2.12 -2.62,-1.83 0.33,-3 -1.24,-1.68 2.87,-1.85 -2.93,-0.86 -0.2,-3.37 4.07,0.25 -2.22,-3.67 0.34,-4.01 1.64,-0.72 -0.52,-1.45 v 0 l 10.68,-2.95 15.84,0.3 2.08,-1 z"
       inkscape:connector-curvature="0"
       style="fill:#cccccc;fill-opacity:1;stroke:#ffffff;stroke-width:0.5;stroke-opacity:1" />
  </g>
</svg>
