<?xml version="1.0" encoding="UTF-8" standalone="no"?>
<!-- Created with Inkscape (http://www.inkscape.org/) -->

<svg
   xmlns:dc="http://purl.org/dc/elements/1.1/"
   xmlns:cc="http://creativecommons.org/ns#"
   xmlns:rdf="http://www.w3.org/1999/02/22-rdf-syntax-ns#"
   xmlns:svg="http://www.w3.org/2000/svg"
   xmlns="http://www.w3.org/2000/svg"
   xmlns:sodipodi="http://sodipodi.sourceforge.net/DTD/sodipodi-0.dtd"
   xmlns:inkscape="http://www.inkscape.org/namespaces/inkscape"
   width="59.269001mm"
   height="52.345001mm"
   viewBox="0 0 59.269001 52.345001"
   version="1.1"
   id="svg5389"
   inkscape:version="0.92.2 (5c3e80d, 2017-08-06)"
   sodipodi:docname="cold%20wave.svg">
  <defs
     id="defs5383" />
  <sodipodi:namedview
     id="base"
     pagecolor="#ffffff"
     bordercolor="#666666"
     borderopacity="1.0"
     inkscape:pageopacity="0.0"
     inkscape:pageshadow="2"
     inkscape:zoom="0.98994949"
     inkscape:cx="97.542719"
     inkscape:cy="139.40929"
     inkscape:document-units="mm"
     inkscape:current-layer="layer1"
     showgrid="false"
     fit-margin-top="0"
     fit-margin-left="0"
     fit-margin-right="0"
     fit-margin-bottom="0"
     inkscape:window-width="1366"
     inkscape:window-height="715"
     inkscape:window-x="-8"
     inkscape:window-y="-8"
     inkscape:window-maximized="1" />
  <metadata
     id="metadata5386">
    <rdf:RDF>
      <cc:Work
         rdf:about="">
        <dc:format>image/svg+xml</dc:format>
        <dc:type
           rdf:resource="http://purl.org/dc/dcmitype/StillImage" />
        <dc:title></dc:title>
      </cc:Work>
    </rdf:RDF>
  </metadata>
  <g
     inkscape:label="Layer 1"
     inkscape:groupmode="layer"
     id="layer1"
     transform="translate(-88.294075,-104.51798)">
    <g
       id="g864">
      <path
         style="fill:#ec1d24;fill-opacity:1;fill-rule:evenodd;stroke:none;stroke-width:0.16460614"
         d="m 143.63282,156.86287 c 1.41323,0 2.70884,-0.74429 3.40529,-1.95985 0.70015,-1.21371 0.70015,-2.71256 0,-3.92997 l -25.70427,-44.50024 c -0.70385,-1.21371 -1.99141,-1.9547 -3.38986,-1.9547 -0.005,0 -0.0103,-2e-5 -0.0154,0 -0.005,-2e-5 -0.0103,0 -0.0154,0 -1.39845,0 -2.68602,0.74099 -3.38986,1.9547 l -25.70428,44.50024 c -0.70015,1.21741 -0.70015,2.71626 0,3.92997 0.69644,1.21556 1.99205,1.95985 3.40528,1.95985 z"
         id="path12166-1"
         inkscape:connector-curvature="0"
         sodipodi:nodetypes="scccscscccss" />
      <path
         inkscape:connector-curvature="0"
         style="fill:#ffffff;fill-opacity:1;fill-rule:evenodd;stroke:none;stroke-width:0.16460614"
         id="path12168-3"
         d="M 141.36498,151.62561 H 94.49209 l 23.43645,-40.57157 z"
         sodipodi:nodetypes="cccc" />
      <g
         style="fill:#000000"
         transform="matrix(0.24185931,0,0,0.24185931,116.46823,121.19517)"
         id="g853">
        <path
           style="fill:#000000"
           inkscape:connector-curvature="0"
           class="st0"
           d="m 0,101.9 c 0,5.6 -4.5,10.1 -10.2,10.1 -5.7,0 -10.1,-4.6 -10.1,-10.1 0,-4 2.4,-7.5 5.8,-9.1 V 68.5 h 8.7 v 24.2 c 3.4,1.7 5.8,5.1 5.8,9.2 z"
           id="path836" />
        <rect
           style="fill:#000000"
           x="14.5"
           y="46.799999"
           class="st0"
           width="37.700001"
           height="5.8000002"
           id="rect838" />
        <path
           style="fill:#000000"
           inkscape:connector-curvature="0"
           class="st0"
           d="M 0,86 V 30.9 c 0,0 0,0 0,0 0,-5.6 -4.6,-10.1 -10.1,-10.1 -5.6,0 -10.1,4.5 -10.2,10.1 V 86 c -5.4,3.5 -8.7,9.5 -8.7,15.8 0,10.4 8.5,18.8 18.8,18.8 10.4,0 18.8,-8.5 18.8,-18.8 C 8.7,95.5 5.4,89.5 0,86 Z m -10.2,31.8 c -8.8,0 -16,-7.1 -16,-15.9 0,-5.6 3.1,-10.9 8,-13.8 l 0.7,-0.4 V 30.9 c 0,-4 3.3,-7.2 7.3,-7.2 4,0 7.2,3.2 7.2,7.2 v 56.8 l 0.7,0.4 c 4.9,2.9 8,8.1 8,13.8 0.1,8.8 -7.1,15.9 -15.9,15.9 z"
           id="path840" />
      </g>
    </g>
  </g>
  <style
     id="style834"
     type="text/css">
	.st0{fill:#EE2A24;}
</style>
</svg>
