<?xml version="1.0" encoding="UTF-8" standalone="no"?>
<!-- Created with Inkscape (http://www.inkscape.org/) -->

<svg
   xmlns:dc="http://purl.org/dc/elements/1.1/"
   xmlns:cc="http://creativecommons.org/ns#"
   xmlns:rdf="http://www.w3.org/1999/02/22-rdf-syntax-ns#"
   xmlns:svg="http://www.w3.org/2000/svg"
   xmlns="http://www.w3.org/2000/svg"
   xmlns:sodipodi="http://sodipodi.sourceforge.net/DTD/sodipodi-0.dtd"
   xmlns:inkscape="http://www.inkscape.org/namespaces/inkscape"
   width="59.269001mm"
   height="52.345001mm"
   viewBox="0 0 59.269001 52.345001"
   version="1.1"
   id="svg5389"
   inkscape:version="0.92.2 (5c3e80d, 2017-08-06)"
   sodipodi:docname="dengue.svg">
  <defs
     id="defs5383" />
  <sodipodi:namedview
     id="base"
     pagecolor="#ffffff"
     bordercolor="#666666"
     borderopacity="1.0"
     inkscape:pageopacity="0.0"
     inkscape:pageshadow="2"
     inkscape:zoom="0.35"
     inkscape:cx="-435.13846"
     inkscape:cy="144.63399"
     inkscape:document-units="mm"
     inkscape:current-layer="layer1"
     showgrid="false"
     fit-margin-top="0"
     fit-margin-left="0"
     fit-margin-right="0"
     fit-margin-bottom="0"
     inkscape:window-width="1920"
     inkscape:window-height="1017"
     inkscape:window-x="-8"
     inkscape:window-y="-8"
     inkscape:window-maximized="1" />
  <metadata
     id="metadata5386">
    <rdf:RDF>
      <cc:Work
         rdf:about="">
        <dc:format>image/svg+xml</dc:format>
        <dc:type
           rdf:resource="http://purl.org/dc/dcmitype/StillImage" />
        <dc:title></dc:title>
      </cc:Work>
    </rdf:RDF>
  </metadata>
  <g
     inkscape:label="Layer 1"
     inkscape:groupmode="layer"
     id="layer1"
     transform="translate(-88.294075,-104.51798)">
    <g
       transform="translate(359.25981,597.48805)"
       id="g2520">
      <path
         style="fill:#ec1d24;fill-opacity:1;fill-rule:evenodd;stroke:none;stroke-width:0.16460614"
         d="m -215.62699,-440.62518 c 1.41323,0 2.70884,-0.74429 3.4053,-1.95985 0.70015,-1.21371 0.70015,-2.71256 0,-3.92997 l -25.70428,-44.50024 c -0.70385,-1.21371 -1.99141,-1.9547 -3.38986,-1.9547 -0.005,0 -0.0103,-2e-5 -0.0154,0 -0.005,-2e-5 -0.0103,0 -0.0154,0 -1.39845,0 -2.68601,0.74099 -3.38986,1.9547 l -25.70428,44.50024 c -0.70015,1.21741 -0.70015,2.71626 0,3.92997 0.69645,1.21556 1.99206,1.95985 3.40528,1.95985 z"
         id="path12186"
         inkscape:connector-curvature="0"
         sodipodi:nodetypes="scccscscccss" />
      <path
         inkscape:connector-curvature="0"
         style="fill:#ffffff;fill-opacity:1;fill-rule:evenodd;stroke:none;stroke-width:0.16460614"
         id="path12188"
         d="m -217.89483,-445.86244 h -46.87288 l 23.43645,-40.57157 z"
         sodipodi:nodetypes="cccc" />
      <path
         id="path12196"
         d="m -236.09366,-460.12832 c -0.8248,0 -1.60836,-0.0413 -2.35068,-0.0824 l 3.21672,4.45391 c 0.49488,0.24745 2.1857,1.36091 3.54664,1.81454 l -0.0824,0.28869 c 0,0 -2.72183,-0.41239 -4.00027,-1.60835 l -3.58787,-4.90756 -0.12377,-0.0824 c -0.37114,-0.0412 -0.74232,-0.0824 -1.07222,-0.12377 l 2.88679,3.95902 -1.07224,3.13425 c 0.12377,1.36091 2.35068,5.73233 2.35068,5.73233 l -0.2062,0.16497 c -1.77331,-1.48463 -2.8868,-5.93855 -2.8868,-5.93855 l 0.98977,-2.96926 -2.22697,-3.05176 c 0.0824,0.53613 0.0824,1.15471 0.0824,1.8558 -0.0412,1.89703 -0.16496,3.38166 -0.78356,3.50537 -0.6186,-0.16495 -0.70107,-1.64957 -0.78356,-3.50537 0,-0.65984 0.0413,-1.27844 0.0824,-1.81455 l -2.22695,3.05175 0.98975,3.05174 c -0.20619,0.49488 -1.40215,4.66011 -2.88678,5.85608 l -0.2062,-0.16498 c 0,0 2.22696,-4.33017 2.39191,-5.64984 l -1.07225,-3.17549 2.88681,-3.95902 c -0.32992,0.0413 -0.65985,0.0824 -1.07225,0.12376 l -0.12377,0.0824 -3.58787,4.94878 c -1.27844,1.11349 -4.00028,1.56713 -4.00028,1.56713 l -0.0824,-0.28869 c 1.36092,-0.41239 3.05175,-1.52588 3.54662,-1.81456 l 3.29921,-4.53638 c -0.74232,0.0412 -1.56713,0.0824 -2.35069,0.0824 -2.84554,-0.0413 -5.69111,-0.24744 -5.77357,-1.52588 0,-0.12376 0.0413,-0.24744 0.0824,-0.37115 0.32993,-0.70108 1.27844,-0.86605 2.4744,-0.86605 2.02076,0 4.86633,0.65986 6.68087,1.11349 l 0.53612,-0.53612 c -0.65983,-0.2062 -1.69084,-0.61859 -2.39191,-1.3609 l -0.0824,-0.12376 -0.32992,-2.72184 -1.89703,-2.30943 0.2062,-0.2062 2.35068,2.18571 0.3299,2.72183 c 0.57737,0.57737 1.60838,0.98976 2.18573,1.15474 0.0824,-0.16498 0.16496,-0.32993 0.32991,-0.45365 0,-0.0412 0,-0.0824 0,-0.12376 v 0 c -0.32991,0 -0.78356,-0.16497 -0.78356,-0.6186 0,-0.0413 0,-0.0413 0,-0.0824 0.0824,-0.5361 0.61861,-0.86603 0.94853,-1.03098 l 0.16496,-3.21672 h 0.28867 l 0.37116,3.29921 c 0.32993,0.20618 0.78355,0.49486 0.86604,0.98974 0,0.0414 0,0.0414 0,0.0824 0,0.49488 -0.45362,0.61861 -0.78355,0.61861 v 0 c 0,0.0412 0,0.0824 0,0.0824 0.16495,0.12377 0.24744,0.28868 0.32993,0.45364 0.57734,-0.16496 1.60833,-0.57737 2.1857,-1.11348 l 0.4124,-2.88679 2.30944,-2.10324 0.20619,0.2062 -1.8558,2.26819 -0.41239,2.8868 -0.0413,0.0412 c -0.70107,0.74232 -1.73208,1.15471 -2.39191,1.40216 l 0.57737,0.53611 c 1.81454,-0.49488 4.61885,-1.11348 6.68086,-1.11348 1.15471,0 2.10322,0.2062 2.47439,0.86604 0.0414,0.12377 0.0824,0.24744 0.0824,0.37116 -0.12377,1.23718 -2.96927,1.44338 -5.81481,1.48464 z"
         class="st0"
         inkscape:connector-curvature="0"
         style="fill:#000000;stroke-width:0.4123989" />
    </g>
  </g>
</svg>
