<?xml version="1.0" encoding="UTF-8" standalone="no"?>
<!-- Created with Inkscape (http://www.inkscape.org/) -->

<svg
   xmlns:dc="http://purl.org/dc/elements/1.1/"
   xmlns:cc="http://creativecommons.org/ns#"
   xmlns:rdf="http://www.w3.org/1999/02/22-rdf-syntax-ns#"
   xmlns:svg="http://www.w3.org/2000/svg"
   xmlns="http://www.w3.org/2000/svg"
   xmlns:sodipodi="http://sodipodi.sourceforge.net/DTD/sodipodi-0.dtd"
   xmlns:inkscape="http://www.inkscape.org/namespaces/inkscape"
   width="59.269001mm"
   height="52.345001mm"
   viewBox="0 0 59.269001 52.345001"
   version="1.1"
   id="svg5389"
   inkscape:version="0.92.2 (5c3e80d, 2017-08-06)"
   sodipodi:docname="earthquake.svg">
  <defs
     id="defs5383" />
  <sodipodi:namedview
     id="base"
     pagecolor="#ffffff"
     bordercolor="#666666"
     borderopacity="1.0"
     inkscape:pageopacity="0.0"
     inkscape:pageshadow="2"
     inkscape:zoom="0.35"
     inkscape:cx="-435.13846"
     inkscape:cy="144.63399"
     inkscape:document-units="mm"
     inkscape:current-layer="layer1"
     showgrid="false"
     fit-margin-top="0"
     fit-margin-left="0"
     fit-margin-right="0"
     fit-margin-bottom="0"
     inkscape:window-width="1920"
     inkscape:window-height="1017"
     inkscape:window-x="-8"
     inkscape:window-y="-8"
     inkscape:window-maximized="1" />
  <metadata
     id="metadata5386">
    <rdf:RDF>
      <cc:Work
         rdf:about="">
        <dc:format>image/svg+xml</dc:format>
        <dc:type
           rdf:resource="http://purl.org/dc/dcmitype/StillImage" />
        <dc:title></dc:title>
      </cc:Work>
    </rdf:RDF>
  </metadata>
  <g
     inkscape:label="Layer 1"
     inkscape:groupmode="layer"
     id="layer1"
     transform="translate(-88.294075,-104.51798)">
    <g
       transform="translate(-433.67192,199.34924)"
       id="g6478">
      <path
         style="fill:#ec1d24;fill-opacity:1;fill-rule:evenodd;stroke:none;stroke-width:0.16460568"
         d="m 577.30462,-42.48626 c 1.41322,0 2.70886,-0.744286 3.40527,-1.95985 0.70014,-1.213716 0.70014,-2.712578 0,-3.92999 L 555.0059,-92.876543 c -0.70388,-1.213713 -1.99143,-1.954708 -3.38985,-1.954708 -0.006,0 -0.0106,-1.9e-5 -0.0155,0 -0.006,-1.9e-5 -0.01,0 -0.0156,0 -1.39841,0 -2.68597,0.740995 -3.38978,1.954708 L 522.4911,-48.3761 c -0.70014,1.217412 -0.70014,2.716274 0,3.92999 0.69648,1.215564 1.99206,1.95985 3.40528,1.95985 z"
         id="path6472"
         inkscape:connector-curvature="0"
         sodipodi:nodetypes="scccscscccss" />
      <path
         inkscape:connector-curvature="0"
         style="fill:#ffffff;fill-opacity:1;fill-rule:evenodd;stroke:none;stroke-width:0.16460568"
         id="path6474"
         d="m 575.03684,-47.723539 h -46.87243 l 23.43621,-40.571754 z"
         sodipodi:nodetypes="cccc" />
      <path
         style="fill:#000000;stroke-width:0.2246183"
         inkscape:connector-curvature="0"
         class="st0"
         d="m 558.7212,-59.419949 c -0.3144,0 -0.6065,0.1797 -0.7413,0.449243 l -1.2129,2.291123 -1.4825,-4.380092 c -0.1122,-0.336926 -0.4268,-0.561551 -0.7636,-0.561551 -0.3595,0 -0.6739,0.202162 -0.8086,0.516633 l -1.0333,2.425895 -1.6172,-9.681127 c -0.067,-0.404317 -0.4493,-0.718778 -0.8536,-0.696316 -0.4043,0 -0.7637,0.291999 -0.8086,0.696316 l -1.43755,11.253463 -1.1679,-6.064738 c -0.067,-0.35939 -0.3594,-0.628933 -0.7189,-0.673861 -0.3593,-0.04491 -0.7187,0.13478 -0.8759,0.471699 l -1.8868,3.953313 h -2.9425 v 1.684655 h 3.4816 c 0.3145,0 0.6289,-0.1797 0.7636,-0.471707 l 1.0109,-2.111424 1.6396,8.558015 c 0.067,0.404317 0.4268,0.673861 0.8311,0.673861 0,0 0.022,0 0.022,0 0.4043,0 0.76365,-0.314462 0.80865,-0.718779 l 1.4151,-11.051301 1.1679,7.277686 c 0.067,0.359389 0.3594,0.651396 0.7413,0.696314 0.3818,0.04491 0.7187,-0.157226 0.876,-0.516623 l 1.2579,-3.009903 1.415,4.133005 c 0.1123,0.314471 0.4043,0.539088 0.7413,0.561551 0.3368,0.0225 0.6513,-0.157234 0.8086,-0.449242 l 1.8868,-3.548998 h 3.5938 v -1.684646 h -4.1105 z"
         id="path6476" />
    </g>
  </g>
</svg>
