<?xml version="1.0" encoding="UTF-8" standalone="no"?>
<!-- Created with Inkscape (http://www.inkscape.org/) -->

<svg
   xmlns:dc="http://purl.org/dc/elements/1.1/"
   xmlns:cc="http://creativecommons.org/ns#"
   xmlns:rdf="http://www.w3.org/1999/02/22-rdf-syntax-ns#"
   xmlns:svg="http://www.w3.org/2000/svg"
   xmlns="http://www.w3.org/2000/svg"
   xmlns:sodipodi="http://sodipodi.sourceforge.net/DTD/sodipodi-0.dtd"
   xmlns:inkscape="http://www.inkscape.org/namespaces/inkscape"
   width="59.269001mm"
   height="52.345001mm"
   viewBox="0 0 59.269001 52.345001"
   version="1.1"
   id="svg5389"
   inkscape:version="0.92.2 (5c3e80d, 2017-08-06)"
   sodipodi:docname="epidemic.svg">
  <defs
     id="defs5383" />
  <sodipodi:namedview
     id="base"
     pagecolor="#ffffff"
     bordercolor="#666666"
     borderopacity="1.0"
     inkscape:pageopacity="0.0"
     inkscape:pageshadow="2"
     inkscape:zoom="1.4"
     inkscape:cx="181.94622"
     inkscape:cy="121.38108"
     inkscape:document-units="mm"
     inkscape:current-layer="layer1"
     showgrid="false"
     fit-margin-top="0"
     fit-margin-left="0"
     fit-margin-right="0"
     fit-margin-bottom="0"
     inkscape:window-width="1366"
     inkscape:window-height="715"
     inkscape:window-x="-8"
     inkscape:window-y="-8"
     inkscape:window-maximized="1" />
  <metadata
     id="metadata5386">
    <rdf:RDF>
      <cc:Work
         rdf:about="">
        <dc:format>image/svg+xml</dc:format>
        <dc:type
           rdf:resource="http://purl.org/dc/dcmitype/StillImage" />
        <dc:title></dc:title>
      </cc:Work>
    </rdf:RDF>
  </metadata>
  <g
     inkscape:label="Layer 1"
     inkscape:groupmode="layer"
     id="layer1"
     transform="translate(-88.294075,-104.51798)">
    <g
       id="g832">
      <path
         style="fill:#ec1d24;fill-opacity:1;fill-rule:evenodd;stroke:none;stroke-width:0.16460614"
         d="m 143.63282,156.86287 c 1.41323,0 2.70884,-0.74429 3.40529,-1.95985 0.70015,-1.21371 0.70015,-2.71256 0,-3.92997 l -25.70427,-44.50024 c -0.70385,-1.21371 -1.99141,-1.9547 -3.38986,-1.9547 -0.005,0 -0.0103,-2e-5 -0.0154,0 -0.005,-2e-5 -0.0103,0 -0.0154,0 -1.39845,0 -2.68602,0.74099 -3.38986,1.9547 l -25.70428,44.50024 c -0.70015,1.21741 -0.70015,2.71626 0,3.92997 0.69644,1.21556 1.99205,1.95985 3.40528,1.95985 z"
         id="path12166-1"
         inkscape:connector-curvature="0"
         sodipodi:nodetypes="scccscscccss" />
      <path
         inkscape:connector-curvature="0"
         style="fill:#ffffff;fill-opacity:1;fill-rule:evenodd;stroke:none;stroke-width:0.16460614"
         id="path12168-3"
         d="M 141.36498,151.62561 H 94.49209 l 23.43645,-40.57157 z"
         sodipodi:nodetypes="cccc" />
      <path
         style="stroke-width:0.21539728;fill:#000000"
         id="path4"
         d="m 128.6984,139.26657 c 0,-5.77265 -4.52334,-10.46831 -10.20983,-10.74832 2.52014,0.23693 4.45872,2.06781 4.45872,4.28641 0,0.75388 -0.25847,1.46469 -0.64619,2.08935 -1.12007,-1.12007 -2.67093,-1.80934 -4.37256,-1.80934 -1.70164,0 -3.2525,0.68927 -4.37256,1.80934 -0.40926,-0.62466 -0.6462,-1.31393 -0.6462,-2.08935 0,-2.2186 1.96011,-4.04948 4.45872,-4.28641 -5.68649,0.28001 -10.20983,4.97567 -10.20983,10.74832 0,1.74472 0.43079,3.38174 1.16314,4.82491 -0.99082,-2.28322 -0.3877,-4.84645 1.50779,-5.94498 0.66773,-0.38771 1.40008,-0.51695 2.13244,-0.47387 -0.12924,0.51696 -0.23695,1.03391 -0.23695,1.59394 0,2.86479 1.96012,5.25569 4.60951,5.96652 -0.0431,0.0646 -0.0861,0.12923 -0.12924,0.1723 0,0 0,0.0216 0,0.0216 -0.0861,0.19387 -0.19386,0.34463 -0.3231,0.49541 -0.28002,0.36618 -0.62465,0.71082 -1.03391,0.94775 -1.91703,1.09853 -4.43717,0.34464 -5.90188,-1.70163 1.91704,2.9294 5.23415,4.86797 9.00361,4.86797 3.72637,0 7.00041,-1.89549 8.93898,-4.78182 -1.48625,1.96012 -3.9633,2.69248 -5.83727,1.61548 -0.66773,-0.38772 -1.1416,-0.96929 -1.48624,-1.63701 2.60631,-0.71082 4.56642,-3.10173 4.56642,-5.96651 0,-0.56004 -0.0861,-1.07699 -0.23694,-1.59394 0.75389,-0.0431 1.48624,0.0861 2.15397,0.47387 1.85242,1.05544 2.47707,3.51097 1.59394,5.72957 0.66773,-1.37854 1.05545,-2.95094 1.05545,-4.6095 z m -9.62826,4.13563 c -0.0431,-0.90467 0.15077,-1.83088 0.58157,-2.73555 l -0.71081,-0.40924 c -0.25848,0.25847 -0.62466,0.43079 -1.0339,0.43079 -0.40925,0 -0.7539,-0.17232 -1.01237,-0.43079 l -0.68927,0.40924 c 0.45233,0.90467 0.64619,1.85243 0.58157,2.73555 -1.80934,-0.49541 -3.16633,-2.15397 -3.16633,-4.13563 0,-0.3877 0.0646,-0.73235 0.15078,-1.07698 0.79696,0.40925 1.50777,1.0339 2.06781,1.85242 l 0.73235,-0.40926 c -0.0431,-0.12924 -0.0861,-0.23693 -0.0861,-0.36618 0,-0.66773 0.45234,-1.20622 1.07699,-1.357 v -0.8185 c -0.99083,-0.0647 -1.8955,-0.36619 -2.64939,-0.8616 0.77543,-0.77542 1.85241,-1.24931 3.01556,-1.24931 1.18468,0 2.24013,0.47389 3.01556,1.24931 -0.75389,0.49541 -1.65856,0.79697 -2.64939,0.8616 v 0.8185 c 0.62467,0.17232 1.07699,0.68927 1.07699,1.357 0,0.12925 -0.0431,0.25848 -0.0646,0.36618 l 0.73235,0.4308 c 0.53848,-0.81852 1.27085,-1.44317 2.0678,-1.85242 0.0861,0.34463 0.15079,0.71081 0.15079,1.07698 -0.0216,1.96012 -1.357,3.61868 -3.18789,4.11409 z"
         class="st0"
         inkscape:connector-curvature="0" />
    </g>
  </g>
</svg>
