<?xml version="1.0" encoding="UTF-8" standalone="no"?>
<!-- Created with Inkscape (http://www.inkscape.org/) -->

<svg
   xmlns:dc="http://purl.org/dc/elements/1.1/"
   xmlns:cc="http://creativecommons.org/ns#"
   xmlns:rdf="http://www.w3.org/1999/02/22-rdf-syntax-ns#"
   xmlns:svg="http://www.w3.org/2000/svg"
   xmlns="http://www.w3.org/2000/svg"
   xmlns:sodipodi="http://sodipodi.sourceforge.net/DTD/sodipodi-0.dtd"
   xmlns:inkscape="http://www.inkscape.org/namespaces/inkscape"
   width="59.269001mm"
   height="52.345001mm"
   viewBox="0 0 59.269001 52.345001"
   version="1.1"
   id="svg5389"
   inkscape:version="0.92.2 (5c3e80d, 2017-08-06)"
   sodipodi:docname="flood.svg">
  <defs
     id="defs5383" />
  <sodipodi:namedview
     id="base"
     pagecolor="#ffffff"
     bordercolor="#666666"
     borderopacity="1.0"
     inkscape:pageopacity="0.0"
     inkscape:pageshadow="2"
     inkscape:zoom="0.35"
     inkscape:cx="-435.13846"
     inkscape:cy="144.63399"
     inkscape:document-units="mm"
     inkscape:current-layer="layer1"
     showgrid="false"
     fit-margin-top="0"
     fit-margin-left="0"
     fit-margin-right="0"
     fit-margin-bottom="0"
     inkscape:window-width="1920"
     inkscape:window-height="1017"
     inkscape:window-x="-8"
     inkscape:window-y="-8"
     inkscape:window-maximized="1" />
  <metadata
     id="metadata5386">
    <rdf:RDF>
      <cc:Work
         rdf:about="">
        <dc:format>image/svg+xml</dc:format>
        <dc:type
           rdf:resource="http://purl.org/dc/dcmitype/StillImage" />
        <dc:title></dc:title>
      </cc:Work>
    </rdf:RDF>
  </metadata>
  <g
     inkscape:label="Layer 1"
     inkscape:groupmode="layer"
     id="layer1"
     transform="translate(-88.294075,-104.51798)">
    <g
       transform="translate(-346.074,198.77577)"
       id="g6490">
      <path
         style="fill:#ec1d24;fill-opacity:1;fill-rule:evenodd;stroke:none;stroke-width:0.16460614"
         d="m 489.70683,-41.912913 c 1.41322,0 2.70883,-0.744283 3.40529,-1.959845 0.70014,-1.213708 0.70014,-2.712564 0,-3.929967 l -25.70427,-44.500242 c -0.70385,-1.213708 -1.99142,-1.9547 -3.38987,-1.9547 -0.005,0 -0.0103,-1.9e-5 -0.0154,0 -0.005,-1.9e-5 -0.0103,0 -0.0154,0 -1.39845,0 -2.68602,0.740992 -3.38986,1.9547 l -25.70429,44.500242 c -0.70015,1.217403 -0.70015,2.716259 0,3.929967 0.69645,1.215562 1.99206,1.959845 3.40529,1.959845 z"
         id="path6480"
         inkscape:connector-curvature="0"
         sodipodi:nodetypes="scccscscccss" />
      <path
         inkscape:connector-curvature="0"
         style="fill:#ffffff;fill-opacity:1;fill-rule:evenodd;stroke:none;stroke-width:0.16460614"
         id="path6482"
         d="M 487.43898,-47.15017 H 440.5661 l 23.43645,-40.571568 z"
         sodipodi:nodetypes="cccc" />
      <g
         transform="matrix(1.3645841,0,0,1.3645841,-169.16797,26.518083)"
         id="g6488">
        <path
           style="fill:#000000;stroke-width:0.16460614"
           inkscape:connector-curvature="0"
           class="st0"
           d="m 472.23286,-55.833462 h -16.46061 v -1.646061 c 0.26337,-0.04938 1.06994,-0.5432 1.64606,-1.646062 0.75719,-1.464994 1.64606,-0.411515 1.64606,-0.411515 -0.70781,0.06584 -0.5432,0.839491 -0.41152,1.234546 0.14815,0.477358 0.55967,0.757188 0.82304,0.823031 h 0.41151 c 0.26337,-0.04938 0.65843,-0.5432 1.23455,-1.646062 0.75718,-1.464994 1.64606,-0.411515 1.64606,-0.411515 -0.70781,0.06584 -0.5432,0.839491 -0.41152,1.234546 0.14815,0.477358 0.55966,0.757188 0.82303,0.823031 h 0.41152 c 0.26337,-0.04938 0.65842,-0.5432 1.23454,-1.646062 0.75719,-1.464994 1.64607,-0.411515 1.64607,-0.411515 -0.70781,0.06584 -0.5432,0.839491 -0.41152,1.234546 0.14815,0.477358 0.55966,0.757188 0.82303,0.823031 h 0.41152 c 0.26337,-0.04938 1.06994,-0.5432 1.64606,-1.646062 0.75719,-1.464994 1.64606,-0.411515 1.64606,-0.411515 -0.70781,0.06584 -0.5432,0.839491 -0.41152,1.234546 0.14815,0.477358 0.55967,0.757188 0.82304,0.823031 h 1.23454 z"
           id="path6484" />
        <path
           style="fill:#000000;stroke-width:0.16460614"
           inkscape:connector-curvature="0"
           class="st0"
           d="m 469.76377,-62.417707 v -2.40325 -2.123419 l 0.41151,0.411515 0.41152,-0.411515 -3.91763,-3.292123 -3.91762,3.292123 0.41151,0.411515 0.41152,-0.411515 v 4.526669 h -0.39506 c -0.26337,-0.06584 -0.67488,-0.345673 -0.82303,-0.823031 -0.13168,-0.395055 -0.29629,-1.168704 0.41152,-1.234546 0,0 -0.88888,-1.053479 -1.64606,0.411515 -0.57612,1.119322 -0.97118,1.59668 -1.23455,1.646062 h -0.41151 c -0.26337,-0.06584 -0.67489,-0.345673 -0.82304,-0.823031 -0.13168,-0.395055 -0.29629,-1.168704 0.41152,-1.234546 0,0 -0.88887,-1.053479 -1.64606,0.411515 -0.57612,1.102861 -1.38269,1.59668 -1.64606,1.646062 v 2.469092 c 0.26337,-0.04938 1.06994,-0.543201 1.64606,-1.646062 0.75719,-1.464994 1.64606,-0.411515 1.64606,-0.411515 -0.70781,0.06584 -0.5432,0.839491 -0.41152,1.234546 0.14815,0.477358 0.55967,0.757188 0.82304,0.823031 h 0.41151 c 0.26337,-0.04938 0.65843,-0.543201 1.23455,-1.646062 0.75718,-1.464994 1.64606,-0.411515 1.64606,-0.411515 -0.70781,0.06584 -0.5432,0.839491 -0.41152,1.234546 0.14815,0.477358 0.55966,0.757188 0.82303,0.823031 h 0.41152 c 0.26337,-0.04938 0.65842,-0.543201 1.23454,-1.646062 0.75719,-1.464994 1.64607,-0.411515 1.64607,-0.411515 -0.70781,0.06584 -0.5432,0.839491 -0.41152,1.234546 0.14815,0.477358 0.55966,0.757188 0.82303,0.823031 h 0.41152 c 0.26337,-0.04938 1.06994,-0.543201 1.64606,-1.646062 0.75719,-1.464994 1.64606,-0.411515 1.64606,-0.411515 -0.70781,0.06584 -0.5432,0.839491 -0.41152,1.234546 0.14815,0.477358 0.55967,0.757188 0.82304,0.823031 h 1.23454 v -2.469092 z"
           id="path6486" />
      </g>
    </g>
  </g>
</svg>
