<?xml version="1.0" encoding="UTF-8" standalone="no"?>
<!-- (c) ammap.com | SVG map of Indonesia - Low -->

<svg
   xmlns:amcharts="http://amcharts.com/ammap"
   xmlns:dc="http://purl.org/dc/elements/1.1/"
   xmlns:cc="http://creativecommons.org/ns#"
   xmlns:rdf="http://www.w3.org/1999/02/22-rdf-syntax-ns#"
   xmlns:svg="http://www.w3.org/2000/svg"
   xmlns="http://www.w3.org/2000/svg"
   xmlns:sodipodi="http://sodipodi.sourceforge.net/DTD/sodipodi-0.dtd"
   xmlns:inkscape="http://www.inkscape.org/namespaces/inkscape"
   version="1.1"
   id="svg46"
   sodipodi:docname="indonesialow.svg"
   width="792.53564"
   height="316.70612"
   inkscape:version="0.92.2 (5c3e80d, 2017-08-06)">
  <metadata
     id="metadata50">
    <rdf:RDF>
      <cc:Work
         rdf:about="">
        <dc:format>image/svg+xml</dc:format>
        <dc:type
           rdf:resource="http://purl.org/dc/dcmitype/StillImage" />
        <dc:title></dc:title>
      </cc:Work>
    </rdf:RDF>
  </metadata>
  <sodipodi:namedview
     pagecolor="#ffffff"
     bordercolor="#666666"
     borderopacity="1"
     objecttolerance="10"
     gridtolerance="10"
     guidetolerance="10"
     inkscape:pageopacity="0"
     inkscape:pageshadow="2"
     inkscape:window-width="1920"
     inkscape:window-height="1017"
     id="namedview48"
     showgrid="false"
     fit-margin-top="0"
     fit-margin-left="0"
     fit-margin-right="0"
     fit-margin-bottom="0"
     inkscape:zoom="2.36"
     inkscape:cx="50.255425"
     inkscape:cy="266.29606"
     inkscape:window-x="-8"
     inkscape:window-y="-8"
     inkscape:window-maximized="1"
     inkscape:current-layer="svg46" />
  <defs
     id="defs4">
    <style
       type="text/css"
       id="style2">
			.land
			{
				fill: #CCCCCC;
				fill-opacity: 1;
				stroke:white;
				stroke-opacity: 1;
				stroke-width:0.5;
			}
		</style>
    <amcharts:ammap
       projection="mercator"
       leftLongitude="95.220250"
       topLatitude="7.356505"
       rightLongitude="141.009728"
       bottomLatitude="-10.946766" />
    <!-- All areas are listed in the line below. You can use this list in your script. -->
    <!--{id:"ID-AC"},{id:"ID-BA"},{id:"ID-BB"},{id:"ID-BE"},{id:"ID-BT"},{id:"ID-GO"},{id:"ID-JA"},{id:"ID-JB"},{id:"ID-JI"},{id:"ID-JK"},{id:"ID-JT"},{id:"ID-KB"},{id:"ID-KI"},{id:"ID-KR"},{id:"ID-KS"},{id:"ID-KT"},{id:"ID-KU"},{id:"ID-LA"},{id:"ID-MA"},{id:"ID-MU"},{id:"ID-NB"},{id:"ID-NT"},{id:"ID-PA"},{id:"ID-PB"},{id:"ID-RI"},{id:"ID-SA"},{id:"ID-SB"},{id:"ID-SG"},{id:"ID-SN"},{id:"ID-SR"},{id:"ID-SS"},{id:"ID-ST"},{id:"ID-SU"},{id:"ID-YO"},{id:"TL"},{id:"MY-12"},{id:"MY-13"},{id:"BN"}-->
  </defs>
  <g
     id="g44"
     transform="translate(0.25542531,0.41004901)">
    <path
       id="ID-AC"
       title="Aceh"
       class="land"
       d="m 36.45,91.68 -0.17,0.1 -1.97,-2.44 -1.58,-0.55 -0.13,-0.31 3.05,-0.07 1.03,2.06 z M 8.9,30.57 l 2.59,1.42 0.36,1.11 2.8,2.4 4.79,1.32 4.04,0.27 1.91,-0.35 2.23,-0.88 1.26,0.48 1.52,-0.34 2.53,0.66 0.7,1.19 0.62,0.21 5.38,-1.7 4.12,4.66 1.56,1.32 1.21,0.28 0.89,1.77 0.15,1.52 0.85,1.56 -0.09,0.93 0.82,-0.1 0.97,0.36 2.7,1.88 0.14,1.33 -0.36,0.86 v 0 l -1.2,-0.01 -0.77,0.21 -0.33,0.44 -0.95,0.03 0.18,1.12 -0.41,0.24 0.15,0.47 -0.47,0.68 -0.41,2.59 -1.21,0.65 -0.09,0.65 -0.74,-0.35 0.21,1.41 -1.92,1.8 1.06,1.83 -0.03,0.74 0.74,0.35 0.21,0.88 0.56,0.41 -0.33,0.53 0.3,1 0.65,0.44 0.27,-0.12 0.38,0.71 -0.24,0.79 -2.37,0.65 1.18,0.79 0.06,0.74 0.62,0.65 -0.09,0.97 -0.8,0.06 0.44,2.74 0.92,0.24 0.59,1.06 0.95,0.12 0.21,0.56 -0.38,0.88 0.68,1.41 -0.62,0.21 -0.24,1.41 0.18,1 0.41,0.56 -0.06,0.71 0.83,0.35 0.53,1.62 -0.61,2.79 v 0 l -3.51,-1.98 -1.33,0.46 -2.1,-0.53 -1.65,-2.3 -0.1,-4 -0.9,-3.95 -2.57,-0.84 -1.15,-0.86 -1.24,-1.73 -0.46,-1.96 -0.47,-0.77 -1.53,-0.52 -2.82,-4.85 -1.87,-1.3 -0.3,-1.13 -1.6,-1.12 -2.64,-0.15 -1.33,0.22 -1.2,-0.44 -1.68,-1.64 -1.86,-2.77 -1.7,-1.81 -3.05,-1.69 -3.13,-3.4 L 5.3,46.16 3.43,43.33 1.02,38.64 1.3,37.67 0.13,35.8 0.53,33.68 0,32.4 l 0.17,-1.57 0.86,0.01 2.58,-1.47 2.87,0.44 z"
       inkscape:connector-curvature="0"
       style="fill:#cccccc;fill-opacity:1;stroke:#ffffff;stroke-width:0.5;stroke-opacity:1" />
    <path
       id="ID-BA"
       title="Bali"
       class="land"
       d="m 352.31,278.62 -1.59,-0.65 -0.83,-0.67 0.13,-0.37 0.91,-0.65 1.27,0.16 0.62,1.15 z m -19.22,-12.44 1.05,0.85 0.67,-0.37 5.19,1.27 2.4,-0.4 1.67,-1.47 1.27,-0.33 4.56,1.7 1.87,1.17 1.27,1.64 1.3,0.7 0.06,0.7 -1.64,1.55 -1.95,0.99 -3.11,0.97 -1,0.94 0.04,0.75 -1.34,0.79 0.53,0.67 0.12,-0.38 0.22,0.71 -0.36,0.51 -1.07,0.3 -0.96,-0.12 -0.19,-0.34 1.41,-0.91 -0.24,-0.45 0.28,-0.63 -0.35,-0.5 -4.69,-4.12 -3.01,-0.89 -2.13,0.12 -2.43,-3.08 -0.27,-1.87 0.13,-0.43 z"
       inkscape:connector-curvature="0"
       style="fill:#cccccc;fill-opacity:1;stroke:#ffffff;stroke-width:0.5;stroke-opacity:1" />
    <path
       id="ID-BB"
       title="Bangka Belitung"
       class="land"
       d="m 201.84,178.68 -1.21,0.01 -1.69,-0.97 0.32,-0.77 1.15,-0.51 1.7,0.73 z m 16.28,-8.41 4.36,1.21 3.09,2.51 0.52,1.76 -1.52,2.63 -0.13,1.93 -1.62,0.74 -0.46,1.13 -1.6,0.37 -0.28,-1.44 -1.72,-1.95 -0.83,0.61 0.34,0.42 -0.07,0.76 -0.39,0.26 -2.95,0.95 -0.56,-0.24 -0.57,-3.51 0.56,-1.65 0.06,-2.3 0.36,-0.43 0.24,-2.89 0.28,-0.37 1.79,-0.04 z m -30.13,-13.12 1.31,2.73 0.37,3.73 0.92,2.81 1.29,2.08 1.23,0.9 3.98,0.73 2.86,1.12 -1.73,1.59 -1.39,4.1 0.13,0.44 0.78,0.46 1.51,0.48 v 1.23 l -0.41,0.43 -3.43,0.07 -1.3,-2.08 -2.82,-1.27 -5.34,-1.6 -0.93,-1.55 -0.31,-1.34 0.65,-2.09 -0.08,-0.89 -1.36,-0.72 -0.59,-0.74 -0.36,-3.52 -0.93,-0.89 -4.62,-0.52 -2.38,0.44 -3.55,-0.88 -0.26,-0.85 0.35,-1.31 2.49,-1.13 1.94,-1.54 -0.19,-0.93 -0.9,-0.55 0.16,-0.91 1.91,-1.53 2.1,-0.66 0.49,0.12 0.74,1.75 0.15,1.67 0.92,0.74 1.73,0.24 -1.74,-4.21 3.08,-0.98 0.41,0.09 2.3,1.78 -0.27,0.83 0.14,0.57 z"
       inkscape:connector-curvature="0"
       style="fill:#cccccc;fill-opacity:1;stroke:#ffffff;stroke-width:0.5;stroke-opacity:1" />
    <path
       id="ID-BE"
       title="Bengkulu"
       class="land"
       d="m 118.29,174.23 0.21,0.59 0.85,0.54 0.14,0.71 1.45,0.96 0.7,1.83 1.09,0.58 1.15,-0.4 0.97,0.22 0.63,0.58 0.29,0.74 -0.11,1.22 0.23,0.15 -0.2,0.5 1.67,1.52 0.88,0.35 2.55,-1.15 0.57,0.92 0.83,0.14 0.56,-0.25 0.12,0.87 0.82,-0.32 0.79,0.09 0.21,0.45 -0.29,2.11 -0.68,0.95 -0.89,0.69 -0.89,-1.2 -0.69,-0.26 -0.07,1.45 -1.12,1.07 -0.12,1.14 -2.03,1.01 0.67,0.2 0.57,0.8 2.42,1.98 0.76,0.2 0.61,-0.29 0.87,0.79 2.2,-0.08 0.69,0.29 0.96,2.04 0.01,1.63 1.91,0.31 1.22,1 1.7,0.13 0.89,0.91 0.98,-0.36 0.56,0.18 0.32,1.22 -0.83,1.06 1.09,1.04 -0.71,0.62 0.78,0.04 0.64,0.5 0.48,1.3 -0.39,0.49 1.38,0.22 0.28,0.93 v 0 l -0.08,0.05 v 0 l -0.92,0.06 -0.13,0.51 -1.83,1.07 -0.18,0.53 v 0 l -0.8,-0.1 -1,-0.8 -1.46,-0.13 0.15,-0.4 -0.26,-0.39 -0.51,-0.38 -0.6,0.27 -0.4,-0.31 0.19,-0.52 -1.59,-1.74 -3.14,-2.08 -2.64,-0.97 -0.54,-1.07 -1.13,-1.06 -8.89,-6.7 -0.15,-1.28 0.46,-0.38 -0.87,-1.73 -0.26,-1.61 -2.22,-1.8 -3.26,-1.71 0.06,-0.32 -5.58,-4.03 -1.47,-1.88 -0.69,-1.74 -1.53,-2 -1.2,-2.9 -3.21,-1.8 -1.98,-2.39 v 0 l 3.86,-2.55 0.8,-0.97 v 0 l 0.01,-0.02 v 0 l 4.71,2.96 -0.16,2.09 0.28,-0.48 0.73,0.12 1.05,-0.41 1.9,2.26 1.41,1.08 0.69,0.2 1.34,-0.16 1.31,0.64 v 0 z"
       inkscape:connector-curvature="0"
       style="fill:#cccccc;fill-opacity:1;stroke:#ffffff;stroke-width:0.5;stroke-opacity:1" />
    <path
       id="ID-BT"
       title="Banten"
       class="land"
       d="m 198.91,231.55 -0.6,0.25 -0.04,1.12 0.61,0.33 -0.02,0.67 0.39,0.08 0.6,1.49 v 0 l -0.04,0.15 v 0 l -0.18,0.61 -2.91,0.02 -0.3,-0.36 -1.02,-0.27 0.21,0.47 -0.54,0.04 -0.21,-0.65 -0.33,-0.1 -0.67,0.64 0.44,1.4 -0.87,0.42 -0.11,0.96 0.56,1.24 -0.09,1.73 1.47,1.45 -1.34,0.96 -0.08,0.71 -0.65,0.69 0.08,1.38 v 0 l -1.5,0.24 -0.09,-0.28 -0.66,-0.03 -0.43,-0.33 0.03,-0.43 -2.46,-0.94 -1.24,-1.04 -1.44,-0.12 -2.94,0.61 -1.5,-0.19 -2.12,0.33 -0.4,0.29 -1.04,-0.07 -0.61,-0.55 -0.65,0.27 0.07,-0.26 -0.57,-0.38 -1.15,-0.24 -0.85,0.78 -0.41,-0.1 -0.15,-1 -0.44,-0.54 0.98,0.07 1.13,-1.03 -0.12,-0.43 0.83,-0.4 0.57,1.27 -0.25,0.28 0.5,0.33 0.37,0.97 0.52,0.21 0.52,-0.63 0.14,-0.99 1.8,-1.82 0.13,-1.51 0.54,-0.94 0.4,-0.31 -0.05,0.72 0.41,0.32 1.36,-0.15 0.87,-1.54 0.08,-3.08 0.61,-2.25 0.39,-0.24 -0.03,-0.61 1.8,-1.51 0.18,-0.87 0.6,-0.79 0.74,-0.11 0.56,0.65 -0.02,1.29 1.02,0.55 1.02,-0.32 0.61,-0.95 1.28,0.58 0.4,-0.41 0.59,0.29 0.14,0.67 0.49,0.26 1.11,0.16 0.73,-0.53 0.49,0.31 1.14,-0.33 0.43,0.25 0.49,-0.15 0.47,0.46 z"
       inkscape:connector-curvature="0"
       style="fill:#cccccc;fill-opacity:1;stroke:#ffffff;stroke-width:0.5;stroke-opacity:1" />
    <path
       id="ID-GO"
       title="Gorontalo"
       class="land"
       d="m 466.56,109.2 4.67,0.33 3.41,0.99 3.2,2.18 1.11,-0.69 0.85,-1.22 2.55,-0.37 v 0 l 0.21,0.82 1.4,0.62 0.7,0.69 0.23,1.32 0.62,0.54 1.21,0.89 2.03,0.35 0.54,0.58 0.31,0.85 -0.08,2.09 -1.09,2.41 v 0 l -2.14,0.03 -1.5,-0.4 -3.12,-3.27 -0.51,0.38 -1.38,0.14 -8.43,-0.31 -7.25,0.26 -1.11,0.65 -3.38,0.38 -1.48,-1.67 -2.93,-0.32 -0.73,1.05 -2.77,0.32 v 0 l 0.28,-0.5 -0.17,-1.47 -1.76,-0.37 -1.33,-1.52 0.31,-0.17 0.06,-1.07 0.34,-0.34 1.06,-0.38 0.97,0.38 0.52,-0.1 0.02,-0.96 0.35,-0.41 0.89,0.51 1.33,0.05 0.48,-0.41 1.45,-0.01 3.18,-1.25 0.79,-0.61 0.85,-0.14 0.49,0.8 0.91,0.69 0.43,-0.92 h 0.37 l 0.52,-0.6 z"
       inkscape:connector-curvature="0"
       style="fill:#cccccc;fill-opacity:1;stroke:#ffffff;stroke-width:0.5;stroke-opacity:1" />
    <path
       id="ID-JA"
       title="Jambi"
       class="land"
       d="m 160.35,155.27 -1.28,-0.52 -0.54,0.11 -0.48,0.43 0.1,0.75 -0.32,0.43 -1.99,0.16 -2.27,0.75 -1.08,-0.27 -1.25,0.18 -1.46,-0.6 -0.72,0.36 -0.29,0.52 -1.66,0.08 -2.18,0.81 -1.09,0.96 -0.32,3.62 0.56,0.48 -1.78,0.76 0.04,2.94 -2.06,-1.53 -0.81,-1 -0.08,-0.77 -0.81,-0.44 -1.21,1.69 0.69,0.68 0.16,0.73 -1.54,0.6 -1.41,-0.64 -0.29,0.52 -2.62,-0.6 -0.57,0.84 0.61,1 -1.54,2.14 -0.45,0.36 -0.56,-0.12 -1.7,1.08 -0.81,1.17 -0.48,-0.2 -1.01,0.52 -0.85,-0.16 -0.69,-0.16 -1.09,-0.85 -0.49,0.2 -0.85,-0.52 -0.56,0.24 -0.08,0.73 -0.41,0.44 -1.62,0.48 -0.4,0.73 v 0 l -0.57,-0.17 v 0 l -1.31,-0.64 -1.34,0.16 -0.69,-0.2 -1.41,-1.08 -1.9,-2.26 -1.05,0.41 -0.73,-0.12 -0.28,0.48 0.16,-2.09 -4.71,-2.96 v 0 l 0.23,-0.51 v 0 l -0.74,-3.32 -0.39,-0.74 -1.06,-0.73 -0.77,-1.41 -0.21,-3.65 0.68,0.33 0.33,-0.39 0.68,0.71 0.56,-0.35 1.6,-0.24 1.18,-0.15 0.38,0.36 1.01,-0.27 1.18,-1.79 2.01,-1.23 0.62,-1.12 -0.41,-0.58 0.41,-0.68 -0.41,-1.62 0.62,-0.61 1.57,-0.36 1.12,-1.88 -0.47,0.18 -0.53,-0.44 -0.06,-1.88 v 0 l -0.03,-0.02 v 0 l 0.6,0.1 0.04,-0.31 0.8,-0.18 0.18,-0.62 0.59,-0.29 0.24,0.21 0.58,-0.62 2.19,0.68 0.76,-0.29 0.61,0.8 1.82,-0.57 0.3,0.76 1,0.51 -0.04,0.64 1.22,0.12 0.47,0.76 2.24,0.26 0.61,0.42 0.8,-0.66 0.69,-0.08 1.1,-1.66 2.1,-1.5 1.71,-2.32 2.03,-0.14 3.61,0.63 0.39,0.31 0.85,-0.47 1.18,-0.11 v 0 l 1.21,0.79 1.79,1.83 3.26,1.57 2.03,-0.52 4.56,1.49 2.61,-0.68 0.75,1.74 -0.31,1.44 0.96,1.99 -0.18,3.01 z"
       inkscape:connector-curvature="0"
       style="fill:#cccccc;fill-opacity:1;stroke:#ffffff;stroke-width:0.5;stroke-opacity:1" />
    <path
       id="ID-JB"
       title="Jawa Barat"
       class="land"
       d="m 205.41,228.89 1.19,0.88 2.2,-0.5 0.91,0.26 2.1,3 2.67,0.75 0.86,0.94 0.42,-0.34 0.71,0.11 1.31,-0.79 0.62,0.02 0.12,0.42 0.61,-0.33 -0.05,0.76 4.11,1.68 1.42,-1.09 -0.42,-0.72 0.64,0.34 1.34,-0.03 0.63,0.45 0.22,-0.56 0.61,1.94 1.34,1.5 1.36,0.81 0.43,3.62 0.65,1.15 0.59,0.15 0.28,-0.34 0.48,0.26 0.08,0.57 1.17,0.28 0.93,-0.46 0.05,-0.37 -0.31,-0.11 0.23,-0.27 0.47,-0.03 v 0 l -0.07,1.47 -1.24,1.54 0.11,1.15 0.65,0.37 -0.31,0.59 -0.02,1.05 -0.94,0.31 -0.48,0.58 -1.26,-0.24 -0.98,0.48 0.26,1.35 -0.47,0.81 0.09,0.82 0.39,0.22 1.17,-0.09 0.51,0.48 0.66,1.07 -0.03,0.9 0.64,1.31 -0.37,0.96 1.18,0.98 v 0 l -0.68,0.43 -1.26,-0.36 -0.47,0.31 0.15,0.62 -0.49,-0.73 -1.97,0.17 -0.4,0.39 -0.08,1.12 -0.45,0.32 -2.31,0.24 -4.47,-0.77 -1.54,-0.52 -2.5,-0.11 -0.73,-0.85 -1.99,-0.37 -0.33,-0.73 -1.22,-0.87 -2.54,-1.1 -3.88,-0.44 -2.01,-0.53 -9.47,-0.66 -2.22,-1 -0.55,0.19 -0.48,-2.21 0.57,-0.91 0.88,-0.19 -0.14,-0.89 0.94,-0.59 0.63,-0.85 -0.07,-0.91 -0.51,-0.51 -1.23,-0.15 -0.78,0.49 v 0 l -0.08,-1.38 0.65,-0.69 0.08,-0.71 1.34,-0.96 -1.47,-1.45 0.09,-1.73 -0.56,-1.24 0.11,-0.96 0.87,-0.42 -0.44,-1.4 0.67,-0.64 0.33,0.1 0.21,0.65 0.54,-0.04 -0.21,-0.47 1.02,0.27 0.3,0.36 2.91,-0.02 0.18,-0.61 v 0 l 0.04,-0.15 v 0 l 0.52,-0.05 -0.12,0.83 0.9,-0.25 1.03,0.44 0.21,-0.95 -0.26,-0.93 0.63,-0.17 0.41,-0.86 0.06,-1.99 v 0 l 0.55,-0.31 -0.25,-0.41 0.42,-0.28 -0.38,-0.47 0.42,-0.92 -0.46,-0.25 0.6,-0.41 z"
       inkscape:connector-curvature="0"
       style="fill:#cccccc;fill-opacity:1;stroke:#ffffff;stroke-width:0.5;stroke-opacity:1" />
    <path
       id="ID-JI"
       title="Jawa Timur"
       class="land"
       d="m 312.78,272.41 1.51,0.08 0.48,0.3 -0.17,0.37 -1.01,0.24 -1.44,-0.14 0.03,-0.52 z m 42.62,-23.22 0.54,0.18 0.16,0.45 0.88,0.27 0.84,-1.05 -0.27,1.55 -1.09,0.28 -1.3,-0.64 -0.17,-0.33 0.27,-1.14 z m -23.8,1.19 -0.98,-0.13 -0.79,-0.55 -0.32,-0.62 0.23,-0.57 0.85,-0.26 0.49,0.34 0.74,1.51 z m 21.69,-3.62 0.72,0.7 -1.62,-0.24 -0.45,-0.64 0.26,-0.33 z m -28.43,-1.48 1.76,0.91 0.32,0.77 -3.02,0.85 -0.66,-0.08 1.02,0.76 1.44,0.08 0.23,0.66 -1.6,-0.19 -0.98,-0.98 -0.7,0.74 0.21,0.83 -3.59,-0.43 -0.6,0.38 -0.79,0.02 -0.83,1.68 -0.68,0.45 -0.15,-0.44 -0.76,-0.15 -4.7,0.09 -0.3,-0.49 -0.34,0.06 0.19,-0.49 -0.34,-0.3 -0.38,0.45 0.55,0.72 -0.93,0.09 -4.04,-1.15 -1.49,-0.09 -1.06,0.26 -0.45,-0.36 0.23,-0.94 h -0.28 l -0.26,-0.68 0.21,-0.47 0.6,0.15 1.23,-1.02 0.57,-1.23 1.06,-0.38 2.27,-0.17 8.42,0.32 7.18,-0.57 z m 22.26,-0.93 3.18,0.48 1.49,0.84 0.24,0.44 -0.44,0.6 -0.88,-0.23 -0.43,-0.43 -1.02,0.16 -0.33,-0.38 -1.01,0.14 1.16,1.11 -1.16,0.13 -0.45,-0.37 -0.45,0.6 -0.67,-0.64 0.47,-0.54 -1.15,0.01 -0.14,-0.31 0.18,-0.62 0.74,-0.41 -0.33,-0.51 z m -61.39,-1.01 1.96,0.48 2.07,-0.59 1.15,1.9 1.3,0.42 1.92,-0.48 3.26,-0.1 1.78,0.74 0.37,-0.46 -0.23,-0.29 0.23,-0.53 0.53,0.27 0.31,0.7 0.5,0.27 -0.38,0.45 0.32,1.01 0.61,0.45 0.09,0.55 -0.53,1.23 0.78,0.71 -0.26,0.86 0.89,0.22 0.17,-0.39 0.81,-0.09 1.45,1.54 -0.25,0.76 0.2,0.1 -0.1,2.43 -0.37,0.06 0.94,0.97 -0.14,0.86 0.44,0.54 0.79,0.28 0.24,-0.18 0.85,0.64 0.86,-0.06 0.74,0.84 1.43,0.73 1.39,-0.02 0.59,0.7 3.79,-1.46 2.87,0.61 0.75,-0.42 0.9,0.44 1.51,-0.95 1.26,0.31 1.07,-1.09 0.86,-0.43 0.56,0.39 0.75,1.3 1.6,0.12 0.65,-0.31 0.85,0.8 1.55,0.26 0.99,0.6 0.45,0.63 v 0.92 l -0.78,0.69 0.18,2.42 -0.81,2.23 0.1,0.74 -0.78,3 -0.05,0.58 0.42,0.84 -0.22,0.66 0.4,0.12 0.22,-1.49 0.62,2.76 0.48,0.58 0.48,-0.38 0.62,0.6 0.98,0.16 0.59,0.9 -0.25,0.78 -1.04,0.43 -1.63,-0.55 -1.55,-0.09 0.52,-0.79 -0.16,-0.57 -0.61,-0.62 -1.22,-0.55 -0.54,0.05 -0.27,0.75 -1.94,-0.51 -1.06,0.3 -0.55,-0.76 -0.3,0.37 -0.61,0.05 -0.23,-0.25 0.39,-0.36 -0.28,-0.33 -0.62,0.34 -1.42,-0.46 0.02,-0.41 -0.46,0.31 -0.18,-0.96 -1.42,0.61 -0.06,-0.73 -0.73,0.23 -0.79,-0.92 -0.83,-0.1 -0.12,-0.25 -0.79,0.08 -0.78,-0.37 -0.02,-0.41 -0.37,-0.16 -1.2,0.42 -0.94,-1.32 -1.73,-0.76 -3.55,0.39 -1.02,0.6 -0.86,1.03 -3.65,0.5 0.08,0.5 -0.39,0.13 -2.28,-0.96 -2.93,-0.46 -1.59,-0.83 -0.59,0.31 -1.18,-0.39 -2.53,-0.09 -1.84,-0.69 v 0.34 h -0.78 l -0.71,-0.59 -0.34,0.22 -1.12,-0.23 0.09,1.06 -0.31,0.18 -0.33,-0.04 -0.11,-0.72 -0.34,0.01 0.12,0.52 -0.48,0.22 0.46,0.57 -0.5,0.13 -1.21,-0.39 0.08,-0.53 -0.74,0.22 -0.61,-0.5 -0.24,0.46 -1.29,-0.31 -0.17,-0.78 -0.33,-0.2 -0.66,0.37 -2.5,-0.53 -0.52,0.35 -1.24,0.11 -0.83,-0.58 -0.04,-0.34 -0.28,-0.02 -0.08,0.45 -1,0.11 -1.96,-0.65 v 0 l 0.13,-1.73 0.7,-0.92 1.26,0.33 0.84,-0.61 0.55,0.31 0.44,-0.7 0.16,-1.55 0.82,-0.34 0.07,0.28 0.98,0.18 1.11,-1.62 -0.58,-1.31 0.1,-0.56 -0.96,0.04 -0.83,-0.68 0.21,-1.77 -0.64,-0.42 -0.16,-1.44 -0.56,-1.35 0.46,-0.97 0.1,-1.74 1.11,-0.31 0.46,0.56 3.69,1.62 0.09,-0.27 -0.3,-0.15 0.16,-0.55 h -0.46 l 0.36,-0.89 1.63,-0.7 1.33,-1.98 0.13,-2.18 -0.98,-0.67 0.7,-0.68 0.24,-1.35 0.67,-0.09 0.1,-0.82 0.54,-0.37 v 0 z m 16.67,-17.98 0.39,0.1 0.25,0.84 -0.18,0.82 -0.76,0.39 -1.63,-0.01 -0.29,-0.52 0.27,-0.89 1.63,-1.02 z"
       inkscape:connector-curvature="0"
       style="fill:#cccccc;fill-opacity:1;stroke:#ffffff;stroke-width:0.5;stroke-opacity:1" />
    <path
       id="ID-JK"
       title="Jakarta Raya"
       class="land"
       d="m 173.73,239.14 -0.4,1.83 -0.64,0.23 -0.42,0.57 -0.21,-0.28 0.42,-0.85 -0.33,-0.26 0.02,-0.42 -0.82,0.52 -0.05,0.31 -0.26,-0.16 0.28,-0.59 0.99,-0.75 z m 25.57,-7.41 1.8,0.34 0.73,-0.41 1.4,-0.09 v 0 l -0.06,1.98 -0.41,0.86 -0.64,0.17 0.27,0.93 -0.21,0.95 -1.03,-0.44 -0.9,0.25 0.13,-0.83 -0.53,0.06 v 0 0 0 l -0.6,-1.49 -0.39,-0.08 0.02,-0.66 -0.61,-0.33 0.03,-1.12 0.6,-0.26 v 0 z"
       inkscape:connector-curvature="0"
       style="fill:#cccccc;fill-opacity:1;stroke:#ffffff;stroke-width:0.5;stroke-opacity:1" />
    <path
       id="ID-JT"
       title="Jawa Tengah"
       class="land"
       d="m 284.95,243.04 -0.54,0.37 -0.11,0.82 -0.66,0.09 -0.24,1.35 -0.7,0.68 0.98,0.67 -0.13,2.18 -1.34,1.98 -1.63,0.69 -0.35,0.89 h 0.46 l -0.17,0.55 0.3,0.15 -0.09,0.27 -3.69,-1.62 -0.46,-0.56 -1.11,0.31 -0.11,1.74 -0.46,0.96 0.57,1.35 0.16,1.44 0.64,0.42 -0.21,1.77 0.83,0.69 0.96,-0.05 -0.1,0.57 0.58,1.3 -1.11,1.63 -0.98,-0.18 -0.08,-0.29 -0.81,0.35 -0.16,1.54 -0.45,0.7 -0.55,-0.31 -0.84,0.61 -1.27,-0.33 -0.69,0.92 -0.13,1.73 v 0 l -1.19,-0.29 v 0 l 0.04,-0.5 -0.38,0.02 0.24,-0.61 -0.54,0.37 -0.23,-0.18 0.05,-0.75 -0.57,-1.61 0.55,-3.38 -0.29,-0.17 -0.24,0.27 -0.69,-0.59 -0.58,0.27 -0.19,-0.33 -1.48,0.32 -0.21,-0.34 -0.59,0.14 -0.75,-0.46 -0.81,-3.89 -2.39,1.88 -0.57,0.77 -0.43,-0.9 -2.16,0.15 0.02,1.59 -1.2,1.27 -0.31,1.28 -0.58,-0.03 v 0 l -5.31,-1.61 -3.8,-0.71 -1.19,0.26 -0.46,-0.34 0.17,-0.5 -1.87,-0.42 -3.85,-0.11 -0.75,0.65 -0.09,0.38 0.59,0.31 -0.19,0.24 -4.21,-0.71 0.01,-0.57 -0.25,-0.08 1.34,-0.77 -1.05,0.21 v 0 l -1.18,-0.98 0.37,-0.96 -0.64,-1.31 0.03,-0.9 -0.66,-1.07 -0.51,-0.48 -1.17,0.09 -0.39,-0.22 -0.09,-0.82 0.47,-0.81 -0.26,-1.35 0.98,-0.48 1.26,0.24 0.48,-0.58 0.94,-0.31 0.02,-1.05 0.31,-0.59 -0.65,-0.37 -0.11,-1.15 1.24,-1.54 0.07,-1.47 v 0 0.5 l 0.54,0.5 1.63,0.47 0.24,-0.4 1.34,-0.42 0.34,-0.39 0.14,0.89 0.66,0.62 2.55,0.46 2.79,-0.39 1.72,-1.22 0.96,1.02 1.48,0.17 3.75,1.21 2.28,0.02 2.33,-0.77 0.48,-0.52 0.76,0.24 0.5,0.82 1.2,0.59 1.01,0.31 1.13,-0.25 0.12,0.23 0.61,-0.23 0.69,-1.85 0.97,-1.25 -0.55,-0.04 -0.15,-0.23 0.4,0.07 -0.25,-0.46 0.62,0.08 1.04,-1.14 0.15,-1.85 0.55,-0.62 -0.29,-0.32 0.98,-0.96 3.15,-0.78 2.42,0.4 1.03,3.09 0.65,0.86 1.73,0.6 2.31,0.23 1.4,-0.61 0.18,-0.49 0.49,-0.27 1.37,0.41 z"
       inkscape:connector-curvature="0"
       style="fill:#cccccc;fill-opacity:1;stroke:#ffffff;stroke-width:0.5;stroke-opacity:1" />
    <path
       id="ID-KB"
       title="Kalimantan Barat"
       class="land"
       d="m 235.75,155.4 -0.39,-0.07 -0.58,-1.45 0.15,-0.3 1.59,-0.47 0.62,0.14 0.55,0.61 -0.3,0.89 z m 11.81,-11.54 1.58,-0.24 0.85,0.59 0.67,-0.54 0.47,0.24 0.64,2.41 -5.01,2.89 -1.31,-0.43 -0.44,-0.45 0.73,-1.12 0.37,-2.63 0.75,-1.05 z m 1.94,-52.76 -0.5,1.38 -0.67,0.97 -0.6,0.07 -0.06,0.48 0.17,0.65 0.85,0.94 1.2,0.3 0.15,0.35 -0.42,2.14 0.3,0.65 2.17,1.96 0.83,1.29 1.77,0.25 0.42,1.69 1.49,0.74 0.35,0.87 0.43,0.35 1.32,0.07 1.5,2.31 0.32,0.97 1.95,0.25 0.9,1.37 1.55,0.7 1.27,-0.05 0.4,-0.67 0.45,0.45 0.45,-0.02 2.83,-1.25 0.9,-1.14 3.85,-0.5 1.95,-0.57 2.57,1.19 1.2,-0.32 0.77,0.12 0.7,1.17 0.32,-0.55 1.65,-0.89 1.27,0.5 0.58,-0.17 1.7,0.35 0.32,-0.77 1.35,-1.39 3.22,-0.22 0.37,-2.73 0.85,-0.84 0.05,-0.65 -0.42,-0.65 0.5,-0.55 1.7,-0.79 1.57,-0.35 1.65,-0.94 2.9,0.37 1.65,-0.12 0.9,0.42 1.12,-0.82 2.37,0.27 0.65,0.7 -1.62,1.96 0.75,0.07 1.35,-0.45 0.37,0.05 0.38,0.67 0.75,0.22 2.37,0.05 1.8,1.59 2.12,-0.55 0.67,0.3 0.75,1.34 0.32,0.1 2.92,-1.44 0.23,-1.22 1.92,-0.79 0.4,-0.45 3.05,-0.32 1.17,0.93 v 0 l -0.03,0.01 v 0 l -0.82,0.42 -0.12,1.72 0.21,0.18 -0.33,0.42 -0.21,1.39 -1.37,0.57 -1,-0.09 -0.52,0.42 -0.09,0.66 -0.97,0.39 -0.09,0.36 0.46,0.72 -0.79,1.3 0.85,1.48 -0.52,0.63 -0.12,1.18 -0.67,0.27 -0.06,0.78 v 0 l -0.51,0.29 -0.23,0.71 -1.11,1.27 -1.08,0.42 -0.27,1.09 -1.31,0.76 -1.71,1.77 -0.92,0.56 -1.38,-0.26 -1.37,0.58 1,1.2 1.55,0.82 -0.15,1.34 0.55,0.6 -0.44,1.14 0.44,0.27 -0.36,0.79 -0.44,0.26 0.34,0.2 -0.08,0.33 -0.36,0.07 -0.84,1.09 -0.85,0.18 -1.44,1.78 0.78,0.71 0.19,0.78 -0.82,1.29 -0.56,-0.56 -0.49,-0.01 -0.14,-0.35 -1.36,0.87 -1.33,-0.14 -1.77,0.73 -0.67,0.63 -1.85,0.1 -0.08,0.86 -0.74,0.03 -0.25,0.42 -0.89,0.03 -0.6,0.56 -1.01,0.27 -0.85,-0.16 -0.31,0.69 -0.37,-0.26 -0.01,-0.61 -0.37,-0.14 -1.34,0.75 -0.41,-0.18 -0.36,0.44 -1.05,-1.69 -0.89,-0.31 -0.82,1.14 0.14,0.79 -2.23,-0.42 -0.19,0.18 0.25,1.43 -1.21,0.34 -0.86,-0.68 -0.14,0.86 0.29,0.76 -0.67,-0.15 -0.78,0.9 -1.01,-0.07 -1.92,1.13 -0.59,0.04 -0.3,0.37 0.18,0.69 -0.94,0.63 -0.27,0.54 0.31,0.64 -0.26,0.48 0.33,0.29 -0.12,0.3 -2.84,0.65 -0.12,0.54 h -0.3 l -0.36,0.75 -0.63,0.33 -0.75,1.4 -1.11,-0.22 -0.12,0.53 -0.38,-0.14 0.05,1.44 -0.63,-0.79 -0.82,0.49 0.33,0.84 -0.81,0.22 -0.37,-0.42 -0.78,0.45 -0.49,-0.39 -2.15,1.56 0.04,0.78 0.44,0.11 0.44,0.63 1.14,-0.86 0.51,0.68 0.12,1.2 -0.63,1.16 -0.03,0.64 0.33,0.41 -0.38,0.79 0.49,0.65 1.45,0.14 -0.08,0.82 -0.7,0.59 0.64,1.52 -0.78,1.24 0.69,1.13 0.52,1.82 0.62,3.37 -0.33,0.82 0.79,0.26 0.15,0.45 -0.52,0.91 -2.36,0.82 -0.15,0.57 -0.62,0.52 -1.18,0.2 -1.99,0.89 -0.72,1.22 v 0 L 267,179 l -0.34,-0.14 -0.03,-1.83 -0.37,-0.87 -0.47,-0.57 -0.64,-0.07 -2.39,0.97 -1.95,1.6 -0.67,-0.37 -0.5,-1.5 0.64,-1.67 -0.75,-0.66 -0.18,-1.66 -1.26,-0.37 0.67,-0.8 0.25,-1.26 -1.04,-3.8 -0.73,-0.87 0.54,-3.25 -0.7,-1.8 -2.36,-1.2 -0.78,-0.75 0.19,-0.92 1.34,-0.79 0.69,-1.2 0.65,-3.33 -0.2,-2.26 -0.87,-0.9 -0.8,-0.18 -0.87,-1.1 0.52,-1.4 -1.92,-0.63 -1.17,-1.61 -0.67,-0.41 -0.73,0.49 -1.13,-0.75 -0.71,-1.03 -2.28,-0.82 -0.48,0.12 0.2,0.84 -0.52,0.49 -1.72,-0.57 -0.56,-0.57 -0.46,-0.89 0.2,-2.6 0.81,0.49 1.94,0.37 1.05,0.63 0.02,-0.51 -0.97,-0.73 -0.87,-0.03 -0.23,-0.46 0.3,-1.13 -1.82,0.16 -1.68,-0.6 -0.72,-0.81 -1.41,-4.52 0.34,-0.59 0.64,-0.13 -0.17,-0.81 1.13,-1.79 0.38,-1.61 -0.2,-1.18 -0.84,-1.89 -1.1,-1.16 -2.33,-0.55 0.48,-1.57 v -0.52 l -0.71,-0.84 0.47,-2.12 -0.27,-0.92 -0.73,-0.79 0.25,-0.87 -0.75,-0.89 0.15,-0.43 1.21,-0.6 0.67,-0.69 0.39,-1.14 -1.38,-3.2 0.13,-0.2 0.73,0.17 v -0.76 l 1.33,-1.85 0.23,-0.79 -0.2,-1.26 0.5,-1.59 3.49,-2.62 0.5,-1.55 0.7,-0.96 -0.13,-1.92 1.85,-0.19 0.78,-0.64 1.69,-0.03 z m -13.97,-13.37 -1.14,-0.67 0.92,-0.77 0.31,-1.05 0.48,-0.17 0.45,0.43 -0.18,1.49 z m -53.61,0.22 -0.64,-0.25 -0.33,-2.69 0.3,-0.92 2.55,1.42 -0.61,1.34 z m 44.48,-14.45 -2.29,0.48 -1.46,-0.81 0.6,-0.84 1.25,-0.91 -2.42,-0.96 -0.98,-1.85 -0.23,-1.12 0.59,-0.71 0.74,-0.21 1.96,-2.05 1.21,0.28 0.33,1.32 2.2,2.17 0.16,1.79 -0.22,0.78 z"
       inkscape:connector-curvature="0"
       style="fill:#cccccc;fill-opacity:1;stroke:#ffffff;stroke-width:0.5;stroke-opacity:1" />
    <path
       id="ID-KI"
       title="Kalimantan Timur"
       class="land"
       d="m 393.51,84.34 1.44,1.57 0.74,1.23 -0.02,0.43 -0.61,0.92 -2.71,2.45 -1.3,-0.41 0.68,1.15 0.06,2.77 4.55,3.96 4.93,2.9 0.53,1.35 1.32,0.61 1.19,0.09 3.1,2.66 1.11,1.81 2.69,0.85 0.25,1.11 -1.29,1.49 -2.42,1.67 -2.04,-0.77 -2.97,0.28 -2.79,-0.25 -3.08,-0.58 -1.63,-0.74 -0.7,-0.72 -0.67,-1.8 -0.67,-0.57 -1.05,-0.31 -0.03,0.44 2.4,4.1 0.09,0.74 -0.61,0.44 -1.67,-0.9 -1.59,0.51 -1.2,1.17 -0.36,0.77 -0.01,0.91 -1.71,3.53 -0.91,0.66 -0.81,1.73 -0.95,3.33 1.06,2.34 -0.82,1.1 -0.79,2.47 0.61,1.75 -0.45,3.12 2.57,-1.67 0.66,-0.05 -0.99,3.86 0.85,2.21 -2.93,1.46 -2.14,-0.12 -0.7,-0.83 -0.42,0.26 -0.14,0.8 -1.95,2.35 -2.05,3.34 -1.78,0.95 -1.84,0.33 -1.32,-2.97 0.31,-1.12 -0.32,-0.14 -0.47,1.83 0.7,0.7 0.59,1.31 -0.55,2 -2.25,0.78 -1.5,1.05 -0.04,0.92 0.49,0.79 -0.44,0.88 -2.37,0.94 -3.09,1.71 0.65,0.58 2.11,-0.8 1.07,0.29 0.22,4.51 -0.39,0.49 -1.34,0.66 2.13,0.28 0.41,-0.4 0.29,1.08 1.42,0.38 -0.81,3.86 v 0 l -2.43,-0.9 -2.7,-0.03 -1.28,-0.42 -2.73,-0.15 -0.92,-0.56 -2.35,1.62 -0.28,-0.53 0.03,-1.02 -0.71,-1.73 0.18,-1.52 0.36,-0.56 -0.75,-0.5 -0.5,0.14 -0.53,-0.24 0.21,-0.6 -0.28,-0.74 0.39,-1.42 -0.14,-1.87 -0.85,-1.3 0.03,-0.81 -0.85,-0.89 0.14,-0.7 -0.28,-0.39 -1.21,0.14 -0.18,-0.35 1.96,-2.29 0.32,0.07 -0.15,0.77 0.25,0.07 1.07,-1.27 0.25,-0.99 v 0 l -0.01,0.01 v 0 l 0.23,-1.3 1.39,-1.45 -0.76,-0.66 -0.66,0.4 -0.23,-0.14 -0.19,-0.69 -0.74,-0.58 -0.42,0.05 -0.44,-1.24 -1.32,-0.84 -1.39,-1.67 -1.68,-0.3 -0.41,-1.01 -0.25,-3.09 -0.5,-0.43 -0.39,-1.03 -0.95,-0.8 0.21,-1.09 -0.37,-0.1 -0.19,-1.46 0.42,-0.08 -0.25,-0.93 0.55,-0.95 v -0.67 l 0.86,-0.84 -0.36,-1.12 -2.42,1.17 -0.29,0.66 -0.94,0.24 -0.76,0.66 -0.9,-0.24 -1.02,0.19 -0.68,-3.93 -0.93,-0.64 -0.59,0.11 -0.29,-0.5 0.29,-1.3 0.45,-0.83 0.58,-0.27 0.53,-1.13 0.67,-0.43 0.38,0.27 1.04,-0.21 0.51,0.5 1.54,-1.54 0.05,-0.71 -0.65,-0.57 -1.61,-2.67 -0.68,-2.31 -0.96,-0.51 -0.8,0.75 0.26,0.71 -1.2,-0.87 -0.89,0.17 -0.82,0.6 -0.87,-0.04 -1.38,1.29 -0.79,0.03 -0.21,1.02 -1,0.03 -0.67,0.45 0.06,0.67 -0.21,0.06 -1.94,-0.73 h -1.97 l -0.1,-0.42 -0.63,-0.33 0.33,-0.54 -0.33,-0.97 -0.73,-0.45 -3.67,0.96 -0.91,-0.33 v 0 l 0.06,-0.78 0.67,-0.27 0.12,-1.18 0.52,-0.63 -0.85,-1.48 0.79,-1.29 -0.46,-0.73 0.09,-0.36 0.97,-0.39 0.1,-0.66 0.51,-0.43 1,0.09 1.37,-0.57 0.21,-1.38 0.33,-0.43 -0.21,-0.18 0.12,-1.72 0.82,-0.42 v 0 l 0.37,-0.15 v 0 l 0.24,-0.45 2.28,-0.76 0.57,-0.54 2.58,1.51 0.61,-0.55 v 0 l 1.66,1.39 1.59,0.46 0.78,0.87 0.41,1.28 0.82,-0.46 0.72,0.1 0.52,0.21 0.87,1.48 1.13,0.25 0.88,-0.97 2.67,0.36 0.83,-0.92 1.03,0.2 1.28,-1.17 0.26,-1.59 0.41,-0.41 1.96,0.06 2.31,-0.87 2.32,-0.05 1.03,-0.87 0.56,-1.18 2.47,-2.91 1.29,-2.46 -0.21,-1.84 2.47,-2.2 0.41,-3.73 1.19,-1.64 0.56,-1.64 0.52,-0.05 1.34,0.87 0.3,0.72 1.34,0.25 1.03,-0.3 1.75,-1.13 2.26,-0.77 2.01,-1.17 2.73,0.25 2.47,-0.41 0.51,1.13 0.62,0.46 1.8,0.72 1.08,-0.26 1.6,1.69 1.38,0.51 0.37,0.05 1.28,-0.77 1.29,-0.15 z"
       inkscape:connector-curvature="0"
       style="fill:#cccccc;fill-opacity:1;stroke:#ffffff;stroke-width:0.5;stroke-opacity:1" />
    <path
       id="ID-KR"
       title="Kepulauan Riau"
       class="land"
       d="m 160.19,132.56 0.89,0.49 1.06,1.93 -1.03,0.83 -0.54,1.88 h -0.54 l -0.86,-0.88 -0.49,0.2 -0.15,1.27 -0.49,0.2 -0.71,-2.52 -1.18,-0.9 0.44,-1.52 0.74,-0.22 0.07,-0.78 0.22,0.76 -0.44,0.42 0.42,0.64 0.15,-0.86 0.98,0.27 0.49,-0.32 0.17,-0.78 z m 5.26,-2.37 h 0.52 l -0.02,-0.9 0.25,-0.2 1.18,1.59 0.94,0.76 0.76,0.07 0.07,0.44 -1.45,-0.44 -0.29,0.27 0.44,0.51 -0.12,0.24 -0.91,-0.46 -0.39,0.12 -2.49,-1.93 -0.89,0.15 -0.89,0.61 -0.54,-0.1 -0.66,0.51 -0.52,-0.59 -0.71,0.15 -0.54,-0.46 0.02,-0.64 1.38,-0.95 -0.17,-2.27 0.81,-0.37 1.67,1.08 1.65,1.81 0.22,0.71 z m -6.92,-6.01 0.17,0.22 0.07,-0.44 0.52,0.05 1.92,2.05 -0.98,0.42 -0.49,-0.29 -1.28,-1.42 -0.91,-1.56 z m 2.41,-1.54 1.75,2.15 1.33,1.1 -0.07,0.56 -2.21,-1.54 -1.62,-1.83 -0.02,-0.51 z m -2.01,-1.59 0.57,0.39 -0.57,0.17 0.34,0.34 -0.86,-0.34 0.07,0.27 -0.44,0.46 -0.3,-0.07 -0.47,-0.83 -0.22,0.07 -0.07,-0.64 0.71,0.2 0.07,-0.44 -0.66,-0.54 z m -2.39,-7.91 -0.17,0.83 0.7,0.53 -0.8,0.34 0.93,0.18 0.07,-0.32 0.39,0.29 -0.2,0.29 -0.64,-0.15 -0.12,1.03 -0.57,-0.46 -1.3,-2.2 1.45,-0.51 z m -6.01,0.42 -0.1,0.17 -1.53,-1.54 -0.3,-0.93 1.65,1 0.54,0.93 z m -1.5,-0.25 -0.22,0.49 -0.17,-0.42 -1.21,-0.61 -0.47,-1.2 0.59,-0.44 1.13,1.27 z m -6.18,-1.89 0.11,0.64 1.14,1.32 -0.2,0.35 -0.98,-0.75 0.41,0.72 -0.17,0.79 0.31,0.37 -0.39,0.97 -0.52,0.2 -0.24,-0.37 -0.72,-0.06 -0.92,-1.34 -0.18,-1.8 0.37,-1.21 0.76,0.44 -0.09,-1.12 0.55,-0.42 0.66,0.35 z m 11.06,-1.01 0.32,0.1 0.15,-0.44 0.42,-0.05 0.32,0.39 -0.15,0.51 -0.3,0.07 0.1,0.51 0.79,0.07 0.79,0.54 -1.62,1.05 -0.37,-1.2 -0.91,-0.22 -0.02,-0.95 -0.2,-0.17 -0.34,0.32 -0.27,-0.24 0.17,-0.66 0.49,-0.1 z m -5.47,-0.3 -0.91,-0.78 0.42,-0.66 0.49,0.49 z m 1.18,-1.93 -0.05,0.27 0.84,0.86 1.23,0.66 0.05,0.49 -0.42,0.1 -0.17,0.73 -2.12,-1.37 0.2,-0.78 -0.64,-0.61 0.12,-0.29 0.34,0.17 0.37,-0.24 v -0.49 z m -8.03,-1.12 -0.07,0.24 -0.35,-0.11 -0.06,0.75 1.11,1.78 -0.87,-0.04 -1.4,-0.83 0.3,-1.38 0.7,-0.2 0.33,-0.57 z m 12.78,-0.03 -0.17,1.91 -0.74,0.05 0.02,0.88 -0.84,-0.22 -0.25,0.22 -2.12,-0.93 -0.27,-1.3 0.4,-0.06 -0.08,0.55 0.37,-0.02 -0.27,-1.05 1.21,0.12 0.17,-0.81 0.37,-0.07 0.91,0.81 0.17,-0.24 -0.25,-0.51 0.57,-0.24 z m 7.46,-0.54 0.15,0.66 0.74,0.44 0.47,1.2 -0.25,1.22 0.27,1 -0.27,0.32 0.86,0.05 -0.89,1.54 -1.53,-0.22 -1.33,-0.86 -0.94,-0.07 0.71,-0.34 -0.94,-1.22 0.22,-0.34 0.57,0.05 -0.2,-0.44 0.42,-0.51 -0.44,-0.42 -0.79,0.42 -0.15,0.71 -0.71,-0.54 -0.39,0.49 -1.18,-0.07 -0.64,-0.93 -0.12,-0.44 0.52,-0.76 1.5,-0.24 -0.27,-0.76 0.39,-0.17 0.71,0.15 0.49,-0.34 1.75,0.49 1.21,-1 z"
       inkscape:connector-curvature="0"
       style="fill:#cccccc;fill-opacity:1;stroke:#ffffff;stroke-width:0.5;stroke-opacity:1" />
    <path
       id="ID-KS"
       title="Kalimantan Selatan"
       class="land"
       d="m 366.16,189.16 -0.17,0.2 -1.1,-1.78 0.65,-1.65 1.09,-1.14 0.2,1.04 z m -4.71,6.95 -0.56,0.16 -0.61,-0.27 0.45,-2.05 -0.06,-1.79 -0.9,-1.25 -0.23,-1.47 1.9,-5.56 2.45,-1.75 0.29,0.41 -0.36,2.29 0.27,2.65 0.82,3.98 -0.24,2.43 z m -6.34,-46.88 -0.25,0.99 -1.06,1.27 -0.25,-0.07 0.14,-0.78 -0.32,-0.07 -1.95,2.29 0.18,0.35 1.21,-0.14 0.28,0.39 -0.14,0.71 0.85,0.88 -0.04,0.81 0.85,1.31 0.14,1.87 -0.39,1.41 0.28,0.74 -0.21,0.6 0.53,0.25 0.5,-0.14 0.75,0.49 -0.35,0.56 -0.18,1.52 0.71,1.73 -0.04,1.02 0.28,0.53 2.34,-1.62 0.92,0.56 2.73,0.14 1.28,0.42 2.7,0.04 2.43,0.9 v 0 l -0.39,1.87 -0.52,0.66 -0.4,0.02 -0.28,-0.78 -0.76,-0.4 -1.98,0.4 -0.05,1.62 1.01,0.91 0.2,3.11 -0.33,0.85 -1.39,1.8 -0.73,0.21 -0.45,-1.55 -0.95,-1.65 -0.33,-0.05 -0.38,1.72 0.19,0.89 1.55,1.9 0.1,0.98 -0.77,0.39 -1.25,1.71 -1.52,2.87 -0.62,2.92 -2.36,0.51 -1.8,1.51 -13.96,5.6 -3.79,2.28 -1.24,0.16 -0.49,-0.96 -0.12,-8.15 -2.09,-2.71 -0.73,0.08 -1.54,-0.88 v 0 -0.91 l 0.78,-2.37 1.46,-2.29 0.39,-2.26 1.53,-3 1.35,-0.56 0.25,-0.85 1.21,-0.21 0.46,-0.6 0.32,-1.8 1.2,-1.32 0.18,-0.95 0.57,0.04 5.9,-4.27 0.71,0.25 0.6,-2.12 -0.71,-1.94 0.96,-0.74 0.25,-0.81 -0.67,-0.92 -0.11,-0.78 1.6,-6.1 1.99,-0.32 2.2,-0.99 0.5,0.11 0.99,-0.78 v 0 z"
       inkscape:connector-curvature="0"
       style="fill:#cccccc;fill-opacity:1;stroke:#ffffff;stroke-width:0.5;stroke-opacity:1" />
    <path
       id="ID-KT"
       title="Kalimantan Tengah"
       class="land"
       d="m 268.36,178.17 0.73,-1.22 1.98,-0.88 1.18,-0.21 0.62,-0.52 0.15,-0.57 2.36,-0.82 0.52,-0.91 -0.16,-0.45 -0.79,-0.26 0.33,-0.81 -0.62,-3.37 -0.52,-1.83 -0.68,-1.13 0.78,-1.24 -0.65,-1.52 0.7,-0.59 0.09,-0.81 -1.46,-0.14 -0.49,-0.65 0.38,-0.79 -0.32,-0.41 0.02,-0.64 0.63,-1.16 -0.12,-1.2 -0.51,-0.68 -1.13,0.86 -0.44,-0.63 -0.44,-0.11 -0.04,-0.77 2.15,-1.57 0.49,0.4 0.78,-0.45 0.37,0.42 0.81,-0.22 -0.33,-0.84 0.82,-0.49 0.63,0.79 -0.05,-1.45 0.38,0.14 0.13,-0.53 1.11,0.22 0.75,-1.4 0.63,-0.33 0.36,-0.75 h 0.3 l 0.12,-0.54 2.84,-0.66 0.12,-0.3 -0.33,-0.28 0.26,-0.48 -0.32,-0.64 0.28,-0.54 0.94,-0.63 -0.17,-0.69 0.3,-0.37 0.59,-0.04 1.91,-1.13 1.02,0.07 0.77,-0.9 0.68,0.15 -0.29,-0.76 0.14,-0.86 0.86,0.68 1.2,-0.34 -0.24,-1.42 0.19,-0.18 2.23,0.42 -0.14,-0.79 0.83,-1.14 0.89,0.31 1.05,1.69 0.36,-0.44 0.41,0.18 1.34,-0.75 0.37,0.14 0.01,0.61 0.37,0.26 0.32,-0.7 0.85,0.17 1.01,-0.27 0.6,-0.56 0.89,-0.03 0.25,-0.42 0.74,-0.03 0.08,-0.85 1.85,-0.1 0.67,-0.63 1.77,-0.73 1.33,0.14 1.36,-0.87 0.13,0.35 0.5,0.01 0.56,0.56 0.82,-1.29 -0.19,-0.78 -0.78,-0.71 1.43,-1.78 0.86,-0.18 0.83,-1.08 0.36,-0.07 0.08,-0.33 -0.34,-0.2 0.44,-0.26 0.35,-0.79 -0.44,-0.27 0.44,-1.15 -0.55,-0.59 0.16,-1.35 -1.55,-0.81 -1,-1.2 1.37,-0.58 1.38,0.25 0.92,-0.55 1.71,-1.77 1.32,-0.76 0.27,-1.09 1.08,-0.42 1.11,-1.27 0.23,-0.71 0.51,-0.29 v 0 l 0.91,0.33 3.67,-0.96 0.73,0.45 0.33,0.97 -0.33,0.54 0.63,0.33 0.1,0.42 h 1.97 l 1.94,0.73 0.21,-0.06 -0.06,-0.67 0.67,-0.45 1,-0.03 0.21,-1.02 0.79,-0.03 1.38,-1.29 0.87,0.04 0.82,-0.6 0.89,-0.17 1.2,0.87 -0.26,-0.71 0.8,-0.75 0.96,0.51 0.68,2.31 1.61,2.67 0.65,0.57 -0.05,0.71 -1.54,1.54 -0.51,-0.5 -1.04,0.21 -0.38,-0.27 -0.67,0.43 -0.53,1.13 -0.58,0.27 -0.45,0.83 -0.29,1.3 0.29,0.5 0.59,-0.11 0.93,0.64 0.68,3.93 1.02,-0.19 0.9,0.24 0.76,-0.66 0.94,-0.24 0.29,-0.66 2.42,-1.17 0.36,1.12 -0.86,0.84 v 0.67 l -0.55,0.95 0.25,0.93 -0.42,0.08 0.19,1.46 0.37,0.1 -0.21,1.09 0.95,0.8 0.39,1.03 0.5,0.43 0.25,3.09 0.41,1.01 1.68,0.3 1.39,1.67 1.32,0.84 0.44,1.24 0.42,-0.05 0.74,0.58 0.19,0.69 0.23,0.14 0.66,-0.4 0.76,0.66 -1.39,1.45 -0.23,1.3 v 0 l -0.35,0.31 v 0 l -0.99,0.78 -0.5,-0.11 -2.2,0.99 -1.99,0.32 -1.6,6.1 0.11,0.78 0.67,0.92 -0.25,0.81 -0.96,0.74 0.71,1.94 -0.6,2.12 -0.71,-0.25 -5.89,4.27 -0.57,-0.03 -0.18,0.95 -1.2,1.33 -0.32,1.8 -0.46,0.6 -1.21,0.21 -0.25,0.85 -1.35,0.56 -1.52,3 -0.39,2.26 -1.46,2.3 -0.78,2.36 v 0.91 0 l -2.42,-1.15 -1.86,-0.5 -1.22,0.09 -3.59,1.72 -2.65,0.25 -1.07,-0.65 0.49,-1.56 0.07,-1.58 -0.62,-1.44 -2.26,0.14 -0.62,1.09 -1.27,0.29 -2.09,-1.33 -3.12,-3.26 -0.52,-0.07 -1.47,1.6 -0.11,0.57 0.44,0.57 -0.3,1 -3.31,2.03 -1.88,1.55 -2.07,0.51 -1.98,-1.57 -1.93,-0.67 -1.04,-0.02 -1.45,0.56 -3.69,3.52 -1.02,0.4 -1.45,-0.6 0.65,-2.28 -0.47,-3.66 0.25,-2.62 -1.36,-2.43 -0.4,-1.6 -0.48,-0.07 0.07,0.8 -0.57,0.84 0.43,0.35 -0.1,0.45 -0.94,0.17 -1.54,1.1 -1.08,-1.27 -1.17,-0.64 h -1.48 l -4.27,2.28 -2.45,0.5 -2.18,-1.54 z"
       inkscape:connector-curvature="0"
       style="fill:#cccccc;fill-opacity:1;stroke:#ffffff;stroke-width:0.5;stroke-opacity:1" />
    <path
       id="ID-KU"
       title="Kalimantan Utara"
       class="land"
       d="m 388.19,70.24 -0.56,0.43 -1.29,-1.02 -0.47,-1.24 0.18,-0.63 1.46,-0.12 0.82,0.25 z m -4.73,-4.79 2.19,1.51 -0.54,0.47 -1.69,-0.74 -1.93,-0.1 -1.04,-0.85 0.08,-0.43 0.91,-0.38 z m 5.69,-7.4 -0.78,0.29 -1.19,-0.87 -0.12,-1.1 0.78,-0.85 0.49,0.05 1.25,1.01 0.1,0.47 z m 2.78,-3.31 0.43,0.19 0.42,2.01 -1.07,0.51 -4.13,-3.13 0.97,-0.99 0.51,-0.03 1,0.35 0.77,0.8 z m -37.96,1.44 0.37,-1.6 0.37,0.03 0.79,-0.91 0.54,0.4 0.41,-0.11 0.13,-0.57 0.72,-0.6 -0.02,-1.46 0.53,-0.19 0.33,0.57 1.51,0.3 1.02,1.2 0.59,-0.89 0.85,-0.33 0.28,-0.75 1.71,0.4 1.52,-0.35 1.17,0.97 0.21,0.61 0.59,-0.14 0.23,-0.54 0.84,0.09 -0.05,-0.62 0.54,-0.67 0.79,0.57 0.25,0.61 1.6,-0.17 0.54,-0.67 0.79,0.73 0.74,0.17 1.22,-0.61 1.95,0.77 0.34,-0.39 2.35,0.09 1.25,-0.57 3.02,2.15 0.64,1.01 1.21,0.34 0.89,-0.26 0.24,0.17 v 0 l -1.72,0.79 -1.56,-0.45 -0.17,0.74 1.35,0.54 2.64,2.22 -1.75,0.26 1.66,0.95 1.56,0.17 1.27,1.34 -0.21,0.9 1.06,0.32 -0.05,0.26 -1.2,1.12 -1.07,0.21 -3.17,0.23 -2.67,-0.38 -1.8,0.3 -0.93,0.94 0.03,0.41 0.56,0.87 1.48,0.93 1.26,-0.15 0.8,0.21 -0.26,1.37 1.76,0.92 -0.17,0.28 -2.12,0.51 -0.29,0.46 -0.97,0.17 -0.17,0.34 2.55,0.67 2.71,1.18 1.22,2.08 -0.3,2.87 1.83,0.67 0.58,2.38 2.78,2.74 v 0 l -0.69,0.59 -1.29,0.15 -1.29,0.77 -0.36,-0.05 -1.39,-0.51 -1.59,-1.69 -1.08,0.26 -1.8,-0.72 -0.62,-0.46 -0.51,-1.13 -2.47,0.41 -2.73,-0.26 -2.01,1.18 -2.26,0.77 -1.75,1.13 -1.03,0.31 -1.34,-0.26 -0.28,-0.71 -1.34,-0.87 -0.51,0.05 -0.57,1.64 -1.18,1.64 -0.41,3.73 -2.47,2.2 0.21,1.84 -1.29,2.45 -2.47,2.91 -0.57,1.18 -1.03,0.87 -2.32,0.05 -2.31,0.87 -1.96,-0.05 -0.41,0.41 -0.26,1.58 -1.29,1.18 -1.03,-0.2 -0.82,0.92 -2.68,-0.36 -0.87,0.97 -1.13,-0.26 -0.87,-1.48 -0.51,-0.2 -0.72,-0.1 -0.82,0.46 -0.41,-1.28 -0.77,-0.87 -1.59,-0.46 -1.66,-1.39 v 0 l 0.49,-0.81 -0.06,-1.06 0.8,-0.47 0.9,-1.22 -0.11,-2.3 0.42,-0.93 0.56,-0.16 0.54,0.25 0.45,-0.64 1.03,-0.45 -0.4,-0.81 0.72,-0.97 -0.51,-0.25 -0.76,0.34 -0.04,-1.41 -0.51,-0.48 0.32,-2.13 1.84,-0.2 0.78,-0.49 -0.29,-0.66 0.31,-0.63 0.67,0.11 0.94,-0.83 h 0.67 l 0.65,-1.01 1.36,-0.16 0.6,-0.5 0.07,-0.31 -1.25,-1.47 -0.99,0.31 -0.31,-0.47 0.4,-0.79 -0.23,-1.01 0.6,-0.52 0.18,-0.77 -0.72,-0.58 0.96,-0.77 0.25,-1.06 1.59,-1.06 0.34,-0.83 0.65,1.06 1.23,-0.09 0.81,-0.77 1.03,-0.14 0.31,-1.44 0.81,-0.67 -0.76,-0.9 0.42,-2.81 0.63,-1.26 0.34,0.02 0.4,0.63 0.4,-0.58 -0.58,-1.01 -0.67,-2.43 0.05,-1.55 0.7,-2.31 -0.96,-1.04 1.3,-0.65 0.67,-2.08 v 0 z"
       inkscape:connector-curvature="0"
       style="fill:#cccccc;fill-opacity:1;stroke:#ffffff;stroke-width:0.5;stroke-opacity:1" />
    <path
       id="ID-LA"
       title="Lampung"
       class="land"
       d="m 148.02,209.15 0.65,-0.05 0.05,0.51 0.43,0.03 0.38,0.48 v 0.54 l -0.43,0.62 1.1,0.72 0.46,-1.23 0.51,0.38 1.64,-0.38 1.18,0.56 1.51,-0.99 1.91,0.35 0.75,-1.29 -0.78,-0.97 -0.05,-0.83 -0.54,-0.32 0.27,-0.78 0.65,-0.64 -0.3,-2.71 0.62,-1.29 1.31,-1.15 0.62,0.05 2.5,-1.55 0.62,0.56 2.21,0.11 1.48,-0.24 0.08,-0.35 1.13,-0.56 1.24,-0.21 1,-0.94 0.32,-0.96 0.67,-0.38 -0.3,-0.35 0.43,-0.43 0.27,-1.07 0.38,0.05 0.11,-0.51 0.54,-0.27 0.67,0.24 0.7,-0.64 0.22,-0.48 -0.27,-0.62 0.86,-1.34 0.51,1.21 0.86,-0.35 0.32,0.08 0.11,0.72 1.56,0.21 -0.13,0.8 v 0 h 0.54 v 0 l 0.35,0.27 -0.05,0.46 0.67,0.08 0.11,0.32 h -0.38 l 0.75,0.94 -0.46,0.83 0.94,-0.13 -0.22,0.59 h 0.65 l 0.38,0.94 0.75,0.08 0.57,-0.46 0.8,0.82 v 0 l -0.19,2.7 1.5,2.74 v 1.25 l -0.34,0.83 0.51,0.84 -0.6,1.22 -0.36,1.87 0.78,1.86 -0.53,0.48 -0.27,1.24 0.15,3.61 -0.78,1.39 -0.08,3.78 0.21,0.73 -0.58,2.13 0.07,1.18 -0.36,1.05 -1.06,1.23 -0.16,-0.97 -2.02,-0.49 -0.09,-1.59 -0.58,-0.55 h -0.53 l -1.58,-1.01 -0.83,-0.78 -1.42,-2.43 -0.33,-0.07 -0.51,0.46 -0.13,2.04 -0.73,-0.25 -0.6,0.41 0.4,0.81 0.32,-0.01 -0.48,0.34 0.65,0.88 -0.73,0.12 -0.37,0.4 0.26,0.46 0.75,-0.08 -0.51,0.53 -0.57,0.1 -3.35,-1.62 -3.02,-1.91 -1.53,-1.53 -1.6,-0.29 -0.86,0.4 -0.46,0.4 2.21,2.83 -0.18,0.46 1.18,1.77 0.33,1.46 -0.09,0.2 -2.48,0.13 -0.44,-0.44 0.31,-0.16 -0.18,-0.73 -2.12,-1.93 -0.41,-0.72 -2.02,-1.17 0.33,-0.46 -0.94,-1.15 -2.96,-2.09 -1.48,-1.71 -0.12,-1.03 -1.63,-0.59 -0.04,-0.42 0.53,-0.55 -0.55,-0.95 -0.6,-0.22 -1.46,-1.37 -0.69,0.13 0.07,-0.71 -0.78,-0.66 -0.71,0.04 -1.17,-0.68 v 0 l 0.18,-0.53 1.83,-1.07 0.13,-0.51 0.92,-0.05 v 0 z"
       inkscape:connector-curvature="0"
       style="fill:#cccccc;fill-opacity:1;stroke:#ffffff;stroke-width:0.5;stroke-opacity:1" />
    <path
       id="ID-MA"
       title="Maluku"
       class="land"
       d="m 584.56,269.25 -1.56,-0.07 -1.47,-0.72 -0.16,-0.33 1.05,-0.38 1.36,0.07 1.03,0.51 0.06,0.52 z m -20.27,-2.88 1.84,0.65 h 2.6 l 0.47,0.52 -1.77,1.72 -3.85,-1.42 -0.68,-1.31 z m 51.21,4.36 -0.67,0.05 -0.01,-0.23 1.59,-1.72 1.23,-0.67 1.49,-1.98 2.85,0.71 -0.63,0.62 -3.16,1.22 -1.08,0.77 -0.15,0.44 z m -17.94,-5.06 -1.26,-0.3 -1.91,-2.34 0.01,-1.12 0.38,-0.68 1.63,-0.22 2.44,0.87 0.34,1.44 z m -52.72,-6.75 0.81,0.01 0.43,1.34 -1.41,0.06 -1.68,0.51 -1.87,1.83 -1.47,0.78 -6.17,-0.8 -2.3,0.48 -2.23,1.79 -0.48,-0.19 0.7,-2.67 2.76,-3.36 3.69,1.09 2.65,-0.46 1.24,-1.07 3.59,-1.17 0.29,0.82 z m 11.67,-0.35 -0.6,0.06 -0.24,-0.41 0.37,-2 0.36,-0.23 1.69,0.55 0.06,0.26 -0.13,0.7 z m 63.64,-2.43 -1.34,-0.42 -0.23,-0.53 0.31,-0.48 3.07,-0.29 z m 11.54,-5.24 -1.11,0.24 -0.61,0.5 0.67,3.98 -0.85,2.56 -1,1.3 -2.96,2.18 -0.99,1.6 -0.26,1.6 -0.46,0.24 -3.36,-0.52 -0.42,-2.3 1.82,-3.14 -0.23,-0.51 1.05,-2.85 2.57,-2.05 1.23,-1.49 1.36,-2.4 0.76,-0.41 1.3,-0.14 0.98,0.49 z m 3.24,-1.76 1.05,1.98 -0.45,0.57 -0.84,-0.58 -0.41,-0.89 -0.99,-0.18 -1.17,0.26 -0.65,-0.32 0.39,-0.68 z m -56.61,1.75 -0.49,0.17 -1.51,-0.94 -0.17,-0.62 1.54,-1.1 1.39,0.76 z m 108.06,-14.83 -1.65,3.67 -0.73,-0.17 0.4,1.42 -0.66,0.2 -0.79,1.72 -0.83,0.5 -0.56,-0.43 0.07,-0.46 0.5,-0.46 0.79,-2.21 -0.53,-0.26 -0.23,-1.39 1.39,-0.73 0.13,-0.96 0.69,-0.33 1.29,-1.32 0.83,0.33 z m -36.79,-7.18 -0.61,0.25 -1.26,-0.69 -0.18,-3.39 -0.37,-1.68 1.12,-0.32 1.81,3.45 v 1.13 z m 33.85,-4.39 0.5,2.11 -0.63,0.13 v 0.3 l 1.32,0.66 -0.03,0.33 -0.56,0.36 -0.76,-0.33 0.36,1.42 -0.63,0.07 -0.63,-0.5 -0.17,0.43 2.05,1.95 -0.66,3.24 -0.66,1.12 -1.98,0.76 0.36,0.99 0.53,0.33 -0.07,0.5 -1.09,0.99 -0.89,-0.26 -0.33,0.17 -0.23,0.56 0.1,0.33 0.5,-0.17 -0.03,0.5 -0.63,1.02 -2.02,1.98 -0.03,0.66 -0.5,0.63 -2.35,1.22 -0.46,-0.05 -0.36,-0.89 -0.33,-0.3 h -0.69 l -0.76,-1.32 0.59,-2.08 0.23,-3.11 0.56,-2.18 -0.56,-3.27 0.66,-0.07 -0.43,-1.19 0.23,-1.06 0.43,-0.36 0.17,0.5 1.26,-0.26 0.3,0.83 0.79,-0.56 0.53,-1.32 -0.46,-0.79 1.42,-1.98 -0.36,-0.36 -0.5,0.3 -0.73,-0.59 -0.83,-0.1 -0.5,-0.53 0.07,-0.33 0.63,-0.69 1.36,0.66 1.29,-0.99 0.63,-1.65 0.76,-0.5 0.03,-1.95 0.89,-1.22 0.63,-0.17 1.82,2.28 0.46,0.99 0.03,1.12 0.83,1.06 -0.07,0.5 z m -30.73,3.18 -2,2.33 1.6,-5.32 0.93,-1.16 2.22,-5.58 0.98,-0.09 0.33,0.7 -1.35,4.39 -1.39,1.15 -1.17,1.6 -0.28,1.01 z m -76.67,-38.78 -2.08,0.41 0.12,-1.69 0.53,-0.39 1.21,0.12 0.92,0.91 z m 1.74,-1.65 0.82,0.29 0.36,-0.65 0.26,0.03 0.29,1.97 -1.67,0.12 -1.23,-1.99 0.49,-0.23 z m -4.99,1.8 -0.64,1.16 -1,0.84 -2.11,0.61 -0.38,-0.04 2.03,-2.16 -0.28,-0.12 -3.66,2.28 -0.75,-0.05 -0.42,-0.53 -0.03,-0.84 0.9,-0.99 1.08,-0.69 2.71,-0.52 0.77,-0.95 0.71,-0.29 1.27,0.7 z m -12.15,-4.48 -1.94,-0.56 -0.69,-0.68 0.75,-0.6 0.78,0.1 1.4,1.54 z m 2.43,-1.91 -1.74,-0.01 -0.6,-0.5 1.21,-1.1 0.83,-0.13 0.58,0.46 -0.04,1.13 z m -13.48,-1.88 1.87,1.18 0.21,0.97 -1.03,-0.05 -0.22,0.36 0.2,0.74 0.75,0.68 0.84,-0.53 2,0.66 -0.41,4.13 -0.34,0.63 -1.93,0.17 -4.13,2.02 -3,0.93 -5.38,-2.15 -2.42,-1.63 -3.43,-3.25 -0.47,-1.3 -0.14,-2.87 0.27,-0.56 1.23,-0.84 0.41,0.09 1,1.08 0.61,0.03 1.23,-1.13 2.29,-0.6 5.55,-0.22 1.55,0.26 z m 48.47,-4.08 3.87,1.54 5.5,-0.32 0.66,0.17 3.68,2.61 0.71,1.81 0.27,2.27 0.45,0.52 2.04,0.17 0.64,0.64 0.82,2.39 -0.07,0.62 -0.6,0.85 -0.1,3.35 -3.7,-1.45 -1.01,-1.06 -2.76,-1.61 -4.57,-1.54 -2.47,-1.26 -0.56,-0.74 -0.03,-0.85 -1.19,-0.76 -6.44,-0.64 -0.29,0.32 0.12,0.54 0.92,1.42 -0.25,0.57 -0.47,0.12 -4.71,-0.98 -2.38,-1.08 -2.88,0.12 -0.32,-0.26 0.85,-1.01 0.04,-0.67 -0.69,-0.49 -0.88,-0.13 -1.92,1.21 -2.74,2.7 -2.47,0.42 -1.14,-0.69 -1.76,-2.61 -1.47,-0.99 -0.62,-2.36 -0.69,0.02 -0.78,0.79 -0.62,1.51 -0.33,2.23 -0.46,0.64 -0.43,0.11 -0.93,1.67 -0.33,1.39 -0.16,-0.25 -0.25,-1.04 0.52,-1.15 0.12,-1.25 -0.87,-1.35 -0.45,-1.37 2.21,-1.72 3.26,-3.96 11.76,0.15 2.13,-0.48 0.88,-0.71 0.36,0.03 0.45,0.55 -0.03,1.35 1.08,0.93 1.38,-0.29 2.31,-1.47 0.5,-0.96 2.61,-0.37 4.22,1.56 z"
       inkscape:connector-curvature="0"
       style="fill:#cccccc;fill-opacity:1;stroke:#ffffff;stroke-width:0.5;stroke-opacity:1" />
    <path
       id="ID-MU"
       title="Maluku Utara"
       class="land"
       d="m 533.6,169.24 -0.51,0.08 -1,-0.88 -0.6,-2.36 -0.89,-1.29 -0.62,-2.48 0.44,-1.09 0.61,-0.63 0.59,0.08 0.79,0.69 -0.54,2.5 2.04,4.47 z m -10.97,-11.5 3.77,0.32 1.85,-0.49 3.94,-0.12 6.23,0.53 -0.25,0.38 -1.41,0.6 -13.59,1.08 -2.19,-1.19 -0.01,-0.83 0.63,-0.73 0.59,-0.09 z m -8.31,-1.81 0.97,0.34 1.85,-0.5 2.98,0.71 0.48,0.98 0.03,1.67 -2.77,-0.21 -1.8,0.27 -0.97,0.93 -2.51,-0.82 -4.86,1.81 -2.91,0.23 -1.33,-2.3 -0.02,-1.07 0.7,-2.15 0.48,-0.55 2.34,-0.46 1.81,-0.01 z m 50.59,-4.71 4.53,2.77 0.31,0.94 -0.36,0.76 -1.37,0.52 -6.1,-0.48 -1.14,0.66 -1.66,0.25 -1.94,-0.89 -0.93,-0.97 0.81,-3.32 0.3,-0.34 0.32,0.25 2.91,-1.8 1.61,0.31 z m -4.58,-2.91 -2.06,0.19 -0.67,-0.63 1.56,-1.04 1.8,0.72 z m -5.13,-7.96 -0.7,0.24 -2.02,-0.46 -0.11,-0.69 0.82,-2.08 0.87,-0.01 z m 4.38,-8.13 1.94,2.51 -0.31,0.95 -1.08,1.48 0.78,1.63 0.54,0.31 1.86,-0.56 1.1,0.49 0.77,1.02 -0.06,0.51 -1.34,1.1 -1.06,0.29 -1.36,-0.58 -1.21,-1.47 -2.12,0.9 -0.44,-0.15 -0.95,-3.27 -1.72,-1.82 -0.23,-1.01 0.53,-1.97 0.87,-0.22 0.72,0.64 1.19,-0.26 0.88,-0.71 z m -6.72,3.57 -1.15,-0.07 -0.16,-0.44 -0.02,-3.52 0.65,-0.47 1.6,-0.17 0.4,0.46 0.38,1.67 -0.46,2 z m 11.9,-40.14 1.22,0.2 0.96,0.87 0.69,3.85 -0.82,2.98 -1.41,2.47 -4.43,3.2 -0.39,0.59 0.05,1.02 0.42,0.71 2.36,1.48 0.86,-0.13 1.26,-0.95 0.2,-2.27 0.79,-1.33 1.11,-0.85 1.66,0.03 0.57,-0.29 0.49,-1.03 -0.15,-0.47 -0.75,-0.31 -0.21,-0.82 1,-1.59 3.22,-2.23 1.17,-0.49 3.21,-0.71 1.67,0.35 -0.47,7.82 -0.58,0.67 -3.78,2.21 -2.54,0.74 -1.49,1.48 -0.01,0.44 0.42,0.85 1.94,1.43 4.13,1.49 1.5,0.13 0.32,2.48 -0.17,0.88 0.66,0.48 1.87,0.5 0.78,0.64 0.53,1.02 -1.56,-0.9 -4.69,-1.1 -1.57,-1.32 -2.99,0.19 -1.14,-0.3 -0.93,-0.82 -1.5,-0.26 -2.01,-0.18 -0.63,0.38 -0.73,2.66 0.48,0.38 0.3,2.37 -0.69,1.13 0.04,1.35 2.61,6.84 3.05,5.1 3.26,3.24 -2.58,-0.27 -0.38,-0.36 0.13,-0.35 -1.73,-1.32 -2.03,-1.05 -2.8,-5.4 -2.42,-1.36 -0.95,-1.46 0.64,-4.83 -0.22,-2.24 -0.55,-2.46 -1.48,-1.24 -0.84,-3.27 0.39,-1.96 0.73,-0.76 0.54,-1.08 -0.08,-0.52 -1.85,-0.55 -0.2,-0.3 0.26,-0.98 -0.47,-1.64 -1.4,0.26 -0.13,-0.39 0.11,-2.59 2.16,-3.91 -0.02,-1.38 0.75,-3.76 2.14,-3.19 3.77,-4.02 0.66,-0.56 1.85,-0.01 -0.24,1.12 -1.61,2.44 -1.58,1.19 -0.09,1.56 z m 10.85,-4.18 -1.92,0.09 -1.91,0.47 -0.54,-1.42 -0.23,-3.54 1.98,-3.1 1.5,-1.46 2.22,-1.05 2.13,2.63 0.15,0.79 -1.28,3.75 -0.89,1.6 z"
       inkscape:connector-curvature="0"
       style="fill:#cccccc;fill-opacity:1;stroke:#ffffff;stroke-width:0.5;stroke-opacity:1" />
    <path
       id="ID-NB"
       title="Nusa Tenggara Barat"
       class="land"
       d="m 416.08,271.58 0.12,0.32 0.67,-0.3 0.24,0.5 -0.27,0.41 -0.33,-0.23 -0.14,0.32 -0.34,-0.09 -0.15,-0.95 z m -44.16,-0.61 -0.2,1.4 -0.57,0.51 -0.42,1.71 -2.6,3.94 -0.1,0.58 1.52,0.45 -0.47,0.63 -2.02,0.33 0.47,-1.48 -0.85,0.18 -0.4,0.38 v 1.56 l -0.4,-0.03 -0.17,-0.35 -1.17,-0.4 -2.17,0.08 -0.15,-0.75 -0.3,-0.05 -1.12,0.4 -0.9,-0.25 -0.42,0.45 -1.15,-1.08 -1.45,-0.13 -0.35,-0.4 -0.2,-0.63 0.4,-0.75 0.35,-0.08 0.07,0.38 1.07,0.43 0.57,-0.58 0.87,0.2 0.85,-0.6 0.1,-3.19 -0.55,-0.54 -0.17,-0.78 0.45,-0.65 0.82,-0.48 0.1,-0.5 0.3,0.1 1.02,-0.58 1.4,-1.48 1.65,-0.6 1.12,0.1 3.65,1.1 z m 15.05,-3.68 1.15,-0.07 0.53,0.46 -1.26,0.92 -1.54,2.79 -1,-0.63 0.61,-1.24 -0.44,-0.39 0.01,-1.23 1.33,-0.79 z m 25.53,1.79 h -0.69 l -0.49,-0.4 -0.04,-0.9 0.83,-0.93 0.79,0.08 0.54,0.93 -0.26,0.7 z m -19.25,-2.66 h 1.97 l 1.3,0.5 0.37,1.88 0.75,0.6 0.38,0.95 1.2,0.63 1.37,-0.53 0.3,-0.65 1.07,-0.88 3.4,0.78 0.6,1.38 -0.45,2.58 0.62,-0.2 0.22,-0.4 -0.1,-1.63 0.45,-0.85 1.35,-1.13 3.22,0.55 -0.1,1.13 0.95,1.43 0.05,0.95 -0.54,0.25 -0.1,0.58 0.39,0.62 -0.03,0.79 0.69,0.18 0.95,-0.38 -0.36,-0.56 0.64,-0.1 0.4,-0.55 0.33,0.5 -0.45,1.13 0.15,1.13 -0.65,0.53 -1.57,-0.28 -1.2,0.23 -1.12,-1.05 -0.87,0.6 -1.6,-0.38 -1,0.95 0.52,0.23 2.75,-0.02 0.8,0.45 0.17,0.45 -0.4,0.33 -1.37,0.18 -2.1,-0.83 -4.52,1.51 -1.25,-0.48 -0.33,-0.73 0.11,-0.64 0.65,-0.8 0.17,-1.05 -0.6,-0.88 v 1.1 l -0.72,0.08 -0.38,0.58 -0.65,0.3 -0.13,0.53 -0.47,0.11 -1.37,1.38 -0.92,0.38 -0.82,-0.6 -1.31,0.28 -0.32,0.6 -1.92,0.88 -0.62,-0.23 -0.18,-0.5 -0.8,0.48 -1.12,-0.23 -2.87,1.48 -2.37,0.8 -1.3,0.08 -1.65,-0.55 -1,0.05 -0.97,1.01 -1.67,0.4 -1,-0.35 -0.32,-0.4 -0.65,-0.13 -0.37,0.25 -2.71,-1.21 -0.3,-0.5 0.32,-1.76 0.55,-0.28 -0.08,-0.4 0.77,-0.15 -0.8,-1.53 0.27,-0.23 -0.42,-1 0.67,-1.41 0.57,-0.33 -0.22,-0.83 0.47,0.33 1.58,-0.25 3.5,-2.61 4.45,1.76 0.65,-0.88 2.24,-0.2 1.12,0.78 0.62,-0.05 0.32,0.95 -0.85,0.6 0.65,0.48 0.9,-0.08 -0.32,-1.3 0.4,-0.13 0.37,0.95 0.55,0.02 0.05,0.45 -0.8,0.08 0.32,0.38 -0.1,0.6 0.62,1.66 1.5,-0.3 1.65,0.55 1.47,-1.21 1.37,-0.3 1.05,0.43 1.57,-0.63 -0.2,-0.75 -0.5,-0.45 -0.57,-0.15 -0.15,0.25 -2.15,-2.08 -1.67,0.2 -2.92,-1.86 -1.72,-1.86 -0.17,-0.35 0.32,-1 1.15,-0.83 0.7,0.05 1.7,-0.8 z"
       inkscape:connector-curvature="0"
       style="fill:#cccccc;fill-opacity:1;stroke:#ffffff;stroke-width:0.5;stroke-opacity:1" />
    <path
       id="ID-NT"
       title="Nusa Tenggara Timur"
       class="land"
       d="m 487.29,308.08 0.82,0.08 -1.55,1.53 1.13,0.33 0.21,0.82 -0.48,0.59 -0.94,-0.03 -1.64,0.94 -0.48,1.56 -0.63,0.15 -0.87,-0.38 -0.85,0.77 -1.76,0.09 -0.57,0.41 0.34,0.34 -0.29,0.53 -1.03,-0.41 -0.6,0.15 -0.12,0.37 -0.5,-0.3 0.05,-1.29 -0.46,-0.88 0.13,-0.37 2.13,-0.74 0.73,0.11 1.15,-0.32 1.41,-1.37 0.99,-0.28 0.22,-0.65 0.44,0.03 -0.07,-0.4 0.83,-0.88 1.73,-0.78 0.2,-0.83 0.61,0.63 z m -24.85,-1.04 0.87,0.29 -0.19,1.32 -2.19,1.58 -2.1,-0.06 -1.1,-0.67 2.61,-1.46 0.22,-0.83 0.41,-0.25 0.67,-0.22 z m 26.17,-4.8 0.53,-0.11 0.09,0.45 -0.78,0.26 -0.51,0.6 -0.18,-0.35 -0.44,-0.04 0.43,0.9 0.04,0.63 -0.43,-0.06 0.31,0.35 -0.11,0.42 -0.4,-0.01 -0.33,-0.52 -0.79,0.57 -0.34,-1.23 0.95,-0.85 0.67,-1.45 0.99,-0.39 z m -59.68,-13.46 1.26,1.49 1.77,0.05 0.52,1.07 0.07,1.21 0.39,0.5 0.69,0.05 0.57,0.45 2.44,-0.82 0.54,0.97 1.7,0.87 1.48,3.08 2.07,0.97 0.49,0.7 0.34,1.07 -0.22,0.8 -1.16,0.67 -0.62,0.94 -0.86,0.57 -1.04,0.37 -1.53,-0.07 -0.91,0.47 -0.32,0.62 -1.11,-0.42 -0.57,-0.55 -2.59,0.02 -1.11,-0.5 -1.85,-1.74 -0.44,-0.1 -0.22,-1.12 -1.04,-1.19 -1.21,-0.52 -0.05,-0.47 -1.55,-0.12 -1.51,-1.26 -0.49,-1.04 -0.66,0.2 -0.71,-0.57 -2.04,-0.47 -0.94,0.4 -0.27,0.5 -1.01,-0.52 -0.37,0.1 -0.22,-0.35 -2.12,-0.02 -2.54,-1.11 -2,-2.41 1.21,-1.64 3.25,-1.41 0.54,0.35 1.5,-0.57 0.76,0.32 1.97,-0.3 1.26,0.32 0.79,-0.52 1.03,-0.02 0.74,0.52 1.93,0.4 2.54,-2.16 z m 85.11,-7.52 0.2,0.08 -0.31,1.16 0.75,0.61 1.73,-0.7 0.6,-0.97 1.28,1.02 -0.09,2.49 -0.69,0.08 -0.67,0.53 -0.72,-0.56 -1.04,0.02 -0.28,0.57 0.21,1.46 0.97,0.67 0.67,2.32 v 0 l -1.68,1.51 -0.17,1.64 -0.53,0.56 -1.61,0.91 -2.07,2.88 -3.36,2.15 -0.65,1.39 -1.42,1.07 -1.04,0.28 -3.9,-0.21 -2.18,1.98 -1.01,0.13 -2.72,1.24 -1.67,0.22 -0.84,-0.25 -0.71,0.35 -1.24,-0.73 -1.36,0.51 0.65,-1.54 -0.13,-0.69 0.58,-0.22 0.07,-0.66 3.65,-1.43 0.49,-0.86 -1.22,-0.63 -0.9,0.01 -0.65,0.53 -0.42,-0.28 -0.01,-1.81 1.37,-0.96 0.11,-1.07 -0.45,-0.66 0.68,-0.56 -0.18,-1.81 1.2,-1.24 0.77,-0.31 0.46,-0.85 1.29,-0.58 0.33,-0.6 0.54,-0.18 1,-1.31 0.87,-0.06 v 0 l 0.88,1.19 0.46,-0.02 0.26,0.32 1.52,-0.97 0.83,0.81 0.25,0.61 -0.14,0.86 1.21,-0.28 0.23,-0.5 -0.22,-0.45 0.55,-0.68 -0.02,-0.55 0.97,-0.44 0.43,-0.59 -0.12,-0.56 0.41,-1.58 v 0 l 1.3,0.03 0.88,-0.31 1.51,-1.21 0.08,-0.56 0.79,-0.09 0.96,-0.7 z m -88.95,-2.35 -0.42,-0.02 0.25,-0.54 0.25,0.14 z m -2.31,-0.19 -0.55,-0.17 0.44,-0.22 z m -1,-2.72 -0.7,0.08 -0.15,0.28 -0.34,-0.11 1.06,-0.68 z m 0.7,-0.78 0.29,0.01 0.18,1.3 0.56,-0.24 -0.31,-0.59 0.4,0.15 0.17,-0.46 1.16,0.1 -0.09,0.63 -0.44,0.07 -0.34,0.55 -0.43,-0.22 -0.23,0.37 -0.08,0.37 0.63,0.49 -0.65,0.95 -0.27,-0.01 -0.29,-0.6 -0.74,0.31 -0.21,-0.67 0.27,-0.86 0.65,-0.01 -0.15,-0.5 -0.37,0.13 0.22,-0.47 -0.43,-0.8 z m 47.22,-3.16 0.8,0.32 -0.57,0.89 -0.93,-0.6 0.05,-0.52 z m -50.22,0.41 0.17,0.58 1.15,0.21 0.38,-0.19 0.11,0.91 -0.37,-0.27 -0.09,0.19 0.39,1.05 -0.91,0.13 v -0.48 l -0.37,-0.08 -0.39,0.62 -0.37,0.03 0.18,0.35 0.5,-0.13 -0.33,0.61 -0.39,-0.06 -0.33,0.46 0.38,0.45 -0.14,0.37 0.41,0.23 -0.52,0.25 -0.61,-0.48 -0.52,0.22 0.57,-1.44 -0.59,-0.4 0.24,-0.5 -0.25,-0.25 1.05,-1.05 -0.34,-0.36 0.42,-0.3 -0.28,-0.77 0.5,0.12 0.06,-0.44 z m 63.8,-0.41 0.08,0.32 -0.33,0.28 -1.33,0.5 -0.82,-0.24 -0.72,0.61 -0.78,1.45 -0.86,0.23 -0.28,-0.47 0.25,-1.02 1.08,-0.58 0.48,-0.94 0.78,0.2 z m -24.91,-2.28 0.42,0.52 -0.1,0.34 -1.21,0.03 0.34,-0.83 z m 25.8,-1.04 0.56,-0.21 1.57,0.68 -0.52,0.55 0.06,1.02 -0.28,0.6 -2.01,-0.06 -3.04,0.43 -0.05,-0.72 0.61,-1.06 1.88,-1.28 0.66,0.09 0.43,-0.26 z m 18.17,1.97 -0.84,1.05 -0.15,1.07 -1.34,1.24 -1.26,-0.01 0.2,-0.81 -0.55,-1.3 -0.8,-0.04 -0.7,0.67 -0.56,-0.16 0.8,-1.73 1.63,-0.93 0.51,0.3 0.04,0.67 0.56,0.04 0.83,-1.13 0.66,-0.38 0.72,-1.22 0.42,-0.35 0.64,-0.01 0.32,0.58 -0.44,0.82 0.08,0.98 z m -7.27,-2.47 1,0.12 0.44,0.63 -1.47,0.55 -0.63,-0.16 -0.72,0.28 -1.5,2.36 -0.91,-0.36 -1,0.82 -0.15,0.38 0.48,0.98 -0.53,0.62 -0.58,-0.04 -0.5,-0.79 -1.58,1.16 -1.49,-0.99 -0.41,0.35 -0.88,-0.13 -0.19,0.24 -0.35,-0.3 0.03,-0.42 0.38,-0.01 1.28,-1.07 0.43,-0.85 2.39,-1.05 -0.74,-0.75 -1.39,0.11 0.6,-0.73 0.45,-0.2 0.92,0.32 0.48,-0.48 1.2,-0.01 -1.03,1.95 0.94,0.32 0.71,-0.56 -0.33,-0.9 h 0.5 l 0.01,0.51 0.58,-0.5 -0.55,-1.14 0.7,-0.09 0.19,0.52 0.71,0.15 0.01,-0.6 1.52,-0.93 z m 11.71,-1.52 1.44,0.1 -0.2,1.02 0.25,0.16 0.83,-0.5 1.68,-0.32 2.79,0.3 0.77,-0.36 2.41,0.08 0.7,1.39 0.04,1.65 -1.29,0.58 -3,0.12 -1.57,0.61 -2.44,-0.1 -1.96,0.89 -0.81,-0.44 -1.21,0.71 -0.23,-0.35 -0.88,0.1 -0.36,-0.72 1.1,-1.83 2.38,-1.19 -0.82,-0.02 -1.59,0.79 -0.09,-0.86 0.96,-1.29 0.35,-0.37 z m -27.53,-0.26 0.78,0.51 -0.17,1 1.03,2.03 -0.71,0.68 -1.17,-0.27 -0.58,0.85 0.1,1.17 -1.77,-0.31 0.11,0.87 0.88,0.93 -0.16,0.97 -1.73,0.33 -0.11,0.41 -1.03,-0.16 -1.82,0.72 -0.58,0.74 -1.97,0.65 -1.29,-0.12 -1.08,0.26 -1.4,-0.12 -0.35,-0.32 -1.05,0.04 -1.46,1.1 -1.89,0.67 -0.96,0.02 -1.41,0.78 -1.91,-0.56 -0.28,0.94 -0.25,0.07 -0.31,-0.14 0.32,-1.03 -1.08,-0.64 -0.74,0.15 -2.52,-0.32 -0.4,0.64 0.06,0.85 -0.43,0.42 -0.57,0.17 -0.71,-0.39 -1.65,-0.01 -2.93,1.19 -1.47,-0.49 -0.92,-0.75 -0.52,-0.89 -0.81,0.18 -0.34,0.75 -0.46,0.12 -1.76,-0.45 -0.89,-0.9 -3.62,0.03 -1.23,0.63 -0.59,-0.02 -1.15,-0.3 -1.14,-0.89 -2.23,0.61 -1.29,0.03 -0.57,0.78 -0.42,-0.13 -0.02,-0.82 -0.8,-0.07 -0.67,-0.75 0.06,-3.21 1.26,-1.2 0.08,-0.55 -0.41,-0.83 0.42,-0.04 0.04,0.58 0.4,0.23 1.12,-0.73 0.5,0.47 0.24,-0.36 -0.23,-0.38 0.35,-0.56 0.75,-0.13 0.57,0.63 -0.18,0.36 0.38,0.04 0.22,-1.4 0.63,0.29 0.74,-1.17 1.45,-0.4 1.49,0.17 0.71,-0.25 0.26,-0.64 0.85,0.95 0.85,-0.33 1.24,0.31 0.04,-0.68 0.75,0.35 0.73,0.89 0.49,-0.04 0.43,0.38 4.25,0.01 0.1,0.47 0.5,-0.03 0.21,0.75 0.71,-0.1 3.62,1.06 0.49,0.21 0.75,1.21 1.22,0.56 0.85,-0.45 0.79,0.96 0.51,-0.6 0.61,-0.2 -0.26,-0.57 0.82,0.36 -0.22,-0.43 0.31,-1.05 1.06,0.68 0.86,-0.31 1.17,0.28 0.8,-0.51 1.17,0.26 0.82,-0.91 -0.06,0.5 1,-0.56 0.23,0.06 -0.17,1.48 0.92,-0.11 0.29,0.36 0.31,-0.25 0.96,0.45 1.21,1.21 1.15,0.28 1.13,-0.49 1.92,-0.07 0.76,-1.05 -0.04,-0.39 -0.61,-0.54 0.22,-0.34 1.12,-0.32 0.63,-0.55 0.14,-0.55 1.08,-0.05 1.2,-0.54 0.55,0.1 0.76,-1.11 1.47,-0.35 0.36,-1.12 0.43,-0.26 -0.61,-0.34 -1.57,0.3 -0.41,0.68 -0.98,-0.19 0.86,-1.28 v -0.77 l 0.82,-0.21 0.62,-0.53 z"
       inkscape:connector-curvature="0"
       style="fill:#cccccc;fill-opacity:1;stroke:#ffffff;stroke-width:0.5;stroke-opacity:1" />
    <path
       id="ID-PA"
       title="Papua"
       class="land"
       d="m 755.3,271.78 -5.32,-0.63 -0.57,-0.75 2.81,-2.6 1.94,-0.43 1.55,3.59 z m -4.89,-2.73 -2.6,2.13 -2.65,0.84 -1.5,-0.56 -5.96,-0.4 -2.85,0.69 -0.51,0.35 -0.5,0.06 -0.24,-0.42 1.67,-4.74 3.07,-5.93 2.48,-3.53 2.98,-2.1 2.44,-0.96 4.78,-0.89 2.12,0.11 1.16,0.55 1.67,2.43 1.32,0.25 0.62,0.98 -0.96,2.7 -1.18,1.89 -0.54,2.73 -1.72,1.79 -1.99,0.44 z m 0.44,-26.51 0.61,0.5 1.3,0.24 0.82,1.21 -0.99,0.62 -0.75,-0.28 -1.16,-1.53 -0.13,-0.51 z m -40.39,-86.82 2.86,0.57 5.96,0.44 1.68,0.84 -0.43,0.46 -3.22,0.55 -2.54,0.83 -5.61,-0.5 -4.02,-0.96 -1.92,-1.1 -2.55,-0.77 -4.23,-0.46 -1.08,-1.28 0.93,-0.28 1.17,0.38 11.08,0.79 z m 44.47,4.67 1.2,0.01 1.96,0.66 12.71,6.22 1.79,0.26 2.55,-0.31 1.28,-0.61 0.99,0.06 0.86,1.38 1.91,0.88 0.92,-0.17 0.1,-0.27 1.66,0.03 2.67,0.39 1.57,0.56 0.46,0.67 -0.83,1.47 0.46,0.38 1.67,-0.47 3.15,0.07 v 64.11 l -0.68,0.07 -0.67,1.97 0.33,0.85 -1.46,2.27 -0.07,0.81 0.21,1.87 0.55,1.2 0.81,0.83 0.98,-0.18 0.02,38.79 -2.86,-1.43 -1.46,-1.85 -2.57,-2.39 -1.82,-2.97 -7.82,-6.31 -1.15,-1.31 -0.05,-0.97 1.38,-1.15 1.49,-3.22 -1.63,0.71 -0.24,2.21 -2.15,1.05 -5.11,0.18 -1.58,0.91 -2.82,0.51 -0.7,-0.08 -0.87,-0.55 -1,-1.4 -2.32,0.88 -1.91,1.4 -0.6,1.29 -0.5,0.06 -1.27,-2.92 1.17,-1.61 0.12,-2.16 1.4,-0.79 0.21,-1.85 0.89,-2.23 0.66,-0.7 0.02,-0.51 -2.78,-1.7 -1.23,-2.2 -3.32,-1.95 -0.15,-0.4 4.71,0.03 2,0.85 2.17,-0.22 0.81,-1.32 -1.05,0.7 -2.06,0.19 -3.37,-1.03 -1.71,-0.78 -2.89,-2.55 -0.32,-0.95 0.61,-0.49 2.48,0.33 1.1,-0.71 1.8,-0.22 1.28,0.44 2.14,1.76 1.38,-0.05 -1.69,-0.59 -1.77,-1.41 -1.8,-0.45 -3.47,-1.82 -0.26,-1.09 0.66,-0.19 -3.86,-3.9 -1.27,-2.16 -0.75,-3.38 -1.2,-2.22 0.02,-2.02 -1.48,-0.41 -0.76,-0.66 0.41,-0.6 2.77,-1.35 -0.64,-0.17 -1.61,0.25 -0.99,0.57 -1.61,0.23 -0.32,-1.8 0.22,-3.76 -0.5,0.88 -1.52,-0.57 -4.94,-3.51 -1.52,-0.61 0.32,-0.57 -1.3,-0.01 -1.89,-0.85 -2.43,-2.05 -1,0.44 -3.58,-1.01 -3.13,-0.41 -8.01,-4.27 -1.76,0.02 -3.86,-1.56 -1.09,-1.33 -0.76,-0.31 -3.53,0.05 -5.17,-1.12 -3.34,0.52 -6.29,-3.14 v 0 l 1.64,-2.37 1.06,-0.81 1.71,-3.01 2.29,-2.84 -8.49,-3.09 -6.45,-1.87 -3.35,-1.38 1.14,-2.52 0.98,-1.22 1.63,-0.97 0.24,-1.95 1.55,-0.81 2.48,-2.27 v 0 l 0.61,2.49 0.47,0.36 1.38,-0.63 0.41,-0.86 0.45,0.04 -0.07,1.85 -0.49,0.45 -0.17,1.43 1.11,2.15 2.05,1.51 2.13,0.55 3.73,0.43 2.22,-0.42 1.63,-1.11 0.23,-1 0.64,-0.78 1.86,-0.74 0.92,-0.73 -0.45,-0.58 0.4,-0.51 2.48,-1.07 0.51,-0.79 0.32,-2.73 1.23,-1.46 2.71,-1.14 1.25,-1.01 1.51,-3.6 -0.14,-1.45 0.39,-0.49 0.91,-0.63 1.27,-0.1 0.87,0.05 0.24,0.41 0.96,0.24 2.63,-0.03 4.11,-1.99 1.31,-0.41 2.1,-0.1 0.83,-0.81 -0.64,-1.8 -0.63,-0.29 -0.91,-1.04 0.19,-1.23 3.88,-1.57 4.49,-2.61 4.17,-1.47 1.48,0.26 2.24,2.02 6.1,2.16 4.19,1 1.53,0.96 0.76,1.02 z m -68.19,-14.13 -0.97,-0.01 -1.13,-1.66 0.19,-1 0.5,-0.67 0.81,-0.05 0.73,0.35 1.08,1.11 -0.08,1.04 -0.49,0.69 z m 9.63,-8.01 3.32,0.28 1.62,1.07 0.97,-0.75 0.54,-0.07 3.69,2.93 2.23,3.23 1.25,-0.22 2.08,1.13 -2.1,1.44 -1.85,0.4 -1.04,-0.02 -1.35,-0.8 -2.34,0.19 -0.88,-0.87 -0.78,-3.16 0.03,-0.92 -0.57,-1.23 -0.5,-0.05 -1.81,0.86 -1.79,-1.52 -0.66,-0.15 0.08,0.54 -0.42,-0.16 -1,-0.95 -0.62,-1.33 0.26,-0.49 z"
       inkscape:connector-curvature="0"
       style="fill:#cccccc;fill-opacity:1;stroke:#ffffff;stroke-width:0.5;stroke-opacity:1" />
    <path
       id="ID-PB"
       title="Papua Barat"
       class="land"
       d="m 663.38,199.77 0.76,0.9 -5,-2.24 -0.16,-1.15 z m -58.47,-37.6 -1.23,0.04 -3.61,-1.07 -3.03,-1.57 -0.33,-0.42 0.58,-0.54 4.95,-1.98 5.41,-1.05 1.41,2.5 0.06,2.57 -0.94,0.62 z m -4.51,-14.67 -1.71,0.55 -1.58,-0.54 0.42,-0.67 1.8,-0.5 1.55,0.52 z m 16.75,-5.48 0.59,0.77 1.75,-0.42 0.69,1.04 -0.05,1.91 -0.58,2.67 -0.72,1.64 -0.61,0.38 -1.5,-0.28 -2.04,-1.69 -1.1,-2.06 0.35,-0.54 -0.27,-0.73 -1.01,-1.06 0.43,-0.44 z m 0.31,-1.73 -0.45,0.77 -1.64,0.7 -2.22,0.47 -3.3,0.05 -1.38,0.3 1.54,-1.52 4.17,-0.12 1.33,-0.3 0.63,-0.7 h 0.79 z m -5.38,-4.29 -2.44,-0.27 -0.16,-0.97 2.74,-1 0.8,0.28 0.59,0.71 -0.45,0.75 z m 51.35,3.65 3.04,0.05 0.08,-0.56 3.91,0.1 2.24,1.81 -1.41,2.26 1.69,3.19 1.35,1.19 1.31,2.39 -0.79,0.87 -0.24,2.51 -2.3,2.07 0.59,3.54 0.39,0.86 -0.21,2.02 0.46,4.6 1.09,1.87 0.53,0.18 1.15,1.14 2.47,6.13 0.55,0.02 0.54,-0.46 -0.9,-3.57 0.19,-1.76 0.94,-0.96 1.77,0.89 0.26,0.91 0.1,4.32 v 0 l -2.48,2.27 -1.55,0.81 -0.24,1.95 -1.63,0.97 -0.98,1.22 -1.14,2.52 3.35,1.38 6.45,1.87 8.49,3.09 -2.29,2.84 -1.71,3.01 -1.06,0.81 -1.64,2.37 v 0 l -1.16,-0.49 -2.68,-2.25 0.65,-3.04 0.43,-0.22 2.5,0.31 1.04,0.45 0.93,-0.67 -5.1,-0.45 -0.96,0.74 -0.34,0.9 -1.31,0.28 -1.53,-1.94 -1.16,-0.28 -0.45,1.63 -0.64,0.33 -2.08,-1.31 -0.35,-0.72 0.52,-1.11 -0.88,-1.21 -0.25,-0.11 -1.74,0.91 -1.75,-0.94 -1.6,-2.78 -0.63,0.44 0.14,0.98 -0.44,0.1 -1.23,-0.78 -1.24,-2.73 1.1,-1.04 -0.2,-2.35 0.44,-1.45 2.55,-1.9 0.03,-1.29 -0.58,-0.79 -2.94,3.01 -0.28,4.72 -1.71,0.85 0.79,1.27 -0.07,0.58 -3.22,2.83 0.12,1.2 0.6,0.52 0.17,0.64 -3.7,3.57 -3.27,-0.25 -0.99,0.96 -1.36,-0.34 -1.67,-2.78 0.2,-0.16 -0.16,-0.61 -1.16,-2.99 0.56,-1.47 1.83,-0.66 0.66,-0.68 -0.77,-1.44 -0.56,0.06 -0.47,-0.38 -0.37,-1.4 0.3,-1.14 -0.91,-0.63 -0.6,0.24 -0.17,1.04 -1.01,-0.31 -1.16,-1.56 -0.08,-0.85 -0.62,-1.18 -1.58,-1.24 -3.33,-1.83 h -1.44 l -1.9,0.49 -2.14,-3.1 3.14,-1.61 3.1,-0.19 4.4,0.6 2.6,1.72 2.07,-1.49 3.05,-4.02 1.51,-0.87 2.42,-0.49 1.1,0.53 1.32,1.27 2.08,0.76 1.71,-0.47 0.76,0.09 0.51,0.73 0.01,2.26 0.25,-0.34 0.22,-3.13 0.61,0.12 1.31,2.34 0.07,-2.02 -0.29,-0.8 -0.39,-0.24 1.02,-0.97 1.28,-0.61 0.71,-1.04 -0.15,-2.04 -0.4,1.05 -1.47,0.49 -0.88,-0.75 2.72,-1.48 -0.2,-1.15 -1.01,0.17 -3.98,2.12 -3.59,0.03 -2.43,-0.65 -1.67,0.22 -4.11,1.28 -1.09,-0.07 -1.44,-0.62 -2.21,1.04 -0.88,-0.43 -0.4,-1.01 -0.71,-0.6 -2.05,0.52 -1.09,0.68 -1.63,0.15 -2.47,-2.01 -1.99,-1.13 -1.9,-3.61 -0.07,-1.12 0.76,-0.83 -0.25,-0.93 -1.28,-1.13 -2.76,-1.04 -0.31,-0.65 -1.98,-0.92 -5.48,-1.83 0.98,0.94 0.04,0.38 -0.78,0.65 -1.38,0.5 -0.52,-0.85 -1.15,-0.45 -1.07,0.06 -1.48,-0.9 1.66,-2.74 2.06,-0.42 1.21,-2.1 0.64,-3.07 -0.53,-1.64 4.46,-1.52 1.12,0.48 5.11,-1.18 0.78,-1.22 3.25,-2.69 2.83,-1.42 2.84,-0.68 4.83,0.39 6.95,2.92 1.01,0.09 3.48,3.04 z m -46.66,-12.62 2.85,0.81 1.68,0.16 2.77,1.58 0.39,1.82 -1.15,1.97 -1.49,-0.83 -1.1,-0.1 -2.22,0.52 -1.77,-1.94 -1.46,-0.58 -1.77,-2.36 -1.29,0.15 0.22,0.83 1.75,1.85 3.28,1.31 0.44,0.74 -0.47,0.76 -1.17,0.55 -1.54,0.21 -0.87,-0.61 -0.5,-1.96 -1.58,0.35 -0.8,0.73 -0.53,-1.92 -1.45,0.36 -1.19,-0.14 -2.43,-0.96 0.35,-0.22 2.52,0.39 0.75,-0.41 -0.48,-0.82 -1.07,0.03 0.11,0.62 -0.85,-0.19 -0.35,-0.64 0.13,-0.56 7.18,-1.2 0.36,0.26 0.84,-0.07 -0.29,-0.27 0.56,-0.34 z m -22.88,3.34 -0.32,0.15 -4.26,-4.56 0.84,0.35 3.54,2.85 0.39,0.68 z"
       inkscape:connector-curvature="0"
       style="fill:#cccccc;fill-opacity:1;stroke:#ffffff;stroke-width:0.5;stroke-opacity:1" />
    <path
       id="ID-RI"
       title="Riau"
       class="land"
       d="m 137.72,117.95 -0.59,-0.17 -0.31,-0.8 0.47,-1.73 1.04,-0.66 1.19,1.23 0.13,1.39 -0.4,0.36 z m -9.7,-8.36 2.36,-0.28 2.84,1.65 2.03,1.69 0.18,0.77 -0.25,1.05 -0.55,0.3 -1.23,-1.23 -1.06,-0.49 -3.49,-0.1 -2.22,0.42 -1.1,-0.55 -1.28,-1.23 0.53,-0.8 1.05,-0.28 v -0.74 l -0.52,-1.13 0.34,-1.4 1.18,0.16 1.04,1.34 -0.17,0.47 z m 7.14,-0.75 2.22,2.51 0.06,0.52 -0.35,0.39 -1.1,0.05 -2.44,-1.71 -3.16,-1.62 -1.19,0.11 -0.6,-0.53 0.95,-1.65 1.22,-0.2 3,1.15 z m -11.06,1.94 h -0.42 l -1.53,-1.44 -0.79,-1.16 -0.65,-3.48 0.16,-2.14 1.35,-0.04 3.24,3.11 -0.54,2.04 0.35,2.47 z m 1.69,-8.98 0.17,2.88 -0.24,0.35 -3.17,-2.76 -3.6,-0.78 -0.96,-0.93 -0.88,-1.49 1.07,-0.26 1.85,0.75 4.7,0.87 0.75,0.43 z m -15.46,-4.5 -1.9,-0.35 -0.77,-0.71 -0.93,-2.49 0.08,-1.32 0.19,-0.69 0.55,-0.52 3.47,-0.99 1,0.48 1.26,1.7 0.05,0.89 -0.76,0.97 -0.22,1.82 -1.28,0.99 z m -16.92,-7.07 0.82,-0.13 1.71,0.74 0.51,-0.39 -1.14,-0.71 -0.32,-0.63 0.12,-1.18 0.95,-0.55 2.4,-0.27 2.46,0.31 -0.12,0.51 0.35,0.77 3.45,2.31 0.74,0.79 0.28,2.15 1.4,3.2 2.34,1.09 2.47,-0.36 1.21,0.33 4.51,3.78 2.02,1.07 1.09,3.06 -0.19,1.73 0.4,1.37 3.72,3.74 2.07,1.13 5.54,0.01 1.16,0.63 2.56,3.08 0.02,1.2 -8.84,4.63 -1.43,-1.18 -1,0.01 1.9,1.34 0.82,0.24 1.24,-1.12 4.24,-0.78 4.47,-2.52 0.99,-1.34 2.26,-0.84 1.72,0.63 5,3.76 1.24,4.89 -3.61,0.41 -0.39,1.3 -2.66,1.83 0.49,0.22 0.68,-0.57 1.26,-0.1 -0.32,0.63 1.63,0.21 1.68,0.73 0.89,1.31 -1.52,0.05 -1.68,0.73 -0.35,1.13 -2.63,1.75 -0.38,2.14 1.1,1.4 v 0 l -1.18,0.12 -0.84,0.47 -0.39,-0.31 -3.61,-0.62 -2.02,0.14 -1.71,2.32 -2.1,1.5 -1.1,1.66 -0.69,0.08 -0.81,0.66 -0.61,-0.43 -2.24,-0.25 -0.47,-0.76 -1.22,-0.12 0.04,-0.64 -1,-0.51 -0.29,-0.76 -1.82,0.57 -0.61,-0.8 -0.77,0.29 -2.18,-0.68 -0.59,0.62 -0.24,-0.21 -0.59,0.29 -0.18,0.62 -0.81,0.18 -0.04,0.31 -0.6,-0.1 v 0 l -0.21,-0.13 v 0 h -0.89 l -1.77,-0.68 0.03,-0.29 -1.01,-1.06 -1.57,-0.71 -1.69,-1.23 -0.09,-0.56 -0.92,-0.41 0.09,-0.41 -1.71,-0.61 -1.09,-0.82 -0.12,-0.41 -2.01,-0.97 -0.71,-1.53 0.21,-1.06 -0.8,-0.59 -1.24,0.21 -0.19,0.72 -1.03,-0.47 -0.27,-0.94 -0.86,-0.79 -0.65,-3 0.5,-0.73 0.53,0.44 0.59,-1.03 0.09,-0.85 -0.38,-0.94 0.27,-1.33 -0.38,-1 -0.53,-0.32 -0.65,0.23 -1.33,1.32 -1.09,-0.03 -2.84,-0.79 -0.77,-1.73 -0.38,-0.26 -0.38,-0.15 -1.18,0.47 -0.15,-1.59 -1.27,-2.64 0.09,-0.94 0.83,-1.29 -0.47,-0.73 -1.06,-0.43 v 0 l -0.87,-1.02 0.28,-0.2 v -1.14 l -0.43,0.04 -0.43,-0.71 0.75,-0.04 0.39,-0.9 -0.35,-1.02 -0.39,-0.16 0.04,-0.43 1.18,-0.39 -0.95,-1.25 -0.2,-1.59 -1.02,-1.53 0.39,-0.27 3,-0.16 v -0.35 h 1.06 l 0.32,-0.55 h 0.79 L 90,101.1 89.96,100 90.47,98.82 90.35,97.8 89.76,97.68 90.06,97 89.82,96.22 87.93,95.87 87.65,95.56 88.87,89.21 88,86.7 l -0.16,-1.33 0.39,-1.92 1.39,3.69 1.34,1.39 z"
       inkscape:connector-curvature="0"
       style="fill:#cccccc;fill-opacity:1;stroke:#ffffff;stroke-width:0.5;stroke-opacity:1" />
    <path
       id="ID-SA"
       title="Sulawesi Utara"
       class="land"
       d="m 517.55,102.27 -0.89,1.24 -0.77,2.53 -2.54,3.95 -1.32,0.57 -2.73,2.31 -1.93,3.68 -1.93,2.33 -2.09,1.07 -1.29,0.31 -5.19,0.66 -2.95,0.7 -2.24,0.26 -1.02,-0.31 -2.22,0.02 v 0 l 1.09,-2.41 0.08,-2.09 -0.31,-0.85 -0.54,-0.58 -2.02,-0.35 -1.21,-0.89 -0.62,-0.54 -0.23,-1.31 -0.7,-0.7 -1.4,-0.62 -0.2,-0.81 v 0 l 2.33,-0.11 5.29,1.48 0.9,-0.3 3.84,0.91 1.58,-0.06 6.57,-3.09 1.25,-2.68 0.99,-0.4 2.91,0.04 0.42,-0.58 -0.01,-0.61 -1.18,-0.29 -0.26,-0.45 0.44,-1.14 1.13,-0.82 1.69,0.31 2.02,-1.14 0.21,-0.54 -0.49,-1.34 2.62,-2.05 1.07,-0.09 1.71,0.49 0.68,0.55 -0.08,1.03 1.44,1.22 -0.32,0.85 z m 4.74,-20.79 -0.68,-0.13 -0.38,-1.48 0.45,-1.18 0.53,-0.24 0.67,0.6 -0.83,1.18 0.41,1.02 z m 3.02,-16.98 -0.22,0.56 1.01,1.29 0.59,0.16 0.12,1.26 -0.64,0.96 -0.37,-0.06 -0.09,0.62 -0.47,-0.98 -0.5,0.02 -0.69,-0.71 -0.28,0.05 -0.33,-1.16 0.47,-1.04 -0.45,-0.54 0.33,-0.12 -1.59,-0.79 -0.13,-1.27 0.73,-0.26 1.03,0.19 z m 19.42,-3.15 -0.49,-0.25 -1.27,-2.8 -0.13,-1.03 0.68,0.28 1.39,1.87 z m 0.85,-3.22 -1.08,-0.15 -0.16,-1.28 0.72,-0.61 0.98,-1.85 -0.21,-0.6 -1.16,-0.4 -0.29,-0.96 0.5,-3.05 0.35,-0.63 1.27,0.23 0.78,0.7 0.96,3.62 -0.78,1.17 -1.28,3.23 z"
       inkscape:connector-curvature="0"
       style="fill:#cccccc;fill-opacity:1;stroke:#ffffff;stroke-width:0.5;stroke-opacity:1" />
    <path
       id="ID-SB"
       title="Sumatera Barat"
       class="land"
       d="m 90.64,179.48 0.17,1.33 -1.47,0.37 1.37,2.66 -0.37,0.5 -0.6,-0.83 -0.63,-0.3 0.2,-0.17 -0.2,-0.33 -0.77,-0.27 0.03,-1.76 -0.6,-0.8 -0.6,0.07 -1.33,-2.02 0.27,-0.83 -0.4,-2.22 1.03,-0.37 1.37,1.73 0.9,0.53 1.7,1.89 z m -5.5,-4.42 -0.03,0.4 -1.07,0.17 -0.53,-0.46 -0.4,0.63 -0.43,-0.37 0.13,-0.33 -0.37,-0.4 0.3,-1.89 -0.33,-1.36 -0.47,-0.3 0.4,-1.46 0.5,0.1 0.73,1.03 2.04,1.36 0.83,1.46 -0.17,0.76 z m -7.48,-11.39 1.23,2.26 0.6,0.33 0.43,0.7 0.33,0.73 -0.17,0.36 -0.37,-0.73 -0.6,0.2 -0.23,-0.5 h -0.8 l -0.97,-0.83 -1.37,-0.1 -1.27,-2.19 0.27,-0.4 0.47,0.1 -0.3,-0.4 0.03,-1.26 0.53,-0.43 h 0.6 l 1.33,1.13 z m -13.5,-20.57 0.33,0.99 -0.53,-0.33 0.4,1.29 1,0.8 0.1,0.76 1.1,1.86 -0.13,0.3 0.57,0.66 0.03,0.63 1.17,1.33 0.1,0.7 -0.6,-0.2 0.4,0.53 0.73,0.27 0.4,1.69 0.67,-0.23 0.47,0.66 0.1,1.46 -0.33,0.5 -0.73,-1.13 0.47,1.56 -0.43,0.4 -1.13,-0.33 -1.07,0.53 -4.1,-2.22 -0.8,-1.09 0.2,-0.33 -0.63,-1.23 -3.47,-5.14 -0.1,-0.43 1.17,-2.55 -0.03,-1.06 0.63,-0.66 h 1.97 l 1.47,-0.8 z m 16.52,-31.94 0.39,0.35 0.67,-0.12 0.32,0.71 1.58,0.82 2.13,0.71 -0.2,-0.15 v 0 l 1.06,0.43 0.47,0.73 -0.83,1.29 -0.09,0.94 1.27,2.64 0.15,1.59 1.18,-0.47 0.38,0.15 0.38,0.26 0.77,1.73 2.84,0.79 1.09,0.03 1.33,-1.32 0.65,-0.23 0.53,0.32 0.38,1 -0.27,1.33 0.38,0.94 -0.09,0.85 -0.59,1.03 -0.53,-0.44 -0.5,0.73 0.65,3 0.86,0.79 0.27,0.94 1.03,0.47 0.21,-0.73 1.24,-0.21 0.8,0.59 -0.21,1.06 0.71,1.53 2.01,0.97 0.12,0.41 1.09,0.82 1.71,0.61 -0.09,0.41 0.92,0.41 0.09,0.56 1.69,1.23 1.57,0.71 1.01,1.06 -0.03,0.29 1.77,0.68 h 0.89 v 0 l 0.24,0.15 v 0 l 0.06,1.88 0.53,0.44 0.47,-0.18 -1.12,1.88 -1.57,0.35 -0.62,0.62 0.41,1.62 -0.41,0.68 0.41,0.59 -0.62,1.11 -2.01,1.23 -1.18,1.79 -1,0.26 -0.38,-0.35 -1.18,0.15 -1.6,0.24 -0.56,0.35 -0.68,-0.71 -0.33,0.38 -0.68,-0.32 0.21,3.64 0.77,1.41 1.06,0.73 0.38,0.73 0.74,3.32 v 0 l -0.24,0.53 v 0 l -0.8,0.97 -3.86,2.55 v 0 l -2.28,-2.75 -0.4,-1.59 -0.84,-1.17 0.04,-0.46 1.04,-1.26 0.01,-1.18 -0.45,-1.67 -3.43,-4.62 -0.9,-2.38 -0.76,-0.78 0.41,-1.16 -0.43,-0.98 -1.15,-0.37 -0.8,-0.75 -0.4,0.29 -0.38,-0.11 0.13,-0.62 0.44,0.07 -1.22,-1.62 -0.02,-0.29 0.33,-0.02 -0.33,-0.73 0.3,-0.67 -1.09,-3.49 -3.27,-3.43 -1.38,-2.28 -2.3,-1.89 -0.49,-0.94 -1.13,-0.68 -0.38,-1.37 -0.91,-1.31 0.26,-1.34 -0.58,-0.87 -2.83,-1.96 -2.97,-1.1 -0.78,-1.27 -0.8,-0.1 -1.12,0.41 -1.18,-0.42 0.93,-1.39 1.54,-0.43 1.5,-2.39 1.7,-0.9 1.06,0.43 1.46,-0.51 0.59,1.06 0.63,0.47 0.83,-0.43 1.54,0.31 1.22,-0.43 0.67,-0.82 v -0.67 l -0.67,-0.51 -0.08,-1.17 -1.26,-0.24 -0.28,-0.78 0.28,-0.63 -0.08,-2.08 z"
       inkscape:connector-curvature="0"
       style="fill:#cccccc;fill-opacity:1;stroke:#ffffff;stroke-width:0.5;stroke-opacity:1" />
    <path
       id="ID-SG"
       title="Sulawesi Tenggara"
       class="land"
       d="m 446.67,174.2 1.63,0.42 1.42,0.94 0.7,-0.57 1.12,-0.13 0.59,1.35 -0.31,0.91 1.26,0.85 1.2,0.16 1.55,-1.38 1.51,-0.58 v 0 l 4.63,1.64 0.64,-0.33 2.22,0.32 0.51,0.68 1.08,0.21 0.05,1.21 0.87,0.79 0.55,-0.1 0.42,1.04 0.7,0.12 0.02,0.64 v 0 l -0.88,1.22 0.19,0.77 2.18,0.96 0.71,1.16 -0.15,0.41 -0.36,0.15 -2.43,-2.18 -0.75,-0.01 0.72,1.29 -0.42,1.26 -1.18,0.47 -0.03,0.39 0.83,1.32 3.87,2.42 0.61,1.44 0.46,0.3 2.18,-0.04 0.1,0.4 -0.5,0.36 -0.16,0.97 0.66,0.34 0.11,0.36 -0.33,0.43 0.57,1.3 2.62,-0.05 -0.11,-0.42 -0.84,-0.61 -0.19,-0.42 0.21,-0.11 0.63,0.04 0.69,0.49 0.85,2.64 -0.13,2.76 -1.2,0.96 -2.47,-1.96 -0.3,0.05 0.05,0.56 1.52,1.56 0.08,0.43 -0.64,0.49 -0.3,-0.41 -0.56,0.26 -0.66,-1.32 -0.76,-0.5 -2.08,1.01 -0.82,-0.1 -2.74,0.76 -0.75,-0.14 -1.33,0.74 -0.93,0.17 -0.97,2.57 0.33,1.08 0.88,1.11 -1.25,1.3 -1.68,0.04 -1.53,-0.7 -2.06,-0.22 -0.97,0.17 -0.66,-0.71 -1.57,-0.61 -1.47,-2.02 0.25,-1.82 0.75,-2.28 -0.09,-1.42 0.41,-1.16 0.51,-0.25 0.66,-1.42 -0.31,-1.97 -1.32,-0.51 -2.39,-0.35 -1.57,-1.97 -0.46,-0.2 -0.2,-0.86 h -1.12 l -1.02,-1.36 -4.18,-3.71 -0.23,-0.68 0.33,-1.74 1.61,-2.19 0.7,-0.35 0.61,-1.54 -0.05,-2.32 0.5,-1 -0.04,-1.64 -0.51,-0.03 -0.25,-0.79 -0.14,0.44 -0.57,-0.13 0.34,0.34 -0.04,0.23 -0.31,-0.03 -0.4,-1.13 0.47,0.15 z"
       inkscape:connector-curvature="0"
       style="fill:#cccccc;fill-opacity:1;stroke:#ffffff;stroke-width:0.5;stroke-opacity:1" />
    <path
       id="ID-SN"
       title="Sulawesi Selatan"
       class="land"
       d="m 444.71,252.2 1.11,-0.05 1.17,0.37 -0.33,0.47 -0.77,0.12 -3.17,-0.52 -0.44,-0.52 0.41,-0.27 z m -4.27,-4.15 1.12,0.55 0.46,-0.28 -0.1,1.28 -1.67,0.22 -0.61,-0.43 -0.22,-0.64 0.15,-1.19 z m -3.12,-10.68 -0.42,0.95 -0.34,-1.8 0.2,-1.27 -0.46,-2.48 -0.08,-4.31 0.39,-2.09 0.42,-0.36 1.28,4.46 z m -11.04,-76.1 0.4,0.54 1.85,-1.38 1.8,0.04 0.13,0.58 0.84,0.38 h 1.8 l 1.34,0.58 0.8,-2.88 0.29,-0.12 2.9,3.96 1.13,1.08 1.3,0.67 0.76,0.33 h 0.84 l 0.08,-0.33 0.46,-0.13 1.01,0.15 5.71,2.31 1.72,0.29 0.96,0.58 1.54,0.06 1.27,0.98 1.45,0.28 0.67,1 0.45,-0.06 0.64,0.5 1.26,2.55 -0.9,0.44 -1.44,2.48 v 0 l -1.52,0.58 -1.54,1.37 -1.2,-0.15 -1.26,-0.86 0.31,-0.9 -0.6,-1.35 -1.11,0.12 -0.7,0.57 -1.42,-0.94 -1.64,-0.42 v 0 l 0.42,-0.46 -0.77,-1.11 -4.37,-1.02 -3.47,1.71 -6.39,4.33 1.14,3 1.91,1.21 0.52,0.88 -0.24,4.34 0.57,1.33 0.32,2.23 -1.6,3.39 -0.18,3.35 0.77,1.06 -0.51,3.74 0.67,1.83 0.46,3.2 -0.54,1.82 -1.42,1.21 -0.01,2.37 -0.73,2.79 2.04,3.47 1.24,4.79 -0.83,-0.28 -1.37,-1.77 -4.03,1.45 -2.91,-0.58 -1.3,1.09 -0.25,0.75 -0.92,0.61 -1.93,-0.05 -0.83,-1.41 -2.76,-0.96 -1.9,-2.82 0.41,-3.77 1.58,-2.36 0.87,-2.18 0.08,-0.77 -0.57,-2.35 1.79,-2.95 0.49,-4.11 0.05,-2.35 -0.49,-3.72 -2.59,-4.7 1.17,-2.28 -0.46,-1.39 v 0 l -0.93,-3.96 -0.71,-0.67 v -0.42 l 0.38,-0.29 0.38,-0.04 0.21,0.29 0.88,-0.25 0.46,-0.79 0.67,-0.25 1.05,0.04 0.04,-0.38 -1.08,-1.84 0.29,-0.7 -0.36,-0.95 0.2,-1.9 0.32,-0.75 0.75,0.29 1.55,-0.42 0.71,-0.79 0.21,-0.73 1.25,-0.92 0.23,-0.59 -0.3,-1.15 -1.65,-0.69 -0.56,-1.7 -1.52,-0.73 0.04,-1.3 1.78,-1.28 0.59,-0.79 0.72,-0.1 -0.13,-1.22 z"
       inkscape:connector-curvature="0"
       style="fill:#cccccc;fill-opacity:1;stroke:#ffffff;stroke-width:0.5;stroke-opacity:1" />
    <path
       id="ID-SR"
       title="Sulawesi Barat"
       class="land"
       d="m 421.05,141.06 -0.1,2.41 0.41,2.28 0.09,0.25 0.38,-0.08 0.03,0.51 -0.69,2.14 -1.55,0.19 -0.19,0.37 0.55,-0.19 0.11,0.24 -1.22,0.41 0.01,0.26 1.54,1.34 1.57,-0.53 1.33,0.99 -0.63,0.83 0.29,0.85 1.04,0.98 -0.08,0.63 0.39,0.13 0.44,0.76 -0.44,0.94 0.4,0.27 1.48,0.03 0.19,3.1 -0.36,0.21 0.24,0.89 v 0 l -1.02,0.46 0.13,1.23 -0.72,0.09 -0.6,0.79 -1.77,1.28 -0.04,1.3 1.52,0.73 0.56,1.7 1.64,0.69 0.3,1.14 -0.23,0.59 -1.25,0.92 -0.21,0.73 -0.72,0.79 -1.55,0.42 -0.75,-0.29 -0.33,0.75 -0.2,1.9 0.37,0.95 -0.3,0.7 1.09,1.83 -0.05,0.38 -1.05,-0.04 -0.67,0.25 -0.46,0.79 -0.88,0.25 -0.21,-0.29 -0.38,0.04 -0.37,0.29 v 0.42 l 0.71,0.67 0.93,3.96 v 0 l -3.4,-1.06 -1.26,1.1 -2.91,0.23 -2.18,1.18 -1.53,-3.97 -0.04,-4.6 0.93,-3.14 -0.39,-0.67 -0.95,-0.17 -0.71,0.33 -0.19,-1.53 0.74,-2.35 0.37,-0.23 0.7,0.56 h 0.71 l 1.74,-1.15 2.39,-2.36 -0.32,-2.87 1.42,-4.55 0.91,-0.86 0.73,-0.24 0.58,0.27 0.59,-2.28 -0.77,-0.82 -0.47,-1.72 0.45,-1.58 -0.56,-3.47 0.69,-0.74 -0.39,-1.56 0.74,-1.49 1.75,-1.51 0.97,-3.36 z"
       inkscape:connector-curvature="0"
       style="fill:#cccccc;fill-opacity:1;stroke:#ffffff;stroke-width:0.5;stroke-opacity:1" />
    <path
       id="ID-SS"
       title="Sumatera Selatan"
       class="land"
       d="m 147.97,209.18 -0.28,-0.93 -1.38,-0.22 0.39,-0.49 -0.48,-1.3 -0.64,-0.5 -0.78,-0.04 0.71,-0.62 -1.09,-1.04 0.83,-1.06 -0.32,-1.22 -0.56,-0.18 -0.98,0.36 -0.89,-0.91 -1.7,-0.13 -1.22,-1 -1.91,-0.31 -0.01,-1.63 -0.96,-2.04 -0.69,-0.29 -2.2,0.08 -0.87,-0.79 -0.61,0.29 -0.76,-0.2 -2.42,-1.98 -0.57,-0.8 -0.67,-0.2 2.03,-1.01 0.12,-1.14 1.12,-1.07 0.07,-1.45 0.69,0.26 0.89,1.2 0.89,-0.69 0.68,-0.95 0.29,-2.11 -0.21,-0.45 -0.79,-0.09 -0.82,0.32 -0.12,-0.87 -0.56,0.25 -0.83,-0.14 -0.57,-0.92 -2.55,1.15 -0.88,-0.35 -1.67,-1.52 0.2,-0.5 -0.23,-0.15 0.11,-1.22 -0.29,-0.74 -0.63,-0.58 -0.97,-0.22 -1.15,0.4 -1.09,-0.58 -0.7,-1.83 -1.45,-0.96 -0.14,-0.71 -0.85,-0.54 -0.21,-0.59 v 0 l 0.52,0.15 v 0 l 0.4,-0.73 1.62,-0.48 0.41,-0.44 0.08,-0.73 0.56,-0.24 0.85,0.52 0.49,-0.2 1.09,0.85 0.69,0.16 0.85,0.16 1.01,-0.52 0.48,0.2 0.81,-1.17 1.7,-1.08 0.56,0.12 0.45,-0.36 1.54,-2.14 -0.61,-1 0.57,-0.84 2.62,0.6 0.29,-0.52 1.41,0.64 1.54,-0.6 -0.16,-0.73 -0.69,-0.68 1.21,-1.69 0.81,0.44 0.08,0.77 0.81,1 2.06,1.53 -0.04,-2.94 1.78,-0.76 -0.56,-0.48 0.32,-3.62 1.09,-0.96 2.18,-0.81 1.66,-0.08 0.29,-0.52 0.72,-0.36 1.46,0.6 1.25,-0.18 1.08,0.27 2.27,-0.75 1.99,-0.16 0.32,-0.43 -0.1,-0.75 0.48,-0.43 0.54,-0.11 1.28,0.52 v 0 l 0.64,0.99 0.16,0.9 -0.97,1.63 0.23,1.14 0.72,-1.28 0.41,0.07 3.34,2.35 1.37,0.06 0.95,1.14 0.26,2.04 -1.05,1.1 -0.32,-0.06 -0.59,0.48 -1.12,1.79 0.88,0.15 1.3,-1.62 1.05,-0.23 0.44,0.8 1.13,0.06 2.02,0.77 1.48,-0.83 2.41,0.84 4.69,0.32 0.28,0.6 -0.46,1.73 0.27,1.43 0.89,1.02 1.84,0.33 0.21,0.62 -0.19,2 0.63,1.29 0.71,0.62 2.06,-0.05 1.24,0.74 0.02,2.22 0.78,1.97 -2.01,1.3 -1.11,1.16 -1.52,3.63 -0.15,1.13 0.24,0.9 1.75,1.2 0.41,0.97 -0.21,0.85 -1.51,2.68 -0.22,1.65 -0.28,0.36 v 0 l -0.81,-0.82 -0.56,0.46 -0.76,-0.08 -0.37,-0.94 h -0.65 l 0.22,-0.59 -0.94,0.13 0.45,-0.83 -0.75,-0.94 h 0.38 l -0.11,-0.32 -0.67,-0.08 0.05,-0.45 -0.35,-0.27 v 0 h -0.54 v 0 l 0.14,-0.81 -1.56,-0.21 -0.11,-0.72 -0.32,-0.08 -0.87,0.34 -0.51,-1.2 -0.86,1.34 0.27,0.61 -0.21,0.49 -0.7,0.64 -0.68,-0.24 -0.54,0.27 -0.1,0.51 -0.38,-0.06 -0.27,1.07 -0.43,0.43 0.3,0.35 -0.68,0.38 -0.32,0.96 -0.99,0.94 -1.24,0.21 -1.13,0.57 -0.08,0.34 -1.48,0.25 -2.21,-0.11 -0.62,-0.56 -2.5,1.55 -0.62,-0.05 -1.31,1.15 -0.62,1.29 0.3,2.7 -0.65,0.65 -0.27,0.77 0.54,0.33 0.06,0.83 0.78,0.96 -0.76,1.29 -1.91,-0.35 -1.51,0.99 -1.18,-0.56 -1.64,0.38 -0.51,-0.38 -0.46,1.24 -1.1,-0.73 0.43,-0.62 v -0.53 l -0.38,-0.49 -0.43,-0.02 -0.05,-0.51 -0.65,0.05 v 0 z"
       inkscape:connector-curvature="0"
       style="fill:#cccccc;fill-opacity:1;stroke:#ffffff;stroke-width:0.5;stroke-opacity:1" />
    <path
       id="ID-ST"
       title="Sulawesi Tengah"
       class="land"
       d="m 491.45,219.17 -1.17,-0.09 -0.65,-1.23 -0.08,-0.8 1.31,0.15 0.49,0.4 z m -27.91,1.73 -1,0.06 -2.66,-3.58 0.92,-3.06 0.85,-0.57 1.22,0.38 1.36,2.6 -0.11,3.33 -0.17,0.61 z m 12.09,-14.43 0.81,4.37 -0.08,1.01 -2.23,1.93 -0.8,1.74 0.99,1.86 -0.24,1.32 -0.71,1.21 -0.94,0.26 -1.63,-0.58 -2.94,-0.38 -0.19,-0.93 0.84,-3.01 0.26,-0.61 1.03,-0.86 -0.13,-1.46 -1.01,-2.32 0.74,-1.61 2.55,-0.58 1.43,-1.12 1.63,-0.79 z m 8.55,1.04 -0.15,2.99 -0.61,-0.66 0.15,-1.02 -0.73,-1.1 -0.4,0.21 0.16,2.07 -0.36,0.25 -0.76,-0.51 0.36,-1.27 -0.56,0.07 -0.96,3.26 -0.18,2.77 0.73,0.62 0.37,-0.08 2.93,2.31 0.03,0.37 -1.24,1.59 -1.61,0.7 -0.91,-0.54 -2.12,1.2 -0.23,0.69 0.68,0.05 0.23,0.33 -1.48,2.59 -0.44,0.27 -2.56,-0.12 -1.5,-3.08 2.87,-4.36 0.8,-2.15 1.25,-5.5 -0.16,-2.8 1.21,-3.05 2.04,-1.44 h 0.82 l -0.3,0.52 0.24,0.76 1.01,0.56 1,1.4 z m -2.3,-11.67 1.84,-0.3 1.07,1.41 -0.09,0.72 -1.82,2.19 -1.36,-0.08 -1.95,-2.56 -0.02,-0.73 0.94,-1.04 0.66,-0.14 z m 2.16,-48.96 0.48,0.99 -0.7,1.14 0.85,1.58 0.44,-0.07 0.41,-0.99 1.26,-1.51 0.81,-0.37 2.51,1.18 -0.44,2.76 -1.26,1.25 -0.52,0.04 -1.18,-0.55 -0.92,-1.25 -0.78,0.7 -0.48,2.57 -0.81,0.33 -0.96,-0.26 -0.41,-0.55 1.37,-1.21 -0.74,-3.56 -1.59,1.58 -0.26,1.07 -0.78,1.21 -1.18,1.07 -0.96,0.07 -0.7,-1.62 -0.74,-0.55 v -0.85 l 0.48,-1.84 1.26,-1.73 0.33,-0.4 0.44,-0.04 0.74,0.44 2.33,-0.85 0.63,0.7 0.44,-0.88 z m -33.95,-41.37 2.45,-0.25 1.24,-0.82 0.32,0.22 v 0.42 l -0.2,0.29 -0.83,0.17 0.97,1.65 1.49,1.22 0.66,0.17 5.74,-0.78 1.08,1.43 1.22,-0.81 2.32,0.76 v 0 l -2.52,0.82 -0.52,0.6 h -0.38 l -0.42,0.92 -0.91,-0.69 -0.48,-0.8 -0.85,0.14 -0.79,0.61 -3.19,1.25 h -1.45 l -0.48,0.42 -1.33,-0.05 -0.89,-0.51 -0.35,0.41 -0.02,0.96 -0.52,0.1 -0.97,-0.38 -1.06,0.38 -0.35,0.34 -0.06,1.06 -0.32,0.17 1.33,1.52 1.76,0.37 0.17,1.46 -0.29,0.5 v 0 l -1.37,-0.41 -1.73,0.44 -0.62,0.82 -2,-0.24 -1.53,0.35 -3.75,-1.75 -3.39,-0.19 -2.82,1.23 -1.7,1.71 -2.12,3.1 0.35,0.33 -0.54,0.83 -0.2,2.11 -0.59,0.63 -0.49,-0.07 0.07,1.34 -0.46,1 -0.05,1.36 1.03,2.87 -0.4,3.06 0.29,0.72 3.78,4.9 0.84,0.25 1.09,-0.59 0.81,0.98 1.1,0.11 1.44,2.34 -0.38,2.1 0.8,0.68 1.03,2.16 0.51,0.06 0.82,-0.43 0.25,-0.56 0.51,-0.22 0.68,0.01 v 0.72 l 0.72,0.52 1.18,-0.16 2.43,0.3 1.38,-1.54 1.08,-2.17 2.22,-2.78 1.54,-1.27 0.66,-1.19 1.77,-0.63 0.21,-0.93 0.5,-0.15 0.67,0.27 -0.33,1.48 0.25,0.37 1.38,0.65 2.18,0.25 0.91,0.39 1.32,-0.88 0.75,-0.14 1.18,0.3 0.51,-0.51 0.39,-1.97 1.5,-0.58 0.97,0.43 2.68,-1 3.73,0.53 4.31,-0.27 0.7,-0.36 -0.07,-0.26 -1.44,-0.51 -1.99,-0.2 -0.44,-0.57 1.48,-0.63 3.33,-0.18 1.08,-0.81 2.66,0.11 1.54,0.59 1.69,0.91 0.75,1.92 -0.14,1.24 -0.79,0.92 -0.34,1.94 -0.82,0.89 -1.54,-0.38 -1.26,-1.46 -0.33,-0.9 -1.46,-0.34 -4.31,0.63 -1,2.18 -1.3,1.42 -1,1.73 -1.18,0.94 -3.18,3.63 -3.72,2.08 -2.62,0.34 -1.01,0.66 -2,0.39 -0.66,0.5 -0.97,2.39 -1.34,1.12 -2.2,0.14 -1.6,-1.9 -1.95,-0.84 -0.51,0.26 -0.17,1 0.87,2.52 0.38,-0.3 1.08,-0.06 2.44,3.23 0.85,0.34 0.91,-0.16 0.78,0.23 2.11,2.17 2.27,3.87 0.78,2.54 5.07,3.79 0.02,0.68 -0.74,1.48 1.91,1.71 0.8,-0.1 0.93,0.68 -1.09,1.29 -0.98,-0.27 -0.33,0.32 v 0 l -0.01,-0.63 -0.7,-0.13 -0.42,-1.04 -0.55,0.1 -0.87,-0.79 -0.05,-1.21 -1.08,-0.21 -0.51,-0.69 -2.21,-0.32 -0.65,0.33 -4.62,-1.63 v 0 l 1.44,-2.48 0.9,-0.44 -1.26,-2.55 -0.64,-0.5 -0.45,0.06 -0.67,-1 -1.45,-0.28 -1.27,-0.98 -1.54,-0.06 -0.96,-0.58 -1.72,-0.29 -5.71,-2.31 -1.01,-0.15 -0.46,0.13 -0.08,0.33 h -0.84 l -0.76,-0.33 -1.3,-0.67 -1.13,-1.08 -2.9,-3.96 -0.29,0.12 -0.8,2.88 -1.34,-0.58 h -1.8 l -0.84,-0.38 -0.13,-0.58 -1.8,-0.04 -1.85,1.38 -0.4,-0.54 v 0 l -0.24,-0.89 0.36,-0.21 -0.19,-3.09 -1.48,-0.03 -0.4,-0.27 0.44,-0.94 -0.44,-0.77 -0.39,-0.12 0.08,-0.63 -1.04,-0.98 -0.28,-0.85 0.63,-0.83 -1.33,-0.99 -1.57,0.53 -1.55,-1.35 v -0.26 l 1.22,-0.41 -0.11,-0.25 -0.55,0.2 0.19,-0.38 1.55,-0.19 0.7,-2.14 -0.03,-0.5 -0.38,0.08 -0.09,-0.25 -0.41,-2.28 0.11,-2.41 v 0 l 1.92,-1.56 0.15,-0.99 0.91,-0.6 1.69,3.79 0.5,-0.5 -0.23,-2.34 -0.82,-1.07 -0.84,-2.81 0.14,-2.57 0.94,-2.41 -0.33,-1.19 -1.36,0.42 -0.32,-0.15 -0.71,-0.49 -0.98,-1.82 1.1,0.19 -0.08,-0.58 0.86,0.44 0.51,0.41 -0.05,0.41 0.71,0.87 0.71,0.17 0.68,-0.78 0.39,-1 -0.04,-1.63 -1.8,-2.36 0.42,-0.27 1.73,0.32 -0.23,-1.23 -0.62,-0.94 1,-2.14 2.15,-0.92 0.14,-0.78 -0.36,-1.65 0.21,-0.86 0.74,-0.62 h 0.75 l 1.75,-0.97 0.54,-2.72 0.62,-0.45 0.91,0.2 -0.01,2.04 1.39,0.93 2.68,0.49 0.6,-1.94 0.63,-1.02 0.7,-0.73 1.12,-0.39 0.82,-0.87 0.5,-2.27 -0.18,-1.4 0.2,-0.77 2.11,-0.32 2.48,0.31 z"
       inkscape:connector-curvature="0"
       style="fill:#cccccc;fill-opacity:1;stroke:#ffffff;stroke-width:0.5;stroke-opacity:1" />
    <path
       id="ID-SU"
       title="Sumatera Utara"
       class="land"
       d="m 55.34,130.93 0.42,0.04 0.71,0.82 0.55,1.42 -0.33,0.36 0.15,1.48 -0.46,0.42 0.31,0.97 -0.59,0.17 0.13,-0.76 -0.84,0.17 -0.08,0.97 -0.9,-0.82 -1.41,-0.47 0.59,-0.25 0.38,0.21 0.21,-0.84 0.33,-0.23 0.15,-1.99 0.86,-0.55 0.17,-0.42 z m -0.54,-4.25 0.1,0.23 0.32,-0.23 v 0.49 l 1.11,1.29 0.21,1.79 1.4,1.27 -0.08,0.91 -0.44,0.25 0.15,0.8 -0.5,-1.18 -2.64,-3.68 -0.32,-1.1 -0.96,-0.47 0.99,-0.46 z m 3.91,-3 1.53,-0.03 0.29,0.32 1.26,-0.25 1.04,0.99 -0.04,0.56 -1.22,-0.23 -0.53,0.42 h -1.67 l -2.12,-0.55 -0.11,-0.67 0.79,-0.54 z m -18.92,-21.46 2.79,4.11 1.77,0.62 2.11,1.87 0.46,1.18 -0.7,1.61 -0.16,4.02 -1.31,1.6 -1.93,-0.49 -1.51,-4.1 -2.06,-2.14 -1.42,-0.26 -2.77,-5.22 -2.35,-2.29 0.75,-0.31 1.63,-0.07 1.39,-1.24 1.11,-0.23 1.49,0.54 z m 16.86,-4.05 0.68,0.12 0.3,-0.51 0.82,0.94 -1.96,0.03 -0.71,-0.26 -0.19,-0.49 0.48,-0.63 0.59,0.25 v 0.55 z M 20.9,86.43 l -2.04,-0.35 -0.3,-1 -4.1,-2.69 -4.16,-1.31 -2.02,-1.93 -0.09,-0.89 1.62,-2.03 1.61,0.31 1.96,2.43 1.81,0.44 1.95,2.1 2.31,1.59 1.46,0.6 0.91,2.27 z m 29.74,3.28 0.61,-2.79 -0.53,-1.62 -0.83,-0.35 0.06,-0.71 -0.41,-0.56 -0.18,-1 0.24,-1.41 0.62,-0.21 -0.68,-1.41 0.38,-0.88 -0.21,-0.56 -0.95,-0.12 -0.59,-1.06 -0.92,-0.24 -0.44,-2.74 0.8,-0.06 0.09,-0.97 -0.62,-0.65 -0.06,-0.74 -1.18,-0.79 2.37,-0.65 0.24,-0.79 -0.38,-0.71 -0.27,0.12 -0.65,-0.44 -0.3,-1 0.33,-0.53 -0.56,-0.41 -0.21,-0.88 -0.74,-0.35 0.03,-0.74 -1.06,-1.83 1.92,-1.8 -0.21,-1.41 0.74,0.35 0.09,-0.65 1.21,-0.65 0.41,-2.59 0.47,-0.68 -0.15,-0.47 0.41,-0.24 -0.18,-1.12 0.95,-0.03 0.33,-0.44 0.77,-0.21 1.2,0.01 v 0 l 0.1,2.71 0.77,1.04 1.19,-0.04 2.61,1.3 0.82,1.3 1.74,0.44 0.35,0.59 0.13,1.36 2.14,1.41 2.23,0.73 1.77,0.98 3.96,2.5 1.18,1.06 1.21,0.47 0.92,0.65 1.08,1.63 3.74,1.76 3.74,3.46 0.23,2.53 -0.71,1.39 0.04,0.44 1.14,1.28 -0.27,0.26 0.51,-0.15 -0.31,-0.75 0.24,-0.46 -0.94,-0.5 0.94,-0.63 0.4,0.07 0.71,0.77 -0.07,1.39 0.73,1.7 -0.27,-2.39 0.89,-0.88 0.62,0.02 1.91,2.7 0.22,0.56 -0.4,1.27 0.12,2 0.87,2.51 -1.22,6.35 0.28,0.31 1.89,0.35 0.24,0.78 -0.35,0.71 0.59,0.12 0.12,1.02 -0.51,1.18 0.04,1.1 -0.83,0.71 h -0.79 l -0.32,0.55 h -1.06 v 0.35 l -3,0.16 -0.39,0.27 1.02,1.53 0.2,1.59 0.95,1.25 -1.18,0.39 -0.04,0.43 0.39,0.16 0.35,1.02 -0.39,0.9 -0.75,0.04 v 0.23 l 0.43,0.47 0.43,-0.04 v 1.14 l -0.28,0.2 1.06,1.17 -3.71,-1.53 -0.32,-0.71 -0.67,0.12 -0.67,-0.39 -0.59,0.35 0.08,2.08 -0.28,0.63 0.28,0.78 1.26,0.24 0.08,1.17 0.67,0.51 v 0.67 l -0.67,0.82 -1.22,0.43 -1.54,-0.31 -0.83,0.43 -0.63,-0.47 -0.59,-1.06 -1.46,0.51 -1.06,-0.43 -1.7,0.9 -1.5,2.39 -1.54,0.43 -0.93,1.39 -0.22,-0.09 -0.26,-0.21 0.32,-0.15 v -0.87 l -0.79,-0.48 0.42,-1.16 -0.58,-2.95 -4.58,-12.48 -1.33,-3.04 -0.83,-1.06 0.2,-0.32 0.45,0.48 0.38,-0.08 0.85,-1.33 0.03,-0.83 -1.69,-1.97 -0.49,0.31 0.5,0.15 0.21,0.68 -1.15,-0.44 -2.59,-3.27 z"
       inkscape:connector-curvature="0"
       style="fill:#cccccc;fill-opacity:1;stroke:#ffffff;stroke-width:0.5;stroke-opacity:1" />
    <path
       id="ID-YO"
       title="Yogyakarta"
       class="land"
       d="m 270.07,268.13 -2.04,-0.09 -5.85,-2.13 -0.66,-0.81 -1.97,-0.62 -3.77,-1.76 v 0 l 0.58,0.03 0.31,-1.28 1.2,-1.27 -0.02,-1.59 2.16,-0.15 0.43,0.9 0.57,-0.77 2.39,-1.88 0.81,3.89 0.75,0.46 0.59,-0.14 0.21,0.34 1.48,-0.32 0.19,0.33 0.58,-0.27 0.69,0.59 0.24,-0.27 0.29,0.17 -0.55,3.38 0.57,1.61 -0.05,0.75 0.23,0.18 0.54,-0.37 -0.24,0.61 0.38,-0.02 z"
       inkscape:connector-curvature="0"
       style="fill:#cccccc;fill-opacity:1;stroke:#ffffff;stroke-width:0.5;stroke-opacity:1" />
    <path
       id="TL"
       title="Timor-Leste"
       class="land"
       d="m 506.06,285.08 -0.41,1.58 0.12,0.56 -0.43,0.59 -0.97,0.44 0.02,0.55 -0.55,0.68 0.22,0.45 -0.23,0.5 -1.21,0.28 0.14,-0.86 -0.25,-0.61 -0.83,-0.81 -1.52,0.97 -0.26,-0.32 -0.46,0.02 -0.88,-1.19 v 0 l 1.84,-0.67 0.56,-0.7 z m 48.01,-12.17 -4.08,3.55 -3.94,1.3 -2.31,0.34 -1.29,0.62 -1.86,2.43 -5.56,0.68 -3.63,2.38 -2.78,0.35 -6.72,2.18 -1.12,0.66 -2.05,1.97 -1.42,0.21 -0.69,0.46 v 0 l -0.67,-2.32 -0.97,-0.67 -0.21,-1.46 0.28,-0.57 1.04,-0.02 0.72,0.56 0.67,-0.53 0.69,-0.08 0.09,-2.49 -1.28,-1.02 -0.6,0.97 -1.73,0.7 -0.75,-0.61 0.31,-1.16 -0.2,-0.08 v 0 l 2.67,-3.45 0.28,-1.37 0.62,-0.8 4.82,-1.09 4.92,-0.72 2.35,-0.85 1.62,0.11 2.39,0.64 2.69,-0.44 2.15,-1.23 0.93,-0.06 2.64,1.06 3.6,-1.08 4.04,-1.73 3.35,0.15 1.81,1.11 0.02,0.64 z"
       inkscape:connector-curvature="0"
       style="fill:#cccccc;fill-opacity:1;stroke:#ffffff;stroke-width:0.5;stroke-opacity:1" />
    <path
       id="MY-12"
       title="Sabah"
       class="land"
       d="m 384.2,12.54 -1.43,-0.22 -0.27,-0.31 1.77,-0.58 0.01,-0.44 -0.61,-0.08 -0.06,-0.24 1.17,-0.43 0.81,0.96 -0.04,0.47 z m -11.24,0.77 1.36,-0.21 3.21,-3.97 -0.29,-1.89 0.65,-0.77 1.32,-0.38 0.57,0.19 1.23,0.78 0.06,3.07 0.6,2.21 3.09,1.74 3.15,0.43 1.57,2.21 -0.29,2.25 -1.39,0.23 -0.72,0.88 1.08,1.79 0.21,1.84 -0.78,0.73 -2.2,0.76 4.83,-0.33 1.81,-0.65 2.07,-1.88 0.72,0.72 1.32,2.69 -0.77,0.93 -2.58,-0.06 -0.4,0.28 0.82,1.94 2.94,-0.08 0.53,-1.68 0.35,-0.29 1.42,-0.41 1.99,0.35 3.55,2.05 1.96,1.68 4.2,2.79 2.34,0.44 2.07,-0.67 0.85,0.69 0.64,1.01 -0.06,2.09 -0.84,1.29 -2.67,1.36 -2.71,0.73 -3.66,1.46 -2.63,-0.27 -1.78,-0.7 -0.58,-0.54 -1.02,-0.09 -2.54,1.28 -1.16,1.27 -0.14,0.6 2.59,2.98 2.33,1.51 0.4,-0.34 0.77,0.35 -0.31,0.94 0.73,0.65 0.6,-0.43 0.88,0.07 0.87,1.44 -1.65,1.49 -2.47,0.04 -3.82,0.71 -3.25,1.44 -1.56,-0.38 -0.74,-0.71 -2.94,-1.51 -1.1,0.36 0.39,1.49 -1.03,1.66 v 0 l -0.24,-0.17 -0.89,0.26 -1.21,-0.34 -0.64,-1.01 -3.02,-2.15 -1.25,0.57 -2.35,-0.09 -0.34,0.39 -1.95,-0.77 -1.22,0.61 -0.74,-0.17 -0.79,-0.73 -0.54,0.67 -1.6,0.17 -0.25,-0.61 -0.79,-0.57 -0.54,0.67 0.05,0.62 -0.84,-0.09 -0.23,0.54 -0.57,0.14 -0.19,-0.63 -1.17,-0.97 -1.52,0.35 -1.71,-0.4 -0.28,0.75 -0.85,0.33 -0.59,0.89 -1.02,-1.2 -1.51,-0.3 -0.33,-0.57 -0.53,0.19 0.02,1.46 -0.72,0.6 -0.13,0.57 -0.41,0.11 -0.54,-0.4 -0.79,0.91 -0.37,-0.03 -0.37,1.6 v 0 0.03 0 l -0.89,-0.5 -0.31,-0.74 0.43,-1.1 v -5.7 l -1.11,-7.6 -1.71,-0.26 v 0 l 1.37,-0.82 0.28,-1.91 -0.26,-0.4 -1.28,-0.32 -2.17,-1.53 0.36,-1.58 2.56,-2.01 4.05,-0.05 0.95,-0.24 0.54,-0.52 0.8,-1.4 0.41,-1.77 2.29,-1.61 0.04,-1.03 0.64,-1.34 0.34,-2.59 3.78,-4.07 2.98,-2.25 0.11,-0.88 2.36,-2.71 0.23,-2.52 1.02,-2.1 0.87,-0.96 1.26,1.32 0.34,2.52 -0.14,0.8 -1.22,1.97 z m 8.64,-12.73 -0.11,1.4 -0.45,1.03 -1.75,0.18 -1.44,1.1 -0.25,-1.14 0.32,-1.96 1.29,-0.87 1.34,-0.32 0.8,0.15 z m -7.06,1.69 -0.31,0.66 0.38,-1.56 2.11,-1.37 0.3,1.49 z"
       inkscape:connector-curvature="0"
       style="fill:#cccccc;fill-opacity:1;stroke:#ffffff;stroke-width:0.5;stroke-opacity:1" />
    <path
       id="MY-13"
       title="Sarawak"
       class="land"
       d="m 280.03,85.85 -0.75,0.29 -1.11,-1.56 -0.18,-4.87 0.18,-0.59 0.44,-0.22 0.91,1.41 -0.08,3.49 z m 70.35,-45.54 1.71,0.26 1.11,7.6 v 5.7 l -0.43,1.1 0.31,0.74 0.89,0.5 v 0 l -0.01,0.13 v 0 l -0.67,2.08 -1.3,0.65 0.96,1.04 -0.7,2.31 -0.05,1.55 0.67,2.43 0.58,1.01 -0.4,0.58 -0.4,-0.63 -0.34,-0.02 -0.63,1.26 -0.42,2.81 0.76,0.9 -0.81,0.67 -0.31,1.44 -1.03,0.14 -0.81,0.77 -1.23,0.09 -0.65,-1.06 -0.34,0.83 -1.59,1.06 -0.25,1.06 -0.96,0.77 0.72,0.58 -0.18,0.77 -0.6,0.52 0.23,1.01 -0.4,0.79 0.31,0.47 0.99,-0.31 1.25,1.47 -0.07,0.31 -0.6,0.5 -1.36,0.16 -0.65,1.01 h -0.67 l -0.94,0.83 -0.67,-0.11 -0.31,0.63 0.29,0.66 -0.78,0.49 -1.84,0.2 -0.32,2.13 0.51,0.48 0.04,1.41 0.76,-0.34 0.51,0.25 -0.72,0.97 0.4,0.81 -1.03,0.45 -0.45,0.64 -0.54,-0.25 -0.56,0.16 -0.42,0.93 0.11,2.3 -0.9,1.22 -0.8,0.47 0.06,1.06 -0.49,0.81 v 0 l -0.61,0.54 -2.58,-1.51 -0.58,0.54 -2.28,0.75 -0.24,0.45 v 0 l -0.34,0.14 v 0 l -1.17,-0.93 -3.05,0.32 -0.4,0.45 -1.92,0.79 -0.23,1.22 -2.92,1.44 -0.32,-0.1 -0.75,-1.34 -0.67,-0.3 -2.12,0.55 -1.8,-1.59 -2.37,-0.05 -0.75,-0.22 -0.38,-0.67 -0.37,-0.05 -1.35,0.45 -0.75,-0.07 1.62,-1.96 -0.65,-0.7 -2.37,-0.27 -1.12,0.82 -0.9,-0.42 -1.65,0.12 -2.9,-0.37 -1.65,0.94 -1.57,0.35 -1.7,0.79 -0.5,0.55 0.42,0.65 -0.05,0.65 -0.85,0.84 -0.37,2.73 -3.22,0.22 -1.35,1.39 -0.32,0.77 -1.7,-0.35 -0.58,0.17 -1.27,-0.5 -1.65,0.89 -0.32,0.55 -0.7,-1.17 -0.77,-0.12 -1.2,0.32 -2.57,-1.19 -1.95,0.57 -3.85,0.5 -0.9,1.14 -2.83,1.25 -0.45,0.02 -0.45,-0.45 -0.4,0.67 -1.27,0.05 -1.55,-0.7 -0.9,-1.37 -1.95,-0.25 -0.32,-0.97 -1.5,-2.31 -1.32,-0.07 -0.43,-0.35 -0.35,-0.87 -1.49,-0.74 -0.42,-1.69 -1.77,-0.25 -0.83,-1.29 -2.17,-1.96 -0.3,-0.65 0.42,-2.14 -0.15,-0.35 -1.2,-0.3 -0.85,-0.94 -0.23,-0.62 0.05,-0.47 0.6,-0.07 0.67,-0.97 0.5,-1.38 v 0 l 0.08,2.32 0.34,0.66 0.67,0.8 3.76,2.77 5.62,-0.26 1.34,-1.65 2.58,3.05 4.39,1.44 0.02,0.65 -1.02,0.89 0.2,0.1 0.81,-0.14 0.49,-0.46 0.21,-1.43 0.82,-0.09 2.67,1.23 1.5,1.57 1.6,0.71 2.84,0.53 1.02,-0.22 -1.58,-1.15 -2.21,0.23 -1.76,-1.07 -1,-1.89 0.5,-1.62 0.61,-0.28 2.44,-6.6 0.85,-0.98 1.21,0.31 0.78,-0.71 -0.26,-0.28 -3.15,0.29 0.18,-2 0.73,-2.76 0.33,-0.12 2.13,1.55 1.42,-0.51 -0.82,-1.93 0.79,-3.68 3.81,-2.63 7.34,-0.99 13.35,-3.37 2.52,-1.03 4.57,-5.6 2.42,-3.54 1.78,-2 3.77,-3.25 3.3,-4.26 1.19,-3.37 -0.48,-2.46 0.53,-0.29 2.04,0.12 v 0 l 1.91,0.72 1.54,2.08 0.25,1.72 3.63,3.37 1.54,2.02 0.55,-0.06 1.29,-0.73 1.23,-1.35 0.98,-3.49 -1.29,-6.74 1.11,-1.1 2.09,-0.37 0.82,-1.16 v 0 l 0.22,1.31 v 0 l -0.24,0.71 0.18,2.15 1.17,4.54 2.03,0.73 2.46,0.37 -0.12,-0.92 -1.29,-1.16 v -3.37 l -0.98,-3.06 -1.21,-1.58 v 0 l 1.25,-0.91 1.86,1.11 0.5,-0.1 z"
       inkscape:connector-curvature="0"
       style="fill:#cccccc;fill-opacity:1;stroke:#ffffff;stroke-width:0.5;stroke-opacity:1" />
    <path
       id="BN"
       title="Brunei Darussalam"
       class="land"
       d="m 404.31,46.91 -0.48,0.67 -0.67,-0.01 -3.11,-1.24 2.23,-0.3 z m -59.64,-4.6 1.21,1.58 0.98,3.06 v 3.37 l 1.29,1.16 0.12,0.92 -2.46,-0.37 -2.03,-0.73 -1.17,-4.54 -0.18,-2.15 0.24,-0.71 v 0 l 0.5,0.16 1.09,-0.8 z m -2.74,0.01 -0.13,0.26 0.66,0.03 v 0 l -0.82,1.16 -2.09,0.37 -1.11,1.1 1.29,6.74 -0.98,3.49 -1.23,1.35 -1.29,0.73 -0.55,0.06 -1.54,-2.02 -3.63,-3.37 -0.25,-1.72 -1.54,-2.08 -1.91,-0.72 v 0 l 1.5,0.19 1.69,-0.24 3.8,-1.65 2.52,-2.44 4.28,-2.83 2.19,-0.88 h 1 z"
       inkscape:connector-curvature="0"
       style="fill:#cccccc;fill-opacity:1;stroke:#ffffff;stroke-width:0.5;stroke-opacity:1" />
  </g>
</svg>
