<?xml version="1.0" encoding="UTF-8" standalone="no"?>
<!-- (c) ammap.com | SVG map of Myanmar - Low -->

<svg
   xmlns:amcharts="http://amcharts.com/ammap"
   xmlns:dc="http://purl.org/dc/elements/1.1/"
   xmlns:cc="http://creativecommons.org/ns#"
   xmlns:rdf="http://www.w3.org/1999/02/22-rdf-syntax-ns#"
   xmlns:svg="http://www.w3.org/2000/svg"
   xmlns="http://www.w3.org/2000/svg"
   xmlns:sodipodi="http://sodipodi.sourceforge.net/DTD/sodipodi-0.dtd"
   xmlns:inkscape="http://www.inkscape.org/namespaces/inkscape"
   version="1.1"
   id="svg23"
   sodipodi:docname="myanmarlow.svg"
   width="800.15466"
   height="1771.4862"
   inkscape:version="0.92.2 (5c3e80d, 2017-08-06)">
  <metadata
     id="metadata27">
    <rdf:RDF>
      <cc:Work
         rdf:about="">
        <dc:format>image/svg+xml</dc:format>
        <dc:type
           rdf:resource="http://purl.org/dc/dcmitype/StillImage" />
        <dc:title></dc:title>
      </cc:Work>
    </rdf:RDF>
  </metadata>
  <sodipodi:namedview
     pagecolor="#ffffff"
     bordercolor="#666666"
     borderopacity="1"
     objecttolerance="10"
     gridtolerance="10"
     guidetolerance="10"
     inkscape:pageopacity="0"
     inkscape:pageshadow="2"
     inkscape:window-width="1920"
     inkscape:window-height="1017"
     id="namedview25"
     showgrid="false"
     fit-margin-top="0"
     fit-margin-left="0"
     fit-margin-right="0"
     fit-margin-bottom="0"
     inkscape:zoom="2.36"
     inkscape:cx="50.074802"
     inkscape:cy="1721.152"
     inkscape:window-x="-8"
     inkscape:window-y="-8"
     inkscape:window-maximized="1"
     inkscape:current-layer="svg23" />
  <defs
     id="defs4">
    <style
       type="text/css"
       id="style2">
			.land
			{
				fill: #CCCCCC;
				fill-opacity: 1;
				stroke:white;
				stroke-opacity: 1;
				stroke-width:0.5;
			}
		</style>
    <amcharts:ammap
       projection="mercator"
       leftLongitude="92.171808"
       topLatitude="28.547835"
       rightLongitude="101.170272"
       bottomLatitude="9.599094" />
    <!-- All areas are listed in the line below. You can use this list in your script. -->
    <!--{id:"MM-01"},{id:"MM-11"},{id:"MM-05"},{id:"MM-17"},{id:"MM-03"},{id:"MM-07"},{id:"MM-14"},{id:"MM-16"},{id:"MM-15"},{id:"MM-06"},{id:"MM-02"},{id:"MM-04"},{id:"MM-13"},{id:"MM-12"}-->
  </defs>
  <g
     id="g21"
     transform="translate(0.07480152,0.33421219)">
    <path
       id="MM-01"
       title="Sagaing"
       class="land"
       d="m 432.68,140.39 -29.63,-27.41 -50.09,10.35 -90.8,64.5 2.53,55.8 -48.36,64.76 8.95,36.29 -51.61,114.61 -10.85,113.97 26.07,55.35 13.67,31.35 58.56,-5.47 20.58,21.54 38.27,-1.65 23.96,-28.51 -11.74,-140.43 15.38,-24.31 9.88,12.55 11.36,-0.63 21.3,-33.25 -15.18,-17.52 25.31,-11.05 -1.55,-26.89 -37.5,-4.06 -35.14,-49.62 20.29,-2.06 -8.88,-52.14 18.99,-15.41 -15.56,-73.93 20.65,-53.94 64.66,-3.23 8.33,-10.07 z"
       inkscape:connector-curvature="0"
       style="fill:#cccccc;fill-opacity:1;stroke:#ffffff;stroke-width:0.5;stroke-opacity:1" />
    <path
       id="MM-11"
       title="Kachin"
       class="land"
       d="m 483.93,0 -25.83,26.76 0.89,32.62 -41.97,29.66 17.51,50.84 -8.33,10.07 -64.66,3.23 -20.65,53.94 15.56,73.93 -18.99,15.41 8.88,52.14 -20.29,2.06 35.14,49.62 37.5,4.06 1.55,26.89 30.8,48.21 55.89,-21.57 -9.9,-85.63 53.77,-85.24 48.5,-23.88 -12.4,-25.01 18.7,-51.62 -7.24,-96.12 -33.79,4.97 -15.67,-60.83 z"
       inkscape:connector-curvature="0"
       style="fill:#cccccc;fill-opacity:1;stroke:#ffffff;stroke-width:0.5;stroke-opacity:1" />
    <path
       id="MM-05"
       title="Tanintharyi"
       class="land"
       d="m 523.45,1770.71 -3.75,-2.67 0.26,2.85 z m 17.53,-24.03 -11.3,9.28 0.53,10.35 z m -5.26,-0.7 4.02,-9.21 -5.48,-1.86 z m -25.52,-36.46 0.13,6.47 2.97,-3.79 z m 26.59,-0.91 2.34,-4.16 -3.91,1.25 z m 30.8,-31.65 -5.31,-5.28 0.42,8.83 z m -57.35,-2.21 3.8,-5.61 -4.94,0.53 z m 27.86,-6.3 -12.88,3.5 15.43,17.67 z m 19.43,-3.53 0.99,-3.3 -1.65,0.76 z m 9.01,-2.03 -1.5,-8.95 -4.24,10.25 z m -23.71,-23.6 -4.91,-1.91 2.43,4.96 z m 23.91,-50.06 -15.4,0.89 14.65,23.63 z m -23.17,26.33 -0.46,-26.4 -10.06,31.47 z m -71.81,-25.35 -2.9,-1.09 3.14,2.02 z m 51.24,3.53 -3.43,-10.51 6.74,21.16 z m -34.35,-10.37 0.47,2.34 -0.67,-6.21 z m 54.98,-0.19 -1.67,-3.91 -1,4.58 z m -2.01,-5.52 -0.84,-4.42 -2.23,1.9 z m 23,-7.36 -7.19,-9.55 3.46,20.12 16.04,-3.91 z m -37.55,-17.5 3.5,5.51 -5.78,-13.74 z m -0.15,-15.13 -1.83,-5.66 -11.61,10.69 z m 36.69,-4.1 -0.78,-9.38 -2.27,8.04 z m -20.09,-8.53 -2.32,-6.42 -2.37,5.22 z m -37.49,-5.11 -3.48,-2.52 2.42,4.58 z m 48.02,-1.08 -7.62,-10.56 -1.21,31.87 z m -47.87,-17.81 -1.93,-3.56 -0.44,3.05 z m 38.47,-29.03 -4.3,-11.92 4.87,27.58 z m -32.99,-63.98 0.61,-6.94 -1.57,2.83 z m 17.26,-111.18 -19.29,-7.86 -9.56,18.27 20.72,21.42 -12.65,-3.36 23.04,105.29 4.26,-48.36 34.39,80.42 11.41,76.59 -14.91,9.67 16.23,22.21 -0.11,3.05 -5,4 -10.24,3.8 30.5,16.82 -15.95,69.85 -22.54,18.94 7.47,65.89 19.9,-63.47 76.87,-102.31 -47.8,-111.47 -0.28,-76.14 -80.03,-103.26 z"
       inkscape:connector-curvature="0"
       style="fill:#cccccc;fill-opacity:1;stroke:#ffffff;stroke-width:0.5;stroke-opacity:1" />
    <path
       id="MM-17"
       title="Shan"
       class="land"
       d="m 590.43,496.21 -13.44,-47.36 18.42,-17.99 -108.48,27.01 -55.89,21.57 -30.8,-48.21 -25.31,11.05 15.18,17.52 -21.3,33.25 -10.4,43.21 45.73,12.29 -45.75,18.75 60.99,94.27 -48.82,21.27 -11.56,45.7 33.57,19.94 -18.93,79.16 26.57,49.33 14.83,19.57 29.2,-66.2 10.06,9.27 52.38,30.3 15.71,-22.42 76.01,5.58 15.5,-33.39 38.9,-4.99 -6.27,-21.67 58.71,6.11 10.89,-37.25 38.33,-15.9 6.52,-41.52 38.8,-21.33 -6.98,-22.23 -79.74,32.45 -21.79,-59.2 -69.09,-8.32 32.78,-78.78 -60.15,-22.26 z"
       inkscape:connector-curvature="0"
       style="fill:#cccccc;fill-opacity:1;stroke:#ffffff;stroke-width:0.5;stroke-opacity:1" />
    <path
       id="MM-03"
       title="Magway"
       class="land"
       d="m 188.89,628.61 -26.07,-55.35 11.69,190.21 -20.81,-0.86 80.14,176.44 2.84,45.05 28.2,-10.67 3.12,-40.38 56.4,-24.99 -1.92,-28.05 -16.07,-120.26 -45.47,19.03 -2.44,-28.34 -23.77,-11.74 0.42,-23.98 46.55,-38.69 -20.58,-21.54 -58.56,5.47 z"
       inkscape:connector-curvature="0"
       style="fill:#cccccc;fill-opacity:1;stroke:#ffffff;stroke-width:0.5;stroke-opacity:1" />
    <path
       id="MM-07"
       title="Ayeyarwady"
       class="land"
       d="m 108.31,1381.17 -0.4,-7.1 -1.37,8.18 z m 27.57,-73.07 1.78,-3.94 -4.33,5.03 z m 97.87,-85.45 1.74,-13.81 -8.76,11.76 z m -35.04,-3.95 20.72,-37.63 -22.54,22.67 z m 70.07,-241.58 -3.9,-3.69 -28.2,10.67 4.13,58.77 -11.45,33.46 -16.62,-8.51 -29.22,138.2 43.87,-50.85 -14.75,54.63 20.22,-20.99 -6.45,28.28 24.15,-36.51 -12.97,42.63 25.73,-33.14 6.85,33.51 13.25,-33.51 3.11,40 55.27,-61.31 -16.47,-9.37 -7.62,-91.51 z"
       inkscape:connector-curvature="0"
       style="fill:#cccccc;fill-opacity:1;stroke:#ffffff;stroke-width:0.5;stroke-opacity:1" />
    <path
       id="MM-14"
       title="Chin"
       class="land"
       d="m 115.44,449.21 -14.7,-10.38 10.92,40.56 -31.42,84.73 7.97,50.67 -17.89,24.96 -25.31,-16.05 -9.61,16.98 5.8,64.08 68.72,57.93 23.03,0.27 1.57,-18.44 19.18,18.09 20.81,0.86 -11.69,-190.21 10.85,-113.97 z"
       inkscape:connector-curvature="0"
       style="fill:#cccccc;fill-opacity:1;stroke:#ffffff;stroke-width:0.5;stroke-opacity:1" />
    <path
       id="MM-15"
       title="Rakhine"
       class="land"
       d="m 134.03,936.06 -17.76,-0.57 18.6,18.92 z m 10.63,-58.3 -14.36,-0.44 12.81,19.39 6.35,0.73 10.13,-13.03 z m -25.35,-25.95 -1.74,-11.84 -8.54,-6.25 z M 75.38,845.57 69.83,824.9 65.76,820.84 Z M 17.27,694.19 0.22,719.15 l 49.01,85.54 -8.56,-41.7 27.41,35.81 -15.2,11.37 11.24,6.24 15.57,-39.78 5.45,68.35 -0.54,-24.68 54.93,16.87 -12.82,18.74 18.29,-2.58 -5.99,12.14 22.39,15.14 -3.64,12.88 -13.65,8.07 -21.71,-18.43 -6.21,7.54 39.81,46.36 12.15,-49.98 -2.56,49.93 21.47,11.35 25.68,119.49 16.62,8.51 11.45,-33.46 -4.13,-58.77 -2.84,-45.05 -80.14,-176.44 -19.18,-18.09 -1.57,18.44 -23.03,-0.27 -68.72,-57.93 z"
       inkscape:connector-curvature="0"
       style="fill:#cccccc;fill-opacity:1;stroke:#ffffff;stroke-width:0.5;stroke-opacity:1" />
    <path
       id="MM-06"
       title="Mon"
       class="land"
       d="m 488.87,1248.47 -1.62,-6.92 1.2,8.15 z m -8.7,-65.29 3.11,-24.2 -9.1,-2.27 z m 18.84,-27.62 -3.81,-3.61 -15.26,46.09 20.13,109.22 9.56,-18.27 19.29,7.86 6.43,-0.01 1.47,-20.84 -33.15,-62.65 -1.06,-21.93 27.73,-5.48 z m -32.21,-110.39 -16.67,14.93 -31.26,8.25 33.66,32.62 9.73,58.01 29.67,-8.36 z"
       inkscape:connector-curvature="0"
       style="fill:#cccccc;fill-opacity:1;stroke:#ffffff;stroke-width:0.5;stroke-opacity:1" />
    <path
       id="path15"
       title="Yangon"
       class="land"
       d="m 379.84,1112.34 -34.19,-72.04 -27.94,27.58 7.62,91.51 16.47,9.37 28.42,-5.68 -14.72,-30.86 29.07,26.7 29.34,-37.75 z"
       inkscape:connector-curvature="0"
       style="fill:#cccccc;fill-opacity:1;stroke:#ffffff;stroke-width:0.5;stroke-opacity:1" />
    <path
       id="MM-02"
       title="Bago"
       class="land"
       d="m 365.59,879.23 -43.11,0.78 1.92,28.05 -56.4,24.99 -3.12,40.38 3.9,3.69 48.93,90.76 27.94,-27.58 34.19,72.04 34.07,8.83 4.96,-52.82 31.26,-8.25 -2.72,-56.79 -22.58,-45.59 -25.64,-1.38 -23.41,-76.94 z"
       inkscape:connector-curvature="0"
       style="fill:#cccccc;fill-opacity:1;stroke:#ffffff;stroke-width:0.5;stroke-opacity:1" />
    <path
       id="MM-04"
       title="Mandalay"
       class="land"
       d="m 357.45,493.68 -9.88,-12.55 -15.38,24.31 11.74,140.43 -23.96,28.51 -38.27,1.65 -46.55,38.69 -0.42,23.98 23.77,11.74 2.44,28.34 45.47,-19.03 16.07,120.26 43.11,-0.78 10.19,0.17 24.43,-2.43 -26.57,-49.33 18.93,-79.16 -33.57,-19.94 11.56,-45.7 48.82,-21.27 -60.99,-94.27 45.75,-18.75 -45.73,-12.29 10.4,-43.21 z"
       inkscape:connector-curvature="0"
       style="fill:#cccccc;fill-opacity:1;stroke:#ffffff;stroke-width:0.5;stroke-opacity:1" />
    <path
       id="MM-13"
       title="Kayin"
       class="land"
       d="m 415.04,896.54 -14.83,-19.57 -24.43,2.43 23.41,76.94 25.64,1.38 22.58,45.59 2.72,56.79 16.67,-14.93 25.13,105.45 3.27,1.33 3.81,3.61 31.33,30.38 -27.73,5.48 1.06,21.93 33.15,62.65 31.36,-12.56 -1.15,-64.02 31.65,-30.98 -21.3,8.81 -13.69,-56.3 -66.79,-74.48 -34.4,-80.3 z"
       inkscape:connector-curvature="0"
       style="fill:#cccccc;fill-opacity:1;stroke:#ffffff;stroke-width:0.5;stroke-opacity:1" />
    <path
       id="MM-12"
       title="Kayah"
       class="land"
       d="m 454.3,839.61 -10.06,-9.27 -29.2,66.2 47.46,69.63 33.73,-3.18 10.45,-93.08 z"
       inkscape:connector-curvature="0"
       style="fill:#cccccc;fill-opacity:1;stroke:#ffffff;stroke-width:0.5;stroke-opacity:1" />
  </g>
</svg>
