<?xml version="1.0" encoding="UTF-8" standalone="no"?>
<!-- (c) ammap.com | SVG map of Nepal - Low -->

<svg
   xmlns:amcharts="http://amcharts.com/ammap"
   xmlns:dc="http://purl.org/dc/elements/1.1/"
   xmlns:cc="http://creativecommons.org/ns#"
   xmlns:rdf="http://www.w3.org/1999/02/22-rdf-syntax-ns#"
   xmlns:svg="http://www.w3.org/2000/svg"
   xmlns="http://www.w3.org/2000/svg"
   xmlns:sodipodi="http://sodipodi.sourceforge.net/DTD/sodipodi-0.dtd"
   xmlns:inkscape="http://www.inkscape.org/namespaces/inkscape"
   version="1.1"
   id="svg22"
   sodipodi:docname="nepallow.svg"
   width="800.16534"
   height="454.28503"
   inkscape:version="0.92.2 (5c3e80d, 2017-08-06)">
  <metadata
     id="metadata26">
    <rdf:RDF>
      <cc:Work
         rdf:about="">
        <dc:format>image/svg+xml</dc:format>
        <dc:type
           rdf:resource="http://purl.org/dc/dcmitype/StillImage" />
        <dc:title></dc:title>
      </cc:Work>
    </rdf:RDF>
  </metadata>
  <sodipodi:namedview
     pagecolor="#ffffff"
     bordercolor="#666666"
     borderopacity="1"
     objecttolerance="10"
     gridtolerance="10"
     guidetolerance="10"
     inkscape:pageopacity="0"
     inkscape:pageshadow="2"
     inkscape:window-width="1920"
     inkscape:window-height="1017"
     id="namedview24"
     showgrid="false"
     fit-margin-top="0"
     fit-margin-left="0"
     fit-margin-right="0"
     fit-margin-bottom="0"
     inkscape:zoom="2.36"
     inkscape:cx="49.932272"
     inkscape:cy="404.29029"
     inkscape:window-x="-8"
     inkscape:window-y="-8"
     inkscape:window-maximized="1"
     inkscape:current-layer="svg22" />
  <defs
     id="defs4">
    <style
       type="text/css"
       id="style2">
			.land
			{
				fill: #CCCCCC;
				fill-opacity: 1;
				stroke:white;
				stroke-opacity: 1;
				stroke-width:0.5;
			}
		</style>
    <amcharts:ammap
       projection="mercator"
       leftLongitude="80.053867"
       topLatitude="30.430628"
       rightLongitude="88.193752"
       bottomLatitude="26.348125" />
    <!-- All areas are listed in the line below. You can use this list in your script. -->
    <!--{id:"NP-BA"},{id:"NP-BH"},{id:"NP-DH"},{id:"NP-GA"},{id:"NP-JA"},{id:"NP-KA"},{id:"NP-KO"},{id:"NP-LU"},{id:"NP-MA"},{id:"NP-ME"},{id:"NP-NA"},{id:"NP-RA"},{id:"NP-SA"},{id:"NP-SE"}-->
  </defs>
  <g
     id="g20"
     transform="translate(-0.06772847,-0.00525394)">
    <path
       id="NP-BA"
       title="Bagmati"
       class="land"
       d="m 507.44,235.82 3.61,5.49 8.76,-2.1 3.76,1.93 4.33,-4.08 3.57,-1.28 6.95,0.5 5.89,2.92 3.74,5.22 2.57,0.1 7.37,6.1 3.84,-1.37 12.28,10.52 1.68,6.36 5.1,8.31 -0.8,4.85 10.84,3.34 v 0 l -1.45,5.86 -3.37,2.7 2.54,12.46 -7.7,0.77 -8,14.86 -5.6,3.59 0.65,11.94 -6.4,4.49 -4.65,0.41 -0.03,3.29 -2.45,3.71 -7.87,-0.62 -11.79,-4.11 v 0 l -17.3,-6.54 -5.74,-4.18 -0.21,-9.26 -4.74,-12.17 -6.02,-0.79 -9.95,-4.19 -9.68,3.57 -3.74,-1.84 -2.49,3.44 -6.88,-0.72 -1.77,-1.22 -0.4,-2.43 -3.59,-2.43 -4.3,0.91 -8.26,-1.68 -0.3,-1.47 2.53,-3.24 -0.36,-3.05 2.85,-3.18 v 0 l 3.69,3.44 5.27,-2.23 -1.51,-11.67 6.3,-7.11 3.97,-10.77 6.76,-0.65 4.48,-4.97 1.65,-9.92 3.37,-2.18 2.21,-6.31 6.71,-3.72 v 0 l 3.78,1.13 4.63,-1.92 z"
       inkscape:connector-curvature="0"
       style="fill:#cccccc;fill-opacity:1;stroke:#ffffff;stroke-width:0.5;stroke-opacity:1" />
    <path
       id="NP-BH"
       title="Bheri"
       class="land"
       d="m 148.15,147.37 2.21,0.72 -2.04,4.21 0.47,2.5 3.81,2.42 5.95,-1.79 2.94,0.75 1.98,3.49 8.9,1.12 4.92,4.3 4.14,-2.66 2.99,0.96 3.36,-1.05 2,-2 10.54,3.88 2.79,-1.5 4.44,-8.2 12.42,-7.08 12.5,1.76 -1.02,11.21 2.03,1.6 6.73,-2.12 7.37,2.21 v 0 l -5.08,2.98 -0.39,6.57 -2.56,2.87 -9.02,4.88 -4.74,6.28 -3.85,-0.59 -2.59,3.38 0.6,4.34 -7.79,3.73 -2.44,8.08 -11.7,-2.77 -4.53,0.92 -1.23,4.52 2.39,8.84 -5.45,7.01 1.41,6.45 -5.25,6.29 -2.6,-0.1 -11.82,-6.56 -3.19,2.99 -0.89,5.27 4.97,5.39 4.01,-0.4 6.71,3.97 2.32,3.76 8.08,4.15 4.79,7.53 7.97,2.37 0.84,3.7 3.55,2.11 0.74,8.62 -4.59,-0.92 -8.47,2.88 v 0 l -9.63,-0.37 -4.67,7.63 -3.86,-0.15 -5.44,-4.39 -2.8,-0.54 -10.47,-9.6 -6.63,-1.55 -14.84,-8.7 0.22,-3.64 -5.41,-6.32 -4.7,-0.24 -0.18,3.09 -5.88,1.09 0.89,-2.39 -2.1,-0.79 1.97,-0.76 -0.68,-3.43 -7.87,-8.78 -0.33,-4.94 -2.11,-3.56 -11.04,-2.26 -3.6,-2.26 v 0 l 3.08,-6.71 7.97,-6.46 4.52,-7.74 7.28,-8.13 -5.66,-13.87 -1.12,-6.83 -2.19,0.58 -2.48,4.22 -3.29,-2.21 -0.04,-3.08 -11.85,-4.31 -3.46,-5.74 10.84,-2.53 11.21,6.65 8.16,0.69 5.29,-1.17 1.65,2.05 7.48,-1.74 10.14,15.57 2.01,0.92 2.59,-0.84 -4.47,-8.74 -9.78,-13.28 -0.03,-6.77 3.62,-4.92 8.23,-4.99 z"
       inkscape:connector-curvature="0"
       style="fill:#cccccc;fill-opacity:1;stroke:#ffffff;stroke-width:0.5;stroke-opacity:1" />
    <path
       id="NP-DH"
       title="Dhawalagiri"
       class="land"
       d="m 387.65,126.94 0.11,2.42 1.91,1.16 2.38,-1.21 2.58,1.53 2.76,-0.43 3.98,4.25 5.8,2.08 -2.67,3.82 -1.07,10.31 -3.92,4.88 4.88,7.02 -1.99,11.03 v 0 l -3.26,1.02 -8.1,8.24 -8.5,-1.8 -1.85,6.62 -9.92,6.25 0.07,3.17 5.16,7.74 -0.6,1.38 -2.25,-0.65 -3.41,1.92 1.53,7.34 -8.71,8.33 -4.12,7.38 4.35,1.85 2.26,2.63 1.47,6.62 4.14,2.67 -0.19,1.07 -1.96,3.17 -4.08,-0.94 -0.95,8.4 -2.88,2.77 -0.14,8.04 -3.01,3.79 -3.59,1.9 -4.67,-1.64 v 0 l -3.94,-7.58 -5.06,-2.65 -3.95,1.11 -3.93,-1.95 -3.36,-4.9 -9.95,-3.2 -1.44,-1.56 2.35,-3.39 -0.19,-3.41 -4.57,0.21 -1.5,-1.31 -15.04,2.7 v 0 l -0.06,-1.95 -4.7,-5.34 -7.44,-4.18 -5.54,-6.14 -3.6,-5.46 -0.07,-1.48 2.54,-0.5 -2.87,-4.19 3.8,-2 1.64,-2.63 4.81,0.96 1.04,-2.11 -2.6,-3.7 2.07,-1.91 6.38,0.47 6.55,-3.15 4.08,-8.08 -0.49,-2.97 v 0 l 0.9,-0.93 3.92,2.67 7.94,1.23 20.66,-8.61 1.8,-9.23 11.29,-14 1.09,-10.83 1.11,-1.6 2.82,-0.49 1.61,-3.71 -4.06,-5.27 v 0 l 7.12,-6.1 8.22,0.14 2.93,-4.37 4.33,-2.49 9.45,-1.18 z"
       inkscape:connector-curvature="0"
       style="fill:#cccccc;fill-opacity:1;stroke:#ffffff;stroke-width:0.5;stroke-opacity:1" />
    <path
       id="NP-GA"
       title="Gandaki"
       class="land"
       d="m 413.53,171 2.66,3.42 5.63,2.68 5.39,0.72 2.65,2.63 0.86,2.09 -1.62,8.11 2.93,-0.84 6.4,3.02 9.1,-2.48 6.51,2.34 2.97,7.01 -1.22,4.81 4.82,1.78 8.02,0.66 3.63,2.53 7.87,-5.11 5.93,1.09 7.11,-7.34 5.92,-0.85 1.94,1.45 4.13,5.21 -0.65,6.4 -4.57,11.52 -2.58,13.57 v 0 l -6.71,3.72 -2.21,6.31 -3.37,2.18 -1.65,9.92 -4.48,4.97 -6.76,0.65 -3.97,10.77 -6.3,7.11 1.51,11.67 -5.27,2.23 -3.69,-3.44 v 0 l -4.27,-5.59 -4,0.35 -6.94,5.39 -8.1,2.65 1.81,6.86 v 0 l -8.18,-1.58 -2.17,2.14 -6.88,-11.55 -46.49,-3.01 -2.96,-2.46 -5.29,-1.54 -3.7,-0.32 -3.33,1.5 -8,-3.49 -12.83,0.07 2.15,-3.17 10.43,-2.03 3.48,-4.66 v 0 l 4.67,1.64 3.59,-1.9 3.01,-3.79 0.14,-8.04 2.88,-2.77 0.95,-8.4 4.08,0.94 1.96,-3.17 0.19,-1.07 -4.14,-2.67 -1.47,-6.62 -2.26,-2.63 -4.35,-1.85 4.12,-7.38 8.71,-8.33 -1.53,-7.34 3.41,-1.92 2.25,0.65 0.6,-1.38 -5.16,-7.74 -0.07,-3.17 9.92,-6.25 1.85,-6.62 8.5,1.8 8.1,-8.24 3.26,-1.02 v 0 z"
       inkscape:connector-curvature="0"
       style="fill:#cccccc;fill-opacity:1;stroke:#ffffff;stroke-width:0.5;stroke-opacity:1" />
    <path
       id="NP-JA"
       title="Janakpur"
       class="land"
       d="m 606.82,274.72 9.07,0.49 3.37,3.51 7.12,-2.41 -2.18,4.38 1.47,1.8 5.32,-2.75 4.33,1.87 1.23,-2.48 -0.93,-1.58 v 0 l 3.54,4.41 1.35,4.5 -1.47,6.52 2.57,7.04 -0.37,4.6 -8.11,3.73 -7.26,12.15 -3.42,1.97 -14.34,18.62 1.44,9.26 -2.54,5.07 5.07,1.48 10.86,7.82 -2.3,7.13 1.45,7.63 -2.14,8.93 -5.86,2.64 -4.74,4.77 -4.02,0.3 -6.31,-1.84 1.04,9.67 -1.07,5.52 5.45,9.21 -3.03,6.22 v 0 l -3.92,1 0.07,-2.45 -6.9,-3.51 -9.43,-0.06 -1.88,1.06 -1.2,3.73 -9.44,5 0.36,-4.21 -3.33,0.56 -1.58,-2.4 -6.39,-2.76 -1.3,-3.36 1.11,-6.27 -0.9,-8.58 -8.17,-4 -0.6,-2.1 -4.8,2.63 -1.18,-1.25 -0.88,2.06 -10.67,6.43 -4.85,-0.97 -7.15,5.4 v 0 l 2.48,-9.04 6.85,-11.83 -1.31,-7.71 1.49,-4.48 6.74,-6.65 1.74,-11.59 -1.54,-3.6 -3.66,-3.05 -1.18,-3.95 4.82,-6.97 v 0 l 11.79,4.11 7.87,0.62 2.45,-3.71 0.03,-3.29 4.65,-0.41 6.4,-4.49 -0.65,-11.94 5.6,-3.59 8,-14.86 7.7,-0.77 -2.54,-12.46 3.37,-2.7 1.45,-5.86 v 0 l 5.98,-3.28 -1.94,-5.57 -2.75,-2.63 0.04,-9.71 8.58,-7.74 4.39,7.77 -1.94,2.57 1.18,7.33 z"
       inkscape:connector-curvature="0"
       style="fill:#cccccc;fill-opacity:1;stroke:#ffffff;stroke-width:0.5;stroke-opacity:1" />
    <path
       id="NP-KA"
       title="Karnali"
       class="land"
       d="m 156.18,0.26 12.17,5.22 18.64,3.47 5.1,2.13 4.57,-0.66 9.87,1.73 -1.13,3.31 1.68,7.54 4.89,6.14 -2.18,7.86 1.09,1.58 20.49,7.02 2.45,2.04 6.54,0.55 1.91,2.74 6.22,3.35 2.47,4.53 9.32,8.31 4.84,8.82 6.53,2.81 2.57,2.98 7.54,0.88 15.44,8.12 6.47,0.83 1.62,2.36 7.82,2.08 1.53,2.33 0.08,4.57 7.55,3.32 -0.39,4.09 6.52,6.23 3.48,6.31 1.29,6.18 4.27,2.61 6.16,7.48 7.13,3.33 2.5,-2.44 v 0 l 4.06,5.27 -1.61,3.71 -2.82,0.49 -1.11,1.6 -1.09,10.83 -11.29,14 -1.8,9.23 -20.66,8.61 -7.94,-1.23 -3.92,-2.67 -0.9,0.93 v 0 l -19.19,-8.85 -15.04,-0.13 -9.34,-4.26 0.34,-4.46 -6.33,-8.31 -7.01,-2.67 v 0 l -7.37,-2.21 -6.73,2.12 -2.03,-1.6 1.02,-11.21 -12.5,-1.76 -12.42,7.08 -4.44,8.2 -2.79,1.5 -10.54,-3.88 -2,2 -3.36,1.05 -2.99,-0.96 -4.14,2.66 -4.92,-4.3 -8.9,-1.12 -1.98,-3.49 -2.94,-0.75 -5.95,1.79 -3.81,-2.42 -0.47,-2.5 2.04,-4.21 -2.21,-0.72 v 0 l -5.65,-3.55 -1.3,-2.64 0.67,-7.68 -2.35,-3.23 10.94,-10.47 3.75,-0.1 2.85,3.12 0.43,2.77 1.61,0.68 6.67,-2.99 6.51,-7.16 0.94,-3.84 -3.7,-10.37 -0.39,-9.54 -2.1,-1.86 -3.26,-0.28 -1.03,-6.23 0.25,-2.48 3.6,-2.47 0.92,-2.45 1.09,-8.51 2.59,-1.82 -0.08,-7.87 -8.52,-1.29 -4.57,-3.05 -7.03,2.3 -3.52,-0.27 -8.12,3.84 -0.38,-10.25 -1.76,-1.97 -4.03,-1.92 -2.89,2.31 -2.38,0.06 -9.54,-5.76 v 0 l 0.81,-9.69 7.27,-0.85 5.07,-7.21 2.1,-10.11 -2.13,-5.41 0.8,-6.19 8.33,-1.74 3.57,4.18 5.65,1.65 0.89,-6.27 z"
       inkscape:connector-curvature="0"
       style="fill:#cccccc;fill-opacity:1;stroke:#ffffff;stroke-width:0.5;stroke-opacity:1" />
    <path
       id="NP-KO"
       title="Koshi"
       class="land"
       d="m 695.66,291.66 10.01,1.1 3.59,-2.8 7.22,1.48 7.39,-2.47 1.19,0.63 -0.61,1.9 3.78,0.71 11.46,-5.03 1.27,5.46 1.96,0.89 7.75,-3.55 v 0 l -1.62,11.39 -6.39,8.76 -3.13,-2.25 -3.38,9.89 -4.67,2.78 -2.57,16.94 0.4,6.78 4.72,7.39 4.43,2.58 11.2,1.59 8.15,4.75 -8.26,9.53 -7.65,4.04 -9.04,14.1 2.34,5.29 -0.51,2.4 15.44,9.39 -0.46,8.03 -3.29,9.37 1.31,5.7 -1.59,1.47 3.72,14.54 v 0 l -3.82,3.28 0.13,1.39 -3.8,0.22 -0.48,1.07 -1.87,-0.16 -4,-3.95 -8.54,-2.3 -9.11,3.52 -1.16,5.12 -1.68,1.33 -2.72,-2.57 -4.6,-0.21 -0.49,-4.01 -10.26,0.51 -6.4,-5.07 -1.99,-14.68 -2.62,-0.08 -2.92,5.84 -6.94,1.83 v 0 l 0.93,-8.54 12.62,-17.13 8.45,-8.28 2.5,-6.69 -1.83,-2.26 -2.79,-0.5 -7.62,1.96 -5.19,3.42 -3.49,-4.25 1.04,-4.36 -2.28,-4.58 -0.14,-8.46 -3.87,-2.8 -0.51,-2.13 2.19,-6.71 -2.27,-8.02 4,-1.14 3.81,-4.17 -3.05,-0.96 0.11,-3.49 -3.26,-3.6 -1,-5.73 3.43,-4.99 1.52,-13.38 2.68,-5.42 1.81,-9.69 -3.28,-3.51 3.31,-5.97 -3.56,-9.51 0.65,-6.82 v 0 l 3.49,-0.02 7.07,6.83 4.11,1.93 1.37,1.96 z"
       inkscape:connector-curvature="0"
       style="fill:#cccccc;fill-opacity:1;stroke:#ffffff;stroke-width:0.5;stroke-opacity:1" />
    <path
       id="NP-LU"
       title="Lumbini"
       class="land"
       d="m 298.61,245.14 15.04,-2.7 1.5,1.31 4.57,-0.21 0.19,3.41 -2.35,3.39 1.44,1.56 9.95,3.2 3.36,4.9 3.93,1.95 3.95,-1.11 5.06,2.65 3.94,7.58 v 0 l -3.48,4.66 -10.43,2.03 -2.15,3.17 12.83,-0.07 8,3.49 3.33,-1.5 3.7,0.32 5.29,1.54 2.96,2.46 46.49,3.01 6.88,11.55 2.17,-2.14 8.18,1.58 v 0 l -3.71,5 -3.59,1.33 -1.47,-1.11 -17.73,9.37 -4.12,6.6 -20.51,1.83 -0.89,1.77 4.25,1.19 -3.35,6.5 v 0 l -7.25,0.92 -2.31,-1.22 -0.93,0.98 -0.43,1.66 4.85,5.06 -1.94,3.43 -24.87,-13.68 -20.78,-1.02 0.46,2.63 -1.56,2.82 1.47,3.3 -1.44,2.85 -3.29,3.6 -4.5,1.18 -3.26,-1.92 -0.62,-3.74 -8.68,-7.97 -15.83,0.01 -7.17,-2.17 -2.4,-3.11 -18.08,-0.05 1.3,-9.09 -1.69,-3.2 0.62,-2.13 -2.76,-3.38 -0.24,-7.31 -1.24,0.97 v 0 l -0.11,-1.78 1.75,-1.45 7.81,1.15 6.72,-4.67 -8.06,-3.68 2.67,-6.99 3.87,-2.4 18.38,-2.09 -1.79,-4.9 -4.45,-2.74 1.06,-7.28 9.09,-8.06 -3.7,-2.44 0.25,-4.58 -1.19,-1.26 z"
       inkscape:connector-curvature="0"
       style="fill:#cccccc;fill-opacity:1;stroke:#ffffff;stroke-width:0.5;stroke-opacity:1" />
    <path
       id="NP-MA"
       title="Mahakali"
       class="land"
       d="m 85.52,28.42 13.15,-2.5 4.61,6.1 -1.17,6.86 2.89,2.17 v 0 l -9.51,6.29 -2.52,7.43 6.66,13.11 1.01,4.52 -2.25,4.26 -14.59,2.41 -12.76,5.83 0.76,9.22 -1.3,2.94 -1.89,0.52 0.46,2.98 3.59,2.46 0.42,3.45 4.37,-0.09 2.37,1.52 1.68,4.33 -5.04,6.55 -4.21,0.55 -3.62,2.28 0.85,5.63 -6.08,10.54 -11.93,5.54 -1.39,4.37 -2.83,1.53 1.28,2.78 -3.17,9.1 -0.99,17.47 3.81,9.45 -0.35,7.24 v 0 l -4.06,2.71 1.2,9.58 1.21,1.24 -1.01,1.23 -5,-3.4 -0.61,-3.58 -2.69,-1.91 -6.79,0.24 -3.62,-3.51 -0.94,-3.33 -5.96,-3.14 -0.01,-3.2 -5.06,-0.73 -7.6,-6.94 -6.19,-0.79 -0.38,-9.99 3.53,-7 3.75,-2.78 -1.05,-3.16 2.15,-7.84 3.31,-3.07 5.34,1.49 3.27,-2.86 -1.93,-8.37 4.73,2.32 1.4,-13.9 -3.07,-2.38 -0.78,-5.65 -2.82,-1.57 -0.26,-3.66 3.36,-1.87 2.2,0.78 -1.07,-2.13 1.04,-1.85 1.31,0.59 3.68,-4.03 -0.21,-3.82 4.53,-2.26 1.59,-3.05 0.97,-4.83 -2.85,-3.15 -2.4,-6.33 0.35,-2.69 2.76,-1.23 0.77,-3.37 2.76,-1.75 5.73,1.03 1.13,-2.73 5.18,-4.72 1.14,-6.85 2.73,-3.43 7.97,-0.8 3.88,-4.38 2.28,-0.29 2.44,-6.02 10.35,-8.48 -0.68,-4.69 3.42,-4.98 1.48,0.08 0.25,3.31 z"
       inkscape:connector-curvature="0"
       style="fill:#cccccc;fill-opacity:1;stroke:#ffffff;stroke-width:0.5;stroke-opacity:1" />
    <path
       id="NP-ME"
       title="Mechi"
       class="land"
       d="m 789.59,286.89 8.06,0.43 2.24,1.66 -2.43,3.52 2.17,3.43 -4.02,6.39 -0.66,6.8 -6.63,9.03 v 2.77 l -3.54,7.53 2.31,5.54 -2.6,6.64 2.04,4.93 -2.92,6.32 -1.73,12.91 -2.56,5.64 3.33,2.95 0.31,3.22 1.73,1.9 3.8,0.29 0.84,3.14 4.12,2.33 -1.12,4.19 2.05,2.17 0.01,4.21 3.17,3.1 -0.75,2.48 1.58,4.52 0.19,8.64 -2.64,9.03 -2.72,3.63 0.06,3.11 -2.56,2.05 -0.29,11.92 -6.88,7.51 -0.22,2.38 -3.13,-0.79 -0.6,-3.31 -6.28,-2.78 -1.15,-1.59 0.89,-1.4 -2.57,-0.32 1.05,-1.05 -1.97,-3.03 -3.06,2.54 -0.95,2.98 -6.03,-3.52 -2.22,6.42 -2.58,-1.06 -0.47,1.21 -4.44,-3.06 v 0 l -3.72,-14.54 1.59,-1.47 -1.31,-5.7 3.29,-9.37 0.46,-8.03 -15.44,-9.39 0.51,-2.4 -2.34,-5.29 9.04,-14.1 7.65,-4.04 8.26,-9.53 -8.15,-4.75 -11.2,-1.59 -4.43,-2.58 -4.72,-7.39 -0.4,-6.78 2.57,-16.94 4.67,-2.78 3.38,-9.89 3.13,2.25 6.39,-8.76 1.62,-11.39 v 0 l 2.35,0.84 0.97,2.25 2.5,-2.1 4.32,2.32 1.97,-2.68 3.12,0.62 2.68,2.71 2.96,-0.48 3.55,-3.22 1.55,-4.45 4.96,-4.1 4.16,1.21 z"
       inkscape:connector-curvature="0"
       style="fill:#cccccc;fill-opacity:1;stroke:#ffffff;stroke-width:0.5;stroke-opacity:1" />
    <path
       id="NP-NA"
       title="Narayani"
       class="land"
       d="m 454.46,291.51 -2.85,3.18 0.36,3.05 -2.53,3.24 0.3,1.47 8.26,1.68 4.3,-0.91 3.59,2.43 0.4,2.43 1.77,1.22 6.88,0.72 2.49,-3.44 3.74,1.84 9.68,-3.57 9.95,4.19 6.02,0.79 4.74,12.17 0.21,9.26 5.74,4.18 17.3,6.54 v 0 l -4.82,6.97 1.18,3.95 3.66,3.05 1.54,3.6 -1.74,11.59 -6.74,6.65 -1.49,4.48 1.31,7.71 -6.85,11.83 -2.48,9.04 v 0 l -12.53,-2.09 -2.94,-5.93 1.6,-5.96 -8.38,-0.29 -2.27,0.71 -0.01,1.21 -5.22,0.1 -0.12,-2.34 2.55,-1.11 -4.72,-1.08 -0.9,-2.34 -2.97,-0.49 0.96,-2.27 -1.93,-2.41 -5.97,-1.15 -7.07,-5.22 -3.12,2.65 -1.94,-2.35 -1.41,1.96 -11.51,-5.12 0.43,-2.89 2.73,-3.24 1.27,-13.27 -6.86,-12.74 -32.2,-5.04 -3.84,-7.18 -3.6,1.11 -0.74,-3.07 -5.49,-2.11 -0.1,-3.53 -2.47,0.86 -2.23,-0.92 -5.19,8.36 -10.35,-0.02 v 0 l 3.35,-6.5 -4.25,-1.19 0.89,-1.77 20.51,-1.83 4.12,-6.6 17.73,-9.37 1.47,1.11 3.59,-1.33 3.71,-5 v 0 l -1.81,-6.86 8.1,-2.65 6.94,-5.39 4,-0.35 z"
       inkscape:connector-curvature="0"
       style="fill:#cccccc;fill-opacity:1;stroke:#ffffff;stroke-width:0.5;stroke-opacity:1" />
    <path
       id="NP-RA"
       title="Rapti"
       class="land"
       d="m 247.58,162.1 7.01,2.67 6.33,8.31 -0.34,4.46 9.34,4.26 15.04,0.13 19.19,8.85 v 0 l 0.49,2.97 -4.08,8.08 -6.55,3.15 -6.38,-0.47 -2.07,1.91 2.6,3.7 -1.04,2.11 -4.81,-0.96 -1.64,2.63 -3.8,2 2.87,4.19 -2.54,0.5 0.07,1.48 3.6,5.46 5.54,6.14 7.44,4.18 4.7,5.34 0.06,1.95 v 0 l -7.04,4.76 1.19,1.26 -0.25,4.58 3.7,2.44 -9.09,8.06 -1.06,7.28 4.45,2.74 1.79,4.9 -18.38,2.09 -3.87,2.4 -2.67,6.99 8.06,3.68 -6.72,4.67 -7.81,-1.15 -1.75,1.45 0.11,1.78 v 0 l -3.93,-0.12 -6.15,2.73 -13.75,2.16 -24.71,-18.75 -7.98,-2.22 -4.97,-6.23 v 0 l 8.47,-2.88 4.59,0.92 -0.74,-8.62 -3.55,-2.11 -0.84,-3.7 -7.97,-2.37 -4.79,-7.53 -8.08,-4.15 -2.32,-3.76 -6.71,-3.97 -4.01,0.4 -4.97,-5.39 0.89,-5.27 3.19,-2.99 11.82,6.56 2.6,0.1 5.25,-6.29 -1.41,-6.45 5.45,-7.01 -2.39,-8.84 1.23,-4.52 4.53,-0.92 11.7,2.77 2.44,-8.08 7.79,-3.73 -0.6,-4.34 2.59,-3.38 3.85,0.59 4.74,-6.28 9.02,-4.88 2.56,-2.87 0.39,-6.57 z"
       inkscape:connector-curvature="0"
       style="fill:#cccccc;fill-opacity:1;stroke:#ffffff;stroke-width:0.5;stroke-opacity:1" />
    <path
       id="NP-SA"
       title="Sagarmatha"
       class="land"
       d="m 657.09,262.19 1.68,5.85 1.68,-0.22 3.18,3.06 5.22,-1.15 0.79,2.19 5.04,2.6 1.71,2.57 5.07,0.72 v 0 l -0.65,6.82 3.56,9.51 -3.31,5.97 3.28,3.51 -1.81,9.69 -2.68,5.42 -1.52,13.38 -3.43,4.99 1,5.73 3.26,3.6 -0.11,3.49 3.05,0.96 -3.81,4.17 -4,1.14 2.27,8.02 -2.19,6.71 0.51,2.13 3.87,2.8 0.14,8.46 2.28,4.58 -1.04,4.36 3.49,4.25 5.19,-3.42 7.62,-1.96 2.79,0.5 1.83,2.26 -2.5,6.69 -8.45,8.28 -12.62,17.13 -0.93,8.54 v 0 l -1.09,0.14 -0.23,2.97 -3.49,0.19 0.04,2.75 -5.3,2.37 -7.31,-1.96 -3.28,3.64 -15.94,-8.03 -3.42,-4.76 -3.67,-0.09 -10.28,-5.74 -5.24,-1.24 0.24,-1.16 -8.76,0.35 -2.53,2.55 -2.91,-0.5 -0.41,-2.08 -1.56,-0.02 v 0 l 3.03,-6.22 -5.45,-9.21 1.07,-5.52 -1.04,-9.67 6.31,1.84 4.02,-0.3 4.74,-4.77 5.86,-2.64 2.14,-8.93 -1.45,-7.63 2.3,-7.13 -10.86,-7.82 -5.07,-1.48 2.54,-5.07 -1.44,-9.26 14.34,-18.62 3.42,-1.97 7.26,-12.15 8.11,-3.73 0.37,-4.6 -2.57,-7.04 1.47,-6.52 -1.35,-4.5 -3.54,-4.41 v 0 l -1.95,-2.15 0.54,-3.95 7.54,-7.88 5.14,0.58 4.32,-3.34 z"
       inkscape:connector-curvature="0"
       style="fill:#cccccc;fill-opacity:1;stroke:#ffffff;stroke-width:0.5;stroke-opacity:1" />
    <path
       id="NP-SE"
       title="Seti"
       class="land"
       d="m 110.77,44.51 3.33,0.92 4.27,-3.03 v 0 l 9.54,5.76 2.38,-0.06 2.89,-2.31 4.03,1.92 1.76,1.97 0.38,10.25 8.12,-3.84 3.52,0.27 7.03,-2.3 4.57,3.05 8.52,1.29 0.08,7.87 -2.59,1.82 -1.09,8.51 -0.92,2.45 -3.6,2.47 -0.25,2.48 1.03,6.23 3.26,0.28 2.1,1.86 0.39,9.54 3.7,10.37 -0.94,3.84 -6.51,7.16 -6.67,2.99 -1.61,-0.68 -0.43,-2.77 -2.85,-3.12 -3.75,0.1 -10.94,10.47 2.35,3.23 -0.67,7.68 1.3,2.64 5.65,3.55 v 0 l 0.17,1.03 -8.23,4.99 -3.62,4.92 0.03,6.77 9.78,13.28 4.47,8.74 -2.59,0.84 -2.01,-0.92 -10.14,-15.57 -7.48,1.74 -1.65,-2.05 -5.29,1.17 -8.16,-0.69 -11.21,-6.65 -10.84,2.53 3.46,5.74 11.85,4.31 0.04,3.08 3.29,2.21 2.48,-4.22 2.19,-0.58 1.12,6.83 5.66,13.87 -7.28,8.13 -4.52,7.74 -7.97,6.46 -3.08,6.71 v 0 l -4.36,-1.38 1.71,-2.15 -2.28,-0.39 -0.27,-1.63 -4.09,1.48 0.6,-1.8 -3.83,-0.02 0.29,-1.69 -1.32,1.31 -2.6,-0.73 0.71,-3.66 -1.71,-1.19 -2.71,-0.03 0.13,1.41 -7.75,-3.61 -1.55,-4.53 -6.75,-1.12 -3.33,-7.19 -7.35,-0.69 -0.3,-3.71 -4.03,-1.2 v 0 l 0.35,-7.24 -3.81,-9.45 0.99,-17.47 3.17,-9.1 -1.28,-2.78 2.83,-1.53 1.39,-4.37 11.93,-5.54 6.08,-10.54 -0.85,-5.63 3.62,-2.28 4.21,-0.55 5.04,-6.55 -1.68,-4.33 -2.37,-1.52 -4.37,0.09 -0.42,-3.45 -3.59,-2.46 -0.46,-2.98 1.89,-0.52 1.3,-2.94 -0.76,-9.22 12.76,-5.83 14.59,-2.41 2.25,-4.26 -1.01,-4.52 -6.66,-13.11 2.52,-7.43 9.51,-6.29 v 0 z"
       inkscape:connector-curvature="0"
       style="fill:#cccccc;fill-opacity:1;stroke:#ffffff;stroke-width:0.5;stroke-opacity:1" />
  </g>
</svg>
