<?xml version="1.0" encoding="UTF-8" standalone="no"?>
<!-- Created with Inkscape (http://www.inkscape.org/) -->

<svg
   xmlns:dc="http://purl.org/dc/elements/1.1/"
   xmlns:cc="http://creativecommons.org/ns#"
   xmlns:rdf="http://www.w3.org/1999/02/22-rdf-syntax-ns#"
   xmlns:svg="http://www.w3.org/2000/svg"
   xmlns="http://www.w3.org/2000/svg"
   xmlns:sodipodi="http://sodipodi.sourceforge.net/DTD/sodipodi-0.dtd"
   xmlns:inkscape="http://www.inkscape.org/namespaces/inkscape"
   width="59.269001mm"
   height="52.345001mm"
   viewBox="0 0 59.269001 52.345001"
   version="1.1"
   id="svg5389"
   inkscape:version="0.92.2 (5c3e80d, 2017-08-06)"
   sodipodi:docname="population_movement.svg">
  <defs
     id="defs5383" />
  <sodipodi:namedview
     id="base"
     pagecolor="#ffffff"
     bordercolor="#666666"
     borderopacity="1.0"
     inkscape:pageopacity="0.0"
     inkscape:pageshadow="2"
     inkscape:zoom="0.35"
     inkscape:cx="-435.13846"
     inkscape:cy="144.63399"
     inkscape:document-units="mm"
     inkscape:current-layer="layer1"
     showgrid="false"
     fit-margin-top="0"
     fit-margin-left="0"
     fit-margin-right="0"
     fit-margin-bottom="0"
     inkscape:window-width="1366"
     inkscape:window-height="705"
     inkscape:window-x="-8"
     inkscape:window-y="-8"
     inkscape:window-maximized="1" />
  <metadata
     id="metadata5386">
    <rdf:RDF>
      <cc:Work
         rdf:about="">
        <dc:format>image/svg+xml</dc:format>
        <dc:type
           rdf:resource="http://purl.org/dc/dcmitype/StillImage" />
        <dc:title></dc:title>
      </cc:Work>
    </rdf:RDF>
  </metadata>
  <g
     inkscape:label="Layer 1"
     inkscape:groupmode="layer"
     id="layer1"
     transform="translate(-88.294075,-104.51798)">
    <g
       transform="translate(461.40541,190.84858)"
       id="g2561">
      <path
         style="fill:#ec1d24;fill-opacity:1;fill-rule:evenodd;stroke:none;stroke-width:0.16460614"
         d="m -317.77258,-33.98572 c 1.41322,0 2.70884,-0.744284 3.40529,-1.959842 0.70015,-1.21371 0.70015,-2.712565 0,-3.929972 l -25.70427,-44.500239 c -0.70385,-1.213708 -1.99141,-1.9547 -3.38986,-1.9547 -0.005,0 -0.0103,-1.9e-5 -0.0154,0 -0.005,-1.9e-5 -0.0103,0 -0.0154,0 -1.39845,0 -2.68602,0.740992 -3.38986,1.9547 l -25.70429,44.500239 c -0.70015,1.217407 -0.70015,2.716262 0,3.929972 0.69645,1.215558 1.99206,1.959842 3.40529,1.959842 z"
         id="path12337"
         inkscape:connector-curvature="0"
         sodipodi:nodetypes="scccscscccss" />
      <path
         inkscape:connector-curvature="0"
         style="fill:#ffffff;fill-opacity:1;fill-rule:evenodd;stroke:none;stroke-width:0.16460614"
         id="path12339"
         d="m -320.04043,-39.222976 h -46.87288 l 23.43645,-40.571568 z"
         sodipodi:nodetypes="cccc" />
      <g
         style="fill:#000000"
         id="g12361"
         transform="matrix(0.22461893,0,0,0.22461893,-350.21315,-67.595625)">
        <path
           id="path12355"
           d="m 26.7,31.3 c 0.8,4.9 -2.5,9.5 -7.4,10.3 -4.9,0.8 -9.5,-2.5 -10.3,-7.4 -0.8,-4.9 2.5,-9.5 7.4,-10.3 4.9,-0.8 9.5,2.5 10.3,7.4 z"
           class="st0"
           inkscape:connector-curvature="0"
           style="fill:#000000" />
        <path
           id="path12357"
           d="m 23.9,66.7 7.9,12.7 c 1.1,1.8 3.5,2.4 5.3,1.3 1.8,-1.1 2.4,-3.4 1.4,-5.2 l -2,-3.6 C 34.8,68.8 33.1,65.7 31.3,62.6 L 27.8,56.2 C 27.4,55.5 27,54.6 26.6,53.8 24.4,49.2 21,42.2 13.6,42.8 c -6.4,0.5 -12.8,3.6 -19.2,9 -7.5,5.9 -12.8,14.6 -13,14.9 -0.2,0.4 -0.5,0.8 -0.7,1.1 0,0 0,0 0,0 v 0 c -0.7,1.3 -1.1,2.5 -0.2,4.1 0.7,1.2 2,2 3.4,2 1.7,0 2.6,-0.8 3.4,-2 v 0 c 0,0 0,0 0,0 0.2,-0.3 0.5,-0.7 0.7,-1.1 0,-0.1 4.5,-7.2 11.3,-13 2.1,-1.7 4.1,-2.8 6,-3.4 L 3.8,72.7 c -0.1,1.8 -0.7,5 -1.2,6.7 l -3.4,12 c -0.4,1.5 -1.7,4 -2.7,5.3 l -9.2,11.5 c -1.2,1.5 -2.5,3.1 -1.4,5.4 0.6,1.3 2,2.2 3.5,2.2 1.8,0 2.8,-1 4,-2.3 l 9.4,-10.1 c 1.7,-1.8 3.8,-4.9 4.9,-7.1 l 4.7,-9.5 17.2,28.9 c 0.8,1.4 1.9,3.2 4.2,3.2 v 0 c 1.3,0 2.6,-0.7 3.3,-1.8 1.2,-1.9 0.4,-3.6 -0.3,-5.2 L 22.7,81.6 C 22.2,80.4 21.9,78 22.1,76.7 Z"
           class="st0"
           inkscape:connector-curvature="0"
           style="fill:#000000" />
        <polygon
           id="polygon12359"
           points="59.3,86.6 38.5,86.6 38.5,98.2 59.3,98.2 59.3,104.4 80,92.4 59.3,80.5 "
           class="st0"
           style="fill:#000000" />
      </g>
    </g>
  </g>
</svg>
