<?xml version="1.0" encoding="UTF-8"?>
<!-- Created with Inkscape (http://www.inkscape.org/) -->
<svg width="14.714mm" height="14.714mm" version="1.1" viewBox="0 0 14.714 14.714" xmlns="http://www.w3.org/2000/svg" xmlns:cc="http://creativecommons.org/ns#" xmlns:dc="http://purl.org/dc/elements/1.1/" xmlns:rdf="http://www.w3.org/1999/02/22-rdf-syntax-ns#">
 <metadata>
  <rdf:RDF>
   <cc:Work rdf:about="">
    <dc:format>image/svg+xml</dc:format>
    <dc:type rdf:resource="http://purl.org/dc/dcmitype/StillImage"/>
    <dc:title/>
   </cc:Work>
  </rdf:RDF>
 </metadata>
 <g transform="translate(-82.601 -170.2)">
  <g>
   <circle cx="89.958" cy="177.56" r="7.357" fill="#0321f5"/>
   <circle cx="89.958" cy="177.56" r="6.8845" fill="#fff"/>
   <path d="m88.859 184.09c-0.0841-0.0267-0.16311-0.0335-0.19029-0.0163-0.15985 0.10132-0.22614-0.0967-0.12553-0.37493 0.0333-0.092 0.033-0.13077-1e-3 -0.18551-0.0892-0.14283 0.0527-0.18669 0.17701-0.0547 0.18268 0.19389 0.34821 0.10983 0.38769-0.19687 0.0126-0.0979 0.0397-0.23665 0.0603-0.30826 0.0285-0.0994 0.0267-0.14999-8e-3 -0.2139-0.0739-0.13814-0.0256-0.20667 0.1-0.14174 0.0562 0.0291 0.10877 0.0647 0.11677 0.0791 0.0252 0.0455-0.046 0.64675-0.0808 0.6815-0.0182 0.0182-0.0347 0.15852-0.0366 0.3117-6e-3 0.47383-0.0581 0.52876-0.39983 0.42zm0.14396-0.22822c0.0252-0.0408-0.0351-0.0686-0.17167-0.0789-0.10936-8e-3 -0.16118 0.0643-0.0639 0.0895 0.11311 0.0293 0.21372 0.0248 0.2356-0.0106zm2.4898-0.0257c-0.0109-0.0523-0.0423-0.17088-0.0699-0.26345-0.0275-0.0926-0.0503-0.19378-0.0506-0.22489-2.6e-4 -0.0311-0.0229-0.11885-0.0504-0.19496-0.0274-0.0761-0.0505-0.1878-0.0514-0.24819-1e-3 -0.0669-0.0377-0.15281-0.0942-0.2199-0.0716-0.0851-0.0845-0.12302-0.0568-0.16699 0.091-0.14458 0.27309-0.047 0.30604 0.1641 0.0518 0.33164 0.12715 0.49519 0.19635 0.426 0.0545-0.0545 0.19092-0.0533 0.20945 2e-3 0.0195 0.0579-0.01 0.16434-0.0452 0.16434-0.19508 0-0.21466 0.091-0.1 0.46442 0.0355 0.11568-8e-3 0.19294-0.10942 0.19294-0.0423 0-0.0711-0.0326-0.0841-0.0951zm-1.1687-0.0656c-0.0123-0.0123 0.0718-0.12292 0.18678-0.24586 0.28153-0.30096 0.35262-0.48656 0.15122-0.39479-0.12982 0.0592-0.21615 0.0492-0.25839-0.0297-0.0548-0.10236-0.0228-0.12698 0.19886-0.15296 0.10967-0.0128 0.25177-0.0474 0.31577-0.0767 0.18078-0.0829 0.24481-3e-3 0.14574 0.18186-0.0976 0.18208-0.0929 0.20672 0.0692 0.3624 0.14963 0.14376 0.16836 0.24974 0.0472 0.26716-0.0451 6e-3 -0.11085-0.0341-0.18212-0.11244-0.13815-0.15182-0.1331-0.15209-0.296 0.0158-0.0738 0.0761-0.15556 0.13836-0.18164 0.13836-0.0261 0-0.0474 0.0156-0.0474 0.0346 0 0.0382-0.11386 0.0476-0.14918 0.0123zm-3.7008-0.4015c-8e-3 -0.0238 0.0226-0.11909 0.069-0.21179 0.10027-0.20033 0.0904-0.21535-0.24974-0.37888-0.0571-0.0274-0.13883-0.0835-0.18164-0.12451-0.15635-0.14986-0.0518-0.27038 0.1252-0.14435 0.14512 0.10333 0.17753 0.0913 0.17753-0.066v-0.13839l-0.16434-2.1e-4c-0.18448-2.1e-4 -0.42383-0.0572-0.42383-0.10099 0-0.0641 0.1084-0.11414 0.20527-0.0948 0.12987 0.026 0.4521-0.0116 0.4521-0.0527 0-0.0173-0.0459-0.0577-0.10191-0.0899-0.10924-0.0627-0.15965-0.17496-0.10369-0.23092 0.0227-0.0227 0.0604-0.0178 0.11131 0.0145 0.0423 0.0269 0.1704 0.0977 0.28457 0.15739 0.24016 0.12556 0.26233 0.19695 0.0885 0.28517-0.13413 0.0681-0.19428 0.16867-0.079 0.13208 0.0422-0.0134 0.0906-1e-3 0.12272 0.031 0.0847 0.0847 0.13993 0.0612 0.20929-0.0891 0.052-0.11262 0.0571-0.15717 0.0262-0.22516-0.0309-0.0679-0.0286-0.0886 0.0118-0.10413 0.0535-0.0205 0.2605 0.10819 0.2605 0.16203 0 0.0256-0.31136 0.64474-0.57764 1.1486-0.0744 0.14086-0.2298 0.21248-0.26228 0.1209zm0.312-0.67254c0.041-0.0883-0.0142-0.21835-0.0926-0.21835-0.0654 0-0.10255 0.21983-0.0446 0.26389 0.0816 0.062 0.0883 0.0598 0.13717-0.0455zm1.8064 0.54373c-0.0908-0.14724-0.14918-0.16694-0.25576-0.0863-0.087 0.0658-0.31004 0.0655-0.36484-3.7e-4 -0.0403-0.0486 0.063-0.12167 0.17196-0.12167 0.11508 0 0.34979-0.18497 0.40894-0.32227 0.0342-0.0793 0.0563-0.0929 0.11952-0.0732 0.14223 0.0444 0.16705 0.14312 0.0603 0.23976-0.0804 0.0728-0.0888 0.14066-0.0224 0.17992 0.074 0.0437 0.13201 0.17955 0.10842 0.25387-0.0347 0.1093-0.13481 0.0785-0.22616-0.0696zm3.9785-0.0551c-0.051-0.0615-0.037-0.0777 0.14817-0.17093 0.1676-0.0844 0.20785-0.15545 0.088-0.15545-0.11554 0-0.2343-0.12105-0.2343-0.23883 0-0.0901-0.01-0.0974-0.12615-0.0938-0.17369 5e-3 -0.17727-0.0498-0.0102-0.15811 0.1265-0.082 0.13359-0.0937 0.0695-0.11402-0.0967-0.0307-0.0899-0.10229 0.0179-0.18706 0.13236-0.10412 0.21831-0.12183 0.28748-0.0592 0.0538 0.0487 0.0678 0.049 0.12726 3e-3 0.0717-0.0555 0.0409-0.10072-0.14265-0.20935-0.0563-0.0333-0.0519-0.0438 0.049-0.11568 0.14333-0.10206 0.17238-0.0876 0.35158 0.17523 0.2386 0.34995 0.38164 0.55223 0.52899 0.74806 0.14632 0.19447 0.14564 0.35381-1e-3 0.35324-0.06-2.6e-4 -0.21698-0.19269-0.21698-0.266 0-0.0204-0.0332-0.0457-0.0737-0.0563-0.0502-0.0131-0.0669-0.0369-0.0524-0.0748 0.0217-0.0566-0.18438-0.39207-0.27099-0.4412-0.0257-0.0146-0.0645-2e-3 -0.0907 0.0296-0.0251 0.0303-0.0823 0.069-0.12704 0.086-0.0886 0.0337-0.0747 0.10025 0.0209 0.10025 0.1368 0 0.2222 0.10489 0.20286 0.24914-0.0201 0.14952 0.0592 0.22837 0.12018 0.11949 0.0176-0.0315 0.0468-0.0572 0.0649-0.0572 0.0531 0 0.0376 0.0946-0.019 0.1163-0.0285 0.0109-0.0519 0.0412-0.0519 0.0672 0 0.0495-0.11852 0.16632-0.29415 0.28993-0.13984 0.0984-0.31025 0.12668-0.36513 0.0605zm0.37656-0.49961c0.0897-0.0748 0.0888-0.16313-2e-3 -0.22052-0.10373-0.0653-0.25214 0.11015-0.18012 0.21297 0.0651 0.0929 0.0793 0.0935 0.18245 8e-3zm2.7608-5.0695c-0.0119-0.031-0.0235-0.18359-0.0258-0.33903-5e-3 -0.36024-0.0326-0.4863-0.10862-0.50095-0.0491-9e-3 -0.0603 0.0138-0.0603 0.12508 0 0.18298-0.0429 0.20935-0.36019 0.22139-0.23033 9e-3 -0.27635 9.8e-4 -0.30979-0.0523-0.0579-0.0922 0.0562-0.16231 0.26426-0.16231h0.16921l-0.0188-0.23354c-0.0104-0.12844-0.0287-0.31527-0.0408-0.41518-0.0339-0.28094 0.14641-0.21006 0.21094 0.0829 0.0374 0.16989 0.0465 0.18462 0.10116 0.16366 0.0587-0.0225 0.0753-0.23746 0.0209-0.27107-0.0595-0.0368-0.11415-0.38885-0.0724-0.46684 0.0604-0.11279 0.1336-0.0856 0.1586 0.0589 0.0124 0.0714 0.0442 0.19646 0.0708 0.27799 0.0266 0.0815 0.0483 0.21277 0.0483 0.29163 0 0.15386 0.0641 0.37439 0.12091 0.41589 0.13183 0.0963 0.15186-0.0856 0.0508-0.46179-0.0498-0.1856-0.0202-0.41128 0.054-0.41128 0.0273 0 0.0585 0.0428 0.0693 0.0952 0.0108 0.0523 0.0355 0.14963 0.0549 0.21624 0.0194 0.0666 0.0503 0.24564 0.0687 0.39787s0.0424 0.33517 0.0532 0.40653c0.0191 0.12534 0.0162 0.12974-0.0834 0.12974-0.0568 0-0.12257-0.0234-0.14626-0.0519-0.0984-0.11861-0.13532-0.0596-0.14564 0.23316-8e-3 0.23046-0.0208 0.2871-0.0662 0.29578-0.0309 6e-3 -0.0659-0.0147-0.0778-0.0457zm-11.301-0.10372c-0.0327-0.0393-0.0381-0.14198-0.0213-0.39887 0.0246-0.37559-6e-3 -0.44231-0.15946-0.34653-0.0922 0.0576-0.13758 6e-3 -0.1236-0.14002 0.011-0.11518 0.0136-0.11689 0.18401-0.11984l0.17285-3e-3 0.0414-0.17c0.0228-0.0935 0.057-0.23185 0.0761-0.30746 0.0344-0.13645 0.11387-0.22581 0.20078-0.22581 0.0489 0 0.0656 0.24493 0.0199 0.29066-0.0487 0.0487-0.1184 0.4217-0.15946 0.85362-0.0481 0.50568-0.12522 0.69494-0.2312 0.56724zm-0.41194-0.25403c-0.0203-0.038-0.0369-0.0921-0.0369-0.12039 0-0.0283-0.0226-0.0954-0.0502-0.14932-0.0276-0.0539-0.0835-0.1719-0.12418-0.26229-0.099-0.22005-0.12377-0.2078-0.15165 0.0751-0.0235 0.2389-0.0815 0.34431-0.1619 0.2946-0.0659-0.0407-0.0121-0.96395 0.0636-1.0922 0.074-0.12524 0.1399-0.12686 0.16793-4e-3 0.0303 0.13262 0.13014 0.35267 0.16053 0.35374 0.0139 5.1e-4 0.0563-0.0575 0.0944-0.12885 0.10679-0.20046 0.15748-0.25084 0.25243-0.25084 0.15466 0 0.13961 0.0936-0.0568 0.35318-0.20248 0.26761-0.20678 0.30559-0.0688 0.60779 0.0938 0.20558 0.0109 0.50909-0.0884 0.32354zm11.197-1.5486c-0.0134-0.0133-0.0243-0.0523-0.0243-0.0865 0-0.11594-0.12148-0.14328-0.29183-0.0657-0.18376 0.0837-0.35941 0.0918-0.38778 0.0179-0.0267-0.0695 0.0484-0.1552 0.18659-0.21297 0.14137-0.0591 0.14114-0.10429-1e-3 -0.25467-0.27622-0.29161-0.44955-0.59127-0.3814-0.65941 0.0571-0.0571 0.14202 2e-3 0.23819 0.16617 0.0883 0.15066 0.16744 0.15844 0.12934 0.0127-0.0293-0.11208 0.10613-0.22712 0.26255-0.22301 0.14184 4e-3 0.18778-0.0316 0.09-0.0691-0.0668-0.0256-0.0703-0.24982-4e-3 -0.27517 0.0518-0.0199 0.12531 0.0368 0.12531 0.0966 0 0.0706 0.13037 0.15807 0.15192 0.10192 0.0332-0.0867 0.10536-0.0526 0.18541 0.0876 0.0912 0.15976 0.0985 0.25272 0.0245 0.31413-0.037 0.0307-0.0423 0.0553-0.0173 0.0804 0.0198 0.0198 0.036 0.0719 0.036 0.11564 0 0.12391 0.13436 0.10619 0.18359-0.0242 0.0533-0.14118 0.10529-0.13039 0.18103 0.0376 0.0735 0.16292 0.0504 0.22792-0.10855 0.30553-0.0552 0.027-0.1417 0.0698-0.19221 0.0952-0.0505 0.0254-0.11576 0.0461-0.145 0.0461-0.0769 0-0.10571 0.0646-0.10754 0.24101-1e-3 0.14959-0.0641 0.22122-0.13304 0.1523zm0.0729-0.62156 0.18469-0.0845-0.0857-0.10184c-0.0471-0.056-0.095-0.12187-0.1063-0.14636-0.016-0.0344-0.0258-0.0328-0.0436 7e-3 -0.057 0.12798-0.22056 0.24969-0.30659 0.2281-0.0971-0.0244-0.10366-4e-3 -0.0424 0.12966 0.05 0.10929 0.0994 0.10533 0.39984-0.0321zm-0.28172-0.44408c-0.0294-0.0768-0.12677-0.0675-0.12677 0.0121 0 0.0729 0.0689 0.11413 0.11704 0.0701 0.0168-0.0154 0.0212-0.0524 0.01-0.0822zm-10.679 0.93333c-0.0193-0.0509-0.0352-0.11359-0.0352-0.13935 0-0.0258-0.0217-0.0909-0.0482-0.14479-0.15663-0.31846-0.19616-0.37612-0.26981-0.39355-0.11068-0.0262-0.11611-0.1112-0.0146-0.22803 0.10161-0.11689 0.17457-0.093 0.26154 0.0856 0.0507 0.10412 0.0615 0.109 0.1921 0.0869 0.19884-0.0336 0.26993-0.0235 0.32868 0.0468 0.12347 0.14778 0.47905 0.0549 0.48322-0.12628 2e-3 -0.0752 0.1752-0.2415 0.23001-0.22047 0.0528 0.0203 0.0662 0.20322 0.0171 0.23354-0.0169 0.0105-0.0732 0.10092-0.12496 0.20098-0.14784 0.28569-0.25058 0.36576-0.34762 0.2709-0.0181-0.0177-0.0874-0.0371-0.15396-0.0433-0.10825-0.01-0.1204-0.0212-0.11458-0.10626 7e-3 -0.0957-0.0651-0.13376-0.11118-0.0591-0.0122 0.0198-0.0499 0.0272-0.0836 0.0165-0.0892-0.0283-0.1549 0.0632-0.10816 0.15058 0.0552 0.1031 0.0461 0.36904-0.0143 0.41918-0.0426 0.0353-0.0573 0.0268-0.0865-0.0499zm0.0747-0.82456c-0.0267-0.0321-0.0234-0.0684 0.0117-0.12974 0.0268-0.0468 0.0596-0.10673 0.0729-0.1331 0.065-0.12904-0.24918-0.33584-0.35911-0.23636-0.11929 0.10796-0.15725-0.0394-0.0449-0.17411 0.10689-0.12814 0.21133-0.0959 0.67227 0.20759 0.33221 0.21872 0.43392 0.30315 0.43518 0.36123 3e-3 0.12394-0.0504 0.12177-0.27356-0.0112-0.23132-0.1378-0.25848-0.13137-0.34789 0.0824-0.0362 0.0866-0.11012 0.10131-0.16661 0.0333zm9.2835-0.56684c-0.35645-0.0911-0.2754-0.66869 0.0938-0.66869 0.13205 0 0.12205-0.0301-0.0622-0.18715-0.17721-0.15107-0.25212-0.29133-0.18003-0.33707 0.0644-0.0409 0.0674-0.0397 0.20027 0.0806 0.27931 0.25282 0.26541 0.24458 0.34272 0.2032 0.0399-0.0213 0.0725-0.0708 0.0725-0.10999 0-0.0416 0.0282-0.0786 0.0676-0.0889 0.0663-0.0174 0.0662-0.0194-5e-3 -0.11536-0.0736-0.0996-0.0663-0.20647 0.014-0.20647 0.0245 0 0.18845 0.13974 0.36437 0.31054 0.31994 0.31064 0.38592 0.43095 0.25929 0.47279-0.097 0.0321-0.42382 0.19529-0.42382 0.21171 0 8e-3 0.0629 0.0864 0.1397 0.17369 0.14875 0.169 0.16427 0.2606 0.047 0.27743-0.0498 7e-3 -0.10271-0.0302-0.17126-0.12109-0.0545-0.0723-0.15025-0.18594-0.21269-0.25254l-0.11352-0.12109-2.6e-4 0.15831c-3.7e-4 0.23623-0.19571 0.38065-0.43278 0.32009zm0.16846-0.24851c0.0739-0.0816 0.0388-0.17799-0.0647-0.17799-0.0878 0-0.13348 0.0794-0.10225 0.17786 0.0261 0.082 0.0928 0.0821 0.16692 1.5e-4zm0.57099-0.4352c0.19586-0.10128 0.20673-0.15226 0.0609-0.28587-0.12761-0.11694-0.21558-0.13605-0.12524-0.0272 0.038 0.0459 0.0288 0.0712-0.06 0.16518-0.16035 0.16961-0.0868 0.25709 0.12432 0.1479zm-9.4235 0.46311c-0.0761-0.0549-0.16613-0.10033-0.20002-0.10096-0.10878-2e-3 -0.10918-0.10308-9.21e-4 -0.21967 0.0563-0.0606 0.15525-0.18022 0.21992-0.26585 0.1688-0.2235 0.16628-0.22353 0.38853 4e-3l0.20262 0.20771-0.11604 0.14483c-0.0638 0.0797-0.14309 0.18764-0.17614 0.23997-0.0749 0.11865-0.14216 0.11646-0.31799-0.0103zm0.24592-0.23185c0.0643-0.0847 0.0591-0.17005-0.0121-0.19735-0.096-0.0369-0.23102 0.16269-0.15888 0.23483 0.042 0.042 0.12433 0.0239 0.17096-0.0375zm0.54983 0.24976c-0.0571-0.0468-0.13104-0.0851-0.16434-0.0853-0.0352-1e-4 -0.0606-0.0263-0.0606-0.0624 0-0.14727 0.1861-0.19544 0.29408-0.0761 0.0812 0.0897 0.11374 0.0872 0.20933-0.0159l0.0789-0.0851-0.0742-0.0235c-0.0669-0.0212-0.24578-0.20039-0.62836-0.62926-0.0898-0.10063-0.15569-0.14514-0.20497-0.13839-0.11962 0.0164-0.11389-0.12399 9e-3 -0.21122 0.14572-0.10377 0.18298-0.0933 0.32465 0.0914 0.0693 0.0904 0.21976 0.26554 0.33429 0.38923 0.11453 0.12368 0.23358 0.27671 0.26455 0.34005 0.0533 0.10906 0.0597 0.1121 0.12011 0.0574 0.0703-0.0637 0.20715-0.0425 0.20715 0.0321 0 0.0648-0.47819 0.50482-0.54698 0.50336-0.0322-6.8e-4 -0.10519-0.0395-0.16228-0.0863zm6.8679-0.63365c-0.27644-0.17425-0.31488-0.23649-0.22799-0.3691 0.0301-0.046 0.0548-0.12354 0.0548-0.17237 0-0.11344 0.0868-0.14737 0.17428-0.0682 0.0688 0.0623 0.0936 0.18913 0.037 0.18913-0.0524 0-0.0746 0.10524-0.037 0.17549 0.0516 0.0964 0.15362 0.0821 0.20323-0.0285 0.0381-0.0848 0.27016-0.44878 0.3144-0.49302 0.10196-0.10196 0.24238-0.3668 0.23447-0.44224-0.0128-0.12203 0.0711-0.13678 0.19119-0.0336 0.0888 0.0763 0.13422 0.26826 0.0634 0.26826-0.0164 0-0.0748 0.0662-0.12974 0.14704-0.0549 0.0809-0.12068 0.16899-0.14615 0.19582-0.0255 0.0268-0.0857 0.11245-0.13391 0.19029-0.11701 0.18898-0.25296 0.33127-0.31928 0.33414-0.0365 2e-3 -0.029 0.0144 0.023 0.0396 0.0823 0.0397 0.13164 0.14248 0.0961 0.19999-0.0397 0.0642-0.13669 0.0318-0.39783-0.13275zm-5.6026-0.23489c-0.0394-0.0501-0.0722-0.10852-0.0729-0.12974-2e-3 -0.0611-0.12597-0.19427-0.18106-0.19427-0.0275 0-0.11843 0.0521-0.20204 0.11587-0.16045 0.1223-0.39478 0.22376-0.43165 0.18689-0.0424-0.0424 0.0731-0.39129 0.18468-0.55758 0.10756-0.16031 0.17728-0.33335 0.13431-0.33335-0.011 0-0.0874 0.0474-0.16962 0.10544-0.22266 0.15695-0.3877 0.0588-0.17247-0.10255 0.0523-0.0392 0.11071-0.0837 0.12974-0.0988 0.019-0.0151 0.0969-0.0653 0.17299-0.11152 0.0761-0.0463 0.15897-0.10415 0.18411-0.12864 0.14465-0.14093 0.34877-0.0134 0.22997 0.1437-0.0856 0.11323-0.0609 0.13236 0.13912 0.10738 0.1809-0.0226 0.19185-0.0195 0.23066 0.0657 0.0706 0.155 0.36362 0.055 0.42511-0.14508 0.0132-0.0428 0.0372-0.0779 0.0535-0.0779 0.0399 0 0.34638-0.30856 0.34638-0.34871 0-0.047-0.0511-0.039-0.16348 0.0255-0.11461 0.0658-0.28629 0.0411-0.28629-0.0411 0-0.0818 0.73661-0.36647 0.87065-0.33651 0.10986 0.0246 0.108 0.12369-4e-3 0.21582-0.14149 0.11633-0.13373 0.1391 0.0474 0.1391 0.20613 0 0.26232 0.0267 0.26232 0.12479 0 0.0455 0.0195 0.0846 0.0433 0.0868 0.0238 2e-3 0.0588 8e-3 0.0778 0.012s0.0541 0.0104 0.0778 0.0133c0.0568 7e-3 0.0556 0.12491-2e-3 0.17247-0.0247 0.0205-0.14537 0.0499-0.26814 0.0652-0.2509 0.0314-0.23681 3e-3 -0.20301 0.40645 0.0123 0.14688 5e-3 0.17371-0.0507 0.18504-0.0778 0.0159-0.12398-0.0471-0.12471-0.16987-3.7e-4 -0.0968-0.0931-0.30805-0.13489-0.30805-0.014 0-0.12482 0.0389-0.24621 0.0865s-0.25749 0.0865-0.30244 0.0865c-0.045 0-0.13931 0.0298-0.20968 0.0662-0.0704 0.0364-0.18634 0.0945-0.25769 0.12896-0.12719 0.0615-0.17847 0.18577-0.0973 0.23591 0.0531 0.0328 0.14058 0.23077 0.14058 0.31805 0 0.10853-0.081 0.10379-0.17048-0.01zm-0.38309-0.49311c0-0.0125 0.074-0.0612 0.16434-0.10841 0.27851-0.14536 0.27785-0.18927-2e-3 -0.13307-0.1384 0.0278-0.20115 0.058-0.21569 0.1038-0.0113 0.0355-0.035 0.0646-0.0528 0.0646-0.0177 0-0.0323 0.0297-0.0323 0.066 0 0.0489 0.0179 0.0613 0.0692 0.0479 0.0381-0.01 0.0692-0.0283 0.0692-0.0407zm1.6164-0.64939c0.0612-0.0255 0.15386-0.0465 0.20585-0.0465 0.13465 0 0.0576-0.0662-0.12481-0.10718-0.133-0.0299-0.15706-0.0236-0.29826 0.0778-0.0845 0.0607-0.1536 0.12394-0.1536 0.1406 0 0.037 0.21855-1e-3 0.37082-0.0648zm3.089 0.80205c-0.0476-0.0277-0.12041-0.0509-0.16186-0.0515-0.13479-2e-3 -0.17924-0.0857-0.17553-0.3298 3e-3 -0.20681 0.01-0.225 0.0785-0.225 0.12348 0 0.20888 0.12057 0.16054 0.22666-0.0592 0.12986-0.0521 0.14397 0.0853 0.16974 0.069 0.0129 0.15068 0.0371 0.18164 0.0536 0.031 0.0166 0.10014 0.0394 0.15373 0.0508 0.0678 0.0144 0.094 0.0387 0.0862 0.0799-0.0149 0.0787-0.28788 0.0957-0.40851 0.0256zm1.2019-0.19115c-0.071-0.0381-0.16618-0.0692-0.21149-0.0692-0.10672 0-0.18732-0.0904-0.13091-0.14678 0.022-0.022 0.0401-0.0827 0.0401-0.13488 0-0.0522 0.0171-0.10538 0.0379-0.11827 0.0209-0.0129 0.0312-0.069 0.0231-0.12466-0.0208-0.14203 0.0204-0.15167 0.22629-0.0528 0.0989 0.0475 0.25374 0.11905 0.34413 0.15905 0.19206 0.085 0.19728 0.10705 0.0652 0.27499-0.0546 0.0693-0.11008 0.1611-0.12342 0.20392-0.0299 0.0961-0.10331 0.0984-0.27081 9e-3zm0.16101-0.25182c0.0498-0.08-0.0247-0.13304-0.16899-0.12047-0.12801 0.0112-0.15448 0.10353-0.0449 0.15687 0.10328 0.0503 0.16667 0.0395 0.21392-0.0364zm-2.6256 0.21745c-0.013-0.021-0.0184-0.13475-0.012-0.25276l0.0116-0.21454-0.12822 0.01c-0.0705 5e-3 -0.17166 0.0326-0.22476 0.0603s-0.13958 0.0505-0.19217 0.0506c-0.0526 1.1e-4 -0.12501 0.0186-0.16094 0.041-0.0524 0.0327-0.0832 0.0291-0.15523-0.0181-0.16673-0.10924-0.0723-0.19455 0.21717-0.19621 0.0499-2.9e-4 0.1531-0.023 0.22921-0.0504 0.0761-0.0274 0.19648-0.0505 0.26748-0.0514 0.10583-1e-3 0.13174-0.0156 0.14384-0.0794 8e-3 -0.0428 0.0318-0.16077 0.0525-0.26212 0.0605-0.29473 0.0505-0.3823-0.0487-0.42748-0.11346-0.0517-0.11016-0.11951 7e-3 -0.14189 0.1904-0.0364 0.35964 0.0939 0.29509 0.22721-0.0204 0.0422-0.0465 0.27128-0.058 0.50914-0.0313 0.64765-0.13211 0.97671-0.24381 0.79598zm1.4514-0.0373c-0.0302-0.049 0.0137-0.3363 0.0554-0.36206 0.0179-0.0111 0.0326-0.0519 0.0326-0.0906 0-0.0388 0.021-0.11179 0.0467-0.1623 0.12055-0.23697 0.1532-0.40867 0.0857-0.4508-0.0348-0.0217-0.0632-0.0689-0.0632-0.10476 0-0.12443 0.33853 0.0127 0.34488 0.13974 7.4e-4 0.0121-0.0466 0.15222-0.10501 0.31138-0.0584 0.15916-0.11962 0.33246-0.13614 0.3851-0.0965 0.30772-0.19745 0.43702-0.26093 0.33431zm-0.72068-0.47668c-0.23489-0.15972-0.22805-0.46621 0.013-0.58037 0.29776-0.14105 0.26597-0.14143 0.41595 5e-3 0.26047 0.25435 0.1588 0.59379-0.18833 0.62876-0.10083 0.0101-0.16952-5e-3 -0.24057-0.0534zm0.34805-0.14966c0.0998-0.0938 0.10101-0.15751 5e-3 -0.25988-0.14451-0.15382-0.33995-0.0876-0.33995 0.11518 0 0.19705 0.19139 0.2797 0.3351 0.1447zm-1.7974-0.0575c-0.24343-0.16052-0.25988-0.32107-0.0556-0.54269 0.1813-0.19669 0.21654-0.19587 0.5064 0.0118 0.3447 0.24693-0.0954 0.76525-0.4508 0.53091zm0.32285-0.21445c0.082-0.0439 0.0847-0.0947 0.01-0.1777-0.0715-0.079-0.13001-0.08-0.21913-4e-3 -0.14819 0.12688 0.0273 0.27886 0.20947 0.18138z" fill="#0321f5" stroke-width=".034598"/>
   <path d="m88.847 181.3v-2.5036h-2.6318v-2.3048h2.6318v-2.6764h2.3892v2.6764h2.4655v2.3048h-2.4655v2.5036z" fill="#fe0000" stroke-width=".034598"/>
  </g>
 </g>
</svg>
